%TF.GenerationSoftware,KiCad,Pcbnew,9.0.5*%
%TF.CreationDate,2026-04-16T09:43:24-04:00*%
%TF.ProjectId,CUR_ground_station_25-26,4355525f-6772-46f7-956e-645f73746174,rev?*%
%TF.SameCoordinates,Original*%
%TF.FileFunction,Legend,Top*%
%TF.FilePolarity,Positive*%
%FSLAX46Y46*%
G04 Gerber Fmt 4.6, Leading zero omitted, Abs format (unit mm)*
G04 Created by KiCad (PCBNEW 9.0.5) date 2026-04-16 09:43:24*
%MOMM*%
%LPD*%
G01*
G04 APERTURE LIST*
%ADD10C,0.150000*%
%ADD11C,0.120000*%
%ADD12C,0.152400*%
%ADD13C,0.250000*%
%ADD14C,0.150001*%
%ADD15C,0.100000*%
%ADD16C,0.200000*%
%ADD17C,0.127000*%
G04 APERTURE END LIST*
D10*
X67000000Y-67000000D02*
X67000000Y-66500000D01*
X80500000Y-71500000D02*
X77000000Y-69500000D01*
X75000000Y-69500000D02*
X75000000Y-69000000D01*
X63250000Y-68250000D02*
X63250000Y-67750000D01*
X77000000Y-69500000D02*
X77000000Y-69000000D01*
X68000000Y-67750000D02*
X69000000Y-67000000D01*
X68000000Y-68250000D02*
X68000000Y-67750000D01*
X63250000Y-67750000D02*
X67000000Y-67000000D01*
X84500000Y-71500000D02*
X84500000Y-72000000D01*
X67750000Y-72000000D02*
X67750000Y-71500000D01*
X71750000Y-71500000D02*
X73000000Y-69500000D01*
X71750000Y-72000000D02*
X71750000Y-71500000D01*
X80500000Y-72000000D02*
X80500000Y-71500000D01*
X76500000Y-72000000D02*
X76500000Y-71500000D01*
X84500000Y-71500000D02*
X79000000Y-69500000D01*
X71250000Y-69500000D02*
X71250000Y-69000000D01*
X67750000Y-71500000D02*
X71250000Y-69500000D01*
X76500000Y-71500000D02*
X75000000Y-69500000D01*
X79000000Y-69500000D02*
X79000000Y-69000000D01*
X69000000Y-67000000D02*
X69000000Y-66500000D01*
X73000000Y-69500000D02*
X73000000Y-69000000D01*
X67583333Y-94654819D02*
X67250000Y-94178628D01*
X67011905Y-94654819D02*
X67011905Y-93654819D01*
X67011905Y-93654819D02*
X67392857Y-93654819D01*
X67392857Y-93654819D02*
X67488095Y-93702438D01*
X67488095Y-93702438D02*
X67535714Y-93750057D01*
X67535714Y-93750057D02*
X67583333Y-93845295D01*
X67583333Y-93845295D02*
X67583333Y-93988152D01*
X67583333Y-93988152D02*
X67535714Y-94083390D01*
X67535714Y-94083390D02*
X67488095Y-94131009D01*
X67488095Y-94131009D02*
X67392857Y-94178628D01*
X67392857Y-94178628D02*
X67011905Y-94178628D01*
X67916667Y-93654819D02*
X68583333Y-94654819D01*
X68583333Y-93654819D02*
X67916667Y-94654819D01*
X85836779Y-61054819D02*
X85836779Y-60054819D01*
X86503445Y-60054819D02*
X86693921Y-60054819D01*
X86693921Y-60054819D02*
X86789159Y-60102438D01*
X86789159Y-60102438D02*
X86884397Y-60197676D01*
X86884397Y-60197676D02*
X86932016Y-60388152D01*
X86932016Y-60388152D02*
X86932016Y-60721485D01*
X86932016Y-60721485D02*
X86884397Y-60911961D01*
X86884397Y-60911961D02*
X86789159Y-61007200D01*
X86789159Y-61007200D02*
X86693921Y-61054819D01*
X86693921Y-61054819D02*
X86503445Y-61054819D01*
X86503445Y-61054819D02*
X86408207Y-61007200D01*
X86408207Y-61007200D02*
X86312969Y-60911961D01*
X86312969Y-60911961D02*
X86265350Y-60721485D01*
X86265350Y-60721485D02*
X86265350Y-60388152D01*
X86265350Y-60388152D02*
X86312969Y-60197676D01*
X86312969Y-60197676D02*
X86408207Y-60102438D01*
X86408207Y-60102438D02*
X86503445Y-60054819D01*
X87884397Y-61054819D02*
X87312969Y-61054819D01*
X87598683Y-61054819D02*
X87598683Y-60054819D01*
X87598683Y-60054819D02*
X87503445Y-60197676D01*
X87503445Y-60197676D02*
X87408207Y-60292914D01*
X87408207Y-60292914D02*
X87312969Y-60340533D01*
X94166667Y-66949847D02*
X94166667Y-65949847D01*
X94166667Y-65949847D02*
X94547619Y-65949847D01*
X94547619Y-65949847D02*
X94642857Y-65997466D01*
X94642857Y-65997466D02*
X94690476Y-66045085D01*
X94690476Y-66045085D02*
X94738095Y-66140323D01*
X94738095Y-66140323D02*
X94738095Y-66283180D01*
X94738095Y-66283180D02*
X94690476Y-66378418D01*
X94690476Y-66378418D02*
X94642857Y-66426037D01*
X94642857Y-66426037D02*
X94547619Y-66473656D01*
X94547619Y-66473656D02*
X94166667Y-66473656D01*
X95071429Y-65949847D02*
X95309524Y-66949847D01*
X95309524Y-66949847D02*
X95500000Y-66235561D01*
X95500000Y-66235561D02*
X95690476Y-66949847D01*
X95690476Y-66949847D02*
X95928572Y-65949847D01*
X96880952Y-66949847D02*
X96547619Y-66473656D01*
X96309524Y-66949847D02*
X96309524Y-65949847D01*
X96309524Y-65949847D02*
X96690476Y-65949847D01*
X96690476Y-65949847D02*
X96785714Y-65997466D01*
X96785714Y-65997466D02*
X96833333Y-66045085D01*
X96833333Y-66045085D02*
X96880952Y-66140323D01*
X96880952Y-66140323D02*
X96880952Y-66283180D01*
X96880952Y-66283180D02*
X96833333Y-66378418D01*
X96833333Y-66378418D02*
X96785714Y-66426037D01*
X96785714Y-66426037D02*
X96690476Y-66473656D01*
X96690476Y-66473656D02*
X96309524Y-66473656D01*
X94666666Y-68035981D02*
X94809523Y-68083600D01*
X94809523Y-68083600D02*
X94857142Y-68131219D01*
X94857142Y-68131219D02*
X94904761Y-68226457D01*
X94904761Y-68226457D02*
X94904761Y-68369314D01*
X94904761Y-68369314D02*
X94857142Y-68464552D01*
X94857142Y-68464552D02*
X94809523Y-68512172D01*
X94809523Y-68512172D02*
X94714285Y-68559791D01*
X94714285Y-68559791D02*
X94333333Y-68559791D01*
X94333333Y-68559791D02*
X94333333Y-67559791D01*
X94333333Y-67559791D02*
X94666666Y-67559791D01*
X94666666Y-67559791D02*
X94761904Y-67607410D01*
X94761904Y-67607410D02*
X94809523Y-67655029D01*
X94809523Y-67655029D02*
X94857142Y-67750267D01*
X94857142Y-67750267D02*
X94857142Y-67845505D01*
X94857142Y-67845505D02*
X94809523Y-67940743D01*
X94809523Y-67940743D02*
X94761904Y-67988362D01*
X94761904Y-67988362D02*
X94666666Y-68035981D01*
X94666666Y-68035981D02*
X94333333Y-68035981D01*
X95190476Y-67559791D02*
X95761904Y-67559791D01*
X95476190Y-68559791D02*
X95476190Y-67559791D01*
X96095238Y-68559791D02*
X96095238Y-67559791D01*
X96095238Y-67559791D02*
X96666666Y-68559791D01*
X96666666Y-68559791D02*
X96666666Y-67559791D01*
X108836779Y-58454819D02*
X108836779Y-57454819D01*
X108836779Y-57454819D02*
X109217731Y-57454819D01*
X109217731Y-57454819D02*
X109312969Y-57502438D01*
X109312969Y-57502438D02*
X109360588Y-57550057D01*
X109360588Y-57550057D02*
X109408207Y-57645295D01*
X109408207Y-57645295D02*
X109408207Y-57788152D01*
X109408207Y-57788152D02*
X109360588Y-57883390D01*
X109360588Y-57883390D02*
X109312969Y-57931009D01*
X109312969Y-57931009D02*
X109217731Y-57978628D01*
X109217731Y-57978628D02*
X108836779Y-57978628D01*
X110360588Y-57502438D02*
X110265350Y-57454819D01*
X110265350Y-57454819D02*
X110122493Y-57454819D01*
X110122493Y-57454819D02*
X109979636Y-57502438D01*
X109979636Y-57502438D02*
X109884398Y-57597676D01*
X109884398Y-57597676D02*
X109836779Y-57692914D01*
X109836779Y-57692914D02*
X109789160Y-57883390D01*
X109789160Y-57883390D02*
X109789160Y-58026247D01*
X109789160Y-58026247D02*
X109836779Y-58216723D01*
X109836779Y-58216723D02*
X109884398Y-58311961D01*
X109884398Y-58311961D02*
X109979636Y-58407200D01*
X109979636Y-58407200D02*
X110122493Y-58454819D01*
X110122493Y-58454819D02*
X110217731Y-58454819D01*
X110217731Y-58454819D02*
X110360588Y-58407200D01*
X110360588Y-58407200D02*
X110408207Y-58359580D01*
X110408207Y-58359580D02*
X110408207Y-58026247D01*
X110408207Y-58026247D02*
X110217731Y-58026247D01*
X111027255Y-57454819D02*
X111217731Y-57454819D01*
X111217731Y-57454819D02*
X111312969Y-57502438D01*
X111312969Y-57502438D02*
X111408207Y-57597676D01*
X111408207Y-57597676D02*
X111455826Y-57788152D01*
X111455826Y-57788152D02*
X111455826Y-58121485D01*
X111455826Y-58121485D02*
X111408207Y-58311961D01*
X111408207Y-58311961D02*
X111312969Y-58407200D01*
X111312969Y-58407200D02*
X111217731Y-58454819D01*
X111217731Y-58454819D02*
X111027255Y-58454819D01*
X111027255Y-58454819D02*
X110932017Y-58407200D01*
X110932017Y-58407200D02*
X110836779Y-58311961D01*
X110836779Y-58311961D02*
X110789160Y-58121485D01*
X110789160Y-58121485D02*
X110789160Y-57788152D01*
X110789160Y-57788152D02*
X110836779Y-57597676D01*
X110836779Y-57597676D02*
X110932017Y-57502438D01*
X110932017Y-57502438D02*
X111027255Y-57454819D01*
X112074874Y-57454819D02*
X112265350Y-57454819D01*
X112265350Y-57454819D02*
X112360588Y-57502438D01*
X112360588Y-57502438D02*
X112455826Y-57597676D01*
X112455826Y-57597676D02*
X112503445Y-57788152D01*
X112503445Y-57788152D02*
X112503445Y-58121485D01*
X112503445Y-58121485D02*
X112455826Y-58311961D01*
X112455826Y-58311961D02*
X112360588Y-58407200D01*
X112360588Y-58407200D02*
X112265350Y-58454819D01*
X112265350Y-58454819D02*
X112074874Y-58454819D01*
X112074874Y-58454819D02*
X111979636Y-58407200D01*
X111979636Y-58407200D02*
X111884398Y-58311961D01*
X111884398Y-58311961D02*
X111836779Y-58121485D01*
X111836779Y-58121485D02*
X111836779Y-57788152D01*
X111836779Y-57788152D02*
X111884398Y-57597676D01*
X111884398Y-57597676D02*
X111979636Y-57502438D01*
X111979636Y-57502438D02*
X112074874Y-57454819D01*
X112932017Y-58454819D02*
X112932017Y-57454819D01*
X112932017Y-57454819D02*
X113170112Y-57454819D01*
X113170112Y-57454819D02*
X113312969Y-57502438D01*
X113312969Y-57502438D02*
X113408207Y-57597676D01*
X113408207Y-57597676D02*
X113455826Y-57692914D01*
X113455826Y-57692914D02*
X113503445Y-57883390D01*
X113503445Y-57883390D02*
X113503445Y-58026247D01*
X113503445Y-58026247D02*
X113455826Y-58216723D01*
X113455826Y-58216723D02*
X113408207Y-58311961D01*
X113408207Y-58311961D02*
X113312969Y-58407200D01*
X113312969Y-58407200D02*
X113170112Y-58454819D01*
X113170112Y-58454819D02*
X112932017Y-58454819D01*
X108698684Y-57177200D02*
X113593922Y-57177200D01*
X69288095Y-93654819D02*
X69859523Y-93654819D01*
X69573809Y-94654819D02*
X69573809Y-93654819D01*
X70097619Y-93654819D02*
X70764285Y-94654819D01*
X70764285Y-93654819D02*
X70097619Y-94654819D01*
X70336779Y-73454819D02*
X70336779Y-72454819D01*
X70336779Y-72454819D02*
X70670112Y-73169104D01*
X70670112Y-73169104D02*
X71003445Y-72454819D01*
X71003445Y-72454819D02*
X71003445Y-73454819D01*
X71479636Y-73454819D02*
X71479636Y-72454819D01*
X71908207Y-73407200D02*
X72051064Y-73454819D01*
X72051064Y-73454819D02*
X72289159Y-73454819D01*
X72289159Y-73454819D02*
X72384397Y-73407200D01*
X72384397Y-73407200D02*
X72432016Y-73359580D01*
X72432016Y-73359580D02*
X72479635Y-73264342D01*
X72479635Y-73264342D02*
X72479635Y-73169104D01*
X72479635Y-73169104D02*
X72432016Y-73073866D01*
X72432016Y-73073866D02*
X72384397Y-73026247D01*
X72384397Y-73026247D02*
X72289159Y-72978628D01*
X72289159Y-72978628D02*
X72098683Y-72931009D01*
X72098683Y-72931009D02*
X72003445Y-72883390D01*
X72003445Y-72883390D02*
X71955826Y-72835771D01*
X71955826Y-72835771D02*
X71908207Y-72740533D01*
X71908207Y-72740533D02*
X71908207Y-72645295D01*
X71908207Y-72645295D02*
X71955826Y-72550057D01*
X71955826Y-72550057D02*
X72003445Y-72502438D01*
X72003445Y-72502438D02*
X72098683Y-72454819D01*
X72098683Y-72454819D02*
X72336778Y-72454819D01*
X72336778Y-72454819D02*
X72479635Y-72502438D01*
X73098683Y-72454819D02*
X73289159Y-72454819D01*
X73289159Y-72454819D02*
X73384397Y-72502438D01*
X73384397Y-72502438D02*
X73479635Y-72597676D01*
X73479635Y-72597676D02*
X73527254Y-72788152D01*
X73527254Y-72788152D02*
X73527254Y-73121485D01*
X73527254Y-73121485D02*
X73479635Y-73311961D01*
X73479635Y-73311961D02*
X73384397Y-73407200D01*
X73384397Y-73407200D02*
X73289159Y-73454819D01*
X73289159Y-73454819D02*
X73098683Y-73454819D01*
X73098683Y-73454819D02*
X73003445Y-73407200D01*
X73003445Y-73407200D02*
X72908207Y-73311961D01*
X72908207Y-73311961D02*
X72860588Y-73121485D01*
X72860588Y-73121485D02*
X72860588Y-72788152D01*
X72860588Y-72788152D02*
X72908207Y-72597676D01*
X72908207Y-72597676D02*
X73003445Y-72502438D01*
X73003445Y-72502438D02*
X73098683Y-72454819D01*
X66170112Y-72931009D02*
X66312969Y-72978628D01*
X66312969Y-72978628D02*
X66360588Y-73026247D01*
X66360588Y-73026247D02*
X66408207Y-73121485D01*
X66408207Y-73121485D02*
X66408207Y-73264342D01*
X66408207Y-73264342D02*
X66360588Y-73359580D01*
X66360588Y-73359580D02*
X66312969Y-73407200D01*
X66312969Y-73407200D02*
X66217731Y-73454819D01*
X66217731Y-73454819D02*
X65836779Y-73454819D01*
X65836779Y-73454819D02*
X65836779Y-72454819D01*
X65836779Y-72454819D02*
X66170112Y-72454819D01*
X66170112Y-72454819D02*
X66265350Y-72502438D01*
X66265350Y-72502438D02*
X66312969Y-72550057D01*
X66312969Y-72550057D02*
X66360588Y-72645295D01*
X66360588Y-72645295D02*
X66360588Y-72740533D01*
X66360588Y-72740533D02*
X66312969Y-72835771D01*
X66312969Y-72835771D02*
X66265350Y-72883390D01*
X66265350Y-72883390D02*
X66170112Y-72931009D01*
X66170112Y-72931009D02*
X65836779Y-72931009D01*
X66836779Y-72454819D02*
X66836779Y-73264342D01*
X66836779Y-73264342D02*
X66884398Y-73359580D01*
X66884398Y-73359580D02*
X66932017Y-73407200D01*
X66932017Y-73407200D02*
X67027255Y-73454819D01*
X67027255Y-73454819D02*
X67217731Y-73454819D01*
X67217731Y-73454819D02*
X67312969Y-73407200D01*
X67312969Y-73407200D02*
X67360588Y-73359580D01*
X67360588Y-73359580D02*
X67408207Y-73264342D01*
X67408207Y-73264342D02*
X67408207Y-72454819D01*
X67836779Y-73407200D02*
X67979636Y-73454819D01*
X67979636Y-73454819D02*
X68217731Y-73454819D01*
X68217731Y-73454819D02*
X68312969Y-73407200D01*
X68312969Y-73407200D02*
X68360588Y-73359580D01*
X68360588Y-73359580D02*
X68408207Y-73264342D01*
X68408207Y-73264342D02*
X68408207Y-73169104D01*
X68408207Y-73169104D02*
X68360588Y-73073866D01*
X68360588Y-73073866D02*
X68312969Y-73026247D01*
X68312969Y-73026247D02*
X68217731Y-72978628D01*
X68217731Y-72978628D02*
X68027255Y-72931009D01*
X68027255Y-72931009D02*
X67932017Y-72883390D01*
X67932017Y-72883390D02*
X67884398Y-72835771D01*
X67884398Y-72835771D02*
X67836779Y-72740533D01*
X67836779Y-72740533D02*
X67836779Y-72645295D01*
X67836779Y-72645295D02*
X67884398Y-72550057D01*
X67884398Y-72550057D02*
X67932017Y-72502438D01*
X67932017Y-72502438D02*
X68027255Y-72454819D01*
X68027255Y-72454819D02*
X68265350Y-72454819D01*
X68265350Y-72454819D02*
X68408207Y-72502438D01*
X69027255Y-72978628D02*
X69027255Y-73454819D01*
X68693922Y-72454819D02*
X69027255Y-72978628D01*
X69027255Y-72978628D02*
X69360588Y-72454819D01*
X85836779Y-57554819D02*
X85836779Y-56554819D01*
X86503445Y-56554819D02*
X86693921Y-56554819D01*
X86693921Y-56554819D02*
X86789159Y-56602438D01*
X86789159Y-56602438D02*
X86884397Y-56697676D01*
X86884397Y-56697676D02*
X86932016Y-56888152D01*
X86932016Y-56888152D02*
X86932016Y-57221485D01*
X86932016Y-57221485D02*
X86884397Y-57411961D01*
X86884397Y-57411961D02*
X86789159Y-57507200D01*
X86789159Y-57507200D02*
X86693921Y-57554819D01*
X86693921Y-57554819D02*
X86503445Y-57554819D01*
X86503445Y-57554819D02*
X86408207Y-57507200D01*
X86408207Y-57507200D02*
X86312969Y-57411961D01*
X86312969Y-57411961D02*
X86265350Y-57221485D01*
X86265350Y-57221485D02*
X86265350Y-56888152D01*
X86265350Y-56888152D02*
X86312969Y-56697676D01*
X86312969Y-56697676D02*
X86408207Y-56602438D01*
X86408207Y-56602438D02*
X86503445Y-56554819D01*
X87265350Y-56554819D02*
X87884397Y-56554819D01*
X87884397Y-56554819D02*
X87551064Y-56935771D01*
X87551064Y-56935771D02*
X87693921Y-56935771D01*
X87693921Y-56935771D02*
X87789159Y-56983390D01*
X87789159Y-56983390D02*
X87836778Y-57031009D01*
X87836778Y-57031009D02*
X87884397Y-57126247D01*
X87884397Y-57126247D02*
X87884397Y-57364342D01*
X87884397Y-57364342D02*
X87836778Y-57459580D01*
X87836778Y-57459580D02*
X87789159Y-57507200D01*
X87789159Y-57507200D02*
X87693921Y-57554819D01*
X87693921Y-57554819D02*
X87408207Y-57554819D01*
X87408207Y-57554819D02*
X87312969Y-57507200D01*
X87312969Y-57507200D02*
X87265350Y-57459580D01*
X71908207Y-52054819D02*
X71574874Y-51578628D01*
X71336779Y-52054819D02*
X71336779Y-51054819D01*
X71336779Y-51054819D02*
X71717731Y-51054819D01*
X71717731Y-51054819D02*
X71812969Y-51102438D01*
X71812969Y-51102438D02*
X71860588Y-51150057D01*
X71860588Y-51150057D02*
X71908207Y-51245295D01*
X71908207Y-51245295D02*
X71908207Y-51388152D01*
X71908207Y-51388152D02*
X71860588Y-51483390D01*
X71860588Y-51483390D02*
X71812969Y-51531009D01*
X71812969Y-51531009D02*
X71717731Y-51578628D01*
X71717731Y-51578628D02*
X71336779Y-51578628D01*
X72289160Y-52007200D02*
X72432017Y-52054819D01*
X72432017Y-52054819D02*
X72670112Y-52054819D01*
X72670112Y-52054819D02*
X72765350Y-52007200D01*
X72765350Y-52007200D02*
X72812969Y-51959580D01*
X72812969Y-51959580D02*
X72860588Y-51864342D01*
X72860588Y-51864342D02*
X72860588Y-51769104D01*
X72860588Y-51769104D02*
X72812969Y-51673866D01*
X72812969Y-51673866D02*
X72765350Y-51626247D01*
X72765350Y-51626247D02*
X72670112Y-51578628D01*
X72670112Y-51578628D02*
X72479636Y-51531009D01*
X72479636Y-51531009D02*
X72384398Y-51483390D01*
X72384398Y-51483390D02*
X72336779Y-51435771D01*
X72336779Y-51435771D02*
X72289160Y-51340533D01*
X72289160Y-51340533D02*
X72289160Y-51245295D01*
X72289160Y-51245295D02*
X72336779Y-51150057D01*
X72336779Y-51150057D02*
X72384398Y-51102438D01*
X72384398Y-51102438D02*
X72479636Y-51054819D01*
X72479636Y-51054819D02*
X72717731Y-51054819D01*
X72717731Y-51054819D02*
X72860588Y-51102438D01*
X73146303Y-51054819D02*
X73717731Y-51054819D01*
X73432017Y-52054819D02*
X73432017Y-51054819D01*
X71198684Y-50777200D02*
X73712970Y-50777200D01*
X74836779Y-73454819D02*
X74836779Y-72454819D01*
X74836779Y-72454819D02*
X75170112Y-73169104D01*
X75170112Y-73169104D02*
X75503445Y-72454819D01*
X75503445Y-72454819D02*
X75503445Y-73454819D01*
X76170112Y-72454819D02*
X76360588Y-72454819D01*
X76360588Y-72454819D02*
X76455826Y-72502438D01*
X76455826Y-72502438D02*
X76551064Y-72597676D01*
X76551064Y-72597676D02*
X76598683Y-72788152D01*
X76598683Y-72788152D02*
X76598683Y-73121485D01*
X76598683Y-73121485D02*
X76551064Y-73311961D01*
X76551064Y-73311961D02*
X76455826Y-73407200D01*
X76455826Y-73407200D02*
X76360588Y-73454819D01*
X76360588Y-73454819D02*
X76170112Y-73454819D01*
X76170112Y-73454819D02*
X76074874Y-73407200D01*
X76074874Y-73407200D02*
X75979636Y-73311961D01*
X75979636Y-73311961D02*
X75932017Y-73121485D01*
X75932017Y-73121485D02*
X75932017Y-72788152D01*
X75932017Y-72788152D02*
X75979636Y-72597676D01*
X75979636Y-72597676D02*
X76074874Y-72502438D01*
X76074874Y-72502438D02*
X76170112Y-72454819D01*
X76979636Y-73407200D02*
X77122493Y-73454819D01*
X77122493Y-73454819D02*
X77360588Y-73454819D01*
X77360588Y-73454819D02*
X77455826Y-73407200D01*
X77455826Y-73407200D02*
X77503445Y-73359580D01*
X77503445Y-73359580D02*
X77551064Y-73264342D01*
X77551064Y-73264342D02*
X77551064Y-73169104D01*
X77551064Y-73169104D02*
X77503445Y-73073866D01*
X77503445Y-73073866D02*
X77455826Y-73026247D01*
X77455826Y-73026247D02*
X77360588Y-72978628D01*
X77360588Y-72978628D02*
X77170112Y-72931009D01*
X77170112Y-72931009D02*
X77074874Y-72883390D01*
X77074874Y-72883390D02*
X77027255Y-72835771D01*
X77027255Y-72835771D02*
X76979636Y-72740533D01*
X76979636Y-72740533D02*
X76979636Y-72645295D01*
X76979636Y-72645295D02*
X77027255Y-72550057D01*
X77027255Y-72550057D02*
X77074874Y-72502438D01*
X77074874Y-72502438D02*
X77170112Y-72454819D01*
X77170112Y-72454819D02*
X77408207Y-72454819D01*
X77408207Y-72454819D02*
X77551064Y-72502438D01*
X77979636Y-73454819D02*
X77979636Y-72454819D01*
X71361905Y-93604819D02*
X71980952Y-93604819D01*
X71980952Y-93604819D02*
X71647619Y-93985771D01*
X71647619Y-93985771D02*
X71790476Y-93985771D01*
X71790476Y-93985771D02*
X71885714Y-94033390D01*
X71885714Y-94033390D02*
X71933333Y-94081009D01*
X71933333Y-94081009D02*
X71980952Y-94176247D01*
X71980952Y-94176247D02*
X71980952Y-94414342D01*
X71980952Y-94414342D02*
X71933333Y-94509580D01*
X71933333Y-94509580D02*
X71885714Y-94557200D01*
X71885714Y-94557200D02*
X71790476Y-94604819D01*
X71790476Y-94604819D02*
X71504762Y-94604819D01*
X71504762Y-94604819D02*
X71409524Y-94557200D01*
X71409524Y-94557200D02*
X71361905Y-94509580D01*
X72266667Y-93604819D02*
X72600000Y-94604819D01*
X72600000Y-94604819D02*
X72933333Y-93604819D01*
X73171429Y-93604819D02*
X73790476Y-93604819D01*
X73790476Y-93604819D02*
X73457143Y-93985771D01*
X73457143Y-93985771D02*
X73600000Y-93985771D01*
X73600000Y-93985771D02*
X73695238Y-94033390D01*
X73695238Y-94033390D02*
X73742857Y-94081009D01*
X73742857Y-94081009D02*
X73790476Y-94176247D01*
X73790476Y-94176247D02*
X73790476Y-94414342D01*
X73790476Y-94414342D02*
X73742857Y-94509580D01*
X73742857Y-94509580D02*
X73695238Y-94557200D01*
X73695238Y-94557200D02*
X73600000Y-94604819D01*
X73600000Y-94604819D02*
X73314286Y-94604819D01*
X73314286Y-94604819D02*
X73219048Y-94557200D01*
X73219048Y-94557200D02*
X73171429Y-94509580D01*
X63080952Y-83469819D02*
X62604762Y-83469819D01*
X62604762Y-83469819D02*
X62604762Y-82469819D01*
X63414286Y-82946009D02*
X63747619Y-82946009D01*
X63890476Y-83469819D02*
X63414286Y-83469819D01*
X63414286Y-83469819D02*
X63414286Y-82469819D01*
X63414286Y-82469819D02*
X63890476Y-82469819D01*
X64319048Y-83469819D02*
X64319048Y-82469819D01*
X64319048Y-82469819D02*
X64557143Y-82469819D01*
X64557143Y-82469819D02*
X64700000Y-82517438D01*
X64700000Y-82517438D02*
X64795238Y-82612676D01*
X64795238Y-82612676D02*
X64842857Y-82707914D01*
X64842857Y-82707914D02*
X64890476Y-82898390D01*
X64890476Y-82898390D02*
X64890476Y-83041247D01*
X64890476Y-83041247D02*
X64842857Y-83231723D01*
X64842857Y-83231723D02*
X64795238Y-83326961D01*
X64795238Y-83326961D02*
X64700000Y-83422200D01*
X64700000Y-83422200D02*
X64557143Y-83469819D01*
X64557143Y-83469819D02*
X64319048Y-83469819D01*
X65842857Y-83469819D02*
X65271429Y-83469819D01*
X65557143Y-83469819D02*
X65557143Y-82469819D01*
X65557143Y-82469819D02*
X65461905Y-82612676D01*
X65461905Y-82612676D02*
X65366667Y-82707914D01*
X65366667Y-82707914D02*
X65271429Y-82755533D01*
X79336779Y-73454819D02*
X79336779Y-72454819D01*
X79336779Y-72454819D02*
X79908207Y-73454819D01*
X79908207Y-73454819D02*
X79908207Y-72454819D01*
X80336779Y-73407200D02*
X80479636Y-73454819D01*
X80479636Y-73454819D02*
X80717731Y-73454819D01*
X80717731Y-73454819D02*
X80812969Y-73407200D01*
X80812969Y-73407200D02*
X80860588Y-73359580D01*
X80860588Y-73359580D02*
X80908207Y-73264342D01*
X80908207Y-73264342D02*
X80908207Y-73169104D01*
X80908207Y-73169104D02*
X80860588Y-73073866D01*
X80860588Y-73073866D02*
X80812969Y-73026247D01*
X80812969Y-73026247D02*
X80717731Y-72978628D01*
X80717731Y-72978628D02*
X80527255Y-72931009D01*
X80527255Y-72931009D02*
X80432017Y-72883390D01*
X80432017Y-72883390D02*
X80384398Y-72835771D01*
X80384398Y-72835771D02*
X80336779Y-72740533D01*
X80336779Y-72740533D02*
X80336779Y-72645295D01*
X80336779Y-72645295D02*
X80384398Y-72550057D01*
X80384398Y-72550057D02*
X80432017Y-72502438D01*
X80432017Y-72502438D02*
X80527255Y-72454819D01*
X80527255Y-72454819D02*
X80765350Y-72454819D01*
X80765350Y-72454819D02*
X80908207Y-72502438D01*
X81289160Y-73407200D02*
X81432017Y-73454819D01*
X81432017Y-73454819D02*
X81670112Y-73454819D01*
X81670112Y-73454819D02*
X81765350Y-73407200D01*
X81765350Y-73407200D02*
X81812969Y-73359580D01*
X81812969Y-73359580D02*
X81860588Y-73264342D01*
X81860588Y-73264342D02*
X81860588Y-73169104D01*
X81860588Y-73169104D02*
X81812969Y-73073866D01*
X81812969Y-73073866D02*
X81765350Y-73026247D01*
X81765350Y-73026247D02*
X81670112Y-72978628D01*
X81670112Y-72978628D02*
X81479636Y-72931009D01*
X81479636Y-72931009D02*
X81384398Y-72883390D01*
X81384398Y-72883390D02*
X81336779Y-72835771D01*
X81336779Y-72835771D02*
X81289160Y-72740533D01*
X81289160Y-72740533D02*
X81289160Y-72645295D01*
X81289160Y-72645295D02*
X81336779Y-72550057D01*
X81336779Y-72550057D02*
X81384398Y-72502438D01*
X81384398Y-72502438D02*
X81479636Y-72454819D01*
X81479636Y-72454819D02*
X81717731Y-72454819D01*
X81717731Y-72454819D02*
X81860588Y-72502438D01*
X79198684Y-72177200D02*
X81951065Y-72177200D01*
X66908207Y-69454819D02*
X66574874Y-68978628D01*
X66336779Y-69454819D02*
X66336779Y-68454819D01*
X66336779Y-68454819D02*
X66717731Y-68454819D01*
X66717731Y-68454819D02*
X66812969Y-68502438D01*
X66812969Y-68502438D02*
X66860588Y-68550057D01*
X66860588Y-68550057D02*
X66908207Y-68645295D01*
X66908207Y-68645295D02*
X66908207Y-68788152D01*
X66908207Y-68788152D02*
X66860588Y-68883390D01*
X66860588Y-68883390D02*
X66812969Y-68931009D01*
X66812969Y-68931009D02*
X66717731Y-68978628D01*
X66717731Y-68978628D02*
X66336779Y-68978628D01*
X67241541Y-68454819D02*
X67908207Y-69454819D01*
X67908207Y-68454819D02*
X67241541Y-69454819D01*
X68289160Y-68931009D02*
X68622493Y-68931009D01*
X68765350Y-69454819D02*
X68289160Y-69454819D01*
X68289160Y-69454819D02*
X68289160Y-68454819D01*
X68289160Y-68454819D02*
X68765350Y-68454819D01*
X69193922Y-69454819D02*
X69193922Y-68454819D01*
X69193922Y-68454819D02*
X69765350Y-69454819D01*
X69765350Y-69454819D02*
X69765350Y-68454819D01*
X61693922Y-68454819D02*
X62265350Y-68454819D01*
X61979636Y-69454819D02*
X61979636Y-68454819D01*
X62503446Y-68454819D02*
X63170112Y-69454819D01*
X63170112Y-68454819D02*
X62503446Y-69454819D01*
X63551065Y-68931009D02*
X63884398Y-68931009D01*
X64027255Y-69454819D02*
X63551065Y-69454819D01*
X63551065Y-69454819D02*
X63551065Y-68454819D01*
X63551065Y-68454819D02*
X64027255Y-68454819D01*
X64455827Y-69454819D02*
X64455827Y-68454819D01*
X64455827Y-68454819D02*
X65027255Y-69454819D01*
X65027255Y-69454819D02*
X65027255Y-68454819D01*
X102991791Y-72126037D02*
X103134648Y-72173656D01*
X103134648Y-72173656D02*
X103182267Y-72221275D01*
X103182267Y-72221275D02*
X103229886Y-72316513D01*
X103229886Y-72316513D02*
X103229886Y-72459370D01*
X103229886Y-72459370D02*
X103182267Y-72554608D01*
X103182267Y-72554608D02*
X103134648Y-72602228D01*
X103134648Y-72602228D02*
X103039410Y-72649847D01*
X103039410Y-72649847D02*
X102658458Y-72649847D01*
X102658458Y-72649847D02*
X102658458Y-71649847D01*
X102658458Y-71649847D02*
X102991791Y-71649847D01*
X102991791Y-71649847D02*
X103087029Y-71697466D01*
X103087029Y-71697466D02*
X103134648Y-71745085D01*
X103134648Y-71745085D02*
X103182267Y-71840323D01*
X103182267Y-71840323D02*
X103182267Y-71935561D01*
X103182267Y-71935561D02*
X103134648Y-72030799D01*
X103134648Y-72030799D02*
X103087029Y-72078418D01*
X103087029Y-72078418D02*
X102991791Y-72126037D01*
X102991791Y-72126037D02*
X102658458Y-72126037D01*
X103610839Y-72364132D02*
X104087029Y-72364132D01*
X103515601Y-72649847D02*
X103848934Y-71649847D01*
X103848934Y-71649847D02*
X104182267Y-72649847D01*
X104372744Y-71649847D02*
X104944172Y-71649847D01*
X104658458Y-72649847D02*
X104658458Y-71649847D01*
X105134649Y-71649847D02*
X105706077Y-71649847D01*
X105420363Y-72649847D02*
X105420363Y-71649847D01*
X100277506Y-73259791D02*
X100610839Y-74259791D01*
X100610839Y-74259791D02*
X100944172Y-73259791D01*
X101229887Y-74212172D02*
X101372744Y-74259791D01*
X101372744Y-74259791D02*
X101610839Y-74259791D01*
X101610839Y-74259791D02*
X101706077Y-74212172D01*
X101706077Y-74212172D02*
X101753696Y-74164552D01*
X101753696Y-74164552D02*
X101801315Y-74069314D01*
X101801315Y-74069314D02*
X101801315Y-73974076D01*
X101801315Y-73974076D02*
X101753696Y-73878838D01*
X101753696Y-73878838D02*
X101706077Y-73831219D01*
X101706077Y-73831219D02*
X101610839Y-73783600D01*
X101610839Y-73783600D02*
X101420363Y-73735981D01*
X101420363Y-73735981D02*
X101325125Y-73688362D01*
X101325125Y-73688362D02*
X101277506Y-73640743D01*
X101277506Y-73640743D02*
X101229887Y-73545505D01*
X101229887Y-73545505D02*
X101229887Y-73450267D01*
X101229887Y-73450267D02*
X101277506Y-73355029D01*
X101277506Y-73355029D02*
X101325125Y-73307410D01*
X101325125Y-73307410D02*
X101420363Y-73259791D01*
X101420363Y-73259791D02*
X101658458Y-73259791D01*
X101658458Y-73259791D02*
X101801315Y-73307410D01*
X102229887Y-73735981D02*
X102563220Y-73735981D01*
X102706077Y-74259791D02*
X102229887Y-74259791D01*
X102229887Y-74259791D02*
X102229887Y-73259791D01*
X102229887Y-73259791D02*
X102706077Y-73259791D01*
X103134649Y-74259791D02*
X103134649Y-73259791D01*
X103134649Y-73259791D02*
X103706077Y-74259791D01*
X103706077Y-74259791D02*
X103706077Y-73259791D01*
X104134649Y-74212172D02*
X104277506Y-74259791D01*
X104277506Y-74259791D02*
X104515601Y-74259791D01*
X104515601Y-74259791D02*
X104610839Y-74212172D01*
X104610839Y-74212172D02*
X104658458Y-74164552D01*
X104658458Y-74164552D02*
X104706077Y-74069314D01*
X104706077Y-74069314D02*
X104706077Y-73974076D01*
X104706077Y-73974076D02*
X104658458Y-73878838D01*
X104658458Y-73878838D02*
X104610839Y-73831219D01*
X104610839Y-73831219D02*
X104515601Y-73783600D01*
X104515601Y-73783600D02*
X104325125Y-73735981D01*
X104325125Y-73735981D02*
X104229887Y-73688362D01*
X104229887Y-73688362D02*
X104182268Y-73640743D01*
X104182268Y-73640743D02*
X104134649Y-73545505D01*
X104134649Y-73545505D02*
X104134649Y-73450267D01*
X104134649Y-73450267D02*
X104182268Y-73355029D01*
X104182268Y-73355029D02*
X104229887Y-73307410D01*
X104229887Y-73307410D02*
X104325125Y-73259791D01*
X104325125Y-73259791D02*
X104563220Y-73259791D01*
X104563220Y-73259791D02*
X104706077Y-73307410D01*
X105134649Y-73735981D02*
X105467982Y-73735981D01*
X105610839Y-74259791D02*
X105134649Y-74259791D01*
X105134649Y-74259791D02*
X105134649Y-73259791D01*
X105134649Y-73259791D02*
X105610839Y-73259791D01*
X64188095Y-93702438D02*
X64092857Y-93654819D01*
X64092857Y-93654819D02*
X63950000Y-93654819D01*
X63950000Y-93654819D02*
X63807143Y-93702438D01*
X63807143Y-93702438D02*
X63711905Y-93797676D01*
X63711905Y-93797676D02*
X63664286Y-93892914D01*
X63664286Y-93892914D02*
X63616667Y-94083390D01*
X63616667Y-94083390D02*
X63616667Y-94226247D01*
X63616667Y-94226247D02*
X63664286Y-94416723D01*
X63664286Y-94416723D02*
X63711905Y-94511961D01*
X63711905Y-94511961D02*
X63807143Y-94607200D01*
X63807143Y-94607200D02*
X63950000Y-94654819D01*
X63950000Y-94654819D02*
X64045238Y-94654819D01*
X64045238Y-94654819D02*
X64188095Y-94607200D01*
X64188095Y-94607200D02*
X64235714Y-94559580D01*
X64235714Y-94559580D02*
X64235714Y-94226247D01*
X64235714Y-94226247D02*
X64045238Y-94226247D01*
X64664286Y-94654819D02*
X64664286Y-93654819D01*
X64664286Y-93654819D02*
X65235714Y-94654819D01*
X65235714Y-94654819D02*
X65235714Y-93654819D01*
X65711905Y-94654819D02*
X65711905Y-93654819D01*
X65711905Y-93654819D02*
X65950000Y-93654819D01*
X65950000Y-93654819D02*
X66092857Y-93702438D01*
X66092857Y-93702438D02*
X66188095Y-93797676D01*
X66188095Y-93797676D02*
X66235714Y-93892914D01*
X66235714Y-93892914D02*
X66283333Y-94083390D01*
X66283333Y-94083390D02*
X66283333Y-94226247D01*
X66283333Y-94226247D02*
X66235714Y-94416723D01*
X66235714Y-94416723D02*
X66188095Y-94511961D01*
X66188095Y-94511961D02*
X66092857Y-94607200D01*
X66092857Y-94607200D02*
X65950000Y-94654819D01*
X65950000Y-94654819D02*
X65711905Y-94654819D01*
X89912969Y-54249847D02*
X89436779Y-54249847D01*
X89436779Y-54249847D02*
X89436779Y-53249847D01*
X90246303Y-54249847D02*
X90246303Y-53249847D01*
X90246303Y-53249847D02*
X90484398Y-53249847D01*
X90484398Y-53249847D02*
X90627255Y-53297466D01*
X90627255Y-53297466D02*
X90722493Y-53392704D01*
X90722493Y-53392704D02*
X90770112Y-53487942D01*
X90770112Y-53487942D02*
X90817731Y-53678418D01*
X90817731Y-53678418D02*
X90817731Y-53821275D01*
X90817731Y-53821275D02*
X90770112Y-54011751D01*
X90770112Y-54011751D02*
X90722493Y-54106989D01*
X90722493Y-54106989D02*
X90627255Y-54202228D01*
X90627255Y-54202228D02*
X90484398Y-54249847D01*
X90484398Y-54249847D02*
X90246303Y-54249847D01*
X91436779Y-53249847D02*
X91627255Y-53249847D01*
X91627255Y-53249847D02*
X91722493Y-53297466D01*
X91722493Y-53297466D02*
X91817731Y-53392704D01*
X91817731Y-53392704D02*
X91865350Y-53583180D01*
X91865350Y-53583180D02*
X91865350Y-53916513D01*
X91865350Y-53916513D02*
X91817731Y-54106989D01*
X91817731Y-54106989D02*
X91722493Y-54202228D01*
X91722493Y-54202228D02*
X91627255Y-54249847D01*
X91627255Y-54249847D02*
X91436779Y-54249847D01*
X91436779Y-54249847D02*
X91341541Y-54202228D01*
X91341541Y-54202228D02*
X91246303Y-54106989D01*
X91246303Y-54106989D02*
X91198684Y-53916513D01*
X91198684Y-53916513D02*
X91198684Y-53583180D01*
X91198684Y-53583180D02*
X91246303Y-53392704D01*
X91246303Y-53392704D02*
X91341541Y-53297466D01*
X91341541Y-53297466D02*
X91436779Y-53249847D01*
X89436779Y-55335981D02*
X89770112Y-55335981D01*
X89912969Y-55859791D02*
X89436779Y-55859791D01*
X89436779Y-55859791D02*
X89436779Y-54859791D01*
X89436779Y-54859791D02*
X89912969Y-54859791D01*
X90341541Y-55859791D02*
X90341541Y-54859791D01*
X90341541Y-54859791D02*
X90912969Y-55859791D01*
X90912969Y-55859791D02*
X90912969Y-54859791D01*
X83289160Y-73407200D02*
X83432017Y-73454819D01*
X83432017Y-73454819D02*
X83670112Y-73454819D01*
X83670112Y-73454819D02*
X83765350Y-73407200D01*
X83765350Y-73407200D02*
X83812969Y-73359580D01*
X83812969Y-73359580D02*
X83860588Y-73264342D01*
X83860588Y-73264342D02*
X83860588Y-73169104D01*
X83860588Y-73169104D02*
X83812969Y-73073866D01*
X83812969Y-73073866D02*
X83765350Y-73026247D01*
X83765350Y-73026247D02*
X83670112Y-72978628D01*
X83670112Y-72978628D02*
X83479636Y-72931009D01*
X83479636Y-72931009D02*
X83384398Y-72883390D01*
X83384398Y-72883390D02*
X83336779Y-72835771D01*
X83336779Y-72835771D02*
X83289160Y-72740533D01*
X83289160Y-72740533D02*
X83289160Y-72645295D01*
X83289160Y-72645295D02*
X83336779Y-72550057D01*
X83336779Y-72550057D02*
X83384398Y-72502438D01*
X83384398Y-72502438D02*
X83479636Y-72454819D01*
X83479636Y-72454819D02*
X83717731Y-72454819D01*
X83717731Y-72454819D02*
X83860588Y-72502438D01*
X84860588Y-73359580D02*
X84812969Y-73407200D01*
X84812969Y-73407200D02*
X84670112Y-73454819D01*
X84670112Y-73454819D02*
X84574874Y-73454819D01*
X84574874Y-73454819D02*
X84432017Y-73407200D01*
X84432017Y-73407200D02*
X84336779Y-73311961D01*
X84336779Y-73311961D02*
X84289160Y-73216723D01*
X84289160Y-73216723D02*
X84241541Y-73026247D01*
X84241541Y-73026247D02*
X84241541Y-72883390D01*
X84241541Y-72883390D02*
X84289160Y-72692914D01*
X84289160Y-72692914D02*
X84336779Y-72597676D01*
X84336779Y-72597676D02*
X84432017Y-72502438D01*
X84432017Y-72502438D02*
X84574874Y-72454819D01*
X84574874Y-72454819D02*
X84670112Y-72454819D01*
X84670112Y-72454819D02*
X84812969Y-72502438D01*
X84812969Y-72502438D02*
X84860588Y-72550057D01*
X85289160Y-73454819D02*
X85289160Y-72454819D01*
X85860588Y-73454819D02*
X85432017Y-72883390D01*
X85860588Y-72454819D02*
X85289160Y-73026247D01*
X53080952Y-83269819D02*
X52604762Y-83269819D01*
X52604762Y-83269819D02*
X52604762Y-82269819D01*
X53414286Y-82746009D02*
X53747619Y-82746009D01*
X53890476Y-83269819D02*
X53414286Y-83269819D01*
X53414286Y-83269819D02*
X53414286Y-82269819D01*
X53414286Y-82269819D02*
X53890476Y-82269819D01*
X54319048Y-83269819D02*
X54319048Y-82269819D01*
X54319048Y-82269819D02*
X54557143Y-82269819D01*
X54557143Y-82269819D02*
X54700000Y-82317438D01*
X54700000Y-82317438D02*
X54795238Y-82412676D01*
X54795238Y-82412676D02*
X54842857Y-82507914D01*
X54842857Y-82507914D02*
X54890476Y-82698390D01*
X54890476Y-82698390D02*
X54890476Y-82841247D01*
X54890476Y-82841247D02*
X54842857Y-83031723D01*
X54842857Y-83031723D02*
X54795238Y-83126961D01*
X54795238Y-83126961D02*
X54700000Y-83222200D01*
X54700000Y-83222200D02*
X54557143Y-83269819D01*
X54557143Y-83269819D02*
X54319048Y-83269819D01*
X55271429Y-82365057D02*
X55319048Y-82317438D01*
X55319048Y-82317438D02*
X55414286Y-82269819D01*
X55414286Y-82269819D02*
X55652381Y-82269819D01*
X55652381Y-82269819D02*
X55747619Y-82317438D01*
X55747619Y-82317438D02*
X55795238Y-82365057D01*
X55795238Y-82365057D02*
X55842857Y-82460295D01*
X55842857Y-82460295D02*
X55842857Y-82555533D01*
X55842857Y-82555533D02*
X55795238Y-82698390D01*
X55795238Y-82698390D02*
X55223810Y-83269819D01*
X55223810Y-83269819D02*
X55842857Y-83269819D01*
X85836779Y-59254819D02*
X85836779Y-58254819D01*
X86503445Y-58254819D02*
X86693921Y-58254819D01*
X86693921Y-58254819D02*
X86789159Y-58302438D01*
X86789159Y-58302438D02*
X86884397Y-58397676D01*
X86884397Y-58397676D02*
X86932016Y-58588152D01*
X86932016Y-58588152D02*
X86932016Y-58921485D01*
X86932016Y-58921485D02*
X86884397Y-59111961D01*
X86884397Y-59111961D02*
X86789159Y-59207200D01*
X86789159Y-59207200D02*
X86693921Y-59254819D01*
X86693921Y-59254819D02*
X86503445Y-59254819D01*
X86503445Y-59254819D02*
X86408207Y-59207200D01*
X86408207Y-59207200D02*
X86312969Y-59111961D01*
X86312969Y-59111961D02*
X86265350Y-58921485D01*
X86265350Y-58921485D02*
X86265350Y-58588152D01*
X86265350Y-58588152D02*
X86312969Y-58397676D01*
X86312969Y-58397676D02*
X86408207Y-58302438D01*
X86408207Y-58302438D02*
X86503445Y-58254819D01*
X87312969Y-58350057D02*
X87360588Y-58302438D01*
X87360588Y-58302438D02*
X87455826Y-58254819D01*
X87455826Y-58254819D02*
X87693921Y-58254819D01*
X87693921Y-58254819D02*
X87789159Y-58302438D01*
X87789159Y-58302438D02*
X87836778Y-58350057D01*
X87836778Y-58350057D02*
X87884397Y-58445295D01*
X87884397Y-58445295D02*
X87884397Y-58540533D01*
X87884397Y-58540533D02*
X87836778Y-58683390D01*
X87836778Y-58683390D02*
X87265350Y-59254819D01*
X87265350Y-59254819D02*
X87884397Y-59254819D01*
X95359580Y-98142857D02*
X95407200Y-98190476D01*
X95407200Y-98190476D02*
X95454819Y-98333333D01*
X95454819Y-98333333D02*
X95454819Y-98428571D01*
X95454819Y-98428571D02*
X95407200Y-98571428D01*
X95407200Y-98571428D02*
X95311961Y-98666666D01*
X95311961Y-98666666D02*
X95216723Y-98714285D01*
X95216723Y-98714285D02*
X95026247Y-98761904D01*
X95026247Y-98761904D02*
X94883390Y-98761904D01*
X94883390Y-98761904D02*
X94692914Y-98714285D01*
X94692914Y-98714285D02*
X94597676Y-98666666D01*
X94597676Y-98666666D02*
X94502438Y-98571428D01*
X94502438Y-98571428D02*
X94454819Y-98428571D01*
X94454819Y-98428571D02*
X94454819Y-98333333D01*
X94454819Y-98333333D02*
X94502438Y-98190476D01*
X94502438Y-98190476D02*
X94550057Y-98142857D01*
X95454819Y-97190476D02*
X95454819Y-97761904D01*
X95454819Y-97476190D02*
X94454819Y-97476190D01*
X94454819Y-97476190D02*
X94597676Y-97571428D01*
X94597676Y-97571428D02*
X94692914Y-97666666D01*
X94692914Y-97666666D02*
X94740533Y-97761904D01*
X94454819Y-96571428D02*
X94454819Y-96476190D01*
X94454819Y-96476190D02*
X94502438Y-96380952D01*
X94502438Y-96380952D02*
X94550057Y-96333333D01*
X94550057Y-96333333D02*
X94645295Y-96285714D01*
X94645295Y-96285714D02*
X94835771Y-96238095D01*
X94835771Y-96238095D02*
X95073866Y-96238095D01*
X95073866Y-96238095D02*
X95264342Y-96285714D01*
X95264342Y-96285714D02*
X95359580Y-96333333D01*
X95359580Y-96333333D02*
X95407200Y-96380952D01*
X95407200Y-96380952D02*
X95454819Y-96476190D01*
X95454819Y-96476190D02*
X95454819Y-96571428D01*
X95454819Y-96571428D02*
X95407200Y-96666666D01*
X95407200Y-96666666D02*
X95359580Y-96714285D01*
X95359580Y-96714285D02*
X95264342Y-96761904D01*
X95264342Y-96761904D02*
X95073866Y-96809523D01*
X95073866Y-96809523D02*
X94835771Y-96809523D01*
X94835771Y-96809523D02*
X94645295Y-96761904D01*
X94645295Y-96761904D02*
X94550057Y-96714285D01*
X94550057Y-96714285D02*
X94502438Y-96666666D01*
X94502438Y-96666666D02*
X94454819Y-96571428D01*
X97111905Y-53504819D02*
X97111905Y-52504819D01*
X97111905Y-52504819D02*
X97350000Y-52504819D01*
X97350000Y-52504819D02*
X97492857Y-52552438D01*
X97492857Y-52552438D02*
X97588095Y-52647676D01*
X97588095Y-52647676D02*
X97635714Y-52742914D01*
X97635714Y-52742914D02*
X97683333Y-52933390D01*
X97683333Y-52933390D02*
X97683333Y-53076247D01*
X97683333Y-53076247D02*
X97635714Y-53266723D01*
X97635714Y-53266723D02*
X97588095Y-53361961D01*
X97588095Y-53361961D02*
X97492857Y-53457200D01*
X97492857Y-53457200D02*
X97350000Y-53504819D01*
X97350000Y-53504819D02*
X97111905Y-53504819D01*
X98064286Y-52600057D02*
X98111905Y-52552438D01*
X98111905Y-52552438D02*
X98207143Y-52504819D01*
X98207143Y-52504819D02*
X98445238Y-52504819D01*
X98445238Y-52504819D02*
X98540476Y-52552438D01*
X98540476Y-52552438D02*
X98588095Y-52600057D01*
X98588095Y-52600057D02*
X98635714Y-52695295D01*
X98635714Y-52695295D02*
X98635714Y-52790533D01*
X98635714Y-52790533D02*
X98588095Y-52933390D01*
X98588095Y-52933390D02*
X98016667Y-53504819D01*
X98016667Y-53504819D02*
X98635714Y-53504819D01*
X81407142Y-65854819D02*
X81073809Y-65378628D01*
X80835714Y-65854819D02*
X80835714Y-64854819D01*
X80835714Y-64854819D02*
X81216666Y-64854819D01*
X81216666Y-64854819D02*
X81311904Y-64902438D01*
X81311904Y-64902438D02*
X81359523Y-64950057D01*
X81359523Y-64950057D02*
X81407142Y-65045295D01*
X81407142Y-65045295D02*
X81407142Y-65188152D01*
X81407142Y-65188152D02*
X81359523Y-65283390D01*
X81359523Y-65283390D02*
X81311904Y-65331009D01*
X81311904Y-65331009D02*
X81216666Y-65378628D01*
X81216666Y-65378628D02*
X80835714Y-65378628D01*
X81788095Y-64950057D02*
X81835714Y-64902438D01*
X81835714Y-64902438D02*
X81930952Y-64854819D01*
X81930952Y-64854819D02*
X82169047Y-64854819D01*
X82169047Y-64854819D02*
X82264285Y-64902438D01*
X82264285Y-64902438D02*
X82311904Y-64950057D01*
X82311904Y-64950057D02*
X82359523Y-65045295D01*
X82359523Y-65045295D02*
X82359523Y-65140533D01*
X82359523Y-65140533D02*
X82311904Y-65283390D01*
X82311904Y-65283390D02*
X81740476Y-65854819D01*
X81740476Y-65854819D02*
X82359523Y-65854819D01*
X82692857Y-64854819D02*
X83311904Y-64854819D01*
X83311904Y-64854819D02*
X82978571Y-65235771D01*
X82978571Y-65235771D02*
X83121428Y-65235771D01*
X83121428Y-65235771D02*
X83216666Y-65283390D01*
X83216666Y-65283390D02*
X83264285Y-65331009D01*
X83264285Y-65331009D02*
X83311904Y-65426247D01*
X83311904Y-65426247D02*
X83311904Y-65664342D01*
X83311904Y-65664342D02*
X83264285Y-65759580D01*
X83264285Y-65759580D02*
X83216666Y-65807200D01*
X83216666Y-65807200D02*
X83121428Y-65854819D01*
X83121428Y-65854819D02*
X82835714Y-65854819D01*
X82835714Y-65854819D02*
X82740476Y-65807200D01*
X82740476Y-65807200D02*
X82692857Y-65759580D01*
X58404417Y-91857198D02*
X58547274Y-91904817D01*
X58547274Y-91904817D02*
X58785369Y-91904817D01*
X58785369Y-91904817D02*
X58880607Y-91857198D01*
X58880607Y-91857198D02*
X58928226Y-91809578D01*
X58928226Y-91809578D02*
X58975845Y-91714340D01*
X58975845Y-91714340D02*
X58975845Y-91619102D01*
X58975845Y-91619102D02*
X58928226Y-91523864D01*
X58928226Y-91523864D02*
X58880607Y-91476245D01*
X58880607Y-91476245D02*
X58785369Y-91428626D01*
X58785369Y-91428626D02*
X58594893Y-91381007D01*
X58594893Y-91381007D02*
X58499655Y-91333388D01*
X58499655Y-91333388D02*
X58452036Y-91285769D01*
X58452036Y-91285769D02*
X58404417Y-91190531D01*
X58404417Y-91190531D02*
X58404417Y-91095293D01*
X58404417Y-91095293D02*
X58452036Y-91000055D01*
X58452036Y-91000055D02*
X58499655Y-90952436D01*
X58499655Y-90952436D02*
X58594893Y-90904817D01*
X58594893Y-90904817D02*
X58832988Y-90904817D01*
X58832988Y-90904817D02*
X58975845Y-90952436D01*
X59309179Y-90904817D02*
X59547274Y-91904817D01*
X59547274Y-91904817D02*
X59737750Y-91190531D01*
X59737750Y-91190531D02*
X59928226Y-91904817D01*
X59928226Y-91904817D02*
X60166322Y-90904817D01*
X60452036Y-90904817D02*
X61071083Y-90904817D01*
X61071083Y-90904817D02*
X60737750Y-91285769D01*
X60737750Y-91285769D02*
X60880607Y-91285769D01*
X60880607Y-91285769D02*
X60975845Y-91333388D01*
X60975845Y-91333388D02*
X61023464Y-91381007D01*
X61023464Y-91381007D02*
X61071083Y-91476245D01*
X61071083Y-91476245D02*
X61071083Y-91714340D01*
X61071083Y-91714340D02*
X61023464Y-91809578D01*
X61023464Y-91809578D02*
X60975845Y-91857198D01*
X60975845Y-91857198D02*
X60880607Y-91904817D01*
X60880607Y-91904817D02*
X60594893Y-91904817D01*
X60594893Y-91904817D02*
X60499655Y-91857198D01*
X60499655Y-91857198D02*
X60452036Y-91809578D01*
X104933333Y-94554819D02*
X104600000Y-94078628D01*
X104361905Y-94554819D02*
X104361905Y-93554819D01*
X104361905Y-93554819D02*
X104742857Y-93554819D01*
X104742857Y-93554819D02*
X104838095Y-93602438D01*
X104838095Y-93602438D02*
X104885714Y-93650057D01*
X104885714Y-93650057D02*
X104933333Y-93745295D01*
X104933333Y-93745295D02*
X104933333Y-93888152D01*
X104933333Y-93888152D02*
X104885714Y-93983390D01*
X104885714Y-93983390D02*
X104838095Y-94031009D01*
X104838095Y-94031009D02*
X104742857Y-94078628D01*
X104742857Y-94078628D02*
X104361905Y-94078628D01*
X105790476Y-93888152D02*
X105790476Y-94554819D01*
X105552381Y-93507200D02*
X105314286Y-94221485D01*
X105314286Y-94221485D02*
X105933333Y-94221485D01*
X111433333Y-70354819D02*
X111100000Y-69878628D01*
X110861905Y-70354819D02*
X110861905Y-69354819D01*
X110861905Y-69354819D02*
X111242857Y-69354819D01*
X111242857Y-69354819D02*
X111338095Y-69402438D01*
X111338095Y-69402438D02*
X111385714Y-69450057D01*
X111385714Y-69450057D02*
X111433333Y-69545295D01*
X111433333Y-69545295D02*
X111433333Y-69688152D01*
X111433333Y-69688152D02*
X111385714Y-69783390D01*
X111385714Y-69783390D02*
X111338095Y-69831009D01*
X111338095Y-69831009D02*
X111242857Y-69878628D01*
X111242857Y-69878628D02*
X110861905Y-69878628D01*
X111814286Y-69450057D02*
X111861905Y-69402438D01*
X111861905Y-69402438D02*
X111957143Y-69354819D01*
X111957143Y-69354819D02*
X112195238Y-69354819D01*
X112195238Y-69354819D02*
X112290476Y-69402438D01*
X112290476Y-69402438D02*
X112338095Y-69450057D01*
X112338095Y-69450057D02*
X112385714Y-69545295D01*
X112385714Y-69545295D02*
X112385714Y-69640533D01*
X112385714Y-69640533D02*
X112338095Y-69783390D01*
X112338095Y-69783390D02*
X111766667Y-70354819D01*
X111766667Y-70354819D02*
X112385714Y-70354819D01*
X105116668Y-86932199D02*
X105259525Y-86979818D01*
X105259525Y-86979818D02*
X105497620Y-86979818D01*
X105497620Y-86979818D02*
X105592858Y-86932199D01*
X105592858Y-86932199D02*
X105640477Y-86884579D01*
X105640477Y-86884579D02*
X105688096Y-86789341D01*
X105688096Y-86789341D02*
X105688096Y-86694103D01*
X105688096Y-86694103D02*
X105640477Y-86598865D01*
X105640477Y-86598865D02*
X105592858Y-86551246D01*
X105592858Y-86551246D02*
X105497620Y-86503627D01*
X105497620Y-86503627D02*
X105307144Y-86456008D01*
X105307144Y-86456008D02*
X105211906Y-86408389D01*
X105211906Y-86408389D02*
X105164287Y-86360770D01*
X105164287Y-86360770D02*
X105116668Y-86265532D01*
X105116668Y-86265532D02*
X105116668Y-86170294D01*
X105116668Y-86170294D02*
X105164287Y-86075056D01*
X105164287Y-86075056D02*
X105211906Y-86027437D01*
X105211906Y-86027437D02*
X105307144Y-85979818D01*
X105307144Y-85979818D02*
X105545239Y-85979818D01*
X105545239Y-85979818D02*
X105688096Y-86027437D01*
X106021430Y-85979818D02*
X106259525Y-86979818D01*
X106259525Y-86979818D02*
X106450001Y-86265532D01*
X106450001Y-86265532D02*
X106640477Y-86979818D01*
X106640477Y-86979818D02*
X106878573Y-85979818D01*
X107735715Y-85979818D02*
X107259525Y-85979818D01*
X107259525Y-85979818D02*
X107211906Y-86456008D01*
X107211906Y-86456008D02*
X107259525Y-86408389D01*
X107259525Y-86408389D02*
X107354763Y-86360770D01*
X107354763Y-86360770D02*
X107592858Y-86360770D01*
X107592858Y-86360770D02*
X107688096Y-86408389D01*
X107688096Y-86408389D02*
X107735715Y-86456008D01*
X107735715Y-86456008D02*
X107783334Y-86551246D01*
X107783334Y-86551246D02*
X107783334Y-86789341D01*
X107783334Y-86789341D02*
X107735715Y-86884579D01*
X107735715Y-86884579D02*
X107688096Y-86932199D01*
X107688096Y-86932199D02*
X107592858Y-86979818D01*
X107592858Y-86979818D02*
X107354763Y-86979818D01*
X107354763Y-86979818D02*
X107259525Y-86932199D01*
X107259525Y-86932199D02*
X107211906Y-86884579D01*
X95208333Y-52459580D02*
X95160714Y-52507200D01*
X95160714Y-52507200D02*
X95017857Y-52554819D01*
X95017857Y-52554819D02*
X94922619Y-52554819D01*
X94922619Y-52554819D02*
X94779762Y-52507200D01*
X94779762Y-52507200D02*
X94684524Y-52411961D01*
X94684524Y-52411961D02*
X94636905Y-52316723D01*
X94636905Y-52316723D02*
X94589286Y-52126247D01*
X94589286Y-52126247D02*
X94589286Y-51983390D01*
X94589286Y-51983390D02*
X94636905Y-51792914D01*
X94636905Y-51792914D02*
X94684524Y-51697676D01*
X94684524Y-51697676D02*
X94779762Y-51602438D01*
X94779762Y-51602438D02*
X94922619Y-51554819D01*
X94922619Y-51554819D02*
X95017857Y-51554819D01*
X95017857Y-51554819D02*
X95160714Y-51602438D01*
X95160714Y-51602438D02*
X95208333Y-51650057D01*
X95541667Y-51554819D02*
X96208333Y-51554819D01*
X96208333Y-51554819D02*
X95779762Y-52554819D01*
X74506666Y-90954819D02*
X74506666Y-91669104D01*
X74506666Y-91669104D02*
X74459047Y-91811961D01*
X74459047Y-91811961D02*
X74363809Y-91907200D01*
X74363809Y-91907200D02*
X74220952Y-91954819D01*
X74220952Y-91954819D02*
X74125714Y-91954819D01*
X75411428Y-91288152D02*
X75411428Y-91954819D01*
X75173333Y-90907200D02*
X74935238Y-91621485D01*
X74935238Y-91621485D02*
X75554285Y-91621485D01*
X104933333Y-92854819D02*
X104600000Y-92378628D01*
X104361905Y-92854819D02*
X104361905Y-91854819D01*
X104361905Y-91854819D02*
X104742857Y-91854819D01*
X104742857Y-91854819D02*
X104838095Y-91902438D01*
X104838095Y-91902438D02*
X104885714Y-91950057D01*
X104885714Y-91950057D02*
X104933333Y-92045295D01*
X104933333Y-92045295D02*
X104933333Y-92188152D01*
X104933333Y-92188152D02*
X104885714Y-92283390D01*
X104885714Y-92283390D02*
X104838095Y-92331009D01*
X104838095Y-92331009D02*
X104742857Y-92378628D01*
X104742857Y-92378628D02*
X104361905Y-92378628D01*
X105838095Y-91854819D02*
X105361905Y-91854819D01*
X105361905Y-91854819D02*
X105314286Y-92331009D01*
X105314286Y-92331009D02*
X105361905Y-92283390D01*
X105361905Y-92283390D02*
X105457143Y-92235771D01*
X105457143Y-92235771D02*
X105695238Y-92235771D01*
X105695238Y-92235771D02*
X105790476Y-92283390D01*
X105790476Y-92283390D02*
X105838095Y-92331009D01*
X105838095Y-92331009D02*
X105885714Y-92426247D01*
X105885714Y-92426247D02*
X105885714Y-92664342D01*
X105885714Y-92664342D02*
X105838095Y-92759580D01*
X105838095Y-92759580D02*
X105790476Y-92807200D01*
X105790476Y-92807200D02*
X105695238Y-92854819D01*
X105695238Y-92854819D02*
X105457143Y-92854819D01*
X105457143Y-92854819D02*
X105361905Y-92807200D01*
X105361905Y-92807200D02*
X105314286Y-92759580D01*
X107661905Y-64154819D02*
X107661905Y-63154819D01*
X107661905Y-63154819D02*
X107900000Y-63154819D01*
X107900000Y-63154819D02*
X108042857Y-63202438D01*
X108042857Y-63202438D02*
X108138095Y-63297676D01*
X108138095Y-63297676D02*
X108185714Y-63392914D01*
X108185714Y-63392914D02*
X108233333Y-63583390D01*
X108233333Y-63583390D02*
X108233333Y-63726247D01*
X108233333Y-63726247D02*
X108185714Y-63916723D01*
X108185714Y-63916723D02*
X108138095Y-64011961D01*
X108138095Y-64011961D02*
X108042857Y-64107200D01*
X108042857Y-64107200D02*
X107900000Y-64154819D01*
X107900000Y-64154819D02*
X107661905Y-64154819D01*
X109090476Y-63488152D02*
X109090476Y-64154819D01*
X108852381Y-63107200D02*
X108614286Y-63821485D01*
X108614286Y-63821485D02*
X109233333Y-63821485D01*
X99459580Y-98092857D02*
X99507200Y-98140476D01*
X99507200Y-98140476D02*
X99554819Y-98283333D01*
X99554819Y-98283333D02*
X99554819Y-98378571D01*
X99554819Y-98378571D02*
X99507200Y-98521428D01*
X99507200Y-98521428D02*
X99411961Y-98616666D01*
X99411961Y-98616666D02*
X99316723Y-98664285D01*
X99316723Y-98664285D02*
X99126247Y-98711904D01*
X99126247Y-98711904D02*
X98983390Y-98711904D01*
X98983390Y-98711904D02*
X98792914Y-98664285D01*
X98792914Y-98664285D02*
X98697676Y-98616666D01*
X98697676Y-98616666D02*
X98602438Y-98521428D01*
X98602438Y-98521428D02*
X98554819Y-98378571D01*
X98554819Y-98378571D02*
X98554819Y-98283333D01*
X98554819Y-98283333D02*
X98602438Y-98140476D01*
X98602438Y-98140476D02*
X98650057Y-98092857D01*
X99554819Y-97140476D02*
X99554819Y-97711904D01*
X99554819Y-97426190D02*
X98554819Y-97426190D01*
X98554819Y-97426190D02*
X98697676Y-97521428D01*
X98697676Y-97521428D02*
X98792914Y-97616666D01*
X98792914Y-97616666D02*
X98840533Y-97711904D01*
X98650057Y-96759523D02*
X98602438Y-96711904D01*
X98602438Y-96711904D02*
X98554819Y-96616666D01*
X98554819Y-96616666D02*
X98554819Y-96378571D01*
X98554819Y-96378571D02*
X98602438Y-96283333D01*
X98602438Y-96283333D02*
X98650057Y-96235714D01*
X98650057Y-96235714D02*
X98745295Y-96188095D01*
X98745295Y-96188095D02*
X98840533Y-96188095D01*
X98840533Y-96188095D02*
X98983390Y-96235714D01*
X98983390Y-96235714D02*
X99554819Y-96807142D01*
X99554819Y-96807142D02*
X99554819Y-96188095D01*
X70957142Y-102854819D02*
X70623809Y-102378628D01*
X70385714Y-102854819D02*
X70385714Y-101854819D01*
X70385714Y-101854819D02*
X70766666Y-101854819D01*
X70766666Y-101854819D02*
X70861904Y-101902438D01*
X70861904Y-101902438D02*
X70909523Y-101950057D01*
X70909523Y-101950057D02*
X70957142Y-102045295D01*
X70957142Y-102045295D02*
X70957142Y-102188152D01*
X70957142Y-102188152D02*
X70909523Y-102283390D01*
X70909523Y-102283390D02*
X70861904Y-102331009D01*
X70861904Y-102331009D02*
X70766666Y-102378628D01*
X70766666Y-102378628D02*
X70385714Y-102378628D01*
X71338095Y-101950057D02*
X71385714Y-101902438D01*
X71385714Y-101902438D02*
X71480952Y-101854819D01*
X71480952Y-101854819D02*
X71719047Y-101854819D01*
X71719047Y-101854819D02*
X71814285Y-101902438D01*
X71814285Y-101902438D02*
X71861904Y-101950057D01*
X71861904Y-101950057D02*
X71909523Y-102045295D01*
X71909523Y-102045295D02*
X71909523Y-102140533D01*
X71909523Y-102140533D02*
X71861904Y-102283390D01*
X71861904Y-102283390D02*
X71290476Y-102854819D01*
X71290476Y-102854819D02*
X71909523Y-102854819D01*
X72242857Y-101854819D02*
X72909523Y-101854819D01*
X72909523Y-101854819D02*
X72480952Y-102854819D01*
X100138095Y-50654819D02*
X100138095Y-51464342D01*
X100138095Y-51464342D02*
X100185714Y-51559580D01*
X100185714Y-51559580D02*
X100233333Y-51607200D01*
X100233333Y-51607200D02*
X100328571Y-51654819D01*
X100328571Y-51654819D02*
X100519047Y-51654819D01*
X100519047Y-51654819D02*
X100614285Y-51607200D01*
X100614285Y-51607200D02*
X100661904Y-51559580D01*
X100661904Y-51559580D02*
X100709523Y-51464342D01*
X100709523Y-51464342D02*
X100709523Y-50654819D01*
X101090476Y-50654819D02*
X101709523Y-50654819D01*
X101709523Y-50654819D02*
X101376190Y-51035771D01*
X101376190Y-51035771D02*
X101519047Y-51035771D01*
X101519047Y-51035771D02*
X101614285Y-51083390D01*
X101614285Y-51083390D02*
X101661904Y-51131009D01*
X101661904Y-51131009D02*
X101709523Y-51226247D01*
X101709523Y-51226247D02*
X101709523Y-51464342D01*
X101709523Y-51464342D02*
X101661904Y-51559580D01*
X101661904Y-51559580D02*
X101614285Y-51607200D01*
X101614285Y-51607200D02*
X101519047Y-51654819D01*
X101519047Y-51654819D02*
X101233333Y-51654819D01*
X101233333Y-51654819D02*
X101138095Y-51607200D01*
X101138095Y-51607200D02*
X101090476Y-51559580D01*
X65857142Y-89754819D02*
X65523809Y-89278628D01*
X65285714Y-89754819D02*
X65285714Y-88754819D01*
X65285714Y-88754819D02*
X65666666Y-88754819D01*
X65666666Y-88754819D02*
X65761904Y-88802438D01*
X65761904Y-88802438D02*
X65809523Y-88850057D01*
X65809523Y-88850057D02*
X65857142Y-88945295D01*
X65857142Y-88945295D02*
X65857142Y-89088152D01*
X65857142Y-89088152D02*
X65809523Y-89183390D01*
X65809523Y-89183390D02*
X65761904Y-89231009D01*
X65761904Y-89231009D02*
X65666666Y-89278628D01*
X65666666Y-89278628D02*
X65285714Y-89278628D01*
X66190476Y-88754819D02*
X66809523Y-88754819D01*
X66809523Y-88754819D02*
X66476190Y-89135771D01*
X66476190Y-89135771D02*
X66619047Y-89135771D01*
X66619047Y-89135771D02*
X66714285Y-89183390D01*
X66714285Y-89183390D02*
X66761904Y-89231009D01*
X66761904Y-89231009D02*
X66809523Y-89326247D01*
X66809523Y-89326247D02*
X66809523Y-89564342D01*
X66809523Y-89564342D02*
X66761904Y-89659580D01*
X66761904Y-89659580D02*
X66714285Y-89707200D01*
X66714285Y-89707200D02*
X66619047Y-89754819D01*
X66619047Y-89754819D02*
X66333333Y-89754819D01*
X66333333Y-89754819D02*
X66238095Y-89707200D01*
X66238095Y-89707200D02*
X66190476Y-89659580D01*
X67142857Y-88754819D02*
X67809523Y-88754819D01*
X67809523Y-88754819D02*
X67380952Y-89754819D01*
X100857142Y-62354819D02*
X100523809Y-61878628D01*
X100285714Y-62354819D02*
X100285714Y-61354819D01*
X100285714Y-61354819D02*
X100666666Y-61354819D01*
X100666666Y-61354819D02*
X100761904Y-61402438D01*
X100761904Y-61402438D02*
X100809523Y-61450057D01*
X100809523Y-61450057D02*
X100857142Y-61545295D01*
X100857142Y-61545295D02*
X100857142Y-61688152D01*
X100857142Y-61688152D02*
X100809523Y-61783390D01*
X100809523Y-61783390D02*
X100761904Y-61831009D01*
X100761904Y-61831009D02*
X100666666Y-61878628D01*
X100666666Y-61878628D02*
X100285714Y-61878628D01*
X101809523Y-62354819D02*
X101238095Y-62354819D01*
X101523809Y-62354819D02*
X101523809Y-61354819D01*
X101523809Y-61354819D02*
X101428571Y-61497676D01*
X101428571Y-61497676D02*
X101333333Y-61592914D01*
X101333333Y-61592914D02*
X101238095Y-61640533D01*
X102142857Y-61354819D02*
X102761904Y-61354819D01*
X102761904Y-61354819D02*
X102428571Y-61735771D01*
X102428571Y-61735771D02*
X102571428Y-61735771D01*
X102571428Y-61735771D02*
X102666666Y-61783390D01*
X102666666Y-61783390D02*
X102714285Y-61831009D01*
X102714285Y-61831009D02*
X102761904Y-61926247D01*
X102761904Y-61926247D02*
X102761904Y-62164342D01*
X102761904Y-62164342D02*
X102714285Y-62259580D01*
X102714285Y-62259580D02*
X102666666Y-62307200D01*
X102666666Y-62307200D02*
X102571428Y-62354819D01*
X102571428Y-62354819D02*
X102285714Y-62354819D01*
X102285714Y-62354819D02*
X102190476Y-62307200D01*
X102190476Y-62307200D02*
X102142857Y-62259580D01*
X80683333Y-51909580D02*
X80635714Y-51957200D01*
X80635714Y-51957200D02*
X80492857Y-52004819D01*
X80492857Y-52004819D02*
X80397619Y-52004819D01*
X80397619Y-52004819D02*
X80254762Y-51957200D01*
X80254762Y-51957200D02*
X80159524Y-51861961D01*
X80159524Y-51861961D02*
X80111905Y-51766723D01*
X80111905Y-51766723D02*
X80064286Y-51576247D01*
X80064286Y-51576247D02*
X80064286Y-51433390D01*
X80064286Y-51433390D02*
X80111905Y-51242914D01*
X80111905Y-51242914D02*
X80159524Y-51147676D01*
X80159524Y-51147676D02*
X80254762Y-51052438D01*
X80254762Y-51052438D02*
X80397619Y-51004819D01*
X80397619Y-51004819D02*
X80492857Y-51004819D01*
X80492857Y-51004819D02*
X80635714Y-51052438D01*
X80635714Y-51052438D02*
X80683333Y-51100057D01*
X81540476Y-51004819D02*
X81350000Y-51004819D01*
X81350000Y-51004819D02*
X81254762Y-51052438D01*
X81254762Y-51052438D02*
X81207143Y-51100057D01*
X81207143Y-51100057D02*
X81111905Y-51242914D01*
X81111905Y-51242914D02*
X81064286Y-51433390D01*
X81064286Y-51433390D02*
X81064286Y-51814342D01*
X81064286Y-51814342D02*
X81111905Y-51909580D01*
X81111905Y-51909580D02*
X81159524Y-51957200D01*
X81159524Y-51957200D02*
X81254762Y-52004819D01*
X81254762Y-52004819D02*
X81445238Y-52004819D01*
X81445238Y-52004819D02*
X81540476Y-51957200D01*
X81540476Y-51957200D02*
X81588095Y-51909580D01*
X81588095Y-51909580D02*
X81635714Y-51814342D01*
X81635714Y-51814342D02*
X81635714Y-51576247D01*
X81635714Y-51576247D02*
X81588095Y-51481009D01*
X81588095Y-51481009D02*
X81540476Y-51433390D01*
X81540476Y-51433390D02*
X81445238Y-51385771D01*
X81445238Y-51385771D02*
X81254762Y-51385771D01*
X81254762Y-51385771D02*
X81159524Y-51433390D01*
X81159524Y-51433390D02*
X81111905Y-51481009D01*
X81111905Y-51481009D02*
X81064286Y-51576247D01*
X91557142Y-57354819D02*
X91223809Y-56878628D01*
X90985714Y-57354819D02*
X90985714Y-56354819D01*
X90985714Y-56354819D02*
X91366666Y-56354819D01*
X91366666Y-56354819D02*
X91461904Y-56402438D01*
X91461904Y-56402438D02*
X91509523Y-56450057D01*
X91509523Y-56450057D02*
X91557142Y-56545295D01*
X91557142Y-56545295D02*
X91557142Y-56688152D01*
X91557142Y-56688152D02*
X91509523Y-56783390D01*
X91509523Y-56783390D02*
X91461904Y-56831009D01*
X91461904Y-56831009D02*
X91366666Y-56878628D01*
X91366666Y-56878628D02*
X90985714Y-56878628D01*
X92509523Y-57354819D02*
X91938095Y-57354819D01*
X92223809Y-57354819D02*
X92223809Y-56354819D01*
X92223809Y-56354819D02*
X92128571Y-56497676D01*
X92128571Y-56497676D02*
X92033333Y-56592914D01*
X92033333Y-56592914D02*
X91938095Y-56640533D01*
X92985714Y-57354819D02*
X93176190Y-57354819D01*
X93176190Y-57354819D02*
X93271428Y-57307200D01*
X93271428Y-57307200D02*
X93319047Y-57259580D01*
X93319047Y-57259580D02*
X93414285Y-57116723D01*
X93414285Y-57116723D02*
X93461904Y-56926247D01*
X93461904Y-56926247D02*
X93461904Y-56545295D01*
X93461904Y-56545295D02*
X93414285Y-56450057D01*
X93414285Y-56450057D02*
X93366666Y-56402438D01*
X93366666Y-56402438D02*
X93271428Y-56354819D01*
X93271428Y-56354819D02*
X93080952Y-56354819D01*
X93080952Y-56354819D02*
X92985714Y-56402438D01*
X92985714Y-56402438D02*
X92938095Y-56450057D01*
X92938095Y-56450057D02*
X92890476Y-56545295D01*
X92890476Y-56545295D02*
X92890476Y-56783390D01*
X92890476Y-56783390D02*
X92938095Y-56878628D01*
X92938095Y-56878628D02*
X92985714Y-56926247D01*
X92985714Y-56926247D02*
X93080952Y-56973866D01*
X93080952Y-56973866D02*
X93271428Y-56973866D01*
X93271428Y-56973866D02*
X93366666Y-56926247D01*
X93366666Y-56926247D02*
X93414285Y-56878628D01*
X93414285Y-56878628D02*
X93461904Y-56783390D01*
X69057142Y-85654819D02*
X68723809Y-85178628D01*
X68485714Y-85654819D02*
X68485714Y-84654819D01*
X68485714Y-84654819D02*
X68866666Y-84654819D01*
X68866666Y-84654819D02*
X68961904Y-84702438D01*
X68961904Y-84702438D02*
X69009523Y-84750057D01*
X69009523Y-84750057D02*
X69057142Y-84845295D01*
X69057142Y-84845295D02*
X69057142Y-84988152D01*
X69057142Y-84988152D02*
X69009523Y-85083390D01*
X69009523Y-85083390D02*
X68961904Y-85131009D01*
X68961904Y-85131009D02*
X68866666Y-85178628D01*
X68866666Y-85178628D02*
X68485714Y-85178628D01*
X69390476Y-84654819D02*
X70009523Y-84654819D01*
X70009523Y-84654819D02*
X69676190Y-85035771D01*
X69676190Y-85035771D02*
X69819047Y-85035771D01*
X69819047Y-85035771D02*
X69914285Y-85083390D01*
X69914285Y-85083390D02*
X69961904Y-85131009D01*
X69961904Y-85131009D02*
X70009523Y-85226247D01*
X70009523Y-85226247D02*
X70009523Y-85464342D01*
X70009523Y-85464342D02*
X69961904Y-85559580D01*
X69961904Y-85559580D02*
X69914285Y-85607200D01*
X69914285Y-85607200D02*
X69819047Y-85654819D01*
X69819047Y-85654819D02*
X69533333Y-85654819D01*
X69533333Y-85654819D02*
X69438095Y-85607200D01*
X69438095Y-85607200D02*
X69390476Y-85559580D01*
X70580952Y-85083390D02*
X70485714Y-85035771D01*
X70485714Y-85035771D02*
X70438095Y-84988152D01*
X70438095Y-84988152D02*
X70390476Y-84892914D01*
X70390476Y-84892914D02*
X70390476Y-84845295D01*
X70390476Y-84845295D02*
X70438095Y-84750057D01*
X70438095Y-84750057D02*
X70485714Y-84702438D01*
X70485714Y-84702438D02*
X70580952Y-84654819D01*
X70580952Y-84654819D02*
X70771428Y-84654819D01*
X70771428Y-84654819D02*
X70866666Y-84702438D01*
X70866666Y-84702438D02*
X70914285Y-84750057D01*
X70914285Y-84750057D02*
X70961904Y-84845295D01*
X70961904Y-84845295D02*
X70961904Y-84892914D01*
X70961904Y-84892914D02*
X70914285Y-84988152D01*
X70914285Y-84988152D02*
X70866666Y-85035771D01*
X70866666Y-85035771D02*
X70771428Y-85083390D01*
X70771428Y-85083390D02*
X70580952Y-85083390D01*
X70580952Y-85083390D02*
X70485714Y-85131009D01*
X70485714Y-85131009D02*
X70438095Y-85178628D01*
X70438095Y-85178628D02*
X70390476Y-85273866D01*
X70390476Y-85273866D02*
X70390476Y-85464342D01*
X70390476Y-85464342D02*
X70438095Y-85559580D01*
X70438095Y-85559580D02*
X70485714Y-85607200D01*
X70485714Y-85607200D02*
X70580952Y-85654819D01*
X70580952Y-85654819D02*
X70771428Y-85654819D01*
X70771428Y-85654819D02*
X70866666Y-85607200D01*
X70866666Y-85607200D02*
X70914285Y-85559580D01*
X70914285Y-85559580D02*
X70961904Y-85464342D01*
X70961904Y-85464342D02*
X70961904Y-85273866D01*
X70961904Y-85273866D02*
X70914285Y-85178628D01*
X70914285Y-85178628D02*
X70866666Y-85131009D01*
X70866666Y-85131009D02*
X70771428Y-85083390D01*
X70907142Y-101059580D02*
X70859523Y-101107200D01*
X70859523Y-101107200D02*
X70716666Y-101154819D01*
X70716666Y-101154819D02*
X70621428Y-101154819D01*
X70621428Y-101154819D02*
X70478571Y-101107200D01*
X70478571Y-101107200D02*
X70383333Y-101011961D01*
X70383333Y-101011961D02*
X70335714Y-100916723D01*
X70335714Y-100916723D02*
X70288095Y-100726247D01*
X70288095Y-100726247D02*
X70288095Y-100583390D01*
X70288095Y-100583390D02*
X70335714Y-100392914D01*
X70335714Y-100392914D02*
X70383333Y-100297676D01*
X70383333Y-100297676D02*
X70478571Y-100202438D01*
X70478571Y-100202438D02*
X70621428Y-100154819D01*
X70621428Y-100154819D02*
X70716666Y-100154819D01*
X70716666Y-100154819D02*
X70859523Y-100202438D01*
X70859523Y-100202438D02*
X70907142Y-100250057D01*
X71859523Y-101154819D02*
X71288095Y-101154819D01*
X71573809Y-101154819D02*
X71573809Y-100154819D01*
X71573809Y-100154819D02*
X71478571Y-100297676D01*
X71478571Y-100297676D02*
X71383333Y-100392914D01*
X71383333Y-100392914D02*
X71288095Y-100440533D01*
X72192857Y-100154819D02*
X72811904Y-100154819D01*
X72811904Y-100154819D02*
X72478571Y-100535771D01*
X72478571Y-100535771D02*
X72621428Y-100535771D01*
X72621428Y-100535771D02*
X72716666Y-100583390D01*
X72716666Y-100583390D02*
X72764285Y-100631009D01*
X72764285Y-100631009D02*
X72811904Y-100726247D01*
X72811904Y-100726247D02*
X72811904Y-100964342D01*
X72811904Y-100964342D02*
X72764285Y-101059580D01*
X72764285Y-101059580D02*
X72716666Y-101107200D01*
X72716666Y-101107200D02*
X72621428Y-101154819D01*
X72621428Y-101154819D02*
X72335714Y-101154819D01*
X72335714Y-101154819D02*
X72240476Y-101107200D01*
X72240476Y-101107200D02*
X72192857Y-101059580D01*
X110704761Y-100250057D02*
X110609523Y-100202438D01*
X110609523Y-100202438D02*
X110514285Y-100107200D01*
X110514285Y-100107200D02*
X110371428Y-99964342D01*
X110371428Y-99964342D02*
X110276190Y-99916723D01*
X110276190Y-99916723D02*
X110180952Y-99916723D01*
X110228571Y-100154819D02*
X110133333Y-100107200D01*
X110133333Y-100107200D02*
X110038095Y-100011961D01*
X110038095Y-100011961D02*
X109990476Y-99821485D01*
X109990476Y-99821485D02*
X109990476Y-99488152D01*
X109990476Y-99488152D02*
X110038095Y-99297676D01*
X110038095Y-99297676D02*
X110133333Y-99202438D01*
X110133333Y-99202438D02*
X110228571Y-99154819D01*
X110228571Y-99154819D02*
X110419047Y-99154819D01*
X110419047Y-99154819D02*
X110514285Y-99202438D01*
X110514285Y-99202438D02*
X110609523Y-99297676D01*
X110609523Y-99297676D02*
X110657142Y-99488152D01*
X110657142Y-99488152D02*
X110657142Y-99821485D01*
X110657142Y-99821485D02*
X110609523Y-100011961D01*
X110609523Y-100011961D02*
X110514285Y-100107200D01*
X110514285Y-100107200D02*
X110419047Y-100154819D01*
X110419047Y-100154819D02*
X110228571Y-100154819D01*
X111609523Y-100154819D02*
X111038095Y-100154819D01*
X111323809Y-100154819D02*
X111323809Y-99154819D01*
X111323809Y-99154819D02*
X111228571Y-99297676D01*
X111228571Y-99297676D02*
X111133333Y-99392914D01*
X111133333Y-99392914D02*
X111038095Y-99440533D01*
X58204419Y-101007198D02*
X58347276Y-101054817D01*
X58347276Y-101054817D02*
X58585371Y-101054817D01*
X58585371Y-101054817D02*
X58680609Y-101007198D01*
X58680609Y-101007198D02*
X58728228Y-100959578D01*
X58728228Y-100959578D02*
X58775847Y-100864340D01*
X58775847Y-100864340D02*
X58775847Y-100769102D01*
X58775847Y-100769102D02*
X58728228Y-100673864D01*
X58728228Y-100673864D02*
X58680609Y-100626245D01*
X58680609Y-100626245D02*
X58585371Y-100578626D01*
X58585371Y-100578626D02*
X58394895Y-100531007D01*
X58394895Y-100531007D02*
X58299657Y-100483388D01*
X58299657Y-100483388D02*
X58252038Y-100435769D01*
X58252038Y-100435769D02*
X58204419Y-100340531D01*
X58204419Y-100340531D02*
X58204419Y-100245293D01*
X58204419Y-100245293D02*
X58252038Y-100150055D01*
X58252038Y-100150055D02*
X58299657Y-100102436D01*
X58299657Y-100102436D02*
X58394895Y-100054817D01*
X58394895Y-100054817D02*
X58632990Y-100054817D01*
X58632990Y-100054817D02*
X58775847Y-100102436D01*
X59109181Y-100054817D02*
X59347276Y-101054817D01*
X59347276Y-101054817D02*
X59537752Y-100340531D01*
X59537752Y-100340531D02*
X59728228Y-101054817D01*
X59728228Y-101054817D02*
X59966324Y-100054817D01*
X60299657Y-100150055D02*
X60347276Y-100102436D01*
X60347276Y-100102436D02*
X60442514Y-100054817D01*
X60442514Y-100054817D02*
X60680609Y-100054817D01*
X60680609Y-100054817D02*
X60775847Y-100102436D01*
X60775847Y-100102436D02*
X60823466Y-100150055D01*
X60823466Y-100150055D02*
X60871085Y-100245293D01*
X60871085Y-100245293D02*
X60871085Y-100340531D01*
X60871085Y-100340531D02*
X60823466Y-100483388D01*
X60823466Y-100483388D02*
X60252038Y-101054817D01*
X60252038Y-101054817D02*
X60871085Y-101054817D01*
X109483333Y-61297078D02*
X109435714Y-61344698D01*
X109435714Y-61344698D02*
X109292857Y-61392317D01*
X109292857Y-61392317D02*
X109197619Y-61392317D01*
X109197619Y-61392317D02*
X109054762Y-61344698D01*
X109054762Y-61344698D02*
X108959524Y-61249459D01*
X108959524Y-61249459D02*
X108911905Y-61154221D01*
X108911905Y-61154221D02*
X108864286Y-60963745D01*
X108864286Y-60963745D02*
X108864286Y-60820888D01*
X108864286Y-60820888D02*
X108911905Y-60630412D01*
X108911905Y-60630412D02*
X108959524Y-60535174D01*
X108959524Y-60535174D02*
X109054762Y-60439936D01*
X109054762Y-60439936D02*
X109197619Y-60392317D01*
X109197619Y-60392317D02*
X109292857Y-60392317D01*
X109292857Y-60392317D02*
X109435714Y-60439936D01*
X109435714Y-60439936D02*
X109483333Y-60487555D01*
X110435714Y-61392317D02*
X109864286Y-61392317D01*
X110150000Y-61392317D02*
X110150000Y-60392317D01*
X110150000Y-60392317D02*
X110054762Y-60535174D01*
X110054762Y-60535174D02*
X109959524Y-60630412D01*
X109959524Y-60630412D02*
X109864286Y-60678031D01*
X105438095Y-57054819D02*
X105438095Y-57864342D01*
X105438095Y-57864342D02*
X105485714Y-57959580D01*
X105485714Y-57959580D02*
X105533333Y-58007200D01*
X105533333Y-58007200D02*
X105628571Y-58054819D01*
X105628571Y-58054819D02*
X105819047Y-58054819D01*
X105819047Y-58054819D02*
X105914285Y-58007200D01*
X105914285Y-58007200D02*
X105961904Y-57959580D01*
X105961904Y-57959580D02*
X106009523Y-57864342D01*
X106009523Y-57864342D02*
X106009523Y-57054819D01*
X106438095Y-57150057D02*
X106485714Y-57102438D01*
X106485714Y-57102438D02*
X106580952Y-57054819D01*
X106580952Y-57054819D02*
X106819047Y-57054819D01*
X106819047Y-57054819D02*
X106914285Y-57102438D01*
X106914285Y-57102438D02*
X106961904Y-57150057D01*
X106961904Y-57150057D02*
X107009523Y-57245295D01*
X107009523Y-57245295D02*
X107009523Y-57340533D01*
X107009523Y-57340533D02*
X106961904Y-57483390D01*
X106961904Y-57483390D02*
X106390476Y-58054819D01*
X106390476Y-58054819D02*
X107009523Y-58054819D01*
X68683333Y-55893999D02*
X68635714Y-55941619D01*
X68635714Y-55941619D02*
X68492857Y-55989238D01*
X68492857Y-55989238D02*
X68397619Y-55989238D01*
X68397619Y-55989238D02*
X68254762Y-55941619D01*
X68254762Y-55941619D02*
X68159524Y-55846380D01*
X68159524Y-55846380D02*
X68111905Y-55751142D01*
X68111905Y-55751142D02*
X68064286Y-55560666D01*
X68064286Y-55560666D02*
X68064286Y-55417809D01*
X68064286Y-55417809D02*
X68111905Y-55227333D01*
X68111905Y-55227333D02*
X68159524Y-55132095D01*
X68159524Y-55132095D02*
X68254762Y-55036857D01*
X68254762Y-55036857D02*
X68397619Y-54989238D01*
X68397619Y-54989238D02*
X68492857Y-54989238D01*
X68492857Y-54989238D02*
X68635714Y-55036857D01*
X68635714Y-55036857D02*
X68683333Y-55084476D01*
X69254762Y-55417809D02*
X69159524Y-55370190D01*
X69159524Y-55370190D02*
X69111905Y-55322571D01*
X69111905Y-55322571D02*
X69064286Y-55227333D01*
X69064286Y-55227333D02*
X69064286Y-55179714D01*
X69064286Y-55179714D02*
X69111905Y-55084476D01*
X69111905Y-55084476D02*
X69159524Y-55036857D01*
X69159524Y-55036857D02*
X69254762Y-54989238D01*
X69254762Y-54989238D02*
X69445238Y-54989238D01*
X69445238Y-54989238D02*
X69540476Y-55036857D01*
X69540476Y-55036857D02*
X69588095Y-55084476D01*
X69588095Y-55084476D02*
X69635714Y-55179714D01*
X69635714Y-55179714D02*
X69635714Y-55227333D01*
X69635714Y-55227333D02*
X69588095Y-55322571D01*
X69588095Y-55322571D02*
X69540476Y-55370190D01*
X69540476Y-55370190D02*
X69445238Y-55417809D01*
X69445238Y-55417809D02*
X69254762Y-55417809D01*
X69254762Y-55417809D02*
X69159524Y-55465428D01*
X69159524Y-55465428D02*
X69111905Y-55513047D01*
X69111905Y-55513047D02*
X69064286Y-55608285D01*
X69064286Y-55608285D02*
X69064286Y-55798761D01*
X69064286Y-55798761D02*
X69111905Y-55893999D01*
X69111905Y-55893999D02*
X69159524Y-55941619D01*
X69159524Y-55941619D02*
X69254762Y-55989238D01*
X69254762Y-55989238D02*
X69445238Y-55989238D01*
X69445238Y-55989238D02*
X69540476Y-55941619D01*
X69540476Y-55941619D02*
X69588095Y-55893999D01*
X69588095Y-55893999D02*
X69635714Y-55798761D01*
X69635714Y-55798761D02*
X69635714Y-55608285D01*
X69635714Y-55608285D02*
X69588095Y-55513047D01*
X69588095Y-55513047D02*
X69540476Y-55465428D01*
X69540476Y-55465428D02*
X69445238Y-55417809D01*
X55882142Y-89954819D02*
X55548809Y-89478628D01*
X55310714Y-89954819D02*
X55310714Y-88954819D01*
X55310714Y-88954819D02*
X55691666Y-88954819D01*
X55691666Y-88954819D02*
X55786904Y-89002438D01*
X55786904Y-89002438D02*
X55834523Y-89050057D01*
X55834523Y-89050057D02*
X55882142Y-89145295D01*
X55882142Y-89145295D02*
X55882142Y-89288152D01*
X55882142Y-89288152D02*
X55834523Y-89383390D01*
X55834523Y-89383390D02*
X55786904Y-89431009D01*
X55786904Y-89431009D02*
X55691666Y-89478628D01*
X55691666Y-89478628D02*
X55310714Y-89478628D01*
X56215476Y-88954819D02*
X56834523Y-88954819D01*
X56834523Y-88954819D02*
X56501190Y-89335771D01*
X56501190Y-89335771D02*
X56644047Y-89335771D01*
X56644047Y-89335771D02*
X56739285Y-89383390D01*
X56739285Y-89383390D02*
X56786904Y-89431009D01*
X56786904Y-89431009D02*
X56834523Y-89526247D01*
X56834523Y-89526247D02*
X56834523Y-89764342D01*
X56834523Y-89764342D02*
X56786904Y-89859580D01*
X56786904Y-89859580D02*
X56739285Y-89907200D01*
X56739285Y-89907200D02*
X56644047Y-89954819D01*
X56644047Y-89954819D02*
X56358333Y-89954819D01*
X56358333Y-89954819D02*
X56263095Y-89907200D01*
X56263095Y-89907200D02*
X56215476Y-89859580D01*
X57691666Y-89288152D02*
X57691666Y-89954819D01*
X57453571Y-88907200D02*
X57215476Y-89621485D01*
X57215476Y-89621485D02*
X57834523Y-89621485D01*
X101307142Y-65204819D02*
X100973809Y-64728628D01*
X100735714Y-65204819D02*
X100735714Y-64204819D01*
X100735714Y-64204819D02*
X101116666Y-64204819D01*
X101116666Y-64204819D02*
X101211904Y-64252438D01*
X101211904Y-64252438D02*
X101259523Y-64300057D01*
X101259523Y-64300057D02*
X101307142Y-64395295D01*
X101307142Y-64395295D02*
X101307142Y-64538152D01*
X101307142Y-64538152D02*
X101259523Y-64633390D01*
X101259523Y-64633390D02*
X101211904Y-64681009D01*
X101211904Y-64681009D02*
X101116666Y-64728628D01*
X101116666Y-64728628D02*
X100735714Y-64728628D01*
X102259523Y-65204819D02*
X101688095Y-65204819D01*
X101973809Y-65204819D02*
X101973809Y-64204819D01*
X101973809Y-64204819D02*
X101878571Y-64347676D01*
X101878571Y-64347676D02*
X101783333Y-64442914D01*
X101783333Y-64442914D02*
X101688095Y-64490533D01*
X102640476Y-64300057D02*
X102688095Y-64252438D01*
X102688095Y-64252438D02*
X102783333Y-64204819D01*
X102783333Y-64204819D02*
X103021428Y-64204819D01*
X103021428Y-64204819D02*
X103116666Y-64252438D01*
X103116666Y-64252438D02*
X103164285Y-64300057D01*
X103164285Y-64300057D02*
X103211904Y-64395295D01*
X103211904Y-64395295D02*
X103211904Y-64490533D01*
X103211904Y-64490533D02*
X103164285Y-64633390D01*
X103164285Y-64633390D02*
X102592857Y-65204819D01*
X102592857Y-65204819D02*
X103211904Y-65204819D01*
X52582142Y-90004819D02*
X52248809Y-89528628D01*
X52010714Y-90004819D02*
X52010714Y-89004819D01*
X52010714Y-89004819D02*
X52391666Y-89004819D01*
X52391666Y-89004819D02*
X52486904Y-89052438D01*
X52486904Y-89052438D02*
X52534523Y-89100057D01*
X52534523Y-89100057D02*
X52582142Y-89195295D01*
X52582142Y-89195295D02*
X52582142Y-89338152D01*
X52582142Y-89338152D02*
X52534523Y-89433390D01*
X52534523Y-89433390D02*
X52486904Y-89481009D01*
X52486904Y-89481009D02*
X52391666Y-89528628D01*
X52391666Y-89528628D02*
X52010714Y-89528628D01*
X52915476Y-89004819D02*
X53534523Y-89004819D01*
X53534523Y-89004819D02*
X53201190Y-89385771D01*
X53201190Y-89385771D02*
X53344047Y-89385771D01*
X53344047Y-89385771D02*
X53439285Y-89433390D01*
X53439285Y-89433390D02*
X53486904Y-89481009D01*
X53486904Y-89481009D02*
X53534523Y-89576247D01*
X53534523Y-89576247D02*
X53534523Y-89814342D01*
X53534523Y-89814342D02*
X53486904Y-89909580D01*
X53486904Y-89909580D02*
X53439285Y-89957200D01*
X53439285Y-89957200D02*
X53344047Y-90004819D01*
X53344047Y-90004819D02*
X53058333Y-90004819D01*
X53058333Y-90004819D02*
X52963095Y-89957200D01*
X52963095Y-89957200D02*
X52915476Y-89909580D01*
X53867857Y-89004819D02*
X54486904Y-89004819D01*
X54486904Y-89004819D02*
X54153571Y-89385771D01*
X54153571Y-89385771D02*
X54296428Y-89385771D01*
X54296428Y-89385771D02*
X54391666Y-89433390D01*
X54391666Y-89433390D02*
X54439285Y-89481009D01*
X54439285Y-89481009D02*
X54486904Y-89576247D01*
X54486904Y-89576247D02*
X54486904Y-89814342D01*
X54486904Y-89814342D02*
X54439285Y-89909580D01*
X54439285Y-89909580D02*
X54391666Y-89957200D01*
X54391666Y-89957200D02*
X54296428Y-90004819D01*
X54296428Y-90004819D02*
X54010714Y-90004819D01*
X54010714Y-90004819D02*
X53915476Y-89957200D01*
X53915476Y-89957200D02*
X53867857Y-89909580D01*
X77207200Y-99233332D02*
X77254819Y-99090475D01*
X77254819Y-99090475D02*
X77254819Y-98852380D01*
X77254819Y-98852380D02*
X77207200Y-98757142D01*
X77207200Y-98757142D02*
X77159580Y-98709523D01*
X77159580Y-98709523D02*
X77064342Y-98661904D01*
X77064342Y-98661904D02*
X76969104Y-98661904D01*
X76969104Y-98661904D02*
X76873866Y-98709523D01*
X76873866Y-98709523D02*
X76826247Y-98757142D01*
X76826247Y-98757142D02*
X76778628Y-98852380D01*
X76778628Y-98852380D02*
X76731009Y-99042856D01*
X76731009Y-99042856D02*
X76683390Y-99138094D01*
X76683390Y-99138094D02*
X76635771Y-99185713D01*
X76635771Y-99185713D02*
X76540533Y-99233332D01*
X76540533Y-99233332D02*
X76445295Y-99233332D01*
X76445295Y-99233332D02*
X76350057Y-99185713D01*
X76350057Y-99185713D02*
X76302438Y-99138094D01*
X76302438Y-99138094D02*
X76254819Y-99042856D01*
X76254819Y-99042856D02*
X76254819Y-98804761D01*
X76254819Y-98804761D02*
X76302438Y-98661904D01*
X76254819Y-98328570D02*
X77254819Y-98090475D01*
X77254819Y-98090475D02*
X76540533Y-97899999D01*
X76540533Y-97899999D02*
X77254819Y-97709523D01*
X77254819Y-97709523D02*
X76254819Y-97471428D01*
X76683390Y-96947618D02*
X76635771Y-97042856D01*
X76635771Y-97042856D02*
X76588152Y-97090475D01*
X76588152Y-97090475D02*
X76492914Y-97138094D01*
X76492914Y-97138094D02*
X76445295Y-97138094D01*
X76445295Y-97138094D02*
X76350057Y-97090475D01*
X76350057Y-97090475D02*
X76302438Y-97042856D01*
X76302438Y-97042856D02*
X76254819Y-96947618D01*
X76254819Y-96947618D02*
X76254819Y-96757142D01*
X76254819Y-96757142D02*
X76302438Y-96661904D01*
X76302438Y-96661904D02*
X76350057Y-96614285D01*
X76350057Y-96614285D02*
X76445295Y-96566666D01*
X76445295Y-96566666D02*
X76492914Y-96566666D01*
X76492914Y-96566666D02*
X76588152Y-96614285D01*
X76588152Y-96614285D02*
X76635771Y-96661904D01*
X76635771Y-96661904D02*
X76683390Y-96757142D01*
X76683390Y-96757142D02*
X76683390Y-96947618D01*
X76683390Y-96947618D02*
X76731009Y-97042856D01*
X76731009Y-97042856D02*
X76778628Y-97090475D01*
X76778628Y-97090475D02*
X76873866Y-97138094D01*
X76873866Y-97138094D02*
X77064342Y-97138094D01*
X77064342Y-97138094D02*
X77159580Y-97090475D01*
X77159580Y-97090475D02*
X77207200Y-97042856D01*
X77207200Y-97042856D02*
X77254819Y-96947618D01*
X77254819Y-96947618D02*
X77254819Y-96757142D01*
X77254819Y-96757142D02*
X77207200Y-96661904D01*
X77207200Y-96661904D02*
X77159580Y-96614285D01*
X77159580Y-96614285D02*
X77064342Y-96566666D01*
X77064342Y-96566666D02*
X76873866Y-96566666D01*
X76873866Y-96566666D02*
X76778628Y-96614285D01*
X76778628Y-96614285D02*
X76731009Y-96661904D01*
X76731009Y-96661904D02*
X76683390Y-96757142D01*
X111257142Y-59854819D02*
X110923809Y-59378628D01*
X110685714Y-59854819D02*
X110685714Y-58854819D01*
X110685714Y-58854819D02*
X111066666Y-58854819D01*
X111066666Y-58854819D02*
X111161904Y-58902438D01*
X111161904Y-58902438D02*
X111209523Y-58950057D01*
X111209523Y-58950057D02*
X111257142Y-59045295D01*
X111257142Y-59045295D02*
X111257142Y-59188152D01*
X111257142Y-59188152D02*
X111209523Y-59283390D01*
X111209523Y-59283390D02*
X111161904Y-59331009D01*
X111161904Y-59331009D02*
X111066666Y-59378628D01*
X111066666Y-59378628D02*
X110685714Y-59378628D01*
X111638095Y-58950057D02*
X111685714Y-58902438D01*
X111685714Y-58902438D02*
X111780952Y-58854819D01*
X111780952Y-58854819D02*
X112019047Y-58854819D01*
X112019047Y-58854819D02*
X112114285Y-58902438D01*
X112114285Y-58902438D02*
X112161904Y-58950057D01*
X112161904Y-58950057D02*
X112209523Y-59045295D01*
X112209523Y-59045295D02*
X112209523Y-59140533D01*
X112209523Y-59140533D02*
X112161904Y-59283390D01*
X112161904Y-59283390D02*
X111590476Y-59854819D01*
X111590476Y-59854819D02*
X112209523Y-59854819D01*
X113161904Y-59854819D02*
X112590476Y-59854819D01*
X112876190Y-59854819D02*
X112876190Y-58854819D01*
X112876190Y-58854819D02*
X112780952Y-58997676D01*
X112780952Y-58997676D02*
X112685714Y-59092914D01*
X112685714Y-59092914D02*
X112590476Y-59140533D01*
X79507142Y-82909580D02*
X79459523Y-82957200D01*
X79459523Y-82957200D02*
X79316666Y-83004819D01*
X79316666Y-83004819D02*
X79221428Y-83004819D01*
X79221428Y-83004819D02*
X79078571Y-82957200D01*
X79078571Y-82957200D02*
X78983333Y-82861961D01*
X78983333Y-82861961D02*
X78935714Y-82766723D01*
X78935714Y-82766723D02*
X78888095Y-82576247D01*
X78888095Y-82576247D02*
X78888095Y-82433390D01*
X78888095Y-82433390D02*
X78935714Y-82242914D01*
X78935714Y-82242914D02*
X78983333Y-82147676D01*
X78983333Y-82147676D02*
X79078571Y-82052438D01*
X79078571Y-82052438D02*
X79221428Y-82004819D01*
X79221428Y-82004819D02*
X79316666Y-82004819D01*
X79316666Y-82004819D02*
X79459523Y-82052438D01*
X79459523Y-82052438D02*
X79507142Y-82100057D01*
X80459523Y-83004819D02*
X79888095Y-83004819D01*
X80173809Y-83004819D02*
X80173809Y-82004819D01*
X80173809Y-82004819D02*
X80078571Y-82147676D01*
X80078571Y-82147676D02*
X79983333Y-82242914D01*
X79983333Y-82242914D02*
X79888095Y-82290533D01*
X81316666Y-82338152D02*
X81316666Y-83004819D01*
X81078571Y-81957200D02*
X80840476Y-82671485D01*
X80840476Y-82671485D02*
X81459523Y-82671485D01*
X87457142Y-85454819D02*
X87123809Y-84978628D01*
X86885714Y-85454819D02*
X86885714Y-84454819D01*
X86885714Y-84454819D02*
X87266666Y-84454819D01*
X87266666Y-84454819D02*
X87361904Y-84502438D01*
X87361904Y-84502438D02*
X87409523Y-84550057D01*
X87409523Y-84550057D02*
X87457142Y-84645295D01*
X87457142Y-84645295D02*
X87457142Y-84788152D01*
X87457142Y-84788152D02*
X87409523Y-84883390D01*
X87409523Y-84883390D02*
X87361904Y-84931009D01*
X87361904Y-84931009D02*
X87266666Y-84978628D01*
X87266666Y-84978628D02*
X86885714Y-84978628D01*
X87838095Y-84550057D02*
X87885714Y-84502438D01*
X87885714Y-84502438D02*
X87980952Y-84454819D01*
X87980952Y-84454819D02*
X88219047Y-84454819D01*
X88219047Y-84454819D02*
X88314285Y-84502438D01*
X88314285Y-84502438D02*
X88361904Y-84550057D01*
X88361904Y-84550057D02*
X88409523Y-84645295D01*
X88409523Y-84645295D02*
X88409523Y-84740533D01*
X88409523Y-84740533D02*
X88361904Y-84883390D01*
X88361904Y-84883390D02*
X87790476Y-85454819D01*
X87790476Y-85454819D02*
X88409523Y-85454819D01*
X88980952Y-84883390D02*
X88885714Y-84835771D01*
X88885714Y-84835771D02*
X88838095Y-84788152D01*
X88838095Y-84788152D02*
X88790476Y-84692914D01*
X88790476Y-84692914D02*
X88790476Y-84645295D01*
X88790476Y-84645295D02*
X88838095Y-84550057D01*
X88838095Y-84550057D02*
X88885714Y-84502438D01*
X88885714Y-84502438D02*
X88980952Y-84454819D01*
X88980952Y-84454819D02*
X89171428Y-84454819D01*
X89171428Y-84454819D02*
X89266666Y-84502438D01*
X89266666Y-84502438D02*
X89314285Y-84550057D01*
X89314285Y-84550057D02*
X89361904Y-84645295D01*
X89361904Y-84645295D02*
X89361904Y-84692914D01*
X89361904Y-84692914D02*
X89314285Y-84788152D01*
X89314285Y-84788152D02*
X89266666Y-84835771D01*
X89266666Y-84835771D02*
X89171428Y-84883390D01*
X89171428Y-84883390D02*
X88980952Y-84883390D01*
X88980952Y-84883390D02*
X88885714Y-84931009D01*
X88885714Y-84931009D02*
X88838095Y-84978628D01*
X88838095Y-84978628D02*
X88790476Y-85073866D01*
X88790476Y-85073866D02*
X88790476Y-85264342D01*
X88790476Y-85264342D02*
X88838095Y-85359580D01*
X88838095Y-85359580D02*
X88885714Y-85407200D01*
X88885714Y-85407200D02*
X88980952Y-85454819D01*
X88980952Y-85454819D02*
X89171428Y-85454819D01*
X89171428Y-85454819D02*
X89266666Y-85407200D01*
X89266666Y-85407200D02*
X89314285Y-85359580D01*
X89314285Y-85359580D02*
X89361904Y-85264342D01*
X89361904Y-85264342D02*
X89361904Y-85073866D01*
X89361904Y-85073866D02*
X89314285Y-84978628D01*
X89314285Y-84978628D02*
X89266666Y-84931009D01*
X89266666Y-84931009D02*
X89171428Y-84883390D01*
X97459580Y-98092857D02*
X97507200Y-98140476D01*
X97507200Y-98140476D02*
X97554819Y-98283333D01*
X97554819Y-98283333D02*
X97554819Y-98378571D01*
X97554819Y-98378571D02*
X97507200Y-98521428D01*
X97507200Y-98521428D02*
X97411961Y-98616666D01*
X97411961Y-98616666D02*
X97316723Y-98664285D01*
X97316723Y-98664285D02*
X97126247Y-98711904D01*
X97126247Y-98711904D02*
X96983390Y-98711904D01*
X96983390Y-98711904D02*
X96792914Y-98664285D01*
X96792914Y-98664285D02*
X96697676Y-98616666D01*
X96697676Y-98616666D02*
X96602438Y-98521428D01*
X96602438Y-98521428D02*
X96554819Y-98378571D01*
X96554819Y-98378571D02*
X96554819Y-98283333D01*
X96554819Y-98283333D02*
X96602438Y-98140476D01*
X96602438Y-98140476D02*
X96650057Y-98092857D01*
X97554819Y-97140476D02*
X97554819Y-97711904D01*
X97554819Y-97426190D02*
X96554819Y-97426190D01*
X96554819Y-97426190D02*
X96697676Y-97521428D01*
X96697676Y-97521428D02*
X96792914Y-97616666D01*
X96792914Y-97616666D02*
X96840533Y-97711904D01*
X97554819Y-96188095D02*
X97554819Y-96759523D01*
X97554819Y-96473809D02*
X96554819Y-96473809D01*
X96554819Y-96473809D02*
X96697676Y-96569047D01*
X96697676Y-96569047D02*
X96792914Y-96664285D01*
X96792914Y-96664285D02*
X96840533Y-96759523D01*
X108607142Y-76654819D02*
X108273809Y-76178628D01*
X108035714Y-76654819D02*
X108035714Y-75654819D01*
X108035714Y-75654819D02*
X108416666Y-75654819D01*
X108416666Y-75654819D02*
X108511904Y-75702438D01*
X108511904Y-75702438D02*
X108559523Y-75750057D01*
X108559523Y-75750057D02*
X108607142Y-75845295D01*
X108607142Y-75845295D02*
X108607142Y-75988152D01*
X108607142Y-75988152D02*
X108559523Y-76083390D01*
X108559523Y-76083390D02*
X108511904Y-76131009D01*
X108511904Y-76131009D02*
X108416666Y-76178628D01*
X108416666Y-76178628D02*
X108035714Y-76178628D01*
X109559523Y-76654819D02*
X108988095Y-76654819D01*
X109273809Y-76654819D02*
X109273809Y-75654819D01*
X109273809Y-75654819D02*
X109178571Y-75797676D01*
X109178571Y-75797676D02*
X109083333Y-75892914D01*
X109083333Y-75892914D02*
X108988095Y-75940533D01*
X110416666Y-75988152D02*
X110416666Y-76654819D01*
X110178571Y-75607200D02*
X109940476Y-76321485D01*
X109940476Y-76321485D02*
X110559523Y-76321485D01*
X116819047Y-90631009D02*
X116961904Y-90678628D01*
X116961904Y-90678628D02*
X117009523Y-90726247D01*
X117009523Y-90726247D02*
X117057142Y-90821485D01*
X117057142Y-90821485D02*
X117057142Y-90964342D01*
X117057142Y-90964342D02*
X117009523Y-91059580D01*
X117009523Y-91059580D02*
X116961904Y-91107200D01*
X116961904Y-91107200D02*
X116866666Y-91154819D01*
X116866666Y-91154819D02*
X116485714Y-91154819D01*
X116485714Y-91154819D02*
X116485714Y-90154819D01*
X116485714Y-90154819D02*
X116819047Y-90154819D01*
X116819047Y-90154819D02*
X116914285Y-90202438D01*
X116914285Y-90202438D02*
X116961904Y-90250057D01*
X116961904Y-90250057D02*
X117009523Y-90345295D01*
X117009523Y-90345295D02*
X117009523Y-90440533D01*
X117009523Y-90440533D02*
X116961904Y-90535771D01*
X116961904Y-90535771D02*
X116914285Y-90583390D01*
X116914285Y-90583390D02*
X116819047Y-90631009D01*
X116819047Y-90631009D02*
X116485714Y-90631009D01*
X117390476Y-90154819D02*
X118057142Y-90154819D01*
X118057142Y-90154819D02*
X117390476Y-91154819D01*
X117390476Y-91154819D02*
X118057142Y-91154819D01*
X118961904Y-91154819D02*
X118390476Y-91154819D01*
X118676190Y-91154819D02*
X118676190Y-90154819D01*
X118676190Y-90154819D02*
X118580952Y-90297676D01*
X118580952Y-90297676D02*
X118485714Y-90392914D01*
X118485714Y-90392914D02*
X118390476Y-90440533D01*
X111338095Y-60254819D02*
X111338095Y-61064342D01*
X111338095Y-61064342D02*
X111385714Y-61159580D01*
X111385714Y-61159580D02*
X111433333Y-61207200D01*
X111433333Y-61207200D02*
X111528571Y-61254819D01*
X111528571Y-61254819D02*
X111719047Y-61254819D01*
X111719047Y-61254819D02*
X111814285Y-61207200D01*
X111814285Y-61207200D02*
X111861904Y-61159580D01*
X111861904Y-61159580D02*
X111909523Y-61064342D01*
X111909523Y-61064342D02*
X111909523Y-60254819D01*
X112814285Y-60588152D02*
X112814285Y-61254819D01*
X112576190Y-60207200D02*
X112338095Y-60921485D01*
X112338095Y-60921485D02*
X112957142Y-60921485D01*
X104533333Y-54009580D02*
X104485714Y-54057200D01*
X104485714Y-54057200D02*
X104342857Y-54104819D01*
X104342857Y-54104819D02*
X104247619Y-54104819D01*
X104247619Y-54104819D02*
X104104762Y-54057200D01*
X104104762Y-54057200D02*
X104009524Y-53961961D01*
X104009524Y-53961961D02*
X103961905Y-53866723D01*
X103961905Y-53866723D02*
X103914286Y-53676247D01*
X103914286Y-53676247D02*
X103914286Y-53533390D01*
X103914286Y-53533390D02*
X103961905Y-53342914D01*
X103961905Y-53342914D02*
X104009524Y-53247676D01*
X104009524Y-53247676D02*
X104104762Y-53152438D01*
X104104762Y-53152438D02*
X104247619Y-53104819D01*
X104247619Y-53104819D02*
X104342857Y-53104819D01*
X104342857Y-53104819D02*
X104485714Y-53152438D01*
X104485714Y-53152438D02*
X104533333Y-53200057D01*
X104866667Y-53104819D02*
X105485714Y-53104819D01*
X105485714Y-53104819D02*
X105152381Y-53485771D01*
X105152381Y-53485771D02*
X105295238Y-53485771D01*
X105295238Y-53485771D02*
X105390476Y-53533390D01*
X105390476Y-53533390D02*
X105438095Y-53581009D01*
X105438095Y-53581009D02*
X105485714Y-53676247D01*
X105485714Y-53676247D02*
X105485714Y-53914342D01*
X105485714Y-53914342D02*
X105438095Y-54009580D01*
X105438095Y-54009580D02*
X105390476Y-54057200D01*
X105390476Y-54057200D02*
X105295238Y-54104819D01*
X105295238Y-54104819D02*
X105009524Y-54104819D01*
X105009524Y-54104819D02*
X104914286Y-54057200D01*
X104914286Y-54057200D02*
X104866667Y-54009580D01*
X109033333Y-69054819D02*
X108700000Y-68578628D01*
X108461905Y-69054819D02*
X108461905Y-68054819D01*
X108461905Y-68054819D02*
X108842857Y-68054819D01*
X108842857Y-68054819D02*
X108938095Y-68102438D01*
X108938095Y-68102438D02*
X108985714Y-68150057D01*
X108985714Y-68150057D02*
X109033333Y-68245295D01*
X109033333Y-68245295D02*
X109033333Y-68388152D01*
X109033333Y-68388152D02*
X108985714Y-68483390D01*
X108985714Y-68483390D02*
X108938095Y-68531009D01*
X108938095Y-68531009D02*
X108842857Y-68578628D01*
X108842857Y-68578628D02*
X108461905Y-68578628D01*
X109366667Y-68054819D02*
X109985714Y-68054819D01*
X109985714Y-68054819D02*
X109652381Y-68435771D01*
X109652381Y-68435771D02*
X109795238Y-68435771D01*
X109795238Y-68435771D02*
X109890476Y-68483390D01*
X109890476Y-68483390D02*
X109938095Y-68531009D01*
X109938095Y-68531009D02*
X109985714Y-68626247D01*
X109985714Y-68626247D02*
X109985714Y-68864342D01*
X109985714Y-68864342D02*
X109938095Y-68959580D01*
X109938095Y-68959580D02*
X109890476Y-69007200D01*
X109890476Y-69007200D02*
X109795238Y-69054819D01*
X109795238Y-69054819D02*
X109509524Y-69054819D01*
X109509524Y-69054819D02*
X109414286Y-69007200D01*
X109414286Y-69007200D02*
X109366667Y-68959580D01*
X106133331Y-64434580D02*
X106085712Y-64482200D01*
X106085712Y-64482200D02*
X105942855Y-64529819D01*
X105942855Y-64529819D02*
X105847617Y-64529819D01*
X105847617Y-64529819D02*
X105704760Y-64482200D01*
X105704760Y-64482200D02*
X105609522Y-64386961D01*
X105609522Y-64386961D02*
X105561903Y-64291723D01*
X105561903Y-64291723D02*
X105514284Y-64101247D01*
X105514284Y-64101247D02*
X105514284Y-63958390D01*
X105514284Y-63958390D02*
X105561903Y-63767914D01*
X105561903Y-63767914D02*
X105609522Y-63672676D01*
X105609522Y-63672676D02*
X105704760Y-63577438D01*
X105704760Y-63577438D02*
X105847617Y-63529819D01*
X105847617Y-63529819D02*
X105942855Y-63529819D01*
X105942855Y-63529819D02*
X106085712Y-63577438D01*
X106085712Y-63577438D02*
X106133331Y-63625057D01*
X106514284Y-63625057D02*
X106561903Y-63577438D01*
X106561903Y-63577438D02*
X106657141Y-63529819D01*
X106657141Y-63529819D02*
X106895236Y-63529819D01*
X106895236Y-63529819D02*
X106990474Y-63577438D01*
X106990474Y-63577438D02*
X107038093Y-63625057D01*
X107038093Y-63625057D02*
X107085712Y-63720295D01*
X107085712Y-63720295D02*
X107085712Y-63815533D01*
X107085712Y-63815533D02*
X107038093Y-63958390D01*
X107038093Y-63958390D02*
X106466665Y-64529819D01*
X106466665Y-64529819D02*
X107085712Y-64529819D01*
X97857142Y-62354819D02*
X97523809Y-61878628D01*
X97285714Y-62354819D02*
X97285714Y-61354819D01*
X97285714Y-61354819D02*
X97666666Y-61354819D01*
X97666666Y-61354819D02*
X97761904Y-61402438D01*
X97761904Y-61402438D02*
X97809523Y-61450057D01*
X97809523Y-61450057D02*
X97857142Y-61545295D01*
X97857142Y-61545295D02*
X97857142Y-61688152D01*
X97857142Y-61688152D02*
X97809523Y-61783390D01*
X97809523Y-61783390D02*
X97761904Y-61831009D01*
X97761904Y-61831009D02*
X97666666Y-61878628D01*
X97666666Y-61878628D02*
X97285714Y-61878628D01*
X98809523Y-62354819D02*
X98238095Y-62354819D01*
X98523809Y-62354819D02*
X98523809Y-61354819D01*
X98523809Y-61354819D02*
X98428571Y-61497676D01*
X98428571Y-61497676D02*
X98333333Y-61592914D01*
X98333333Y-61592914D02*
X98238095Y-61640533D01*
X99666666Y-61354819D02*
X99476190Y-61354819D01*
X99476190Y-61354819D02*
X99380952Y-61402438D01*
X99380952Y-61402438D02*
X99333333Y-61450057D01*
X99333333Y-61450057D02*
X99238095Y-61592914D01*
X99238095Y-61592914D02*
X99190476Y-61783390D01*
X99190476Y-61783390D02*
X99190476Y-62164342D01*
X99190476Y-62164342D02*
X99238095Y-62259580D01*
X99238095Y-62259580D02*
X99285714Y-62307200D01*
X99285714Y-62307200D02*
X99380952Y-62354819D01*
X99380952Y-62354819D02*
X99571428Y-62354819D01*
X99571428Y-62354819D02*
X99666666Y-62307200D01*
X99666666Y-62307200D02*
X99714285Y-62259580D01*
X99714285Y-62259580D02*
X99761904Y-62164342D01*
X99761904Y-62164342D02*
X99761904Y-61926247D01*
X99761904Y-61926247D02*
X99714285Y-61831009D01*
X99714285Y-61831009D02*
X99666666Y-61783390D01*
X99666666Y-61783390D02*
X99571428Y-61735771D01*
X99571428Y-61735771D02*
X99380952Y-61735771D01*
X99380952Y-61735771D02*
X99285714Y-61783390D01*
X99285714Y-61783390D02*
X99238095Y-61831009D01*
X99238095Y-61831009D02*
X99190476Y-61926247D01*
X101733333Y-56359580D02*
X101685714Y-56407200D01*
X101685714Y-56407200D02*
X101542857Y-56454819D01*
X101542857Y-56454819D02*
X101447619Y-56454819D01*
X101447619Y-56454819D02*
X101304762Y-56407200D01*
X101304762Y-56407200D02*
X101209524Y-56311961D01*
X101209524Y-56311961D02*
X101161905Y-56216723D01*
X101161905Y-56216723D02*
X101114286Y-56026247D01*
X101114286Y-56026247D02*
X101114286Y-55883390D01*
X101114286Y-55883390D02*
X101161905Y-55692914D01*
X101161905Y-55692914D02*
X101209524Y-55597676D01*
X101209524Y-55597676D02*
X101304762Y-55502438D01*
X101304762Y-55502438D02*
X101447619Y-55454819D01*
X101447619Y-55454819D02*
X101542857Y-55454819D01*
X101542857Y-55454819D02*
X101685714Y-55502438D01*
X101685714Y-55502438D02*
X101733333Y-55550057D01*
X102590476Y-55788152D02*
X102590476Y-56454819D01*
X102352381Y-55407200D02*
X102114286Y-56121485D01*
X102114286Y-56121485D02*
X102733333Y-56121485D01*
X104633333Y-52109580D02*
X104585714Y-52157200D01*
X104585714Y-52157200D02*
X104442857Y-52204819D01*
X104442857Y-52204819D02*
X104347619Y-52204819D01*
X104347619Y-52204819D02*
X104204762Y-52157200D01*
X104204762Y-52157200D02*
X104109524Y-52061961D01*
X104109524Y-52061961D02*
X104061905Y-51966723D01*
X104061905Y-51966723D02*
X104014286Y-51776247D01*
X104014286Y-51776247D02*
X104014286Y-51633390D01*
X104014286Y-51633390D02*
X104061905Y-51442914D01*
X104061905Y-51442914D02*
X104109524Y-51347676D01*
X104109524Y-51347676D02*
X104204762Y-51252438D01*
X104204762Y-51252438D02*
X104347619Y-51204819D01*
X104347619Y-51204819D02*
X104442857Y-51204819D01*
X104442857Y-51204819D02*
X104585714Y-51252438D01*
X104585714Y-51252438D02*
X104633333Y-51300057D01*
X105538095Y-51204819D02*
X105061905Y-51204819D01*
X105061905Y-51204819D02*
X105014286Y-51681009D01*
X105014286Y-51681009D02*
X105061905Y-51633390D01*
X105061905Y-51633390D02*
X105157143Y-51585771D01*
X105157143Y-51585771D02*
X105395238Y-51585771D01*
X105395238Y-51585771D02*
X105490476Y-51633390D01*
X105490476Y-51633390D02*
X105538095Y-51681009D01*
X105538095Y-51681009D02*
X105585714Y-51776247D01*
X105585714Y-51776247D02*
X105585714Y-52014342D01*
X105585714Y-52014342D02*
X105538095Y-52109580D01*
X105538095Y-52109580D02*
X105490476Y-52157200D01*
X105490476Y-52157200D02*
X105395238Y-52204819D01*
X105395238Y-52204819D02*
X105157143Y-52204819D01*
X105157143Y-52204819D02*
X105061905Y-52157200D01*
X105061905Y-52157200D02*
X105014286Y-52109580D01*
X62557142Y-89754819D02*
X62223809Y-89278628D01*
X61985714Y-89754819D02*
X61985714Y-88754819D01*
X61985714Y-88754819D02*
X62366666Y-88754819D01*
X62366666Y-88754819D02*
X62461904Y-88802438D01*
X62461904Y-88802438D02*
X62509523Y-88850057D01*
X62509523Y-88850057D02*
X62557142Y-88945295D01*
X62557142Y-88945295D02*
X62557142Y-89088152D01*
X62557142Y-89088152D02*
X62509523Y-89183390D01*
X62509523Y-89183390D02*
X62461904Y-89231009D01*
X62461904Y-89231009D02*
X62366666Y-89278628D01*
X62366666Y-89278628D02*
X61985714Y-89278628D01*
X62890476Y-88754819D02*
X63509523Y-88754819D01*
X63509523Y-88754819D02*
X63176190Y-89135771D01*
X63176190Y-89135771D02*
X63319047Y-89135771D01*
X63319047Y-89135771D02*
X63414285Y-89183390D01*
X63414285Y-89183390D02*
X63461904Y-89231009D01*
X63461904Y-89231009D02*
X63509523Y-89326247D01*
X63509523Y-89326247D02*
X63509523Y-89564342D01*
X63509523Y-89564342D02*
X63461904Y-89659580D01*
X63461904Y-89659580D02*
X63414285Y-89707200D01*
X63414285Y-89707200D02*
X63319047Y-89754819D01*
X63319047Y-89754819D02*
X63033333Y-89754819D01*
X63033333Y-89754819D02*
X62938095Y-89707200D01*
X62938095Y-89707200D02*
X62890476Y-89659580D01*
X64366666Y-88754819D02*
X64176190Y-88754819D01*
X64176190Y-88754819D02*
X64080952Y-88802438D01*
X64080952Y-88802438D02*
X64033333Y-88850057D01*
X64033333Y-88850057D02*
X63938095Y-88992914D01*
X63938095Y-88992914D02*
X63890476Y-89183390D01*
X63890476Y-89183390D02*
X63890476Y-89564342D01*
X63890476Y-89564342D02*
X63938095Y-89659580D01*
X63938095Y-89659580D02*
X63985714Y-89707200D01*
X63985714Y-89707200D02*
X64080952Y-89754819D01*
X64080952Y-89754819D02*
X64271428Y-89754819D01*
X64271428Y-89754819D02*
X64366666Y-89707200D01*
X64366666Y-89707200D02*
X64414285Y-89659580D01*
X64414285Y-89659580D02*
X64461904Y-89564342D01*
X64461904Y-89564342D02*
X64461904Y-89326247D01*
X64461904Y-89326247D02*
X64414285Y-89231009D01*
X64414285Y-89231009D02*
X64366666Y-89183390D01*
X64366666Y-89183390D02*
X64271428Y-89135771D01*
X64271428Y-89135771D02*
X64080952Y-89135771D01*
X64080952Y-89135771D02*
X63985714Y-89183390D01*
X63985714Y-89183390D02*
X63938095Y-89231009D01*
X63938095Y-89231009D02*
X63890476Y-89326247D01*
X110611905Y-90304819D02*
X110611905Y-89304819D01*
X110611905Y-89304819D02*
X110850000Y-89304819D01*
X110850000Y-89304819D02*
X110992857Y-89352438D01*
X110992857Y-89352438D02*
X111088095Y-89447676D01*
X111088095Y-89447676D02*
X111135714Y-89542914D01*
X111135714Y-89542914D02*
X111183333Y-89733390D01*
X111183333Y-89733390D02*
X111183333Y-89876247D01*
X111183333Y-89876247D02*
X111135714Y-90066723D01*
X111135714Y-90066723D02*
X111088095Y-90161961D01*
X111088095Y-90161961D02*
X110992857Y-90257200D01*
X110992857Y-90257200D02*
X110850000Y-90304819D01*
X110850000Y-90304819D02*
X110611905Y-90304819D01*
X112088095Y-89304819D02*
X111611905Y-89304819D01*
X111611905Y-89304819D02*
X111564286Y-89781009D01*
X111564286Y-89781009D02*
X111611905Y-89733390D01*
X111611905Y-89733390D02*
X111707143Y-89685771D01*
X111707143Y-89685771D02*
X111945238Y-89685771D01*
X111945238Y-89685771D02*
X112040476Y-89733390D01*
X112040476Y-89733390D02*
X112088095Y-89781009D01*
X112088095Y-89781009D02*
X112135714Y-89876247D01*
X112135714Y-89876247D02*
X112135714Y-90114342D01*
X112135714Y-90114342D02*
X112088095Y-90209580D01*
X112088095Y-90209580D02*
X112040476Y-90257200D01*
X112040476Y-90257200D02*
X111945238Y-90304819D01*
X111945238Y-90304819D02*
X111707143Y-90304819D01*
X111707143Y-90304819D02*
X111611905Y-90257200D01*
X111611905Y-90257200D02*
X111564286Y-90209580D01*
X64057142Y-58454819D02*
X63723809Y-57978628D01*
X63485714Y-58454819D02*
X63485714Y-57454819D01*
X63485714Y-57454819D02*
X63866666Y-57454819D01*
X63866666Y-57454819D02*
X63961904Y-57502438D01*
X63961904Y-57502438D02*
X64009523Y-57550057D01*
X64009523Y-57550057D02*
X64057142Y-57645295D01*
X64057142Y-57645295D02*
X64057142Y-57788152D01*
X64057142Y-57788152D02*
X64009523Y-57883390D01*
X64009523Y-57883390D02*
X63961904Y-57931009D01*
X63961904Y-57931009D02*
X63866666Y-57978628D01*
X63866666Y-57978628D02*
X63485714Y-57978628D01*
X64438095Y-57550057D02*
X64485714Y-57502438D01*
X64485714Y-57502438D02*
X64580952Y-57454819D01*
X64580952Y-57454819D02*
X64819047Y-57454819D01*
X64819047Y-57454819D02*
X64914285Y-57502438D01*
X64914285Y-57502438D02*
X64961904Y-57550057D01*
X64961904Y-57550057D02*
X65009523Y-57645295D01*
X65009523Y-57645295D02*
X65009523Y-57740533D01*
X65009523Y-57740533D02*
X64961904Y-57883390D01*
X64961904Y-57883390D02*
X64390476Y-58454819D01*
X64390476Y-58454819D02*
X65009523Y-58454819D01*
X65914285Y-57454819D02*
X65438095Y-57454819D01*
X65438095Y-57454819D02*
X65390476Y-57931009D01*
X65390476Y-57931009D02*
X65438095Y-57883390D01*
X65438095Y-57883390D02*
X65533333Y-57835771D01*
X65533333Y-57835771D02*
X65771428Y-57835771D01*
X65771428Y-57835771D02*
X65866666Y-57883390D01*
X65866666Y-57883390D02*
X65914285Y-57931009D01*
X65914285Y-57931009D02*
X65961904Y-58026247D01*
X65961904Y-58026247D02*
X65961904Y-58264342D01*
X65961904Y-58264342D02*
X65914285Y-58359580D01*
X65914285Y-58359580D02*
X65866666Y-58407200D01*
X65866666Y-58407200D02*
X65771428Y-58454819D01*
X65771428Y-58454819D02*
X65533333Y-58454819D01*
X65533333Y-58454819D02*
X65438095Y-58407200D01*
X65438095Y-58407200D02*
X65390476Y-58359580D01*
X84738095Y-97904819D02*
X84738095Y-98714342D01*
X84738095Y-98714342D02*
X84785714Y-98809580D01*
X84785714Y-98809580D02*
X84833333Y-98857200D01*
X84833333Y-98857200D02*
X84928571Y-98904819D01*
X84928571Y-98904819D02*
X85119047Y-98904819D01*
X85119047Y-98904819D02*
X85214285Y-98857200D01*
X85214285Y-98857200D02*
X85261904Y-98809580D01*
X85261904Y-98809580D02*
X85309523Y-98714342D01*
X85309523Y-98714342D02*
X85309523Y-97904819D01*
X86309523Y-98904819D02*
X85738095Y-98904819D01*
X86023809Y-98904819D02*
X86023809Y-97904819D01*
X86023809Y-97904819D02*
X85928571Y-98047676D01*
X85928571Y-98047676D02*
X85833333Y-98142914D01*
X85833333Y-98142914D02*
X85738095Y-98190533D01*
X64841667Y-96682201D02*
X64984524Y-96729820D01*
X64984524Y-96729820D02*
X65222619Y-96729820D01*
X65222619Y-96729820D02*
X65317857Y-96682201D01*
X65317857Y-96682201D02*
X65365476Y-96634581D01*
X65365476Y-96634581D02*
X65413095Y-96539343D01*
X65413095Y-96539343D02*
X65413095Y-96444105D01*
X65413095Y-96444105D02*
X65365476Y-96348867D01*
X65365476Y-96348867D02*
X65317857Y-96301248D01*
X65317857Y-96301248D02*
X65222619Y-96253629D01*
X65222619Y-96253629D02*
X65032143Y-96206010D01*
X65032143Y-96206010D02*
X64936905Y-96158391D01*
X64936905Y-96158391D02*
X64889286Y-96110772D01*
X64889286Y-96110772D02*
X64841667Y-96015534D01*
X64841667Y-96015534D02*
X64841667Y-95920296D01*
X64841667Y-95920296D02*
X64889286Y-95825058D01*
X64889286Y-95825058D02*
X64936905Y-95777439D01*
X64936905Y-95777439D02*
X65032143Y-95729820D01*
X65032143Y-95729820D02*
X65270238Y-95729820D01*
X65270238Y-95729820D02*
X65413095Y-95777439D01*
X65746429Y-95729820D02*
X65984524Y-96729820D01*
X65984524Y-96729820D02*
X66175000Y-96015534D01*
X66175000Y-96015534D02*
X66365476Y-96729820D01*
X66365476Y-96729820D02*
X66603572Y-95729820D01*
X67413095Y-96063153D02*
X67413095Y-96729820D01*
X67175000Y-95682201D02*
X66936905Y-96396486D01*
X66936905Y-96396486D02*
X67555952Y-96396486D01*
X81057142Y-85454819D02*
X80723809Y-84978628D01*
X80485714Y-85454819D02*
X80485714Y-84454819D01*
X80485714Y-84454819D02*
X80866666Y-84454819D01*
X80866666Y-84454819D02*
X80961904Y-84502438D01*
X80961904Y-84502438D02*
X81009523Y-84550057D01*
X81009523Y-84550057D02*
X81057142Y-84645295D01*
X81057142Y-84645295D02*
X81057142Y-84788152D01*
X81057142Y-84788152D02*
X81009523Y-84883390D01*
X81009523Y-84883390D02*
X80961904Y-84931009D01*
X80961904Y-84931009D02*
X80866666Y-84978628D01*
X80866666Y-84978628D02*
X80485714Y-84978628D01*
X81438095Y-84550057D02*
X81485714Y-84502438D01*
X81485714Y-84502438D02*
X81580952Y-84454819D01*
X81580952Y-84454819D02*
X81819047Y-84454819D01*
X81819047Y-84454819D02*
X81914285Y-84502438D01*
X81914285Y-84502438D02*
X81961904Y-84550057D01*
X81961904Y-84550057D02*
X82009523Y-84645295D01*
X82009523Y-84645295D02*
X82009523Y-84740533D01*
X82009523Y-84740533D02*
X81961904Y-84883390D01*
X81961904Y-84883390D02*
X81390476Y-85454819D01*
X81390476Y-85454819D02*
X82009523Y-85454819D01*
X82485714Y-85454819D02*
X82676190Y-85454819D01*
X82676190Y-85454819D02*
X82771428Y-85407200D01*
X82771428Y-85407200D02*
X82819047Y-85359580D01*
X82819047Y-85359580D02*
X82914285Y-85216723D01*
X82914285Y-85216723D02*
X82961904Y-85026247D01*
X82961904Y-85026247D02*
X82961904Y-84645295D01*
X82961904Y-84645295D02*
X82914285Y-84550057D01*
X82914285Y-84550057D02*
X82866666Y-84502438D01*
X82866666Y-84502438D02*
X82771428Y-84454819D01*
X82771428Y-84454819D02*
X82580952Y-84454819D01*
X82580952Y-84454819D02*
X82485714Y-84502438D01*
X82485714Y-84502438D02*
X82438095Y-84550057D01*
X82438095Y-84550057D02*
X82390476Y-84645295D01*
X82390476Y-84645295D02*
X82390476Y-84883390D01*
X82390476Y-84883390D02*
X82438095Y-84978628D01*
X82438095Y-84978628D02*
X82485714Y-85026247D01*
X82485714Y-85026247D02*
X82580952Y-85073866D01*
X82580952Y-85073866D02*
X82771428Y-85073866D01*
X82771428Y-85073866D02*
X82866666Y-85026247D01*
X82866666Y-85026247D02*
X82914285Y-84978628D01*
X82914285Y-84978628D02*
X82961904Y-84883390D01*
X89057142Y-82859580D02*
X89009523Y-82907200D01*
X89009523Y-82907200D02*
X88866666Y-82954819D01*
X88866666Y-82954819D02*
X88771428Y-82954819D01*
X88771428Y-82954819D02*
X88628571Y-82907200D01*
X88628571Y-82907200D02*
X88533333Y-82811961D01*
X88533333Y-82811961D02*
X88485714Y-82716723D01*
X88485714Y-82716723D02*
X88438095Y-82526247D01*
X88438095Y-82526247D02*
X88438095Y-82383390D01*
X88438095Y-82383390D02*
X88485714Y-82192914D01*
X88485714Y-82192914D02*
X88533333Y-82097676D01*
X88533333Y-82097676D02*
X88628571Y-82002438D01*
X88628571Y-82002438D02*
X88771428Y-81954819D01*
X88771428Y-81954819D02*
X88866666Y-81954819D01*
X88866666Y-81954819D02*
X89009523Y-82002438D01*
X89009523Y-82002438D02*
X89057142Y-82050057D01*
X90009523Y-82954819D02*
X89438095Y-82954819D01*
X89723809Y-82954819D02*
X89723809Y-81954819D01*
X89723809Y-81954819D02*
X89628571Y-82097676D01*
X89628571Y-82097676D02*
X89533333Y-82192914D01*
X89533333Y-82192914D02*
X89438095Y-82240533D01*
X90914285Y-81954819D02*
X90438095Y-81954819D01*
X90438095Y-81954819D02*
X90390476Y-82431009D01*
X90390476Y-82431009D02*
X90438095Y-82383390D01*
X90438095Y-82383390D02*
X90533333Y-82335771D01*
X90533333Y-82335771D02*
X90771428Y-82335771D01*
X90771428Y-82335771D02*
X90866666Y-82383390D01*
X90866666Y-82383390D02*
X90914285Y-82431009D01*
X90914285Y-82431009D02*
X90961904Y-82526247D01*
X90961904Y-82526247D02*
X90961904Y-82764342D01*
X90961904Y-82764342D02*
X90914285Y-82859580D01*
X90914285Y-82859580D02*
X90866666Y-82907200D01*
X90866666Y-82907200D02*
X90771428Y-82954819D01*
X90771428Y-82954819D02*
X90533333Y-82954819D01*
X90533333Y-82954819D02*
X90438095Y-82907200D01*
X90438095Y-82907200D02*
X90390476Y-82859580D01*
X99957142Y-58154819D02*
X99623809Y-57678628D01*
X99385714Y-58154819D02*
X99385714Y-57154819D01*
X99385714Y-57154819D02*
X99766666Y-57154819D01*
X99766666Y-57154819D02*
X99861904Y-57202438D01*
X99861904Y-57202438D02*
X99909523Y-57250057D01*
X99909523Y-57250057D02*
X99957142Y-57345295D01*
X99957142Y-57345295D02*
X99957142Y-57488152D01*
X99957142Y-57488152D02*
X99909523Y-57583390D01*
X99909523Y-57583390D02*
X99861904Y-57631009D01*
X99861904Y-57631009D02*
X99766666Y-57678628D01*
X99766666Y-57678628D02*
X99385714Y-57678628D01*
X100909523Y-58154819D02*
X100338095Y-58154819D01*
X100623809Y-58154819D02*
X100623809Y-57154819D01*
X100623809Y-57154819D02*
X100528571Y-57297676D01*
X100528571Y-57297676D02*
X100433333Y-57392914D01*
X100433333Y-57392914D02*
X100338095Y-57440533D01*
X101242857Y-57154819D02*
X101909523Y-57154819D01*
X101909523Y-57154819D02*
X101480952Y-58154819D01*
X101916667Y-97707200D02*
X102059524Y-97754819D01*
X102059524Y-97754819D02*
X102297619Y-97754819D01*
X102297619Y-97754819D02*
X102392857Y-97707200D01*
X102392857Y-97707200D02*
X102440476Y-97659580D01*
X102440476Y-97659580D02*
X102488095Y-97564342D01*
X102488095Y-97564342D02*
X102488095Y-97469104D01*
X102488095Y-97469104D02*
X102440476Y-97373866D01*
X102440476Y-97373866D02*
X102392857Y-97326247D01*
X102392857Y-97326247D02*
X102297619Y-97278628D01*
X102297619Y-97278628D02*
X102107143Y-97231009D01*
X102107143Y-97231009D02*
X102011905Y-97183390D01*
X102011905Y-97183390D02*
X101964286Y-97135771D01*
X101964286Y-97135771D02*
X101916667Y-97040533D01*
X101916667Y-97040533D02*
X101916667Y-96945295D01*
X101916667Y-96945295D02*
X101964286Y-96850057D01*
X101964286Y-96850057D02*
X102011905Y-96802438D01*
X102011905Y-96802438D02*
X102107143Y-96754819D01*
X102107143Y-96754819D02*
X102345238Y-96754819D01*
X102345238Y-96754819D02*
X102488095Y-96802438D01*
X102821429Y-96754819D02*
X103059524Y-97754819D01*
X103059524Y-97754819D02*
X103250000Y-97040533D01*
X103250000Y-97040533D02*
X103440476Y-97754819D01*
X103440476Y-97754819D02*
X103678572Y-96754819D01*
X103964286Y-96754819D02*
X104630952Y-96754819D01*
X104630952Y-96754819D02*
X104202381Y-97754819D01*
X91557142Y-59054819D02*
X91223809Y-58578628D01*
X90985714Y-59054819D02*
X90985714Y-58054819D01*
X90985714Y-58054819D02*
X91366666Y-58054819D01*
X91366666Y-58054819D02*
X91461904Y-58102438D01*
X91461904Y-58102438D02*
X91509523Y-58150057D01*
X91509523Y-58150057D02*
X91557142Y-58245295D01*
X91557142Y-58245295D02*
X91557142Y-58388152D01*
X91557142Y-58388152D02*
X91509523Y-58483390D01*
X91509523Y-58483390D02*
X91461904Y-58531009D01*
X91461904Y-58531009D02*
X91366666Y-58578628D01*
X91366666Y-58578628D02*
X90985714Y-58578628D01*
X92509523Y-59054819D02*
X91938095Y-59054819D01*
X92223809Y-59054819D02*
X92223809Y-58054819D01*
X92223809Y-58054819D02*
X92128571Y-58197676D01*
X92128571Y-58197676D02*
X92033333Y-58292914D01*
X92033333Y-58292914D02*
X91938095Y-58340533D01*
X93080952Y-58483390D02*
X92985714Y-58435771D01*
X92985714Y-58435771D02*
X92938095Y-58388152D01*
X92938095Y-58388152D02*
X92890476Y-58292914D01*
X92890476Y-58292914D02*
X92890476Y-58245295D01*
X92890476Y-58245295D02*
X92938095Y-58150057D01*
X92938095Y-58150057D02*
X92985714Y-58102438D01*
X92985714Y-58102438D02*
X93080952Y-58054819D01*
X93080952Y-58054819D02*
X93271428Y-58054819D01*
X93271428Y-58054819D02*
X93366666Y-58102438D01*
X93366666Y-58102438D02*
X93414285Y-58150057D01*
X93414285Y-58150057D02*
X93461904Y-58245295D01*
X93461904Y-58245295D02*
X93461904Y-58292914D01*
X93461904Y-58292914D02*
X93414285Y-58388152D01*
X93414285Y-58388152D02*
X93366666Y-58435771D01*
X93366666Y-58435771D02*
X93271428Y-58483390D01*
X93271428Y-58483390D02*
X93080952Y-58483390D01*
X93080952Y-58483390D02*
X92985714Y-58531009D01*
X92985714Y-58531009D02*
X92938095Y-58578628D01*
X92938095Y-58578628D02*
X92890476Y-58673866D01*
X92890476Y-58673866D02*
X92890476Y-58864342D01*
X92890476Y-58864342D02*
X92938095Y-58959580D01*
X92938095Y-58959580D02*
X92985714Y-59007200D01*
X92985714Y-59007200D02*
X93080952Y-59054819D01*
X93080952Y-59054819D02*
X93271428Y-59054819D01*
X93271428Y-59054819D02*
X93366666Y-59007200D01*
X93366666Y-59007200D02*
X93414285Y-58959580D01*
X93414285Y-58959580D02*
X93461904Y-58864342D01*
X93461904Y-58864342D02*
X93461904Y-58673866D01*
X93461904Y-58673866D02*
X93414285Y-58578628D01*
X93414285Y-58578628D02*
X93366666Y-58531009D01*
X93366666Y-58531009D02*
X93271428Y-58483390D01*
X68057142Y-61754819D02*
X67723809Y-61278628D01*
X67485714Y-61754819D02*
X67485714Y-60754819D01*
X67485714Y-60754819D02*
X67866666Y-60754819D01*
X67866666Y-60754819D02*
X67961904Y-60802438D01*
X67961904Y-60802438D02*
X68009523Y-60850057D01*
X68009523Y-60850057D02*
X68057142Y-60945295D01*
X68057142Y-60945295D02*
X68057142Y-61088152D01*
X68057142Y-61088152D02*
X68009523Y-61183390D01*
X68009523Y-61183390D02*
X67961904Y-61231009D01*
X67961904Y-61231009D02*
X67866666Y-61278628D01*
X67866666Y-61278628D02*
X67485714Y-61278628D01*
X68438095Y-60850057D02*
X68485714Y-60802438D01*
X68485714Y-60802438D02*
X68580952Y-60754819D01*
X68580952Y-60754819D02*
X68819047Y-60754819D01*
X68819047Y-60754819D02*
X68914285Y-60802438D01*
X68914285Y-60802438D02*
X68961904Y-60850057D01*
X68961904Y-60850057D02*
X69009523Y-60945295D01*
X69009523Y-60945295D02*
X69009523Y-61040533D01*
X69009523Y-61040533D02*
X68961904Y-61183390D01*
X68961904Y-61183390D02*
X68390476Y-61754819D01*
X68390476Y-61754819D02*
X69009523Y-61754819D01*
X69866666Y-61088152D02*
X69866666Y-61754819D01*
X69628571Y-60707200D02*
X69390476Y-61421485D01*
X69390476Y-61421485D02*
X70009523Y-61421485D01*
X60033333Y-57559580D02*
X59985714Y-57607200D01*
X59985714Y-57607200D02*
X59842857Y-57654819D01*
X59842857Y-57654819D02*
X59747619Y-57654819D01*
X59747619Y-57654819D02*
X59604762Y-57607200D01*
X59604762Y-57607200D02*
X59509524Y-57511961D01*
X59509524Y-57511961D02*
X59461905Y-57416723D01*
X59461905Y-57416723D02*
X59414286Y-57226247D01*
X59414286Y-57226247D02*
X59414286Y-57083390D01*
X59414286Y-57083390D02*
X59461905Y-56892914D01*
X59461905Y-56892914D02*
X59509524Y-56797676D01*
X59509524Y-56797676D02*
X59604762Y-56702438D01*
X59604762Y-56702438D02*
X59747619Y-56654819D01*
X59747619Y-56654819D02*
X59842857Y-56654819D01*
X59842857Y-56654819D02*
X59985714Y-56702438D01*
X59985714Y-56702438D02*
X60033333Y-56750057D01*
X60509524Y-57654819D02*
X60700000Y-57654819D01*
X60700000Y-57654819D02*
X60795238Y-57607200D01*
X60795238Y-57607200D02*
X60842857Y-57559580D01*
X60842857Y-57559580D02*
X60938095Y-57416723D01*
X60938095Y-57416723D02*
X60985714Y-57226247D01*
X60985714Y-57226247D02*
X60985714Y-56845295D01*
X60985714Y-56845295D02*
X60938095Y-56750057D01*
X60938095Y-56750057D02*
X60890476Y-56702438D01*
X60890476Y-56702438D02*
X60795238Y-56654819D01*
X60795238Y-56654819D02*
X60604762Y-56654819D01*
X60604762Y-56654819D02*
X60509524Y-56702438D01*
X60509524Y-56702438D02*
X60461905Y-56750057D01*
X60461905Y-56750057D02*
X60414286Y-56845295D01*
X60414286Y-56845295D02*
X60414286Y-57083390D01*
X60414286Y-57083390D02*
X60461905Y-57178628D01*
X60461905Y-57178628D02*
X60509524Y-57226247D01*
X60509524Y-57226247D02*
X60604762Y-57273866D01*
X60604762Y-57273866D02*
X60795238Y-57273866D01*
X60795238Y-57273866D02*
X60890476Y-57226247D01*
X60890476Y-57226247D02*
X60938095Y-57178628D01*
X60938095Y-57178628D02*
X60985714Y-57083390D01*
X119604166Y-62454819D02*
X119604166Y-63169104D01*
X119604166Y-63169104D02*
X119556547Y-63311961D01*
X119556547Y-63311961D02*
X119461309Y-63407200D01*
X119461309Y-63407200D02*
X119318452Y-63454819D01*
X119318452Y-63454819D02*
X119223214Y-63454819D01*
X120032738Y-62550057D02*
X120080357Y-62502438D01*
X120080357Y-62502438D02*
X120175595Y-62454819D01*
X120175595Y-62454819D02*
X120413690Y-62454819D01*
X120413690Y-62454819D02*
X120508928Y-62502438D01*
X120508928Y-62502438D02*
X120556547Y-62550057D01*
X120556547Y-62550057D02*
X120604166Y-62645295D01*
X120604166Y-62645295D02*
X120604166Y-62740533D01*
X120604166Y-62740533D02*
X120556547Y-62883390D01*
X120556547Y-62883390D02*
X119985119Y-63454819D01*
X119985119Y-63454819D02*
X120604166Y-63454819D01*
X58657142Y-85554819D02*
X58323809Y-85078628D01*
X58085714Y-85554819D02*
X58085714Y-84554819D01*
X58085714Y-84554819D02*
X58466666Y-84554819D01*
X58466666Y-84554819D02*
X58561904Y-84602438D01*
X58561904Y-84602438D02*
X58609523Y-84650057D01*
X58609523Y-84650057D02*
X58657142Y-84745295D01*
X58657142Y-84745295D02*
X58657142Y-84888152D01*
X58657142Y-84888152D02*
X58609523Y-84983390D01*
X58609523Y-84983390D02*
X58561904Y-85031009D01*
X58561904Y-85031009D02*
X58466666Y-85078628D01*
X58466666Y-85078628D02*
X58085714Y-85078628D01*
X58990476Y-84554819D02*
X59609523Y-84554819D01*
X59609523Y-84554819D02*
X59276190Y-84935771D01*
X59276190Y-84935771D02*
X59419047Y-84935771D01*
X59419047Y-84935771D02*
X59514285Y-84983390D01*
X59514285Y-84983390D02*
X59561904Y-85031009D01*
X59561904Y-85031009D02*
X59609523Y-85126247D01*
X59609523Y-85126247D02*
X59609523Y-85364342D01*
X59609523Y-85364342D02*
X59561904Y-85459580D01*
X59561904Y-85459580D02*
X59514285Y-85507200D01*
X59514285Y-85507200D02*
X59419047Y-85554819D01*
X59419047Y-85554819D02*
X59133333Y-85554819D01*
X59133333Y-85554819D02*
X59038095Y-85507200D01*
X59038095Y-85507200D02*
X58990476Y-85459580D01*
X60514285Y-84554819D02*
X60038095Y-84554819D01*
X60038095Y-84554819D02*
X59990476Y-85031009D01*
X59990476Y-85031009D02*
X60038095Y-84983390D01*
X60038095Y-84983390D02*
X60133333Y-84935771D01*
X60133333Y-84935771D02*
X60371428Y-84935771D01*
X60371428Y-84935771D02*
X60466666Y-84983390D01*
X60466666Y-84983390D02*
X60514285Y-85031009D01*
X60514285Y-85031009D02*
X60561904Y-85126247D01*
X60561904Y-85126247D02*
X60561904Y-85364342D01*
X60561904Y-85364342D02*
X60514285Y-85459580D01*
X60514285Y-85459580D02*
X60466666Y-85507200D01*
X60466666Y-85507200D02*
X60371428Y-85554819D01*
X60371428Y-85554819D02*
X60133333Y-85554819D01*
X60133333Y-85554819D02*
X60038095Y-85507200D01*
X60038095Y-85507200D02*
X59990476Y-85459580D01*
X53779636Y-71698390D02*
X53684398Y-71650771D01*
X53684398Y-71650771D02*
X53636779Y-71603152D01*
X53636779Y-71603152D02*
X53589160Y-71507914D01*
X53589160Y-71507914D02*
X53589160Y-71460295D01*
X53589160Y-71460295D02*
X53636779Y-71365057D01*
X53636779Y-71365057D02*
X53684398Y-71317438D01*
X53684398Y-71317438D02*
X53779636Y-71269819D01*
X53779636Y-71269819D02*
X53970112Y-71269819D01*
X53970112Y-71269819D02*
X54065350Y-71317438D01*
X54065350Y-71317438D02*
X54112969Y-71365057D01*
X54112969Y-71365057D02*
X54160588Y-71460295D01*
X54160588Y-71460295D02*
X54160588Y-71507914D01*
X54160588Y-71507914D02*
X54112969Y-71603152D01*
X54112969Y-71603152D02*
X54065350Y-71650771D01*
X54065350Y-71650771D02*
X53970112Y-71698390D01*
X53970112Y-71698390D02*
X53779636Y-71698390D01*
X53779636Y-71698390D02*
X53684398Y-71746009D01*
X53684398Y-71746009D02*
X53636779Y-71793628D01*
X53636779Y-71793628D02*
X53589160Y-71888866D01*
X53589160Y-71888866D02*
X53589160Y-72079342D01*
X53589160Y-72079342D02*
X53636779Y-72174580D01*
X53636779Y-72174580D02*
X53684398Y-72222200D01*
X53684398Y-72222200D02*
X53779636Y-72269819D01*
X53779636Y-72269819D02*
X53970112Y-72269819D01*
X53970112Y-72269819D02*
X54065350Y-72222200D01*
X54065350Y-72222200D02*
X54112969Y-72174580D01*
X54112969Y-72174580D02*
X54160588Y-72079342D01*
X54160588Y-72079342D02*
X54160588Y-71888866D01*
X54160588Y-71888866D02*
X54112969Y-71793628D01*
X54112969Y-71793628D02*
X54065350Y-71746009D01*
X54065350Y-71746009D02*
X53970112Y-71698390D01*
X51660588Y-60469819D02*
X51089160Y-60469819D01*
X51374874Y-60469819D02*
X51374874Y-59469819D01*
X51374874Y-59469819D02*
X51279636Y-59612676D01*
X51279636Y-59612676D02*
X51184398Y-59707914D01*
X51184398Y-59707914D02*
X51089160Y-59755533D01*
X53709160Y-59725057D02*
X53756779Y-59677438D01*
X53756779Y-59677438D02*
X53852017Y-59629819D01*
X53852017Y-59629819D02*
X54090112Y-59629819D01*
X54090112Y-59629819D02*
X54185350Y-59677438D01*
X54185350Y-59677438D02*
X54232969Y-59725057D01*
X54232969Y-59725057D02*
X54280588Y-59820295D01*
X54280588Y-59820295D02*
X54280588Y-59915533D01*
X54280588Y-59915533D02*
X54232969Y-60058390D01*
X54232969Y-60058390D02*
X53661541Y-60629819D01*
X53661541Y-60629819D02*
X54280588Y-60629819D01*
X51041541Y-71269819D02*
X51708207Y-71269819D01*
X51708207Y-71269819D02*
X51279636Y-72269819D01*
X92604761Y-62050057D02*
X92509523Y-62002438D01*
X92509523Y-62002438D02*
X92414285Y-61907200D01*
X92414285Y-61907200D02*
X92271428Y-61764342D01*
X92271428Y-61764342D02*
X92176190Y-61716723D01*
X92176190Y-61716723D02*
X92080952Y-61716723D01*
X92128571Y-61954819D02*
X92033333Y-61907200D01*
X92033333Y-61907200D02*
X91938095Y-61811961D01*
X91938095Y-61811961D02*
X91890476Y-61621485D01*
X91890476Y-61621485D02*
X91890476Y-61288152D01*
X91890476Y-61288152D02*
X91938095Y-61097676D01*
X91938095Y-61097676D02*
X92033333Y-61002438D01*
X92033333Y-61002438D02*
X92128571Y-60954819D01*
X92128571Y-60954819D02*
X92319047Y-60954819D01*
X92319047Y-60954819D02*
X92414285Y-61002438D01*
X92414285Y-61002438D02*
X92509523Y-61097676D01*
X92509523Y-61097676D02*
X92557142Y-61288152D01*
X92557142Y-61288152D02*
X92557142Y-61621485D01*
X92557142Y-61621485D02*
X92509523Y-61811961D01*
X92509523Y-61811961D02*
X92414285Y-61907200D01*
X92414285Y-61907200D02*
X92319047Y-61954819D01*
X92319047Y-61954819D02*
X92128571Y-61954819D01*
X92938095Y-61050057D02*
X92985714Y-61002438D01*
X92985714Y-61002438D02*
X93080952Y-60954819D01*
X93080952Y-60954819D02*
X93319047Y-60954819D01*
X93319047Y-60954819D02*
X93414285Y-61002438D01*
X93414285Y-61002438D02*
X93461904Y-61050057D01*
X93461904Y-61050057D02*
X93509523Y-61145295D01*
X93509523Y-61145295D02*
X93509523Y-61240533D01*
X93509523Y-61240533D02*
X93461904Y-61383390D01*
X93461904Y-61383390D02*
X92890476Y-61954819D01*
X92890476Y-61954819D02*
X93509523Y-61954819D01*
X75538095Y-58054819D02*
X75538095Y-58864342D01*
X75538095Y-58864342D02*
X75585714Y-58959580D01*
X75585714Y-58959580D02*
X75633333Y-59007200D01*
X75633333Y-59007200D02*
X75728571Y-59054819D01*
X75728571Y-59054819D02*
X75919047Y-59054819D01*
X75919047Y-59054819D02*
X76014285Y-59007200D01*
X76014285Y-59007200D02*
X76061904Y-58959580D01*
X76061904Y-58959580D02*
X76109523Y-58864342D01*
X76109523Y-58864342D02*
X76109523Y-58054819D01*
X77061904Y-58054819D02*
X76585714Y-58054819D01*
X76585714Y-58054819D02*
X76538095Y-58531009D01*
X76538095Y-58531009D02*
X76585714Y-58483390D01*
X76585714Y-58483390D02*
X76680952Y-58435771D01*
X76680952Y-58435771D02*
X76919047Y-58435771D01*
X76919047Y-58435771D02*
X77014285Y-58483390D01*
X77014285Y-58483390D02*
X77061904Y-58531009D01*
X77061904Y-58531009D02*
X77109523Y-58626247D01*
X77109523Y-58626247D02*
X77109523Y-58864342D01*
X77109523Y-58864342D02*
X77061904Y-58959580D01*
X77061904Y-58959580D02*
X77014285Y-59007200D01*
X77014285Y-59007200D02*
X76919047Y-59054819D01*
X76919047Y-59054819D02*
X76680952Y-59054819D01*
X76680952Y-59054819D02*
X76585714Y-59007200D01*
X76585714Y-59007200D02*
X76538095Y-58959580D01*
X52204418Y-96432199D02*
X52347275Y-96479818D01*
X52347275Y-96479818D02*
X52585370Y-96479818D01*
X52585370Y-96479818D02*
X52680608Y-96432199D01*
X52680608Y-96432199D02*
X52728227Y-96384579D01*
X52728227Y-96384579D02*
X52775846Y-96289341D01*
X52775846Y-96289341D02*
X52775846Y-96194103D01*
X52775846Y-96194103D02*
X52728227Y-96098865D01*
X52728227Y-96098865D02*
X52680608Y-96051246D01*
X52680608Y-96051246D02*
X52585370Y-96003627D01*
X52585370Y-96003627D02*
X52394894Y-95956008D01*
X52394894Y-95956008D02*
X52299656Y-95908389D01*
X52299656Y-95908389D02*
X52252037Y-95860770D01*
X52252037Y-95860770D02*
X52204418Y-95765532D01*
X52204418Y-95765532D02*
X52204418Y-95670294D01*
X52204418Y-95670294D02*
X52252037Y-95575056D01*
X52252037Y-95575056D02*
X52299656Y-95527437D01*
X52299656Y-95527437D02*
X52394894Y-95479818D01*
X52394894Y-95479818D02*
X52632989Y-95479818D01*
X52632989Y-95479818D02*
X52775846Y-95527437D01*
X53109180Y-95479818D02*
X53347275Y-96479818D01*
X53347275Y-96479818D02*
X53537751Y-95765532D01*
X53537751Y-95765532D02*
X53728227Y-96479818D01*
X53728227Y-96479818D02*
X53966323Y-95479818D01*
X54871084Y-96479818D02*
X54299656Y-96479818D01*
X54585370Y-96479818D02*
X54585370Y-95479818D01*
X54585370Y-95479818D02*
X54490132Y-95622675D01*
X54490132Y-95622675D02*
X54394894Y-95717913D01*
X54394894Y-95717913D02*
X54299656Y-95765532D01*
X109033333Y-70354819D02*
X108700000Y-69878628D01*
X108461905Y-70354819D02*
X108461905Y-69354819D01*
X108461905Y-69354819D02*
X108842857Y-69354819D01*
X108842857Y-69354819D02*
X108938095Y-69402438D01*
X108938095Y-69402438D02*
X108985714Y-69450057D01*
X108985714Y-69450057D02*
X109033333Y-69545295D01*
X109033333Y-69545295D02*
X109033333Y-69688152D01*
X109033333Y-69688152D02*
X108985714Y-69783390D01*
X108985714Y-69783390D02*
X108938095Y-69831009D01*
X108938095Y-69831009D02*
X108842857Y-69878628D01*
X108842857Y-69878628D02*
X108461905Y-69878628D01*
X109985714Y-70354819D02*
X109414286Y-70354819D01*
X109700000Y-70354819D02*
X109700000Y-69354819D01*
X109700000Y-69354819D02*
X109604762Y-69497676D01*
X109604762Y-69497676D02*
X109509524Y-69592914D01*
X109509524Y-69592914D02*
X109414286Y-69640533D01*
X111807142Y-68054819D02*
X111473809Y-67578628D01*
X111235714Y-68054819D02*
X111235714Y-67054819D01*
X111235714Y-67054819D02*
X111616666Y-67054819D01*
X111616666Y-67054819D02*
X111711904Y-67102438D01*
X111711904Y-67102438D02*
X111759523Y-67150057D01*
X111759523Y-67150057D02*
X111807142Y-67245295D01*
X111807142Y-67245295D02*
X111807142Y-67388152D01*
X111807142Y-67388152D02*
X111759523Y-67483390D01*
X111759523Y-67483390D02*
X111711904Y-67531009D01*
X111711904Y-67531009D02*
X111616666Y-67578628D01*
X111616666Y-67578628D02*
X111235714Y-67578628D01*
X112188095Y-67150057D02*
X112235714Y-67102438D01*
X112235714Y-67102438D02*
X112330952Y-67054819D01*
X112330952Y-67054819D02*
X112569047Y-67054819D01*
X112569047Y-67054819D02*
X112664285Y-67102438D01*
X112664285Y-67102438D02*
X112711904Y-67150057D01*
X112711904Y-67150057D02*
X112759523Y-67245295D01*
X112759523Y-67245295D02*
X112759523Y-67340533D01*
X112759523Y-67340533D02*
X112711904Y-67483390D01*
X112711904Y-67483390D02*
X112140476Y-68054819D01*
X112140476Y-68054819D02*
X112759523Y-68054819D01*
X113378571Y-67054819D02*
X113473809Y-67054819D01*
X113473809Y-67054819D02*
X113569047Y-67102438D01*
X113569047Y-67102438D02*
X113616666Y-67150057D01*
X113616666Y-67150057D02*
X113664285Y-67245295D01*
X113664285Y-67245295D02*
X113711904Y-67435771D01*
X113711904Y-67435771D02*
X113711904Y-67673866D01*
X113711904Y-67673866D02*
X113664285Y-67864342D01*
X113664285Y-67864342D02*
X113616666Y-67959580D01*
X113616666Y-67959580D02*
X113569047Y-68007200D01*
X113569047Y-68007200D02*
X113473809Y-68054819D01*
X113473809Y-68054819D02*
X113378571Y-68054819D01*
X113378571Y-68054819D02*
X113283333Y-68007200D01*
X113283333Y-68007200D02*
X113235714Y-67959580D01*
X113235714Y-67959580D02*
X113188095Y-67864342D01*
X113188095Y-67864342D02*
X113140476Y-67673866D01*
X113140476Y-67673866D02*
X113140476Y-67435771D01*
X113140476Y-67435771D02*
X113188095Y-67245295D01*
X113188095Y-67245295D02*
X113235714Y-67150057D01*
X113235714Y-67150057D02*
X113283333Y-67102438D01*
X113283333Y-67102438D02*
X113378571Y-67054819D01*
D11*
%TO.C,C10*%
X94490000Y-100384419D02*
X94490000Y-100665581D01*
X95510000Y-100384419D02*
X95510000Y-100665581D01*
%TO.C,D2*%
X96240003Y-54902499D02*
X97240003Y-54902499D01*
X96240003Y-56422499D02*
X96240003Y-54902499D01*
X96290003Y-56422499D02*
X96240003Y-56422499D01*
X98190003Y-56422499D02*
X97410003Y-56422499D01*
X98360003Y-54902499D02*
X99360003Y-54902499D01*
X99360003Y-54902499D02*
X99360003Y-56422499D01*
X99360003Y-56422499D02*
X99310003Y-56422499D01*
X97750003Y-57202499D02*
X97420003Y-56962499D01*
X97750003Y-56722499D01*
X97750003Y-57202499D01*
G36*
X97750003Y-57202499D02*
G01*
X97420003Y-56962499D01*
X97750003Y-56722499D01*
X97750003Y-57202499D01*
G37*
%TO.C,R23*%
X78962258Y-64877500D02*
X78487742Y-64877500D01*
X78962258Y-65922500D02*
X78487742Y-65922500D01*
D12*
%TO.C,SW3*%
X57413650Y-94063339D02*
X57413650Y-94836657D01*
X57413650Y-96278798D02*
X62061850Y-96278798D01*
X62061850Y-92621198D02*
X57413650Y-92621198D01*
X62061850Y-94836657D02*
X62061850Y-94063339D01*
D13*
X56662750Y-93349998D02*
G75*
G02*
X56412750Y-93349998I-125000J0D01*
G01*
X56412750Y-93349998D02*
G75*
G02*
X56662750Y-93349998I125000J0D01*
G01*
D11*
%TO.C,R4*%
X107999759Y-93677500D02*
X107525243Y-93677500D01*
X107999759Y-94722500D02*
X107525243Y-94722500D01*
%TO.C,R2*%
X111097500Y-72229759D02*
X111097500Y-71755243D01*
X112142500Y-72229759D02*
X112142500Y-71755243D01*
%TO.C,D7*%
X66160000Y-86760000D02*
X62140000Y-86760000D01*
X62140000Y-84040000D01*
X62440000Y-83740000D01*
X66160000Y-83740000D01*
X66160000Y-86760000D01*
D12*
%TO.C,SW5*%
X104125901Y-89138340D02*
X104125901Y-89911658D01*
X104125901Y-91353799D02*
X108774101Y-91353799D01*
X108774101Y-87696199D02*
X104125901Y-87696199D01*
X108774101Y-89911658D02*
X108774101Y-89138340D01*
D13*
X103375001Y-88424999D02*
G75*
G02*
X103125001Y-88424999I-125000J0D01*
G01*
X103125001Y-88424999D02*
G75*
G02*
X103375001Y-88424999I125000J0D01*
G01*
D11*
%TO.C,C7*%
X95515581Y-53040000D02*
X95234419Y-53040000D01*
X95515581Y-54060000D02*
X95234419Y-54060000D01*
%TO.C,J4*%
X63460000Y-90120001D02*
X63460000Y-92879999D01*
X71190000Y-90120000D02*
X63460000Y-90120001D01*
X71190000Y-90120000D02*
X71190000Y-92880000D01*
X71190000Y-92880000D02*
X63460000Y-92879999D01*
X72460000Y-90120001D02*
X73840000Y-90120000D01*
X73840000Y-90120000D02*
X73839999Y-91500000D01*
%TO.C,R5*%
X107525243Y-91977500D02*
X107999759Y-91977500D01*
X107525243Y-93022500D02*
X107999759Y-93022500D01*
%TO.C,D4*%
X107990000Y-64290000D02*
X109510000Y-64290000D01*
X107990000Y-64340000D02*
X107990000Y-64290000D01*
X107990000Y-66240000D02*
X107990000Y-65460000D01*
X107990000Y-67410000D02*
X107990000Y-67360000D01*
X109510000Y-64290000D02*
X109510000Y-65290000D01*
X109510000Y-66410000D02*
X109510000Y-67410000D01*
X109510000Y-67410000D02*
X107990000Y-67410000D01*
X107690000Y-65800000D02*
X107210000Y-65800000D01*
X107450000Y-65470000D01*
X107690000Y-65800000D01*
G36*
X107690000Y-65800000D02*
G01*
X107210000Y-65800000D01*
X107450000Y-65470000D01*
X107690000Y-65800000D01*
G37*
%TO.C,C12*%
X98590000Y-100384419D02*
X98590000Y-100665581D01*
X99610000Y-100384419D02*
X99610000Y-100665581D01*
%TO.C,R27*%
X74737742Y-101827500D02*
X75212258Y-101827500D01*
X74737742Y-102872500D02*
X75212258Y-102872500D01*
%TO.C,U3*%
D14*
X101676844Y-51999498D02*
G75*
G02*
X101526844Y-51999498I-75000J0D01*
G01*
X101526844Y-51999498D02*
G75*
G02*
X101676844Y-51999498I75000J0D01*
G01*
D11*
%TO.C,R37*%
X66262742Y-87527500D02*
X66737258Y-87527500D01*
X66262742Y-88572500D02*
X66737258Y-88572500D01*
%TO.C,R13*%
X101115003Y-59712742D02*
X101115003Y-60187258D01*
X102160003Y-59712742D02*
X102160003Y-60187258D01*
%TO.C,C6*%
X78228080Y-51052500D02*
X77946920Y-51052500D01*
X78228080Y-52072500D02*
X77946920Y-52072500D01*
%TO.C,R19*%
X94227500Y-55787742D02*
X94227500Y-56262258D01*
X95272500Y-55787742D02*
X95272500Y-56262258D01*
%TO.C,R38*%
X66777500Y-84962742D02*
X66777500Y-85437258D01*
X67822500Y-84962742D02*
X67822500Y-85437258D01*
%TO.C,C13*%
X75165581Y-100190000D02*
X74884419Y-100190000D01*
X75165581Y-101210000D02*
X74884419Y-101210000D01*
%TO.C,Q1*%
X110090000Y-95640000D02*
X111610000Y-95640000D01*
X110090000Y-95690000D02*
X110090000Y-95640000D01*
X110090000Y-97590000D02*
X110090000Y-96810000D01*
X110090000Y-98760000D02*
X110090000Y-98710000D01*
X111610000Y-95640000D02*
X111610000Y-96640000D01*
X111610000Y-97760000D02*
X111610000Y-98760000D01*
X111610000Y-98760000D02*
X110090000Y-98760000D01*
X109790000Y-97150000D02*
X109310000Y-97150000D01*
X109550000Y-96820000D01*
X109790000Y-97150000D01*
G36*
X109790000Y-97150000D02*
G01*
X109310000Y-97150000D01*
X109550000Y-96820000D01*
X109790000Y-97150000D01*
G37*
D12*
%TO.C,SW2*%
X57213652Y-103213339D02*
X57213652Y-103986657D01*
X57213652Y-105428798D02*
X61861852Y-105428798D01*
X61861852Y-101771198D02*
X57213652Y-101771198D01*
X61861852Y-103986657D02*
X61861852Y-103213339D01*
D13*
X56462752Y-102499998D02*
G75*
G02*
X56212752Y-102499998I-125000J0D01*
G01*
X56212752Y-102499998D02*
G75*
G02*
X56462752Y-102499998I125000J0D01*
G01*
D11*
%TO.C,C1*%
X107527503Y-60796917D02*
X107527503Y-61078079D01*
X108547503Y-60796917D02*
X108547503Y-61078079D01*
%TO.C,U2*%
X103277503Y-58390000D02*
X103752503Y-58390000D01*
X103277503Y-58865000D02*
X103277503Y-58390000D01*
X103277503Y-61135000D02*
X103277503Y-61310000D01*
X103752503Y-61610000D02*
X103517503Y-61610000D01*
X106497503Y-58390000D02*
X106022503Y-58390000D01*
X106497503Y-58865000D02*
X106497503Y-58390000D01*
X106497503Y-61135000D02*
X106497503Y-61610000D01*
X106497503Y-61610000D02*
X106022503Y-61610000D01*
X103277503Y-61610000D02*
X102947503Y-61850000D01*
X102947503Y-61370000D01*
X103277503Y-61610000D01*
G36*
X103277503Y-61610000D02*
G01*
X102947503Y-61850000D01*
X102947503Y-61370000D01*
X103277503Y-61610000D01*
G37*
%TO.C,C8*%
X66790000Y-55815581D02*
X66790000Y-55534419D01*
X67810000Y-55815581D02*
X67810000Y-55534419D01*
%TO.C,R34*%
X56287742Y-87402500D02*
X56762258Y-87402500D01*
X56287742Y-88447500D02*
X56762258Y-88447500D01*
%TO.C,R12*%
X101712742Y-62777500D02*
X102187258Y-62777500D01*
X101712742Y-63822500D02*
X102187258Y-63822500D01*
%TO.C,R33*%
X52962742Y-87402500D02*
X53437258Y-87402500D01*
X52962742Y-88447500D02*
X53437258Y-88447500D01*
D12*
%TO.C,SW8*%
X71063150Y-97413341D02*
X71063150Y-98186659D01*
X71063150Y-99628800D02*
X75711350Y-99628800D01*
X75711350Y-95971200D02*
X71063150Y-95971200D01*
X75711350Y-98186659D02*
X75711350Y-97413341D01*
D13*
X70312250Y-96700000D02*
G75*
G02*
X70062250Y-96700000I-125000J0D01*
G01*
X70062250Y-96700000D02*
G75*
G02*
X70312250Y-96700000I125000J0D01*
G01*
%TO.C,J3*%
D15*
X65950000Y-40325000D02*
X57950000Y-40325000D01*
X57950000Y-55325000D01*
X65950000Y-55325000D01*
X65950000Y-40325000D01*
D16*
X62050000Y-54725000D02*
G75*
G02*
X61850000Y-54725000I-100000J0D01*
G01*
X61850000Y-54725000D02*
G75*
G02*
X62050000Y-54725000I100000J0D01*
G01*
D11*
%TO.C,R21*%
X113377500Y-59987258D02*
X113377500Y-59512742D01*
X114422500Y-59987258D02*
X114422500Y-59512742D01*
%TO.C,C14*%
X83365581Y-81990000D02*
X83084419Y-81990000D01*
X83365581Y-83010000D02*
X83084419Y-83010000D01*
%TO.C,R28*%
X85477500Y-85237258D02*
X85477500Y-84762742D01*
X86522500Y-85237258D02*
X86522500Y-84762742D01*
%TO.C,C11*%
X96590000Y-100384419D02*
X96590000Y-100665581D01*
X97610000Y-100384419D02*
X97610000Y-100665581D01*
%TO.C,R14*%
X109512258Y-74027500D02*
X109037742Y-74027500D01*
X109512258Y-75072500D02*
X109037742Y-75072500D01*
D17*
%TO.C,BZ1*%
X112627501Y-92250000D02*
X112627501Y-92850000D01*
X112927501Y-92550000D02*
X112327501Y-92550000D01*
X112927501Y-98700000D02*
X112327501Y-98700000D01*
X113987501Y-97480001D02*
X113987501Y-93769999D01*
X115882500Y-91875000D02*
X119592502Y-91875000D01*
X115882500Y-99375000D02*
X119592502Y-99375000D01*
X121487501Y-97480001D02*
X121487501Y-93769999D01*
D11*
%TO.C,U4*%
X111252500Y-61440000D02*
X113072500Y-61440000D01*
X111252500Y-61490000D02*
X111252500Y-61440000D01*
X111252500Y-64560000D02*
X111252500Y-64510000D01*
X113072500Y-61440000D02*
X113072500Y-61490000D01*
X113072500Y-64510000D02*
X113072500Y-64560000D01*
X113072500Y-64560000D02*
X111252500Y-64560000D01*
X113852500Y-64840000D02*
X113372500Y-64840000D01*
X113612500Y-64510000D01*
X113852500Y-64840000D01*
G36*
X113852500Y-64840000D02*
G01*
X113372500Y-64840000D01*
X113612500Y-64510000D01*
X113852500Y-64840000D01*
G37*
%TO.C,C3*%
X104015581Y-54590000D02*
X103734419Y-54590000D01*
X104015581Y-55610000D02*
X103734419Y-55610000D01*
%TO.C,R3*%
X109462258Y-70727500D02*
X108987742Y-70727500D01*
X109462258Y-71772500D02*
X108987742Y-71772500D01*
%TO.C,C2*%
X104290000Y-63934419D02*
X104290000Y-64215581D01*
X105310000Y-63934419D02*
X105310000Y-64215581D01*
%TO.C,R16*%
X98127500Y-59912258D02*
X98127500Y-59437742D01*
X99172500Y-59912258D02*
X99172500Y-59437742D01*
%TO.C,D6*%
X56160000Y-86609999D02*
X52140000Y-86609999D01*
X52140000Y-83889999D01*
X52440000Y-83589999D01*
X56160000Y-83589999D01*
X56160000Y-86609999D01*
%TO.C,C4*%
X104065580Y-56390001D02*
X103784418Y-56390001D01*
X104065580Y-57410001D02*
X103784418Y-57410001D01*
%TO.C,C5*%
X102490000Y-52015581D02*
X102490000Y-51734419D01*
X103510000Y-52015581D02*
X103510000Y-51734419D01*
%TO.C,R36*%
X62912742Y-87527500D02*
X63387258Y-87527500D01*
X62912742Y-88572500D02*
X63387258Y-88572500D01*
%TO.C,D5*%
X109727501Y-92002500D02*
X110727501Y-92002500D01*
X109727501Y-93522500D02*
X109727501Y-92002500D01*
X109777501Y-93522500D02*
X109727501Y-93522500D01*
X111677501Y-93522500D02*
X110897501Y-93522500D01*
X111847501Y-92002500D02*
X112847501Y-92002500D01*
X112847501Y-92002500D02*
X112847501Y-93522500D01*
X112847501Y-93522500D02*
X112797501Y-93522500D01*
X111237501Y-94302500D02*
X110907501Y-94062500D01*
X111237501Y-93822500D01*
X111237501Y-94302500D01*
G36*
X111237501Y-94302500D02*
G01*
X110907501Y-94062500D01*
X111237501Y-93822500D01*
X111237501Y-94302500D01*
G37*
%TO.C,R25*%
X64437742Y-55877500D02*
X64912258Y-55877500D01*
X64437742Y-56922500D02*
X64912258Y-56922500D01*
%TO.C,U1*%
X77700000Y-87650000D02*
X93300000Y-87650000D01*
X77700000Y-108350000D02*
X77700000Y-87650000D01*
X93300000Y-87650000D02*
X93300000Y-108350000D01*
X93300000Y-108350000D02*
X77700000Y-108350000D01*
X93575000Y-108600000D02*
X91125000Y-108600000D01*
X93575000Y-108600000D02*
X93575000Y-106150000D01*
X93811000Y-101640000D02*
X93475000Y-101400000D01*
X93811000Y-101160000D01*
X93811000Y-101640000D01*
G36*
X93811000Y-101640000D02*
G01*
X93475000Y-101400000D01*
X93811000Y-101160000D01*
X93811000Y-101640000D01*
G37*
D12*
%TO.C,SW4*%
X63850900Y-98888342D02*
X63850900Y-99661660D01*
X63850900Y-101103801D02*
X68499100Y-101103801D01*
X68499100Y-97446201D02*
X63850900Y-97446201D01*
X68499100Y-99661660D02*
X68499100Y-98888342D01*
D13*
X63100000Y-98175001D02*
G75*
G02*
X62850000Y-98175001I-125000J0D01*
G01*
X62850000Y-98175001D02*
G75*
G02*
X63100000Y-98175001I125000J0D01*
G01*
D11*
%TO.C,R29*%
X83477500Y-85237258D02*
X83477500Y-84762742D01*
X84522500Y-85237258D02*
X84522500Y-84762742D01*
%TO.C,C15*%
X86634419Y-81990000D02*
X86915581Y-81990000D01*
X86634419Y-83010000D02*
X86915581Y-83010000D01*
%TO.C,R17*%
X100127249Y-55749760D02*
X100127249Y-55275244D01*
X101172249Y-55749760D02*
X101172249Y-55275244D01*
D12*
%TO.C,SW7*%
X100925900Y-99588340D02*
X100925900Y-100361658D01*
X100925900Y-101803799D02*
X105574100Y-101803799D01*
X105574100Y-98146199D02*
X100925900Y-98146199D01*
X105574100Y-100361658D02*
X105574100Y-99588340D01*
D13*
X106575000Y-101074999D02*
G75*
G02*
X106325000Y-101074999I-125000J0D01*
G01*
X106325000Y-101074999D02*
G75*
G02*
X106575000Y-101074999I125000J0D01*
G01*
D11*
%TO.C,R18*%
X95812258Y-58077501D02*
X95337742Y-58077501D01*
X95812258Y-59122501D02*
X95337742Y-59122501D01*
%TO.C,R24*%
X68727500Y-59312258D02*
X68727500Y-58837742D01*
X69772500Y-59312258D02*
X69772500Y-58837742D01*
%TO.C,C9*%
X61490000Y-57084419D02*
X61490000Y-57365581D01*
X62510000Y-57084419D02*
X62510000Y-57365581D01*
D17*
%TO.C,J2*%
X117637500Y-58530000D02*
X118937500Y-58530000D01*
X117637500Y-67470000D02*
X118937500Y-67470000D01*
X122537500Y-58530000D02*
X121937500Y-58530000D01*
X122537500Y-67470000D02*
X121937500Y-67470000D01*
D13*
X114862500Y-66200000D02*
G75*
G02*
X114612500Y-66200000I-125000J0D01*
G01*
X114612500Y-66200000D02*
G75*
G02*
X114862500Y-66200000I125000J0D01*
G01*
D11*
%TO.C,R35*%
X56777500Y-84887742D02*
X56777500Y-85362258D01*
X57822500Y-84887742D02*
X57822500Y-85362258D01*
D10*
%TO.C,U6*%
X49400000Y-53800001D02*
G75*
G02*
X52200000Y-51000000I2800000J1D01*
G01*
X52200000Y-81000000D02*
G75*
G02*
X49400000Y-78200000I0J2800000D01*
G01*
X118600000Y-51000000D02*
G75*
G02*
X121400000Y-53800000I0J-2800000D01*
G01*
X121399999Y-78200000D02*
G75*
G02*
X118599999Y-80999999I-2799999J0D01*
G01*
D11*
%TO.C,Q2*%
X93940000Y-60802500D02*
X93990000Y-60802500D01*
X93940000Y-62322500D02*
X93940000Y-60802500D01*
X94940000Y-62322500D02*
X93940000Y-62322500D01*
X95110000Y-60802500D02*
X95890000Y-60802500D01*
X97010000Y-60802500D02*
X97060000Y-60802500D01*
X97060000Y-60802500D02*
X97060000Y-62322500D01*
X97060000Y-62322500D02*
X96060000Y-62322500D01*
X95880000Y-60262500D02*
X95550000Y-60502500D01*
X95550000Y-60022500D01*
X95880000Y-60262500D01*
G36*
X95880000Y-60262500D02*
G01*
X95550000Y-60502500D01*
X95550000Y-60022500D01*
X95880000Y-60262500D01*
G37*
D12*
%TO.C,SW1*%
X51213651Y-98638340D02*
X51213651Y-99411658D01*
X51213651Y-100853799D02*
X55861851Y-100853799D01*
X55861851Y-97196199D02*
X51213651Y-97196199D01*
X55861851Y-99411658D02*
X55861851Y-98638340D01*
D13*
X50462751Y-97924999D02*
G75*
G02*
X50212751Y-97924999I-125000J0D01*
G01*
X50212751Y-97924999D02*
G75*
G02*
X50462751Y-97924999I125000J0D01*
G01*
D11*
%TO.C,R1*%
X108987742Y-72327500D02*
X109462258Y-72327500D01*
X108987742Y-73372500D02*
X109462258Y-73372500D01*
%TO.C,R20*%
X112674758Y-65477500D02*
X112200242Y-65477500D01*
X112674758Y-66522500D02*
X112200242Y-66522500D01*
%TD*%
M02*
