%TF.GenerationSoftware,KiCad,Pcbnew,9.0.1*%
%TF.CreationDate,2026-04-09T20:04:05-04:00*%
%TF.ProjectId,CUR_ground_station_25-26,4355525f-6772-46f7-956e-645f73746174,rev?*%
%TF.SameCoordinates,Original*%
%TF.FileFunction,Legend,Bot*%
%TF.FilePolarity,Positive*%
%FSLAX46Y46*%
G04 Gerber Fmt 4.6, Leading zero omitted, Abs format (unit mm)*
G04 Created by KiCad (PCBNEW 9.0.1) date 2026-04-09 20:04:05*
%MOMM*%
%LPD*%
G01*
G04 APERTURE LIST*
%ADD10C,0.200000*%
%ADD11C,0.150000*%
%ADD12C,0.120000*%
%ADD13C,0.000000*%
G04 APERTURE END LIST*
D10*
G36*
X113014802Y-53204428D02*
G01*
X113042158Y-53374665D01*
X113068047Y-53587401D01*
X113096868Y-53587401D01*
X113132283Y-53587401D01*
X113358514Y-53578449D01*
X113559644Y-53552898D01*
X113738372Y-53512418D01*
X113910529Y-53452075D01*
X114060185Y-53375964D01*
X114189977Y-53284540D01*
X114280118Y-53200909D01*
X114354444Y-53109493D01*
X114414070Y-53009644D01*
X114457301Y-52901921D01*
X114484045Y-52781886D01*
X114493326Y-52647310D01*
X114484266Y-52521821D01*
X114457902Y-52407598D01*
X114414802Y-52302806D01*
X114355881Y-52205434D01*
X114282650Y-52115786D01*
X114194007Y-52033284D01*
X114065808Y-51941094D01*
X113914762Y-51862878D01*
X113737639Y-51799299D01*
X113553854Y-51755372D01*
X113360194Y-51728555D01*
X113155486Y-51719432D01*
X113122025Y-51719432D01*
X113089907Y-51719432D01*
X113071467Y-51882952D01*
X113040692Y-52102404D01*
X113071467Y-52102404D01*
X113103585Y-52102404D01*
X113225255Y-52108124D01*
X113383853Y-52127561D01*
X113541491Y-52160520D01*
X113669495Y-52204498D01*
X113775185Y-52258370D01*
X113861102Y-52319849D01*
X113929858Y-52388779D01*
X113982880Y-52468682D01*
X114014243Y-52554785D01*
X114024869Y-52649386D01*
X114014685Y-52745071D01*
X113984807Y-52831386D01*
X113934743Y-52910604D01*
X113868781Y-52978733D01*
X113783327Y-53040485D01*
X113674991Y-53095618D01*
X113542538Y-53144791D01*
X113381777Y-53179637D01*
X113220126Y-53199369D01*
X113096868Y-53205161D01*
X113057911Y-53205161D01*
X113014802Y-53204428D01*
G37*
G36*
X112328114Y-53563954D02*
G01*
X112747601Y-53563954D01*
X112745525Y-53161319D01*
X112743326Y-52525311D01*
X112744059Y-52089948D01*
X112747601Y-51563116D01*
X112328114Y-51563116D01*
X112331045Y-52040855D01*
X112332510Y-52508947D01*
X112330312Y-53134086D01*
X112328114Y-53563954D01*
G37*
G36*
X111757440Y-52152230D02*
G01*
X111844879Y-52157115D01*
X111880783Y-52469746D01*
X111753777Y-52464616D01*
X111611627Y-52461930D01*
X111453968Y-52469501D01*
X111332946Y-52494658D01*
X111258721Y-52527882D01*
X111214855Y-52567809D01*
X111188300Y-52619720D01*
X111175898Y-52688587D01*
X111463005Y-52721071D01*
X111614649Y-52749816D01*
X111729474Y-52784575D01*
X111833371Y-52830965D01*
X111910781Y-52881619D01*
X111966634Y-52936005D01*
X112008429Y-53000740D01*
X112033726Y-53073813D01*
X112042472Y-53157533D01*
X112034396Y-53234331D01*
X112010819Y-53302860D01*
X111971519Y-53365018D01*
X111889096Y-53443270D01*
X111774781Y-53507656D01*
X111669610Y-53542483D01*
X111529684Y-53568472D01*
X111386453Y-53582981D01*
X111268100Y-53587401D01*
X110937517Y-53577143D01*
X110759952Y-53563954D01*
X110759220Y-53353660D01*
X110758712Y-52995845D01*
X111154527Y-52995845D01*
X111154527Y-53095374D01*
X111154893Y-53254498D01*
X111155259Y-53335953D01*
X111204597Y-53336686D01*
X111245629Y-53337296D01*
X111372880Y-53329358D01*
X111478149Y-53305178D01*
X111537423Y-53275525D01*
X111582929Y-53237034D01*
X111612555Y-53186990D01*
X111623229Y-53118088D01*
X111611676Y-53056377D01*
X111577433Y-53005859D01*
X111528855Y-52966025D01*
X111477049Y-52938936D01*
X111394297Y-52910941D01*
X111296676Y-52891553D01*
X111155870Y-52876166D01*
X111154527Y-52995845D01*
X110758712Y-52995845D01*
X110758487Y-52837453D01*
X110770891Y-52652404D01*
X110802939Y-52522868D01*
X110838428Y-52447065D01*
X110885343Y-52379759D01*
X110944356Y-52320025D01*
X111018276Y-52265780D01*
X111104001Y-52222028D01*
X111203253Y-52188988D01*
X111366805Y-52160230D01*
X111587936Y-52149299D01*
X111757440Y-52152230D01*
G37*
G36*
X109354701Y-52477561D02*
G01*
X109605783Y-52567687D01*
X109967506Y-52727666D01*
X109968361Y-52850887D01*
X109969094Y-53032115D01*
X109966896Y-53352928D01*
X109964576Y-53563954D01*
X110384063Y-53563954D01*
X110381987Y-53359522D01*
X110379788Y-52922205D01*
X110381254Y-52592478D01*
X110384063Y-52172746D01*
X109973490Y-52172746D01*
X109975200Y-52375956D01*
X109972513Y-52377910D01*
X109839045Y-52298330D01*
X109693588Y-52222938D01*
X109551859Y-52158916D01*
X109461191Y-52125852D01*
X109354701Y-52477561D01*
G37*
G36*
X108780486Y-53563954D02*
G01*
X109199973Y-53563954D01*
X109197897Y-53219327D01*
X109195699Y-52503451D01*
X109197165Y-52080422D01*
X109199973Y-51563116D01*
X108780486Y-51563116D01*
X108783661Y-52092024D01*
X108784761Y-52519815D01*
X108782684Y-53123095D01*
X108780486Y-53563954D01*
G37*
G36*
X107780434Y-53541483D02*
G01*
X108121519Y-53689006D01*
X108376147Y-53362783D01*
X108561645Y-53138971D01*
X108720060Y-52950063D01*
X108781707Y-52867617D01*
X108781707Y-52864930D01*
X108559446Y-52578556D01*
X108382361Y-52348359D01*
X108230451Y-52133667D01*
X107857737Y-52275817D01*
X108123473Y-52623008D01*
X108288093Y-52833545D01*
X108288093Y-52834889D01*
X108137273Y-53042007D01*
X107780434Y-53541483D01*
G37*
G36*
X106624310Y-53148985D02*
G01*
X106631444Y-53221814D01*
X106652181Y-53286580D01*
X106686470Y-53344990D01*
X106756470Y-53420270D01*
X106844129Y-53480545D01*
X106951156Y-53526769D01*
X107089837Y-53561389D01*
X107236520Y-53580894D01*
X107384638Y-53587401D01*
X107564157Y-53579829D01*
X107672723Y-53571769D01*
X107705451Y-53274770D01*
X107601648Y-53283929D01*
X107443012Y-53290402D01*
X107340553Y-53285517D01*
X107232475Y-53265244D01*
X107165737Y-53239225D01*
X107133435Y-53212854D01*
X107115569Y-53179015D01*
X107109499Y-53139459D01*
X107116259Y-53104092D01*
X107136366Y-53075101D01*
X107220996Y-53017460D01*
X107341041Y-52957254D01*
X107473176Y-52888744D01*
X107557481Y-52824237D01*
X107613982Y-52752457D01*
X107648281Y-52669851D01*
X107659900Y-52577701D01*
X107645160Y-52478362D01*
X107601160Y-52389390D01*
X107529962Y-52313883D01*
X107422008Y-52246141D01*
X107317919Y-52206340D01*
X107190221Y-52179097D01*
X107058562Y-52163758D01*
X106939262Y-52157115D01*
X106775252Y-52156626D01*
X106687691Y-52157115D01*
X106652154Y-52461930D01*
X106729457Y-52458022D01*
X106870996Y-52454114D01*
X106981882Y-52461808D01*
X107074816Y-52483179D01*
X107122006Y-52504978D01*
X107152119Y-52529707D01*
X107171297Y-52559891D01*
X107177398Y-52591378D01*
X107169518Y-52627966D01*
X107145158Y-52659889D01*
X107060894Y-52714721D01*
X106934499Y-52777736D01*
X106814942Y-52839407D01*
X106730512Y-52903014D01*
X106672670Y-52971665D01*
X106636842Y-53051701D01*
X106624310Y-53148985D01*
G37*
G36*
X105856501Y-52146527D02*
G01*
X105994774Y-52184226D01*
X106121253Y-52246920D01*
X106230469Y-52333214D01*
X106328701Y-52448464D01*
X106395821Y-52573060D01*
X106435338Y-52710031D01*
X106449066Y-52866274D01*
X106442069Y-52974331D01*
X106421340Y-53077449D01*
X106386906Y-53176584D01*
X106339245Y-53269864D01*
X106280404Y-53352445D01*
X106209952Y-53425346D01*
X106103064Y-53502834D01*
X105980486Y-53558580D01*
X105847623Y-53591746D01*
X105704370Y-53603032D01*
X105558088Y-53591617D01*
X105427154Y-53558580D01*
X105306842Y-53502696D01*
X105200252Y-53424002D01*
X105127158Y-53347511D01*
X105067785Y-53263705D01*
X105021345Y-53171822D01*
X104976242Y-53024284D01*
X104961662Y-52874456D01*
X105377939Y-52874456D01*
X105385483Y-52968115D01*
X105407981Y-53058004D01*
X105445213Y-53140363D01*
X105494077Y-53206138D01*
X105537323Y-53241992D01*
X105588965Y-53268664D01*
X105645401Y-53284953D01*
X105704370Y-53290402D01*
X105760670Y-53285775D01*
X105813668Y-53272083D01*
X105862293Y-53248688D01*
X105903916Y-53215663D01*
X105963585Y-53144335D01*
X106002957Y-53061424D01*
X106024716Y-52969530D01*
X106032266Y-52866274D01*
X106025028Y-52775819D01*
X106002957Y-52684191D01*
X105966144Y-52600047D01*
X105918937Y-52537401D01*
X105870222Y-52494438D01*
X105822583Y-52467425D01*
X105769877Y-52451900D01*
X105704370Y-52446298D01*
X105648047Y-52451254D01*
X105593850Y-52466082D01*
X105543967Y-52490513D01*
X105502259Y-52523723D01*
X105446233Y-52594687D01*
X105407370Y-52682847D01*
X105385241Y-52778681D01*
X105377939Y-52874456D01*
X104961662Y-52874456D01*
X104961139Y-52869083D01*
X104975563Y-52708803D01*
X105017192Y-52567687D01*
X105060441Y-52480839D01*
X105116593Y-52399701D01*
X105186575Y-52323688D01*
X105297314Y-52239006D01*
X105420193Y-52180196D01*
X105554359Y-52145653D01*
X105705835Y-52133667D01*
X105856501Y-52146527D01*
G37*
G36*
X103318606Y-53563954D02*
G01*
X103737971Y-53563954D01*
X103735894Y-53355370D01*
X103733696Y-53092076D01*
X103734429Y-52898514D01*
X103736505Y-52709104D01*
X103750355Y-52593452D01*
X103779492Y-52526532D01*
X103810729Y-52496549D01*
X103856434Y-52477091D01*
X103922008Y-52469746D01*
X103992175Y-52478129D01*
X104082231Y-52506870D01*
X104172051Y-52547508D01*
X104256132Y-52594798D01*
X104257231Y-52746839D01*
X104258330Y-52988395D01*
X104255765Y-53339983D01*
X104253201Y-53563954D01*
X104672688Y-53563954D01*
X104670612Y-53373200D01*
X104668414Y-52908528D01*
X104669879Y-52550956D01*
X104672688Y-52172746D01*
X104261261Y-52172746D01*
X104262604Y-52305614D01*
X104261261Y-52308423D01*
X104128025Y-52239729D01*
X103986610Y-52183493D01*
X103844768Y-52145079D01*
X103731010Y-52133667D01*
X103610465Y-52147523D01*
X103512300Y-52186685D01*
X103431446Y-52250538D01*
X103371134Y-52334536D01*
X103333589Y-52437693D01*
X103320193Y-52565367D01*
X103321903Y-52840628D01*
X103323613Y-53025764D01*
X103321170Y-53337907D01*
X103318606Y-53563954D01*
G37*
G36*
X100568431Y-51735063D02*
G01*
X100570629Y-52139773D01*
X100572705Y-52411372D01*
X100572095Y-52681016D01*
X100571362Y-52875067D01*
X100578983Y-52999115D01*
X100600600Y-53106451D01*
X100634865Y-53199543D01*
X100682946Y-53286305D01*
X100740443Y-53361144D01*
X100807667Y-53425224D01*
X100938008Y-53512376D01*
X101077555Y-53572014D01*
X101229899Y-53606271D01*
X101416931Y-53618664D01*
X101560541Y-53612090D01*
X101680281Y-53593844D01*
X101779631Y-53565785D01*
X101917968Y-53502318D01*
X102033033Y-53421071D01*
X102102669Y-53353315D01*
X102159798Y-53277038D01*
X102205102Y-53191361D01*
X102236689Y-53099409D01*
X102256743Y-52992537D01*
X102263843Y-52868228D01*
X102263232Y-52674177D01*
X102262500Y-52404533D01*
X102264331Y-52130859D01*
X102266163Y-51735063D01*
X101814802Y-51735063D01*
X101817245Y-52024491D01*
X101818466Y-52414913D01*
X101817855Y-52624473D01*
X101817123Y-52839407D01*
X101803629Y-52967832D01*
X101766655Y-53066057D01*
X101708435Y-53141169D01*
X101630352Y-53196654D01*
X101534690Y-53231192D01*
X101416564Y-53243507D01*
X101290046Y-53231040D01*
X101193249Y-53196998D01*
X101119321Y-53143856D01*
X101065396Y-53070897D01*
X101030433Y-52972145D01*
X101017472Y-52839407D01*
X101016861Y-52618978D01*
X101016128Y-52414913D01*
X101017960Y-52021071D01*
X101019792Y-51735063D01*
X100568431Y-51735063D01*
G37*
G36*
X98783504Y-53563954D02*
G01*
X99202869Y-53563954D01*
X99200793Y-53355370D01*
X99198595Y-53092076D01*
X99199328Y-52898514D01*
X99201404Y-52709104D01*
X99215254Y-52593452D01*
X99244391Y-52526532D01*
X99275628Y-52496549D01*
X99321333Y-52477091D01*
X99386906Y-52469746D01*
X99457074Y-52478129D01*
X99547130Y-52506870D01*
X99636949Y-52547508D01*
X99721031Y-52594798D01*
X99722130Y-52746839D01*
X99723229Y-52988395D01*
X99720664Y-53339983D01*
X99718100Y-53563954D01*
X100137587Y-53563954D01*
X100135511Y-53373200D01*
X100133312Y-52908528D01*
X100134778Y-52550956D01*
X100137587Y-52172746D01*
X99726160Y-52172746D01*
X99727503Y-52305614D01*
X99726160Y-52308423D01*
X99592924Y-52239729D01*
X99451509Y-52183493D01*
X99309667Y-52145079D01*
X99195908Y-52133667D01*
X99075364Y-52147523D01*
X98977199Y-52186685D01*
X98896345Y-52250538D01*
X98836033Y-52334536D01*
X98798487Y-52437693D01*
X98785092Y-52565367D01*
X98786802Y-52840628D01*
X98788511Y-53025764D01*
X98786069Y-53337907D01*
X98783504Y-53563954D01*
G37*
G36*
X97965535Y-51953905D02*
G01*
X98398944Y-51953905D01*
X98398944Y-51633458D01*
X97965535Y-51633458D01*
X97965535Y-51953905D01*
G37*
G36*
X97972496Y-53563954D02*
G01*
X98391983Y-53563954D01*
X98389907Y-53286005D01*
X98387709Y-52888134D01*
X98388442Y-52559749D01*
X98391983Y-52172746D01*
X97972496Y-52172746D01*
X97975671Y-52520914D01*
X97977625Y-52869083D01*
X97975061Y-53341204D01*
X97972496Y-53563954D01*
G37*
G36*
X96229579Y-52254812D02*
G01*
X96585075Y-53077300D01*
X96790361Y-53563954D01*
X97184446Y-53563954D01*
X97387779Y-53084627D01*
X97746571Y-52262628D01*
X97329405Y-52141483D01*
X96978183Y-53063378D01*
X96970734Y-53063378D01*
X96629771Y-52141483D01*
X96229579Y-52254812D01*
G37*
G36*
X95548120Y-52146227D02*
G01*
X95685162Y-52184348D01*
X95810851Y-52246797D01*
X95912063Y-52329428D01*
X96009124Y-52448392D01*
X96072042Y-52567809D01*
X96108424Y-52697909D01*
X96121257Y-52851131D01*
X96113610Y-52956327D01*
X96091211Y-53053565D01*
X96054335Y-53144222D01*
X95976217Y-53267018D01*
X95877991Y-53367338D01*
X95787351Y-53431332D01*
X95682970Y-53484637D01*
X95563040Y-53526951D01*
X95438481Y-53555354D01*
X95298074Y-53573295D01*
X95139890Y-53579585D01*
X94984795Y-53576776D01*
X94888442Y-53571769D01*
X94846676Y-53259138D01*
X94940832Y-53263901D01*
X95092262Y-53266954D01*
X95200510Y-53262871D01*
X95294984Y-53251323D01*
X95385134Y-53230329D01*
X95470350Y-53198933D01*
X95545251Y-53156389D01*
X95603336Y-53108170D01*
X95647060Y-53054219D01*
X95690957Y-52961103D01*
X95706411Y-52860534D01*
X94758138Y-52860534D01*
X94770113Y-52680771D01*
X95151003Y-52680771D01*
X95726561Y-52680771D01*
X95703922Y-52594856D01*
X95670027Y-52525336D01*
X95625444Y-52469379D01*
X95569298Y-52426485D01*
X95504089Y-52400595D01*
X95427119Y-52391588D01*
X95348623Y-52400896D01*
X95285355Y-52427145D01*
X95233801Y-52469990D01*
X95194508Y-52525969D01*
X95166615Y-52595213D01*
X95151003Y-52680771D01*
X94770113Y-52680771D01*
X94770222Y-52679135D01*
X94803323Y-52534348D01*
X94839680Y-52446284D01*
X94887402Y-52368262D01*
X94946816Y-52299142D01*
X95037846Y-52227092D01*
X95146484Y-52175067D01*
X95267507Y-52144493D01*
X95410266Y-52133667D01*
X95548120Y-52146227D01*
G37*
G36*
X93453515Y-52477561D02*
G01*
X93704597Y-52567687D01*
X94066320Y-52727666D01*
X94067175Y-52850887D01*
X94067908Y-53032115D01*
X94065710Y-53352928D01*
X94063389Y-53563954D01*
X94482876Y-53563954D01*
X94480800Y-53359522D01*
X94478602Y-52922205D01*
X94480068Y-52592478D01*
X94482876Y-52172746D01*
X94072304Y-52172746D01*
X94074014Y-52375956D01*
X94071327Y-52377910D01*
X93937858Y-52298330D01*
X93792402Y-52222938D01*
X93650672Y-52158916D01*
X93560005Y-52125852D01*
X93453515Y-52477561D01*
G37*
G36*
X92340989Y-53148985D02*
G01*
X92348123Y-53221814D01*
X92368860Y-53286580D01*
X92403149Y-53344990D01*
X92473148Y-53420270D01*
X92560807Y-53480545D01*
X92667834Y-53526769D01*
X92806516Y-53561389D01*
X92953199Y-53580894D01*
X93101317Y-53587401D01*
X93280835Y-53579829D01*
X93389401Y-53571769D01*
X93422130Y-53274770D01*
X93318326Y-53283929D01*
X93159691Y-53290402D01*
X93057231Y-53285517D01*
X92949153Y-53265244D01*
X92882415Y-53239225D01*
X92850113Y-53212854D01*
X92832247Y-53179015D01*
X92826177Y-53139459D01*
X92832938Y-53104092D01*
X92853044Y-53075101D01*
X92937674Y-53017460D01*
X93057719Y-52957254D01*
X93189855Y-52888744D01*
X93274159Y-52824237D01*
X93330661Y-52752457D01*
X93364960Y-52669851D01*
X93376578Y-52577701D01*
X93361838Y-52478362D01*
X93317838Y-52389390D01*
X93246640Y-52313883D01*
X93138686Y-52246141D01*
X93034598Y-52206340D01*
X92906899Y-52179097D01*
X92775240Y-52163758D01*
X92655940Y-52157115D01*
X92491931Y-52156626D01*
X92404370Y-52157115D01*
X92368832Y-52461930D01*
X92446135Y-52458022D01*
X92587674Y-52454114D01*
X92698560Y-52461808D01*
X92791495Y-52483179D01*
X92838684Y-52504978D01*
X92868797Y-52529707D01*
X92887976Y-52559891D01*
X92894077Y-52591378D01*
X92886196Y-52627966D01*
X92861837Y-52659889D01*
X92777573Y-52714721D01*
X92651177Y-52777736D01*
X92531620Y-52839407D01*
X92447191Y-52903014D01*
X92389349Y-52971665D01*
X92353520Y-53051701D01*
X92340989Y-53148985D01*
G37*
G36*
X91634761Y-51953905D02*
G01*
X92068169Y-51953905D01*
X92068169Y-51633458D01*
X91634761Y-51633458D01*
X91634761Y-51953905D01*
G37*
G36*
X91641721Y-53563954D02*
G01*
X92061209Y-53563954D01*
X92059132Y-53286005D01*
X92056934Y-52888134D01*
X92057667Y-52559749D01*
X92061209Y-52172746D01*
X91641721Y-52172746D01*
X91644897Y-52520914D01*
X91646851Y-52869083D01*
X91644286Y-53341204D01*
X91641721Y-53563954D01*
G37*
G36*
X90290204Y-53282586D02*
G01*
X90329527Y-53571769D01*
X90393885Y-53576898D01*
X90511366Y-53579585D01*
X90681316Y-53570090D01*
X90817761Y-53544097D01*
X90926526Y-53504572D01*
X91012552Y-53453311D01*
X91085184Y-53384005D01*
X91137282Y-53300399D01*
X91169859Y-53199586D01*
X91181446Y-53077178D01*
X91179736Y-52781766D01*
X91177904Y-52469746D01*
X91405661Y-52469746D01*
X91405661Y-52172746D01*
X91167402Y-52172746D01*
X91167402Y-51805405D01*
X90764035Y-51805405D01*
X90764035Y-52172746D01*
X90295577Y-52172746D01*
X90295577Y-52469746D01*
X90764035Y-52469746D01*
X90765500Y-52590157D01*
X90766966Y-52737924D01*
X90766721Y-52848688D01*
X90766355Y-52985464D01*
X90755948Y-53081886D01*
X90727566Y-53154504D01*
X90682946Y-53209069D01*
X90621899Y-53245842D01*
X90524231Y-53272134D01*
X90375078Y-53282586D01*
X90324398Y-53282586D01*
X90290204Y-53282586D01*
G37*
G36*
X88733888Y-52248095D02*
G01*
X89268780Y-53477247D01*
X89574084Y-54189215D01*
X89963773Y-54090785D01*
X89713424Y-53535255D01*
X89895751Y-53101235D01*
X90261017Y-52256277D01*
X89840675Y-52141483D01*
X89618658Y-52724491D01*
X89488110Y-53049334D01*
X89479928Y-53049334D01*
X89357807Y-52737436D01*
X89129317Y-52141483D01*
X88733888Y-52248095D01*
G37*
G36*
X112716215Y-56800489D02*
G01*
X113134115Y-56963032D01*
X113333784Y-56699006D01*
X113786488Y-56109281D01*
X113780382Y-56081804D01*
X113732446Y-56067151D01*
X113661191Y-56035398D01*
X113591916Y-55994654D01*
X113537848Y-55950402D01*
X113492537Y-55897485D01*
X113461034Y-55843790D01*
X113442128Y-55783008D01*
X113435022Y-55700053D01*
X113445960Y-55620518D01*
X113478131Y-55550942D01*
X113528882Y-55494038D01*
X113596222Y-55453856D01*
X113658785Y-55432796D01*
X113723229Y-55421738D01*
X113850357Y-55415510D01*
X113906411Y-55415876D01*
X113932301Y-55415510D01*
X113934987Y-55748535D01*
X113935842Y-56054205D01*
X113934499Y-56541713D01*
X113931568Y-56923954D01*
X114383539Y-56923954D01*
X114380486Y-56606438D01*
X114378532Y-55986916D01*
X114379143Y-55674285D01*
X114383539Y-55095063D01*
X114218920Y-55091155D01*
X113985912Y-55087247D01*
X113632737Y-55099582D01*
X113486106Y-55120346D01*
X113350514Y-55156979D01*
X113229651Y-55208321D01*
X113137260Y-55270318D01*
X113068414Y-55342481D01*
X113016960Y-55427829D01*
X112986423Y-55518965D01*
X112976090Y-55617987D01*
X112987345Y-55731376D01*
X113019817Y-55830270D01*
X113073176Y-55917673D01*
X113174920Y-56030125D01*
X113271502Y-56105007D01*
X113271502Y-56113189D01*
X112967908Y-56478088D01*
X112817832Y-56659705D01*
X112716215Y-56800489D01*
G37*
G36*
X112050499Y-55506527D02*
G01*
X112188773Y-55544226D01*
X112315252Y-55606920D01*
X112424467Y-55693214D01*
X112522700Y-55808464D01*
X112589820Y-55933060D01*
X112629336Y-56070031D01*
X112643065Y-56226274D01*
X112636068Y-56334331D01*
X112615338Y-56437449D01*
X112580905Y-56536584D01*
X112533243Y-56629864D01*
X112474402Y-56712445D01*
X112403951Y-56785346D01*
X112297062Y-56862834D01*
X112174485Y-56918580D01*
X112041622Y-56951746D01*
X111898368Y-56963032D01*
X111752086Y-56951617D01*
X111621153Y-56918580D01*
X111500840Y-56862696D01*
X111394251Y-56784002D01*
X111321156Y-56707511D01*
X111261783Y-56623705D01*
X111215343Y-56531822D01*
X111170240Y-56384284D01*
X111155660Y-56234456D01*
X111571938Y-56234456D01*
X111579482Y-56328115D01*
X111601980Y-56418004D01*
X111639212Y-56500363D01*
X111688075Y-56566138D01*
X111731321Y-56601992D01*
X111782964Y-56628664D01*
X111839400Y-56644953D01*
X111898368Y-56650402D01*
X111954668Y-56645775D01*
X112007667Y-56632083D01*
X112056291Y-56608688D01*
X112097915Y-56575663D01*
X112157583Y-56504335D01*
X112196955Y-56421424D01*
X112218715Y-56329530D01*
X112226264Y-56226274D01*
X112219026Y-56135819D01*
X112196955Y-56044191D01*
X112160143Y-55960047D01*
X112112936Y-55897401D01*
X112064221Y-55854438D01*
X112016582Y-55827425D01*
X111963875Y-55811900D01*
X111898368Y-55806298D01*
X111842046Y-55811254D01*
X111787848Y-55826082D01*
X111737966Y-55850513D01*
X111696257Y-55883723D01*
X111640232Y-55954687D01*
X111601369Y-56042847D01*
X111579240Y-56138681D01*
X111571938Y-56234456D01*
X111155660Y-56234456D01*
X111155137Y-56229083D01*
X111169562Y-56068803D01*
X111211191Y-55927687D01*
X111254440Y-55840839D01*
X111310591Y-55759701D01*
X111380573Y-55683688D01*
X111491312Y-55599006D01*
X111614192Y-55540196D01*
X111748357Y-55505653D01*
X111899834Y-55493667D01*
X112050499Y-55506527D01*
G37*
G36*
X109824380Y-56611323D02*
G01*
X109865413Y-56939585D01*
X109900218Y-56939585D01*
X109941861Y-56939585D01*
X110168901Y-56928188D01*
X110350968Y-56897087D01*
X110517845Y-56843982D01*
X110660301Y-56773622D01*
X110756843Y-56706499D01*
X110836197Y-56629200D01*
X110900026Y-56541103D01*
X110947240Y-56443412D01*
X110975697Y-56338638D01*
X110985389Y-56224930D01*
X110976040Y-56113842D01*
X110948849Y-56013693D01*
X110904178Y-55922436D01*
X110844176Y-55839553D01*
X110771904Y-55766352D01*
X110686313Y-55702251D01*
X110590456Y-55647281D01*
X110481711Y-55600968D01*
X110358539Y-55563765D01*
X110164459Y-55529262D01*
X109941983Y-55517115D01*
X109905835Y-55517115D01*
X109880556Y-55517115D01*
X109843675Y-55845377D01*
X109871031Y-55845377D01*
X109895577Y-55845377D01*
X110095001Y-55857956D01*
X110192252Y-55875255D01*
X110287587Y-55902286D01*
X110364918Y-55935956D01*
X110428749Y-55978526D01*
X110480905Y-56030025D01*
X110521120Y-56090422D01*
X110544679Y-56154163D01*
X110552590Y-56222854D01*
X110544509Y-56300731D01*
X110521391Y-56366955D01*
X110483592Y-56423988D01*
X110404853Y-56494292D01*
X110299799Y-56548919D01*
X110212186Y-56576748D01*
X110103794Y-56596790D01*
X109906324Y-56611323D01*
X109861261Y-56611323D01*
X109824380Y-56611323D01*
G37*
G36*
X109140012Y-56923954D02*
G01*
X109559499Y-56923954D01*
X109557423Y-56579327D01*
X109555225Y-55863451D01*
X109556690Y-55440422D01*
X109559499Y-54923116D01*
X109140012Y-54923116D01*
X109143187Y-55452024D01*
X109144286Y-55879815D01*
X109142210Y-56483095D01*
X109140012Y-56923954D01*
G37*
G36*
X108139959Y-56901483D02*
G01*
X108481045Y-57049006D01*
X108735672Y-56722783D01*
X108921170Y-56498971D01*
X109079586Y-56310063D01*
X109141233Y-56227617D01*
X109141233Y-56224930D01*
X108918972Y-55938556D01*
X108741886Y-55708359D01*
X108589977Y-55493667D01*
X108217262Y-55635817D01*
X108482998Y-55983008D01*
X108647618Y-56193545D01*
X108647618Y-56194889D01*
X108496798Y-56402007D01*
X108139959Y-56901483D01*
G37*
G36*
X107494526Y-55506227D02*
G01*
X107631568Y-55544348D01*
X107757257Y-55606797D01*
X107858470Y-55689428D01*
X107955530Y-55808392D01*
X108018449Y-55927809D01*
X108054830Y-56057909D01*
X108067664Y-56211131D01*
X108060016Y-56316327D01*
X108037617Y-56413565D01*
X108000741Y-56504222D01*
X107922623Y-56627018D01*
X107824398Y-56727338D01*
X107733757Y-56791332D01*
X107629376Y-56844637D01*
X107509446Y-56886951D01*
X107384887Y-56915354D01*
X107244480Y-56933295D01*
X107086296Y-56939585D01*
X106931202Y-56936776D01*
X106834848Y-56931769D01*
X106793082Y-56619138D01*
X106887238Y-56623901D01*
X107038668Y-56626954D01*
X107146916Y-56622871D01*
X107241390Y-56611323D01*
X107331540Y-56590329D01*
X107416756Y-56558933D01*
X107491657Y-56516389D01*
X107549742Y-56468170D01*
X107593466Y-56414219D01*
X107637363Y-56321103D01*
X107652817Y-56220534D01*
X106704544Y-56220534D01*
X106716519Y-56040771D01*
X107097409Y-56040771D01*
X107672967Y-56040771D01*
X107650328Y-55954856D01*
X107616433Y-55885336D01*
X107571851Y-55829379D01*
X107515704Y-55786485D01*
X107450495Y-55760595D01*
X107373525Y-55751588D01*
X107295029Y-55760896D01*
X107231761Y-55787145D01*
X107180207Y-55829990D01*
X107140914Y-55885969D01*
X107113021Y-55955213D01*
X107097409Y-56040771D01*
X106716519Y-56040771D01*
X106716628Y-56039135D01*
X106749729Y-55894348D01*
X106786086Y-55806284D01*
X106833808Y-55728262D01*
X106893222Y-55659142D01*
X106984252Y-55587092D01*
X107092890Y-55535067D01*
X107213913Y-55504493D01*
X107356673Y-55493667D01*
X107494526Y-55506227D01*
G37*
G36*
X105487971Y-56642586D02*
G01*
X105527294Y-56931769D01*
X105591652Y-56936898D01*
X105709132Y-56939585D01*
X105879083Y-56930090D01*
X106015528Y-56904097D01*
X106124292Y-56864572D01*
X106210319Y-56813311D01*
X106282951Y-56744005D01*
X106335048Y-56660399D01*
X106367626Y-56559586D01*
X106379213Y-56437178D01*
X106377503Y-56141766D01*
X106375671Y-55829746D01*
X106603428Y-55829746D01*
X106603428Y-55532746D01*
X106365169Y-55532746D01*
X106365169Y-55165405D01*
X105961802Y-55165405D01*
X105961802Y-55532746D01*
X105493344Y-55532746D01*
X105493344Y-55829746D01*
X105961802Y-55829746D01*
X105963267Y-55950157D01*
X105964733Y-56097924D01*
X105964488Y-56208688D01*
X105964122Y-56345464D01*
X105953715Y-56441886D01*
X105925333Y-56514504D01*
X105880713Y-56569069D01*
X105819666Y-56605842D01*
X105721998Y-56632134D01*
X105572845Y-56642586D01*
X105522165Y-56642586D01*
X105487971Y-56642586D01*
G37*
G36*
X104211924Y-55837561D02*
G01*
X104463005Y-55927687D01*
X104824729Y-56087666D01*
X104825584Y-56210887D01*
X104826317Y-56392115D01*
X104824118Y-56712928D01*
X104821798Y-56923954D01*
X105241285Y-56923954D01*
X105239209Y-56719522D01*
X105237011Y-56282205D01*
X105238476Y-55952478D01*
X105241285Y-55532746D01*
X104830713Y-55532746D01*
X104832423Y-55735956D01*
X104829736Y-55737910D01*
X104696267Y-55658330D01*
X104550811Y-55582938D01*
X104409081Y-55518916D01*
X104318414Y-55485852D01*
X104211924Y-55837561D01*
G37*
G36*
X102706533Y-55608095D02*
G01*
X103241425Y-56837247D01*
X103546728Y-57549215D01*
X103936418Y-57450785D01*
X103686069Y-56895255D01*
X103868396Y-56461235D01*
X104233661Y-55616277D01*
X103813319Y-55501483D01*
X103591303Y-56084491D01*
X103460755Y-56409334D01*
X103452573Y-56409334D01*
X103330451Y-56097436D01*
X103101962Y-55501483D01*
X102706533Y-55608095D01*
G37*
G36*
X100398316Y-55470220D02*
G01*
X100617280Y-55470220D01*
X101007213Y-55470220D01*
X101010389Y-55813870D01*
X101011488Y-56149337D01*
X101009900Y-56600087D01*
X101007213Y-56923954D01*
X101459185Y-56923954D01*
X101455765Y-56612300D01*
X101454056Y-56147994D01*
X101454056Y-55827547D01*
X101457597Y-55470220D01*
X101857667Y-55469854D01*
X102066495Y-55470220D01*
X102066495Y-55095063D01*
X101718082Y-55095063D01*
X101235825Y-55095063D01*
X100705085Y-55095063D01*
X100398316Y-55095063D01*
X100398316Y-55470220D01*
G37*
G36*
X99881965Y-55506227D02*
G01*
X100019007Y-55544348D01*
X100144696Y-55606797D01*
X100245908Y-55689428D01*
X100342969Y-55808392D01*
X100405888Y-55927809D01*
X100442269Y-56057909D01*
X100455102Y-56211131D01*
X100447455Y-56316327D01*
X100425056Y-56413565D01*
X100388180Y-56504222D01*
X100310062Y-56627018D01*
X100211837Y-56727338D01*
X100121196Y-56791332D01*
X100016815Y-56844637D01*
X99896885Y-56886951D01*
X99772326Y-56915354D01*
X99631919Y-56933295D01*
X99473735Y-56939585D01*
X99318640Y-56936776D01*
X99222287Y-56931769D01*
X99180521Y-56619138D01*
X99274677Y-56623901D01*
X99426107Y-56626954D01*
X99534355Y-56622871D01*
X99628829Y-56611323D01*
X99718979Y-56590329D01*
X99804195Y-56558933D01*
X99879096Y-56516389D01*
X99937181Y-56468170D01*
X99980905Y-56414219D01*
X100024802Y-56321103D01*
X100040256Y-56220534D01*
X99091983Y-56220534D01*
X99103958Y-56040771D01*
X99484848Y-56040771D01*
X100060406Y-56040771D01*
X100037767Y-55954856D01*
X100003872Y-55885336D01*
X99959289Y-55829379D01*
X99903143Y-55786485D01*
X99837934Y-55760595D01*
X99760964Y-55751588D01*
X99682468Y-55760896D01*
X99619200Y-55787145D01*
X99567646Y-55829990D01*
X99528353Y-55885969D01*
X99500460Y-55955213D01*
X99484848Y-56040771D01*
X99103958Y-56040771D01*
X99104067Y-56039135D01*
X99137168Y-55894348D01*
X99173525Y-55806284D01*
X99221247Y-55728262D01*
X99280661Y-55659142D01*
X99371691Y-55587092D01*
X99480329Y-55535067D01*
X99601352Y-55504493D01*
X99744112Y-55493667D01*
X99881965Y-55506227D01*
G37*
G36*
X98779352Y-55512230D02*
G01*
X98866791Y-55517115D01*
X98902695Y-55829746D01*
X98775689Y-55824616D01*
X98633539Y-55821930D01*
X98475881Y-55829501D01*
X98354858Y-55854658D01*
X98280633Y-55887882D01*
X98236767Y-55927809D01*
X98210212Y-55979720D01*
X98197810Y-56048587D01*
X98484918Y-56081071D01*
X98636561Y-56109816D01*
X98751386Y-56144575D01*
X98855283Y-56190965D01*
X98932693Y-56241619D01*
X98988546Y-56296005D01*
X99030341Y-56360740D01*
X99055638Y-56433813D01*
X99064384Y-56517533D01*
X99056308Y-56594331D01*
X99032731Y-56662860D01*
X98993431Y-56725018D01*
X98911008Y-56803270D01*
X98796694Y-56867656D01*
X98691522Y-56902483D01*
X98551596Y-56928472D01*
X98408365Y-56942981D01*
X98290012Y-56947401D01*
X97959429Y-56937143D01*
X97781864Y-56923954D01*
X97781132Y-56713660D01*
X97780624Y-56355845D01*
X98176439Y-56355845D01*
X98176439Y-56455374D01*
X98176805Y-56614498D01*
X98177172Y-56695953D01*
X98226509Y-56696686D01*
X98267541Y-56697296D01*
X98394792Y-56689358D01*
X98500061Y-56665178D01*
X98559335Y-56635525D01*
X98604841Y-56597034D01*
X98634467Y-56546990D01*
X98645141Y-56478088D01*
X98633588Y-56416377D01*
X98599345Y-56365859D01*
X98550767Y-56326025D01*
X98498961Y-56298936D01*
X98416209Y-56270941D01*
X98318588Y-56251553D01*
X98177782Y-56236166D01*
X98176439Y-56355845D01*
X97780624Y-56355845D01*
X97780399Y-56197453D01*
X97792803Y-56012404D01*
X97824851Y-55882868D01*
X97860340Y-55807065D01*
X97907255Y-55739759D01*
X97966268Y-55680025D01*
X98040188Y-55625780D01*
X98125913Y-55582028D01*
X98225165Y-55548988D01*
X98388718Y-55520230D01*
X98609848Y-55509299D01*
X98779352Y-55512230D01*
G37*
G36*
X95182998Y-56923954D02*
G01*
X95601875Y-56923954D01*
X95599066Y-56734543D01*
X95597601Y-56447924D01*
X95598333Y-56260590D01*
X95600287Y-56066417D01*
X95608043Y-55979204D01*
X95624470Y-55920435D01*
X95646816Y-55882380D01*
X95679594Y-55854318D01*
X95724310Y-55836376D01*
X95784935Y-55829746D01*
X95847947Y-55835795D01*
X95924398Y-55855880D01*
X96002344Y-55886817D01*
X96088529Y-55931351D01*
X96088162Y-55953943D01*
X96087674Y-55999739D01*
X96089139Y-56211619D01*
X96090483Y-56401640D01*
X96087918Y-56728437D01*
X96085354Y-56923954D01*
X96504230Y-56923954D01*
X96502032Y-56761898D01*
X96499834Y-56450733D01*
X96500567Y-56258514D01*
X96502643Y-56069104D01*
X96510214Y-55979466D01*
X96519555Y-55937226D01*
X96534028Y-55903629D01*
X96557883Y-55870807D01*
X96586662Y-55848186D01*
X96623366Y-55835089D01*
X96684237Y-55829746D01*
X96748216Y-55837465D01*
X96826264Y-55863329D01*
X96990029Y-55946982D01*
X96991128Y-56115510D01*
X96992227Y-56357676D01*
X96989663Y-56687893D01*
X96987098Y-56923954D01*
X97405975Y-56923954D01*
X97403899Y-56698517D01*
X97401700Y-56250820D01*
X97402433Y-55948448D01*
X97405975Y-55532746D01*
X96995158Y-55532746D01*
X96996502Y-55664271D01*
X96993815Y-55665614D01*
X96904115Y-55615228D01*
X96767890Y-55553751D01*
X96624429Y-55507616D01*
X96503864Y-55493667D01*
X96383215Y-55506766D01*
X96286854Y-55543371D01*
X96206781Y-55601576D01*
X96150322Y-55673430D01*
X96147636Y-55673430D01*
X96020569Y-55605963D01*
X95874694Y-55546790D01*
X95726168Y-55505974D01*
X95603218Y-55493667D01*
X95476854Y-55507749D01*
X95376222Y-55547118D01*
X95295472Y-55610538D01*
X95235006Y-55694343D01*
X95197753Y-55794994D01*
X95184586Y-55917184D01*
X95186418Y-56176082D01*
X95188128Y-56374773D01*
X95185563Y-56711584D01*
X95182998Y-56923954D01*
G37*
G36*
X112867524Y-59338245D02*
G01*
X112870821Y-59568566D01*
X112872775Y-59789362D01*
X112870943Y-60046916D01*
X112869112Y-60283954D01*
X112994774Y-60298608D01*
X113177834Y-60307401D01*
X113383205Y-60299847D01*
X113567605Y-60278199D01*
X113733121Y-60243776D01*
X113892402Y-60190415D01*
X114043868Y-60114416D01*
X114188756Y-60014554D01*
X114274195Y-59936872D01*
X114347793Y-59846971D01*
X114410040Y-59743688D01*
X114455555Y-59632323D01*
X114483615Y-59508949D01*
X114493326Y-59371340D01*
X114480190Y-59220497D01*
X114441842Y-59083669D01*
X114378532Y-58958081D01*
X114292978Y-58845484D01*
X114184555Y-58743907D01*
X114050392Y-58652900D01*
X113932441Y-58590733D01*
X113797566Y-58537584D01*
X113643728Y-58494142D01*
X113486529Y-58464408D01*
X113314530Y-58445856D01*
X113126299Y-58439432D01*
X113062796Y-58439432D01*
X113008696Y-58439432D01*
X112959481Y-58822404D01*
X113008696Y-58822404D01*
X113075619Y-58822404D01*
X113218210Y-58828025D01*
X113373717Y-58845607D01*
X113525995Y-58876680D01*
X113658016Y-58920712D01*
X113767167Y-58975212D01*
X113856788Y-59041191D01*
X113929370Y-59118793D01*
X113984926Y-59208362D01*
X114017499Y-59301900D01*
X114028410Y-59401504D01*
X114019037Y-59512886D01*
X113992462Y-59607433D01*
X113949886Y-59688245D01*
X113892389Y-59760334D01*
X113825845Y-59820586D01*
X113749485Y-59869840D01*
X113650074Y-59913979D01*
X113538337Y-59947020D01*
X113421471Y-59968287D01*
X113299712Y-59979138D01*
X113300567Y-59794247D01*
X113304841Y-59338245D01*
X112867524Y-59338245D01*
G37*
G36*
X111468867Y-59197561D02*
G01*
X111719949Y-59287687D01*
X112081673Y-59447666D01*
X112082527Y-59570887D01*
X112083260Y-59752115D01*
X112081062Y-60072928D01*
X112078742Y-60283954D01*
X112498229Y-60283954D01*
X112496153Y-60079522D01*
X112493955Y-59642205D01*
X112495420Y-59312478D01*
X112498229Y-58892746D01*
X112087657Y-58892746D01*
X112089366Y-59095956D01*
X112086680Y-59097910D01*
X111953211Y-59018330D01*
X111807754Y-58942938D01*
X111666025Y-58878916D01*
X111575357Y-58845852D01*
X111468867Y-59197561D01*
G37*
G36*
X110842963Y-58866527D02*
G01*
X110981236Y-58904226D01*
X111107715Y-58966920D01*
X111216931Y-59053214D01*
X111315163Y-59168464D01*
X111382283Y-59293060D01*
X111421800Y-59430031D01*
X111435528Y-59586274D01*
X111428531Y-59694331D01*
X111407802Y-59797449D01*
X111373368Y-59896584D01*
X111325707Y-59989864D01*
X111266866Y-60072445D01*
X111196414Y-60145346D01*
X111089526Y-60222834D01*
X110966948Y-60278580D01*
X110834085Y-60311746D01*
X110690832Y-60323032D01*
X110544550Y-60311617D01*
X110413616Y-60278580D01*
X110293304Y-60222696D01*
X110186714Y-60144002D01*
X110113620Y-60067511D01*
X110054247Y-59983705D01*
X110007807Y-59891822D01*
X109962704Y-59744284D01*
X109948124Y-59594456D01*
X110364401Y-59594456D01*
X110371945Y-59688115D01*
X110394443Y-59778004D01*
X110431675Y-59860363D01*
X110480539Y-59926138D01*
X110523785Y-59961992D01*
X110575427Y-59988664D01*
X110631863Y-60004953D01*
X110690832Y-60010402D01*
X110747132Y-60005775D01*
X110800130Y-59992083D01*
X110848755Y-59968688D01*
X110890378Y-59935663D01*
X110950047Y-59864335D01*
X110989419Y-59781424D01*
X111011178Y-59689530D01*
X111018728Y-59586274D01*
X111011490Y-59495819D01*
X110989419Y-59404191D01*
X110952606Y-59320047D01*
X110905399Y-59257401D01*
X110856684Y-59214438D01*
X110809045Y-59187425D01*
X110756339Y-59171900D01*
X110690832Y-59166298D01*
X110634509Y-59171254D01*
X110580312Y-59186082D01*
X110530429Y-59210513D01*
X110488721Y-59243723D01*
X110432695Y-59314687D01*
X110393832Y-59402847D01*
X110371703Y-59498681D01*
X110364401Y-59594456D01*
X109948124Y-59594456D01*
X109947601Y-59589083D01*
X109962025Y-59428803D01*
X110003654Y-59287687D01*
X110046903Y-59200839D01*
X110103055Y-59119701D01*
X110173037Y-59043688D01*
X110283776Y-58959006D01*
X110406655Y-58900196D01*
X110540821Y-58865653D01*
X110692297Y-58853667D01*
X110842963Y-58866527D01*
G37*
G36*
X108332423Y-60283954D02*
G01*
X108741530Y-60283954D01*
X108740919Y-60151085D01*
X108742262Y-60149131D01*
X108847508Y-60203121D01*
X108987604Y-60263926D01*
X109133769Y-60308946D01*
X109265553Y-60323032D01*
X109364336Y-60314911D01*
X109446986Y-60292042D01*
X109516477Y-60255700D01*
X109575008Y-60205796D01*
X109634276Y-60121472D01*
X109671526Y-60016169D01*
X109684918Y-59884006D01*
X109683208Y-59603859D01*
X109681376Y-59383552D01*
X109683941Y-59092537D01*
X109686505Y-58892746D01*
X109267018Y-58892746D01*
X109269216Y-59082645D01*
X109271414Y-59343252D01*
X109270071Y-59552813D01*
X109268606Y-59737949D01*
X109257141Y-59849631D01*
X109230382Y-59922352D01*
X109200512Y-59957218D01*
X109157814Y-59978933D01*
X109097636Y-59986954D01*
X109008993Y-59976448D01*
X108904195Y-59941769D01*
X108806117Y-59895951D01*
X108748979Y-59861902D01*
X108747880Y-59724882D01*
X108746781Y-59437041D01*
X108749345Y-59114641D01*
X108751910Y-58892746D01*
X108332423Y-58892746D01*
X108334621Y-59096445D01*
X108336697Y-59526312D01*
X108335354Y-59849934D01*
X108332423Y-60283954D01*
G37*
G36*
X106583644Y-60283954D02*
G01*
X107003009Y-60283954D01*
X107000933Y-60075370D01*
X106998735Y-59812076D01*
X106999467Y-59618514D01*
X107001543Y-59429104D01*
X107015393Y-59313452D01*
X107044530Y-59246532D01*
X107075768Y-59216549D01*
X107121472Y-59197091D01*
X107187046Y-59189746D01*
X107257214Y-59198129D01*
X107347269Y-59226870D01*
X107437089Y-59267508D01*
X107521170Y-59314798D01*
X107522269Y-59466839D01*
X107523368Y-59708395D01*
X107520804Y-60059983D01*
X107518239Y-60283954D01*
X107937726Y-60283954D01*
X107935650Y-60093200D01*
X107933452Y-59628528D01*
X107934918Y-59270956D01*
X107937726Y-58892746D01*
X107526299Y-58892746D01*
X107527643Y-59025614D01*
X107526299Y-59028423D01*
X107393063Y-58959729D01*
X107251648Y-58903493D01*
X107109807Y-58865079D01*
X106996048Y-58853667D01*
X106875504Y-58867523D01*
X106777339Y-58906685D01*
X106696484Y-58970538D01*
X106636172Y-59054536D01*
X106598627Y-59157693D01*
X106585232Y-59285367D01*
X106586941Y-59560628D01*
X106588651Y-59745764D01*
X106586209Y-60057907D01*
X106583644Y-60283954D01*
G37*
G36*
X105359987Y-58892746D02*
G01*
X105494131Y-58902107D01*
X105631341Y-58922178D01*
X105764526Y-58954040D01*
X105881934Y-58996794D01*
X106017293Y-59066497D01*
X106123145Y-59149023D01*
X106203846Y-59244456D01*
X106263343Y-59354383D01*
X106298966Y-59472203D01*
X106311069Y-59600318D01*
X106299902Y-59724127D01*
X106267296Y-59836208D01*
X106213372Y-59938960D01*
X106140128Y-60029409D01*
X106045284Y-60109405D01*
X105925532Y-60179173D01*
X105783315Y-60235182D01*
X105614610Y-60272963D01*
X105424445Y-60292075D01*
X105147740Y-60299585D01*
X105037709Y-60298242D01*
X104944042Y-60296898D01*
X104946240Y-59905011D01*
X104948316Y-59331651D01*
X104948294Y-59324323D01*
X105343501Y-59324323D01*
X105343501Y-59433500D01*
X105344356Y-59854452D01*
X105345088Y-60018217D01*
X105358155Y-60018217D01*
X105370978Y-60018217D01*
X105462764Y-60013333D01*
X105550008Y-59998922D01*
X105632977Y-59974060D01*
X105706934Y-59939449D01*
X105784279Y-59880402D01*
X105842245Y-59807436D01*
X105878659Y-59721387D01*
X105891338Y-59618758D01*
X105877069Y-59504264D01*
X105836017Y-59407977D01*
X105769950Y-59328588D01*
X105680922Y-59270346D01*
X105606994Y-59240065D01*
X105523874Y-59219910D01*
X105436588Y-59209079D01*
X105343501Y-59205377D01*
X105343501Y-59324323D01*
X104948294Y-59324323D01*
X104946240Y-58631895D01*
X104944042Y-58283116D01*
X105363529Y-58283116D01*
X105359987Y-58892746D01*
G37*
G36*
X102671484Y-59746253D02*
G01*
X102680623Y-59843824D01*
X102706980Y-59929283D01*
X102750130Y-60005028D01*
X102807498Y-60071896D01*
X102878223Y-60131682D01*
X102963965Y-60184547D01*
X103091527Y-60237468D01*
X103257179Y-60277359D01*
X103432094Y-60299881D01*
X103609010Y-60307401D01*
X103839331Y-60301295D01*
X103973909Y-60291769D01*
X104014942Y-59916612D01*
X103889890Y-59925893D01*
X103694984Y-59932244D01*
X103535127Y-59921863D01*
X103375026Y-59893409D01*
X103297378Y-59863057D01*
X103254125Y-59830639D01*
X103228094Y-59788486D01*
X103219199Y-59736727D01*
X103229057Y-59675779D01*
X103257545Y-59626940D01*
X103304619Y-59585188D01*
X103388948Y-59534739D01*
X103544042Y-59462443D01*
X103711226Y-59375004D01*
X103795669Y-59315923D01*
X103858335Y-59255471D01*
X103902712Y-59193409D01*
X103945933Y-59087694D01*
X103960598Y-58969561D01*
X103949559Y-58868452D01*
X103917611Y-58780517D01*
X103867434Y-58702345D01*
X103803550Y-58636413D01*
X103727016Y-58578442D01*
X103630349Y-58527656D01*
X103509848Y-58484861D01*
X103384868Y-58456381D01*
X103239578Y-58438109D01*
X103071188Y-58431616D01*
X102864314Y-58434425D01*
X102755626Y-58439432D01*
X102709220Y-58822404D01*
X102817297Y-58813856D01*
X103001823Y-58806773D01*
X103148857Y-58817031D01*
X103283557Y-58847806D01*
X103338802Y-58870928D01*
X103378689Y-58901539D01*
X103404741Y-58941130D01*
X103413494Y-58988612D01*
X103404267Y-59036714D01*
X103375148Y-59083500D01*
X103327792Y-59125552D01*
X103241058Y-59178388D01*
X103094146Y-59247997D01*
X102929527Y-59332628D01*
X102847542Y-59388714D01*
X102783761Y-59448302D01*
X102735720Y-59511535D01*
X102700384Y-59582181D01*
X102678881Y-59659871D01*
X102671484Y-59746253D01*
G37*
G36*
X101414000Y-60002586D02*
G01*
X101453323Y-60291769D01*
X101517681Y-60296898D01*
X101635162Y-60299585D01*
X101805113Y-60290090D01*
X101941557Y-60264097D01*
X102050322Y-60224572D01*
X102136348Y-60173311D01*
X102208980Y-60104005D01*
X102261078Y-60020399D01*
X102293655Y-59919586D01*
X102305242Y-59797178D01*
X102303532Y-59501766D01*
X102301700Y-59189746D01*
X102529457Y-59189746D01*
X102529457Y-58892746D01*
X102291198Y-58892746D01*
X102291198Y-58525405D01*
X101887831Y-58525405D01*
X101887831Y-58892746D01*
X101419373Y-58892746D01*
X101419373Y-59189746D01*
X101887831Y-59189746D01*
X101889296Y-59310157D01*
X101890762Y-59457924D01*
X101890518Y-59568688D01*
X101890151Y-59705464D01*
X101879744Y-59801886D01*
X101851363Y-59874504D01*
X101806742Y-59929069D01*
X101745696Y-59965842D01*
X101648027Y-59992134D01*
X101498874Y-60002586D01*
X101448194Y-60002586D01*
X101414000Y-60002586D01*
G37*
G36*
X101028340Y-58872230D02*
G01*
X101115779Y-58877115D01*
X101151683Y-59189746D01*
X101024677Y-59184616D01*
X100882527Y-59181930D01*
X100724869Y-59189501D01*
X100603846Y-59214658D01*
X100529622Y-59247882D01*
X100485755Y-59287809D01*
X100459200Y-59339720D01*
X100446798Y-59408587D01*
X100733906Y-59441071D01*
X100885550Y-59469816D01*
X101000375Y-59504575D01*
X101104271Y-59550965D01*
X101181681Y-59601619D01*
X101237534Y-59656005D01*
X101279329Y-59720740D01*
X101304626Y-59793813D01*
X101313372Y-59877533D01*
X101305296Y-59954331D01*
X101281719Y-60022860D01*
X101242419Y-60085018D01*
X101159996Y-60163270D01*
X101045682Y-60227656D01*
X100940510Y-60262483D01*
X100800584Y-60288472D01*
X100657353Y-60302981D01*
X100539000Y-60307401D01*
X100208417Y-60297143D01*
X100030853Y-60283954D01*
X100030120Y-60073660D01*
X100029612Y-59715845D01*
X100425427Y-59715845D01*
X100425427Y-59815374D01*
X100425793Y-59974498D01*
X100426160Y-60055953D01*
X100475497Y-60056686D01*
X100516530Y-60057296D01*
X100643780Y-60049358D01*
X100749049Y-60025178D01*
X100808324Y-59995525D01*
X100853829Y-59957034D01*
X100883455Y-59906990D01*
X100894129Y-59838088D01*
X100882577Y-59776377D01*
X100848333Y-59725859D01*
X100799755Y-59686025D01*
X100747950Y-59658936D01*
X100665197Y-59630941D01*
X100567576Y-59611553D01*
X100426770Y-59596166D01*
X100425427Y-59715845D01*
X100029612Y-59715845D01*
X100029387Y-59557453D01*
X100041792Y-59372404D01*
X100073839Y-59242868D01*
X100109329Y-59167065D01*
X100156244Y-59099759D01*
X100215256Y-59040025D01*
X100289176Y-58985780D01*
X100374901Y-58942028D01*
X100474153Y-58908988D01*
X100637706Y-58880230D01*
X100858836Y-58869299D01*
X101028340Y-58872230D01*
G37*
G36*
X98723421Y-60002586D02*
G01*
X98762744Y-60291769D01*
X98827102Y-60296898D01*
X98944583Y-60299585D01*
X99114534Y-60290090D01*
X99250978Y-60264097D01*
X99359743Y-60224572D01*
X99445769Y-60173311D01*
X99518401Y-60104005D01*
X99570499Y-60020399D01*
X99603076Y-59919586D01*
X99614663Y-59797178D01*
X99612953Y-59501766D01*
X99611121Y-59189746D01*
X99838878Y-59189746D01*
X99838878Y-58892746D01*
X99600619Y-58892746D01*
X99600619Y-58525405D01*
X99197252Y-58525405D01*
X99197252Y-58892746D01*
X98728794Y-58892746D01*
X98728794Y-59189746D01*
X99197252Y-59189746D01*
X99198717Y-59310157D01*
X99200183Y-59457924D01*
X99199938Y-59568688D01*
X99199572Y-59705464D01*
X99189165Y-59801886D01*
X99160783Y-59874504D01*
X99116163Y-59929069D01*
X99055116Y-59965842D01*
X98957448Y-59992134D01*
X98808295Y-60002586D01*
X98757615Y-60002586D01*
X98723421Y-60002586D01*
G37*
G36*
X98045647Y-58673905D02*
G01*
X98479056Y-58673905D01*
X98479056Y-58353458D01*
X98045647Y-58353458D01*
X98045647Y-58673905D01*
G37*
G36*
X98052608Y-60283954D02*
G01*
X98472095Y-60283954D01*
X98470019Y-60006005D01*
X98467821Y-59608134D01*
X98468553Y-59279749D01*
X98472095Y-58892746D01*
X98052608Y-58892746D01*
X98055783Y-59240914D01*
X98057737Y-59589083D01*
X98055172Y-60061204D01*
X98052608Y-60283954D01*
G37*
G36*
X97163409Y-58866527D02*
G01*
X97301683Y-58904226D01*
X97428161Y-58966920D01*
X97537377Y-59053214D01*
X97635610Y-59168464D01*
X97702730Y-59293060D01*
X97742246Y-59430031D01*
X97755975Y-59586274D01*
X97748978Y-59694331D01*
X97728248Y-59797449D01*
X97693815Y-59896584D01*
X97646153Y-59989864D01*
X97587312Y-60072445D01*
X97516861Y-60145346D01*
X97409972Y-60222834D01*
X97287395Y-60278580D01*
X97154532Y-60311746D01*
X97011278Y-60323032D01*
X96864996Y-60311617D01*
X96734063Y-60278580D01*
X96613750Y-60222696D01*
X96507161Y-60144002D01*
X96434066Y-60067511D01*
X96374693Y-59983705D01*
X96328253Y-59891822D01*
X96283150Y-59744284D01*
X96268570Y-59594456D01*
X96684848Y-59594456D01*
X96692392Y-59688115D01*
X96714890Y-59778004D01*
X96752122Y-59860363D01*
X96800985Y-59926138D01*
X96844231Y-59961992D01*
X96895874Y-59988664D01*
X96952310Y-60004953D01*
X97011278Y-60010402D01*
X97067578Y-60005775D01*
X97120577Y-59992083D01*
X97169201Y-59968688D01*
X97210825Y-59935663D01*
X97270493Y-59864335D01*
X97309865Y-59781424D01*
X97331625Y-59689530D01*
X97339174Y-59586274D01*
X97331936Y-59495819D01*
X97309865Y-59404191D01*
X97273053Y-59320047D01*
X97225846Y-59257401D01*
X97177131Y-59214438D01*
X97129492Y-59187425D01*
X97076785Y-59171900D01*
X97011278Y-59166298D01*
X96954956Y-59171254D01*
X96900758Y-59186082D01*
X96850876Y-59210513D01*
X96809167Y-59243723D01*
X96753142Y-59314687D01*
X96714279Y-59402847D01*
X96692150Y-59498681D01*
X96684848Y-59594456D01*
X96268570Y-59594456D01*
X96268047Y-59589083D01*
X96282472Y-59428803D01*
X96324101Y-59287687D01*
X96367350Y-59200839D01*
X96423501Y-59119701D01*
X96493483Y-59043688D01*
X96604222Y-58959006D01*
X96727102Y-58900196D01*
X96861267Y-58865653D01*
X97012744Y-58853667D01*
X97163409Y-58866527D01*
G37*
G36*
X94625514Y-60283954D02*
G01*
X95044879Y-60283954D01*
X95042803Y-60075370D01*
X95040605Y-59812076D01*
X95041338Y-59618514D01*
X95043414Y-59429104D01*
X95057264Y-59313452D01*
X95086400Y-59246532D01*
X95117638Y-59216549D01*
X95163343Y-59197091D01*
X95228916Y-59189746D01*
X95299084Y-59198129D01*
X95389139Y-59226870D01*
X95478959Y-59267508D01*
X95563040Y-59314798D01*
X95564139Y-59466839D01*
X95565239Y-59708395D01*
X95562674Y-60059983D01*
X95560109Y-60283954D01*
X95979597Y-60283954D01*
X95977520Y-60093200D01*
X95975322Y-59628528D01*
X95976788Y-59270956D01*
X95979597Y-58892746D01*
X95568169Y-58892746D01*
X95569513Y-59025614D01*
X95568169Y-59028423D01*
X95434934Y-58959729D01*
X95293518Y-58903493D01*
X95151677Y-58865079D01*
X95037918Y-58853667D01*
X94917374Y-58867523D01*
X94819209Y-58906685D01*
X94738354Y-58970538D01*
X94678042Y-59054536D01*
X94640497Y-59157693D01*
X94627102Y-59285367D01*
X94628811Y-59560628D01*
X94630521Y-59745764D01*
X94628079Y-60057907D01*
X94625514Y-60283954D01*
G37*
G36*
X91872165Y-58552760D02*
G01*
X92159150Y-59215025D01*
X92630539Y-60299585D01*
X93078846Y-60299585D01*
X93499921Y-59329452D01*
X93825497Y-58560576D01*
X93379876Y-58415984D01*
X93183016Y-58925597D01*
X92843885Y-59760663D01*
X92833993Y-59760663D01*
X92487412Y-58904592D01*
X92293606Y-58415984D01*
X91872165Y-58552760D01*
G37*
G36*
X90915465Y-60283954D02*
G01*
X91333853Y-60283954D01*
X91330312Y-60050335D01*
X91327869Y-59628284D01*
X91328480Y-59460977D01*
X91330068Y-59281337D01*
X91336906Y-59277307D01*
X91502991Y-59370852D01*
X91719513Y-59494438D01*
X91860563Y-59251295D01*
X91448403Y-59007418D01*
X91189262Y-58853667D01*
X90915465Y-59047718D01*
X90918518Y-59411030D01*
X90920350Y-59655639D01*
X90918518Y-60018339D01*
X90915465Y-60283954D01*
G37*
G36*
X89066913Y-59666508D02*
G01*
X89962185Y-59666508D01*
X89962185Y-59299166D01*
X89066913Y-59299166D01*
X89066913Y-59666508D01*
G37*
G36*
X86846135Y-60283954D02*
G01*
X87131045Y-60283954D01*
X87522444Y-60283954D01*
X87900898Y-60283954D01*
X88164558Y-60283954D01*
X88275200Y-60026033D01*
X88060633Y-59925283D01*
X87843257Y-59805360D01*
X87697929Y-59708300D01*
X87607562Y-59625719D01*
X87563909Y-59564734D01*
X87538664Y-59501309D01*
X87530259Y-59433744D01*
X87540461Y-59364753D01*
X87569338Y-59311134D01*
X87614940Y-59268686D01*
X87679370Y-59234930D01*
X87741628Y-59215411D01*
X87821031Y-59200736D01*
X87992611Y-59189746D01*
X88104841Y-59192921D01*
X88199241Y-59197561D01*
X88154178Y-58877115D01*
X88051718Y-58872474D01*
X87935458Y-58869299D01*
X87781522Y-58873961D01*
X87647130Y-58887129D01*
X87519289Y-58912157D01*
X87403864Y-58950143D01*
X87299043Y-58999438D01*
X87219901Y-59054813D01*
X87161941Y-59115862D01*
X87119271Y-59187822D01*
X87093132Y-59270048D01*
X87084028Y-59365112D01*
X87096070Y-59460474D01*
X87133243Y-59556232D01*
X87190150Y-59644896D01*
X87264279Y-59725370D01*
X87341729Y-59791455D01*
X87444652Y-59862390D01*
X87646763Y-59974620D01*
X87644077Y-59986954D01*
X87470542Y-59982069D01*
X87323019Y-59979138D01*
X87027241Y-59974009D01*
X86846135Y-59971323D01*
X86846135Y-60283954D01*
G37*
G36*
X86105148Y-58867395D02*
G01*
X86256167Y-58907523D01*
X86393513Y-58973577D01*
X86506882Y-59060907D01*
X86603175Y-59172037D01*
X86670891Y-59294648D01*
X86711359Y-59430316D01*
X86725479Y-59587007D01*
X86718451Y-59695589D01*
X86697860Y-59796516D01*
X86664052Y-59890967D01*
X86617127Y-59979567D01*
X86558142Y-60060681D01*
X86486366Y-60134965D01*
X86373109Y-60214970D01*
X86239680Y-60274672D01*
X86095058Y-60310769D01*
X85939750Y-60323032D01*
X85779686Y-60310484D01*
X85634324Y-60273940D01*
X85501346Y-60213564D01*
X85390448Y-60133622D01*
X85317392Y-60060669D01*
X85258027Y-59979812D01*
X85211540Y-59890234D01*
X85178260Y-59794617D01*
X85158147Y-59694317D01*
X85151852Y-59596410D01*
X85569722Y-59596410D01*
X85578199Y-59690248D01*
X85603183Y-59777150D01*
X85644080Y-59855682D01*
X85698194Y-59919787D01*
X85746789Y-59957054D01*
X85804073Y-59986099D01*
X85867325Y-60004115D01*
X85940116Y-60010402D01*
X86012621Y-60004087D01*
X86074694Y-59986099D01*
X86130749Y-59956854D01*
X86179230Y-59918444D01*
X86238276Y-59849229D01*
X86277660Y-59770311D01*
X86299987Y-59683145D01*
X86307702Y-59585663D01*
X86299761Y-59495885D01*
X86275584Y-59405778D01*
X86236314Y-59323767D01*
X86187412Y-59263751D01*
X86137919Y-59223632D01*
X86082266Y-59192676D01*
X86019460Y-59173362D01*
X85938773Y-59166298D01*
X85864843Y-59172796D01*
X85801386Y-59191333D01*
X85744271Y-59221409D01*
X85695507Y-59260942D01*
X85641004Y-59327150D01*
X85601229Y-59409808D01*
X85577652Y-59500782D01*
X85569722Y-59596410D01*
X85151852Y-59596410D01*
X85151334Y-59588350D01*
X85157991Y-59479548D01*
X85177321Y-59380253D01*
X85208731Y-59289152D01*
X85279317Y-59163218D01*
X85378114Y-59051260D01*
X85492904Y-58966529D01*
X85626875Y-58904104D01*
X85773776Y-58866665D01*
X85939750Y-58853667D01*
X86105148Y-58867395D01*
G37*
G36*
X83559603Y-60283954D02*
G01*
X83844513Y-60283954D01*
X84235912Y-60283954D01*
X84614366Y-60283954D01*
X84878026Y-60283954D01*
X84988668Y-60026033D01*
X84774101Y-59925283D01*
X84556725Y-59805360D01*
X84411398Y-59708300D01*
X84321031Y-59625719D01*
X84277377Y-59564734D01*
X84252132Y-59501309D01*
X84243728Y-59433744D01*
X84253929Y-59364753D01*
X84282807Y-59311134D01*
X84328408Y-59268686D01*
X84392838Y-59234930D01*
X84455097Y-59215411D01*
X84534499Y-59200736D01*
X84706079Y-59189746D01*
X84818309Y-59192921D01*
X84912709Y-59197561D01*
X84867646Y-58877115D01*
X84765186Y-58872474D01*
X84648927Y-58869299D01*
X84494990Y-58873961D01*
X84360598Y-58887129D01*
X84232758Y-58912157D01*
X84117332Y-58950143D01*
X84012511Y-58999438D01*
X83933369Y-59054813D01*
X83875409Y-59115862D01*
X83832739Y-59187822D01*
X83806600Y-59270048D01*
X83797496Y-59365112D01*
X83809538Y-59460474D01*
X83846711Y-59556232D01*
X83903618Y-59644896D01*
X83977747Y-59725370D01*
X84055197Y-59791455D01*
X84158121Y-59862390D01*
X84360232Y-59974620D01*
X84357545Y-59986954D01*
X84184010Y-59982069D01*
X84036488Y-59979138D01*
X83740710Y-59974009D01*
X83559603Y-59971323D01*
X83559603Y-60283954D01*
G37*
G36*
X82843850Y-58698817D02*
G01*
X83024299Y-58892160D01*
X83175043Y-59068357D01*
X83282222Y-59210827D01*
X83351000Y-59322282D01*
X83390343Y-59408587D01*
X83426696Y-59545099D01*
X83438825Y-59686169D01*
X83424388Y-59826544D01*
X83382894Y-59947387D01*
X83317861Y-60053890D01*
X83238058Y-60138873D01*
X83121678Y-60220703D01*
X82990762Y-60278092D01*
X82849247Y-60311556D01*
X82694373Y-60323032D01*
X82540163Y-60310757D01*
X82402747Y-60275283D01*
X82275691Y-60216259D01*
X82160214Y-60134477D01*
X82076381Y-60043642D01*
X82007196Y-59930290D01*
X81961954Y-59805428D01*
X81947112Y-59678353D01*
X81949115Y-59653807D01*
X82365500Y-59653807D01*
X82371337Y-59729134D01*
X82388093Y-59795346D01*
X82415848Y-59855433D01*
X82452939Y-59905621D01*
X82499176Y-59948904D01*
X82558208Y-59982558D01*
X82623566Y-60003477D01*
X82690710Y-60010402D01*
X82755082Y-60004754D01*
X82816373Y-59987931D01*
X82872718Y-59958918D01*
X82922985Y-59916124D01*
X82964795Y-59860229D01*
X82995403Y-59795224D01*
X83013668Y-59724201D01*
X83019949Y-59645625D01*
X83007369Y-59532553D01*
X82969146Y-59421776D01*
X82911752Y-59319867D01*
X82845437Y-59237251D01*
X82715256Y-59269247D01*
X82640544Y-59296392D01*
X82571397Y-59332505D01*
X82488162Y-59391119D01*
X82422775Y-59464641D01*
X82380094Y-59551817D01*
X82365500Y-59653807D01*
X81949115Y-59653807D01*
X81955639Y-59573841D01*
X81980379Y-59480000D01*
X82020874Y-59394910D01*
X82076641Y-59318715D01*
X82150849Y-59248007D01*
X82246310Y-59182540D01*
X82336342Y-59136772D01*
X82440361Y-59097910D01*
X82631603Y-59050039D01*
X82631603Y-59044543D01*
X82410441Y-58826801D01*
X82168640Y-58592816D01*
X82528777Y-58376905D01*
X82843850Y-58698817D01*
G37*
G36*
X73325601Y-97304699D02*
G01*
X73489824Y-97304699D01*
X73782275Y-97304699D01*
X73784656Y-97562437D01*
X73785480Y-97814037D01*
X73784290Y-98152100D01*
X73782275Y-98395000D01*
X74121253Y-98395000D01*
X74118688Y-98161259D01*
X74117406Y-97813030D01*
X74117406Y-97572695D01*
X74120062Y-97304699D01*
X74420115Y-97304425D01*
X74576735Y-97304699D01*
X74576735Y-97023332D01*
X74315426Y-97023332D01*
X73953733Y-97023332D01*
X73555678Y-97023332D01*
X73325601Y-97023332D01*
X73325601Y-97304699D01*
G37*
G36*
X72171646Y-98395000D02*
G01*
X72486169Y-98395000D01*
X72484612Y-98197529D01*
X72482964Y-97986687D01*
X72484063Y-97868717D01*
X72485070Y-97753862D01*
X72495934Y-97663902D01*
X72518409Y-97614918D01*
X72542256Y-97593473D01*
X72576354Y-97579566D01*
X72624380Y-97574344D01*
X72675350Y-97579628D01*
X72741708Y-97597791D01*
X72808945Y-97624007D01*
X72875431Y-97656409D01*
X72872592Y-98395000D01*
X73187207Y-98395000D01*
X73185650Y-98098702D01*
X73184002Y-97609881D01*
X73185101Y-97289037D01*
X73187207Y-96894371D01*
X72872592Y-96894371D01*
X72875798Y-97438514D01*
X72873783Y-97439521D01*
X72775986Y-97394008D01*
X72670176Y-97355990D01*
X72564403Y-97329970D01*
X72480949Y-97322285D01*
X72390540Y-97332677D01*
X72316917Y-97362048D01*
X72256276Y-97409938D01*
X72211042Y-97472937D01*
X72182883Y-97550304D01*
X72172836Y-97646059D01*
X72174119Y-97852506D01*
X72175401Y-97991358D01*
X72174027Y-98212642D01*
X72171646Y-98395000D01*
G37*
G36*
X71758203Y-97336207D02*
G01*
X71823783Y-97339870D01*
X71850710Y-97574344D01*
X71755456Y-97570497D01*
X71648844Y-97568482D01*
X71530600Y-97574160D01*
X71439833Y-97593028D01*
X71384164Y-97617946D01*
X71351264Y-97647891D01*
X71331348Y-97686824D01*
X71322047Y-97738475D01*
X71537377Y-97762838D01*
X71651110Y-97784396D01*
X71737229Y-97810465D01*
X71815151Y-97845258D01*
X71873209Y-97883248D01*
X71915099Y-97924038D01*
X71946445Y-97972590D01*
X71965418Y-98027394D01*
X71971977Y-98090184D01*
X71965920Y-98147783D01*
X71948238Y-98199179D01*
X71918763Y-98245798D01*
X71856945Y-98304487D01*
X71771209Y-98352776D01*
X71692331Y-98378897D01*
X71587386Y-98398388D01*
X71479963Y-98409270D01*
X71391198Y-98412585D01*
X71143261Y-98404891D01*
X71010088Y-98395000D01*
X71009538Y-98237280D01*
X71009157Y-97968918D01*
X71306018Y-97968918D01*
X71306018Y-98043565D01*
X71306293Y-98162908D01*
X71306568Y-98223999D01*
X71343571Y-98224549D01*
X71374345Y-98225006D01*
X71469783Y-98219053D01*
X71548735Y-98200918D01*
X71593191Y-98178678D01*
X71627320Y-98149810D01*
X71649539Y-98112277D01*
X71657545Y-98060601D01*
X71648881Y-98014317D01*
X71623198Y-97976428D01*
X71586765Y-97946553D01*
X71547910Y-97926236D01*
X71485846Y-97905240D01*
X71412630Y-97890699D01*
X71307026Y-97879159D01*
X71306018Y-97968918D01*
X71009157Y-97968918D01*
X71008989Y-97850124D01*
X71018292Y-97711338D01*
X71042328Y-97614186D01*
X71068945Y-97557333D01*
X71104131Y-97506854D01*
X71148390Y-97462053D01*
X71203830Y-97421369D01*
X71268124Y-97388555D01*
X71342563Y-97363776D01*
X71465227Y-97342207D01*
X71631075Y-97334009D01*
X71758203Y-97336207D01*
G37*
G36*
X69712609Y-98395000D02*
G01*
X70027132Y-98395000D01*
X70025575Y-98238562D01*
X70023927Y-98041092D01*
X70024476Y-97895920D01*
X70026033Y-97753862D01*
X70036421Y-97667123D01*
X70058273Y-97616933D01*
X70081701Y-97594446D01*
X70115980Y-97579853D01*
X70165160Y-97574344D01*
X70217786Y-97580631D01*
X70285328Y-97602187D01*
X70352692Y-97632665D01*
X70415753Y-97668133D01*
X70416578Y-97782164D01*
X70417402Y-97963331D01*
X70415478Y-98227021D01*
X70413555Y-98395000D01*
X70728170Y-98395000D01*
X70726613Y-98251934D01*
X70724965Y-97903430D01*
X70726064Y-97635252D01*
X70728170Y-97351594D01*
X70419600Y-97351594D01*
X70420608Y-97451245D01*
X70419600Y-97453352D01*
X70319673Y-97401831D01*
X70213612Y-97359654D01*
X70107231Y-97330843D01*
X70021912Y-97322285D01*
X69931504Y-97332677D01*
X69857880Y-97362048D01*
X69797239Y-97409938D01*
X69752005Y-97472937D01*
X69723846Y-97550304D01*
X69713799Y-97646059D01*
X69715082Y-97852506D01*
X69716364Y-97991358D01*
X69714532Y-98225464D01*
X69712609Y-98395000D01*
G37*
G36*
X69110764Y-98395000D02*
G01*
X69425379Y-98395000D01*
X69423822Y-98136530D01*
X69422173Y-97599623D01*
X69423272Y-97282351D01*
X69425379Y-96894371D01*
X69110764Y-96894371D01*
X69113145Y-97291052D01*
X69113969Y-97611896D01*
X69112412Y-98064356D01*
X69110764Y-98395000D01*
G37*
G36*
X68360724Y-98378147D02*
G01*
X68616538Y-98488789D01*
X68807509Y-98244122D01*
X68946632Y-98076263D01*
X69065444Y-97934582D01*
X69111680Y-97872747D01*
X69111680Y-97870732D01*
X68944984Y-97655951D01*
X68812170Y-97483304D01*
X68698238Y-97322285D01*
X68418702Y-97428897D01*
X68618004Y-97689290D01*
X68741469Y-97847193D01*
X68741469Y-97848201D01*
X68628354Y-98003539D01*
X68360724Y-98378147D01*
G37*
G36*
X66731503Y-97408106D02*
G01*
X67132671Y-98329970D01*
X67361649Y-98863946D01*
X67653916Y-98790123D01*
X67466154Y-98373476D01*
X67602900Y-98047961D01*
X67876849Y-97414242D01*
X67561592Y-97328147D01*
X67395080Y-97765403D01*
X67297169Y-98009035D01*
X67291032Y-98009035D01*
X67199441Y-97775111D01*
X67028074Y-97328147D01*
X66731503Y-97408106D01*
G37*
G36*
X66204097Y-97331929D02*
G01*
X66307802Y-97360204D01*
X66402661Y-97407224D01*
X66484573Y-97471945D01*
X66558247Y-97558383D01*
X66608587Y-97651830D01*
X66638225Y-97754558D01*
X66648521Y-97871740D01*
X66643273Y-97952782D01*
X66627726Y-98030121D01*
X66601901Y-98104473D01*
X66566155Y-98174432D01*
X66522024Y-98236368D01*
X66469186Y-98291044D01*
X66389019Y-98349160D01*
X66297086Y-98390969D01*
X66197439Y-98415844D01*
X66089999Y-98424309D01*
X65980287Y-98415747D01*
X65882087Y-98390969D01*
X65791853Y-98349056D01*
X65711911Y-98290036D01*
X65657090Y-98232668D01*
X65612560Y-98169813D01*
X65577730Y-98100901D01*
X65543903Y-97990247D01*
X65532967Y-97877876D01*
X65845176Y-97877876D01*
X65850834Y-97948120D01*
X65867707Y-98015538D01*
X65895631Y-98077307D01*
X65932279Y-98126638D01*
X65964713Y-98153529D01*
X66003445Y-98173532D01*
X66045772Y-98185749D01*
X66089999Y-98189836D01*
X66132224Y-98186366D01*
X66171973Y-98176097D01*
X66208441Y-98158551D01*
X66239658Y-98133782D01*
X66284410Y-98080286D01*
X66313939Y-98018102D01*
X66330259Y-97949182D01*
X66335921Y-97871740D01*
X66330492Y-97803899D01*
X66313939Y-97735177D01*
X66286329Y-97672070D01*
X66250924Y-97625085D01*
X66214388Y-97592863D01*
X66178659Y-97572603D01*
X66139129Y-97560959D01*
X66089999Y-97556758D01*
X66047757Y-97560475D01*
X66007109Y-97571596D01*
X65969697Y-97589919D01*
X65938415Y-97614827D01*
X65896396Y-97668050D01*
X65867249Y-97734170D01*
X65850652Y-97806045D01*
X65845176Y-97877876D01*
X65532967Y-97877876D01*
X65532575Y-97873846D01*
X65543394Y-97753636D01*
X65574616Y-97647800D01*
X65607052Y-97582663D01*
X65649166Y-97521810D01*
X65701653Y-97464801D01*
X65784707Y-97401289D01*
X65876866Y-97357181D01*
X65977490Y-97331274D01*
X66091098Y-97322285D01*
X66204097Y-97331929D01*
G37*
G36*
X64309468Y-98395000D02*
G01*
X64616298Y-98395000D01*
X64615840Y-98295348D01*
X64616848Y-98293883D01*
X64695782Y-98334375D01*
X64800854Y-98379979D01*
X64910478Y-98413744D01*
X65009316Y-98424309D01*
X65083404Y-98418218D01*
X65145391Y-98401066D01*
X65197509Y-98373809D01*
X65241407Y-98336381D01*
X65285858Y-98273138D01*
X65313796Y-98194161D01*
X65323839Y-98095039D01*
X65322557Y-97884929D01*
X65321183Y-97719699D01*
X65323107Y-97501437D01*
X65325030Y-97351594D01*
X65010415Y-97351594D01*
X65012063Y-97494018D01*
X65013712Y-97689474D01*
X65012705Y-97846644D01*
X65011605Y-97985496D01*
X65003007Y-98069258D01*
X64982937Y-98123798D01*
X64960535Y-98149948D01*
X64928512Y-98166234D01*
X64883378Y-98172250D01*
X64816896Y-98164370D01*
X64738298Y-98138361D01*
X64664739Y-98103997D01*
X64621885Y-98078461D01*
X64621061Y-97975696D01*
X64620237Y-97759815D01*
X64622160Y-97518015D01*
X64624084Y-97351594D01*
X64309468Y-97351594D01*
X64311117Y-97504368D01*
X64312674Y-97826769D01*
X64311667Y-98069485D01*
X64309468Y-98395000D01*
G37*
G36*
X62826792Y-98183974D02*
G01*
X62856284Y-98400861D01*
X62904553Y-98404708D01*
X62992664Y-98406723D01*
X63120127Y-98399602D01*
X63222460Y-98380107D01*
X63304034Y-98350463D01*
X63368553Y-98312018D01*
X63423027Y-98260038D01*
X63462101Y-98197334D01*
X63486534Y-98121724D01*
X63495224Y-98029918D01*
X63493941Y-97808359D01*
X63492568Y-97574344D01*
X63663385Y-97574344D01*
X63663385Y-97351594D01*
X63484691Y-97351594D01*
X63484691Y-97076088D01*
X63182165Y-97076088D01*
X63182165Y-97351594D01*
X62830822Y-97351594D01*
X62830822Y-97574344D01*
X63182165Y-97574344D01*
X63183265Y-97664652D01*
X63184364Y-97775478D01*
X63184180Y-97858551D01*
X63183906Y-97961133D01*
X63176100Y-98033449D01*
X63154814Y-98087912D01*
X63121349Y-98128836D01*
X63075564Y-98156416D01*
X63002312Y-98176135D01*
X62890448Y-98183974D01*
X62852438Y-98183974D01*
X62826792Y-98183974D01*
G37*
G36*
X62282534Y-97331929D02*
G01*
X62386239Y-97360204D01*
X62481098Y-97407224D01*
X62563010Y-97471945D01*
X62636684Y-97558383D01*
X62687024Y-97651830D01*
X62716661Y-97754558D01*
X62726958Y-97871740D01*
X62721710Y-97952782D01*
X62706163Y-98030121D01*
X62680338Y-98104473D01*
X62644592Y-98174432D01*
X62600461Y-98236368D01*
X62547623Y-98291044D01*
X62467456Y-98349160D01*
X62375523Y-98390969D01*
X62275876Y-98415844D01*
X62168436Y-98424309D01*
X62058724Y-98415747D01*
X61960524Y-98390969D01*
X61870289Y-98349056D01*
X61790348Y-98290036D01*
X61735527Y-98232668D01*
X61690997Y-98169813D01*
X61656167Y-98100901D01*
X61622340Y-97990247D01*
X61611404Y-97877876D01*
X61923613Y-97877876D01*
X61929271Y-97948120D01*
X61946144Y-98015538D01*
X61974068Y-98077307D01*
X62010716Y-98126638D01*
X62043150Y-98153529D01*
X62081882Y-98173532D01*
X62124209Y-98185749D01*
X62168436Y-98189836D01*
X62210661Y-98186366D01*
X62250410Y-98176097D01*
X62286878Y-98158551D01*
X62318095Y-98133782D01*
X62362847Y-98080286D01*
X62392376Y-98018102D01*
X62408695Y-97949182D01*
X62414358Y-97871740D01*
X62408929Y-97803899D01*
X62392376Y-97735177D01*
X62364766Y-97672070D01*
X62329361Y-97625085D01*
X62292825Y-97592863D01*
X62257096Y-97572603D01*
X62217566Y-97560959D01*
X62168436Y-97556758D01*
X62126193Y-97560475D01*
X62085546Y-97571596D01*
X62048134Y-97589919D01*
X62016852Y-97614827D01*
X61974833Y-97668050D01*
X61945686Y-97734170D01*
X61929089Y-97806045D01*
X61923613Y-97877876D01*
X61611404Y-97877876D01*
X61611012Y-97873846D01*
X61621831Y-97753636D01*
X61653053Y-97647800D01*
X61685489Y-97582663D01*
X61727603Y-97521810D01*
X61780089Y-97464801D01*
X61863144Y-97401289D01*
X61955303Y-97357181D01*
X62055927Y-97331274D01*
X62169535Y-97322285D01*
X62282534Y-97331929D01*
G37*
D11*
X115554819Y-71161666D02*
X116269104Y-71161666D01*
X116269104Y-71161666D02*
X116411961Y-71114047D01*
X116411961Y-71114047D02*
X116507200Y-71018809D01*
X116507200Y-71018809D02*
X116554819Y-70875952D01*
X116554819Y-70875952D02*
X116554819Y-70780714D01*
X116554819Y-72161666D02*
X116554819Y-71590238D01*
X116554819Y-71875952D02*
X115554819Y-71875952D01*
X115554819Y-71875952D02*
X115697676Y-71780714D01*
X115697676Y-71780714D02*
X115792914Y-71685476D01*
X115792914Y-71685476D02*
X115840533Y-71590238D01*
D12*
%TO.C,J1*%
X116600000Y-70625000D02*
X116600000Y-70125000D01*
X116890000Y-69265000D02*
X122610000Y-69265000D01*
X116890000Y-70335000D02*
X116890000Y-69265000D01*
X116890000Y-72665000D02*
X116890001Y-73735000D01*
X116890001Y-73735000D02*
X122610000Y-73734999D01*
X116900000Y-70625000D02*
X116600000Y-70625000D01*
X117190000Y-70335000D02*
X116890000Y-70335000D01*
X117190000Y-71500000D02*
X117190000Y-70335000D01*
X117190000Y-71500000D02*
X117190000Y-72665000D01*
X117190000Y-72665000D02*
X116890000Y-72665000D01*
X122610000Y-69265000D02*
X122610000Y-71500000D01*
X122610000Y-73734999D02*
X122610000Y-71500000D01*
D13*
%TO.C,G\u002A\u002A\u002A*%
G36*
X71647752Y-100048866D02*
G01*
X71654297Y-100843777D01*
X72199220Y-100048866D01*
X72744142Y-99253955D01*
X72986768Y-99253955D01*
X73229394Y-99253955D01*
X73229394Y-100543799D01*
X73229394Y-101833643D01*
X72944484Y-101833643D01*
X72659574Y-101833643D01*
X72653029Y-101041556D01*
X72646484Y-100249469D01*
X72100781Y-101041007D01*
X71555078Y-101832545D01*
X71313232Y-101833094D01*
X71071387Y-101833643D01*
X71071387Y-100543799D01*
X71071387Y-99253955D01*
X71356297Y-99253955D01*
X71641207Y-99253955D01*
X71647752Y-100048866D01*
G37*
G36*
X74569235Y-101532306D02*
G01*
X74626496Y-101569218D01*
X74710703Y-101660778D01*
X74757298Y-101769245D01*
X74766301Y-101884745D01*
X74737732Y-101997406D01*
X74671611Y-102097351D01*
X74567958Y-102174707D01*
X74506451Y-102203758D01*
X74426049Y-102225906D01*
X74348890Y-102218424D01*
X74253100Y-102181806D01*
X74193254Y-102149544D01*
X74107736Y-102069730D01*
X74062328Y-101964072D01*
X74054341Y-101827781D01*
X74057564Y-101792526D01*
X74089939Y-101672942D01*
X74157124Y-101584707D01*
X74264194Y-101520387D01*
X74329286Y-101498217D01*
X74449490Y-101491267D01*
X74569235Y-101532306D01*
G37*
G36*
X75362598Y-99985694D02*
G01*
X75362598Y-100295752D01*
X75722266Y-100295752D01*
X76081934Y-100295752D01*
X76081934Y-99985694D01*
X76081934Y-99675635D01*
X76329980Y-99675635D01*
X76578027Y-99675635D01*
X76578027Y-100543799D01*
X76578027Y-101411963D01*
X76329980Y-101411963D01*
X76081934Y-101411963D01*
X76081934Y-101101905D01*
X76081934Y-100791846D01*
X75722266Y-100791846D01*
X75362598Y-100791846D01*
X75362598Y-101101905D01*
X75362598Y-101411963D01*
X75114551Y-101411963D01*
X74866504Y-101411963D01*
X74866504Y-100543799D01*
X74866504Y-99675635D01*
X75114551Y-99675635D01*
X75362598Y-99675635D01*
X75362598Y-99985694D01*
G37*
G36*
X65787988Y-100541973D02*
G01*
X65787988Y-101808838D01*
X65515137Y-101808838D01*
X65242285Y-101808838D01*
X65242285Y-100751895D01*
X65242285Y-99694952D01*
X64975635Y-99704128D01*
X64819509Y-99714117D01*
X64700151Y-99734661D01*
X64610312Y-99769530D01*
X64540101Y-99822585D01*
X64479625Y-99897685D01*
X64449398Y-99952582D01*
X64429366Y-100029156D01*
X64423730Y-100134522D01*
X64427378Y-100223158D01*
X64444394Y-100303561D01*
X64479625Y-100371358D01*
X64506578Y-100408247D01*
X64577391Y-100477277D01*
X64665925Y-100523423D01*
X64782480Y-100551028D01*
X64937356Y-100564439D01*
X65167871Y-100574521D01*
X65167871Y-100785397D01*
X65167871Y-100996272D01*
X64864014Y-100985175D01*
X64831589Y-100983882D01*
X64637561Y-100969728D01*
X64481518Y-100944142D01*
X64353918Y-100904269D01*
X64245219Y-100847253D01*
X64145879Y-100770238D01*
X64115538Y-100741640D01*
X63992223Y-100586260D01*
X63912146Y-100407390D01*
X63875852Y-100206659D01*
X63883884Y-99985694D01*
X63889991Y-99945299D01*
X63944602Y-99754320D01*
X64038456Y-99593362D01*
X64172625Y-99460969D01*
X64348185Y-99355682D01*
X64379938Y-99341045D01*
X64419955Y-99324742D01*
X64461968Y-99312279D01*
X64512781Y-99303033D01*
X64579192Y-99296376D01*
X64668006Y-99291683D01*
X64786021Y-99288330D01*
X64940041Y-99285689D01*
X65136865Y-99283135D01*
X65787988Y-99275108D01*
X65787988Y-100541973D01*
G37*
G36*
X66735868Y-99412641D02*
G01*
X67001620Y-99564014D01*
X67002519Y-99731446D01*
X67003418Y-99898877D01*
X67127441Y-99898877D01*
X67251465Y-99898877D01*
X67251465Y-100109717D01*
X67251465Y-100320557D01*
X67129440Y-100320557D01*
X67007415Y-100320557D01*
X66999215Y-100897266D01*
X66998973Y-100914232D01*
X66996185Y-101094678D01*
X66993165Y-101233189D01*
X66989195Y-101336856D01*
X66983556Y-101412767D01*
X66975531Y-101468010D01*
X66964401Y-101509675D01*
X66949446Y-101544848D01*
X66929949Y-101580620D01*
X66861139Y-101672644D01*
X66741849Y-101762769D01*
X66582965Y-101826135D01*
X66537135Y-101836363D01*
X66439488Y-101846596D01*
X66333822Y-101846854D01*
X66231632Y-101838331D01*
X66144409Y-101822217D01*
X66083648Y-101799704D01*
X66060840Y-101771985D01*
X66060875Y-101770506D01*
X66066848Y-101728814D01*
X66081082Y-101654979D01*
X66100708Y-101563966D01*
X66140577Y-101387423D01*
X66231570Y-101401974D01*
X66245180Y-101403949D01*
X66320955Y-101401542D01*
X66383938Y-101366873D01*
X66399634Y-101353711D01*
X66416561Y-101334727D01*
X66428909Y-101308321D01*
X66437564Y-101267461D01*
X66443411Y-101205118D01*
X66447336Y-101114262D01*
X66450223Y-100987862D01*
X66452959Y-100818889D01*
X66460606Y-100320557D01*
X66273125Y-100320557D01*
X66085644Y-100320557D01*
X66085644Y-100110804D01*
X66085644Y-99901051D01*
X66265478Y-99893763D01*
X66445312Y-99886475D01*
X66457715Y-99573871D01*
X66470117Y-99261268D01*
X66735868Y-99412641D01*
G37*
G36*
X62811618Y-99270665D02*
G01*
X63024793Y-99331327D01*
X63215433Y-99429252D01*
X63255465Y-99456992D01*
X63426001Y-99610333D01*
X63558646Y-99795691D01*
X63653396Y-100013059D01*
X63710248Y-100262431D01*
X63729199Y-100543799D01*
X63729104Y-100564896D01*
X63723441Y-100713379D01*
X63710251Y-100849238D01*
X63691237Y-100954066D01*
X63689950Y-100959044D01*
X63606243Y-101194684D01*
X63487712Y-101396904D01*
X63336700Y-101563607D01*
X63155550Y-101692699D01*
X62946604Y-101782083D01*
X62712207Y-101829665D01*
X62539032Y-101838011D01*
X62299934Y-101813765D01*
X62081088Y-101747335D01*
X61886212Y-101639984D01*
X61719027Y-101492971D01*
X61635689Y-101392063D01*
X61535598Y-101222696D01*
X61473901Y-101036184D01*
X61452441Y-100940674D01*
X61716455Y-100941038D01*
X61980469Y-100941402D01*
X62042480Y-101070171D01*
X62101179Y-101166754D01*
X62211917Y-101274352D01*
X62269501Y-101311215D01*
X62330504Y-101336991D01*
X62404915Y-101351043D01*
X62510823Y-101358461D01*
X62634238Y-101358841D01*
X62753554Y-101340919D01*
X62855212Y-101298381D01*
X62955272Y-101226456D01*
X62982865Y-101201038D01*
X63073993Y-101079399D01*
X63142729Y-100924396D01*
X63186439Y-100745860D01*
X63202486Y-100553622D01*
X63188234Y-100357513D01*
X63181641Y-100318662D01*
X63126056Y-100118418D01*
X63040537Y-99957019D01*
X62925540Y-99834972D01*
X62781518Y-99752783D01*
X62608923Y-99710960D01*
X62593422Y-99709399D01*
X62440220Y-99717030D01*
X62296662Y-99762862D01*
X62172139Y-99841157D01*
X62076043Y-99946177D01*
X62017763Y-100072184D01*
X61990959Y-100171729D01*
X61721301Y-100171729D01*
X61451643Y-100171729D01*
X61482753Y-100041504D01*
X61527778Y-99889818D01*
X61616530Y-99704435D01*
X61736970Y-99552368D01*
X61892732Y-99428179D01*
X61938035Y-99400810D01*
X62139115Y-99312338D01*
X62358555Y-99261162D01*
X62586130Y-99247274D01*
X62811618Y-99270665D01*
G37*
G36*
X69118913Y-99979492D02*
G01*
X69095379Y-100019915D01*
X69050031Y-100098342D01*
X68989396Y-100203511D01*
X68918436Y-100326815D01*
X68842113Y-100459647D01*
X68612726Y-100859185D01*
X68890471Y-101327811D01*
X68925616Y-101387117D01*
X69004043Y-101519514D01*
X69072362Y-101634927D01*
X69126775Y-101726934D01*
X69163483Y-101789112D01*
X69178688Y-101815039D01*
X69161821Y-101822005D01*
X69104496Y-101828048D01*
X69015759Y-101832138D01*
X68904942Y-101833643D01*
X68620727Y-101833643D01*
X68441508Y-101510132D01*
X68409504Y-101453036D01*
X68349342Y-101349572D01*
X68299161Y-101268352D01*
X68263468Y-101216525D01*
X68246770Y-101201239D01*
X68243462Y-101205434D01*
X68218930Y-101243695D01*
X68176308Y-101314094D01*
X68120506Y-101408441D01*
X68056438Y-101518549D01*
X67881625Y-101821241D01*
X67603752Y-101828254D01*
X67504381Y-101830023D01*
X67411822Y-101830001D01*
X67349017Y-101827993D01*
X67325879Y-101824147D01*
X67328119Y-101818959D01*
X67349902Y-101779151D01*
X67391913Y-101705694D01*
X67450507Y-101604878D01*
X67522039Y-101482989D01*
X67602865Y-101346316D01*
X67637065Y-101288483D01*
X67714596Y-101155742D01*
X67781196Y-101039435D01*
X67833207Y-100946084D01*
X67866972Y-100882208D01*
X67878834Y-100854329D01*
X67877561Y-100849925D01*
X67858229Y-100810040D01*
X67818515Y-100736197D01*
X67762137Y-100635088D01*
X67692810Y-100513407D01*
X67614250Y-100377845D01*
X67588510Y-100333710D01*
X67512704Y-100202863D01*
X67447338Y-100088760D01*
X67396094Y-99997904D01*
X67362649Y-99936797D01*
X67350684Y-99911945D01*
X67368992Y-99907171D01*
X67427760Y-99903755D01*
X67517390Y-99902695D01*
X67627959Y-99904266D01*
X67905234Y-99911280D01*
X68077564Y-100229923D01*
X68249894Y-100548567D01*
X68323234Y-100415958D01*
X68329088Y-100405327D01*
X68378971Y-100312578D01*
X68437788Y-100200539D01*
X68494023Y-100091114D01*
X68591472Y-99898877D01*
X68878899Y-99898877D01*
X69166326Y-99898877D01*
X69118913Y-99979492D01*
G37*
G36*
X70124685Y-99887869D02*
G01*
X70221633Y-99891942D01*
X70294827Y-99902370D01*
X70359139Y-99921545D01*
X70429442Y-99951859D01*
X70503145Y-99990209D01*
X70669330Y-100113297D01*
X70799388Y-100270264D01*
X70893074Y-100460764D01*
X70950142Y-100684451D01*
X70951866Y-100695452D01*
X70965793Y-100923506D01*
X70938448Y-101138029D01*
X70872725Y-101334033D01*
X70771518Y-101506527D01*
X70637722Y-101650522D01*
X70474231Y-101761028D01*
X70283939Y-101833054D01*
X70260604Y-101837591D01*
X70178000Y-101845824D01*
X70070375Y-101849958D01*
X69954924Y-101849150D01*
X69843047Y-101841581D01*
X69638480Y-101800811D01*
X69467223Y-101725438D01*
X69326953Y-101614593D01*
X69303044Y-101587691D01*
X69252218Y-101517850D01*
X69204656Y-101438835D01*
X69166826Y-101362977D01*
X69145196Y-101302607D01*
X69146236Y-101270057D01*
X69156609Y-101266341D01*
X69207755Y-101258596D01*
X69290475Y-101250774D01*
X69393081Y-101244105D01*
X69626166Y-101231913D01*
X69713089Y-101326762D01*
X69763945Y-101378176D01*
X69810607Y-101408440D01*
X69869988Y-101423715D01*
X69960531Y-101431832D01*
X70016702Y-101433948D01*
X70138052Y-101422334D01*
X70233808Y-101382216D01*
X70317609Y-101308900D01*
X70326392Y-101298791D01*
X70373541Y-101225084D01*
X70404439Y-101131350D01*
X70421333Y-101008035D01*
X70426465Y-100845585D01*
X70422978Y-100732866D01*
X70399848Y-100574540D01*
X70352829Y-100455895D01*
X70279335Y-100373269D01*
X70176784Y-100323000D01*
X70042593Y-100301426D01*
X69951527Y-100300220D01*
X69877176Y-100312574D01*
X69813753Y-100342918D01*
X69771640Y-100374532D01*
X69693907Y-100473130D01*
X69653910Y-100593409D01*
X69645117Y-100655420D01*
X70010986Y-100662284D01*
X70376855Y-100669149D01*
X70376855Y-100842118D01*
X70376855Y-101015088D01*
X69753487Y-101015088D01*
X69130118Y-101015088D01*
X69142300Y-100760840D01*
X69149379Y-100649144D01*
X69162987Y-100539769D01*
X69184670Y-100450926D01*
X69217518Y-100366412D01*
X69220657Y-100359525D01*
X69322975Y-100194783D01*
X69462263Y-100056170D01*
X69628961Y-99953283D01*
X69674496Y-99933239D01*
X69741701Y-99909968D01*
X69813233Y-99896243D01*
X69904169Y-99889591D01*
X70029590Y-99887537D01*
X70124685Y-99887869D01*
G37*
G36*
X61248730Y-100545549D02*
G01*
X61248730Y-101812339D01*
X60560400Y-101803033D01*
X60457885Y-101801573D01*
X60250637Y-101797615D01*
X60083886Y-101791871D01*
X59951249Y-101783071D01*
X59846342Y-101769947D01*
X59762782Y-101751228D01*
X59694184Y-101725646D01*
X59634166Y-101691931D01*
X59576344Y-101648813D01*
X59514334Y-101595024D01*
X59457631Y-101538984D01*
X59367767Y-101411078D01*
X59317720Y-101264502D01*
X59303419Y-101089502D01*
X59308077Y-101020427D01*
X59846155Y-101020427D01*
X59855334Y-101132544D01*
X59903431Y-101233859D01*
X59988400Y-101312109D01*
X60000512Y-101319215D01*
X60041507Y-101337955D01*
X60091797Y-101350400D01*
X60161454Y-101357779D01*
X60260554Y-101361323D01*
X60399170Y-101362261D01*
X60727832Y-101362354D01*
X60727832Y-100531397D01*
X60727832Y-99700440D01*
X60466586Y-99700440D01*
X60336064Y-99703110D01*
X60209505Y-99715402D01*
X60115416Y-99740097D01*
X60044599Y-99779822D01*
X59987856Y-99837205D01*
X59970517Y-99863176D01*
X59938287Y-99961880D01*
X59940027Y-100071873D01*
X59976400Y-100173702D01*
X59985132Y-100187611D01*
X60047216Y-100253100D01*
X60136367Y-100298750D01*
X60259611Y-100327188D01*
X60423975Y-100341040D01*
X60653418Y-100350150D01*
X60653418Y-100521389D01*
X60653418Y-100692627D01*
X60404383Y-100692627D01*
X60333423Y-100693638D01*
X60184834Y-100706095D01*
X60071306Y-100735203D01*
X59983549Y-100784039D01*
X59912274Y-100855682D01*
X59877939Y-100909773D01*
X59846155Y-101020427D01*
X59308077Y-101020427D01*
X59309068Y-101005723D01*
X59352485Y-100842739D01*
X59437146Y-100706501D01*
X59561311Y-100599355D01*
X59723242Y-100523644D01*
X59765284Y-100509417D01*
X59823076Y-100486086D01*
X59840402Y-100469886D01*
X59822461Y-100457340D01*
X59738378Y-100426507D01*
X59667675Y-100394755D01*
X59614680Y-100360271D01*
X59563051Y-100314026D01*
X59494466Y-100238958D01*
X59439594Y-100147574D01*
X59411731Y-100042101D01*
X59404363Y-99905784D01*
X59406075Y-99829306D01*
X59415566Y-99747896D01*
X59437934Y-99681018D01*
X59478281Y-99608128D01*
X59525037Y-99544980D01*
X59640500Y-99440372D01*
X59782898Y-99357250D01*
X59937899Y-99305063D01*
X59965474Y-99300819D01*
X60048967Y-99293737D01*
X60168413Y-99287668D01*
X60315029Y-99282934D01*
X60480032Y-99279857D01*
X60654639Y-99278760D01*
X61248730Y-99278760D01*
X61248730Y-100531397D01*
X61248730Y-100545549D01*
G37*
G36*
X76937695Y-98930434D02*
G01*
X77008427Y-98970058D01*
X77149794Y-99080903D01*
X77265435Y-99215703D01*
X77343419Y-99361772D01*
X77353756Y-99390336D01*
X77364961Y-99426574D01*
X77374021Y-99466927D01*
X77381165Y-99516449D01*
X77386618Y-99580195D01*
X77390609Y-99663221D01*
X77393366Y-99770581D01*
X77395114Y-99907330D01*
X77396081Y-100078524D01*
X77396495Y-100289217D01*
X77396582Y-100544464D01*
X77396569Y-100638709D01*
X77396328Y-100879174D01*
X77395623Y-101076739D01*
X77394250Y-101236387D01*
X77392006Y-101363102D01*
X77388685Y-101461866D01*
X77384085Y-101537661D01*
X77378000Y-101595471D01*
X77370227Y-101640279D01*
X77360561Y-101677067D01*
X77348799Y-101710819D01*
X77266492Y-101870742D01*
X77144657Y-102015363D01*
X76995231Y-102126593D01*
X76826187Y-102197017D01*
X76807645Y-102201018D01*
X76737675Y-102209345D01*
X76629274Y-102216107D01*
X76480207Y-102221371D01*
X76288244Y-102225203D01*
X76051152Y-102227672D01*
X75766697Y-102228844D01*
X74818942Y-102230518D01*
X74879930Y-102109093D01*
X74916956Y-102018066D01*
X74940918Y-101861046D01*
X74940918Y-101734424D01*
X75810314Y-101734424D01*
X75943349Y-101734386D01*
X76163336Y-101733853D01*
X76341374Y-101732173D01*
X76482496Y-101728703D01*
X76591737Y-101722796D01*
X76674131Y-101713811D01*
X76734713Y-101701101D01*
X76778516Y-101684023D01*
X76810575Y-101661933D01*
X76835924Y-101634187D01*
X76859598Y-101600139D01*
X76866037Y-101588833D01*
X76875221Y-101563881D01*
X76882639Y-101527182D01*
X76888474Y-101474001D01*
X76892908Y-101399607D01*
X76896126Y-101299267D01*
X76898309Y-101168249D01*
X76899642Y-101001820D01*
X76900307Y-100795248D01*
X76900488Y-100543799D01*
X76900427Y-100387198D01*
X76899978Y-100163258D01*
X76898934Y-99981352D01*
X76897112Y-99836749D01*
X76894330Y-99724716D01*
X76890404Y-99640520D01*
X76885151Y-99579429D01*
X76878388Y-99536710D01*
X76869931Y-99507631D01*
X76859598Y-99487459D01*
X76855267Y-99480875D01*
X76833038Y-99449486D01*
X76808641Y-99423714D01*
X76777332Y-99403005D01*
X76734366Y-99386805D01*
X76675000Y-99374561D01*
X76594490Y-99365720D01*
X76488090Y-99359727D01*
X76351058Y-99356030D01*
X76178649Y-99354074D01*
X75966118Y-99353307D01*
X75708723Y-99353174D01*
X75576839Y-99353190D01*
X75355175Y-99353406D01*
X75175659Y-99354069D01*
X75033361Y-99355425D01*
X74923351Y-99357715D01*
X74840702Y-99361184D01*
X74780482Y-99366076D01*
X74737764Y-99372634D01*
X74707617Y-99381101D01*
X74685112Y-99391722D01*
X74665320Y-99404739D01*
X74640911Y-99422418D01*
X74608248Y-99449416D01*
X74582025Y-99479887D01*
X74561536Y-99518958D01*
X74546072Y-99571756D01*
X74534927Y-99643406D01*
X74527393Y-99739034D01*
X74522765Y-99863768D01*
X74520334Y-100022732D01*
X74519394Y-100221053D01*
X74519238Y-100463857D01*
X74519238Y-101328957D01*
X74443867Y-101317895D01*
X74384510Y-101316356D01*
X74276759Y-101334010D01*
X74168612Y-101369865D01*
X74083987Y-101417315D01*
X74023145Y-101465173D01*
X74023144Y-100561387D01*
X74023664Y-100373715D01*
X74025446Y-100168472D01*
X74028346Y-99980134D01*
X74032206Y-99815243D01*
X74036869Y-99680337D01*
X74042180Y-99581959D01*
X74047979Y-99526648D01*
X74106806Y-99337621D01*
X74207647Y-99168000D01*
X74345181Y-99027869D01*
X74514881Y-98923083D01*
X74521047Y-98920248D01*
X74549892Y-98907892D01*
X74580435Y-98897723D01*
X74617467Y-98889527D01*
X74665779Y-98883092D01*
X74730162Y-98878205D01*
X74815408Y-98874654D01*
X74926308Y-98872225D01*
X75067652Y-98870706D01*
X75244233Y-98869885D01*
X75460840Y-98869548D01*
X75722266Y-98869483D01*
X76813672Y-98869483D01*
X76937695Y-98930434D01*
G37*
%TD*%
M02*
