%TF.GenerationSoftware,KiCad,Pcbnew,9.0.0*%
%TF.CreationDate,2026-04-10T00:59:57-04:00*%
%TF.ProjectId,CUR_ground_station_25-26,4355525f-6772-46f7-956e-645f73746174,rev?*%
%TF.SameCoordinates,Original*%
%TF.FileFunction,Legend,Top*%
%TF.FilePolarity,Positive*%
%FSLAX46Y46*%
G04 Gerber Fmt 4.6, Leading zero omitted, Abs format (unit mm)*
G04 Created by KiCad (PCBNEW 9.0.0) date 2026-04-10 00:59:57*
%MOMM*%
%LPD*%
G01*
G04 APERTURE LIST*
%ADD10C,0.150000*%
%ADD11C,0.100000*%
%ADD12C,0.120000*%
%ADD13C,0.152400*%
%ADD14C,0.250000*%
%ADD15C,0.200000*%
%ADD16C,0.127000*%
G04 APERTURE END LIST*
D10*
X67583333Y-94654819D02*
X67250000Y-94178628D01*
X67011905Y-94654819D02*
X67011905Y-93654819D01*
X67011905Y-93654819D02*
X67392857Y-93654819D01*
X67392857Y-93654819D02*
X67488095Y-93702438D01*
X67488095Y-93702438D02*
X67535714Y-93750057D01*
X67535714Y-93750057D02*
X67583333Y-93845295D01*
X67583333Y-93845295D02*
X67583333Y-93988152D01*
X67583333Y-93988152D02*
X67535714Y-94083390D01*
X67535714Y-94083390D02*
X67488095Y-94131009D01*
X67488095Y-94131009D02*
X67392857Y-94178628D01*
X67392857Y-94178628D02*
X67011905Y-94178628D01*
X67916667Y-93654819D02*
X68583333Y-94654819D01*
X68583333Y-93654819D02*
X67916667Y-94654819D01*
X69288095Y-93654819D02*
X69859523Y-93654819D01*
X69573809Y-94654819D02*
X69573809Y-93654819D01*
X70097619Y-93654819D02*
X70764285Y-94654819D01*
X70764285Y-93654819D02*
X70097619Y-94654819D01*
X71361905Y-93604819D02*
X71980952Y-93604819D01*
X71980952Y-93604819D02*
X71647619Y-93985771D01*
X71647619Y-93985771D02*
X71790476Y-93985771D01*
X71790476Y-93985771D02*
X71885714Y-94033390D01*
X71885714Y-94033390D02*
X71933333Y-94081009D01*
X71933333Y-94081009D02*
X71980952Y-94176247D01*
X71980952Y-94176247D02*
X71980952Y-94414342D01*
X71980952Y-94414342D02*
X71933333Y-94509580D01*
X71933333Y-94509580D02*
X71885714Y-94557200D01*
X71885714Y-94557200D02*
X71790476Y-94604819D01*
X71790476Y-94604819D02*
X71504762Y-94604819D01*
X71504762Y-94604819D02*
X71409524Y-94557200D01*
X71409524Y-94557200D02*
X71361905Y-94509580D01*
X72266667Y-93604819D02*
X72600000Y-94604819D01*
X72600000Y-94604819D02*
X72933333Y-93604819D01*
X73171429Y-93604819D02*
X73790476Y-93604819D01*
X73790476Y-93604819D02*
X73457143Y-93985771D01*
X73457143Y-93985771D02*
X73600000Y-93985771D01*
X73600000Y-93985771D02*
X73695238Y-94033390D01*
X73695238Y-94033390D02*
X73742857Y-94081009D01*
X73742857Y-94081009D02*
X73790476Y-94176247D01*
X73790476Y-94176247D02*
X73790476Y-94414342D01*
X73790476Y-94414342D02*
X73742857Y-94509580D01*
X73742857Y-94509580D02*
X73695238Y-94557200D01*
X73695238Y-94557200D02*
X73600000Y-94604819D01*
X73600000Y-94604819D02*
X73314286Y-94604819D01*
X73314286Y-94604819D02*
X73219048Y-94557200D01*
X73219048Y-94557200D02*
X73171429Y-94509580D01*
X64188095Y-93702438D02*
X64092857Y-93654819D01*
X64092857Y-93654819D02*
X63950000Y-93654819D01*
X63950000Y-93654819D02*
X63807143Y-93702438D01*
X63807143Y-93702438D02*
X63711905Y-93797676D01*
X63711905Y-93797676D02*
X63664286Y-93892914D01*
X63664286Y-93892914D02*
X63616667Y-94083390D01*
X63616667Y-94083390D02*
X63616667Y-94226247D01*
X63616667Y-94226247D02*
X63664286Y-94416723D01*
X63664286Y-94416723D02*
X63711905Y-94511961D01*
X63711905Y-94511961D02*
X63807143Y-94607200D01*
X63807143Y-94607200D02*
X63950000Y-94654819D01*
X63950000Y-94654819D02*
X64045238Y-94654819D01*
X64045238Y-94654819D02*
X64188095Y-94607200D01*
X64188095Y-94607200D02*
X64235714Y-94559580D01*
X64235714Y-94559580D02*
X64235714Y-94226247D01*
X64235714Y-94226247D02*
X64045238Y-94226247D01*
X64664286Y-94654819D02*
X64664286Y-93654819D01*
X64664286Y-93654819D02*
X65235714Y-94654819D01*
X65235714Y-94654819D02*
X65235714Y-93654819D01*
X65711905Y-94654819D02*
X65711905Y-93654819D01*
X65711905Y-93654819D02*
X65950000Y-93654819D01*
X65950000Y-93654819D02*
X66092857Y-93702438D01*
X66092857Y-93702438D02*
X66188095Y-93797676D01*
X66188095Y-93797676D02*
X66235714Y-93892914D01*
X66235714Y-93892914D02*
X66283333Y-94083390D01*
X66283333Y-94083390D02*
X66283333Y-94226247D01*
X66283333Y-94226247D02*
X66235714Y-94416723D01*
X66235714Y-94416723D02*
X66188095Y-94511961D01*
X66188095Y-94511961D02*
X66092857Y-94607200D01*
X66092857Y-94607200D02*
X65950000Y-94654819D01*
X65950000Y-94654819D02*
X65711905Y-94654819D01*
X95359580Y-98142857D02*
X95407200Y-98190476D01*
X95407200Y-98190476D02*
X95454819Y-98333333D01*
X95454819Y-98333333D02*
X95454819Y-98428571D01*
X95454819Y-98428571D02*
X95407200Y-98571428D01*
X95407200Y-98571428D02*
X95311961Y-98666666D01*
X95311961Y-98666666D02*
X95216723Y-98714285D01*
X95216723Y-98714285D02*
X95026247Y-98761904D01*
X95026247Y-98761904D02*
X94883390Y-98761904D01*
X94883390Y-98761904D02*
X94692914Y-98714285D01*
X94692914Y-98714285D02*
X94597676Y-98666666D01*
X94597676Y-98666666D02*
X94502438Y-98571428D01*
X94502438Y-98571428D02*
X94454819Y-98428571D01*
X94454819Y-98428571D02*
X94454819Y-98333333D01*
X94454819Y-98333333D02*
X94502438Y-98190476D01*
X94502438Y-98190476D02*
X94550057Y-98142857D01*
X95454819Y-97190476D02*
X95454819Y-97761904D01*
X95454819Y-97476190D02*
X94454819Y-97476190D01*
X94454819Y-97476190D02*
X94597676Y-97571428D01*
X94597676Y-97571428D02*
X94692914Y-97666666D01*
X94692914Y-97666666D02*
X94740533Y-97761904D01*
X94454819Y-96571428D02*
X94454819Y-96476190D01*
X94454819Y-96476190D02*
X94502438Y-96380952D01*
X94502438Y-96380952D02*
X94550057Y-96333333D01*
X94550057Y-96333333D02*
X94645295Y-96285714D01*
X94645295Y-96285714D02*
X94835771Y-96238095D01*
X94835771Y-96238095D02*
X95073866Y-96238095D01*
X95073866Y-96238095D02*
X95264342Y-96285714D01*
X95264342Y-96285714D02*
X95359580Y-96333333D01*
X95359580Y-96333333D02*
X95407200Y-96380952D01*
X95407200Y-96380952D02*
X95454819Y-96476190D01*
X95454819Y-96476190D02*
X95454819Y-96571428D01*
X95454819Y-96571428D02*
X95407200Y-96666666D01*
X95407200Y-96666666D02*
X95359580Y-96714285D01*
X95359580Y-96714285D02*
X95264342Y-96761904D01*
X95264342Y-96761904D02*
X95073866Y-96809523D01*
X95073866Y-96809523D02*
X94835771Y-96809523D01*
X94835771Y-96809523D02*
X94645295Y-96761904D01*
X94645295Y-96761904D02*
X94550057Y-96714285D01*
X94550057Y-96714285D02*
X94502438Y-96666666D01*
X94502438Y-96666666D02*
X94454819Y-96571428D01*
X92380952Y-67054819D02*
X92380952Y-66054819D01*
X92380952Y-66054819D02*
X92761904Y-66054819D01*
X92761904Y-66054819D02*
X92857142Y-66102438D01*
X92857142Y-66102438D02*
X92904761Y-66150057D01*
X92904761Y-66150057D02*
X92952380Y-66245295D01*
X92952380Y-66245295D02*
X92952380Y-66388152D01*
X92952380Y-66388152D02*
X92904761Y-66483390D01*
X92904761Y-66483390D02*
X92857142Y-66531009D01*
X92857142Y-66531009D02*
X92761904Y-66578628D01*
X92761904Y-66578628D02*
X92380952Y-66578628D01*
X93285714Y-66054819D02*
X93523809Y-67054819D01*
X93523809Y-67054819D02*
X93714285Y-66340533D01*
X93714285Y-66340533D02*
X93904761Y-67054819D01*
X93904761Y-67054819D02*
X94142857Y-66054819D01*
X95095237Y-67054819D02*
X94761904Y-66578628D01*
X94523809Y-67054819D02*
X94523809Y-66054819D01*
X94523809Y-66054819D02*
X94904761Y-66054819D01*
X94904761Y-66054819D02*
X94999999Y-66102438D01*
X94999999Y-66102438D02*
X95047618Y-66150057D01*
X95047618Y-66150057D02*
X95095237Y-66245295D01*
X95095237Y-66245295D02*
X95095237Y-66388152D01*
X95095237Y-66388152D02*
X95047618Y-66483390D01*
X95047618Y-66483390D02*
X94999999Y-66531009D01*
X94999999Y-66531009D02*
X94904761Y-66578628D01*
X94904761Y-66578628D02*
X94523809Y-66578628D01*
X95285714Y-67150057D02*
X96047618Y-67150057D01*
X96619047Y-66531009D02*
X96761904Y-66578628D01*
X96761904Y-66578628D02*
X96809523Y-66626247D01*
X96809523Y-66626247D02*
X96857142Y-66721485D01*
X96857142Y-66721485D02*
X96857142Y-66864342D01*
X96857142Y-66864342D02*
X96809523Y-66959580D01*
X96809523Y-66959580D02*
X96761904Y-67007200D01*
X96761904Y-67007200D02*
X96666666Y-67054819D01*
X96666666Y-67054819D02*
X96285714Y-67054819D01*
X96285714Y-67054819D02*
X96285714Y-66054819D01*
X96285714Y-66054819D02*
X96619047Y-66054819D01*
X96619047Y-66054819D02*
X96714285Y-66102438D01*
X96714285Y-66102438D02*
X96761904Y-66150057D01*
X96761904Y-66150057D02*
X96809523Y-66245295D01*
X96809523Y-66245295D02*
X96809523Y-66340533D01*
X96809523Y-66340533D02*
X96761904Y-66435771D01*
X96761904Y-66435771D02*
X96714285Y-66483390D01*
X96714285Y-66483390D02*
X96619047Y-66531009D01*
X96619047Y-66531009D02*
X96285714Y-66531009D01*
X97142857Y-66054819D02*
X97714285Y-66054819D01*
X97428571Y-67054819D02*
X97428571Y-66054819D01*
X98047619Y-67054819D02*
X98047619Y-66054819D01*
X98047619Y-66054819D02*
X98619047Y-67054819D01*
X98619047Y-67054819D02*
X98619047Y-66054819D01*
X97111905Y-53504819D02*
X97111905Y-52504819D01*
X97111905Y-52504819D02*
X97350000Y-52504819D01*
X97350000Y-52504819D02*
X97492857Y-52552438D01*
X97492857Y-52552438D02*
X97588095Y-52647676D01*
X97588095Y-52647676D02*
X97635714Y-52742914D01*
X97635714Y-52742914D02*
X97683333Y-52933390D01*
X97683333Y-52933390D02*
X97683333Y-53076247D01*
X97683333Y-53076247D02*
X97635714Y-53266723D01*
X97635714Y-53266723D02*
X97588095Y-53361961D01*
X97588095Y-53361961D02*
X97492857Y-53457200D01*
X97492857Y-53457200D02*
X97350000Y-53504819D01*
X97350000Y-53504819D02*
X97111905Y-53504819D01*
X98064286Y-52600057D02*
X98111905Y-52552438D01*
X98111905Y-52552438D02*
X98207143Y-52504819D01*
X98207143Y-52504819D02*
X98445238Y-52504819D01*
X98445238Y-52504819D02*
X98540476Y-52552438D01*
X98540476Y-52552438D02*
X98588095Y-52600057D01*
X98588095Y-52600057D02*
X98635714Y-52695295D01*
X98635714Y-52695295D02*
X98635714Y-52790533D01*
X98635714Y-52790533D02*
X98588095Y-52933390D01*
X98588095Y-52933390D02*
X98016667Y-53504819D01*
X98016667Y-53504819D02*
X98635714Y-53504819D01*
X69947618Y-52054819D02*
X69614285Y-51578628D01*
X69376190Y-52054819D02*
X69376190Y-51054819D01*
X69376190Y-51054819D02*
X69757142Y-51054819D01*
X69757142Y-51054819D02*
X69852380Y-51102438D01*
X69852380Y-51102438D02*
X69899999Y-51150057D01*
X69899999Y-51150057D02*
X69947618Y-51245295D01*
X69947618Y-51245295D02*
X69947618Y-51388152D01*
X69947618Y-51388152D02*
X69899999Y-51483390D01*
X69899999Y-51483390D02*
X69852380Y-51531009D01*
X69852380Y-51531009D02*
X69757142Y-51578628D01*
X69757142Y-51578628D02*
X69376190Y-51578628D01*
X70376190Y-51531009D02*
X70709523Y-51531009D01*
X70852380Y-52054819D02*
X70376190Y-52054819D01*
X70376190Y-52054819D02*
X70376190Y-51054819D01*
X70376190Y-51054819D02*
X70852380Y-51054819D01*
X71233333Y-52007200D02*
X71376190Y-52054819D01*
X71376190Y-52054819D02*
X71614285Y-52054819D01*
X71614285Y-52054819D02*
X71709523Y-52007200D01*
X71709523Y-52007200D02*
X71757142Y-51959580D01*
X71757142Y-51959580D02*
X71804761Y-51864342D01*
X71804761Y-51864342D02*
X71804761Y-51769104D01*
X71804761Y-51769104D02*
X71757142Y-51673866D01*
X71757142Y-51673866D02*
X71709523Y-51626247D01*
X71709523Y-51626247D02*
X71614285Y-51578628D01*
X71614285Y-51578628D02*
X71423809Y-51531009D01*
X71423809Y-51531009D02*
X71328571Y-51483390D01*
X71328571Y-51483390D02*
X71280952Y-51435771D01*
X71280952Y-51435771D02*
X71233333Y-51340533D01*
X71233333Y-51340533D02*
X71233333Y-51245295D01*
X71233333Y-51245295D02*
X71280952Y-51150057D01*
X71280952Y-51150057D02*
X71328571Y-51102438D01*
X71328571Y-51102438D02*
X71423809Y-51054819D01*
X71423809Y-51054819D02*
X71661904Y-51054819D01*
X71661904Y-51054819D02*
X71804761Y-51102438D01*
X72233333Y-51531009D02*
X72566666Y-51531009D01*
X72709523Y-52054819D02*
X72233333Y-52054819D01*
X72233333Y-52054819D02*
X72233333Y-51054819D01*
X72233333Y-51054819D02*
X72709523Y-51054819D01*
X72995238Y-51054819D02*
X73566666Y-51054819D01*
X73280952Y-52054819D02*
X73280952Y-51054819D01*
X86550000Y-57554819D02*
X86550000Y-56554819D01*
X87216666Y-56554819D02*
X87407142Y-56554819D01*
X87407142Y-56554819D02*
X87502380Y-56602438D01*
X87502380Y-56602438D02*
X87597618Y-56697676D01*
X87597618Y-56697676D02*
X87645237Y-56888152D01*
X87645237Y-56888152D02*
X87645237Y-57221485D01*
X87645237Y-57221485D02*
X87597618Y-57411961D01*
X87597618Y-57411961D02*
X87502380Y-57507200D01*
X87502380Y-57507200D02*
X87407142Y-57554819D01*
X87407142Y-57554819D02*
X87216666Y-57554819D01*
X87216666Y-57554819D02*
X87121428Y-57507200D01*
X87121428Y-57507200D02*
X87026190Y-57411961D01*
X87026190Y-57411961D02*
X86978571Y-57221485D01*
X86978571Y-57221485D02*
X86978571Y-56888152D01*
X86978571Y-56888152D02*
X87026190Y-56697676D01*
X87026190Y-56697676D02*
X87121428Y-56602438D01*
X87121428Y-56602438D02*
X87216666Y-56554819D01*
X87978571Y-56554819D02*
X88597618Y-56554819D01*
X88597618Y-56554819D02*
X88264285Y-56935771D01*
X88264285Y-56935771D02*
X88407142Y-56935771D01*
X88407142Y-56935771D02*
X88502380Y-56983390D01*
X88502380Y-56983390D02*
X88549999Y-57031009D01*
X88549999Y-57031009D02*
X88597618Y-57126247D01*
X88597618Y-57126247D02*
X88597618Y-57364342D01*
X88597618Y-57364342D02*
X88549999Y-57459580D01*
X88549999Y-57459580D02*
X88502380Y-57507200D01*
X88502380Y-57507200D02*
X88407142Y-57554819D01*
X88407142Y-57554819D02*
X88121428Y-57554819D01*
X88121428Y-57554819D02*
X88026190Y-57507200D01*
X88026190Y-57507200D02*
X87978571Y-57459580D01*
X81407142Y-65854819D02*
X81073809Y-65378628D01*
X80835714Y-65854819D02*
X80835714Y-64854819D01*
X80835714Y-64854819D02*
X81216666Y-64854819D01*
X81216666Y-64854819D02*
X81311904Y-64902438D01*
X81311904Y-64902438D02*
X81359523Y-64950057D01*
X81359523Y-64950057D02*
X81407142Y-65045295D01*
X81407142Y-65045295D02*
X81407142Y-65188152D01*
X81407142Y-65188152D02*
X81359523Y-65283390D01*
X81359523Y-65283390D02*
X81311904Y-65331009D01*
X81311904Y-65331009D02*
X81216666Y-65378628D01*
X81216666Y-65378628D02*
X80835714Y-65378628D01*
X81788095Y-64950057D02*
X81835714Y-64902438D01*
X81835714Y-64902438D02*
X81930952Y-64854819D01*
X81930952Y-64854819D02*
X82169047Y-64854819D01*
X82169047Y-64854819D02*
X82264285Y-64902438D01*
X82264285Y-64902438D02*
X82311904Y-64950057D01*
X82311904Y-64950057D02*
X82359523Y-65045295D01*
X82359523Y-65045295D02*
X82359523Y-65140533D01*
X82359523Y-65140533D02*
X82311904Y-65283390D01*
X82311904Y-65283390D02*
X81740476Y-65854819D01*
X81740476Y-65854819D02*
X82359523Y-65854819D01*
X82692857Y-64854819D02*
X83311904Y-64854819D01*
X83311904Y-64854819D02*
X82978571Y-65235771D01*
X82978571Y-65235771D02*
X83121428Y-65235771D01*
X83121428Y-65235771D02*
X83216666Y-65283390D01*
X83216666Y-65283390D02*
X83264285Y-65331009D01*
X83264285Y-65331009D02*
X83311904Y-65426247D01*
X83311904Y-65426247D02*
X83311904Y-65664342D01*
X83311904Y-65664342D02*
X83264285Y-65759580D01*
X83264285Y-65759580D02*
X83216666Y-65807200D01*
X83216666Y-65807200D02*
X83121428Y-65854819D01*
X83121428Y-65854819D02*
X82835714Y-65854819D01*
X82835714Y-65854819D02*
X82740476Y-65807200D01*
X82740476Y-65807200D02*
X82692857Y-65759580D01*
X58404417Y-91857198D02*
X58547274Y-91904817D01*
X58547274Y-91904817D02*
X58785369Y-91904817D01*
X58785369Y-91904817D02*
X58880607Y-91857198D01*
X58880607Y-91857198D02*
X58928226Y-91809578D01*
X58928226Y-91809578D02*
X58975845Y-91714340D01*
X58975845Y-91714340D02*
X58975845Y-91619102D01*
X58975845Y-91619102D02*
X58928226Y-91523864D01*
X58928226Y-91523864D02*
X58880607Y-91476245D01*
X58880607Y-91476245D02*
X58785369Y-91428626D01*
X58785369Y-91428626D02*
X58594893Y-91381007D01*
X58594893Y-91381007D02*
X58499655Y-91333388D01*
X58499655Y-91333388D02*
X58452036Y-91285769D01*
X58452036Y-91285769D02*
X58404417Y-91190531D01*
X58404417Y-91190531D02*
X58404417Y-91095293D01*
X58404417Y-91095293D02*
X58452036Y-91000055D01*
X58452036Y-91000055D02*
X58499655Y-90952436D01*
X58499655Y-90952436D02*
X58594893Y-90904817D01*
X58594893Y-90904817D02*
X58832988Y-90904817D01*
X58832988Y-90904817D02*
X58975845Y-90952436D01*
X59309179Y-90904817D02*
X59547274Y-91904817D01*
X59547274Y-91904817D02*
X59737750Y-91190531D01*
X59737750Y-91190531D02*
X59928226Y-91904817D01*
X59928226Y-91904817D02*
X60166322Y-90904817D01*
X60452036Y-90904817D02*
X61071083Y-90904817D01*
X61071083Y-90904817D02*
X60737750Y-91285769D01*
X60737750Y-91285769D02*
X60880607Y-91285769D01*
X60880607Y-91285769D02*
X60975845Y-91333388D01*
X60975845Y-91333388D02*
X61023464Y-91381007D01*
X61023464Y-91381007D02*
X61071083Y-91476245D01*
X61071083Y-91476245D02*
X61071083Y-91714340D01*
X61071083Y-91714340D02*
X61023464Y-91809578D01*
X61023464Y-91809578D02*
X60975845Y-91857198D01*
X60975845Y-91857198D02*
X60880607Y-91904817D01*
X60880607Y-91904817D02*
X60594893Y-91904817D01*
X60594893Y-91904817D02*
X60499655Y-91857198D01*
X60499655Y-91857198D02*
X60452036Y-91809578D01*
X110504819Y-59059523D02*
X109504819Y-59059523D01*
X109504819Y-59059523D02*
X109504819Y-58678571D01*
X109504819Y-58678571D02*
X109552438Y-58583333D01*
X109552438Y-58583333D02*
X109600057Y-58535714D01*
X109600057Y-58535714D02*
X109695295Y-58488095D01*
X109695295Y-58488095D02*
X109838152Y-58488095D01*
X109838152Y-58488095D02*
X109933390Y-58535714D01*
X109933390Y-58535714D02*
X109981009Y-58583333D01*
X109981009Y-58583333D02*
X110028628Y-58678571D01*
X110028628Y-58678571D02*
X110028628Y-59059523D01*
X109552438Y-57535714D02*
X109504819Y-57630952D01*
X109504819Y-57630952D02*
X109504819Y-57773809D01*
X109504819Y-57773809D02*
X109552438Y-57916666D01*
X109552438Y-57916666D02*
X109647676Y-58011904D01*
X109647676Y-58011904D02*
X109742914Y-58059523D01*
X109742914Y-58059523D02*
X109933390Y-58107142D01*
X109933390Y-58107142D02*
X110076247Y-58107142D01*
X110076247Y-58107142D02*
X110266723Y-58059523D01*
X110266723Y-58059523D02*
X110361961Y-58011904D01*
X110361961Y-58011904D02*
X110457200Y-57916666D01*
X110457200Y-57916666D02*
X110504819Y-57773809D01*
X110504819Y-57773809D02*
X110504819Y-57678571D01*
X110504819Y-57678571D02*
X110457200Y-57535714D01*
X110457200Y-57535714D02*
X110409580Y-57488095D01*
X110409580Y-57488095D02*
X110076247Y-57488095D01*
X110076247Y-57488095D02*
X110076247Y-57678571D01*
X109504819Y-56869047D02*
X109504819Y-56678571D01*
X109504819Y-56678571D02*
X109552438Y-56583333D01*
X109552438Y-56583333D02*
X109647676Y-56488095D01*
X109647676Y-56488095D02*
X109838152Y-56440476D01*
X109838152Y-56440476D02*
X110171485Y-56440476D01*
X110171485Y-56440476D02*
X110361961Y-56488095D01*
X110361961Y-56488095D02*
X110457200Y-56583333D01*
X110457200Y-56583333D02*
X110504819Y-56678571D01*
X110504819Y-56678571D02*
X110504819Y-56869047D01*
X110504819Y-56869047D02*
X110457200Y-56964285D01*
X110457200Y-56964285D02*
X110361961Y-57059523D01*
X110361961Y-57059523D02*
X110171485Y-57107142D01*
X110171485Y-57107142D02*
X109838152Y-57107142D01*
X109838152Y-57107142D02*
X109647676Y-57059523D01*
X109647676Y-57059523D02*
X109552438Y-56964285D01*
X109552438Y-56964285D02*
X109504819Y-56869047D01*
X109504819Y-55821428D02*
X109504819Y-55630952D01*
X109504819Y-55630952D02*
X109552438Y-55535714D01*
X109552438Y-55535714D02*
X109647676Y-55440476D01*
X109647676Y-55440476D02*
X109838152Y-55392857D01*
X109838152Y-55392857D02*
X110171485Y-55392857D01*
X110171485Y-55392857D02*
X110361961Y-55440476D01*
X110361961Y-55440476D02*
X110457200Y-55535714D01*
X110457200Y-55535714D02*
X110504819Y-55630952D01*
X110504819Y-55630952D02*
X110504819Y-55821428D01*
X110504819Y-55821428D02*
X110457200Y-55916666D01*
X110457200Y-55916666D02*
X110361961Y-56011904D01*
X110361961Y-56011904D02*
X110171485Y-56059523D01*
X110171485Y-56059523D02*
X109838152Y-56059523D01*
X109838152Y-56059523D02*
X109647676Y-56011904D01*
X109647676Y-56011904D02*
X109552438Y-55916666D01*
X109552438Y-55916666D02*
X109504819Y-55821428D01*
X110504819Y-54964285D02*
X109504819Y-54964285D01*
X109504819Y-54964285D02*
X109504819Y-54726190D01*
X109504819Y-54726190D02*
X109552438Y-54583333D01*
X109552438Y-54583333D02*
X109647676Y-54488095D01*
X109647676Y-54488095D02*
X109742914Y-54440476D01*
X109742914Y-54440476D02*
X109933390Y-54392857D01*
X109933390Y-54392857D02*
X110076247Y-54392857D01*
X110076247Y-54392857D02*
X110266723Y-54440476D01*
X110266723Y-54440476D02*
X110361961Y-54488095D01*
X110361961Y-54488095D02*
X110457200Y-54583333D01*
X110457200Y-54583333D02*
X110504819Y-54726190D01*
X110504819Y-54726190D02*
X110504819Y-54964285D01*
X107595834Y-96084819D02*
X107262501Y-95608628D01*
X107024406Y-96084819D02*
X107024406Y-95084819D01*
X107024406Y-95084819D02*
X107405358Y-95084819D01*
X107405358Y-95084819D02*
X107500596Y-95132438D01*
X107500596Y-95132438D02*
X107548215Y-95180057D01*
X107548215Y-95180057D02*
X107595834Y-95275295D01*
X107595834Y-95275295D02*
X107595834Y-95418152D01*
X107595834Y-95418152D02*
X107548215Y-95513390D01*
X107548215Y-95513390D02*
X107500596Y-95561009D01*
X107500596Y-95561009D02*
X107405358Y-95608628D01*
X107405358Y-95608628D02*
X107024406Y-95608628D01*
X108452977Y-95418152D02*
X108452977Y-96084819D01*
X108214882Y-95037200D02*
X107976787Y-95751485D01*
X107976787Y-95751485D02*
X108595834Y-95751485D01*
X112054819Y-69616666D02*
X111578628Y-69949999D01*
X112054819Y-70188094D02*
X111054819Y-70188094D01*
X111054819Y-70188094D02*
X111054819Y-69807142D01*
X111054819Y-69807142D02*
X111102438Y-69711904D01*
X111102438Y-69711904D02*
X111150057Y-69664285D01*
X111150057Y-69664285D02*
X111245295Y-69616666D01*
X111245295Y-69616666D02*
X111388152Y-69616666D01*
X111388152Y-69616666D02*
X111483390Y-69664285D01*
X111483390Y-69664285D02*
X111531009Y-69711904D01*
X111531009Y-69711904D02*
X111578628Y-69807142D01*
X111578628Y-69807142D02*
X111578628Y-70188094D01*
X111150057Y-69235713D02*
X111102438Y-69188094D01*
X111102438Y-69188094D02*
X111054819Y-69092856D01*
X111054819Y-69092856D02*
X111054819Y-68854761D01*
X111054819Y-68854761D02*
X111102438Y-68759523D01*
X111102438Y-68759523D02*
X111150057Y-68711904D01*
X111150057Y-68711904D02*
X111245295Y-68664285D01*
X111245295Y-68664285D02*
X111340533Y-68664285D01*
X111340533Y-68664285D02*
X111483390Y-68711904D01*
X111483390Y-68711904D02*
X112054819Y-69283332D01*
X112054819Y-69283332D02*
X112054819Y-68664285D01*
X63411905Y-83054819D02*
X63411905Y-82054819D01*
X63411905Y-82054819D02*
X63650000Y-82054819D01*
X63650000Y-82054819D02*
X63792857Y-82102438D01*
X63792857Y-82102438D02*
X63888095Y-82197676D01*
X63888095Y-82197676D02*
X63935714Y-82292914D01*
X63935714Y-82292914D02*
X63983333Y-82483390D01*
X63983333Y-82483390D02*
X63983333Y-82626247D01*
X63983333Y-82626247D02*
X63935714Y-82816723D01*
X63935714Y-82816723D02*
X63888095Y-82911961D01*
X63888095Y-82911961D02*
X63792857Y-83007200D01*
X63792857Y-83007200D02*
X63650000Y-83054819D01*
X63650000Y-83054819D02*
X63411905Y-83054819D01*
X64316667Y-82054819D02*
X64983333Y-82054819D01*
X64983333Y-82054819D02*
X64554762Y-83054819D01*
X104140477Y-86979818D02*
X104140477Y-85979818D01*
X104140477Y-85979818D02*
X104521429Y-85979818D01*
X104521429Y-85979818D02*
X104616667Y-86027437D01*
X104616667Y-86027437D02*
X104664286Y-86075056D01*
X104664286Y-86075056D02*
X104711905Y-86170294D01*
X104711905Y-86170294D02*
X104711905Y-86313151D01*
X104711905Y-86313151D02*
X104664286Y-86408389D01*
X104664286Y-86408389D02*
X104616667Y-86456008D01*
X104616667Y-86456008D02*
X104521429Y-86503627D01*
X104521429Y-86503627D02*
X104140477Y-86503627D01*
X105330953Y-85979818D02*
X105521429Y-85979818D01*
X105521429Y-85979818D02*
X105616667Y-86027437D01*
X105616667Y-86027437D02*
X105711905Y-86122675D01*
X105711905Y-86122675D02*
X105759524Y-86313151D01*
X105759524Y-86313151D02*
X105759524Y-86646484D01*
X105759524Y-86646484D02*
X105711905Y-86836960D01*
X105711905Y-86836960D02*
X105616667Y-86932199D01*
X105616667Y-86932199D02*
X105521429Y-86979818D01*
X105521429Y-86979818D02*
X105330953Y-86979818D01*
X105330953Y-86979818D02*
X105235715Y-86932199D01*
X105235715Y-86932199D02*
X105140477Y-86836960D01*
X105140477Y-86836960D02*
X105092858Y-86646484D01*
X105092858Y-86646484D02*
X105092858Y-86313151D01*
X105092858Y-86313151D02*
X105140477Y-86122675D01*
X105140477Y-86122675D02*
X105235715Y-86027437D01*
X105235715Y-86027437D02*
X105330953Y-85979818D01*
X106092858Y-85979818D02*
X106330953Y-86979818D01*
X106330953Y-86979818D02*
X106521429Y-86265532D01*
X106521429Y-86265532D02*
X106711905Y-86979818D01*
X106711905Y-86979818D02*
X106950001Y-85979818D01*
X107330953Y-86456008D02*
X107664286Y-86456008D01*
X107807143Y-86979818D02*
X107330953Y-86979818D01*
X107330953Y-86979818D02*
X107330953Y-85979818D01*
X107330953Y-85979818D02*
X107807143Y-85979818D01*
X108807143Y-86979818D02*
X108473810Y-86503627D01*
X108235715Y-86979818D02*
X108235715Y-85979818D01*
X108235715Y-85979818D02*
X108616667Y-85979818D01*
X108616667Y-85979818D02*
X108711905Y-86027437D01*
X108711905Y-86027437D02*
X108759524Y-86075056D01*
X108759524Y-86075056D02*
X108807143Y-86170294D01*
X108807143Y-86170294D02*
X108807143Y-86313151D01*
X108807143Y-86313151D02*
X108759524Y-86408389D01*
X108759524Y-86408389D02*
X108711905Y-86456008D01*
X108711905Y-86456008D02*
X108616667Y-86503627D01*
X108616667Y-86503627D02*
X108235715Y-86503627D01*
X95208333Y-52459580D02*
X95160714Y-52507200D01*
X95160714Y-52507200D02*
X95017857Y-52554819D01*
X95017857Y-52554819D02*
X94922619Y-52554819D01*
X94922619Y-52554819D02*
X94779762Y-52507200D01*
X94779762Y-52507200D02*
X94684524Y-52411961D01*
X94684524Y-52411961D02*
X94636905Y-52316723D01*
X94636905Y-52316723D02*
X94589286Y-52126247D01*
X94589286Y-52126247D02*
X94589286Y-51983390D01*
X94589286Y-51983390D02*
X94636905Y-51792914D01*
X94636905Y-51792914D02*
X94684524Y-51697676D01*
X94684524Y-51697676D02*
X94779762Y-51602438D01*
X94779762Y-51602438D02*
X94922619Y-51554819D01*
X94922619Y-51554819D02*
X95017857Y-51554819D01*
X95017857Y-51554819D02*
X95160714Y-51602438D01*
X95160714Y-51602438D02*
X95208333Y-51650057D01*
X95541667Y-51554819D02*
X96208333Y-51554819D01*
X96208333Y-51554819D02*
X95779762Y-52554819D01*
X74294819Y-91833333D02*
X75009104Y-91833333D01*
X75009104Y-91833333D02*
X75151961Y-91880952D01*
X75151961Y-91880952D02*
X75247200Y-91976190D01*
X75247200Y-91976190D02*
X75294819Y-92119047D01*
X75294819Y-92119047D02*
X75294819Y-92214285D01*
X74628152Y-90928571D02*
X75294819Y-90928571D01*
X74247200Y-91166666D02*
X74961485Y-91404761D01*
X74961485Y-91404761D02*
X74961485Y-90785714D01*
X104933333Y-92854819D02*
X104600000Y-92378628D01*
X104361905Y-92854819D02*
X104361905Y-91854819D01*
X104361905Y-91854819D02*
X104742857Y-91854819D01*
X104742857Y-91854819D02*
X104838095Y-91902438D01*
X104838095Y-91902438D02*
X104885714Y-91950057D01*
X104885714Y-91950057D02*
X104933333Y-92045295D01*
X104933333Y-92045295D02*
X104933333Y-92188152D01*
X104933333Y-92188152D02*
X104885714Y-92283390D01*
X104885714Y-92283390D02*
X104838095Y-92331009D01*
X104838095Y-92331009D02*
X104742857Y-92378628D01*
X104742857Y-92378628D02*
X104361905Y-92378628D01*
X105838095Y-91854819D02*
X105361905Y-91854819D01*
X105361905Y-91854819D02*
X105314286Y-92331009D01*
X105314286Y-92331009D02*
X105361905Y-92283390D01*
X105361905Y-92283390D02*
X105457143Y-92235771D01*
X105457143Y-92235771D02*
X105695238Y-92235771D01*
X105695238Y-92235771D02*
X105790476Y-92283390D01*
X105790476Y-92283390D02*
X105838095Y-92331009D01*
X105838095Y-92331009D02*
X105885714Y-92426247D01*
X105885714Y-92426247D02*
X105885714Y-92664342D01*
X105885714Y-92664342D02*
X105838095Y-92759580D01*
X105838095Y-92759580D02*
X105790476Y-92807200D01*
X105790476Y-92807200D02*
X105695238Y-92854819D01*
X105695238Y-92854819D02*
X105457143Y-92854819D01*
X105457143Y-92854819D02*
X105361905Y-92807200D01*
X105361905Y-92807200D02*
X105314286Y-92759580D01*
X108011905Y-63904819D02*
X108011905Y-62904819D01*
X108011905Y-62904819D02*
X108250000Y-62904819D01*
X108250000Y-62904819D02*
X108392857Y-62952438D01*
X108392857Y-62952438D02*
X108488095Y-63047676D01*
X108488095Y-63047676D02*
X108535714Y-63142914D01*
X108535714Y-63142914D02*
X108583333Y-63333390D01*
X108583333Y-63333390D02*
X108583333Y-63476247D01*
X108583333Y-63476247D02*
X108535714Y-63666723D01*
X108535714Y-63666723D02*
X108488095Y-63761961D01*
X108488095Y-63761961D02*
X108392857Y-63857200D01*
X108392857Y-63857200D02*
X108250000Y-63904819D01*
X108250000Y-63904819D02*
X108011905Y-63904819D01*
X109440476Y-63238152D02*
X109440476Y-63904819D01*
X109202381Y-62857200D02*
X108964286Y-63571485D01*
X108964286Y-63571485D02*
X109583333Y-63571485D01*
X99459580Y-98092857D02*
X99507200Y-98140476D01*
X99507200Y-98140476D02*
X99554819Y-98283333D01*
X99554819Y-98283333D02*
X99554819Y-98378571D01*
X99554819Y-98378571D02*
X99507200Y-98521428D01*
X99507200Y-98521428D02*
X99411961Y-98616666D01*
X99411961Y-98616666D02*
X99316723Y-98664285D01*
X99316723Y-98664285D02*
X99126247Y-98711904D01*
X99126247Y-98711904D02*
X98983390Y-98711904D01*
X98983390Y-98711904D02*
X98792914Y-98664285D01*
X98792914Y-98664285D02*
X98697676Y-98616666D01*
X98697676Y-98616666D02*
X98602438Y-98521428D01*
X98602438Y-98521428D02*
X98554819Y-98378571D01*
X98554819Y-98378571D02*
X98554819Y-98283333D01*
X98554819Y-98283333D02*
X98602438Y-98140476D01*
X98602438Y-98140476D02*
X98650057Y-98092857D01*
X99554819Y-97140476D02*
X99554819Y-97711904D01*
X99554819Y-97426190D02*
X98554819Y-97426190D01*
X98554819Y-97426190D02*
X98697676Y-97521428D01*
X98697676Y-97521428D02*
X98792914Y-97616666D01*
X98792914Y-97616666D02*
X98840533Y-97711904D01*
X98650057Y-96759523D02*
X98602438Y-96711904D01*
X98602438Y-96711904D02*
X98554819Y-96616666D01*
X98554819Y-96616666D02*
X98554819Y-96378571D01*
X98554819Y-96378571D02*
X98602438Y-96283333D01*
X98602438Y-96283333D02*
X98650057Y-96235714D01*
X98650057Y-96235714D02*
X98745295Y-96188095D01*
X98745295Y-96188095D02*
X98840533Y-96188095D01*
X98840533Y-96188095D02*
X98983390Y-96235714D01*
X98983390Y-96235714D02*
X99554819Y-96807142D01*
X99554819Y-96807142D02*
X99554819Y-96188095D01*
X70957142Y-102854819D02*
X70623809Y-102378628D01*
X70385714Y-102854819D02*
X70385714Y-101854819D01*
X70385714Y-101854819D02*
X70766666Y-101854819D01*
X70766666Y-101854819D02*
X70861904Y-101902438D01*
X70861904Y-101902438D02*
X70909523Y-101950057D01*
X70909523Y-101950057D02*
X70957142Y-102045295D01*
X70957142Y-102045295D02*
X70957142Y-102188152D01*
X70957142Y-102188152D02*
X70909523Y-102283390D01*
X70909523Y-102283390D02*
X70861904Y-102331009D01*
X70861904Y-102331009D02*
X70766666Y-102378628D01*
X70766666Y-102378628D02*
X70385714Y-102378628D01*
X71338095Y-101950057D02*
X71385714Y-101902438D01*
X71385714Y-101902438D02*
X71480952Y-101854819D01*
X71480952Y-101854819D02*
X71719047Y-101854819D01*
X71719047Y-101854819D02*
X71814285Y-101902438D01*
X71814285Y-101902438D02*
X71861904Y-101950057D01*
X71861904Y-101950057D02*
X71909523Y-102045295D01*
X71909523Y-102045295D02*
X71909523Y-102140533D01*
X71909523Y-102140533D02*
X71861904Y-102283390D01*
X71861904Y-102283390D02*
X71290476Y-102854819D01*
X71290476Y-102854819D02*
X71909523Y-102854819D01*
X72242857Y-101854819D02*
X72909523Y-101854819D01*
X72909523Y-101854819D02*
X72480952Y-102854819D01*
X98338095Y-50804819D02*
X98338095Y-51614342D01*
X98338095Y-51614342D02*
X98385714Y-51709580D01*
X98385714Y-51709580D02*
X98433333Y-51757200D01*
X98433333Y-51757200D02*
X98528571Y-51804819D01*
X98528571Y-51804819D02*
X98719047Y-51804819D01*
X98719047Y-51804819D02*
X98814285Y-51757200D01*
X98814285Y-51757200D02*
X98861904Y-51709580D01*
X98861904Y-51709580D02*
X98909523Y-51614342D01*
X98909523Y-51614342D02*
X98909523Y-50804819D01*
X99290476Y-50804819D02*
X99909523Y-50804819D01*
X99909523Y-50804819D02*
X99576190Y-51185771D01*
X99576190Y-51185771D02*
X99719047Y-51185771D01*
X99719047Y-51185771D02*
X99814285Y-51233390D01*
X99814285Y-51233390D02*
X99861904Y-51281009D01*
X99861904Y-51281009D02*
X99909523Y-51376247D01*
X99909523Y-51376247D02*
X99909523Y-51614342D01*
X99909523Y-51614342D02*
X99861904Y-51709580D01*
X99861904Y-51709580D02*
X99814285Y-51757200D01*
X99814285Y-51757200D02*
X99719047Y-51804819D01*
X99719047Y-51804819D02*
X99433333Y-51804819D01*
X99433333Y-51804819D02*
X99338095Y-51757200D01*
X99338095Y-51757200D02*
X99290476Y-51709580D01*
X68982142Y-88604819D02*
X68648809Y-88128628D01*
X68410714Y-88604819D02*
X68410714Y-87604819D01*
X68410714Y-87604819D02*
X68791666Y-87604819D01*
X68791666Y-87604819D02*
X68886904Y-87652438D01*
X68886904Y-87652438D02*
X68934523Y-87700057D01*
X68934523Y-87700057D02*
X68982142Y-87795295D01*
X68982142Y-87795295D02*
X68982142Y-87938152D01*
X68982142Y-87938152D02*
X68934523Y-88033390D01*
X68934523Y-88033390D02*
X68886904Y-88081009D01*
X68886904Y-88081009D02*
X68791666Y-88128628D01*
X68791666Y-88128628D02*
X68410714Y-88128628D01*
X69315476Y-87604819D02*
X69934523Y-87604819D01*
X69934523Y-87604819D02*
X69601190Y-87985771D01*
X69601190Y-87985771D02*
X69744047Y-87985771D01*
X69744047Y-87985771D02*
X69839285Y-88033390D01*
X69839285Y-88033390D02*
X69886904Y-88081009D01*
X69886904Y-88081009D02*
X69934523Y-88176247D01*
X69934523Y-88176247D02*
X69934523Y-88414342D01*
X69934523Y-88414342D02*
X69886904Y-88509580D01*
X69886904Y-88509580D02*
X69839285Y-88557200D01*
X69839285Y-88557200D02*
X69744047Y-88604819D01*
X69744047Y-88604819D02*
X69458333Y-88604819D01*
X69458333Y-88604819D02*
X69363095Y-88557200D01*
X69363095Y-88557200D02*
X69315476Y-88509580D01*
X70267857Y-87604819D02*
X70934523Y-87604819D01*
X70934523Y-87604819D02*
X70505952Y-88604819D01*
X86550000Y-59354819D02*
X86550000Y-58354819D01*
X87216666Y-58354819D02*
X87407142Y-58354819D01*
X87407142Y-58354819D02*
X87502380Y-58402438D01*
X87502380Y-58402438D02*
X87597618Y-58497676D01*
X87597618Y-58497676D02*
X87645237Y-58688152D01*
X87645237Y-58688152D02*
X87645237Y-59021485D01*
X87645237Y-59021485D02*
X87597618Y-59211961D01*
X87597618Y-59211961D02*
X87502380Y-59307200D01*
X87502380Y-59307200D02*
X87407142Y-59354819D01*
X87407142Y-59354819D02*
X87216666Y-59354819D01*
X87216666Y-59354819D02*
X87121428Y-59307200D01*
X87121428Y-59307200D02*
X87026190Y-59211961D01*
X87026190Y-59211961D02*
X86978571Y-59021485D01*
X86978571Y-59021485D02*
X86978571Y-58688152D01*
X86978571Y-58688152D02*
X87026190Y-58497676D01*
X87026190Y-58497676D02*
X87121428Y-58402438D01*
X87121428Y-58402438D02*
X87216666Y-58354819D01*
X88026190Y-58450057D02*
X88073809Y-58402438D01*
X88073809Y-58402438D02*
X88169047Y-58354819D01*
X88169047Y-58354819D02*
X88407142Y-58354819D01*
X88407142Y-58354819D02*
X88502380Y-58402438D01*
X88502380Y-58402438D02*
X88549999Y-58450057D01*
X88549999Y-58450057D02*
X88597618Y-58545295D01*
X88597618Y-58545295D02*
X88597618Y-58640533D01*
X88597618Y-58640533D02*
X88549999Y-58783390D01*
X88549999Y-58783390D02*
X87978571Y-59354819D01*
X87978571Y-59354819D02*
X88597618Y-59354819D01*
X100654819Y-60830115D02*
X100178628Y-61163448D01*
X100654819Y-61401543D02*
X99654819Y-61401543D01*
X99654819Y-61401543D02*
X99654819Y-61020591D01*
X99654819Y-61020591D02*
X99702438Y-60925353D01*
X99702438Y-60925353D02*
X99750057Y-60877734D01*
X99750057Y-60877734D02*
X99845295Y-60830115D01*
X99845295Y-60830115D02*
X99988152Y-60830115D01*
X99988152Y-60830115D02*
X100083390Y-60877734D01*
X100083390Y-60877734D02*
X100131009Y-60925353D01*
X100131009Y-60925353D02*
X100178628Y-61020591D01*
X100178628Y-61020591D02*
X100178628Y-61401543D01*
X100654819Y-59877734D02*
X100654819Y-60449162D01*
X100654819Y-60163448D02*
X99654819Y-60163448D01*
X99654819Y-60163448D02*
X99797676Y-60258686D01*
X99797676Y-60258686D02*
X99892914Y-60353924D01*
X99892914Y-60353924D02*
X99940533Y-60449162D01*
X99654819Y-59544400D02*
X99654819Y-58925353D01*
X99654819Y-58925353D02*
X100035771Y-59258686D01*
X100035771Y-59258686D02*
X100035771Y-59115829D01*
X100035771Y-59115829D02*
X100083390Y-59020591D01*
X100083390Y-59020591D02*
X100131009Y-58972972D01*
X100131009Y-58972972D02*
X100226247Y-58925353D01*
X100226247Y-58925353D02*
X100464342Y-58925353D01*
X100464342Y-58925353D02*
X100559580Y-58972972D01*
X100559580Y-58972972D02*
X100607200Y-59020591D01*
X100607200Y-59020591D02*
X100654819Y-59115829D01*
X100654819Y-59115829D02*
X100654819Y-59401543D01*
X100654819Y-59401543D02*
X100607200Y-59496781D01*
X100607200Y-59496781D02*
X100559580Y-59544400D01*
X74495180Y-69378572D02*
X75495180Y-69378572D01*
X75495180Y-69378572D02*
X74780895Y-69711905D01*
X74780895Y-69711905D02*
X75495180Y-70045238D01*
X75495180Y-70045238D02*
X74495180Y-70045238D01*
X75495180Y-70711905D02*
X75495180Y-70902381D01*
X75495180Y-70902381D02*
X75447561Y-70997619D01*
X75447561Y-70997619D02*
X75352323Y-71092857D01*
X75352323Y-71092857D02*
X75161847Y-71140476D01*
X75161847Y-71140476D02*
X74828514Y-71140476D01*
X74828514Y-71140476D02*
X74638038Y-71092857D01*
X74638038Y-71092857D02*
X74542800Y-70997619D01*
X74542800Y-70997619D02*
X74495180Y-70902381D01*
X74495180Y-70902381D02*
X74495180Y-70711905D01*
X74495180Y-70711905D02*
X74542800Y-70616667D01*
X74542800Y-70616667D02*
X74638038Y-70521429D01*
X74638038Y-70521429D02*
X74828514Y-70473810D01*
X74828514Y-70473810D02*
X75161847Y-70473810D01*
X75161847Y-70473810D02*
X75352323Y-70521429D01*
X75352323Y-70521429D02*
X75447561Y-70616667D01*
X75447561Y-70616667D02*
X75495180Y-70711905D01*
X74542800Y-71521429D02*
X74495180Y-71664286D01*
X74495180Y-71664286D02*
X74495180Y-71902381D01*
X74495180Y-71902381D02*
X74542800Y-71997619D01*
X74542800Y-71997619D02*
X74590419Y-72045238D01*
X74590419Y-72045238D02*
X74685657Y-72092857D01*
X74685657Y-72092857D02*
X74780895Y-72092857D01*
X74780895Y-72092857D02*
X74876133Y-72045238D01*
X74876133Y-72045238D02*
X74923752Y-71997619D01*
X74923752Y-71997619D02*
X74971371Y-71902381D01*
X74971371Y-71902381D02*
X75018990Y-71711905D01*
X75018990Y-71711905D02*
X75066609Y-71616667D01*
X75066609Y-71616667D02*
X75114228Y-71569048D01*
X75114228Y-71569048D02*
X75209466Y-71521429D01*
X75209466Y-71521429D02*
X75304704Y-71521429D01*
X75304704Y-71521429D02*
X75399942Y-71569048D01*
X75399942Y-71569048D02*
X75447561Y-71616667D01*
X75447561Y-71616667D02*
X75495180Y-71711905D01*
X75495180Y-71711905D02*
X75495180Y-71950000D01*
X75495180Y-71950000D02*
X75447561Y-72092857D01*
X74495180Y-72521429D02*
X75495180Y-72521429D01*
X80683333Y-51909580D02*
X80635714Y-51957200D01*
X80635714Y-51957200D02*
X80492857Y-52004819D01*
X80492857Y-52004819D02*
X80397619Y-52004819D01*
X80397619Y-52004819D02*
X80254762Y-51957200D01*
X80254762Y-51957200D02*
X80159524Y-51861961D01*
X80159524Y-51861961D02*
X80111905Y-51766723D01*
X80111905Y-51766723D02*
X80064286Y-51576247D01*
X80064286Y-51576247D02*
X80064286Y-51433390D01*
X80064286Y-51433390D02*
X80111905Y-51242914D01*
X80111905Y-51242914D02*
X80159524Y-51147676D01*
X80159524Y-51147676D02*
X80254762Y-51052438D01*
X80254762Y-51052438D02*
X80397619Y-51004819D01*
X80397619Y-51004819D02*
X80492857Y-51004819D01*
X80492857Y-51004819D02*
X80635714Y-51052438D01*
X80635714Y-51052438D02*
X80683333Y-51100057D01*
X81540476Y-51004819D02*
X81350000Y-51004819D01*
X81350000Y-51004819D02*
X81254762Y-51052438D01*
X81254762Y-51052438D02*
X81207143Y-51100057D01*
X81207143Y-51100057D02*
X81111905Y-51242914D01*
X81111905Y-51242914D02*
X81064286Y-51433390D01*
X81064286Y-51433390D02*
X81064286Y-51814342D01*
X81064286Y-51814342D02*
X81111905Y-51909580D01*
X81111905Y-51909580D02*
X81159524Y-51957200D01*
X81159524Y-51957200D02*
X81254762Y-52004819D01*
X81254762Y-52004819D02*
X81445238Y-52004819D01*
X81445238Y-52004819D02*
X81540476Y-51957200D01*
X81540476Y-51957200D02*
X81588095Y-51909580D01*
X81588095Y-51909580D02*
X81635714Y-51814342D01*
X81635714Y-51814342D02*
X81635714Y-51576247D01*
X81635714Y-51576247D02*
X81588095Y-51481009D01*
X81588095Y-51481009D02*
X81540476Y-51433390D01*
X81540476Y-51433390D02*
X81445238Y-51385771D01*
X81445238Y-51385771D02*
X81254762Y-51385771D01*
X81254762Y-51385771D02*
X81159524Y-51433390D01*
X81159524Y-51433390D02*
X81111905Y-51481009D01*
X81111905Y-51481009D02*
X81064286Y-51576247D01*
X91807142Y-57354819D02*
X91473809Y-56878628D01*
X91235714Y-57354819D02*
X91235714Y-56354819D01*
X91235714Y-56354819D02*
X91616666Y-56354819D01*
X91616666Y-56354819D02*
X91711904Y-56402438D01*
X91711904Y-56402438D02*
X91759523Y-56450057D01*
X91759523Y-56450057D02*
X91807142Y-56545295D01*
X91807142Y-56545295D02*
X91807142Y-56688152D01*
X91807142Y-56688152D02*
X91759523Y-56783390D01*
X91759523Y-56783390D02*
X91711904Y-56831009D01*
X91711904Y-56831009D02*
X91616666Y-56878628D01*
X91616666Y-56878628D02*
X91235714Y-56878628D01*
X92759523Y-57354819D02*
X92188095Y-57354819D01*
X92473809Y-57354819D02*
X92473809Y-56354819D01*
X92473809Y-56354819D02*
X92378571Y-56497676D01*
X92378571Y-56497676D02*
X92283333Y-56592914D01*
X92283333Y-56592914D02*
X92188095Y-56640533D01*
X93235714Y-57354819D02*
X93426190Y-57354819D01*
X93426190Y-57354819D02*
X93521428Y-57307200D01*
X93521428Y-57307200D02*
X93569047Y-57259580D01*
X93569047Y-57259580D02*
X93664285Y-57116723D01*
X93664285Y-57116723D02*
X93711904Y-56926247D01*
X93711904Y-56926247D02*
X93711904Y-56545295D01*
X93711904Y-56545295D02*
X93664285Y-56450057D01*
X93664285Y-56450057D02*
X93616666Y-56402438D01*
X93616666Y-56402438D02*
X93521428Y-56354819D01*
X93521428Y-56354819D02*
X93330952Y-56354819D01*
X93330952Y-56354819D02*
X93235714Y-56402438D01*
X93235714Y-56402438D02*
X93188095Y-56450057D01*
X93188095Y-56450057D02*
X93140476Y-56545295D01*
X93140476Y-56545295D02*
X93140476Y-56783390D01*
X93140476Y-56783390D02*
X93188095Y-56878628D01*
X93188095Y-56878628D02*
X93235714Y-56926247D01*
X93235714Y-56926247D02*
X93330952Y-56973866D01*
X93330952Y-56973866D02*
X93521428Y-56973866D01*
X93521428Y-56973866D02*
X93616666Y-56926247D01*
X93616666Y-56926247D02*
X93664285Y-56878628D01*
X93664285Y-56878628D02*
X93711904Y-56783390D01*
X72395180Y-69378572D02*
X73395180Y-69378572D01*
X73395180Y-69378572D02*
X72680895Y-69711905D01*
X72680895Y-69711905D02*
X73395180Y-70045238D01*
X73395180Y-70045238D02*
X72395180Y-70045238D01*
X72395180Y-70521429D02*
X73395180Y-70521429D01*
X72442800Y-70950000D02*
X72395180Y-71092857D01*
X72395180Y-71092857D02*
X72395180Y-71330952D01*
X72395180Y-71330952D02*
X72442800Y-71426190D01*
X72442800Y-71426190D02*
X72490419Y-71473809D01*
X72490419Y-71473809D02*
X72585657Y-71521428D01*
X72585657Y-71521428D02*
X72680895Y-71521428D01*
X72680895Y-71521428D02*
X72776133Y-71473809D01*
X72776133Y-71473809D02*
X72823752Y-71426190D01*
X72823752Y-71426190D02*
X72871371Y-71330952D01*
X72871371Y-71330952D02*
X72918990Y-71140476D01*
X72918990Y-71140476D02*
X72966609Y-71045238D01*
X72966609Y-71045238D02*
X73014228Y-70997619D01*
X73014228Y-70997619D02*
X73109466Y-70950000D01*
X73109466Y-70950000D02*
X73204704Y-70950000D01*
X73204704Y-70950000D02*
X73299942Y-70997619D01*
X73299942Y-70997619D02*
X73347561Y-71045238D01*
X73347561Y-71045238D02*
X73395180Y-71140476D01*
X73395180Y-71140476D02*
X73395180Y-71378571D01*
X73395180Y-71378571D02*
X73347561Y-71521428D01*
X73395180Y-72140476D02*
X73395180Y-72330952D01*
X73395180Y-72330952D02*
X73347561Y-72426190D01*
X73347561Y-72426190D02*
X73252323Y-72521428D01*
X73252323Y-72521428D02*
X73061847Y-72569047D01*
X73061847Y-72569047D02*
X72728514Y-72569047D01*
X72728514Y-72569047D02*
X72538038Y-72521428D01*
X72538038Y-72521428D02*
X72442800Y-72426190D01*
X72442800Y-72426190D02*
X72395180Y-72330952D01*
X72395180Y-72330952D02*
X72395180Y-72140476D01*
X72395180Y-72140476D02*
X72442800Y-72045238D01*
X72442800Y-72045238D02*
X72538038Y-71950000D01*
X72538038Y-71950000D02*
X72728514Y-71902381D01*
X72728514Y-71902381D02*
X73061847Y-71902381D01*
X73061847Y-71902381D02*
X73252323Y-71950000D01*
X73252323Y-71950000D02*
X73347561Y-72045238D01*
X73347561Y-72045238D02*
X73395180Y-72140476D01*
X69379819Y-85842857D02*
X68903628Y-86176190D01*
X69379819Y-86414285D02*
X68379819Y-86414285D01*
X68379819Y-86414285D02*
X68379819Y-86033333D01*
X68379819Y-86033333D02*
X68427438Y-85938095D01*
X68427438Y-85938095D02*
X68475057Y-85890476D01*
X68475057Y-85890476D02*
X68570295Y-85842857D01*
X68570295Y-85842857D02*
X68713152Y-85842857D01*
X68713152Y-85842857D02*
X68808390Y-85890476D01*
X68808390Y-85890476D02*
X68856009Y-85938095D01*
X68856009Y-85938095D02*
X68903628Y-86033333D01*
X68903628Y-86033333D02*
X68903628Y-86414285D01*
X68379819Y-85509523D02*
X68379819Y-84890476D01*
X68379819Y-84890476D02*
X68760771Y-85223809D01*
X68760771Y-85223809D02*
X68760771Y-85080952D01*
X68760771Y-85080952D02*
X68808390Y-84985714D01*
X68808390Y-84985714D02*
X68856009Y-84938095D01*
X68856009Y-84938095D02*
X68951247Y-84890476D01*
X68951247Y-84890476D02*
X69189342Y-84890476D01*
X69189342Y-84890476D02*
X69284580Y-84938095D01*
X69284580Y-84938095D02*
X69332200Y-84985714D01*
X69332200Y-84985714D02*
X69379819Y-85080952D01*
X69379819Y-85080952D02*
X69379819Y-85366666D01*
X69379819Y-85366666D02*
X69332200Y-85461904D01*
X69332200Y-85461904D02*
X69284580Y-85509523D01*
X68808390Y-84319047D02*
X68760771Y-84414285D01*
X68760771Y-84414285D02*
X68713152Y-84461904D01*
X68713152Y-84461904D02*
X68617914Y-84509523D01*
X68617914Y-84509523D02*
X68570295Y-84509523D01*
X68570295Y-84509523D02*
X68475057Y-84461904D01*
X68475057Y-84461904D02*
X68427438Y-84414285D01*
X68427438Y-84414285D02*
X68379819Y-84319047D01*
X68379819Y-84319047D02*
X68379819Y-84128571D01*
X68379819Y-84128571D02*
X68427438Y-84033333D01*
X68427438Y-84033333D02*
X68475057Y-83985714D01*
X68475057Y-83985714D02*
X68570295Y-83938095D01*
X68570295Y-83938095D02*
X68617914Y-83938095D01*
X68617914Y-83938095D02*
X68713152Y-83985714D01*
X68713152Y-83985714D02*
X68760771Y-84033333D01*
X68760771Y-84033333D02*
X68808390Y-84128571D01*
X68808390Y-84128571D02*
X68808390Y-84319047D01*
X68808390Y-84319047D02*
X68856009Y-84414285D01*
X68856009Y-84414285D02*
X68903628Y-84461904D01*
X68903628Y-84461904D02*
X68998866Y-84509523D01*
X68998866Y-84509523D02*
X69189342Y-84509523D01*
X69189342Y-84509523D02*
X69284580Y-84461904D01*
X69284580Y-84461904D02*
X69332200Y-84414285D01*
X69332200Y-84414285D02*
X69379819Y-84319047D01*
X69379819Y-84319047D02*
X69379819Y-84128571D01*
X69379819Y-84128571D02*
X69332200Y-84033333D01*
X69332200Y-84033333D02*
X69284580Y-83985714D01*
X69284580Y-83985714D02*
X69189342Y-83938095D01*
X69189342Y-83938095D02*
X68998866Y-83938095D01*
X68998866Y-83938095D02*
X68903628Y-83985714D01*
X68903628Y-83985714D02*
X68856009Y-84033333D01*
X68856009Y-84033333D02*
X68808390Y-84128571D01*
X70907142Y-101059580D02*
X70859523Y-101107200D01*
X70859523Y-101107200D02*
X70716666Y-101154819D01*
X70716666Y-101154819D02*
X70621428Y-101154819D01*
X70621428Y-101154819D02*
X70478571Y-101107200D01*
X70478571Y-101107200D02*
X70383333Y-101011961D01*
X70383333Y-101011961D02*
X70335714Y-100916723D01*
X70335714Y-100916723D02*
X70288095Y-100726247D01*
X70288095Y-100726247D02*
X70288095Y-100583390D01*
X70288095Y-100583390D02*
X70335714Y-100392914D01*
X70335714Y-100392914D02*
X70383333Y-100297676D01*
X70383333Y-100297676D02*
X70478571Y-100202438D01*
X70478571Y-100202438D02*
X70621428Y-100154819D01*
X70621428Y-100154819D02*
X70716666Y-100154819D01*
X70716666Y-100154819D02*
X70859523Y-100202438D01*
X70859523Y-100202438D02*
X70907142Y-100250057D01*
X71859523Y-101154819D02*
X71288095Y-101154819D01*
X71573809Y-101154819D02*
X71573809Y-100154819D01*
X71573809Y-100154819D02*
X71478571Y-100297676D01*
X71478571Y-100297676D02*
X71383333Y-100392914D01*
X71383333Y-100392914D02*
X71288095Y-100440533D01*
X72192857Y-100154819D02*
X72811904Y-100154819D01*
X72811904Y-100154819D02*
X72478571Y-100535771D01*
X72478571Y-100535771D02*
X72621428Y-100535771D01*
X72621428Y-100535771D02*
X72716666Y-100583390D01*
X72716666Y-100583390D02*
X72764285Y-100631009D01*
X72764285Y-100631009D02*
X72811904Y-100726247D01*
X72811904Y-100726247D02*
X72811904Y-100964342D01*
X72811904Y-100964342D02*
X72764285Y-101059580D01*
X72764285Y-101059580D02*
X72716666Y-101107200D01*
X72716666Y-101107200D02*
X72621428Y-101154819D01*
X72621428Y-101154819D02*
X72335714Y-101154819D01*
X72335714Y-101154819D02*
X72240476Y-101107200D01*
X72240476Y-101107200D02*
X72192857Y-101059580D01*
X88678571Y-54254819D02*
X88202381Y-54254819D01*
X88202381Y-54254819D02*
X88202381Y-53254819D01*
X89011905Y-54254819D02*
X89011905Y-53254819D01*
X89011905Y-53254819D02*
X89250000Y-53254819D01*
X89250000Y-53254819D02*
X89392857Y-53302438D01*
X89392857Y-53302438D02*
X89488095Y-53397676D01*
X89488095Y-53397676D02*
X89535714Y-53492914D01*
X89535714Y-53492914D02*
X89583333Y-53683390D01*
X89583333Y-53683390D02*
X89583333Y-53826247D01*
X89583333Y-53826247D02*
X89535714Y-54016723D01*
X89535714Y-54016723D02*
X89488095Y-54111961D01*
X89488095Y-54111961D02*
X89392857Y-54207200D01*
X89392857Y-54207200D02*
X89250000Y-54254819D01*
X89250000Y-54254819D02*
X89011905Y-54254819D01*
X90202381Y-53254819D02*
X90392857Y-53254819D01*
X90392857Y-53254819D02*
X90488095Y-53302438D01*
X90488095Y-53302438D02*
X90583333Y-53397676D01*
X90583333Y-53397676D02*
X90630952Y-53588152D01*
X90630952Y-53588152D02*
X90630952Y-53921485D01*
X90630952Y-53921485D02*
X90583333Y-54111961D01*
X90583333Y-54111961D02*
X90488095Y-54207200D01*
X90488095Y-54207200D02*
X90392857Y-54254819D01*
X90392857Y-54254819D02*
X90202381Y-54254819D01*
X90202381Y-54254819D02*
X90107143Y-54207200D01*
X90107143Y-54207200D02*
X90011905Y-54111961D01*
X90011905Y-54111961D02*
X89964286Y-53921485D01*
X89964286Y-53921485D02*
X89964286Y-53588152D01*
X89964286Y-53588152D02*
X90011905Y-53397676D01*
X90011905Y-53397676D02*
X90107143Y-53302438D01*
X90107143Y-53302438D02*
X90202381Y-53254819D01*
X90821429Y-54350057D02*
X91583333Y-54350057D01*
X91821429Y-53731009D02*
X92154762Y-53731009D01*
X92297619Y-54254819D02*
X91821429Y-54254819D01*
X91821429Y-54254819D02*
X91821429Y-53254819D01*
X91821429Y-53254819D02*
X92297619Y-53254819D01*
X92726191Y-54254819D02*
X92726191Y-53254819D01*
X92726191Y-53254819D02*
X93297619Y-54254819D01*
X93297619Y-54254819D02*
X93297619Y-53254819D01*
X110404761Y-100150057D02*
X110309523Y-100102438D01*
X110309523Y-100102438D02*
X110214285Y-100007200D01*
X110214285Y-100007200D02*
X110071428Y-99864342D01*
X110071428Y-99864342D02*
X109976190Y-99816723D01*
X109976190Y-99816723D02*
X109880952Y-99816723D01*
X109928571Y-100054819D02*
X109833333Y-100007200D01*
X109833333Y-100007200D02*
X109738095Y-99911961D01*
X109738095Y-99911961D02*
X109690476Y-99721485D01*
X109690476Y-99721485D02*
X109690476Y-99388152D01*
X109690476Y-99388152D02*
X109738095Y-99197676D01*
X109738095Y-99197676D02*
X109833333Y-99102438D01*
X109833333Y-99102438D02*
X109928571Y-99054819D01*
X109928571Y-99054819D02*
X110119047Y-99054819D01*
X110119047Y-99054819D02*
X110214285Y-99102438D01*
X110214285Y-99102438D02*
X110309523Y-99197676D01*
X110309523Y-99197676D02*
X110357142Y-99388152D01*
X110357142Y-99388152D02*
X110357142Y-99721485D01*
X110357142Y-99721485D02*
X110309523Y-99911961D01*
X110309523Y-99911961D02*
X110214285Y-100007200D01*
X110214285Y-100007200D02*
X110119047Y-100054819D01*
X110119047Y-100054819D02*
X109928571Y-100054819D01*
X111309523Y-100054819D02*
X110738095Y-100054819D01*
X111023809Y-100054819D02*
X111023809Y-99054819D01*
X111023809Y-99054819D02*
X110928571Y-99197676D01*
X110928571Y-99197676D02*
X110833333Y-99292914D01*
X110833333Y-99292914D02*
X110738095Y-99340533D01*
X58204419Y-101007198D02*
X58347276Y-101054817D01*
X58347276Y-101054817D02*
X58585371Y-101054817D01*
X58585371Y-101054817D02*
X58680609Y-101007198D01*
X58680609Y-101007198D02*
X58728228Y-100959578D01*
X58728228Y-100959578D02*
X58775847Y-100864340D01*
X58775847Y-100864340D02*
X58775847Y-100769102D01*
X58775847Y-100769102D02*
X58728228Y-100673864D01*
X58728228Y-100673864D02*
X58680609Y-100626245D01*
X58680609Y-100626245D02*
X58585371Y-100578626D01*
X58585371Y-100578626D02*
X58394895Y-100531007D01*
X58394895Y-100531007D02*
X58299657Y-100483388D01*
X58299657Y-100483388D02*
X58252038Y-100435769D01*
X58252038Y-100435769D02*
X58204419Y-100340531D01*
X58204419Y-100340531D02*
X58204419Y-100245293D01*
X58204419Y-100245293D02*
X58252038Y-100150055D01*
X58252038Y-100150055D02*
X58299657Y-100102436D01*
X58299657Y-100102436D02*
X58394895Y-100054817D01*
X58394895Y-100054817D02*
X58632990Y-100054817D01*
X58632990Y-100054817D02*
X58775847Y-100102436D01*
X59109181Y-100054817D02*
X59347276Y-101054817D01*
X59347276Y-101054817D02*
X59537752Y-100340531D01*
X59537752Y-100340531D02*
X59728228Y-101054817D01*
X59728228Y-101054817D02*
X59966324Y-100054817D01*
X60299657Y-100150055D02*
X60347276Y-100102436D01*
X60347276Y-100102436D02*
X60442514Y-100054817D01*
X60442514Y-100054817D02*
X60680609Y-100054817D01*
X60680609Y-100054817D02*
X60775847Y-100102436D01*
X60775847Y-100102436D02*
X60823466Y-100150055D01*
X60823466Y-100150055D02*
X60871085Y-100245293D01*
X60871085Y-100245293D02*
X60871085Y-100340531D01*
X60871085Y-100340531D02*
X60823466Y-100483388D01*
X60823466Y-100483388D02*
X60252038Y-101054817D01*
X60252038Y-101054817D02*
X60871085Y-101054817D01*
X106885714Y-54909580D02*
X106838095Y-54957200D01*
X106838095Y-54957200D02*
X106695238Y-55004819D01*
X106695238Y-55004819D02*
X106600000Y-55004819D01*
X106600000Y-55004819D02*
X106457143Y-54957200D01*
X106457143Y-54957200D02*
X106361905Y-54861961D01*
X106361905Y-54861961D02*
X106314286Y-54766723D01*
X106314286Y-54766723D02*
X106266667Y-54576247D01*
X106266667Y-54576247D02*
X106266667Y-54433390D01*
X106266667Y-54433390D02*
X106314286Y-54242914D01*
X106314286Y-54242914D02*
X106361905Y-54147676D01*
X106361905Y-54147676D02*
X106457143Y-54052438D01*
X106457143Y-54052438D02*
X106600000Y-54004819D01*
X106600000Y-54004819D02*
X106695238Y-54004819D01*
X106695238Y-54004819D02*
X106838095Y-54052438D01*
X106838095Y-54052438D02*
X106885714Y-54100057D01*
X107314286Y-55004819D02*
X107314286Y-54004819D01*
X107314286Y-54481009D02*
X107885714Y-54481009D01*
X107885714Y-55004819D02*
X107885714Y-54004819D01*
X108885714Y-54052438D02*
X108790476Y-54004819D01*
X108790476Y-54004819D02*
X108647619Y-54004819D01*
X108647619Y-54004819D02*
X108504762Y-54052438D01*
X108504762Y-54052438D02*
X108409524Y-54147676D01*
X108409524Y-54147676D02*
X108361905Y-54242914D01*
X108361905Y-54242914D02*
X108314286Y-54433390D01*
X108314286Y-54433390D02*
X108314286Y-54576247D01*
X108314286Y-54576247D02*
X108361905Y-54766723D01*
X108361905Y-54766723D02*
X108409524Y-54861961D01*
X108409524Y-54861961D02*
X108504762Y-54957200D01*
X108504762Y-54957200D02*
X108647619Y-55004819D01*
X108647619Y-55004819D02*
X108742857Y-55004819D01*
X108742857Y-55004819D02*
X108885714Y-54957200D01*
X108885714Y-54957200D02*
X108933333Y-54909580D01*
X108933333Y-54909580D02*
X108933333Y-54576247D01*
X108933333Y-54576247D02*
X108742857Y-54576247D01*
X110009580Y-61104164D02*
X110057200Y-61151783D01*
X110057200Y-61151783D02*
X110104819Y-61294640D01*
X110104819Y-61294640D02*
X110104819Y-61389878D01*
X110104819Y-61389878D02*
X110057200Y-61532735D01*
X110057200Y-61532735D02*
X109961961Y-61627973D01*
X109961961Y-61627973D02*
X109866723Y-61675592D01*
X109866723Y-61675592D02*
X109676247Y-61723211D01*
X109676247Y-61723211D02*
X109533390Y-61723211D01*
X109533390Y-61723211D02*
X109342914Y-61675592D01*
X109342914Y-61675592D02*
X109247676Y-61627973D01*
X109247676Y-61627973D02*
X109152438Y-61532735D01*
X109152438Y-61532735D02*
X109104819Y-61389878D01*
X109104819Y-61389878D02*
X109104819Y-61294640D01*
X109104819Y-61294640D02*
X109152438Y-61151783D01*
X109152438Y-61151783D02*
X109200057Y-61104164D01*
X110104819Y-60151783D02*
X110104819Y-60723211D01*
X110104819Y-60437497D02*
X109104819Y-60437497D01*
X109104819Y-60437497D02*
X109247676Y-60532735D01*
X109247676Y-60532735D02*
X109342914Y-60627973D01*
X109342914Y-60627973D02*
X109390533Y-60723211D01*
X101512322Y-60761904D02*
X102321845Y-60761904D01*
X102321845Y-60761904D02*
X102417083Y-60714285D01*
X102417083Y-60714285D02*
X102464703Y-60666666D01*
X102464703Y-60666666D02*
X102512322Y-60571428D01*
X102512322Y-60571428D02*
X102512322Y-60380952D01*
X102512322Y-60380952D02*
X102464703Y-60285714D01*
X102464703Y-60285714D02*
X102417083Y-60238095D01*
X102417083Y-60238095D02*
X102321845Y-60190476D01*
X102321845Y-60190476D02*
X101512322Y-60190476D01*
X101607560Y-59761904D02*
X101559941Y-59714285D01*
X101559941Y-59714285D02*
X101512322Y-59619047D01*
X101512322Y-59619047D02*
X101512322Y-59380952D01*
X101512322Y-59380952D02*
X101559941Y-59285714D01*
X101559941Y-59285714D02*
X101607560Y-59238095D01*
X101607560Y-59238095D02*
X101702798Y-59190476D01*
X101702798Y-59190476D02*
X101798036Y-59190476D01*
X101798036Y-59190476D02*
X101940893Y-59238095D01*
X101940893Y-59238095D02*
X102512322Y-59809523D01*
X102512322Y-59809523D02*
X102512322Y-59190476D01*
X69209580Y-55701085D02*
X69257200Y-55748704D01*
X69257200Y-55748704D02*
X69304819Y-55891561D01*
X69304819Y-55891561D02*
X69304819Y-55986799D01*
X69304819Y-55986799D02*
X69257200Y-56129656D01*
X69257200Y-56129656D02*
X69161961Y-56224894D01*
X69161961Y-56224894D02*
X69066723Y-56272513D01*
X69066723Y-56272513D02*
X68876247Y-56320132D01*
X68876247Y-56320132D02*
X68733390Y-56320132D01*
X68733390Y-56320132D02*
X68542914Y-56272513D01*
X68542914Y-56272513D02*
X68447676Y-56224894D01*
X68447676Y-56224894D02*
X68352438Y-56129656D01*
X68352438Y-56129656D02*
X68304819Y-55986799D01*
X68304819Y-55986799D02*
X68304819Y-55891561D01*
X68304819Y-55891561D02*
X68352438Y-55748704D01*
X68352438Y-55748704D02*
X68400057Y-55701085D01*
X68733390Y-55129656D02*
X68685771Y-55224894D01*
X68685771Y-55224894D02*
X68638152Y-55272513D01*
X68638152Y-55272513D02*
X68542914Y-55320132D01*
X68542914Y-55320132D02*
X68495295Y-55320132D01*
X68495295Y-55320132D02*
X68400057Y-55272513D01*
X68400057Y-55272513D02*
X68352438Y-55224894D01*
X68352438Y-55224894D02*
X68304819Y-55129656D01*
X68304819Y-55129656D02*
X68304819Y-54939180D01*
X68304819Y-54939180D02*
X68352438Y-54843942D01*
X68352438Y-54843942D02*
X68400057Y-54796323D01*
X68400057Y-54796323D02*
X68495295Y-54748704D01*
X68495295Y-54748704D02*
X68542914Y-54748704D01*
X68542914Y-54748704D02*
X68638152Y-54796323D01*
X68638152Y-54796323D02*
X68685771Y-54843942D01*
X68685771Y-54843942D02*
X68733390Y-54939180D01*
X68733390Y-54939180D02*
X68733390Y-55129656D01*
X68733390Y-55129656D02*
X68781009Y-55224894D01*
X68781009Y-55224894D02*
X68828628Y-55272513D01*
X68828628Y-55272513D02*
X68923866Y-55320132D01*
X68923866Y-55320132D02*
X69114342Y-55320132D01*
X69114342Y-55320132D02*
X69209580Y-55272513D01*
X69209580Y-55272513D02*
X69257200Y-55224894D01*
X69257200Y-55224894D02*
X69304819Y-55129656D01*
X69304819Y-55129656D02*
X69304819Y-54939180D01*
X69304819Y-54939180D02*
X69257200Y-54843942D01*
X69257200Y-54843942D02*
X69209580Y-54796323D01*
X69209580Y-54796323D02*
X69114342Y-54748704D01*
X69114342Y-54748704D02*
X68923866Y-54748704D01*
X68923866Y-54748704D02*
X68828628Y-54796323D01*
X68828628Y-54796323D02*
X68781009Y-54843942D01*
X68781009Y-54843942D02*
X68733390Y-54939180D01*
X55882142Y-89954819D02*
X55548809Y-89478628D01*
X55310714Y-89954819D02*
X55310714Y-88954819D01*
X55310714Y-88954819D02*
X55691666Y-88954819D01*
X55691666Y-88954819D02*
X55786904Y-89002438D01*
X55786904Y-89002438D02*
X55834523Y-89050057D01*
X55834523Y-89050057D02*
X55882142Y-89145295D01*
X55882142Y-89145295D02*
X55882142Y-89288152D01*
X55882142Y-89288152D02*
X55834523Y-89383390D01*
X55834523Y-89383390D02*
X55786904Y-89431009D01*
X55786904Y-89431009D02*
X55691666Y-89478628D01*
X55691666Y-89478628D02*
X55310714Y-89478628D01*
X56215476Y-88954819D02*
X56834523Y-88954819D01*
X56834523Y-88954819D02*
X56501190Y-89335771D01*
X56501190Y-89335771D02*
X56644047Y-89335771D01*
X56644047Y-89335771D02*
X56739285Y-89383390D01*
X56739285Y-89383390D02*
X56786904Y-89431009D01*
X56786904Y-89431009D02*
X56834523Y-89526247D01*
X56834523Y-89526247D02*
X56834523Y-89764342D01*
X56834523Y-89764342D02*
X56786904Y-89859580D01*
X56786904Y-89859580D02*
X56739285Y-89907200D01*
X56739285Y-89907200D02*
X56644047Y-89954819D01*
X56644047Y-89954819D02*
X56358333Y-89954819D01*
X56358333Y-89954819D02*
X56263095Y-89907200D01*
X56263095Y-89907200D02*
X56215476Y-89859580D01*
X57691666Y-89288152D02*
X57691666Y-89954819D01*
X57453571Y-88907200D02*
X57215476Y-89621485D01*
X57215476Y-89621485D02*
X57834523Y-89621485D01*
X101307142Y-65204819D02*
X100973809Y-64728628D01*
X100735714Y-65204819D02*
X100735714Y-64204819D01*
X100735714Y-64204819D02*
X101116666Y-64204819D01*
X101116666Y-64204819D02*
X101211904Y-64252438D01*
X101211904Y-64252438D02*
X101259523Y-64300057D01*
X101259523Y-64300057D02*
X101307142Y-64395295D01*
X101307142Y-64395295D02*
X101307142Y-64538152D01*
X101307142Y-64538152D02*
X101259523Y-64633390D01*
X101259523Y-64633390D02*
X101211904Y-64681009D01*
X101211904Y-64681009D02*
X101116666Y-64728628D01*
X101116666Y-64728628D02*
X100735714Y-64728628D01*
X102259523Y-65204819D02*
X101688095Y-65204819D01*
X101973809Y-65204819D02*
X101973809Y-64204819D01*
X101973809Y-64204819D02*
X101878571Y-64347676D01*
X101878571Y-64347676D02*
X101783333Y-64442914D01*
X101783333Y-64442914D02*
X101688095Y-64490533D01*
X102640476Y-64300057D02*
X102688095Y-64252438D01*
X102688095Y-64252438D02*
X102783333Y-64204819D01*
X102783333Y-64204819D02*
X103021428Y-64204819D01*
X103021428Y-64204819D02*
X103116666Y-64252438D01*
X103116666Y-64252438D02*
X103164285Y-64300057D01*
X103164285Y-64300057D02*
X103211904Y-64395295D01*
X103211904Y-64395295D02*
X103211904Y-64490533D01*
X103211904Y-64490533D02*
X103164285Y-64633390D01*
X103164285Y-64633390D02*
X102592857Y-65204819D01*
X102592857Y-65204819D02*
X103211904Y-65204819D01*
X67595180Y-66961905D02*
X67595180Y-67533333D01*
X66595180Y-67247619D02*
X67595180Y-67247619D01*
X67595180Y-67771429D02*
X66595180Y-68438095D01*
X67595180Y-68438095D02*
X66595180Y-67771429D01*
X67118990Y-68819048D02*
X67118990Y-69152381D01*
X66595180Y-69295238D02*
X66595180Y-68819048D01*
X66595180Y-68819048D02*
X67595180Y-68819048D01*
X67595180Y-68819048D02*
X67595180Y-69295238D01*
X66595180Y-69723810D02*
X67595180Y-69723810D01*
X67595180Y-69723810D02*
X66595180Y-70295238D01*
X66595180Y-70295238D02*
X67595180Y-70295238D01*
X52582142Y-90004819D02*
X52248809Y-89528628D01*
X52010714Y-90004819D02*
X52010714Y-89004819D01*
X52010714Y-89004819D02*
X52391666Y-89004819D01*
X52391666Y-89004819D02*
X52486904Y-89052438D01*
X52486904Y-89052438D02*
X52534523Y-89100057D01*
X52534523Y-89100057D02*
X52582142Y-89195295D01*
X52582142Y-89195295D02*
X52582142Y-89338152D01*
X52582142Y-89338152D02*
X52534523Y-89433390D01*
X52534523Y-89433390D02*
X52486904Y-89481009D01*
X52486904Y-89481009D02*
X52391666Y-89528628D01*
X52391666Y-89528628D02*
X52010714Y-89528628D01*
X52915476Y-89004819D02*
X53534523Y-89004819D01*
X53534523Y-89004819D02*
X53201190Y-89385771D01*
X53201190Y-89385771D02*
X53344047Y-89385771D01*
X53344047Y-89385771D02*
X53439285Y-89433390D01*
X53439285Y-89433390D02*
X53486904Y-89481009D01*
X53486904Y-89481009D02*
X53534523Y-89576247D01*
X53534523Y-89576247D02*
X53534523Y-89814342D01*
X53534523Y-89814342D02*
X53486904Y-89909580D01*
X53486904Y-89909580D02*
X53439285Y-89957200D01*
X53439285Y-89957200D02*
X53344047Y-90004819D01*
X53344047Y-90004819D02*
X53058333Y-90004819D01*
X53058333Y-90004819D02*
X52963095Y-89957200D01*
X52963095Y-89957200D02*
X52915476Y-89909580D01*
X53867857Y-89004819D02*
X54486904Y-89004819D01*
X54486904Y-89004819D02*
X54153571Y-89385771D01*
X54153571Y-89385771D02*
X54296428Y-89385771D01*
X54296428Y-89385771D02*
X54391666Y-89433390D01*
X54391666Y-89433390D02*
X54439285Y-89481009D01*
X54439285Y-89481009D02*
X54486904Y-89576247D01*
X54486904Y-89576247D02*
X54486904Y-89814342D01*
X54486904Y-89814342D02*
X54439285Y-89909580D01*
X54439285Y-89909580D02*
X54391666Y-89957200D01*
X54391666Y-89957200D02*
X54296428Y-90004819D01*
X54296428Y-90004819D02*
X54010714Y-90004819D01*
X54010714Y-90004819D02*
X53915476Y-89957200D01*
X53915476Y-89957200D02*
X53867857Y-89909580D01*
X70354819Y-98852381D02*
X69878628Y-99185714D01*
X70354819Y-99423809D02*
X69354819Y-99423809D01*
X69354819Y-99423809D02*
X69354819Y-99042857D01*
X69354819Y-99042857D02*
X69402438Y-98947619D01*
X69402438Y-98947619D02*
X69450057Y-98900000D01*
X69450057Y-98900000D02*
X69545295Y-98852381D01*
X69545295Y-98852381D02*
X69688152Y-98852381D01*
X69688152Y-98852381D02*
X69783390Y-98900000D01*
X69783390Y-98900000D02*
X69831009Y-98947619D01*
X69831009Y-98947619D02*
X69878628Y-99042857D01*
X69878628Y-99042857D02*
X69878628Y-99423809D01*
X69831009Y-98423809D02*
X69831009Y-98090476D01*
X70354819Y-97947619D02*
X70354819Y-98423809D01*
X70354819Y-98423809D02*
X69354819Y-98423809D01*
X69354819Y-98423809D02*
X69354819Y-97947619D01*
X70307200Y-97566666D02*
X70354819Y-97423809D01*
X70354819Y-97423809D02*
X70354819Y-97185714D01*
X70354819Y-97185714D02*
X70307200Y-97090476D01*
X70307200Y-97090476D02*
X70259580Y-97042857D01*
X70259580Y-97042857D02*
X70164342Y-96995238D01*
X70164342Y-96995238D02*
X70069104Y-96995238D01*
X70069104Y-96995238D02*
X69973866Y-97042857D01*
X69973866Y-97042857D02*
X69926247Y-97090476D01*
X69926247Y-97090476D02*
X69878628Y-97185714D01*
X69878628Y-97185714D02*
X69831009Y-97376190D01*
X69831009Y-97376190D02*
X69783390Y-97471428D01*
X69783390Y-97471428D02*
X69735771Y-97519047D01*
X69735771Y-97519047D02*
X69640533Y-97566666D01*
X69640533Y-97566666D02*
X69545295Y-97566666D01*
X69545295Y-97566666D02*
X69450057Y-97519047D01*
X69450057Y-97519047D02*
X69402438Y-97471428D01*
X69402438Y-97471428D02*
X69354819Y-97376190D01*
X69354819Y-97376190D02*
X69354819Y-97138095D01*
X69354819Y-97138095D02*
X69402438Y-96995238D01*
X69831009Y-96566666D02*
X69831009Y-96233333D01*
X70354819Y-96090476D02*
X70354819Y-96566666D01*
X70354819Y-96566666D02*
X69354819Y-96566666D01*
X69354819Y-96566666D02*
X69354819Y-96090476D01*
X69354819Y-95804761D02*
X69354819Y-95233333D01*
X70354819Y-95519047D02*
X69354819Y-95519047D01*
X112924819Y-60392857D02*
X112448628Y-60726190D01*
X112924819Y-60964285D02*
X111924819Y-60964285D01*
X111924819Y-60964285D02*
X111924819Y-60583333D01*
X111924819Y-60583333D02*
X111972438Y-60488095D01*
X111972438Y-60488095D02*
X112020057Y-60440476D01*
X112020057Y-60440476D02*
X112115295Y-60392857D01*
X112115295Y-60392857D02*
X112258152Y-60392857D01*
X112258152Y-60392857D02*
X112353390Y-60440476D01*
X112353390Y-60440476D02*
X112401009Y-60488095D01*
X112401009Y-60488095D02*
X112448628Y-60583333D01*
X112448628Y-60583333D02*
X112448628Y-60964285D01*
X112020057Y-60011904D02*
X111972438Y-59964285D01*
X111972438Y-59964285D02*
X111924819Y-59869047D01*
X111924819Y-59869047D02*
X111924819Y-59630952D01*
X111924819Y-59630952D02*
X111972438Y-59535714D01*
X111972438Y-59535714D02*
X112020057Y-59488095D01*
X112020057Y-59488095D02*
X112115295Y-59440476D01*
X112115295Y-59440476D02*
X112210533Y-59440476D01*
X112210533Y-59440476D02*
X112353390Y-59488095D01*
X112353390Y-59488095D02*
X112924819Y-60059523D01*
X112924819Y-60059523D02*
X112924819Y-59440476D01*
X112924819Y-58488095D02*
X112924819Y-59059523D01*
X112924819Y-58773809D02*
X111924819Y-58773809D01*
X111924819Y-58773809D02*
X112067676Y-58869047D01*
X112067676Y-58869047D02*
X112162914Y-58964285D01*
X112162914Y-58964285D02*
X112210533Y-59059523D01*
X71118990Y-69692857D02*
X71071371Y-69835714D01*
X71071371Y-69835714D02*
X71023752Y-69883333D01*
X71023752Y-69883333D02*
X70928514Y-69930952D01*
X70928514Y-69930952D02*
X70785657Y-69930952D01*
X70785657Y-69930952D02*
X70690419Y-69883333D01*
X70690419Y-69883333D02*
X70642800Y-69835714D01*
X70642800Y-69835714D02*
X70595180Y-69740476D01*
X70595180Y-69740476D02*
X70595180Y-69359524D01*
X70595180Y-69359524D02*
X71595180Y-69359524D01*
X71595180Y-69359524D02*
X71595180Y-69692857D01*
X71595180Y-69692857D02*
X71547561Y-69788095D01*
X71547561Y-69788095D02*
X71499942Y-69835714D01*
X71499942Y-69835714D02*
X71404704Y-69883333D01*
X71404704Y-69883333D02*
X71309466Y-69883333D01*
X71309466Y-69883333D02*
X71214228Y-69835714D01*
X71214228Y-69835714D02*
X71166609Y-69788095D01*
X71166609Y-69788095D02*
X71118990Y-69692857D01*
X71118990Y-69692857D02*
X71118990Y-69359524D01*
X71595180Y-70359524D02*
X70785657Y-70359524D01*
X70785657Y-70359524D02*
X70690419Y-70407143D01*
X70690419Y-70407143D02*
X70642800Y-70454762D01*
X70642800Y-70454762D02*
X70595180Y-70550000D01*
X70595180Y-70550000D02*
X70595180Y-70740476D01*
X70595180Y-70740476D02*
X70642800Y-70835714D01*
X70642800Y-70835714D02*
X70690419Y-70883333D01*
X70690419Y-70883333D02*
X70785657Y-70930952D01*
X70785657Y-70930952D02*
X71595180Y-70930952D01*
X70642800Y-71359524D02*
X70595180Y-71502381D01*
X70595180Y-71502381D02*
X70595180Y-71740476D01*
X70595180Y-71740476D02*
X70642800Y-71835714D01*
X70642800Y-71835714D02*
X70690419Y-71883333D01*
X70690419Y-71883333D02*
X70785657Y-71930952D01*
X70785657Y-71930952D02*
X70880895Y-71930952D01*
X70880895Y-71930952D02*
X70976133Y-71883333D01*
X70976133Y-71883333D02*
X71023752Y-71835714D01*
X71023752Y-71835714D02*
X71071371Y-71740476D01*
X71071371Y-71740476D02*
X71118990Y-71550000D01*
X71118990Y-71550000D02*
X71166609Y-71454762D01*
X71166609Y-71454762D02*
X71214228Y-71407143D01*
X71214228Y-71407143D02*
X71309466Y-71359524D01*
X71309466Y-71359524D02*
X71404704Y-71359524D01*
X71404704Y-71359524D02*
X71499942Y-71407143D01*
X71499942Y-71407143D02*
X71547561Y-71454762D01*
X71547561Y-71454762D02*
X71595180Y-71550000D01*
X71595180Y-71550000D02*
X71595180Y-71788095D01*
X71595180Y-71788095D02*
X71547561Y-71930952D01*
X71071371Y-72550000D02*
X70595180Y-72550000D01*
X71595180Y-72216667D02*
X71071371Y-72550000D01*
X71071371Y-72550000D02*
X71595180Y-72883333D01*
X78342800Y-69314286D02*
X78295180Y-69457143D01*
X78295180Y-69457143D02*
X78295180Y-69695238D01*
X78295180Y-69695238D02*
X78342800Y-69790476D01*
X78342800Y-69790476D02*
X78390419Y-69838095D01*
X78390419Y-69838095D02*
X78485657Y-69885714D01*
X78485657Y-69885714D02*
X78580895Y-69885714D01*
X78580895Y-69885714D02*
X78676133Y-69838095D01*
X78676133Y-69838095D02*
X78723752Y-69790476D01*
X78723752Y-69790476D02*
X78771371Y-69695238D01*
X78771371Y-69695238D02*
X78818990Y-69504762D01*
X78818990Y-69504762D02*
X78866609Y-69409524D01*
X78866609Y-69409524D02*
X78914228Y-69361905D01*
X78914228Y-69361905D02*
X79009466Y-69314286D01*
X79009466Y-69314286D02*
X79104704Y-69314286D01*
X79104704Y-69314286D02*
X79199942Y-69361905D01*
X79199942Y-69361905D02*
X79247561Y-69409524D01*
X79247561Y-69409524D02*
X79295180Y-69504762D01*
X79295180Y-69504762D02*
X79295180Y-69742857D01*
X79295180Y-69742857D02*
X79247561Y-69885714D01*
X78390419Y-70885714D02*
X78342800Y-70838095D01*
X78342800Y-70838095D02*
X78295180Y-70695238D01*
X78295180Y-70695238D02*
X78295180Y-70600000D01*
X78295180Y-70600000D02*
X78342800Y-70457143D01*
X78342800Y-70457143D02*
X78438038Y-70361905D01*
X78438038Y-70361905D02*
X78533276Y-70314286D01*
X78533276Y-70314286D02*
X78723752Y-70266667D01*
X78723752Y-70266667D02*
X78866609Y-70266667D01*
X78866609Y-70266667D02*
X79057085Y-70314286D01*
X79057085Y-70314286D02*
X79152323Y-70361905D01*
X79152323Y-70361905D02*
X79247561Y-70457143D01*
X79247561Y-70457143D02*
X79295180Y-70600000D01*
X79295180Y-70600000D02*
X79295180Y-70695238D01*
X79295180Y-70695238D02*
X79247561Y-70838095D01*
X79247561Y-70838095D02*
X79199942Y-70885714D01*
X78295180Y-71314286D02*
X79295180Y-71314286D01*
X78295180Y-71885714D02*
X78866609Y-71457143D01*
X79295180Y-71885714D02*
X78723752Y-71314286D01*
X79507142Y-82909580D02*
X79459523Y-82957200D01*
X79459523Y-82957200D02*
X79316666Y-83004819D01*
X79316666Y-83004819D02*
X79221428Y-83004819D01*
X79221428Y-83004819D02*
X79078571Y-82957200D01*
X79078571Y-82957200D02*
X78983333Y-82861961D01*
X78983333Y-82861961D02*
X78935714Y-82766723D01*
X78935714Y-82766723D02*
X78888095Y-82576247D01*
X78888095Y-82576247D02*
X78888095Y-82433390D01*
X78888095Y-82433390D02*
X78935714Y-82242914D01*
X78935714Y-82242914D02*
X78983333Y-82147676D01*
X78983333Y-82147676D02*
X79078571Y-82052438D01*
X79078571Y-82052438D02*
X79221428Y-82004819D01*
X79221428Y-82004819D02*
X79316666Y-82004819D01*
X79316666Y-82004819D02*
X79459523Y-82052438D01*
X79459523Y-82052438D02*
X79507142Y-82100057D01*
X80459523Y-83004819D02*
X79888095Y-83004819D01*
X80173809Y-83004819D02*
X80173809Y-82004819D01*
X80173809Y-82004819D02*
X80078571Y-82147676D01*
X80078571Y-82147676D02*
X79983333Y-82242914D01*
X79983333Y-82242914D02*
X79888095Y-82290533D01*
X81316666Y-82338152D02*
X81316666Y-83004819D01*
X81078571Y-81957200D02*
X80840476Y-82671485D01*
X80840476Y-82671485D02*
X81459523Y-82671485D01*
X88054819Y-85642857D02*
X87578628Y-85976190D01*
X88054819Y-86214285D02*
X87054819Y-86214285D01*
X87054819Y-86214285D02*
X87054819Y-85833333D01*
X87054819Y-85833333D02*
X87102438Y-85738095D01*
X87102438Y-85738095D02*
X87150057Y-85690476D01*
X87150057Y-85690476D02*
X87245295Y-85642857D01*
X87245295Y-85642857D02*
X87388152Y-85642857D01*
X87388152Y-85642857D02*
X87483390Y-85690476D01*
X87483390Y-85690476D02*
X87531009Y-85738095D01*
X87531009Y-85738095D02*
X87578628Y-85833333D01*
X87578628Y-85833333D02*
X87578628Y-86214285D01*
X87150057Y-85261904D02*
X87102438Y-85214285D01*
X87102438Y-85214285D02*
X87054819Y-85119047D01*
X87054819Y-85119047D02*
X87054819Y-84880952D01*
X87054819Y-84880952D02*
X87102438Y-84785714D01*
X87102438Y-84785714D02*
X87150057Y-84738095D01*
X87150057Y-84738095D02*
X87245295Y-84690476D01*
X87245295Y-84690476D02*
X87340533Y-84690476D01*
X87340533Y-84690476D02*
X87483390Y-84738095D01*
X87483390Y-84738095D02*
X88054819Y-85309523D01*
X88054819Y-85309523D02*
X88054819Y-84690476D01*
X87483390Y-84119047D02*
X87435771Y-84214285D01*
X87435771Y-84214285D02*
X87388152Y-84261904D01*
X87388152Y-84261904D02*
X87292914Y-84309523D01*
X87292914Y-84309523D02*
X87245295Y-84309523D01*
X87245295Y-84309523D02*
X87150057Y-84261904D01*
X87150057Y-84261904D02*
X87102438Y-84214285D01*
X87102438Y-84214285D02*
X87054819Y-84119047D01*
X87054819Y-84119047D02*
X87054819Y-83928571D01*
X87054819Y-83928571D02*
X87102438Y-83833333D01*
X87102438Y-83833333D02*
X87150057Y-83785714D01*
X87150057Y-83785714D02*
X87245295Y-83738095D01*
X87245295Y-83738095D02*
X87292914Y-83738095D01*
X87292914Y-83738095D02*
X87388152Y-83785714D01*
X87388152Y-83785714D02*
X87435771Y-83833333D01*
X87435771Y-83833333D02*
X87483390Y-83928571D01*
X87483390Y-83928571D02*
X87483390Y-84119047D01*
X87483390Y-84119047D02*
X87531009Y-84214285D01*
X87531009Y-84214285D02*
X87578628Y-84261904D01*
X87578628Y-84261904D02*
X87673866Y-84309523D01*
X87673866Y-84309523D02*
X87864342Y-84309523D01*
X87864342Y-84309523D02*
X87959580Y-84261904D01*
X87959580Y-84261904D02*
X88007200Y-84214285D01*
X88007200Y-84214285D02*
X88054819Y-84119047D01*
X88054819Y-84119047D02*
X88054819Y-83928571D01*
X88054819Y-83928571D02*
X88007200Y-83833333D01*
X88007200Y-83833333D02*
X87959580Y-83785714D01*
X87959580Y-83785714D02*
X87864342Y-83738095D01*
X87864342Y-83738095D02*
X87673866Y-83738095D01*
X87673866Y-83738095D02*
X87578628Y-83785714D01*
X87578628Y-83785714D02*
X87531009Y-83833333D01*
X87531009Y-83833333D02*
X87483390Y-83928571D01*
X97459580Y-98092857D02*
X97507200Y-98140476D01*
X97507200Y-98140476D02*
X97554819Y-98283333D01*
X97554819Y-98283333D02*
X97554819Y-98378571D01*
X97554819Y-98378571D02*
X97507200Y-98521428D01*
X97507200Y-98521428D02*
X97411961Y-98616666D01*
X97411961Y-98616666D02*
X97316723Y-98664285D01*
X97316723Y-98664285D02*
X97126247Y-98711904D01*
X97126247Y-98711904D02*
X96983390Y-98711904D01*
X96983390Y-98711904D02*
X96792914Y-98664285D01*
X96792914Y-98664285D02*
X96697676Y-98616666D01*
X96697676Y-98616666D02*
X96602438Y-98521428D01*
X96602438Y-98521428D02*
X96554819Y-98378571D01*
X96554819Y-98378571D02*
X96554819Y-98283333D01*
X96554819Y-98283333D02*
X96602438Y-98140476D01*
X96602438Y-98140476D02*
X96650057Y-98092857D01*
X97554819Y-97140476D02*
X97554819Y-97711904D01*
X97554819Y-97426190D02*
X96554819Y-97426190D01*
X96554819Y-97426190D02*
X96697676Y-97521428D01*
X96697676Y-97521428D02*
X96792914Y-97616666D01*
X96792914Y-97616666D02*
X96840533Y-97711904D01*
X97554819Y-96188095D02*
X97554819Y-96759523D01*
X97554819Y-96473809D02*
X96554819Y-96473809D01*
X96554819Y-96473809D02*
X96697676Y-96569047D01*
X96697676Y-96569047D02*
X96792914Y-96664285D01*
X96792914Y-96664285D02*
X96840533Y-96759523D01*
X108607142Y-76654819D02*
X108273809Y-76178628D01*
X108035714Y-76654819D02*
X108035714Y-75654819D01*
X108035714Y-75654819D02*
X108416666Y-75654819D01*
X108416666Y-75654819D02*
X108511904Y-75702438D01*
X108511904Y-75702438D02*
X108559523Y-75750057D01*
X108559523Y-75750057D02*
X108607142Y-75845295D01*
X108607142Y-75845295D02*
X108607142Y-75988152D01*
X108607142Y-75988152D02*
X108559523Y-76083390D01*
X108559523Y-76083390D02*
X108511904Y-76131009D01*
X108511904Y-76131009D02*
X108416666Y-76178628D01*
X108416666Y-76178628D02*
X108035714Y-76178628D01*
X109559523Y-76654819D02*
X108988095Y-76654819D01*
X109273809Y-76654819D02*
X109273809Y-75654819D01*
X109273809Y-75654819D02*
X109178571Y-75797676D01*
X109178571Y-75797676D02*
X109083333Y-75892914D01*
X109083333Y-75892914D02*
X108988095Y-75940533D01*
X110416666Y-75988152D02*
X110416666Y-76654819D01*
X110178571Y-75607200D02*
X109940476Y-76321485D01*
X109940476Y-76321485D02*
X110559523Y-76321485D01*
X116819047Y-90631009D02*
X116961904Y-90678628D01*
X116961904Y-90678628D02*
X117009523Y-90726247D01*
X117009523Y-90726247D02*
X117057142Y-90821485D01*
X117057142Y-90821485D02*
X117057142Y-90964342D01*
X117057142Y-90964342D02*
X117009523Y-91059580D01*
X117009523Y-91059580D02*
X116961904Y-91107200D01*
X116961904Y-91107200D02*
X116866666Y-91154819D01*
X116866666Y-91154819D02*
X116485714Y-91154819D01*
X116485714Y-91154819D02*
X116485714Y-90154819D01*
X116485714Y-90154819D02*
X116819047Y-90154819D01*
X116819047Y-90154819D02*
X116914285Y-90202438D01*
X116914285Y-90202438D02*
X116961904Y-90250057D01*
X116961904Y-90250057D02*
X117009523Y-90345295D01*
X117009523Y-90345295D02*
X117009523Y-90440533D01*
X117009523Y-90440533D02*
X116961904Y-90535771D01*
X116961904Y-90535771D02*
X116914285Y-90583390D01*
X116914285Y-90583390D02*
X116819047Y-90631009D01*
X116819047Y-90631009D02*
X116485714Y-90631009D01*
X117390476Y-90154819D02*
X118057142Y-90154819D01*
X118057142Y-90154819D02*
X117390476Y-91154819D01*
X117390476Y-91154819D02*
X118057142Y-91154819D01*
X118961904Y-91154819D02*
X118390476Y-91154819D01*
X118676190Y-91154819D02*
X118676190Y-90154819D01*
X118676190Y-90154819D02*
X118580952Y-90297676D01*
X118580952Y-90297676D02*
X118485714Y-90392914D01*
X118485714Y-90392914D02*
X118390476Y-90440533D01*
X109788095Y-64294819D02*
X109788095Y-65104342D01*
X109788095Y-65104342D02*
X109835714Y-65199580D01*
X109835714Y-65199580D02*
X109883333Y-65247200D01*
X109883333Y-65247200D02*
X109978571Y-65294819D01*
X109978571Y-65294819D02*
X110169047Y-65294819D01*
X110169047Y-65294819D02*
X110264285Y-65247200D01*
X110264285Y-65247200D02*
X110311904Y-65199580D01*
X110311904Y-65199580D02*
X110359523Y-65104342D01*
X110359523Y-65104342D02*
X110359523Y-64294819D01*
X111264285Y-64628152D02*
X111264285Y-65294819D01*
X111026190Y-64247200D02*
X110788095Y-64961485D01*
X110788095Y-64961485D02*
X111407142Y-64961485D01*
X104533333Y-54009580D02*
X104485714Y-54057200D01*
X104485714Y-54057200D02*
X104342857Y-54104819D01*
X104342857Y-54104819D02*
X104247619Y-54104819D01*
X104247619Y-54104819D02*
X104104762Y-54057200D01*
X104104762Y-54057200D02*
X104009524Y-53961961D01*
X104009524Y-53961961D02*
X103961905Y-53866723D01*
X103961905Y-53866723D02*
X103914286Y-53676247D01*
X103914286Y-53676247D02*
X103914286Y-53533390D01*
X103914286Y-53533390D02*
X103961905Y-53342914D01*
X103961905Y-53342914D02*
X104009524Y-53247676D01*
X104009524Y-53247676D02*
X104104762Y-53152438D01*
X104104762Y-53152438D02*
X104247619Y-53104819D01*
X104247619Y-53104819D02*
X104342857Y-53104819D01*
X104342857Y-53104819D02*
X104485714Y-53152438D01*
X104485714Y-53152438D02*
X104533333Y-53200057D01*
X104866667Y-53104819D02*
X105485714Y-53104819D01*
X105485714Y-53104819D02*
X105152381Y-53485771D01*
X105152381Y-53485771D02*
X105295238Y-53485771D01*
X105295238Y-53485771D02*
X105390476Y-53533390D01*
X105390476Y-53533390D02*
X105438095Y-53581009D01*
X105438095Y-53581009D02*
X105485714Y-53676247D01*
X105485714Y-53676247D02*
X105485714Y-53914342D01*
X105485714Y-53914342D02*
X105438095Y-54009580D01*
X105438095Y-54009580D02*
X105390476Y-54057200D01*
X105390476Y-54057200D02*
X105295238Y-54104819D01*
X105295238Y-54104819D02*
X105009524Y-54104819D01*
X105009524Y-54104819D02*
X104914286Y-54057200D01*
X104914286Y-54057200D02*
X104866667Y-54009580D01*
X108821075Y-70204819D02*
X108487742Y-69728628D01*
X108249647Y-70204819D02*
X108249647Y-69204819D01*
X108249647Y-69204819D02*
X108630599Y-69204819D01*
X108630599Y-69204819D02*
X108725837Y-69252438D01*
X108725837Y-69252438D02*
X108773456Y-69300057D01*
X108773456Y-69300057D02*
X108821075Y-69395295D01*
X108821075Y-69395295D02*
X108821075Y-69538152D01*
X108821075Y-69538152D02*
X108773456Y-69633390D01*
X108773456Y-69633390D02*
X108725837Y-69681009D01*
X108725837Y-69681009D02*
X108630599Y-69728628D01*
X108630599Y-69728628D02*
X108249647Y-69728628D01*
X109154409Y-69204819D02*
X109773456Y-69204819D01*
X109773456Y-69204819D02*
X109440123Y-69585771D01*
X109440123Y-69585771D02*
X109582980Y-69585771D01*
X109582980Y-69585771D02*
X109678218Y-69633390D01*
X109678218Y-69633390D02*
X109725837Y-69681009D01*
X109725837Y-69681009D02*
X109773456Y-69776247D01*
X109773456Y-69776247D02*
X109773456Y-70014342D01*
X109773456Y-70014342D02*
X109725837Y-70109580D01*
X109725837Y-70109580D02*
X109678218Y-70157200D01*
X109678218Y-70157200D02*
X109582980Y-70204819D01*
X109582980Y-70204819D02*
X109297266Y-70204819D01*
X109297266Y-70204819D02*
X109202028Y-70157200D01*
X109202028Y-70157200D02*
X109154409Y-70109580D01*
X106659578Y-64241666D02*
X106707198Y-64289285D01*
X106707198Y-64289285D02*
X106754817Y-64432142D01*
X106754817Y-64432142D02*
X106754817Y-64527380D01*
X106754817Y-64527380D02*
X106707198Y-64670237D01*
X106707198Y-64670237D02*
X106611959Y-64765475D01*
X106611959Y-64765475D02*
X106516721Y-64813094D01*
X106516721Y-64813094D02*
X106326245Y-64860713D01*
X106326245Y-64860713D02*
X106183388Y-64860713D01*
X106183388Y-64860713D02*
X105992912Y-64813094D01*
X105992912Y-64813094D02*
X105897674Y-64765475D01*
X105897674Y-64765475D02*
X105802436Y-64670237D01*
X105802436Y-64670237D02*
X105754817Y-64527380D01*
X105754817Y-64527380D02*
X105754817Y-64432142D01*
X105754817Y-64432142D02*
X105802436Y-64289285D01*
X105802436Y-64289285D02*
X105850055Y-64241666D01*
X105850055Y-63860713D02*
X105802436Y-63813094D01*
X105802436Y-63813094D02*
X105754817Y-63717856D01*
X105754817Y-63717856D02*
X105754817Y-63479761D01*
X105754817Y-63479761D02*
X105802436Y-63384523D01*
X105802436Y-63384523D02*
X105850055Y-63336904D01*
X105850055Y-63336904D02*
X105945293Y-63289285D01*
X105945293Y-63289285D02*
X106040531Y-63289285D01*
X106040531Y-63289285D02*
X106183388Y-63336904D01*
X106183388Y-63336904D02*
X106754817Y-63908332D01*
X106754817Y-63908332D02*
X106754817Y-63289285D01*
X99154819Y-63342857D02*
X98678628Y-63676190D01*
X99154819Y-63914285D02*
X98154819Y-63914285D01*
X98154819Y-63914285D02*
X98154819Y-63533333D01*
X98154819Y-63533333D02*
X98202438Y-63438095D01*
X98202438Y-63438095D02*
X98250057Y-63390476D01*
X98250057Y-63390476D02*
X98345295Y-63342857D01*
X98345295Y-63342857D02*
X98488152Y-63342857D01*
X98488152Y-63342857D02*
X98583390Y-63390476D01*
X98583390Y-63390476D02*
X98631009Y-63438095D01*
X98631009Y-63438095D02*
X98678628Y-63533333D01*
X98678628Y-63533333D02*
X98678628Y-63914285D01*
X99154819Y-62390476D02*
X99154819Y-62961904D01*
X99154819Y-62676190D02*
X98154819Y-62676190D01*
X98154819Y-62676190D02*
X98297676Y-62771428D01*
X98297676Y-62771428D02*
X98392914Y-62866666D01*
X98392914Y-62866666D02*
X98440533Y-62961904D01*
X98154819Y-61533333D02*
X98154819Y-61723809D01*
X98154819Y-61723809D02*
X98202438Y-61819047D01*
X98202438Y-61819047D02*
X98250057Y-61866666D01*
X98250057Y-61866666D02*
X98392914Y-61961904D01*
X98392914Y-61961904D02*
X98583390Y-62009523D01*
X98583390Y-62009523D02*
X98964342Y-62009523D01*
X98964342Y-62009523D02*
X99059580Y-61961904D01*
X99059580Y-61961904D02*
X99107200Y-61914285D01*
X99107200Y-61914285D02*
X99154819Y-61819047D01*
X99154819Y-61819047D02*
X99154819Y-61628571D01*
X99154819Y-61628571D02*
X99107200Y-61533333D01*
X99107200Y-61533333D02*
X99059580Y-61485714D01*
X99059580Y-61485714D02*
X98964342Y-61438095D01*
X98964342Y-61438095D02*
X98726247Y-61438095D01*
X98726247Y-61438095D02*
X98631009Y-61485714D01*
X98631009Y-61485714D02*
X98583390Y-61533333D01*
X98583390Y-61533333D02*
X98535771Y-61628571D01*
X98535771Y-61628571D02*
X98535771Y-61819047D01*
X98535771Y-61819047D02*
X98583390Y-61914285D01*
X98583390Y-61914285D02*
X98631009Y-61961904D01*
X98631009Y-61961904D02*
X98726247Y-62009523D01*
X53411905Y-82904818D02*
X53411905Y-81904818D01*
X53411905Y-81904818D02*
X53650000Y-81904818D01*
X53650000Y-81904818D02*
X53792857Y-81952437D01*
X53792857Y-81952437D02*
X53888095Y-82047675D01*
X53888095Y-82047675D02*
X53935714Y-82142913D01*
X53935714Y-82142913D02*
X53983333Y-82333389D01*
X53983333Y-82333389D02*
X53983333Y-82476246D01*
X53983333Y-82476246D02*
X53935714Y-82666722D01*
X53935714Y-82666722D02*
X53888095Y-82761960D01*
X53888095Y-82761960D02*
X53792857Y-82857199D01*
X53792857Y-82857199D02*
X53650000Y-82904818D01*
X53650000Y-82904818D02*
X53411905Y-82904818D01*
X54840476Y-81904818D02*
X54650000Y-81904818D01*
X54650000Y-81904818D02*
X54554762Y-81952437D01*
X54554762Y-81952437D02*
X54507143Y-82000056D01*
X54507143Y-82000056D02*
X54411905Y-82142913D01*
X54411905Y-82142913D02*
X54364286Y-82333389D01*
X54364286Y-82333389D02*
X54364286Y-82714341D01*
X54364286Y-82714341D02*
X54411905Y-82809579D01*
X54411905Y-82809579D02*
X54459524Y-82857199D01*
X54459524Y-82857199D02*
X54554762Y-82904818D01*
X54554762Y-82904818D02*
X54745238Y-82904818D01*
X54745238Y-82904818D02*
X54840476Y-82857199D01*
X54840476Y-82857199D02*
X54888095Y-82809579D01*
X54888095Y-82809579D02*
X54935714Y-82714341D01*
X54935714Y-82714341D02*
X54935714Y-82476246D01*
X54935714Y-82476246D02*
X54888095Y-82381008D01*
X54888095Y-82381008D02*
X54840476Y-82333389D01*
X54840476Y-82333389D02*
X54745238Y-82285770D01*
X54745238Y-82285770D02*
X54554762Y-82285770D01*
X54554762Y-82285770D02*
X54459524Y-82333389D01*
X54459524Y-82333389D02*
X54411905Y-82381008D01*
X54411905Y-82381008D02*
X54364286Y-82476246D01*
X102209580Y-56216666D02*
X102257200Y-56264285D01*
X102257200Y-56264285D02*
X102304819Y-56407142D01*
X102304819Y-56407142D02*
X102304819Y-56502380D01*
X102304819Y-56502380D02*
X102257200Y-56645237D01*
X102257200Y-56645237D02*
X102161961Y-56740475D01*
X102161961Y-56740475D02*
X102066723Y-56788094D01*
X102066723Y-56788094D02*
X101876247Y-56835713D01*
X101876247Y-56835713D02*
X101733390Y-56835713D01*
X101733390Y-56835713D02*
X101542914Y-56788094D01*
X101542914Y-56788094D02*
X101447676Y-56740475D01*
X101447676Y-56740475D02*
X101352438Y-56645237D01*
X101352438Y-56645237D02*
X101304819Y-56502380D01*
X101304819Y-56502380D02*
X101304819Y-56407142D01*
X101304819Y-56407142D02*
X101352438Y-56264285D01*
X101352438Y-56264285D02*
X101400057Y-56216666D01*
X101638152Y-55359523D02*
X102304819Y-55359523D01*
X101257200Y-55597618D02*
X101971485Y-55835713D01*
X101971485Y-55835713D02*
X101971485Y-55216666D01*
X105159580Y-51916666D02*
X105207200Y-51964285D01*
X105207200Y-51964285D02*
X105254819Y-52107142D01*
X105254819Y-52107142D02*
X105254819Y-52202380D01*
X105254819Y-52202380D02*
X105207200Y-52345237D01*
X105207200Y-52345237D02*
X105111961Y-52440475D01*
X105111961Y-52440475D02*
X105016723Y-52488094D01*
X105016723Y-52488094D02*
X104826247Y-52535713D01*
X104826247Y-52535713D02*
X104683390Y-52535713D01*
X104683390Y-52535713D02*
X104492914Y-52488094D01*
X104492914Y-52488094D02*
X104397676Y-52440475D01*
X104397676Y-52440475D02*
X104302438Y-52345237D01*
X104302438Y-52345237D02*
X104254819Y-52202380D01*
X104254819Y-52202380D02*
X104254819Y-52107142D01*
X104254819Y-52107142D02*
X104302438Y-51964285D01*
X104302438Y-51964285D02*
X104350057Y-51916666D01*
X104254819Y-51011904D02*
X104254819Y-51488094D01*
X104254819Y-51488094D02*
X104731009Y-51535713D01*
X104731009Y-51535713D02*
X104683390Y-51488094D01*
X104683390Y-51488094D02*
X104635771Y-51392856D01*
X104635771Y-51392856D02*
X104635771Y-51154761D01*
X104635771Y-51154761D02*
X104683390Y-51059523D01*
X104683390Y-51059523D02*
X104731009Y-51011904D01*
X104731009Y-51011904D02*
X104826247Y-50964285D01*
X104826247Y-50964285D02*
X105064342Y-50964285D01*
X105064342Y-50964285D02*
X105159580Y-51011904D01*
X105159580Y-51011904D02*
X105207200Y-51059523D01*
X105207200Y-51059523D02*
X105254819Y-51154761D01*
X105254819Y-51154761D02*
X105254819Y-51392856D01*
X105254819Y-51392856D02*
X105207200Y-51488094D01*
X105207200Y-51488094D02*
X105159580Y-51535713D01*
X59482142Y-88504819D02*
X59148809Y-88028628D01*
X58910714Y-88504819D02*
X58910714Y-87504819D01*
X58910714Y-87504819D02*
X59291666Y-87504819D01*
X59291666Y-87504819D02*
X59386904Y-87552438D01*
X59386904Y-87552438D02*
X59434523Y-87600057D01*
X59434523Y-87600057D02*
X59482142Y-87695295D01*
X59482142Y-87695295D02*
X59482142Y-87838152D01*
X59482142Y-87838152D02*
X59434523Y-87933390D01*
X59434523Y-87933390D02*
X59386904Y-87981009D01*
X59386904Y-87981009D02*
X59291666Y-88028628D01*
X59291666Y-88028628D02*
X58910714Y-88028628D01*
X59815476Y-87504819D02*
X60434523Y-87504819D01*
X60434523Y-87504819D02*
X60101190Y-87885771D01*
X60101190Y-87885771D02*
X60244047Y-87885771D01*
X60244047Y-87885771D02*
X60339285Y-87933390D01*
X60339285Y-87933390D02*
X60386904Y-87981009D01*
X60386904Y-87981009D02*
X60434523Y-88076247D01*
X60434523Y-88076247D02*
X60434523Y-88314342D01*
X60434523Y-88314342D02*
X60386904Y-88409580D01*
X60386904Y-88409580D02*
X60339285Y-88457200D01*
X60339285Y-88457200D02*
X60244047Y-88504819D01*
X60244047Y-88504819D02*
X59958333Y-88504819D01*
X59958333Y-88504819D02*
X59863095Y-88457200D01*
X59863095Y-88457200D02*
X59815476Y-88409580D01*
X61291666Y-87504819D02*
X61101190Y-87504819D01*
X61101190Y-87504819D02*
X61005952Y-87552438D01*
X61005952Y-87552438D02*
X60958333Y-87600057D01*
X60958333Y-87600057D02*
X60863095Y-87742914D01*
X60863095Y-87742914D02*
X60815476Y-87933390D01*
X60815476Y-87933390D02*
X60815476Y-88314342D01*
X60815476Y-88314342D02*
X60863095Y-88409580D01*
X60863095Y-88409580D02*
X60910714Y-88457200D01*
X60910714Y-88457200D02*
X61005952Y-88504819D01*
X61005952Y-88504819D02*
X61196428Y-88504819D01*
X61196428Y-88504819D02*
X61291666Y-88457200D01*
X61291666Y-88457200D02*
X61339285Y-88409580D01*
X61339285Y-88409580D02*
X61386904Y-88314342D01*
X61386904Y-88314342D02*
X61386904Y-88076247D01*
X61386904Y-88076247D02*
X61339285Y-87981009D01*
X61339285Y-87981009D02*
X61291666Y-87933390D01*
X61291666Y-87933390D02*
X61196428Y-87885771D01*
X61196428Y-87885771D02*
X61005952Y-87885771D01*
X61005952Y-87885771D02*
X60910714Y-87933390D01*
X60910714Y-87933390D02*
X60863095Y-87981009D01*
X60863095Y-87981009D02*
X60815476Y-88076247D01*
X86550000Y-61204819D02*
X86550000Y-60204819D01*
X87216666Y-60204819D02*
X87407142Y-60204819D01*
X87407142Y-60204819D02*
X87502380Y-60252438D01*
X87502380Y-60252438D02*
X87597618Y-60347676D01*
X87597618Y-60347676D02*
X87645237Y-60538152D01*
X87645237Y-60538152D02*
X87645237Y-60871485D01*
X87645237Y-60871485D02*
X87597618Y-61061961D01*
X87597618Y-61061961D02*
X87502380Y-61157200D01*
X87502380Y-61157200D02*
X87407142Y-61204819D01*
X87407142Y-61204819D02*
X87216666Y-61204819D01*
X87216666Y-61204819D02*
X87121428Y-61157200D01*
X87121428Y-61157200D02*
X87026190Y-61061961D01*
X87026190Y-61061961D02*
X86978571Y-60871485D01*
X86978571Y-60871485D02*
X86978571Y-60538152D01*
X86978571Y-60538152D02*
X87026190Y-60347676D01*
X87026190Y-60347676D02*
X87121428Y-60252438D01*
X87121428Y-60252438D02*
X87216666Y-60204819D01*
X88597618Y-61204819D02*
X88026190Y-61204819D01*
X88311904Y-61204819D02*
X88311904Y-60204819D01*
X88311904Y-60204819D02*
X88216666Y-60347676D01*
X88216666Y-60347676D02*
X88121428Y-60442914D01*
X88121428Y-60442914D02*
X88026190Y-60490533D01*
X110611905Y-90304819D02*
X110611905Y-89304819D01*
X110611905Y-89304819D02*
X110850000Y-89304819D01*
X110850000Y-89304819D02*
X110992857Y-89352438D01*
X110992857Y-89352438D02*
X111088095Y-89447676D01*
X111088095Y-89447676D02*
X111135714Y-89542914D01*
X111135714Y-89542914D02*
X111183333Y-89733390D01*
X111183333Y-89733390D02*
X111183333Y-89876247D01*
X111183333Y-89876247D02*
X111135714Y-90066723D01*
X111135714Y-90066723D02*
X111088095Y-90161961D01*
X111088095Y-90161961D02*
X110992857Y-90257200D01*
X110992857Y-90257200D02*
X110850000Y-90304819D01*
X110850000Y-90304819D02*
X110611905Y-90304819D01*
X112088095Y-89304819D02*
X111611905Y-89304819D01*
X111611905Y-89304819D02*
X111564286Y-89781009D01*
X111564286Y-89781009D02*
X111611905Y-89733390D01*
X111611905Y-89733390D02*
X111707143Y-89685771D01*
X111707143Y-89685771D02*
X111945238Y-89685771D01*
X111945238Y-89685771D02*
X112040476Y-89733390D01*
X112040476Y-89733390D02*
X112088095Y-89781009D01*
X112088095Y-89781009D02*
X112135714Y-89876247D01*
X112135714Y-89876247D02*
X112135714Y-90114342D01*
X112135714Y-90114342D02*
X112088095Y-90209580D01*
X112088095Y-90209580D02*
X112040476Y-90257200D01*
X112040476Y-90257200D02*
X111945238Y-90304819D01*
X111945238Y-90304819D02*
X111707143Y-90304819D01*
X111707143Y-90304819D02*
X111611905Y-90257200D01*
X111611905Y-90257200D02*
X111564286Y-90209580D01*
X64057142Y-58454819D02*
X63723809Y-57978628D01*
X63485714Y-58454819D02*
X63485714Y-57454819D01*
X63485714Y-57454819D02*
X63866666Y-57454819D01*
X63866666Y-57454819D02*
X63961904Y-57502438D01*
X63961904Y-57502438D02*
X64009523Y-57550057D01*
X64009523Y-57550057D02*
X64057142Y-57645295D01*
X64057142Y-57645295D02*
X64057142Y-57788152D01*
X64057142Y-57788152D02*
X64009523Y-57883390D01*
X64009523Y-57883390D02*
X63961904Y-57931009D01*
X63961904Y-57931009D02*
X63866666Y-57978628D01*
X63866666Y-57978628D02*
X63485714Y-57978628D01*
X64438095Y-57550057D02*
X64485714Y-57502438D01*
X64485714Y-57502438D02*
X64580952Y-57454819D01*
X64580952Y-57454819D02*
X64819047Y-57454819D01*
X64819047Y-57454819D02*
X64914285Y-57502438D01*
X64914285Y-57502438D02*
X64961904Y-57550057D01*
X64961904Y-57550057D02*
X65009523Y-57645295D01*
X65009523Y-57645295D02*
X65009523Y-57740533D01*
X65009523Y-57740533D02*
X64961904Y-57883390D01*
X64961904Y-57883390D02*
X64390476Y-58454819D01*
X64390476Y-58454819D02*
X65009523Y-58454819D01*
X65914285Y-57454819D02*
X65438095Y-57454819D01*
X65438095Y-57454819D02*
X65390476Y-57931009D01*
X65390476Y-57931009D02*
X65438095Y-57883390D01*
X65438095Y-57883390D02*
X65533333Y-57835771D01*
X65533333Y-57835771D02*
X65771428Y-57835771D01*
X65771428Y-57835771D02*
X65866666Y-57883390D01*
X65866666Y-57883390D02*
X65914285Y-57931009D01*
X65914285Y-57931009D02*
X65961904Y-58026247D01*
X65961904Y-58026247D02*
X65961904Y-58264342D01*
X65961904Y-58264342D02*
X65914285Y-58359580D01*
X65914285Y-58359580D02*
X65866666Y-58407200D01*
X65866666Y-58407200D02*
X65771428Y-58454819D01*
X65771428Y-58454819D02*
X65533333Y-58454819D01*
X65533333Y-58454819D02*
X65438095Y-58407200D01*
X65438095Y-58407200D02*
X65390476Y-58359580D01*
X84738095Y-97904819D02*
X84738095Y-98714342D01*
X84738095Y-98714342D02*
X84785714Y-98809580D01*
X84785714Y-98809580D02*
X84833333Y-98857200D01*
X84833333Y-98857200D02*
X84928571Y-98904819D01*
X84928571Y-98904819D02*
X85119047Y-98904819D01*
X85119047Y-98904819D02*
X85214285Y-98857200D01*
X85214285Y-98857200D02*
X85261904Y-98809580D01*
X85261904Y-98809580D02*
X85309523Y-98714342D01*
X85309523Y-98714342D02*
X85309523Y-97904819D01*
X86309523Y-98904819D02*
X85738095Y-98904819D01*
X86023809Y-98904819D02*
X86023809Y-97904819D01*
X86023809Y-97904819D02*
X85928571Y-98047676D01*
X85928571Y-98047676D02*
X85833333Y-98142914D01*
X85833333Y-98142914D02*
X85738095Y-98190533D01*
X64841667Y-96682201D02*
X64984524Y-96729820D01*
X64984524Y-96729820D02*
X65222619Y-96729820D01*
X65222619Y-96729820D02*
X65317857Y-96682201D01*
X65317857Y-96682201D02*
X65365476Y-96634581D01*
X65365476Y-96634581D02*
X65413095Y-96539343D01*
X65413095Y-96539343D02*
X65413095Y-96444105D01*
X65413095Y-96444105D02*
X65365476Y-96348867D01*
X65365476Y-96348867D02*
X65317857Y-96301248D01*
X65317857Y-96301248D02*
X65222619Y-96253629D01*
X65222619Y-96253629D02*
X65032143Y-96206010D01*
X65032143Y-96206010D02*
X64936905Y-96158391D01*
X64936905Y-96158391D02*
X64889286Y-96110772D01*
X64889286Y-96110772D02*
X64841667Y-96015534D01*
X64841667Y-96015534D02*
X64841667Y-95920296D01*
X64841667Y-95920296D02*
X64889286Y-95825058D01*
X64889286Y-95825058D02*
X64936905Y-95777439D01*
X64936905Y-95777439D02*
X65032143Y-95729820D01*
X65032143Y-95729820D02*
X65270238Y-95729820D01*
X65270238Y-95729820D02*
X65413095Y-95777439D01*
X65746429Y-95729820D02*
X65984524Y-96729820D01*
X65984524Y-96729820D02*
X66175000Y-96015534D01*
X66175000Y-96015534D02*
X66365476Y-96729820D01*
X66365476Y-96729820D02*
X66603572Y-95729820D01*
X67413095Y-96063153D02*
X67413095Y-96729820D01*
X67175000Y-95682201D02*
X66936905Y-96396486D01*
X66936905Y-96396486D02*
X67555952Y-96396486D01*
X68495180Y-67807142D02*
X68971371Y-67473809D01*
X68495180Y-67235714D02*
X69495180Y-67235714D01*
X69495180Y-67235714D02*
X69495180Y-67616666D01*
X69495180Y-67616666D02*
X69447561Y-67711904D01*
X69447561Y-67711904D02*
X69399942Y-67759523D01*
X69399942Y-67759523D02*
X69304704Y-67807142D01*
X69304704Y-67807142D02*
X69161847Y-67807142D01*
X69161847Y-67807142D02*
X69066609Y-67759523D01*
X69066609Y-67759523D02*
X69018990Y-67711904D01*
X69018990Y-67711904D02*
X68971371Y-67616666D01*
X68971371Y-67616666D02*
X68971371Y-67235714D01*
X69495180Y-68140476D02*
X68495180Y-68807142D01*
X69495180Y-68807142D02*
X68495180Y-68140476D01*
X69018990Y-69188095D02*
X69018990Y-69521428D01*
X68495180Y-69664285D02*
X68495180Y-69188095D01*
X68495180Y-69188095D02*
X69495180Y-69188095D01*
X69495180Y-69188095D02*
X69495180Y-69664285D01*
X68495180Y-70092857D02*
X69495180Y-70092857D01*
X69495180Y-70092857D02*
X68495180Y-70664285D01*
X68495180Y-70664285D02*
X69495180Y-70664285D01*
X82954819Y-85492857D02*
X82478628Y-85826190D01*
X82954819Y-86064285D02*
X81954819Y-86064285D01*
X81954819Y-86064285D02*
X81954819Y-85683333D01*
X81954819Y-85683333D02*
X82002438Y-85588095D01*
X82002438Y-85588095D02*
X82050057Y-85540476D01*
X82050057Y-85540476D02*
X82145295Y-85492857D01*
X82145295Y-85492857D02*
X82288152Y-85492857D01*
X82288152Y-85492857D02*
X82383390Y-85540476D01*
X82383390Y-85540476D02*
X82431009Y-85588095D01*
X82431009Y-85588095D02*
X82478628Y-85683333D01*
X82478628Y-85683333D02*
X82478628Y-86064285D01*
X82050057Y-85111904D02*
X82002438Y-85064285D01*
X82002438Y-85064285D02*
X81954819Y-84969047D01*
X81954819Y-84969047D02*
X81954819Y-84730952D01*
X81954819Y-84730952D02*
X82002438Y-84635714D01*
X82002438Y-84635714D02*
X82050057Y-84588095D01*
X82050057Y-84588095D02*
X82145295Y-84540476D01*
X82145295Y-84540476D02*
X82240533Y-84540476D01*
X82240533Y-84540476D02*
X82383390Y-84588095D01*
X82383390Y-84588095D02*
X82954819Y-85159523D01*
X82954819Y-85159523D02*
X82954819Y-84540476D01*
X82954819Y-84064285D02*
X82954819Y-83873809D01*
X82954819Y-83873809D02*
X82907200Y-83778571D01*
X82907200Y-83778571D02*
X82859580Y-83730952D01*
X82859580Y-83730952D02*
X82716723Y-83635714D01*
X82716723Y-83635714D02*
X82526247Y-83588095D01*
X82526247Y-83588095D02*
X82145295Y-83588095D01*
X82145295Y-83588095D02*
X82050057Y-83635714D01*
X82050057Y-83635714D02*
X82002438Y-83683333D01*
X82002438Y-83683333D02*
X81954819Y-83778571D01*
X81954819Y-83778571D02*
X81954819Y-83969047D01*
X81954819Y-83969047D02*
X82002438Y-84064285D01*
X82002438Y-84064285D02*
X82050057Y-84111904D01*
X82050057Y-84111904D02*
X82145295Y-84159523D01*
X82145295Y-84159523D02*
X82383390Y-84159523D01*
X82383390Y-84159523D02*
X82478628Y-84111904D01*
X82478628Y-84111904D02*
X82526247Y-84064285D01*
X82526247Y-84064285D02*
X82573866Y-83969047D01*
X82573866Y-83969047D02*
X82573866Y-83778571D01*
X82573866Y-83778571D02*
X82526247Y-83683333D01*
X82526247Y-83683333D02*
X82478628Y-83635714D01*
X82478628Y-83635714D02*
X82383390Y-83588095D01*
X86132142Y-81429580D02*
X86084523Y-81477200D01*
X86084523Y-81477200D02*
X85941666Y-81524819D01*
X85941666Y-81524819D02*
X85846428Y-81524819D01*
X85846428Y-81524819D02*
X85703571Y-81477200D01*
X85703571Y-81477200D02*
X85608333Y-81381961D01*
X85608333Y-81381961D02*
X85560714Y-81286723D01*
X85560714Y-81286723D02*
X85513095Y-81096247D01*
X85513095Y-81096247D02*
X85513095Y-80953390D01*
X85513095Y-80953390D02*
X85560714Y-80762914D01*
X85560714Y-80762914D02*
X85608333Y-80667676D01*
X85608333Y-80667676D02*
X85703571Y-80572438D01*
X85703571Y-80572438D02*
X85846428Y-80524819D01*
X85846428Y-80524819D02*
X85941666Y-80524819D01*
X85941666Y-80524819D02*
X86084523Y-80572438D01*
X86084523Y-80572438D02*
X86132142Y-80620057D01*
X87084523Y-81524819D02*
X86513095Y-81524819D01*
X86798809Y-81524819D02*
X86798809Y-80524819D01*
X86798809Y-80524819D02*
X86703571Y-80667676D01*
X86703571Y-80667676D02*
X86608333Y-80762914D01*
X86608333Y-80762914D02*
X86513095Y-80810533D01*
X87989285Y-80524819D02*
X87513095Y-80524819D01*
X87513095Y-80524819D02*
X87465476Y-81001009D01*
X87465476Y-81001009D02*
X87513095Y-80953390D01*
X87513095Y-80953390D02*
X87608333Y-80905771D01*
X87608333Y-80905771D02*
X87846428Y-80905771D01*
X87846428Y-80905771D02*
X87941666Y-80953390D01*
X87941666Y-80953390D02*
X87989285Y-81001009D01*
X87989285Y-81001009D02*
X88036904Y-81096247D01*
X88036904Y-81096247D02*
X88036904Y-81334342D01*
X88036904Y-81334342D02*
X87989285Y-81429580D01*
X87989285Y-81429580D02*
X87941666Y-81477200D01*
X87941666Y-81477200D02*
X87846428Y-81524819D01*
X87846428Y-81524819D02*
X87608333Y-81524819D01*
X87608333Y-81524819D02*
X87513095Y-81477200D01*
X87513095Y-81477200D02*
X87465476Y-81429580D01*
X100007142Y-58154819D02*
X99673809Y-57678628D01*
X99435714Y-58154819D02*
X99435714Y-57154819D01*
X99435714Y-57154819D02*
X99816666Y-57154819D01*
X99816666Y-57154819D02*
X99911904Y-57202438D01*
X99911904Y-57202438D02*
X99959523Y-57250057D01*
X99959523Y-57250057D02*
X100007142Y-57345295D01*
X100007142Y-57345295D02*
X100007142Y-57488152D01*
X100007142Y-57488152D02*
X99959523Y-57583390D01*
X99959523Y-57583390D02*
X99911904Y-57631009D01*
X99911904Y-57631009D02*
X99816666Y-57678628D01*
X99816666Y-57678628D02*
X99435714Y-57678628D01*
X100959523Y-58154819D02*
X100388095Y-58154819D01*
X100673809Y-58154819D02*
X100673809Y-57154819D01*
X100673809Y-57154819D02*
X100578571Y-57297676D01*
X100578571Y-57297676D02*
X100483333Y-57392914D01*
X100483333Y-57392914D02*
X100388095Y-57440533D01*
X101292857Y-57154819D02*
X101959523Y-57154819D01*
X101959523Y-57154819D02*
X101530952Y-58154819D01*
X101892857Y-102906008D02*
X102035714Y-102953627D01*
X102035714Y-102953627D02*
X102083333Y-103001246D01*
X102083333Y-103001246D02*
X102130952Y-103096484D01*
X102130952Y-103096484D02*
X102130952Y-103239341D01*
X102130952Y-103239341D02*
X102083333Y-103334579D01*
X102083333Y-103334579D02*
X102035714Y-103382199D01*
X102035714Y-103382199D02*
X101940476Y-103429818D01*
X101940476Y-103429818D02*
X101559524Y-103429818D01*
X101559524Y-103429818D02*
X101559524Y-102429818D01*
X101559524Y-102429818D02*
X101892857Y-102429818D01*
X101892857Y-102429818D02*
X101988095Y-102477437D01*
X101988095Y-102477437D02*
X102035714Y-102525056D01*
X102035714Y-102525056D02*
X102083333Y-102620294D01*
X102083333Y-102620294D02*
X102083333Y-102715532D01*
X102083333Y-102715532D02*
X102035714Y-102810770D01*
X102035714Y-102810770D02*
X101988095Y-102858389D01*
X101988095Y-102858389D02*
X101892857Y-102906008D01*
X101892857Y-102906008D02*
X101559524Y-102906008D01*
X102750000Y-102429818D02*
X102940476Y-102429818D01*
X102940476Y-102429818D02*
X103035714Y-102477437D01*
X103035714Y-102477437D02*
X103130952Y-102572675D01*
X103130952Y-102572675D02*
X103178571Y-102763151D01*
X103178571Y-102763151D02*
X103178571Y-103096484D01*
X103178571Y-103096484D02*
X103130952Y-103286960D01*
X103130952Y-103286960D02*
X103035714Y-103382199D01*
X103035714Y-103382199D02*
X102940476Y-103429818D01*
X102940476Y-103429818D02*
X102750000Y-103429818D01*
X102750000Y-103429818D02*
X102654762Y-103382199D01*
X102654762Y-103382199D02*
X102559524Y-103286960D01*
X102559524Y-103286960D02*
X102511905Y-103096484D01*
X102511905Y-103096484D02*
X102511905Y-102763151D01*
X102511905Y-102763151D02*
X102559524Y-102572675D01*
X102559524Y-102572675D02*
X102654762Y-102477437D01*
X102654762Y-102477437D02*
X102750000Y-102429818D01*
X103797619Y-102429818D02*
X103988095Y-102429818D01*
X103988095Y-102429818D02*
X104083333Y-102477437D01*
X104083333Y-102477437D02*
X104178571Y-102572675D01*
X104178571Y-102572675D02*
X104226190Y-102763151D01*
X104226190Y-102763151D02*
X104226190Y-103096484D01*
X104226190Y-103096484D02*
X104178571Y-103286960D01*
X104178571Y-103286960D02*
X104083333Y-103382199D01*
X104083333Y-103382199D02*
X103988095Y-103429818D01*
X103988095Y-103429818D02*
X103797619Y-103429818D01*
X103797619Y-103429818D02*
X103702381Y-103382199D01*
X103702381Y-103382199D02*
X103607143Y-103286960D01*
X103607143Y-103286960D02*
X103559524Y-103096484D01*
X103559524Y-103096484D02*
X103559524Y-102763151D01*
X103559524Y-102763151D02*
X103607143Y-102572675D01*
X103607143Y-102572675D02*
X103702381Y-102477437D01*
X103702381Y-102477437D02*
X103797619Y-102429818D01*
X104511905Y-102429818D02*
X105083333Y-102429818D01*
X104797619Y-103429818D02*
X104797619Y-102429818D01*
X91557142Y-59054819D02*
X91223809Y-58578628D01*
X90985714Y-59054819D02*
X90985714Y-58054819D01*
X90985714Y-58054819D02*
X91366666Y-58054819D01*
X91366666Y-58054819D02*
X91461904Y-58102438D01*
X91461904Y-58102438D02*
X91509523Y-58150057D01*
X91509523Y-58150057D02*
X91557142Y-58245295D01*
X91557142Y-58245295D02*
X91557142Y-58388152D01*
X91557142Y-58388152D02*
X91509523Y-58483390D01*
X91509523Y-58483390D02*
X91461904Y-58531009D01*
X91461904Y-58531009D02*
X91366666Y-58578628D01*
X91366666Y-58578628D02*
X90985714Y-58578628D01*
X92509523Y-59054819D02*
X91938095Y-59054819D01*
X92223809Y-59054819D02*
X92223809Y-58054819D01*
X92223809Y-58054819D02*
X92128571Y-58197676D01*
X92128571Y-58197676D02*
X92033333Y-58292914D01*
X92033333Y-58292914D02*
X91938095Y-58340533D01*
X93080952Y-58483390D02*
X92985714Y-58435771D01*
X92985714Y-58435771D02*
X92938095Y-58388152D01*
X92938095Y-58388152D02*
X92890476Y-58292914D01*
X92890476Y-58292914D02*
X92890476Y-58245295D01*
X92890476Y-58245295D02*
X92938095Y-58150057D01*
X92938095Y-58150057D02*
X92985714Y-58102438D01*
X92985714Y-58102438D02*
X93080952Y-58054819D01*
X93080952Y-58054819D02*
X93271428Y-58054819D01*
X93271428Y-58054819D02*
X93366666Y-58102438D01*
X93366666Y-58102438D02*
X93414285Y-58150057D01*
X93414285Y-58150057D02*
X93461904Y-58245295D01*
X93461904Y-58245295D02*
X93461904Y-58292914D01*
X93461904Y-58292914D02*
X93414285Y-58388152D01*
X93414285Y-58388152D02*
X93366666Y-58435771D01*
X93366666Y-58435771D02*
X93271428Y-58483390D01*
X93271428Y-58483390D02*
X93080952Y-58483390D01*
X93080952Y-58483390D02*
X92985714Y-58531009D01*
X92985714Y-58531009D02*
X92938095Y-58578628D01*
X92938095Y-58578628D02*
X92890476Y-58673866D01*
X92890476Y-58673866D02*
X92890476Y-58864342D01*
X92890476Y-58864342D02*
X92938095Y-58959580D01*
X92938095Y-58959580D02*
X92985714Y-59007200D01*
X92985714Y-59007200D02*
X93080952Y-59054819D01*
X93080952Y-59054819D02*
X93271428Y-59054819D01*
X93271428Y-59054819D02*
X93366666Y-59007200D01*
X93366666Y-59007200D02*
X93414285Y-58959580D01*
X93414285Y-58959580D02*
X93461904Y-58864342D01*
X93461904Y-58864342D02*
X93461904Y-58673866D01*
X93461904Y-58673866D02*
X93414285Y-58578628D01*
X93414285Y-58578628D02*
X93366666Y-58531009D01*
X93366666Y-58531009D02*
X93271428Y-58483390D01*
X68274819Y-59717857D02*
X67798628Y-60051190D01*
X68274819Y-60289285D02*
X67274819Y-60289285D01*
X67274819Y-60289285D02*
X67274819Y-59908333D01*
X67274819Y-59908333D02*
X67322438Y-59813095D01*
X67322438Y-59813095D02*
X67370057Y-59765476D01*
X67370057Y-59765476D02*
X67465295Y-59717857D01*
X67465295Y-59717857D02*
X67608152Y-59717857D01*
X67608152Y-59717857D02*
X67703390Y-59765476D01*
X67703390Y-59765476D02*
X67751009Y-59813095D01*
X67751009Y-59813095D02*
X67798628Y-59908333D01*
X67798628Y-59908333D02*
X67798628Y-60289285D01*
X67370057Y-59336904D02*
X67322438Y-59289285D01*
X67322438Y-59289285D02*
X67274819Y-59194047D01*
X67274819Y-59194047D02*
X67274819Y-58955952D01*
X67274819Y-58955952D02*
X67322438Y-58860714D01*
X67322438Y-58860714D02*
X67370057Y-58813095D01*
X67370057Y-58813095D02*
X67465295Y-58765476D01*
X67465295Y-58765476D02*
X67560533Y-58765476D01*
X67560533Y-58765476D02*
X67703390Y-58813095D01*
X67703390Y-58813095D02*
X68274819Y-59384523D01*
X68274819Y-59384523D02*
X68274819Y-58765476D01*
X67608152Y-57908333D02*
X68274819Y-57908333D01*
X67227200Y-58146428D02*
X67941485Y-58384523D01*
X67941485Y-58384523D02*
X67941485Y-57765476D01*
X62409580Y-60216666D02*
X62457200Y-60264285D01*
X62457200Y-60264285D02*
X62504819Y-60407142D01*
X62504819Y-60407142D02*
X62504819Y-60502380D01*
X62504819Y-60502380D02*
X62457200Y-60645237D01*
X62457200Y-60645237D02*
X62361961Y-60740475D01*
X62361961Y-60740475D02*
X62266723Y-60788094D01*
X62266723Y-60788094D02*
X62076247Y-60835713D01*
X62076247Y-60835713D02*
X61933390Y-60835713D01*
X61933390Y-60835713D02*
X61742914Y-60788094D01*
X61742914Y-60788094D02*
X61647676Y-60740475D01*
X61647676Y-60740475D02*
X61552438Y-60645237D01*
X61552438Y-60645237D02*
X61504819Y-60502380D01*
X61504819Y-60502380D02*
X61504819Y-60407142D01*
X61504819Y-60407142D02*
X61552438Y-60264285D01*
X61552438Y-60264285D02*
X61600057Y-60216666D01*
X62504819Y-59740475D02*
X62504819Y-59549999D01*
X62504819Y-59549999D02*
X62457200Y-59454761D01*
X62457200Y-59454761D02*
X62409580Y-59407142D01*
X62409580Y-59407142D02*
X62266723Y-59311904D01*
X62266723Y-59311904D02*
X62076247Y-59264285D01*
X62076247Y-59264285D02*
X61695295Y-59264285D01*
X61695295Y-59264285D02*
X61600057Y-59311904D01*
X61600057Y-59311904D02*
X61552438Y-59359523D01*
X61552438Y-59359523D02*
X61504819Y-59454761D01*
X61504819Y-59454761D02*
X61504819Y-59645237D01*
X61504819Y-59645237D02*
X61552438Y-59740475D01*
X61552438Y-59740475D02*
X61600057Y-59788094D01*
X61600057Y-59788094D02*
X61695295Y-59835713D01*
X61695295Y-59835713D02*
X61933390Y-59835713D01*
X61933390Y-59835713D02*
X62028628Y-59788094D01*
X62028628Y-59788094D02*
X62076247Y-59740475D01*
X62076247Y-59740475D02*
X62123866Y-59645237D01*
X62123866Y-59645237D02*
X62123866Y-59454761D01*
X62123866Y-59454761D02*
X62076247Y-59359523D01*
X62076247Y-59359523D02*
X62028628Y-59311904D01*
X62028628Y-59311904D02*
X61933390Y-59264285D01*
X119392319Y-63333333D02*
X120106604Y-63333333D01*
X120106604Y-63333333D02*
X120249461Y-63380952D01*
X120249461Y-63380952D02*
X120344700Y-63476190D01*
X120344700Y-63476190D02*
X120392319Y-63619047D01*
X120392319Y-63619047D02*
X120392319Y-63714285D01*
X119487557Y-62904761D02*
X119439938Y-62857142D01*
X119439938Y-62857142D02*
X119392319Y-62761904D01*
X119392319Y-62761904D02*
X119392319Y-62523809D01*
X119392319Y-62523809D02*
X119439938Y-62428571D01*
X119439938Y-62428571D02*
X119487557Y-62380952D01*
X119487557Y-62380952D02*
X119582795Y-62333333D01*
X119582795Y-62333333D02*
X119678033Y-62333333D01*
X119678033Y-62333333D02*
X119820890Y-62380952D01*
X119820890Y-62380952D02*
X120392319Y-62952380D01*
X120392319Y-62952380D02*
X120392319Y-62333333D01*
X59379819Y-85767857D02*
X58903628Y-86101190D01*
X59379819Y-86339285D02*
X58379819Y-86339285D01*
X58379819Y-86339285D02*
X58379819Y-85958333D01*
X58379819Y-85958333D02*
X58427438Y-85863095D01*
X58427438Y-85863095D02*
X58475057Y-85815476D01*
X58475057Y-85815476D02*
X58570295Y-85767857D01*
X58570295Y-85767857D02*
X58713152Y-85767857D01*
X58713152Y-85767857D02*
X58808390Y-85815476D01*
X58808390Y-85815476D02*
X58856009Y-85863095D01*
X58856009Y-85863095D02*
X58903628Y-85958333D01*
X58903628Y-85958333D02*
X58903628Y-86339285D01*
X58379819Y-85434523D02*
X58379819Y-84815476D01*
X58379819Y-84815476D02*
X58760771Y-85148809D01*
X58760771Y-85148809D02*
X58760771Y-85005952D01*
X58760771Y-85005952D02*
X58808390Y-84910714D01*
X58808390Y-84910714D02*
X58856009Y-84863095D01*
X58856009Y-84863095D02*
X58951247Y-84815476D01*
X58951247Y-84815476D02*
X59189342Y-84815476D01*
X59189342Y-84815476D02*
X59284580Y-84863095D01*
X59284580Y-84863095D02*
X59332200Y-84910714D01*
X59332200Y-84910714D02*
X59379819Y-85005952D01*
X59379819Y-85005952D02*
X59379819Y-85291666D01*
X59379819Y-85291666D02*
X59332200Y-85386904D01*
X59332200Y-85386904D02*
X59284580Y-85434523D01*
X58379819Y-83910714D02*
X58379819Y-84386904D01*
X58379819Y-84386904D02*
X58856009Y-84434523D01*
X58856009Y-84434523D02*
X58808390Y-84386904D01*
X58808390Y-84386904D02*
X58760771Y-84291666D01*
X58760771Y-84291666D02*
X58760771Y-84053571D01*
X58760771Y-84053571D02*
X58808390Y-83958333D01*
X58808390Y-83958333D02*
X58856009Y-83910714D01*
X58856009Y-83910714D02*
X58951247Y-83863095D01*
X58951247Y-83863095D02*
X59189342Y-83863095D01*
X59189342Y-83863095D02*
X59284580Y-83910714D01*
X59284580Y-83910714D02*
X59332200Y-83958333D01*
X59332200Y-83958333D02*
X59379819Y-84053571D01*
X59379819Y-84053571D02*
X59379819Y-84291666D01*
X59379819Y-84291666D02*
X59332200Y-84386904D01*
X59332200Y-84386904D02*
X59284580Y-84434523D01*
X48888095Y-59504819D02*
X48888095Y-60314342D01*
X48888095Y-60314342D02*
X48935714Y-60409580D01*
X48935714Y-60409580D02*
X48983333Y-60457200D01*
X48983333Y-60457200D02*
X49078571Y-60504819D01*
X49078571Y-60504819D02*
X49269047Y-60504819D01*
X49269047Y-60504819D02*
X49364285Y-60457200D01*
X49364285Y-60457200D02*
X49411904Y-60409580D01*
X49411904Y-60409580D02*
X49459523Y-60314342D01*
X49459523Y-60314342D02*
X49459523Y-59504819D01*
X50364285Y-59504819D02*
X50173809Y-59504819D01*
X50173809Y-59504819D02*
X50078571Y-59552438D01*
X50078571Y-59552438D02*
X50030952Y-59600057D01*
X50030952Y-59600057D02*
X49935714Y-59742914D01*
X49935714Y-59742914D02*
X49888095Y-59933390D01*
X49888095Y-59933390D02*
X49888095Y-60314342D01*
X49888095Y-60314342D02*
X49935714Y-60409580D01*
X49935714Y-60409580D02*
X49983333Y-60457200D01*
X49983333Y-60457200D02*
X50078571Y-60504819D01*
X50078571Y-60504819D02*
X50269047Y-60504819D01*
X50269047Y-60504819D02*
X50364285Y-60457200D01*
X50364285Y-60457200D02*
X50411904Y-60409580D01*
X50411904Y-60409580D02*
X50459523Y-60314342D01*
X50459523Y-60314342D02*
X50459523Y-60076247D01*
X50459523Y-60076247D02*
X50411904Y-59981009D01*
X50411904Y-59981009D02*
X50364285Y-59933390D01*
X50364285Y-59933390D02*
X50269047Y-59885771D01*
X50269047Y-59885771D02*
X50078571Y-59885771D01*
X50078571Y-59885771D02*
X49983333Y-59933390D01*
X49983333Y-59933390D02*
X49935714Y-59981009D01*
X49935714Y-59981009D02*
X49888095Y-60076247D01*
X53779636Y-71698390D02*
X53684398Y-71650771D01*
X53684398Y-71650771D02*
X53636779Y-71603152D01*
X53636779Y-71603152D02*
X53589160Y-71507914D01*
X53589160Y-71507914D02*
X53589160Y-71460295D01*
X53589160Y-71460295D02*
X53636779Y-71365057D01*
X53636779Y-71365057D02*
X53684398Y-71317438D01*
X53684398Y-71317438D02*
X53779636Y-71269819D01*
X53779636Y-71269819D02*
X53970112Y-71269819D01*
X53970112Y-71269819D02*
X54065350Y-71317438D01*
X54065350Y-71317438D02*
X54112969Y-71365057D01*
X54112969Y-71365057D02*
X54160588Y-71460295D01*
X54160588Y-71460295D02*
X54160588Y-71507914D01*
X54160588Y-71507914D02*
X54112969Y-71603152D01*
X54112969Y-71603152D02*
X54065350Y-71650771D01*
X54065350Y-71650771D02*
X53970112Y-71698390D01*
X53970112Y-71698390D02*
X53779636Y-71698390D01*
X53779636Y-71698390D02*
X53684398Y-71746009D01*
X53684398Y-71746009D02*
X53636779Y-71793628D01*
X53636779Y-71793628D02*
X53589160Y-71888866D01*
X53589160Y-71888866D02*
X53589160Y-72079342D01*
X53589160Y-72079342D02*
X53636779Y-72174580D01*
X53636779Y-72174580D02*
X53684398Y-72222200D01*
X53684398Y-72222200D02*
X53779636Y-72269819D01*
X53779636Y-72269819D02*
X53970112Y-72269819D01*
X53970112Y-72269819D02*
X54065350Y-72222200D01*
X54065350Y-72222200D02*
X54112969Y-72174580D01*
X54112969Y-72174580D02*
X54160588Y-72079342D01*
X54160588Y-72079342D02*
X54160588Y-71888866D01*
X54160588Y-71888866D02*
X54112969Y-71793628D01*
X54112969Y-71793628D02*
X54065350Y-71746009D01*
X54065350Y-71746009D02*
X53970112Y-71698390D01*
X51660588Y-60469819D02*
X51089160Y-60469819D01*
X51374874Y-60469819D02*
X51374874Y-59469819D01*
X51374874Y-59469819D02*
X51279636Y-59612676D01*
X51279636Y-59612676D02*
X51184398Y-59707914D01*
X51184398Y-59707914D02*
X51089160Y-59755533D01*
X53709160Y-59725057D02*
X53756779Y-59677438D01*
X53756779Y-59677438D02*
X53852017Y-59629819D01*
X53852017Y-59629819D02*
X54090112Y-59629819D01*
X54090112Y-59629819D02*
X54185350Y-59677438D01*
X54185350Y-59677438D02*
X54232969Y-59725057D01*
X54232969Y-59725057D02*
X54280588Y-59820295D01*
X54280588Y-59820295D02*
X54280588Y-59915533D01*
X54280588Y-59915533D02*
X54232969Y-60058390D01*
X54232969Y-60058390D02*
X53661541Y-60629819D01*
X53661541Y-60629819D02*
X54280588Y-60629819D01*
X51041541Y-71269819D02*
X51708207Y-71269819D01*
X51708207Y-71269819D02*
X51279636Y-72269819D01*
X92654761Y-60800057D02*
X92559523Y-60752438D01*
X92559523Y-60752438D02*
X92464285Y-60657200D01*
X92464285Y-60657200D02*
X92321428Y-60514342D01*
X92321428Y-60514342D02*
X92226190Y-60466723D01*
X92226190Y-60466723D02*
X92130952Y-60466723D01*
X92178571Y-60704819D02*
X92083333Y-60657200D01*
X92083333Y-60657200D02*
X91988095Y-60561961D01*
X91988095Y-60561961D02*
X91940476Y-60371485D01*
X91940476Y-60371485D02*
X91940476Y-60038152D01*
X91940476Y-60038152D02*
X91988095Y-59847676D01*
X91988095Y-59847676D02*
X92083333Y-59752438D01*
X92083333Y-59752438D02*
X92178571Y-59704819D01*
X92178571Y-59704819D02*
X92369047Y-59704819D01*
X92369047Y-59704819D02*
X92464285Y-59752438D01*
X92464285Y-59752438D02*
X92559523Y-59847676D01*
X92559523Y-59847676D02*
X92607142Y-60038152D01*
X92607142Y-60038152D02*
X92607142Y-60371485D01*
X92607142Y-60371485D02*
X92559523Y-60561961D01*
X92559523Y-60561961D02*
X92464285Y-60657200D01*
X92464285Y-60657200D02*
X92369047Y-60704819D01*
X92369047Y-60704819D02*
X92178571Y-60704819D01*
X92988095Y-59800057D02*
X93035714Y-59752438D01*
X93035714Y-59752438D02*
X93130952Y-59704819D01*
X93130952Y-59704819D02*
X93369047Y-59704819D01*
X93369047Y-59704819D02*
X93464285Y-59752438D01*
X93464285Y-59752438D02*
X93511904Y-59800057D01*
X93511904Y-59800057D02*
X93559523Y-59895295D01*
X93559523Y-59895295D02*
X93559523Y-59990533D01*
X93559523Y-59990533D02*
X93511904Y-60133390D01*
X93511904Y-60133390D02*
X92940476Y-60704819D01*
X92940476Y-60704819D02*
X93559523Y-60704819D01*
D11*
X75938095Y-57957419D02*
X75938095Y-58766942D01*
X75938095Y-58766942D02*
X75985714Y-58862180D01*
X75985714Y-58862180D02*
X76033333Y-58909800D01*
X76033333Y-58909800D02*
X76128571Y-58957419D01*
X76128571Y-58957419D02*
X76319047Y-58957419D01*
X76319047Y-58957419D02*
X76414285Y-58909800D01*
X76414285Y-58909800D02*
X76461904Y-58862180D01*
X76461904Y-58862180D02*
X76509523Y-58766942D01*
X76509523Y-58766942D02*
X76509523Y-57957419D01*
X77461904Y-57957419D02*
X76985714Y-57957419D01*
X76985714Y-57957419D02*
X76938095Y-58433609D01*
X76938095Y-58433609D02*
X76985714Y-58385990D01*
X76985714Y-58385990D02*
X77080952Y-58338371D01*
X77080952Y-58338371D02*
X77319047Y-58338371D01*
X77319047Y-58338371D02*
X77414285Y-58385990D01*
X77414285Y-58385990D02*
X77461904Y-58433609D01*
X77461904Y-58433609D02*
X77509523Y-58528847D01*
X77509523Y-58528847D02*
X77509523Y-58766942D01*
X77509523Y-58766942D02*
X77461904Y-58862180D01*
X77461904Y-58862180D02*
X77414285Y-58909800D01*
X77414285Y-58909800D02*
X77319047Y-58957419D01*
X77319047Y-58957419D02*
X77080952Y-58957419D01*
X77080952Y-58957419D02*
X76985714Y-58909800D01*
X76985714Y-58909800D02*
X76938095Y-58862180D01*
D10*
X52204418Y-96432199D02*
X52347275Y-96479818D01*
X52347275Y-96479818D02*
X52585370Y-96479818D01*
X52585370Y-96479818D02*
X52680608Y-96432199D01*
X52680608Y-96432199D02*
X52728227Y-96384579D01*
X52728227Y-96384579D02*
X52775846Y-96289341D01*
X52775846Y-96289341D02*
X52775846Y-96194103D01*
X52775846Y-96194103D02*
X52728227Y-96098865D01*
X52728227Y-96098865D02*
X52680608Y-96051246D01*
X52680608Y-96051246D02*
X52585370Y-96003627D01*
X52585370Y-96003627D02*
X52394894Y-95956008D01*
X52394894Y-95956008D02*
X52299656Y-95908389D01*
X52299656Y-95908389D02*
X52252037Y-95860770D01*
X52252037Y-95860770D02*
X52204418Y-95765532D01*
X52204418Y-95765532D02*
X52204418Y-95670294D01*
X52204418Y-95670294D02*
X52252037Y-95575056D01*
X52252037Y-95575056D02*
X52299656Y-95527437D01*
X52299656Y-95527437D02*
X52394894Y-95479818D01*
X52394894Y-95479818D02*
X52632989Y-95479818D01*
X52632989Y-95479818D02*
X52775846Y-95527437D01*
X53109180Y-95479818D02*
X53347275Y-96479818D01*
X53347275Y-96479818D02*
X53537751Y-95765532D01*
X53537751Y-95765532D02*
X53728227Y-96479818D01*
X53728227Y-96479818D02*
X53966323Y-95479818D01*
X54871084Y-96479818D02*
X54299656Y-96479818D01*
X54585370Y-96479818D02*
X54585370Y-95479818D01*
X54585370Y-95479818D02*
X54490132Y-95622675D01*
X54490132Y-95622675D02*
X54394894Y-95717913D01*
X54394894Y-95717913D02*
X54299656Y-95765532D01*
X111683333Y-74704819D02*
X111350000Y-74228628D01*
X111111905Y-74704819D02*
X111111905Y-73704819D01*
X111111905Y-73704819D02*
X111492857Y-73704819D01*
X111492857Y-73704819D02*
X111588095Y-73752438D01*
X111588095Y-73752438D02*
X111635714Y-73800057D01*
X111635714Y-73800057D02*
X111683333Y-73895295D01*
X111683333Y-73895295D02*
X111683333Y-74038152D01*
X111683333Y-74038152D02*
X111635714Y-74133390D01*
X111635714Y-74133390D02*
X111588095Y-74181009D01*
X111588095Y-74181009D02*
X111492857Y-74228628D01*
X111492857Y-74228628D02*
X111111905Y-74228628D01*
X112635714Y-74704819D02*
X112064286Y-74704819D01*
X112350000Y-74704819D02*
X112350000Y-73704819D01*
X112350000Y-73704819D02*
X112254762Y-73847676D01*
X112254762Y-73847676D02*
X112159524Y-73942914D01*
X112159524Y-73942914D02*
X112064286Y-73990533D01*
X76395180Y-69361905D02*
X77395180Y-69361905D01*
X77395180Y-69361905D02*
X76395180Y-69933333D01*
X76395180Y-69933333D02*
X77395180Y-69933333D01*
X76442800Y-70361905D02*
X76395180Y-70504762D01*
X76395180Y-70504762D02*
X76395180Y-70742857D01*
X76395180Y-70742857D02*
X76442800Y-70838095D01*
X76442800Y-70838095D02*
X76490419Y-70885714D01*
X76490419Y-70885714D02*
X76585657Y-70933333D01*
X76585657Y-70933333D02*
X76680895Y-70933333D01*
X76680895Y-70933333D02*
X76776133Y-70885714D01*
X76776133Y-70885714D02*
X76823752Y-70838095D01*
X76823752Y-70838095D02*
X76871371Y-70742857D01*
X76871371Y-70742857D02*
X76918990Y-70552381D01*
X76918990Y-70552381D02*
X76966609Y-70457143D01*
X76966609Y-70457143D02*
X77014228Y-70409524D01*
X77014228Y-70409524D02*
X77109466Y-70361905D01*
X77109466Y-70361905D02*
X77204704Y-70361905D01*
X77204704Y-70361905D02*
X77299942Y-70409524D01*
X77299942Y-70409524D02*
X77347561Y-70457143D01*
X77347561Y-70457143D02*
X77395180Y-70552381D01*
X77395180Y-70552381D02*
X77395180Y-70790476D01*
X77395180Y-70790476D02*
X77347561Y-70933333D01*
X76442800Y-71314286D02*
X76395180Y-71457143D01*
X76395180Y-71457143D02*
X76395180Y-71695238D01*
X76395180Y-71695238D02*
X76442800Y-71790476D01*
X76442800Y-71790476D02*
X76490419Y-71838095D01*
X76490419Y-71838095D02*
X76585657Y-71885714D01*
X76585657Y-71885714D02*
X76680895Y-71885714D01*
X76680895Y-71885714D02*
X76776133Y-71838095D01*
X76776133Y-71838095D02*
X76823752Y-71790476D01*
X76823752Y-71790476D02*
X76871371Y-71695238D01*
X76871371Y-71695238D02*
X76918990Y-71504762D01*
X76918990Y-71504762D02*
X76966609Y-71409524D01*
X76966609Y-71409524D02*
X77014228Y-71361905D01*
X77014228Y-71361905D02*
X77109466Y-71314286D01*
X77109466Y-71314286D02*
X77204704Y-71314286D01*
X77204704Y-71314286D02*
X77299942Y-71361905D01*
X77299942Y-71361905D02*
X77347561Y-71409524D01*
X77347561Y-71409524D02*
X77395180Y-71504762D01*
X77395180Y-71504762D02*
X77395180Y-71742857D01*
X77395180Y-71742857D02*
X77347561Y-71885714D01*
X104554819Y-75714286D02*
X105554819Y-75380953D01*
X105554819Y-75380953D02*
X104554819Y-75047620D01*
X105507200Y-74761905D02*
X105554819Y-74619048D01*
X105554819Y-74619048D02*
X105554819Y-74380953D01*
X105554819Y-74380953D02*
X105507200Y-74285715D01*
X105507200Y-74285715D02*
X105459580Y-74238096D01*
X105459580Y-74238096D02*
X105364342Y-74190477D01*
X105364342Y-74190477D02*
X105269104Y-74190477D01*
X105269104Y-74190477D02*
X105173866Y-74238096D01*
X105173866Y-74238096D02*
X105126247Y-74285715D01*
X105126247Y-74285715D02*
X105078628Y-74380953D01*
X105078628Y-74380953D02*
X105031009Y-74571429D01*
X105031009Y-74571429D02*
X104983390Y-74666667D01*
X104983390Y-74666667D02*
X104935771Y-74714286D01*
X104935771Y-74714286D02*
X104840533Y-74761905D01*
X104840533Y-74761905D02*
X104745295Y-74761905D01*
X104745295Y-74761905D02*
X104650057Y-74714286D01*
X104650057Y-74714286D02*
X104602438Y-74666667D01*
X104602438Y-74666667D02*
X104554819Y-74571429D01*
X104554819Y-74571429D02*
X104554819Y-74333334D01*
X104554819Y-74333334D02*
X104602438Y-74190477D01*
X105031009Y-73761905D02*
X105031009Y-73428572D01*
X105554819Y-73285715D02*
X105554819Y-73761905D01*
X105554819Y-73761905D02*
X104554819Y-73761905D01*
X104554819Y-73761905D02*
X104554819Y-73285715D01*
X105554819Y-72857143D02*
X104554819Y-72857143D01*
X104554819Y-72857143D02*
X105554819Y-72285715D01*
X105554819Y-72285715D02*
X104554819Y-72285715D01*
X105507200Y-71857143D02*
X105554819Y-71714286D01*
X105554819Y-71714286D02*
X105554819Y-71476191D01*
X105554819Y-71476191D02*
X105507200Y-71380953D01*
X105507200Y-71380953D02*
X105459580Y-71333334D01*
X105459580Y-71333334D02*
X105364342Y-71285715D01*
X105364342Y-71285715D02*
X105269104Y-71285715D01*
X105269104Y-71285715D02*
X105173866Y-71333334D01*
X105173866Y-71333334D02*
X105126247Y-71380953D01*
X105126247Y-71380953D02*
X105078628Y-71476191D01*
X105078628Y-71476191D02*
X105031009Y-71666667D01*
X105031009Y-71666667D02*
X104983390Y-71761905D01*
X104983390Y-71761905D02*
X104935771Y-71809524D01*
X104935771Y-71809524D02*
X104840533Y-71857143D01*
X104840533Y-71857143D02*
X104745295Y-71857143D01*
X104745295Y-71857143D02*
X104650057Y-71809524D01*
X104650057Y-71809524D02*
X104602438Y-71761905D01*
X104602438Y-71761905D02*
X104554819Y-71666667D01*
X104554819Y-71666667D02*
X104554819Y-71428572D01*
X104554819Y-71428572D02*
X104602438Y-71285715D01*
X105031009Y-70857143D02*
X105031009Y-70523810D01*
X105554819Y-70380953D02*
X105554819Y-70857143D01*
X105554819Y-70857143D02*
X104554819Y-70857143D01*
X104554819Y-70857143D02*
X104554819Y-70380953D01*
X111807142Y-68054819D02*
X111473809Y-67578628D01*
X111235714Y-68054819D02*
X111235714Y-67054819D01*
X111235714Y-67054819D02*
X111616666Y-67054819D01*
X111616666Y-67054819D02*
X111711904Y-67102438D01*
X111711904Y-67102438D02*
X111759523Y-67150057D01*
X111759523Y-67150057D02*
X111807142Y-67245295D01*
X111807142Y-67245295D02*
X111807142Y-67388152D01*
X111807142Y-67388152D02*
X111759523Y-67483390D01*
X111759523Y-67483390D02*
X111711904Y-67531009D01*
X111711904Y-67531009D02*
X111616666Y-67578628D01*
X111616666Y-67578628D02*
X111235714Y-67578628D01*
X112188095Y-67150057D02*
X112235714Y-67102438D01*
X112235714Y-67102438D02*
X112330952Y-67054819D01*
X112330952Y-67054819D02*
X112569047Y-67054819D01*
X112569047Y-67054819D02*
X112664285Y-67102438D01*
X112664285Y-67102438D02*
X112711904Y-67150057D01*
X112711904Y-67150057D02*
X112759523Y-67245295D01*
X112759523Y-67245295D02*
X112759523Y-67340533D01*
X112759523Y-67340533D02*
X112711904Y-67483390D01*
X112711904Y-67483390D02*
X112140476Y-68054819D01*
X112140476Y-68054819D02*
X112759523Y-68054819D01*
X113378571Y-67054819D02*
X113473809Y-67054819D01*
X113473809Y-67054819D02*
X113569047Y-67102438D01*
X113569047Y-67102438D02*
X113616666Y-67150057D01*
X113616666Y-67150057D02*
X113664285Y-67245295D01*
X113664285Y-67245295D02*
X113711904Y-67435771D01*
X113711904Y-67435771D02*
X113711904Y-67673866D01*
X113711904Y-67673866D02*
X113664285Y-67864342D01*
X113664285Y-67864342D02*
X113616666Y-67959580D01*
X113616666Y-67959580D02*
X113569047Y-68007200D01*
X113569047Y-68007200D02*
X113473809Y-68054819D01*
X113473809Y-68054819D02*
X113378571Y-68054819D01*
X113378571Y-68054819D02*
X113283333Y-68007200D01*
X113283333Y-68007200D02*
X113235714Y-67959580D01*
X113235714Y-67959580D02*
X113188095Y-67864342D01*
X113188095Y-67864342D02*
X113140476Y-67673866D01*
X113140476Y-67673866D02*
X113140476Y-67435771D01*
X113140476Y-67435771D02*
X113188095Y-67245295D01*
X113188095Y-67245295D02*
X113235714Y-67150057D01*
X113235714Y-67150057D02*
X113283333Y-67102438D01*
X113283333Y-67102438D02*
X113378571Y-67054819D01*
D12*
%TO.C,C10*%
X94490000Y-100384419D02*
X94490000Y-100665581D01*
X95510000Y-100384419D02*
X95510000Y-100665581D01*
%TO.C,D2*%
X96240003Y-54902499D02*
X97240003Y-54902499D01*
X96240003Y-56422499D02*
X96240003Y-54902499D01*
X96290003Y-56422499D02*
X96240003Y-56422499D01*
X98190003Y-56422499D02*
X97410003Y-56422499D01*
X98360003Y-54902499D02*
X99360003Y-54902499D01*
X99360003Y-54902499D02*
X99360003Y-56422499D01*
X99360003Y-56422499D02*
X99310003Y-56422499D01*
X97750003Y-57202499D02*
X97420003Y-56962499D01*
X97750003Y-56722499D01*
X97750003Y-57202499D01*
G36*
X97750003Y-57202499D02*
G01*
X97420003Y-56962499D01*
X97750003Y-56722499D01*
X97750003Y-57202499D01*
G37*
%TO.C,R23*%
X78962258Y-64877500D02*
X78487742Y-64877500D01*
X78962258Y-65922500D02*
X78487742Y-65922500D01*
D13*
%TO.C,SW3*%
X57413650Y-94063339D02*
X57413650Y-94836657D01*
X57413650Y-96278798D02*
X62061850Y-96278798D01*
X62061850Y-92621198D02*
X57413650Y-92621198D01*
X62061850Y-94836657D02*
X62061850Y-94063339D01*
D14*
X56662750Y-93349998D02*
G75*
G02*
X56412750Y-93349998I-125000J0D01*
G01*
X56412750Y-93349998D02*
G75*
G02*
X56662750Y-93349998I125000J0D01*
G01*
D12*
%TO.C,R4*%
X107999759Y-93677500D02*
X107525243Y-93677500D01*
X107999759Y-94722500D02*
X107525243Y-94722500D01*
%TO.C,R2*%
X111097500Y-72229759D02*
X111097500Y-71755243D01*
X112142500Y-72229759D02*
X112142500Y-71755243D01*
%TO.C,D7*%
X66160000Y-86760000D02*
X62140000Y-86760000D01*
X62140000Y-84040000D01*
X62440000Y-83740000D01*
X66160000Y-83740000D01*
X66160000Y-86760000D01*
D13*
%TO.C,POWER*%
X104125901Y-89138340D02*
X104125901Y-89911658D01*
X104125901Y-91353799D02*
X108774101Y-91353799D01*
X108774101Y-87696199D02*
X104125901Y-87696199D01*
X108774101Y-89911658D02*
X108774101Y-89138340D01*
D14*
X103375001Y-88424999D02*
G75*
G02*
X103125001Y-88424999I-125000J0D01*
G01*
X103125001Y-88424999D02*
G75*
G02*
X103375001Y-88424999I125000J0D01*
G01*
D12*
%TO.C,C7*%
X95515581Y-53040000D02*
X95234419Y-53040000D01*
X95515581Y-54060000D02*
X95234419Y-54060000D01*
%TO.C,J4*%
X63460000Y-90120001D02*
X63460000Y-92879999D01*
X71190000Y-90120000D02*
X63460000Y-90120001D01*
X71190000Y-90120000D02*
X71190000Y-92880000D01*
X71190000Y-92880000D02*
X63460000Y-92879999D01*
X72460000Y-90120001D02*
X73840000Y-90120000D01*
X73840000Y-90120000D02*
X73839999Y-91500000D01*
%TO.C,R5*%
X107525243Y-91977500D02*
X107999759Y-91977500D01*
X107525243Y-93022500D02*
X107999759Y-93022500D01*
%TO.C,D4*%
X107990000Y-64290000D02*
X109510000Y-64290000D01*
X107990000Y-64340000D02*
X107990000Y-64290000D01*
X107990000Y-66240000D02*
X107990000Y-65460000D01*
X107990000Y-67410000D02*
X107990000Y-67360000D01*
X109510000Y-64290000D02*
X109510000Y-65290000D01*
X109510000Y-66410000D02*
X109510000Y-67410000D01*
X109510000Y-67410000D02*
X107990000Y-67410000D01*
X107690000Y-65800000D02*
X107210000Y-65800000D01*
X107450000Y-65470000D01*
X107690000Y-65800000D01*
G36*
X107690000Y-65800000D02*
G01*
X107210000Y-65800000D01*
X107450000Y-65470000D01*
X107690000Y-65800000D01*
G37*
%TO.C,C12*%
X98590000Y-100384419D02*
X98590000Y-100665581D01*
X99610000Y-100384419D02*
X99610000Y-100665581D01*
%TO.C,R27*%
X74737742Y-101827500D02*
X75212258Y-101827500D01*
X74737742Y-102872500D02*
X75212258Y-102872500D01*
%TO.C,U3*%
D10*
X101676844Y-51999498D02*
G75*
G02*
X101526844Y-51999498I-75000J0D01*
G01*
X101526844Y-51999498D02*
G75*
G02*
X101676844Y-51999498I75000J0D01*
G01*
D12*
%TO.C,R37*%
X66262742Y-87527500D02*
X66737258Y-87527500D01*
X66262742Y-88572500D02*
X66737258Y-88572500D01*
%TO.C,R13*%
X101115003Y-59712742D02*
X101115003Y-60187258D01*
X102160003Y-59712742D02*
X102160003Y-60187258D01*
%TO.C,C6*%
X78228080Y-51052500D02*
X77946920Y-51052500D01*
X78228080Y-52072500D02*
X77946920Y-52072500D01*
%TO.C,R19*%
X94227500Y-55787742D02*
X94227500Y-56262258D01*
X95272500Y-55787742D02*
X95272500Y-56262258D01*
%TO.C,R38*%
X66777500Y-84962742D02*
X66777500Y-85437258D01*
X67822500Y-84962742D02*
X67822500Y-85437258D01*
%TO.C,C13*%
X75165581Y-100190000D02*
X74884419Y-100190000D01*
X75165581Y-101210000D02*
X74884419Y-101210000D01*
%TO.C,Q1*%
X110090000Y-95640000D02*
X111610000Y-95640000D01*
X110090000Y-95690000D02*
X110090000Y-95640000D01*
X110090000Y-97590000D02*
X110090000Y-96810000D01*
X110090000Y-98760000D02*
X110090000Y-98710000D01*
X111610000Y-95640000D02*
X111610000Y-96640000D01*
X111610000Y-97760000D02*
X111610000Y-98760000D01*
X111610000Y-98760000D02*
X110090000Y-98760000D01*
X109790000Y-97150000D02*
X109310000Y-97150000D01*
X109550000Y-96820000D01*
X109790000Y-97150000D01*
G36*
X109790000Y-97150000D02*
G01*
X109310000Y-97150000D01*
X109550000Y-96820000D01*
X109790000Y-97150000D01*
G37*
D13*
%TO.C,SW2*%
X57213652Y-103213339D02*
X57213652Y-103986657D01*
X57213652Y-105428798D02*
X61861852Y-105428798D01*
X61861852Y-101771198D02*
X57213652Y-101771198D01*
X61861852Y-103986657D02*
X61861852Y-103213339D01*
D14*
X56462752Y-102499998D02*
G75*
G02*
X56212752Y-102499998I-125000J0D01*
G01*
X56212752Y-102499998D02*
G75*
G02*
X56462752Y-102499998I125000J0D01*
G01*
D12*
%TO.C,C1*%
X107527503Y-60796917D02*
X107527503Y-61078079D01*
X108547503Y-60796917D02*
X108547503Y-61078079D01*
%TO.C,U2*%
X103277503Y-58390000D02*
X103752503Y-58390000D01*
X103277503Y-58865000D02*
X103277503Y-58390000D01*
X103277503Y-61610000D02*
X103277503Y-61135000D01*
X103752503Y-61610000D02*
X103277503Y-61610000D01*
X106022503Y-58390000D02*
X106497503Y-58390000D01*
X106497503Y-58390000D02*
X106497503Y-58865000D01*
X106497503Y-61135000D02*
X106497503Y-61610000D01*
X106497503Y-61610000D02*
X106022503Y-61610000D01*
X104377503Y-62470000D02*
X103897503Y-62470000D01*
X104137503Y-62140000D01*
X104377503Y-62470000D01*
G36*
X104377503Y-62470000D02*
G01*
X103897503Y-62470000D01*
X104137503Y-62140000D01*
X104377503Y-62470000D01*
G37*
%TO.C,C8*%
X66790000Y-55815581D02*
X66790000Y-55534419D01*
X67810000Y-55815581D02*
X67810000Y-55534419D01*
%TO.C,R34*%
X56287742Y-87402500D02*
X56762258Y-87402500D01*
X56287742Y-88447500D02*
X56762258Y-88447500D01*
%TO.C,R12*%
X101712742Y-62777500D02*
X102187258Y-62777500D01*
X101712742Y-63822500D02*
X102187258Y-63822500D01*
%TO.C,R33*%
X52962742Y-87402500D02*
X53437258Y-87402500D01*
X52962742Y-88447500D02*
X53437258Y-88447500D01*
D13*
%TO.C,RESET*%
X71063150Y-97413341D02*
X71063150Y-98186659D01*
X71063150Y-99628800D02*
X75711350Y-99628800D01*
X75711350Y-95971200D02*
X71063150Y-95971200D01*
X75711350Y-98186659D02*
X75711350Y-97413341D01*
D14*
X70312250Y-96700000D02*
G75*
G02*
X70062250Y-96700000I-125000J0D01*
G01*
X70062250Y-96700000D02*
G75*
G02*
X70312250Y-96700000I125000J0D01*
G01*
%TO.C,J3*%
D11*
X65950000Y-40325000D02*
X57950000Y-40325000D01*
X57950000Y-55325000D01*
X65950000Y-55325000D01*
X65950000Y-40325000D01*
D15*
X62050000Y-54725000D02*
G75*
G02*
X61850000Y-54725000I-100000J0D01*
G01*
X61850000Y-54725000D02*
G75*
G02*
X62050000Y-54725000I100000J0D01*
G01*
D12*
%TO.C,R21*%
X113377500Y-59987258D02*
X113377500Y-59512742D01*
X114422500Y-59987258D02*
X114422500Y-59512742D01*
%TO.C,C14*%
X83365581Y-81990000D02*
X83084419Y-81990000D01*
X83365581Y-83010000D02*
X83084419Y-83010000D01*
%TO.C,R28*%
X85477500Y-85237258D02*
X85477500Y-84762742D01*
X86522500Y-85237258D02*
X86522500Y-84762742D01*
%TO.C,C11*%
X96590000Y-100384419D02*
X96590000Y-100665581D01*
X97610000Y-100384419D02*
X97610000Y-100665581D01*
%TO.C,R14*%
X109512258Y-74027500D02*
X109037742Y-74027500D01*
X109512258Y-75072500D02*
X109037742Y-75072500D01*
D16*
%TO.C,BZ1*%
X112627501Y-92250000D02*
X112627501Y-92850000D01*
X112927501Y-92550000D02*
X112327501Y-92550000D01*
X112927501Y-98700000D02*
X112327501Y-98700000D01*
X113987501Y-97480001D02*
X113987501Y-93769999D01*
X115882500Y-91875000D02*
X119592502Y-91875000D01*
X115882500Y-99375000D02*
X119592502Y-99375000D01*
X121487501Y-97480001D02*
X121487501Y-93769999D01*
D12*
%TO.C,U4*%
X111252500Y-61440000D02*
X113072500Y-61440000D01*
X111252500Y-61490000D02*
X111252500Y-61440000D01*
X111252500Y-64560000D02*
X111252500Y-64510000D01*
X113072500Y-61440000D02*
X113072500Y-61490000D01*
X113072500Y-64510000D02*
X113072500Y-64560000D01*
X113072500Y-64560000D02*
X111252500Y-64560000D01*
X113852500Y-64840000D02*
X113372500Y-64840000D01*
X113612500Y-64510000D01*
X113852500Y-64840000D01*
G36*
X113852500Y-64840000D02*
G01*
X113372500Y-64840000D01*
X113612500Y-64510000D01*
X113852500Y-64840000D01*
G37*
%TO.C,C3*%
X104015581Y-54590000D02*
X103734419Y-54590000D01*
X104015581Y-55610000D02*
X103734419Y-55610000D01*
%TO.C,R3*%
X109462258Y-70727500D02*
X108987742Y-70727500D01*
X109462258Y-71772500D02*
X108987742Y-71772500D01*
%TO.C,C2*%
X104290000Y-63934419D02*
X104290000Y-64215581D01*
X105310000Y-63934419D02*
X105310000Y-64215581D01*
%TO.C,R16*%
X98127500Y-59912258D02*
X98127500Y-59437742D01*
X99172500Y-59912258D02*
X99172500Y-59437742D01*
%TO.C,D6*%
X56160000Y-86609999D02*
X52140000Y-86609999D01*
X52140000Y-83889999D01*
X52440000Y-83589999D01*
X56160000Y-83589999D01*
X56160000Y-86609999D01*
%TO.C,C4*%
X104065580Y-56390001D02*
X103784418Y-56390001D01*
X104065580Y-57410001D02*
X103784418Y-57410001D01*
%TO.C,C5*%
X102490000Y-52015581D02*
X102490000Y-51734419D01*
X103510000Y-52015581D02*
X103510000Y-51734419D01*
%TO.C,R36*%
X62912742Y-87527500D02*
X63387258Y-87527500D01*
X62912742Y-88572500D02*
X63387258Y-88572500D01*
%TO.C,D5*%
X109727501Y-92002500D02*
X110727501Y-92002500D01*
X109727501Y-93522500D02*
X109727501Y-92002500D01*
X109777501Y-93522500D02*
X109727501Y-93522500D01*
X111677501Y-93522500D02*
X110897501Y-93522500D01*
X111847501Y-92002500D02*
X112847501Y-92002500D01*
X112847501Y-92002500D02*
X112847501Y-93522500D01*
X112847501Y-93522500D02*
X112797501Y-93522500D01*
X111237501Y-94302500D02*
X110907501Y-94062500D01*
X111237501Y-93822500D01*
X111237501Y-94302500D01*
G36*
X111237501Y-94302500D02*
G01*
X110907501Y-94062500D01*
X111237501Y-93822500D01*
X111237501Y-94302500D01*
G37*
%TO.C,R25*%
X64437742Y-55877500D02*
X64912258Y-55877500D01*
X64437742Y-56922500D02*
X64912258Y-56922500D01*
%TO.C,U1*%
X77700000Y-87650000D02*
X93300000Y-87650000D01*
X77700000Y-108350000D02*
X77700000Y-87650000D01*
X93300000Y-87650000D02*
X93300000Y-108350000D01*
X93300000Y-108350000D02*
X77700000Y-108350000D01*
X93575000Y-108600000D02*
X91125000Y-108600000D01*
X93575000Y-108600000D02*
X93575000Y-106150000D01*
X93811000Y-101640000D02*
X93475000Y-101400000D01*
X93811000Y-101160000D01*
X93811000Y-101640000D01*
G36*
X93811000Y-101640000D02*
G01*
X93475000Y-101400000D01*
X93811000Y-101160000D01*
X93811000Y-101640000D01*
G37*
D13*
%TO.C,SW4*%
X63850900Y-98888342D02*
X63850900Y-99661660D01*
X63850900Y-101103801D02*
X68499100Y-101103801D01*
X68499100Y-97446201D02*
X63850900Y-97446201D01*
X68499100Y-99661660D02*
X68499100Y-98888342D01*
D14*
X63100000Y-98175001D02*
G75*
G02*
X62850000Y-98175001I-125000J0D01*
G01*
X62850000Y-98175001D02*
G75*
G02*
X63100000Y-98175001I125000J0D01*
G01*
D12*
%TO.C,R29*%
X83477500Y-85237258D02*
X83477500Y-84762742D01*
X84522500Y-85237258D02*
X84522500Y-84762742D01*
%TO.C,C15*%
X86634419Y-81990000D02*
X86915581Y-81990000D01*
X86634419Y-83010000D02*
X86915581Y-83010000D01*
%TO.C,R17*%
X100127249Y-55749760D02*
X100127249Y-55275244D01*
X101172249Y-55749760D02*
X101172249Y-55275244D01*
D13*
%TO.C,BOOT*%
X100925900Y-99588340D02*
X100925900Y-100361658D01*
X100925900Y-101803799D02*
X105574100Y-101803799D01*
X105574100Y-98146199D02*
X100925900Y-98146199D01*
X105574100Y-100361658D02*
X105574100Y-99588340D01*
D14*
X106575000Y-101074999D02*
G75*
G02*
X106325000Y-101074999I-125000J0D01*
G01*
X106325000Y-101074999D02*
G75*
G02*
X106575000Y-101074999I125000J0D01*
G01*
D12*
%TO.C,R18*%
X95812258Y-58077501D02*
X95337742Y-58077501D01*
X95812258Y-59122501D02*
X95337742Y-59122501D01*
%TO.C,R24*%
X68727500Y-59312258D02*
X68727500Y-58837742D01*
X69772500Y-59312258D02*
X69772500Y-58837742D01*
%TO.C,C9*%
X61490000Y-57084419D02*
X61490000Y-57365581D01*
X62510000Y-57084419D02*
X62510000Y-57365581D01*
D16*
%TO.C,J2*%
X117637500Y-58530000D02*
X118937500Y-58530000D01*
X117637500Y-67470000D02*
X118937500Y-67470000D01*
X122537500Y-58530000D02*
X121937500Y-58530000D01*
X122537500Y-67470000D02*
X121937500Y-67470000D01*
D14*
X114862500Y-66200000D02*
G75*
G02*
X114612500Y-66200000I-125000J0D01*
G01*
X114612500Y-66200000D02*
G75*
G02*
X114862500Y-66200000I125000J0D01*
G01*
D12*
%TO.C,R35*%
X56777500Y-84887742D02*
X56777500Y-85362258D01*
X57822500Y-84887742D02*
X57822500Y-85362258D01*
D10*
%TO.C,U6*%
X49400000Y-53800001D02*
G75*
G02*
X52200000Y-51000000I2800000J1D01*
G01*
X52200000Y-81000000D02*
G75*
G02*
X49400000Y-78200000I0J2800000D01*
G01*
X118600000Y-51000000D02*
G75*
G02*
X121400000Y-53800000I0J-2800000D01*
G01*
X121399999Y-78200000D02*
G75*
G02*
X118599999Y-80999999I-2799999J0D01*
G01*
D12*
%TO.C,Q2*%
X93940000Y-60802500D02*
X93990000Y-60802500D01*
X93940000Y-62322500D02*
X93940000Y-60802500D01*
X94940000Y-62322500D02*
X93940000Y-62322500D01*
X95110000Y-60802500D02*
X95890000Y-60802500D01*
X97010000Y-60802500D02*
X97060000Y-60802500D01*
X97060000Y-60802500D02*
X97060000Y-62322500D01*
X97060000Y-62322500D02*
X96060000Y-62322500D01*
X95880000Y-60262500D02*
X95550000Y-60502500D01*
X95550000Y-60022500D01*
X95880000Y-60262500D01*
G36*
X95880000Y-60262500D02*
G01*
X95550000Y-60502500D01*
X95550000Y-60022500D01*
X95880000Y-60262500D01*
G37*
D13*
%TO.C,SW1*%
X51213651Y-98638340D02*
X51213651Y-99411658D01*
X51213651Y-100853799D02*
X55861851Y-100853799D01*
X55861851Y-97196199D02*
X51213651Y-97196199D01*
X55861851Y-99411658D02*
X55861851Y-98638340D01*
D14*
X50462751Y-97924999D02*
G75*
G02*
X50212751Y-97924999I-125000J0D01*
G01*
X50212751Y-97924999D02*
G75*
G02*
X50462751Y-97924999I125000J0D01*
G01*
D12*
%TO.C,R1*%
X108987742Y-72327500D02*
X109462258Y-72327500D01*
X108987742Y-73372500D02*
X109462258Y-73372500D01*
%TO.C,R20*%
X112674758Y-65477500D02*
X112200242Y-65477500D01*
X112674758Y-66522500D02*
X112200242Y-66522500D01*
%TD*%
M02*
