%TF.GenerationSoftware,KiCad,Pcbnew,9.0.7*%
%TF.CreationDate,2026-04-09T21:48:54-04:00*%
%TF.ProjectId,CUR_ground_station_25-26,4355525f-6772-46f7-956e-645f73746174,rev?*%
%TF.SameCoordinates,Original*%
%TF.FileFunction,Legend,Bot*%
%TF.FilePolarity,Positive*%
%FSLAX46Y46*%
G04 Gerber Fmt 4.6, Leading zero omitted, Abs format (unit mm)*
G04 Created by KiCad (PCBNEW 9.0.7) date 2026-04-09 21:48:54*
%MOMM*%
%LPD*%
G01*
G04 APERTURE LIST*
%ADD10C,0.150000*%
%ADD11C,0.200000*%
%ADD12C,0.000000*%
%ADD13C,0.120000*%
G04 APERTURE END LIST*
D10*
X117669048Y-68123866D02*
X118430953Y-68123866D01*
X118050000Y-68504819D02*
X118050000Y-67742914D01*
D11*
G36*
X113158051Y-53243507D02*
G01*
X113181254Y-53556748D01*
X113375235Y-53591619D01*
X113563860Y-53603032D01*
X113754253Y-53591140D01*
X113917003Y-53557570D01*
X114056313Y-53504623D01*
X114175690Y-53433355D01*
X114277782Y-53343524D01*
X114366347Y-53234851D01*
X114434366Y-53118814D01*
X114483075Y-52994266D01*
X114512812Y-52859636D01*
X114523002Y-52713011D01*
X114512375Y-52561574D01*
X114481167Y-52420522D01*
X114429706Y-52288066D01*
X114357398Y-52162729D01*
X114262761Y-52043420D01*
X114153258Y-51942636D01*
X114029517Y-51864094D01*
X113889526Y-51806774D01*
X113730461Y-51771018D01*
X113548839Y-51758510D01*
X113385029Y-51768195D01*
X113233278Y-51796490D01*
X113281149Y-52110220D01*
X113441680Y-52068704D01*
X113589872Y-52055510D01*
X113726517Y-52067907D01*
X113837675Y-52102521D01*
X113928501Y-52157364D01*
X114002520Y-52233074D01*
X114060748Y-52324877D01*
X114102787Y-52426253D01*
X114128723Y-52538892D01*
X114137709Y-52664896D01*
X114127369Y-52792323D01*
X114097172Y-52908574D01*
X114047433Y-53015734D01*
X113977241Y-53115402D01*
X113890553Y-53197557D01*
X113788836Y-53256465D01*
X113669093Y-53293106D01*
X113526980Y-53306033D01*
X113354939Y-53291229D01*
X113158051Y-53243507D01*
G37*
G36*
X112522409Y-53563954D02*
G01*
X112895368Y-53563954D01*
X112880180Y-53086776D01*
X112874851Y-52551201D01*
X112886408Y-52039470D01*
X112917227Y-51647502D01*
X112522409Y-51625642D01*
X112537368Y-52031043D01*
X112542925Y-52551201D01*
X112537583Y-53088754D01*
X112522409Y-53563954D01*
G37*
G36*
X111875770Y-52228150D02*
G01*
X112047014Y-52250669D01*
X112173019Y-52283266D01*
X112203061Y-52532272D01*
X112004185Y-52491272D01*
X111800061Y-52477561D01*
X111672382Y-52484450D01*
X111589688Y-52501582D01*
X111539087Y-52524822D01*
X111502568Y-52562671D01*
X111477759Y-52624289D01*
X111468012Y-52720094D01*
X111470821Y-52766745D01*
X111700970Y-52781782D01*
X111872565Y-52813285D01*
X111997592Y-52856689D01*
X112086313Y-52908894D01*
X112164633Y-52982366D01*
X112218519Y-53062888D01*
X112250756Y-53152053D01*
X112261802Y-53252544D01*
X112248794Y-53353094D01*
X112211455Y-53436603D01*
X112149084Y-53507167D01*
X112069224Y-53559583D01*
X111975928Y-53591755D01*
X111865640Y-53603032D01*
X111738122Y-53593839D01*
X111630043Y-53567904D01*
X111538140Y-53526835D01*
X111459830Y-53471019D01*
X111442123Y-53471019D01*
X111437072Y-53518423D01*
X111420263Y-53575921D01*
X111097862Y-53563954D01*
X111129406Y-53370360D01*
X111133467Y-53280143D01*
X111462639Y-53280143D01*
X111538308Y-53323965D01*
X111626979Y-53351165D01*
X111731795Y-53360743D01*
X111829076Y-53348439D01*
X111889315Y-53316984D01*
X111924152Y-53268795D01*
X111936714Y-53198322D01*
X111926440Y-53133384D01*
X111896503Y-53079933D01*
X111844474Y-53034901D01*
X111763472Y-52998100D01*
X111643208Y-52972189D01*
X111470821Y-52962139D01*
X111462639Y-53280143D01*
X111133467Y-53280143D01*
X111141582Y-53099892D01*
X111136819Y-52897293D01*
X111131934Y-52687854D01*
X111142104Y-52556637D01*
X111169580Y-52456362D01*
X111211313Y-52380365D01*
X111266512Y-52323688D01*
X111361794Y-52268751D01*
X111486381Y-52232866D01*
X111648386Y-52219641D01*
X111875770Y-52228150D01*
G37*
G36*
X109934534Y-52264093D02*
G01*
X110013791Y-52579166D01*
X110116117Y-52549755D01*
X110218710Y-52540087D01*
X110313601Y-52552186D01*
X110386360Y-52585812D01*
X110442417Y-52640507D01*
X110483836Y-52720461D01*
X110475654Y-53563954D01*
X110839087Y-53563954D01*
X110820963Y-53171085D01*
X110815762Y-52890698D01*
X110823579Y-52674384D01*
X110846563Y-52468999D01*
X110884150Y-52273619D01*
X110535737Y-52235272D01*
X110512534Y-52408929D01*
X110490675Y-52408929D01*
X110420250Y-52323827D01*
X110342272Y-52265903D01*
X110255171Y-52231448D01*
X110155940Y-52219641D01*
X110055456Y-52229948D01*
X109934534Y-52264093D01*
G37*
G36*
X108503515Y-53563954D02*
G01*
X108921536Y-53563954D01*
X108932503Y-53527621D01*
X108987113Y-53429603D01*
X109129265Y-53217984D01*
X109282774Y-53015768D01*
X109359846Y-52938802D01*
X109394391Y-52923060D01*
X109412098Y-52923060D01*
X109395612Y-53563954D01*
X109757702Y-53563954D01*
X109741338Y-52551201D01*
X109752765Y-52047521D01*
X109783714Y-51647502D01*
X109395612Y-51625642D01*
X109410270Y-52125284D01*
X109414785Y-52543263D01*
X109413442Y-52743298D01*
X109394269Y-52743298D01*
X109370042Y-52732207D01*
X109308545Y-52675441D01*
X109177137Y-52522868D01*
X109024724Y-52318708D01*
X108998107Y-52258720D01*
X108590954Y-52258720D01*
X108601028Y-52286659D01*
X108650061Y-52354669D01*
X108776823Y-52494903D01*
X108957617Y-52669976D01*
X109077363Y-52762471D01*
X109077363Y-52783109D01*
X108998098Y-52851797D01*
X108884844Y-52979562D01*
X108726997Y-53190750D01*
X108574108Y-53418893D01*
X108515330Y-53524675D01*
X108503515Y-53563954D01*
G37*
G36*
X107400392Y-53193315D02*
G01*
X107412030Y-53298957D01*
X107444858Y-53385143D01*
X107498177Y-53456274D01*
X107574528Y-53514745D01*
X107679334Y-53560586D01*
X107820314Y-53591473D01*
X108006969Y-53603032D01*
X108220561Y-53590141D01*
X108393606Y-53554672D01*
X108347199Y-53282586D01*
X108175239Y-53329751D01*
X108006969Y-53345112D01*
X107855640Y-53336841D01*
X107779457Y-53318367D01*
X107743299Y-53295720D01*
X107722955Y-53266566D01*
X107715954Y-53228852D01*
X107725834Y-53187918D01*
X107759271Y-53144080D01*
X107827124Y-53094779D01*
X107945542Y-53039076D01*
X108130229Y-52954465D01*
X108237901Y-52883371D01*
X108308739Y-52805550D01*
X108349719Y-52719718D01*
X108363564Y-52622519D01*
X108354772Y-52534514D01*
X108329420Y-52457916D01*
X108287767Y-52390351D01*
X108228375Y-52330283D01*
X108158723Y-52284771D01*
X108072366Y-52250221D01*
X107965797Y-52227774D01*
X107834778Y-52219641D01*
X107606171Y-52231999D01*
X107454980Y-52262994D01*
X107501386Y-52540087D01*
X107605986Y-52505634D01*
X107716757Y-52484688D01*
X107834778Y-52477561D01*
X107947160Y-52487357D01*
X108010665Y-52510792D01*
X108042914Y-52542705D01*
X108053375Y-52584295D01*
X108041806Y-52635979D01*
X108006969Y-52676497D01*
X107947329Y-52710669D01*
X107817070Y-52764547D01*
X107635110Y-52843674D01*
X107528864Y-52913413D01*
X107457212Y-52993459D01*
X107414933Y-53085409D01*
X107400392Y-53193315D01*
G37*
G36*
X106639004Y-52216420D02*
G01*
X106767414Y-52252864D01*
X106886929Y-52313433D01*
X106999345Y-52399892D01*
X107074463Y-52482115D01*
X107133174Y-52575549D01*
X107176146Y-52681796D01*
X107203025Y-52803074D01*
X107212447Y-52942111D01*
X107198982Y-53101160D01*
X107161010Y-53234379D01*
X107100493Y-53346605D01*
X107017053Y-53441344D01*
X106914296Y-53519044D01*
X106803250Y-53573940D01*
X106682116Y-53607245D01*
X106548473Y-53618664D01*
X106408573Y-53606311D01*
X106280348Y-53570081D01*
X106161338Y-53509953D01*
X106049729Y-53424247D01*
X105975119Y-53342551D01*
X105916784Y-53249638D01*
X105874069Y-53143907D01*
X105847342Y-53023133D01*
X105840697Y-52924892D01*
X106194565Y-52924892D01*
X106205404Y-53046459D01*
X106236114Y-53149004D01*
X106285423Y-53236180D01*
X106353415Y-53306459D01*
X106430782Y-53346976D01*
X106521118Y-53360743D01*
X106613556Y-53346127D01*
X106692914Y-53302923D01*
X106762918Y-53227387D01*
X106813370Y-53134404D01*
X106844785Y-53025741D01*
X106855853Y-52897781D01*
X106845014Y-52776214D01*
X106814304Y-52673669D01*
X106764994Y-52586494D01*
X106697003Y-52516214D01*
X106619636Y-52475697D01*
X106529300Y-52461930D01*
X106436862Y-52476546D01*
X106357504Y-52519751D01*
X106287500Y-52595286D01*
X106237048Y-52688269D01*
X106205633Y-52796933D01*
X106194565Y-52924892D01*
X105840697Y-52924892D01*
X105837971Y-52884592D01*
X105851400Y-52724860D01*
X105889272Y-52590977D01*
X105949613Y-52478124D01*
X106032754Y-52382795D01*
X106135256Y-52304359D01*
X106245873Y-52249028D01*
X106366398Y-52215498D01*
X106499258Y-52204009D01*
X106639004Y-52216420D01*
G37*
G36*
X104356882Y-53563954D02*
G01*
X104720315Y-53563954D01*
X104697728Y-53215891D01*
X104690151Y-52862000D01*
X104699368Y-52718071D01*
X104722272Y-52625863D01*
X104753654Y-52570007D01*
X104801122Y-52528690D01*
X104863920Y-52502680D01*
X104946973Y-52493193D01*
X105047400Y-52504697D01*
X105145083Y-52539598D01*
X105242140Y-52600171D01*
X105235301Y-53563954D01*
X105602887Y-53563954D01*
X105583575Y-53158805D01*
X105578218Y-52890698D01*
X105585893Y-52673437D01*
X105608409Y-52468069D01*
X105645141Y-52273619D01*
X105295385Y-52235272D01*
X105272182Y-52378399D01*
X105250322Y-52378399D01*
X105152268Y-52308380D01*
X105048868Y-52259235D01*
X104938715Y-52229680D01*
X104819966Y-52219641D01*
X104682975Y-52231801D01*
X104572552Y-52265586D01*
X104483278Y-52318803D01*
X104432269Y-52372644D01*
X104393008Y-52447361D01*
X104366729Y-52548782D01*
X104356882Y-52684557D01*
X104360301Y-52790559D01*
X104363721Y-52926724D01*
X104356882Y-53563954D01*
G37*
G36*
X101926421Y-51781958D02*
G01*
X101938756Y-52697990D01*
X101950585Y-52911942D01*
X101983225Y-53086598D01*
X102033272Y-53228387D01*
X102098618Y-53342803D01*
X102178602Y-53434187D01*
X102274064Y-53505473D01*
X102387278Y-53557960D01*
X102521753Y-53591202D01*
X102681987Y-53603032D01*
X102831743Y-53593750D01*
X102958742Y-53567647D01*
X103066500Y-53526647D01*
X103157953Y-53471682D01*
X103235319Y-53402631D01*
X103294609Y-53322780D01*
X103344877Y-53217302D01*
X103384640Y-53080333D01*
X103411248Y-52904876D01*
X103421065Y-52682970D01*
X103433400Y-51781958D01*
X103046763Y-51781958D01*
X103060130Y-52238272D01*
X103064471Y-52669536D01*
X103056357Y-52867681D01*
X103035193Y-53011777D01*
X103005045Y-53113478D01*
X102968850Y-53182813D01*
X102915673Y-53242595D01*
X102850615Y-53285357D01*
X102771255Y-53312117D01*
X102673804Y-53321665D01*
X102571008Y-53311934D01*
X102489139Y-53284957D01*
X102423748Y-53242391D01*
X102371920Y-53183545D01*
X102336907Y-53114685D01*
X102307586Y-53012817D01*
X102286925Y-52867557D01*
X102278986Y-52666850D01*
X102283275Y-52244957D01*
X102296694Y-51781958D01*
X101926421Y-51781958D01*
G37*
G36*
X100372793Y-53563954D02*
G01*
X100736226Y-53563954D01*
X100713639Y-53215891D01*
X100706062Y-52862000D01*
X100715279Y-52718071D01*
X100738183Y-52625863D01*
X100769565Y-52570007D01*
X100817033Y-52528690D01*
X100879830Y-52502680D01*
X100962883Y-52493193D01*
X101063311Y-52504697D01*
X101160993Y-52539598D01*
X101258051Y-52600171D01*
X101251212Y-53563954D01*
X101618797Y-53563954D01*
X101599485Y-53158805D01*
X101594129Y-52890698D01*
X101601804Y-52673437D01*
X101624320Y-52468069D01*
X101661052Y-52273619D01*
X101311296Y-52235272D01*
X101288093Y-52378399D01*
X101266233Y-52378399D01*
X101168179Y-52308380D01*
X101064779Y-52259235D01*
X100954626Y-52229680D01*
X100835877Y-52219641D01*
X100698885Y-52231801D01*
X100588463Y-52265586D01*
X100499188Y-52318803D01*
X100448180Y-52372644D01*
X100408919Y-52447361D01*
X100382639Y-52548782D01*
X100372793Y-52684557D01*
X100376212Y-52790559D01*
X100379631Y-52926724D01*
X100372793Y-53563954D01*
G37*
G36*
X99682074Y-53563954D02*
G01*
X100049537Y-53563954D01*
X100035559Y-53269904D01*
X100030486Y-52913291D01*
X100042932Y-52560178D01*
X100076892Y-52274962D01*
X99683417Y-52235272D01*
X99696301Y-52519657D01*
X99701247Y-52913291D01*
X99696250Y-53258819D01*
X99682074Y-53563954D01*
G37*
G36*
X99619181Y-51844972D02*
G01*
X99626279Y-51904913D01*
X99647207Y-51958966D01*
X99682684Y-52008737D01*
X99729240Y-52046965D01*
X99787097Y-52070547D01*
X99859638Y-52078957D01*
X99920683Y-52071741D01*
X99969616Y-52051442D01*
X100009237Y-52018385D01*
X100049545Y-51952088D01*
X100063215Y-51872450D01*
X100056087Y-51812553D01*
X100035139Y-51759010D01*
X99999712Y-51710150D01*
X99953230Y-51672779D01*
X99894968Y-51649582D01*
X99821414Y-51641274D01*
X99759377Y-51648501D01*
X99710537Y-51668666D01*
X99671816Y-51701235D01*
X99632513Y-51766619D01*
X99619181Y-51844972D01*
G37*
G36*
X98192681Y-52258720D02*
G01*
X98205397Y-52320718D01*
X98269639Y-52503326D01*
X98437290Y-52911337D01*
X98604856Y-53319343D01*
X98669067Y-53501953D01*
X98681777Y-53563954D01*
X99054736Y-53563954D01*
X99066520Y-53496285D01*
X99124306Y-53306726D01*
X99271990Y-52895583D01*
X99460125Y-52370210D01*
X99489244Y-52258720D01*
X99090273Y-52258720D01*
X99070098Y-52359628D01*
X98955696Y-52736214D01*
X98842148Y-53113465D01*
X98821118Y-53224578D01*
X98803410Y-53224578D01*
X98783606Y-53121892D01*
X98675061Y-52762959D01*
X98569107Y-52399948D01*
X98546589Y-52258720D01*
X98192681Y-52258720D01*
G37*
G36*
X97543777Y-52233948D02*
G01*
X97675234Y-52274600D01*
X97787527Y-52340163D01*
X97883836Y-52431888D01*
X97961822Y-52542772D01*
X98017089Y-52661990D01*
X98050643Y-52791319D01*
X98062133Y-52933074D01*
X98050104Y-53067961D01*
X98014975Y-53190223D01*
X97956895Y-53302421D01*
X97874310Y-53406417D01*
X97774649Y-53489449D01*
X97654409Y-53550468D01*
X97509367Y-53589191D01*
X97333923Y-53603032D01*
X97148465Y-53594456D01*
X96994259Y-53570679D01*
X96866687Y-53534156D01*
X96839331Y-53266954D01*
X97068019Y-53314454D01*
X97275183Y-53329480D01*
X97394376Y-53317460D01*
X97492152Y-53283624D01*
X97573037Y-53229219D01*
X97638335Y-53156368D01*
X97682100Y-53073364D01*
X97705539Y-52977771D01*
X96825654Y-52962872D01*
X96817472Y-52782132D01*
X96818282Y-52771630D01*
X97137185Y-52771630D01*
X97708225Y-52782376D01*
X97677014Y-52656608D01*
X97630781Y-52568862D01*
X97571568Y-52509922D01*
X97497884Y-52474463D01*
X97404998Y-52461930D01*
X97306725Y-52474863D01*
X97235347Y-52510148D01*
X97183832Y-52567069D01*
X97150019Y-52650878D01*
X97137185Y-52771630D01*
X96818282Y-52771630D01*
X96827022Y-52658287D01*
X96854259Y-52551085D01*
X96897984Y-52457700D01*
X96958278Y-52375956D01*
X97033334Y-52310635D01*
X97127088Y-52262118D01*
X97243658Y-52230926D01*
X97388511Y-52219641D01*
X97543777Y-52233948D01*
G37*
G36*
X95668797Y-52264093D02*
G01*
X95748054Y-52579166D01*
X95850381Y-52549755D01*
X95952974Y-52540087D01*
X96047865Y-52552186D01*
X96120623Y-52585812D01*
X96176680Y-52640507D01*
X96218100Y-52720461D01*
X96209918Y-53563954D01*
X96573351Y-53563954D01*
X96555227Y-53171085D01*
X96550026Y-52890698D01*
X96557843Y-52674384D01*
X96580826Y-52468999D01*
X96618414Y-52273619D01*
X96270001Y-52235272D01*
X96246798Y-52408929D01*
X96224938Y-52408929D01*
X96154513Y-52323827D01*
X96076536Y-52265903D01*
X95989434Y-52231448D01*
X95890204Y-52219641D01*
X95789720Y-52229948D01*
X95668797Y-52264093D01*
G37*
G36*
X94562988Y-53193315D02*
G01*
X94574626Y-53298957D01*
X94607454Y-53385143D01*
X94660772Y-53456274D01*
X94737124Y-53514745D01*
X94841930Y-53560586D01*
X94982910Y-53591473D01*
X95169565Y-53603032D01*
X95383157Y-53590141D01*
X95556202Y-53554672D01*
X95509795Y-53282586D01*
X95337835Y-53329751D01*
X95169565Y-53345112D01*
X95018236Y-53336841D01*
X94942053Y-53318367D01*
X94905895Y-53295720D01*
X94885551Y-53266566D01*
X94878550Y-53228852D01*
X94888430Y-53187918D01*
X94921867Y-53144080D01*
X94989720Y-53094779D01*
X95108138Y-53039076D01*
X95292825Y-52954465D01*
X95400497Y-52883371D01*
X95471335Y-52805550D01*
X95512315Y-52719718D01*
X95526160Y-52622519D01*
X95517368Y-52534514D01*
X95492016Y-52457916D01*
X95450363Y-52390351D01*
X95390971Y-52330283D01*
X95321319Y-52284771D01*
X95234962Y-52250221D01*
X95128393Y-52227774D01*
X94997374Y-52219641D01*
X94768767Y-52231999D01*
X94617576Y-52262994D01*
X94663982Y-52540087D01*
X94768582Y-52505634D01*
X94879353Y-52484688D01*
X94997374Y-52477561D01*
X95109756Y-52487357D01*
X95173261Y-52510792D01*
X95205510Y-52542705D01*
X95215971Y-52584295D01*
X95204402Y-52635979D01*
X95169565Y-52676497D01*
X95109925Y-52710669D01*
X94979666Y-52764547D01*
X94797706Y-52843674D01*
X94691460Y-52913413D01*
X94619808Y-52993459D01*
X94577528Y-53085409D01*
X94562988Y-53193315D01*
G37*
G36*
X93929666Y-53563954D02*
G01*
X94297130Y-53563954D01*
X94283151Y-53269904D01*
X94278079Y-52913291D01*
X94290525Y-52560178D01*
X94324485Y-52274962D01*
X93931010Y-52235272D01*
X93943893Y-52519657D01*
X93948839Y-52913291D01*
X93943843Y-53258819D01*
X93929666Y-53563954D01*
G37*
G36*
X93866774Y-51844972D02*
G01*
X93873871Y-51904913D01*
X93894799Y-51958966D01*
X93930277Y-52008737D01*
X93976832Y-52046965D01*
X94034689Y-52070547D01*
X94107231Y-52078957D01*
X94168276Y-52071741D01*
X94217208Y-52051442D01*
X94256830Y-52018385D01*
X94297137Y-51952088D01*
X94310807Y-51872450D01*
X94303680Y-51812553D01*
X94282731Y-51759010D01*
X94247304Y-51710150D01*
X94200822Y-51672779D01*
X94142560Y-51649582D01*
X94069007Y-51641274D01*
X94006969Y-51648501D01*
X93958130Y-51668666D01*
X93919408Y-51701235D01*
X93880105Y-51766619D01*
X93866774Y-51844972D01*
G37*
G36*
X93491006Y-51899805D02*
G01*
X93501875Y-52282167D01*
X93697269Y-52273985D01*
X93706795Y-52548270D01*
X93518239Y-52540087D01*
X93520926Y-53009278D01*
X93511537Y-53190024D01*
X93487049Y-53320562D01*
X93451931Y-53412258D01*
X93408941Y-53474561D01*
X93349398Y-53525185D01*
X93276102Y-53562638D01*
X93186115Y-53586592D01*
X93075549Y-53595217D01*
X92937815Y-53584180D01*
X92835092Y-53554672D01*
X92811889Y-53313849D01*
X92897003Y-53331689D01*
X92973089Y-53337296D01*
X93051324Y-53326955D01*
X93107199Y-53298910D01*
X93146624Y-53253887D01*
X93170325Y-53194417D01*
X93188416Y-53091124D01*
X93195839Y-52924892D01*
X93193030Y-52540087D01*
X92855608Y-52548270D01*
X92844617Y-52271298D01*
X93187657Y-52282167D01*
X93167140Y-51860115D01*
X93491006Y-51899805D01*
G37*
G36*
X91437046Y-52258720D02*
G01*
X91448429Y-52324182D01*
X91501470Y-52488237D01*
X91632440Y-52822799D01*
X91829187Y-53327865D01*
X91907091Y-53567495D01*
X91961697Y-53742712D01*
X92020562Y-53874618D01*
X92082273Y-53971370D01*
X92146205Y-54039861D01*
X92221135Y-54091471D01*
X92315496Y-54130768D01*
X92433571Y-54156424D01*
X92580591Y-54165768D01*
X92607946Y-53907847D01*
X92498798Y-53896277D01*
X92407155Y-53863313D01*
X92329265Y-53809540D01*
X92269171Y-53737759D01*
X92232754Y-53651684D01*
X92219966Y-53546979D01*
X92236813Y-53435214D01*
X92306826Y-53216766D01*
X92465919Y-52834400D01*
X92684015Y-52335272D01*
X92711749Y-52258720D01*
X92289576Y-52258720D01*
X92272041Y-52346642D01*
X92165256Y-52722903D01*
X92061684Y-53102189D01*
X92040936Y-53232150D01*
X92021885Y-53232150D01*
X92003494Y-53117428D01*
X91909167Y-52763325D01*
X91816680Y-52405464D01*
X91796449Y-52258720D01*
X91437046Y-52258720D01*
G37*
G36*
X114023647Y-55146110D02*
G01*
X114195106Y-55150140D01*
X114431411Y-55150140D01*
X114418513Y-55518854D01*
X114413703Y-55996197D01*
X114418380Y-56499203D01*
X114431411Y-56923954D01*
X114051613Y-56923954D01*
X114063948Y-56214062D01*
X113912273Y-56212718D01*
X113818710Y-56220868D01*
X113744459Y-56243348D01*
X113685519Y-56278458D01*
X113639087Y-56326291D01*
X113589167Y-56412094D01*
X113511592Y-56593925D01*
X113395821Y-56923954D01*
X112991355Y-56923954D01*
X113164599Y-56491984D01*
X113271502Y-56276221D01*
X113349815Y-56167805D01*
X113429960Y-56098869D01*
X113513302Y-56061166D01*
X113513302Y-56040771D01*
X113397520Y-55987007D01*
X113308468Y-55923990D01*
X113241760Y-55852062D01*
X113194493Y-55770372D01*
X113165480Y-55676949D01*
X113164853Y-55670255D01*
X113503777Y-55670255D01*
X113515158Y-55759555D01*
X113547129Y-55829937D01*
X113599652Y-55886027D01*
X113676855Y-55929587D01*
X113786333Y-55959179D01*
X113938285Y-55970429D01*
X114065291Y-55967743D01*
X114069491Y-55645712D01*
X114080312Y-55418929D01*
X113978193Y-55404960D01*
X113853532Y-55399878D01*
X113733906Y-55409521D01*
X113646629Y-55435096D01*
X113583992Y-55473297D01*
X113540485Y-55523446D01*
X113513497Y-55587620D01*
X113503777Y-55670255D01*
X113164853Y-55670255D01*
X113155364Y-55568894D01*
X113167448Y-55458592D01*
X113201510Y-55368682D01*
X113256774Y-55294562D01*
X113335809Y-55233709D01*
X113444169Y-55186050D01*
X113589791Y-55153961D01*
X113782458Y-55141958D01*
X114023647Y-55146110D01*
G37*
G36*
X112293714Y-55576420D02*
G01*
X112422125Y-55612864D01*
X112541639Y-55673433D01*
X112654056Y-55759892D01*
X112729173Y-55842115D01*
X112787884Y-55935549D01*
X112830857Y-56041796D01*
X112857736Y-56163074D01*
X112867158Y-56302111D01*
X112853692Y-56461160D01*
X112815720Y-56594379D01*
X112755203Y-56706605D01*
X112671763Y-56801344D01*
X112569006Y-56879044D01*
X112457960Y-56933940D01*
X112336826Y-56967245D01*
X112203183Y-56978664D01*
X112063284Y-56966311D01*
X111935059Y-56930081D01*
X111816049Y-56869953D01*
X111704439Y-56784247D01*
X111629830Y-56702551D01*
X111571494Y-56609638D01*
X111528780Y-56503907D01*
X111502053Y-56383133D01*
X111495407Y-56284892D01*
X111849276Y-56284892D01*
X111860114Y-56406459D01*
X111890824Y-56509004D01*
X111940134Y-56596180D01*
X112008125Y-56666459D01*
X112085492Y-56706976D01*
X112175828Y-56720743D01*
X112268266Y-56706127D01*
X112347624Y-56662923D01*
X112417629Y-56587387D01*
X112468080Y-56494404D01*
X112499495Y-56385741D01*
X112510563Y-56257781D01*
X112499725Y-56136214D01*
X112469014Y-56033669D01*
X112419705Y-55946494D01*
X112351713Y-55876214D01*
X112274346Y-55835697D01*
X112184010Y-55821930D01*
X112091572Y-55836546D01*
X112012214Y-55879751D01*
X111942210Y-55955286D01*
X111891759Y-56048269D01*
X111860343Y-56156933D01*
X111849276Y-56284892D01*
X111495407Y-56284892D01*
X111492681Y-56244592D01*
X111506110Y-56084860D01*
X111543982Y-55950977D01*
X111604324Y-55838124D01*
X111687465Y-55742795D01*
X111789966Y-55664359D01*
X111900583Y-55609028D01*
X112021109Y-55575498D01*
X112153968Y-55564009D01*
X112293714Y-55576420D01*
G37*
G36*
X110212360Y-56634770D02*
G01*
X110235563Y-56897087D01*
X110321135Y-56931621D01*
X110431674Y-56954560D01*
X110573107Y-56963032D01*
X110748520Y-56949212D01*
X110893822Y-56910517D01*
X111014539Y-56849495D01*
X111114837Y-56766417D01*
X111198107Y-56662331D01*
X111256587Y-56550238D01*
X111291916Y-56428291D01*
X111304003Y-56293929D01*
X111291481Y-56154301D01*
X111254681Y-56025855D01*
X111193450Y-55906139D01*
X111105922Y-55793353D01*
X111000286Y-55701604D01*
X110877182Y-55635432D01*
X110733163Y-55594181D01*
X110563459Y-55579641D01*
X110400690Y-55589838D01*
X110264262Y-55618353D01*
X110310668Y-55900087D01*
X110441730Y-55859487D01*
X110592158Y-55845377D01*
X110696891Y-55858930D01*
X110782346Y-55897567D01*
X110853131Y-55961759D01*
X110905557Y-56043870D01*
X110937587Y-56138326D01*
X110948752Y-56248378D01*
X110935692Y-56367487D01*
X110897946Y-56470674D01*
X110835423Y-56561497D01*
X110774628Y-56616205D01*
X110702502Y-56655824D01*
X110616766Y-56680669D01*
X110514244Y-56689480D01*
X110386747Y-56677348D01*
X110212360Y-56634770D01*
G37*
G36*
X108745804Y-56923954D02*
G01*
X109163825Y-56923954D01*
X109174792Y-56887621D01*
X109229402Y-56789603D01*
X109371554Y-56577984D01*
X109525063Y-56375768D01*
X109602135Y-56298802D01*
X109636680Y-56283060D01*
X109654387Y-56283060D01*
X109637901Y-56923954D01*
X109999991Y-56923954D01*
X109983627Y-55911201D01*
X109995054Y-55407521D01*
X110026003Y-55007502D01*
X109637901Y-54985642D01*
X109652558Y-55485284D01*
X109657074Y-55903263D01*
X109655730Y-56103298D01*
X109636557Y-56103298D01*
X109612331Y-56092207D01*
X109550834Y-56035441D01*
X109419426Y-55882868D01*
X109267013Y-55678708D01*
X109240396Y-55618720D01*
X108833243Y-55618720D01*
X108843317Y-55646659D01*
X108892350Y-55714669D01*
X109019112Y-55854903D01*
X109199906Y-56029976D01*
X109319652Y-56122471D01*
X109319652Y-56143109D01*
X109240387Y-56211797D01*
X109127133Y-56339562D01*
X108969286Y-56550750D01*
X108816397Y-56778893D01*
X108757619Y-56884675D01*
X108745804Y-56923954D01*
G37*
G36*
X108110700Y-55593948D02*
G01*
X108242157Y-55634600D01*
X108354450Y-55700163D01*
X108450758Y-55791888D01*
X108528745Y-55902772D01*
X108584011Y-56021990D01*
X108617566Y-56151319D01*
X108629056Y-56293074D01*
X108617026Y-56427961D01*
X108581897Y-56550223D01*
X108523818Y-56662421D01*
X108441233Y-56766417D01*
X108341572Y-56849449D01*
X108221331Y-56910468D01*
X108076290Y-56949191D01*
X107900846Y-56963032D01*
X107715388Y-56954456D01*
X107561182Y-56930679D01*
X107433609Y-56894156D01*
X107406254Y-56626954D01*
X107634942Y-56674454D01*
X107842105Y-56689480D01*
X107961298Y-56677460D01*
X108059074Y-56643624D01*
X108139959Y-56589219D01*
X108205257Y-56516368D01*
X108249023Y-56433364D01*
X108272461Y-56337771D01*
X107392576Y-56322872D01*
X107384394Y-56142132D01*
X107385204Y-56131630D01*
X107704108Y-56131630D01*
X108275148Y-56142376D01*
X108243937Y-56016608D01*
X108197704Y-55928862D01*
X108138491Y-55869922D01*
X108064807Y-55834463D01*
X107971920Y-55821930D01*
X107873648Y-55834863D01*
X107802270Y-55870148D01*
X107750754Y-55927069D01*
X107716942Y-56010878D01*
X107704108Y-56131630D01*
X107385204Y-56131630D01*
X107393944Y-56018287D01*
X107421181Y-55911085D01*
X107464907Y-55817700D01*
X107525200Y-55735956D01*
X107600257Y-55670635D01*
X107694011Y-55622118D01*
X107810581Y-55590926D01*
X107955434Y-55579641D01*
X108110700Y-55593948D01*
G37*
G36*
X107006428Y-55259805D02*
G01*
X107017297Y-55642167D01*
X107212691Y-55633985D01*
X107222217Y-55908270D01*
X107033661Y-55900087D01*
X107036348Y-56369278D01*
X107026959Y-56550024D01*
X107002471Y-56680562D01*
X106967354Y-56772258D01*
X106924363Y-56834561D01*
X106864821Y-56885185D01*
X106791525Y-56922638D01*
X106701538Y-56946592D01*
X106590971Y-56955217D01*
X106453237Y-56944180D01*
X106350514Y-56914672D01*
X106327311Y-56673849D01*
X106412425Y-56691689D01*
X106488511Y-56697296D01*
X106566746Y-56686955D01*
X106622621Y-56658910D01*
X106662046Y-56613887D01*
X106685747Y-56554417D01*
X106703838Y-56451124D01*
X106711261Y-56284892D01*
X106708452Y-55900087D01*
X106371031Y-55908270D01*
X106360040Y-55631298D01*
X106703079Y-55642167D01*
X106682562Y-55220115D01*
X107006428Y-55259805D01*
G37*
G36*
X105221624Y-55624093D02*
G01*
X105300881Y-55939166D01*
X105403207Y-55909755D01*
X105505800Y-55900087D01*
X105600691Y-55912186D01*
X105673450Y-55945812D01*
X105729507Y-56000507D01*
X105770926Y-56080461D01*
X105762744Y-56923954D01*
X106126177Y-56923954D01*
X106108053Y-56531085D01*
X106102852Y-56250698D01*
X106110669Y-56034384D01*
X106133653Y-55828999D01*
X106171240Y-55633619D01*
X105822827Y-55595272D01*
X105799624Y-55768929D01*
X105777765Y-55768929D01*
X105707340Y-55683827D01*
X105629363Y-55625903D01*
X105542261Y-55591448D01*
X105443030Y-55579641D01*
X105342546Y-55589948D01*
X105221624Y-55624093D01*
G37*
G36*
X103873892Y-55618720D02*
G01*
X103885274Y-55684182D01*
X103938316Y-55848237D01*
X104069286Y-56182799D01*
X104266032Y-56687865D01*
X104343937Y-56927495D01*
X104398542Y-57102712D01*
X104457407Y-57234618D01*
X104519118Y-57331370D01*
X104583051Y-57399861D01*
X104657981Y-57451471D01*
X104752341Y-57490768D01*
X104870417Y-57516424D01*
X105017437Y-57525768D01*
X105044792Y-57267847D01*
X104935644Y-57256277D01*
X104844001Y-57223313D01*
X104766111Y-57169540D01*
X104706017Y-57097759D01*
X104669600Y-57011684D01*
X104656812Y-56906979D01*
X104673659Y-56795214D01*
X104743672Y-56576766D01*
X104902765Y-56194400D01*
X105120861Y-55695272D01*
X105148595Y-55618720D01*
X104726421Y-55618720D01*
X104708887Y-55706642D01*
X104602102Y-56082903D01*
X104498530Y-56462189D01*
X104477782Y-56592150D01*
X104458731Y-56592150D01*
X104440339Y-56477428D01*
X104346013Y-56123325D01*
X104253526Y-55765464D01*
X104233295Y-55618720D01*
X103873892Y-55618720D01*
G37*
G36*
X101779631Y-55141958D02*
G01*
X101789157Y-55443842D01*
X102058863Y-55428287D01*
X102304387Y-55423325D01*
X102307074Y-55996563D01*
X102303178Y-56480274D01*
X102291931Y-56923954D01*
X102674537Y-56923954D01*
X102661405Y-56483311D01*
X102656830Y-55996563D01*
X102662325Y-55423325D01*
X102873001Y-55428073D01*
X103190989Y-55445185D01*
X103179998Y-55141958D01*
X101779631Y-55141958D01*
G37*
G36*
X101303163Y-55593948D02*
G01*
X101434620Y-55634600D01*
X101546913Y-55700163D01*
X101643222Y-55791888D01*
X101721208Y-55902772D01*
X101776474Y-56021990D01*
X101810029Y-56151319D01*
X101821519Y-56293074D01*
X101809490Y-56427961D01*
X101774361Y-56550223D01*
X101716281Y-56662421D01*
X101633696Y-56766417D01*
X101534035Y-56849449D01*
X101413795Y-56910468D01*
X101268753Y-56949191D01*
X101093309Y-56963032D01*
X100907851Y-56954456D01*
X100753645Y-56930679D01*
X100626072Y-56894156D01*
X100598717Y-56626954D01*
X100827405Y-56674454D01*
X101034569Y-56689480D01*
X101153762Y-56677460D01*
X101251538Y-56643624D01*
X101332423Y-56589219D01*
X101397721Y-56516368D01*
X101441486Y-56433364D01*
X101464924Y-56337771D01*
X100585040Y-56322872D01*
X100576858Y-56142132D01*
X100577668Y-56131630D01*
X100896571Y-56131630D01*
X101467611Y-56142376D01*
X101436400Y-56016608D01*
X101390167Y-55928862D01*
X101330954Y-55869922D01*
X101257270Y-55834463D01*
X101164384Y-55821930D01*
X101066111Y-55834863D01*
X100994733Y-55870148D01*
X100943218Y-55927069D01*
X100909405Y-56010878D01*
X100896571Y-56131630D01*
X100577668Y-56131630D01*
X100586408Y-56018287D01*
X100613645Y-55911085D01*
X100657370Y-55817700D01*
X100717664Y-55735956D01*
X100792720Y-55670635D01*
X100886474Y-55622118D01*
X101003044Y-55590926D01*
X101147897Y-55579641D01*
X101303163Y-55593948D01*
G37*
G36*
X99995798Y-55588150D02*
G01*
X100167042Y-55610669D01*
X100293047Y-55643266D01*
X100323089Y-55892272D01*
X100124212Y-55851272D01*
X99920088Y-55837561D01*
X99792409Y-55844450D01*
X99709716Y-55861582D01*
X99659115Y-55884822D01*
X99622596Y-55922671D01*
X99597787Y-55984289D01*
X99588040Y-56080094D01*
X99590849Y-56126745D01*
X99820998Y-56141782D01*
X99992593Y-56173285D01*
X100117620Y-56216689D01*
X100206341Y-56268894D01*
X100284661Y-56342366D01*
X100338547Y-56422888D01*
X100370784Y-56512053D01*
X100381830Y-56612544D01*
X100368822Y-56713094D01*
X100331483Y-56796603D01*
X100269112Y-56867167D01*
X100189252Y-56919583D01*
X100095956Y-56951755D01*
X99985668Y-56963032D01*
X99858150Y-56953839D01*
X99750071Y-56927904D01*
X99658167Y-56886835D01*
X99579858Y-56831019D01*
X99562151Y-56831019D01*
X99557100Y-56878423D01*
X99540291Y-56935921D01*
X99217890Y-56923954D01*
X99249434Y-56730360D01*
X99253495Y-56640143D01*
X99582667Y-56640143D01*
X99658336Y-56683965D01*
X99747007Y-56711165D01*
X99851823Y-56720743D01*
X99949104Y-56708439D01*
X100009343Y-56676984D01*
X100044180Y-56628795D01*
X100056742Y-56558322D01*
X100046468Y-56493384D01*
X100016531Y-56439933D01*
X99964502Y-56394901D01*
X99883500Y-56358100D01*
X99763236Y-56332189D01*
X99590849Y-56322139D01*
X99582667Y-56640143D01*
X99253495Y-56640143D01*
X99261610Y-56459892D01*
X99256847Y-56257293D01*
X99251962Y-56047854D01*
X99262132Y-55916637D01*
X99289607Y-55816362D01*
X99331341Y-55740365D01*
X99386540Y-55683688D01*
X99481821Y-55628751D01*
X99606408Y-55592866D01*
X99768414Y-55579641D01*
X99995798Y-55588150D01*
G37*
G36*
X96931533Y-56923954D02*
G01*
X97293623Y-56923954D01*
X97271990Y-56579315D01*
X97264924Y-56249355D01*
X97274457Y-56084087D01*
X97297497Y-55984270D01*
X97327817Y-55928664D01*
X97374928Y-55888545D01*
X97439849Y-55862761D01*
X97528585Y-55853193D01*
X97600240Y-55861352D01*
X97677473Y-55887177D01*
X97762203Y-55933793D01*
X97767698Y-56241050D01*
X97759516Y-56923954D01*
X98125636Y-56923954D01*
X98102991Y-56550667D01*
X98095594Y-56193179D01*
X98102790Y-56070393D01*
X98121135Y-55986501D01*
X98146885Y-55931351D01*
X98188004Y-55891157D01*
X98255008Y-55863898D01*
X98359255Y-55853193D01*
X98454407Y-55864635D01*
X98535754Y-55897698D01*
X98606550Y-55952844D01*
X98599712Y-56923954D01*
X98967297Y-56923954D01*
X98947997Y-56519815D01*
X98942629Y-56250698D01*
X98950193Y-56038025D01*
X98972603Y-55832557D01*
X99009551Y-55633619D01*
X98659795Y-55595272D01*
X98636592Y-55738399D01*
X98614733Y-55738399D01*
X98521136Y-55667693D01*
X98424158Y-55618654D01*
X98322498Y-55589475D01*
X98214419Y-55579641D01*
X98075158Y-55591366D01*
X97967639Y-55623285D01*
X97885012Y-55672385D01*
X97822409Y-55738399D01*
X97800549Y-55738399D01*
X97693922Y-55665559D01*
X97592617Y-55616703D01*
X97495244Y-55588726D01*
X97400235Y-55579641D01*
X97248316Y-55592565D01*
X97134406Y-55627309D01*
X97049747Y-55680147D01*
X97002305Y-55733992D01*
X96965516Y-55808539D01*
X96940800Y-55909585D01*
X96931533Y-56044557D01*
X96934342Y-56143720D01*
X96937028Y-56242882D01*
X96931533Y-56923954D01*
G37*
G36*
X113024206Y-60239013D02*
G01*
X113243726Y-60288479D01*
X113422941Y-60315042D01*
X113567890Y-60323032D01*
X113759157Y-60311149D01*
X113922089Y-60277660D01*
X114061020Y-60224941D01*
X114179567Y-60154115D01*
X114280469Y-60064990D01*
X114368041Y-59956937D01*
X114435317Y-59841587D01*
X114483503Y-59717801D01*
X114512921Y-59584030D01*
X114523002Y-59438385D01*
X114512214Y-59285975D01*
X114480533Y-59144066D01*
X114428278Y-59010829D01*
X114354819Y-58884762D01*
X114258609Y-58764763D01*
X114147656Y-58663956D01*
X114021453Y-58585099D01*
X113877818Y-58527338D01*
X113713736Y-58491187D01*
X113525514Y-58478510D01*
X113312342Y-58488754D01*
X113137534Y-58516979D01*
X113182597Y-58830220D01*
X113392777Y-58788268D01*
X113567890Y-58775510D01*
X113710412Y-58788008D01*
X113826410Y-58822868D01*
X113921160Y-58877929D01*
X113998368Y-58953563D01*
X114059659Y-59045961D01*
X114103790Y-59148032D01*
X114130978Y-59261532D01*
X114140396Y-59388681D01*
X114130148Y-59517606D01*
X114100196Y-59635620D01*
X114050853Y-59744735D01*
X113981271Y-59846515D01*
X113894883Y-59931286D01*
X113794901Y-59991501D01*
X113678625Y-60028640D01*
X113542001Y-60041665D01*
X113461347Y-60037848D01*
X113361627Y-60025178D01*
X113377070Y-59873541D01*
X113382144Y-59726225D01*
X113388879Y-59574011D01*
X113410842Y-59392956D01*
X113024206Y-59392956D01*
X113035075Y-59820136D01*
X113024206Y-60239013D01*
G37*
G36*
X111835720Y-58984093D02*
G01*
X111914977Y-59299166D01*
X112017304Y-59269755D01*
X112119897Y-59260087D01*
X112214788Y-59272186D01*
X112287546Y-59305812D01*
X112343603Y-59360507D01*
X112385022Y-59440461D01*
X112376840Y-60283954D01*
X112740273Y-60283954D01*
X112722149Y-59891085D01*
X112716948Y-59610698D01*
X112724766Y-59394384D01*
X112747749Y-59188999D01*
X112785336Y-58993619D01*
X112436924Y-58955272D01*
X112413721Y-59128929D01*
X112391861Y-59128929D01*
X112321436Y-59043827D01*
X112243459Y-58985903D01*
X112156357Y-58951448D01*
X112057126Y-58939641D01*
X111956642Y-58949948D01*
X111835720Y-58984093D01*
G37*
G36*
X111142842Y-58936420D02*
G01*
X111271252Y-58972864D01*
X111390767Y-59033433D01*
X111503183Y-59119892D01*
X111578301Y-59202115D01*
X111637012Y-59295549D01*
X111679985Y-59401796D01*
X111706863Y-59523074D01*
X111716285Y-59662111D01*
X111702820Y-59821160D01*
X111664848Y-59954379D01*
X111604331Y-60066605D01*
X111520891Y-60161344D01*
X111418134Y-60239044D01*
X111307088Y-60293940D01*
X111185954Y-60327245D01*
X111052311Y-60338664D01*
X110912411Y-60326311D01*
X110784186Y-60290081D01*
X110665177Y-60229953D01*
X110553567Y-60144247D01*
X110478958Y-60062551D01*
X110420622Y-59969638D01*
X110377907Y-59863907D01*
X110351180Y-59743133D01*
X110344535Y-59644892D01*
X110698403Y-59644892D01*
X110709242Y-59766459D01*
X110739952Y-59869004D01*
X110789262Y-59956180D01*
X110857253Y-60026459D01*
X110934620Y-60066976D01*
X111024956Y-60080743D01*
X111117394Y-60066127D01*
X111196752Y-60022923D01*
X111266756Y-59947387D01*
X111317208Y-59854404D01*
X111348623Y-59745741D01*
X111359691Y-59617781D01*
X111348852Y-59496214D01*
X111318142Y-59393669D01*
X111268832Y-59306494D01*
X111200841Y-59236214D01*
X111123474Y-59195697D01*
X111033138Y-59181930D01*
X110940700Y-59196546D01*
X110861342Y-59239751D01*
X110791338Y-59315286D01*
X110740886Y-59408269D01*
X110709471Y-59516933D01*
X110698403Y-59644892D01*
X110344535Y-59644892D01*
X110341809Y-59604592D01*
X110355238Y-59444860D01*
X110393110Y-59310977D01*
X110453451Y-59198124D01*
X110536592Y-59102795D01*
X110639094Y-59024359D01*
X110749711Y-58969028D01*
X110870237Y-58935498D01*
X111003096Y-58924009D01*
X111142842Y-58936420D01*
G37*
G36*
X108874398Y-60283954D02*
G01*
X109193989Y-60294822D01*
X109211161Y-60224602D01*
X109215849Y-60177830D01*
X109237709Y-60177830D01*
X109331007Y-60241376D01*
X109430775Y-60286399D01*
X109538415Y-60313701D01*
X109655730Y-60323032D01*
X109768628Y-60314515D01*
X109860382Y-60290898D01*
X109934945Y-60254092D01*
X109995350Y-60204575D01*
X110038866Y-60143144D01*
X110074630Y-60050969D01*
X110099735Y-59917738D01*
X110109412Y-59730988D01*
X110107336Y-59611919D01*
X110105259Y-59477586D01*
X110110586Y-59302844D01*
X110131271Y-58992397D01*
X109750130Y-58978720D01*
X109766688Y-59239505D01*
X109771990Y-59479051D01*
X109764444Y-59707892D01*
X109746043Y-59850623D01*
X109722165Y-59932732D01*
X109691426Y-59983513D01*
X109650118Y-60019109D01*
X109596302Y-60041397D01*
X109526038Y-60049480D01*
X109421773Y-60040518D01*
X109330577Y-60014762D01*
X109250043Y-59972910D01*
X109255206Y-59306958D01*
X109266407Y-58991054D01*
X108897601Y-58978720D01*
X108907462Y-59257678D01*
X108911278Y-59651242D01*
X108902224Y-59959579D01*
X108874398Y-60283954D01*
G37*
G36*
X107348368Y-60283954D02*
G01*
X107711802Y-60283954D01*
X107689215Y-59935891D01*
X107681638Y-59582000D01*
X107690854Y-59438071D01*
X107713759Y-59345863D01*
X107745141Y-59290007D01*
X107792609Y-59248690D01*
X107855406Y-59222680D01*
X107938459Y-59213193D01*
X108038887Y-59224697D01*
X108136569Y-59259598D01*
X108233627Y-59320171D01*
X108226788Y-60283954D01*
X108594373Y-60283954D01*
X108575061Y-59878805D01*
X108569705Y-59610698D01*
X108577380Y-59393437D01*
X108599895Y-59188069D01*
X108636627Y-58993619D01*
X108286871Y-58955272D01*
X108263668Y-59098399D01*
X108241809Y-59098399D01*
X108143754Y-59028380D01*
X108040354Y-58979235D01*
X107930201Y-58949680D01*
X107811453Y-58939641D01*
X107674461Y-58951801D01*
X107564038Y-58985586D01*
X107474764Y-59038803D01*
X107423756Y-59092644D01*
X107384495Y-59167361D01*
X107358215Y-59268782D01*
X107348368Y-59404557D01*
X107351788Y-59510559D01*
X107355207Y-59646724D01*
X107348368Y-60283954D01*
G37*
G36*
X106189070Y-58356633D02*
G01*
X106165407Y-58684182D01*
X106157562Y-59008395D01*
X106176735Y-59008395D01*
X106245096Y-58972783D01*
X106339506Y-58948725D01*
X106467751Y-58939641D01*
X106585740Y-58949105D01*
X106689261Y-58976284D01*
X106780830Y-59020286D01*
X106862351Y-59081494D01*
X106934987Y-59161535D01*
X107008062Y-59276462D01*
X107060253Y-59400371D01*
X107092100Y-59534996D01*
X107103026Y-59682505D01*
X107093003Y-59810838D01*
X107063810Y-59927438D01*
X107015918Y-60034373D01*
X106948665Y-60133256D01*
X106864840Y-60216202D01*
X106769234Y-60274709D01*
X106659486Y-60310540D01*
X106531987Y-60323032D01*
X106416386Y-60314050D01*
X106315420Y-60288326D01*
X106226607Y-60246849D01*
X106148037Y-60189432D01*
X106127520Y-60189432D01*
X106117995Y-60294822D01*
X105794129Y-60283954D01*
X105809973Y-59968025D01*
X106137046Y-59968025D01*
X106198089Y-60018611D01*
X106288290Y-60052263D01*
X106418536Y-60065112D01*
X106512187Y-60050997D01*
X106589128Y-60010135D01*
X106653620Y-59940182D01*
X106699935Y-59853408D01*
X106728368Y-59755324D01*
X106738250Y-59643305D01*
X106727828Y-59516650D01*
X106698237Y-59408593D01*
X106650811Y-59315775D01*
X106601741Y-59257634D01*
X106542325Y-59216496D01*
X106470533Y-59190983D01*
X106382998Y-59181930D01*
X106297627Y-59189595D01*
X106223175Y-59211628D01*
X106157562Y-59247509D01*
X106142717Y-59551756D01*
X106137046Y-59968025D01*
X105809973Y-59968025D01*
X105816017Y-59847511D01*
X105824293Y-59264728D01*
X105817966Y-58700681D01*
X105802433Y-58345642D01*
X106189070Y-58356633D01*
G37*
G36*
X103693885Y-59797910D02*
G01*
X103705416Y-59920530D01*
X103737983Y-60022746D01*
X103790318Y-60108721D01*
X103863576Y-60181216D01*
X103961201Y-60241287D01*
X104088581Y-60288163D01*
X104252668Y-60319349D01*
X104461662Y-60330848D01*
X104634751Y-60323446D01*
X104796051Y-60301841D01*
X104946728Y-60266734D01*
X104879806Y-59955691D01*
X104730570Y-60000173D01*
X104591662Y-60025654D01*
X104461662Y-60033849D01*
X104314272Y-60028065D01*
X104213384Y-60013379D01*
X104147444Y-59993182D01*
X104093100Y-59958724D01*
X104062412Y-59914234D01*
X104051823Y-59856529D01*
X104061632Y-59791745D01*
X104090852Y-59734351D01*
X104141948Y-59682017D01*
X104241731Y-59619342D01*
X104457632Y-59518496D01*
X104598551Y-59449709D01*
X104703331Y-59382398D01*
X104778689Y-59316752D01*
X104836597Y-59244025D01*
X104877600Y-59164280D01*
X104902581Y-59076063D01*
X104911191Y-58977376D01*
X104899700Y-58863669D01*
X104866838Y-58766778D01*
X104813218Y-58683212D01*
X104737046Y-58610768D01*
X104647955Y-58556502D01*
X104537807Y-58515154D01*
X104402278Y-58488254D01*
X104236226Y-58478510D01*
X103979346Y-58491002D01*
X103786697Y-58524062D01*
X103837255Y-58830220D01*
X103961937Y-58791530D01*
X104094516Y-58767927D01*
X104236226Y-58759878D01*
X104373685Y-58769956D01*
X104462773Y-58795283D01*
X104517627Y-58830753D01*
X104548200Y-58875049D01*
X104558627Y-58931092D01*
X104550243Y-58988313D01*
X104525707Y-59037058D01*
X104483522Y-59079592D01*
X104397308Y-59129765D01*
X104198002Y-59217345D01*
X104045103Y-59287476D01*
X103930905Y-59356629D01*
X103848246Y-59424463D01*
X103780443Y-59504939D01*
X103732748Y-59592820D01*
X103703828Y-59689716D01*
X103693885Y-59797910D01*
G37*
G36*
X103305661Y-58619805D02*
G01*
X103316530Y-59002167D01*
X103511924Y-58993985D01*
X103521449Y-59268270D01*
X103332894Y-59260087D01*
X103335580Y-59729278D01*
X103326192Y-59910024D01*
X103301703Y-60040562D01*
X103266586Y-60132258D01*
X103223595Y-60194561D01*
X103164053Y-60245185D01*
X103090757Y-60282638D01*
X103000770Y-60306592D01*
X102890204Y-60315217D01*
X102752470Y-60304180D01*
X102649747Y-60274672D01*
X102626543Y-60033849D01*
X102711657Y-60051689D01*
X102787744Y-60057296D01*
X102865979Y-60046955D01*
X102921854Y-60018910D01*
X102961278Y-59973887D01*
X102984979Y-59914417D01*
X103003071Y-59811124D01*
X103010493Y-59644892D01*
X103007684Y-59260087D01*
X102670263Y-59268270D01*
X102659272Y-58991298D01*
X103002311Y-59002167D01*
X102981795Y-58580115D01*
X103305661Y-58619805D01*
G37*
G36*
X102088471Y-58948150D02*
G01*
X102259715Y-58970669D01*
X102385720Y-59003266D01*
X102415762Y-59252272D01*
X102216885Y-59211272D01*
X102012761Y-59197561D01*
X101885082Y-59204450D01*
X101802388Y-59221582D01*
X101751788Y-59244822D01*
X101715268Y-59282671D01*
X101690460Y-59344289D01*
X101680713Y-59440094D01*
X101683522Y-59486745D01*
X101913671Y-59501782D01*
X102085266Y-59533285D01*
X102210293Y-59576689D01*
X102299014Y-59628894D01*
X102377333Y-59702366D01*
X102431220Y-59782888D01*
X102463457Y-59872053D01*
X102474502Y-59972544D01*
X102461494Y-60073094D01*
X102424155Y-60156603D01*
X102361784Y-60227167D01*
X102281924Y-60279583D01*
X102188629Y-60311755D01*
X102078340Y-60323032D01*
X101950823Y-60313839D01*
X101842744Y-60287904D01*
X101750840Y-60246835D01*
X101672531Y-60191019D01*
X101654823Y-60191019D01*
X101649773Y-60238423D01*
X101632964Y-60295921D01*
X101310563Y-60283954D01*
X101342106Y-60090360D01*
X101346167Y-60000143D01*
X101675340Y-60000143D01*
X101751008Y-60043965D01*
X101839680Y-60071165D01*
X101944495Y-60080743D01*
X102041776Y-60068439D01*
X102102015Y-60036984D01*
X102136853Y-59988795D01*
X102149415Y-59918322D01*
X102139141Y-59853384D01*
X102109204Y-59799933D01*
X102057175Y-59754901D01*
X101976172Y-59718100D01*
X101855909Y-59692189D01*
X101683522Y-59682139D01*
X101675340Y-60000143D01*
X101346167Y-60000143D01*
X101354282Y-59819892D01*
X101349520Y-59617293D01*
X101344635Y-59407854D01*
X101354805Y-59276637D01*
X101382280Y-59176362D01*
X101424013Y-59100365D01*
X101479213Y-59043688D01*
X101574494Y-58988751D01*
X101699081Y-58952866D01*
X101861086Y-58939641D01*
X102088471Y-58948150D01*
G37*
G36*
X100917943Y-58619805D02*
G01*
X100928811Y-59002167D01*
X101124206Y-58993985D01*
X101133731Y-59268270D01*
X100945176Y-59260087D01*
X100947862Y-59729278D01*
X100938474Y-59910024D01*
X100913985Y-60040562D01*
X100878868Y-60132258D01*
X100835877Y-60194561D01*
X100776335Y-60245185D01*
X100703039Y-60282638D01*
X100613052Y-60306592D01*
X100502486Y-60315217D01*
X100364752Y-60304180D01*
X100262028Y-60274672D01*
X100238825Y-60033849D01*
X100323939Y-60051689D01*
X100400026Y-60057296D01*
X100478261Y-60046955D01*
X100534136Y-60018910D01*
X100573560Y-59973887D01*
X100597261Y-59914417D01*
X100615353Y-59811124D01*
X100622775Y-59644892D01*
X100619966Y-59260087D01*
X100282545Y-59268270D01*
X100271554Y-58991298D01*
X100614593Y-59002167D01*
X100594077Y-58580115D01*
X100917943Y-58619805D01*
G37*
G36*
X99646903Y-60283954D02*
G01*
X100014366Y-60283954D01*
X100000388Y-59989904D01*
X99995315Y-59633291D01*
X100007762Y-59280178D01*
X100041721Y-58994962D01*
X99648246Y-58955272D01*
X99661130Y-59239657D01*
X99666076Y-59633291D01*
X99661079Y-59978819D01*
X99646903Y-60283954D01*
G37*
G36*
X99584010Y-58564972D02*
G01*
X99591108Y-58624913D01*
X99612036Y-58678966D01*
X99647513Y-58728737D01*
X99694069Y-58766965D01*
X99751926Y-58790547D01*
X99824467Y-58798957D01*
X99885512Y-58791741D01*
X99934445Y-58771442D01*
X99974066Y-58738385D01*
X100014374Y-58672088D01*
X100028044Y-58592450D01*
X100020916Y-58532553D01*
X99999968Y-58479010D01*
X99964541Y-58430150D01*
X99918059Y-58392779D01*
X99859797Y-58369582D01*
X99786243Y-58361274D01*
X99724206Y-58368501D01*
X99675367Y-58388666D01*
X99636645Y-58421235D01*
X99597342Y-58486619D01*
X99584010Y-58564972D01*
G37*
G36*
X98823233Y-58936420D02*
G01*
X98951643Y-58972864D01*
X99071158Y-59033433D01*
X99183574Y-59119892D01*
X99258692Y-59202115D01*
X99317403Y-59295549D01*
X99360375Y-59401796D01*
X99387254Y-59523074D01*
X99396676Y-59662111D01*
X99383211Y-59821160D01*
X99345239Y-59954379D01*
X99284722Y-60066605D01*
X99201282Y-60161344D01*
X99098525Y-60239044D01*
X98987479Y-60293940D01*
X98866344Y-60327245D01*
X98732702Y-60338664D01*
X98592802Y-60326311D01*
X98464577Y-60290081D01*
X98345567Y-60229953D01*
X98233958Y-60144247D01*
X98159348Y-60062551D01*
X98101013Y-59969638D01*
X98058298Y-59863907D01*
X98031571Y-59743133D01*
X98024925Y-59644892D01*
X98378794Y-59644892D01*
X98389632Y-59766459D01*
X98420343Y-59869004D01*
X98469652Y-59956180D01*
X98537644Y-60026459D01*
X98615011Y-60066976D01*
X98705347Y-60080743D01*
X98797785Y-60066127D01*
X98877143Y-60022923D01*
X98947147Y-59947387D01*
X98997598Y-59854404D01*
X99029014Y-59745741D01*
X99040082Y-59617781D01*
X99029243Y-59496214D01*
X98998533Y-59393669D01*
X98949223Y-59306494D01*
X98881232Y-59236214D01*
X98803865Y-59195697D01*
X98713529Y-59181930D01*
X98621091Y-59196546D01*
X98541733Y-59239751D01*
X98471728Y-59315286D01*
X98421277Y-59408269D01*
X98389862Y-59516933D01*
X98378794Y-59644892D01*
X98024925Y-59644892D01*
X98022199Y-59604592D01*
X98035629Y-59444860D01*
X98073501Y-59310977D01*
X98133842Y-59198124D01*
X98216983Y-59102795D01*
X98319485Y-59024359D01*
X98430101Y-58969028D01*
X98550627Y-58935498D01*
X98683487Y-58924009D01*
X98823233Y-58936420D01*
G37*
G36*
X96541111Y-60283954D02*
G01*
X96904544Y-60283954D01*
X96881957Y-59935891D01*
X96874380Y-59582000D01*
X96883597Y-59438071D01*
X96906501Y-59345863D01*
X96937883Y-59290007D01*
X96985351Y-59248690D01*
X97048149Y-59222680D01*
X97131202Y-59213193D01*
X97231629Y-59224697D01*
X97329311Y-59259598D01*
X97426369Y-59320171D01*
X97419530Y-60283954D01*
X97787116Y-60283954D01*
X97767804Y-59878805D01*
X97762447Y-59610698D01*
X97770122Y-59393437D01*
X97792638Y-59188069D01*
X97829370Y-58993619D01*
X97479614Y-58955272D01*
X97456411Y-59098399D01*
X97434551Y-59098399D01*
X97336497Y-59028380D01*
X97233097Y-58979235D01*
X97122944Y-58949680D01*
X97004195Y-58939641D01*
X96867204Y-58951801D01*
X96756781Y-58985586D01*
X96667506Y-59038803D01*
X96616498Y-59092644D01*
X96577237Y-59167361D01*
X96550958Y-59268782D01*
X96541111Y-59404557D01*
X96544530Y-59510559D01*
X96547950Y-59646724D01*
X96541111Y-60283954D01*
G37*
G36*
X94194059Y-58501958D02*
G01*
X94210580Y-58588944D01*
X94293002Y-58840034D01*
X94506202Y-59394299D01*
X94719762Y-59949049D01*
X94801971Y-60198605D01*
X94818344Y-60283954D01*
X95194112Y-60283954D01*
X95209031Y-60200518D01*
X95284559Y-59950977D01*
X95481707Y-59390269D01*
X95679578Y-58828358D01*
X95754678Y-58582026D01*
X95769303Y-58501958D01*
X95336139Y-58501958D01*
X95307922Y-58658892D01*
X95153079Y-59210995D01*
X94996871Y-59761923D01*
X94970019Y-59902080D01*
X94946816Y-59902080D01*
X94919892Y-59766862D01*
X94763145Y-59235541D01*
X94643328Y-58828149D01*
X94591490Y-58606322D01*
X94579352Y-58501958D01*
X94194059Y-58501958D01*
G37*
G36*
X93460964Y-60283954D02*
G01*
X93825741Y-60283954D01*
X93810720Y-59718287D01*
X93820245Y-59250440D01*
X94038843Y-59346061D01*
X94109918Y-59214903D01*
X93630347Y-58845852D01*
X93460964Y-58845852D01*
X93475985Y-59717432D01*
X93460964Y-60283954D01*
G37*
G36*
X91982074Y-59458535D02*
G01*
X91998438Y-59701068D01*
X92583278Y-59721218D01*
X92570943Y-59478929D01*
X91982074Y-59458535D01*
G37*
G36*
X90120455Y-59997701D02*
G01*
X90149153Y-60283954D01*
X91188773Y-60283954D01*
X91160075Y-60015408D01*
X90954018Y-59887145D01*
X90804308Y-59768759D01*
X90700276Y-59659269D01*
X90632975Y-59557214D01*
X90595523Y-59460558D01*
X90583539Y-59366699D01*
X90593569Y-59285183D01*
X90621596Y-59221356D01*
X90667253Y-59170930D01*
X90733752Y-59132099D01*
X90827327Y-59105886D01*
X90956498Y-59095956D01*
X91057605Y-59099738D01*
X91168257Y-59111588D01*
X91142245Y-58860018D01*
X91010962Y-58838826D01*
X90804823Y-58830220D01*
X90663479Y-58839004D01*
X90548463Y-58863253D01*
X90455215Y-58900585D01*
X90379963Y-58949777D01*
X90316265Y-59014577D01*
X90271178Y-59088980D01*
X90243470Y-59174900D01*
X90233784Y-59275231D01*
X90245800Y-59400284D01*
X90281074Y-59514372D01*
X90339888Y-59619996D01*
X90424415Y-59718898D01*
X90556953Y-59834880D01*
X90691333Y-59928078D01*
X90828149Y-60000388D01*
X90828149Y-60018217D01*
X90513143Y-60013455D01*
X90120455Y-59997701D01*
G37*
G36*
X89340489Y-58824067D02*
G01*
X89447688Y-58851092D01*
X89541043Y-58894454D01*
X89622727Y-58954193D01*
X89694129Y-59031598D01*
X89763119Y-59142886D01*
X89814931Y-59276571D01*
X89848181Y-59436939D01*
X89860092Y-59629138D01*
X89848380Y-59818096D01*
X89816609Y-59966015D01*
X89768629Y-60080763D01*
X89706463Y-60168793D01*
X89624420Y-60240349D01*
X89523953Y-60293036D01*
X89401167Y-60326607D01*
X89250828Y-60338664D01*
X89097052Y-60325286D01*
X88969713Y-60287710D01*
X88863706Y-60227971D01*
X88775409Y-60145590D01*
X88708462Y-60046010D01*
X88657235Y-59919786D01*
X88623661Y-59760965D01*
X88616722Y-59648556D01*
X88948822Y-59648556D01*
X88959345Y-59799118D01*
X88986879Y-59906712D01*
X89027034Y-59981714D01*
X89078081Y-60032029D01*
X89141286Y-60062257D01*
X89220664Y-60072928D01*
X89295902Y-60064242D01*
X89357021Y-60039713D01*
X89407234Y-59999724D01*
X89448176Y-59942136D01*
X89483879Y-59851442D01*
X89508887Y-59720971D01*
X89518518Y-59538646D01*
X89507684Y-59373552D01*
X89479490Y-59256590D01*
X89438768Y-59176053D01*
X89387701Y-59122842D01*
X89325391Y-59091341D01*
X89248019Y-59080325D01*
X89173450Y-59090413D01*
X89112166Y-59119353D01*
X89060902Y-59167931D01*
X89018553Y-59240426D01*
X88981692Y-59349371D01*
X88957580Y-59483746D01*
X88948822Y-59648556D01*
X88616722Y-59648556D01*
X88611400Y-59562338D01*
X88622612Y-59378928D01*
X88653614Y-59228978D01*
X88701410Y-59106802D01*
X88764419Y-59007663D01*
X88847661Y-58925040D01*
X88948148Y-58865390D01*
X89069422Y-58827933D01*
X89216634Y-58814589D01*
X89340489Y-58824067D01*
G37*
G36*
X87283330Y-59997701D02*
G01*
X87312028Y-60283954D01*
X88351648Y-60283954D01*
X88322950Y-60015408D01*
X88116893Y-59887145D01*
X87967183Y-59768759D01*
X87863151Y-59659269D01*
X87795850Y-59557214D01*
X87758398Y-59460558D01*
X87746414Y-59366699D01*
X87756444Y-59285183D01*
X87784471Y-59221356D01*
X87830128Y-59170930D01*
X87896627Y-59132099D01*
X87990203Y-59105886D01*
X88119373Y-59095956D01*
X88220480Y-59099738D01*
X88331132Y-59111588D01*
X88305120Y-58860018D01*
X88173837Y-58838826D01*
X87967698Y-58830220D01*
X87826354Y-58839004D01*
X87711338Y-58863253D01*
X87618091Y-58900585D01*
X87542838Y-58949777D01*
X87479140Y-59014577D01*
X87434053Y-59088980D01*
X87406346Y-59174900D01*
X87396659Y-59275231D01*
X87408675Y-59400284D01*
X87443949Y-59514372D01*
X87502763Y-59619996D01*
X87587290Y-59718898D01*
X87719828Y-59834880D01*
X87854208Y-59928078D01*
X87991024Y-60000388D01*
X87991024Y-60018217D01*
X87676018Y-60013455D01*
X87283330Y-59997701D01*
G37*
G36*
X86221271Y-58469071D02*
G01*
X86391420Y-58511891D01*
X86536396Y-58573565D01*
X86659835Y-58653148D01*
X86764466Y-58750947D01*
X86851960Y-58868498D01*
X86922821Y-59008472D01*
X86976354Y-59174519D01*
X87010707Y-59371105D01*
X87022967Y-59603371D01*
X87009096Y-59790169D01*
X86970500Y-59943349D01*
X86910176Y-60069032D01*
X86828916Y-60171968D01*
X86740637Y-60244463D01*
X86642114Y-60296053D01*
X86531308Y-60327689D01*
X86405399Y-60338664D01*
X86265541Y-60325465D01*
X86144466Y-60287574D01*
X86038459Y-60225783D01*
X85945001Y-60138507D01*
X85877060Y-60045119D01*
X85828804Y-59943640D01*
X85799404Y-59832412D01*
X85793325Y-59758343D01*
X86114384Y-59758343D01*
X86122713Y-59847251D01*
X86146590Y-59924001D01*
X86185458Y-59990984D01*
X86244616Y-60050046D01*
X86313198Y-60084538D01*
X86394530Y-60096375D01*
X86476331Y-60083394D01*
X86543705Y-60045550D01*
X86600511Y-59979724D01*
X86646966Y-59877158D01*
X86679689Y-59724787D01*
X86692384Y-59506284D01*
X86619603Y-59443100D01*
X86536509Y-59405778D01*
X86439593Y-59392956D01*
X86339558Y-59406329D01*
X86258671Y-59444415D01*
X86192297Y-59507872D01*
X86149778Y-59579034D01*
X86123568Y-59661583D01*
X86114384Y-59758343D01*
X85793325Y-59758343D01*
X85789296Y-59709250D01*
X85797923Y-59598253D01*
X85822770Y-59500003D01*
X85863066Y-59412342D01*
X85919112Y-59333605D01*
X85996433Y-59261147D01*
X86085788Y-59209462D01*
X86189565Y-59177509D01*
X86311243Y-59166298D01*
X86429141Y-59176386D01*
X86524116Y-59204372D01*
X86600760Y-59248283D01*
X86662342Y-59308203D01*
X86684202Y-59308203D01*
X86652538Y-59152085D01*
X86599762Y-59022936D01*
X86527128Y-58916112D01*
X86433885Y-58828398D01*
X86317356Y-58758275D01*
X86173168Y-58706065D01*
X85995560Y-58673905D01*
X86021571Y-58447247D01*
X86221271Y-58469071D01*
G37*
G36*
X74350231Y-97164016D02*
G01*
X74826687Y-97164016D01*
X74826687Y-98395000D01*
X75220162Y-98395000D01*
X75220162Y-97164016D01*
X75696619Y-97164016D01*
X75696619Y-96870924D01*
X74350231Y-96870924D01*
X74350231Y-97164016D01*
G37*
G36*
X72978379Y-98395000D02*
G01*
X73349232Y-98395000D01*
X73349232Y-97823746D01*
X73356467Y-97684711D01*
X73367213Y-97620406D01*
X73381014Y-97582678D01*
X73406268Y-97549891D01*
X73441006Y-97527357D01*
X73484633Y-97514831D01*
X73551098Y-97509863D01*
X73601273Y-97513886D01*
X73653131Y-97526258D01*
X73705144Y-97546644D01*
X73765330Y-97578557D01*
X73765330Y-98395000D01*
X74134167Y-98395000D01*
X74134167Y-96800582D01*
X73765330Y-96800582D01*
X73765330Y-97369912D01*
X73666082Y-97300210D01*
X73576286Y-97251943D01*
X73481929Y-97221437D01*
X73374969Y-97210910D01*
X73282534Y-97218427D01*
X73204803Y-97239631D01*
X73139100Y-97273373D01*
X73083434Y-97319720D01*
X73039905Y-97376696D01*
X73007200Y-97447720D01*
X72986045Y-97535852D01*
X72978379Y-97644960D01*
X72978379Y-98395000D01*
G37*
G36*
X72303005Y-97216142D02*
G01*
X72434970Y-97231885D01*
X72625021Y-97268155D01*
X72625021Y-97545034D01*
X72591224Y-97545034D01*
X72442663Y-97495300D01*
X72340110Y-97470703D01*
X72247941Y-97462969D01*
X72146445Y-97467928D01*
X72071874Y-97480938D01*
X72018414Y-97499697D01*
X71975440Y-97530485D01*
X71949798Y-97573395D01*
X71940561Y-97632595D01*
X71940561Y-97638824D01*
X72102011Y-97650784D01*
X72255176Y-97667675D01*
X72399663Y-97695309D01*
X72509250Y-97733620D01*
X72574570Y-97769328D01*
X72627342Y-97811536D01*
X72669168Y-97860382D01*
X72699445Y-97916534D01*
X72718631Y-97984621D01*
X72725497Y-98067470D01*
X72718288Y-98144763D01*
X72697456Y-98212847D01*
X72663284Y-98273551D01*
X72614855Y-98328138D01*
X72556677Y-98372484D01*
X72492390Y-98404100D01*
X72420790Y-98423470D01*
X72340265Y-98430170D01*
X72272166Y-98426673D01*
X72212220Y-98416707D01*
X72154826Y-98400201D01*
X72099472Y-98377597D01*
X72016490Y-98327405D01*
X71942668Y-98273092D01*
X71942668Y-98395000D01*
X71576853Y-98395000D01*
X71576853Y-98095955D01*
X71942668Y-98095955D01*
X71988715Y-98129089D01*
X72042594Y-98155580D01*
X72099696Y-98172615D01*
X72154701Y-98178112D01*
X72219784Y-98175220D01*
X72257191Y-98168403D01*
X72287985Y-98155753D01*
X72313520Y-98138087D01*
X72334150Y-98116167D01*
X72344295Y-98094947D01*
X72350431Y-98036420D01*
X72342736Y-97986127D01*
X72321214Y-97948676D01*
X72286910Y-97920127D01*
X72236675Y-97897843D01*
X72186187Y-97885339D01*
X72104601Y-97872656D01*
X71942668Y-97855711D01*
X71942668Y-98095955D01*
X71576853Y-98095955D01*
X71576853Y-97611713D01*
X71586576Y-97510174D01*
X71613705Y-97428167D01*
X71656806Y-97361601D01*
X71716713Y-97307814D01*
X71787005Y-97269739D01*
X71881837Y-97239287D01*
X72007456Y-97218631D01*
X72171096Y-97210910D01*
X72303005Y-97216142D01*
G37*
G36*
X70081171Y-98395000D02*
G01*
X70452023Y-98395000D01*
X70452023Y-97823746D01*
X70459259Y-97684711D01*
X70470005Y-97620406D01*
X70483805Y-97582678D01*
X70509059Y-97549891D01*
X70543797Y-97527357D01*
X70587425Y-97514831D01*
X70653890Y-97509863D01*
X70704065Y-97513886D01*
X70755922Y-97526258D01*
X70807935Y-97546644D01*
X70868121Y-97578557D01*
X70868121Y-98395000D01*
X71236959Y-98395000D01*
X71236959Y-97246081D01*
X70868121Y-97246081D01*
X70868121Y-97369912D01*
X70768874Y-97300210D01*
X70679077Y-97251943D01*
X70584721Y-97221437D01*
X70477760Y-97210910D01*
X70385325Y-97218427D01*
X70307594Y-97239631D01*
X70241891Y-97273373D01*
X70186226Y-97319720D01*
X70142697Y-97376696D01*
X70109991Y-97447720D01*
X70088836Y-97535852D01*
X70081171Y-97644960D01*
X70081171Y-98395000D01*
G37*
G36*
X68520825Y-98395000D02*
G01*
X68950113Y-98395000D01*
X69272880Y-97894729D01*
X69373355Y-98016454D01*
X69373355Y-98395000D01*
X69742192Y-98395000D01*
X69742192Y-96800582D01*
X69373355Y-96800582D01*
X69373355Y-97753496D01*
X68975758Y-97246081D01*
X68550501Y-97246081D01*
X68964493Y-97741222D01*
X68520825Y-98395000D01*
G37*
G36*
X67097775Y-97990350D02*
G01*
X66835458Y-97246081D01*
X66456363Y-97246081D01*
X67095760Y-98817051D01*
X67495372Y-98817051D01*
X67312922Y-98389138D01*
X67760711Y-97246081D01*
X67373373Y-97246081D01*
X67097775Y-97990350D01*
G37*
G36*
X65825739Y-97218253D02*
G01*
X65930189Y-97239104D01*
X66020982Y-97272184D01*
X66100069Y-97316903D01*
X66168950Y-97373393D01*
X66227335Y-97441118D01*
X66273207Y-97518184D01*
X66306914Y-97605936D01*
X66328047Y-97706179D01*
X66335463Y-97821090D01*
X66328117Y-97935043D01*
X66307159Y-98034701D01*
X66273694Y-98122177D01*
X66228109Y-98199220D01*
X66170049Y-98267138D01*
X66101568Y-98323731D01*
X66022631Y-98368581D01*
X65931685Y-98401803D01*
X65826712Y-98422775D01*
X65705316Y-98430170D01*
X65583916Y-98422774D01*
X65478954Y-98401800D01*
X65388028Y-98368577D01*
X65309120Y-98323728D01*
X65240675Y-98267138D01*
X65182579Y-98199215D01*
X65136968Y-98122169D01*
X65103487Y-98034694D01*
X65082519Y-97935038D01*
X65075299Y-97823105D01*
X65457379Y-97823105D01*
X65462511Y-97926052D01*
X65475331Y-97993647D01*
X65498165Y-98051569D01*
X65529095Y-98098977D01*
X65564546Y-98133089D01*
X65606489Y-98155489D01*
X65653059Y-98168027D01*
X65702293Y-98172250D01*
X65758649Y-98167470D01*
X65806341Y-98153932D01*
X65848443Y-98130430D01*
X65884651Y-98095863D01*
X65913499Y-98049394D01*
X65935942Y-97985496D01*
X65948670Y-97913465D01*
X65953345Y-97823105D01*
X65947844Y-97722833D01*
X65933378Y-97648990D01*
X65908792Y-97584866D01*
X65879522Y-97540088D01*
X65839438Y-97503505D01*
X65800204Y-97483119D01*
X65756848Y-97472579D01*
X65705316Y-97468831D01*
X65653415Y-97473241D01*
X65606031Y-97486141D01*
X65563576Y-97509294D01*
X65527080Y-97545218D01*
X65498894Y-97590653D01*
X65475880Y-97654119D01*
X65462451Y-97726466D01*
X65457379Y-97823105D01*
X65075299Y-97823105D01*
X65075169Y-97821090D01*
X65082477Y-97707061D01*
X65103329Y-97607299D01*
X65136619Y-97519706D01*
X65181954Y-97442539D01*
X65239667Y-97374492D01*
X65307715Y-97317795D01*
X65386467Y-97272816D01*
X65477528Y-97239452D01*
X65582984Y-97218359D01*
X65705316Y-97210910D01*
X65825739Y-97218253D01*
G37*
G36*
X63664301Y-98395000D02*
G01*
X64033229Y-98395000D01*
X64033229Y-98271168D01*
X64135233Y-98342200D01*
X64220808Y-98389687D01*
X64278821Y-98411525D01*
X64345883Y-98425307D01*
X64423591Y-98430170D01*
X64518205Y-98422509D01*
X64596839Y-98401009D01*
X64662449Y-98366981D01*
X64717232Y-98320444D01*
X64759917Y-98263073D01*
X64791980Y-98191980D01*
X64812689Y-98104225D01*
X64820180Y-97996120D01*
X64820180Y-97246081D01*
X64449236Y-97246081D01*
X64449236Y-97817335D01*
X64443649Y-97962506D01*
X64433743Y-98017335D01*
X64417454Y-98058402D01*
X64393072Y-98091168D01*
X64358561Y-98113815D01*
X64314860Y-98126277D01*
X64248377Y-98131217D01*
X64200365Y-98127135D01*
X64143963Y-98113815D01*
X64087900Y-98092400D01*
X64033229Y-98062524D01*
X64033229Y-97246081D01*
X63664301Y-97246081D01*
X63664301Y-98395000D01*
G37*
G36*
X61863803Y-98385474D02*
G01*
X61989833Y-98409654D01*
X62152773Y-98418447D01*
X62262634Y-98411899D01*
X62350009Y-98394026D01*
X62418988Y-98366883D01*
X62472976Y-98331618D01*
X62515964Y-98284827D01*
X62548587Y-98222533D01*
X62570083Y-98140790D01*
X62578031Y-98034405D01*
X62578031Y-97498140D01*
X62729705Y-97498140D01*
X62729705Y-97246081D01*
X62578031Y-97246081D01*
X62578031Y-96917819D01*
X62209193Y-96917819D01*
X62209193Y-97246081D01*
X61863803Y-97246081D01*
X61863803Y-97498140D01*
X62209193Y-97498140D01*
X62209193Y-97903613D01*
X62208186Y-98008485D01*
X62203439Y-98051712D01*
X62191791Y-98088994D01*
X62172195Y-98120623D01*
X62141050Y-98145505D01*
X62099898Y-98160438D01*
X62034987Y-98166388D01*
X61959608Y-98154023D01*
X61894578Y-98131217D01*
X61863803Y-98131217D01*
X61863803Y-98385474D01*
G37*
G36*
X61218342Y-97218253D02*
G01*
X61322792Y-97239104D01*
X61413585Y-97272184D01*
X61492672Y-97316903D01*
X61561553Y-97373393D01*
X61619938Y-97441118D01*
X61665810Y-97518184D01*
X61699517Y-97605936D01*
X61720650Y-97706179D01*
X61728065Y-97821090D01*
X61720720Y-97935043D01*
X61699762Y-98034701D01*
X61666297Y-98122177D01*
X61620712Y-98199220D01*
X61562652Y-98267138D01*
X61494171Y-98323731D01*
X61415233Y-98368581D01*
X61324287Y-98401803D01*
X61219315Y-98422775D01*
X61097919Y-98430170D01*
X60976519Y-98422774D01*
X60871557Y-98401800D01*
X60780631Y-98368577D01*
X60701723Y-98323728D01*
X60633277Y-98267138D01*
X60575182Y-98199215D01*
X60529571Y-98122169D01*
X60496090Y-98034694D01*
X60475121Y-97935038D01*
X60467902Y-97823105D01*
X60849982Y-97823105D01*
X60855114Y-97926052D01*
X60867934Y-97993647D01*
X60890768Y-98051569D01*
X60921698Y-98098977D01*
X60957149Y-98133089D01*
X60999092Y-98155489D01*
X61045662Y-98168027D01*
X61094896Y-98172250D01*
X61151252Y-98167470D01*
X61198944Y-98153932D01*
X61241046Y-98130430D01*
X61277254Y-98095863D01*
X61306102Y-98049394D01*
X61328545Y-97985496D01*
X61341273Y-97913465D01*
X61345948Y-97823105D01*
X61340447Y-97722833D01*
X61325981Y-97648990D01*
X61301395Y-97584866D01*
X61272125Y-97540088D01*
X61232041Y-97503505D01*
X61192807Y-97483119D01*
X61149450Y-97472579D01*
X61097919Y-97468831D01*
X61046018Y-97473241D01*
X60998634Y-97486141D01*
X60956179Y-97509294D01*
X60919683Y-97545218D01*
X60891497Y-97590653D01*
X60868483Y-97654119D01*
X60855054Y-97726466D01*
X60849982Y-97823105D01*
X60467902Y-97823105D01*
X60467772Y-97821090D01*
X60475080Y-97707061D01*
X60495932Y-97607299D01*
X60529222Y-97519706D01*
X60574557Y-97442539D01*
X60632270Y-97374492D01*
X60700318Y-97317795D01*
X60779070Y-97272816D01*
X60870131Y-97239452D01*
X60975587Y-97218359D01*
X61097919Y-97210910D01*
X61218342Y-97218253D01*
G37*
D10*
X115554819Y-71161666D02*
X116269104Y-71161666D01*
X116269104Y-71161666D02*
X116411961Y-71114047D01*
X116411961Y-71114047D02*
X116507200Y-71018809D01*
X116507200Y-71018809D02*
X116554819Y-70875952D01*
X116554819Y-70875952D02*
X116554819Y-70780714D01*
X116554819Y-72161666D02*
X116554819Y-71590238D01*
X116554819Y-71875952D02*
X115554819Y-71875952D01*
X115554819Y-71875952D02*
X115697676Y-71780714D01*
X115697676Y-71780714D02*
X115792914Y-71685476D01*
X115792914Y-71685476D02*
X115840533Y-71590238D01*
D12*
%TO.C,G\u002A\u002A\u002A*%
G36*
X110554215Y-82535764D02*
G01*
X110651490Y-82536702D01*
X110944641Y-82539908D01*
X111188077Y-82543862D01*
X111388699Y-82549471D01*
X111553408Y-82557644D01*
X111689106Y-82569289D01*
X111802695Y-82585315D01*
X111901075Y-82606629D01*
X111991149Y-82634140D01*
X112079818Y-82668755D01*
X112173983Y-82711383D01*
X112280546Y-82762933D01*
X112303581Y-82774471D01*
X112545330Y-82930468D01*
X112758636Y-83133633D01*
X112938974Y-83377934D01*
X113081822Y-83657339D01*
X113182658Y-83965819D01*
X113215226Y-84117343D01*
X113263908Y-84478314D01*
X113279910Y-84856381D01*
X113262834Y-85229882D01*
X113212282Y-85577154D01*
X113149665Y-85824069D01*
X113026110Y-86142800D01*
X112863365Y-86417921D01*
X112661686Y-86649204D01*
X112421332Y-86836419D01*
X112142559Y-86979337D01*
X111825625Y-87077727D01*
X111470786Y-87131361D01*
X111457821Y-87132377D01*
X111347049Y-87138486D01*
X111189782Y-87144235D01*
X110996477Y-87149377D01*
X110777592Y-87153667D01*
X110543583Y-87156861D01*
X110304908Y-87158713D01*
X109417668Y-87162817D01*
X109417668Y-86752194D01*
X109417668Y-86341570D01*
X110394845Y-86341570D01*
X110472452Y-86341487D01*
X110729333Y-86339980D01*
X110964526Y-86336737D01*
X111170638Y-86331958D01*
X111340274Y-86325844D01*
X111466041Y-86318596D01*
X111540546Y-86310416D01*
X111738511Y-86259797D01*
X111948462Y-86163961D01*
X112120971Y-86029590D01*
X112257124Y-85854798D01*
X112358005Y-85637702D01*
X112424699Y-85376417D01*
X112458291Y-85069058D01*
X112459867Y-84713741D01*
X112446712Y-84504418D01*
X112403939Y-84211816D01*
X112332351Y-83967129D01*
X112229639Y-83767206D01*
X112093491Y-83608896D01*
X111921597Y-83489048D01*
X111711647Y-83404513D01*
X111461331Y-83352138D01*
X111442372Y-83349854D01*
X111339779Y-83342018D01*
X111190853Y-83335006D01*
X111005242Y-83329085D01*
X110792595Y-83324524D01*
X110562559Y-83321591D01*
X110324783Y-83320554D01*
X109417668Y-83320554D01*
X109417668Y-82922731D01*
X109417668Y-82524908D01*
X110554215Y-82535764D01*
G37*
G36*
X105312076Y-84193129D02*
G01*
X105312091Y-84229605D01*
X105312348Y-84580527D01*
X105312893Y-84878061D01*
X105313874Y-85127022D01*
X105315437Y-85332224D01*
X105317729Y-85498481D01*
X105320899Y-85630605D01*
X105325092Y-85733411D01*
X105330456Y-85811714D01*
X105337138Y-85870325D01*
X105345285Y-85914060D01*
X105355045Y-85947732D01*
X105366563Y-85976155D01*
X105449194Y-86106060D01*
X105586952Y-86221523D01*
X105769449Y-86299824D01*
X105862852Y-86317846D01*
X106001006Y-86331353D01*
X106169951Y-86339725D01*
X106358518Y-86343169D01*
X106555540Y-86341892D01*
X106749847Y-86336100D01*
X106930271Y-86326000D01*
X107085643Y-86311798D01*
X107204796Y-86293703D01*
X107276559Y-86271920D01*
X107349436Y-86229287D01*
X107480494Y-86119093D01*
X107580049Y-85974942D01*
X107591548Y-85952808D01*
X107603268Y-85925609D01*
X107613125Y-85892756D01*
X107621311Y-85849429D01*
X107628021Y-85790812D01*
X107633449Y-85712084D01*
X107637789Y-85608427D01*
X107641237Y-85475022D01*
X107643985Y-85307051D01*
X107646229Y-85099695D01*
X107648162Y-84848135D01*
X107649978Y-84547552D01*
X107651873Y-84193129D01*
X107660558Y-82528637D01*
X108069829Y-82528637D01*
X108479100Y-82528637D01*
X108478076Y-84178464D01*
X108477716Y-84492480D01*
X108476646Y-84837240D01*
X108474575Y-85132254D01*
X108471167Y-85382481D01*
X108466084Y-85592879D01*
X108458991Y-85768406D01*
X108449551Y-85914020D01*
X108437427Y-86034679D01*
X108422283Y-86135342D01*
X108403783Y-86220967D01*
X108381589Y-86296512D01*
X108355365Y-86366935D01*
X108324775Y-86437194D01*
X108314580Y-86458911D01*
X108179551Y-86675124D01*
X108002196Y-86850800D01*
X107782688Y-86985831D01*
X107521198Y-87080109D01*
X107217899Y-87133526D01*
X107138008Y-87140042D01*
X106972728Y-87147613D01*
X106777174Y-87151284D01*
X106562461Y-87151330D01*
X106339701Y-87148025D01*
X106120008Y-87141645D01*
X105914496Y-87132465D01*
X105734279Y-87120759D01*
X105590471Y-87106804D01*
X105494185Y-87090873D01*
X105251729Y-87011177D01*
X105024338Y-86886272D01*
X104840410Y-86723707D01*
X104701687Y-86524724D01*
X104698913Y-86519521D01*
X104661075Y-86447962D01*
X104628650Y-86382613D01*
X104601186Y-86318483D01*
X104578232Y-86250584D01*
X104559336Y-86173924D01*
X104544046Y-86083514D01*
X104531913Y-85974365D01*
X104522484Y-85841485D01*
X104515308Y-85679887D01*
X104509933Y-85484578D01*
X104505909Y-85250571D01*
X104502784Y-84972875D01*
X104500106Y-84646499D01*
X104497424Y-84266455D01*
X104485371Y-82528637D01*
X104898402Y-82528637D01*
X105311432Y-82528637D01*
X105312076Y-84193129D01*
G37*
G36*
X105045671Y-68492857D02*
G01*
X105592360Y-68575558D01*
X106125582Y-68711726D01*
X106641521Y-68899454D01*
X107136359Y-69136837D01*
X107606277Y-69421968D01*
X108047460Y-69752941D01*
X108456088Y-70127849D01*
X108828345Y-70544786D01*
X109160412Y-71001847D01*
X109403033Y-71410891D01*
X109643347Y-71918105D01*
X109830119Y-72442957D01*
X109962789Y-72981254D01*
X110040792Y-73528805D01*
X110063565Y-74081417D01*
X110030547Y-74634899D01*
X109941173Y-75185058D01*
X109794882Y-75727702D01*
X109697977Y-76025440D01*
X109389174Y-76006558D01*
X109080001Y-75982217D01*
X108701423Y-75941373D01*
X108299790Y-75888244D01*
X107892438Y-75825336D01*
X107496699Y-75755152D01*
X107129908Y-75680196D01*
X107054610Y-75663371D01*
X106203318Y-75443732D01*
X105383802Y-75176511D01*
X104593431Y-74860346D01*
X103829578Y-74493875D01*
X103089614Y-74075736D01*
X102370908Y-73604567D01*
X101670832Y-73079005D01*
X100986757Y-72497690D01*
X100919596Y-72437246D01*
X100763518Y-72297578D01*
X100642077Y-72191220D01*
X100548885Y-72113646D01*
X100477552Y-72060328D01*
X100421688Y-72026739D01*
X100374903Y-72008353D01*
X100330808Y-72000640D01*
X100283013Y-71999076D01*
X100202467Y-72007471D01*
X100094602Y-72057887D01*
X100026428Y-72149769D01*
X100002656Y-72278422D01*
X100004554Y-72321324D01*
X100014108Y-72372484D01*
X100035409Y-72429609D01*
X100072492Y-72499431D01*
X100129391Y-72588681D01*
X100210142Y-72704088D01*
X100318778Y-72852384D01*
X100459334Y-73040300D01*
X100461325Y-73042948D01*
X100689279Y-73339326D01*
X100909728Y-73610765D01*
X101135986Y-73872679D01*
X101381364Y-74140483D01*
X101659175Y-74429592D01*
X102098662Y-74858609D01*
X102703648Y-75386628D01*
X103328577Y-75861391D01*
X103975826Y-76284072D01*
X104647771Y-76655847D01*
X105346790Y-76977891D01*
X106075259Y-77251380D01*
X106835556Y-77477487D01*
X107630057Y-77657389D01*
X108461139Y-77792260D01*
X108604495Y-77811271D01*
X108431809Y-77987170D01*
X108148906Y-78253242D01*
X107727879Y-78583391D01*
X107270595Y-78874771D01*
X106784280Y-79123792D01*
X106276165Y-79326864D01*
X105753476Y-79480397D01*
X105223442Y-79580801D01*
X104974758Y-79608177D01*
X104458068Y-79626424D01*
X103931515Y-79596587D01*
X103407860Y-79520244D01*
X102899864Y-79398972D01*
X102420288Y-79234349D01*
X102328542Y-79197129D01*
X102158072Y-79125451D01*
X102016065Y-79060461D01*
X101884170Y-78993009D01*
X101744034Y-78913946D01*
X101577303Y-78814124D01*
X101129883Y-78511105D01*
X100697240Y-78150348D01*
X100304663Y-77748767D01*
X99954608Y-77309461D01*
X99649532Y-76835527D01*
X99391892Y-76330063D01*
X99184145Y-75796169D01*
X99089725Y-75481663D01*
X98972788Y-74937998D01*
X98911569Y-74392682D01*
X98904538Y-73849416D01*
X98950166Y-73311899D01*
X99046923Y-72783830D01*
X99193281Y-72268908D01*
X99387709Y-71770834D01*
X99628678Y-71293305D01*
X99914660Y-70840023D01*
X100244123Y-70414686D01*
X100615540Y-70020993D01*
X101027380Y-69662645D01*
X101478114Y-69343339D01*
X101966213Y-69066777D01*
X102237828Y-68937769D01*
X102687812Y-68758810D01*
X103139155Y-68625647D01*
X103607603Y-68533964D01*
X104108906Y-68479444D01*
X104489334Y-68465529D01*
X105045671Y-68492857D01*
G37*
G36*
X103434296Y-82923244D02*
G01*
X103434296Y-83317850D01*
X102063107Y-83326535D01*
X101761280Y-83328557D01*
X101490303Y-83330761D01*
X101267688Y-83333230D01*
X101088115Y-83336194D01*
X100946262Y-83339883D01*
X100836807Y-83344526D01*
X100754430Y-83350353D01*
X100693808Y-83357592D01*
X100649621Y-83366474D01*
X100616545Y-83377228D01*
X100589261Y-83390084D01*
X100456317Y-83477239D01*
X100347619Y-83598906D01*
X100286047Y-83749107D01*
X100266629Y-83936263D01*
X100284077Y-84121254D01*
X100345625Y-84293138D01*
X100452066Y-84427852D01*
X100603927Y-84526319D01*
X100615689Y-84531561D01*
X100652278Y-84544962D01*
X100697001Y-84555696D01*
X100756175Y-84564060D01*
X100836116Y-84570351D01*
X100943139Y-84574866D01*
X101083559Y-84577902D01*
X101263692Y-84579757D01*
X101489854Y-84580727D01*
X101768360Y-84581111D01*
X101858943Y-84581198D01*
X102154642Y-84582207D01*
X102399189Y-84584783D01*
X102598473Y-84589561D01*
X102758388Y-84597179D01*
X102884823Y-84608274D01*
X102983670Y-84623484D01*
X103060820Y-84643445D01*
X103122164Y-84668794D01*
X103173594Y-84700169D01*
X103221000Y-84738207D01*
X103257462Y-84770700D01*
X103300622Y-84813514D01*
X103335377Y-84858774D01*
X103362710Y-84912727D01*
X103383606Y-84981617D01*
X103399047Y-85071692D01*
X103410016Y-85189197D01*
X103417496Y-85340377D01*
X103422472Y-85531479D01*
X103425926Y-85768748D01*
X103428841Y-86058430D01*
X103430395Y-86258521D01*
X103431342Y-86484801D01*
X103431311Y-86687530D01*
X103430345Y-86859685D01*
X103428489Y-86994247D01*
X103425784Y-87084194D01*
X103422275Y-87122507D01*
X103406301Y-87139321D01*
X103366315Y-87150875D01*
X103293902Y-87157079D01*
X103180347Y-87158658D01*
X103016932Y-87156340D01*
X102627714Y-87148152D01*
X102613049Y-86268244D01*
X102598384Y-85388337D01*
X101939021Y-85388337D01*
X101279659Y-85388337D01*
X100755626Y-86275577D01*
X100231593Y-87162817D01*
X99791354Y-87162817D01*
X99687599Y-87162587D01*
X99545841Y-87160740D01*
X99450646Y-87156399D01*
X99394294Y-87148800D01*
X99369069Y-87137177D01*
X99367252Y-87120765D01*
X99380504Y-87095188D01*
X99420672Y-87023086D01*
X99484019Y-86911537D01*
X99567047Y-86766643D01*
X99666260Y-86594503D01*
X99778160Y-86401218D01*
X99899249Y-86192888D01*
X100003836Y-86012875D01*
X100114925Y-85820670D01*
X100212833Y-85650192D01*
X100294272Y-85507219D01*
X100355949Y-85397534D01*
X100394576Y-85326915D01*
X100406862Y-85301142D01*
X100397632Y-85296690D01*
X100347340Y-85275765D01*
X100269892Y-85245064D01*
X100231711Y-85229450D01*
X100003845Y-85101146D01*
X99810735Y-84928860D01*
X99655358Y-84717459D01*
X99540688Y-84471806D01*
X99469704Y-84196769D01*
X99445381Y-83897212D01*
X99451583Y-83752734D01*
X99500692Y-83477848D01*
X99596238Y-83229387D01*
X99735210Y-83012625D01*
X99914600Y-82832833D01*
X100131399Y-82695286D01*
X100198459Y-82663506D01*
X100272713Y-82632205D01*
X100349045Y-82606180D01*
X100433112Y-82584947D01*
X100530573Y-82568017D01*
X100647086Y-82554905D01*
X100788308Y-82545124D01*
X100959899Y-82538186D01*
X101167516Y-82533607D01*
X101416817Y-82530898D01*
X101713462Y-82529573D01*
X102063107Y-82529146D01*
X103434296Y-82528637D01*
X103434296Y-82923244D01*
G37*
G36*
X108021613Y-65189405D02*
G01*
X108114537Y-65235815D01*
X108242785Y-65308855D01*
X108401116Y-65405467D01*
X108584291Y-65522590D01*
X108787067Y-65657164D01*
X109197691Y-65934276D01*
X110101514Y-67057747D01*
X111005337Y-68181218D01*
X111751149Y-68616302D01*
X111808820Y-68649990D01*
X111992970Y-68758186D01*
X112157711Y-68855918D01*
X112296772Y-68939400D01*
X112403880Y-69004847D01*
X112472765Y-69048475D01*
X112497153Y-69066499D01*
X112484717Y-69076977D01*
X112430470Y-69102812D01*
X112347743Y-69134746D01*
X112326046Y-69143487D01*
X112240212Y-69190689D01*
X112142838Y-69257894D01*
X112046179Y-69334883D01*
X111962491Y-69411432D01*
X111904028Y-69477322D01*
X111883046Y-69522329D01*
X111883061Y-69522524D01*
X111905872Y-69553726D01*
X111963155Y-69608336D01*
X112042652Y-69674653D01*
X112063280Y-69690741D01*
X112158864Y-69756786D01*
X112236608Y-69790109D01*
X112315314Y-69799307D01*
X112383590Y-69805194D01*
X112521258Y-69858652D01*
X112641629Y-69966614D01*
X112743325Y-70127617D01*
X112824969Y-70340200D01*
X112858327Y-70443299D01*
X112908814Y-70587262D01*
X112968000Y-70747853D01*
X113028897Y-70905696D01*
X113065064Y-70998207D01*
X113223921Y-71443738D01*
X113345377Y-71863240D01*
X113432386Y-72270053D01*
X113487904Y-72677514D01*
X113514886Y-73098960D01*
X113518390Y-73232623D01*
X113519167Y-73505771D01*
X113508575Y-73744328D01*
X113485114Y-73964561D01*
X113447285Y-74182740D01*
X113393589Y-74415132D01*
X113348593Y-74578402D01*
X113187185Y-75022289D01*
X112978134Y-75434089D01*
X112723665Y-75811954D01*
X112426003Y-76154036D01*
X112087374Y-76458486D01*
X111710004Y-76723457D01*
X111296119Y-76947100D01*
X110847942Y-77127567D01*
X110367702Y-77263010D01*
X109857622Y-77351581D01*
X109734621Y-77365380D01*
X109476194Y-77384795D01*
X109213716Y-77390277D01*
X108936725Y-77381349D01*
X108634764Y-77357539D01*
X108297373Y-77318370D01*
X107914093Y-77263369D01*
X107631514Y-77216283D01*
X106837930Y-77044511D01*
X106064154Y-76817588D01*
X105310702Y-76535742D01*
X104578085Y-76199202D01*
X103866819Y-75808196D01*
X103177417Y-75362952D01*
X102510393Y-74863699D01*
X102459157Y-74821731D01*
X102291726Y-74676182D01*
X102100631Y-74500199D01*
X101895632Y-74303568D01*
X101686487Y-74096070D01*
X101482954Y-73887489D01*
X101294791Y-73687608D01*
X101131757Y-73506211D01*
X101003611Y-73353080D01*
X100875360Y-73187080D01*
X100741535Y-73005103D01*
X100619990Y-72830936D01*
X100514750Y-72670939D01*
X100429839Y-72531475D01*
X100369281Y-72418905D01*
X100337103Y-72339591D01*
X100337327Y-72299894D01*
X100347018Y-72302825D01*
X100393198Y-72336071D01*
X100469858Y-72399697D01*
X100569327Y-72487233D01*
X100683930Y-72592206D01*
X100771344Y-72673629D01*
X100968103Y-72855965D01*
X101134580Y-73008499D01*
X101279434Y-73138984D01*
X101411326Y-73255172D01*
X101538917Y-73364814D01*
X101670865Y-73475664D01*
X101769172Y-73556769D01*
X102472050Y-74096943D01*
X103198734Y-74587959D01*
X103946400Y-75028479D01*
X104712226Y-75417166D01*
X105493386Y-75752682D01*
X106287058Y-76033690D01*
X107090419Y-76258852D01*
X107900643Y-76426830D01*
X108056278Y-76452195D01*
X108451768Y-76505821D01*
X108839892Y-76543595D01*
X109212522Y-76565318D01*
X109561532Y-76570791D01*
X109878794Y-76559815D01*
X110156181Y-76532190D01*
X110385566Y-76487717D01*
X110444224Y-76471169D01*
X110631645Y-76406582D01*
X110835819Y-76322508D01*
X111038336Y-76227403D01*
X111220788Y-76129723D01*
X111364767Y-76037923D01*
X111471702Y-75953985D01*
X111628714Y-75814669D01*
X111788647Y-75658026D01*
X111934443Y-75500949D01*
X112049042Y-75360331D01*
X112230797Y-75082855D01*
X112420640Y-74704805D01*
X112567831Y-74299682D01*
X112670198Y-73876905D01*
X112725568Y-73445895D01*
X112731766Y-73016072D01*
X112686619Y-72596855D01*
X112664067Y-72476074D01*
X112569173Y-72095554D01*
X112443946Y-71758926D01*
X112284976Y-71459437D01*
X112088851Y-71190334D01*
X111852161Y-70944866D01*
X111714327Y-70814032D01*
X111602659Y-70692922D01*
X111532890Y-70592396D01*
X111501567Y-70505844D01*
X111505234Y-70426654D01*
X111540440Y-70348217D01*
X111558847Y-70309441D01*
X111560214Y-70264816D01*
X111540336Y-70200360D01*
X111496347Y-70099942D01*
X111495375Y-70097835D01*
X111447721Y-70006472D01*
X111403529Y-69941416D01*
X111372250Y-69916628D01*
X111369631Y-69916710D01*
X111309189Y-69940289D01*
X111226145Y-69998085D01*
X111133416Y-70078900D01*
X111043920Y-70171537D01*
X110970575Y-70264798D01*
X110922190Y-70333320D01*
X110876475Y-70391737D01*
X110852225Y-70414486D01*
X110849876Y-70411863D01*
X110830631Y-70369538D01*
X110795462Y-70280763D01*
X110746919Y-70152357D01*
X110687555Y-69991137D01*
X110619918Y-69803920D01*
X110546562Y-69597525D01*
X110258188Y-68779808D01*
X109356902Y-67657946D01*
X108455617Y-66536084D01*
X108264686Y-66077915D01*
X108225269Y-65982277D01*
X108142724Y-65774355D01*
X108072598Y-65586913D01*
X108017125Y-65426598D01*
X107978540Y-65300054D01*
X107959078Y-65213927D01*
X107960974Y-65174861D01*
X107969254Y-65172686D01*
X108021613Y-65189405D01*
G37*
G36*
X115019774Y-73524505D02*
G01*
X115020166Y-74197027D01*
X115020436Y-74876096D01*
X115020582Y-75559104D01*
X115020606Y-76243441D01*
X115020507Y-76926501D01*
X115020285Y-77605674D01*
X115019939Y-78278353D01*
X115019471Y-78941928D01*
X115018879Y-79593793D01*
X115018164Y-80231337D01*
X115017325Y-80851954D01*
X115016363Y-81453035D01*
X115015277Y-82031971D01*
X115014068Y-82586155D01*
X115012735Y-83112978D01*
X115011278Y-83609831D01*
X115009697Y-84074107D01*
X115009680Y-84078449D01*
X115007992Y-84503198D01*
X115006164Y-84894494D01*
X115004211Y-85245387D01*
X115002134Y-85553270D01*
X114999932Y-85815534D01*
X114997607Y-86029571D01*
X114995156Y-86192772D01*
X114992582Y-86302530D01*
X114989882Y-86356235D01*
X114952183Y-86600672D01*
X114851179Y-86965767D01*
X114699055Y-87302654D01*
X114494886Y-87613230D01*
X114237748Y-87899391D01*
X114073424Y-88046738D01*
X113771136Y-88262054D01*
X113445942Y-88425320D01*
X113092300Y-88539633D01*
X113088136Y-88540650D01*
X113061216Y-88546814D01*
X113031705Y-88552503D01*
X112997268Y-88557735D01*
X112955569Y-88562531D01*
X112904270Y-88566910D01*
X112841036Y-88570894D01*
X112763531Y-88574501D01*
X112669417Y-88577751D01*
X112556360Y-88580664D01*
X112422023Y-88583260D01*
X112264069Y-88585559D01*
X112080162Y-88587581D01*
X111867966Y-88589345D01*
X111625144Y-88590872D01*
X111349361Y-88592182D01*
X111038281Y-88593293D01*
X110689566Y-88594227D01*
X110300880Y-88595002D01*
X109869888Y-88595639D01*
X109394253Y-88596158D01*
X108871639Y-88596578D01*
X108299710Y-88596919D01*
X107676128Y-88597202D01*
X106998559Y-88597446D01*
X106264666Y-88597670D01*
X105847257Y-88597790D01*
X105145644Y-88597973D01*
X104499039Y-88598100D01*
X103905098Y-88598152D01*
X103361480Y-88598109D01*
X102865842Y-88597953D01*
X102415841Y-88597664D01*
X102009135Y-88597221D01*
X101643381Y-88596608D01*
X101316237Y-88595802D01*
X101025361Y-88594786D01*
X100768409Y-88593540D01*
X100543040Y-88592045D01*
X100346911Y-88590281D01*
X100177679Y-88588229D01*
X100033001Y-88585869D01*
X99910537Y-88583183D01*
X99807941Y-88580150D01*
X99722874Y-88576752D01*
X99652991Y-88572969D01*
X99595950Y-88568781D01*
X99549409Y-88564170D01*
X99511025Y-88559116D01*
X99478456Y-88553599D01*
X99449360Y-88547601D01*
X99421393Y-88541102D01*
X99181249Y-88470398D01*
X98842494Y-88322484D01*
X98531383Y-88128095D01*
X98252645Y-87892081D01*
X98011011Y-87619292D01*
X97811213Y-87314578D01*
X97657981Y-86982790D01*
X97556047Y-86628776D01*
X97554630Y-86621467D01*
X97550560Y-86594965D01*
X97546740Y-86560123D01*
X97543162Y-86515143D01*
X97539818Y-86458229D01*
X97536700Y-86387584D01*
X97533802Y-86301409D01*
X97531114Y-86197909D01*
X97528629Y-86075285D01*
X97526340Y-85931742D01*
X97524238Y-85765481D01*
X97522316Y-85574705D01*
X97520566Y-85357618D01*
X97518980Y-85112422D01*
X97517550Y-84837320D01*
X97516269Y-84530514D01*
X97515129Y-84190209D01*
X97514122Y-83814605D01*
X97513241Y-83401908D01*
X97512476Y-82950318D01*
X97511822Y-82458040D01*
X97511269Y-81923275D01*
X97511191Y-81824711D01*
X98184181Y-81824711D01*
X98184690Y-84061143D01*
X98184694Y-84079068D01*
X98184972Y-84507788D01*
X98185618Y-84881978D01*
X98186705Y-85205612D01*
X98188302Y-85482666D01*
X98190479Y-85717112D01*
X98193308Y-85912926D01*
X98196858Y-86074083D01*
X98201200Y-86204556D01*
X98206404Y-86308319D01*
X98212541Y-86389348D01*
X98219681Y-86451617D01*
X98227895Y-86499100D01*
X98288934Y-86713020D01*
X98417242Y-86989853D01*
X98591337Y-87242776D01*
X98804546Y-87465121D01*
X99050197Y-87650223D01*
X99321618Y-87791416D01*
X99612137Y-87882035D01*
X99640080Y-87885353D01*
X99729638Y-87890260D01*
X99872427Y-87894863D01*
X100065156Y-87899161D01*
X100304534Y-87903156D01*
X100587270Y-87906848D01*
X100910072Y-87910237D01*
X101269652Y-87913325D01*
X101662716Y-87916111D01*
X102085975Y-87918597D01*
X102536137Y-87920783D01*
X103009912Y-87922669D01*
X103504009Y-87924257D01*
X104015137Y-87925546D01*
X104540004Y-87926538D01*
X105075321Y-87927232D01*
X105617796Y-87927630D01*
X106164138Y-87927732D01*
X106711056Y-87927539D01*
X107255260Y-87927051D01*
X107793458Y-87926269D01*
X108322360Y-87925194D01*
X108838675Y-87923825D01*
X109339111Y-87922164D01*
X109820379Y-87920212D01*
X110279187Y-87917968D01*
X110712243Y-87915434D01*
X111116258Y-87912609D01*
X111487941Y-87909496D01*
X111823999Y-87906093D01*
X112121144Y-87902402D01*
X112376083Y-87898424D01*
X112585526Y-87894159D01*
X112746182Y-87889607D01*
X112854759Y-87884769D01*
X112907968Y-87879646D01*
X113017711Y-87852195D01*
X113285781Y-87748357D01*
X113535582Y-87594168D01*
X113774282Y-87385539D01*
X113942319Y-87200432D01*
X114080339Y-87004170D01*
X114182247Y-86795875D01*
X114257880Y-86558731D01*
X114262556Y-86540136D01*
X114272702Y-86495876D01*
X114281474Y-86448448D01*
X114288970Y-86393584D01*
X114295292Y-86327015D01*
X114300539Y-86244473D01*
X114304810Y-86141688D01*
X114308205Y-86014393D01*
X114310823Y-85858318D01*
X114312766Y-85669194D01*
X114314131Y-85442754D01*
X114315020Y-85174728D01*
X114315531Y-84860848D01*
X114315765Y-84496844D01*
X114315820Y-84078449D01*
X114315820Y-81824711D01*
X106250000Y-81824711D01*
X98184181Y-81824711D01*
X97511191Y-81824711D01*
X97510811Y-81344227D01*
X97510695Y-81150115D01*
X98184181Y-81150115D01*
X106250000Y-81150115D01*
X114315820Y-81150115D01*
X114315820Y-73308964D01*
X114315816Y-72627395D01*
X114315792Y-71873336D01*
X114315732Y-71174004D01*
X114315621Y-70527267D01*
X114315444Y-69930993D01*
X114315185Y-69383051D01*
X114314830Y-68881308D01*
X114314362Y-68423632D01*
X114313767Y-68007893D01*
X114313029Y-67631957D01*
X114312133Y-67293693D01*
X114311064Y-66990970D01*
X114309806Y-66721654D01*
X114308344Y-66483616D01*
X114306662Y-66274722D01*
X114304746Y-66092840D01*
X114302581Y-65935840D01*
X114300149Y-65801589D01*
X114297438Y-65687955D01*
X114294430Y-65592806D01*
X114291111Y-65514011D01*
X114287466Y-65449437D01*
X114283479Y-65396954D01*
X114279134Y-65354428D01*
X114274418Y-65319729D01*
X114269313Y-65290723D01*
X114263806Y-65265280D01*
X114257880Y-65241268D01*
X114188538Y-65020102D01*
X114089037Y-64810547D01*
X113954254Y-64614694D01*
X113774282Y-64415627D01*
X113715854Y-64358226D01*
X113580824Y-64237981D01*
X113454363Y-64147318D01*
X113318592Y-64072783D01*
X113315049Y-64071061D01*
X113271524Y-64049208D01*
X113232552Y-64029014D01*
X113195792Y-64010415D01*
X113158901Y-63993350D01*
X113119539Y-63977755D01*
X113075364Y-63963569D01*
X113024036Y-63950729D01*
X112963213Y-63939172D01*
X112890554Y-63928835D01*
X112803717Y-63919657D01*
X112700362Y-63911574D01*
X112578147Y-63904524D01*
X112434731Y-63898445D01*
X112267773Y-63893273D01*
X112074931Y-63888947D01*
X111853865Y-63885403D01*
X111602233Y-63882579D01*
X111317694Y-63880413D01*
X110997907Y-63878842D01*
X110640530Y-63877804D01*
X110243222Y-63877235D01*
X109803642Y-63877074D01*
X109319449Y-63877258D01*
X108788302Y-63877723D01*
X108207859Y-63878409D01*
X107575779Y-63879251D01*
X106889722Y-63880189D01*
X106147345Y-63881158D01*
X99665358Y-63889261D01*
X99430716Y-63969262D01*
X99422444Y-63972105D01*
X99135444Y-64100790D01*
X98875563Y-64275495D01*
X98648834Y-64489538D01*
X98461290Y-64736239D01*
X98318966Y-65008920D01*
X98227895Y-65300899D01*
X98223567Y-65327022D01*
X98219428Y-65365535D01*
X98215588Y-65417911D01*
X98212037Y-65486186D01*
X98208763Y-65572395D01*
X98205756Y-65678576D01*
X98203004Y-65806765D01*
X98200497Y-65958997D01*
X98198223Y-66137309D01*
X98196172Y-66343738D01*
X98194332Y-66580319D01*
X98192693Y-66849089D01*
X98191244Y-67152085D01*
X98189974Y-67491341D01*
X98188871Y-67868896D01*
X98187926Y-68286784D01*
X98187126Y-68747043D01*
X98186461Y-69251709D01*
X98185920Y-69802817D01*
X98185492Y-70402404D01*
X98185166Y-71052507D01*
X98184931Y-71755161D01*
X98184776Y-72512403D01*
X98184690Y-73326270D01*
X98184181Y-81150115D01*
X97510695Y-81150115D01*
X97510439Y-80719099D01*
X97510145Y-80046093D01*
X97509923Y-79323412D01*
X97509763Y-78549260D01*
X97509659Y-77721838D01*
X97509602Y-76839351D01*
X97509585Y-75900000D01*
X97509581Y-75548666D01*
X97509546Y-74627244D01*
X97509492Y-73761992D01*
X97509447Y-72951086D01*
X97509437Y-72192702D01*
X97509488Y-71485017D01*
X97509628Y-70826206D01*
X97509882Y-70214447D01*
X97510277Y-69647914D01*
X97510840Y-69124786D01*
X97511597Y-68643237D01*
X97512574Y-68201443D01*
X97513798Y-67797583D01*
X97515296Y-67429830D01*
X97517093Y-67096363D01*
X97519218Y-66795356D01*
X97521695Y-66524987D01*
X97524551Y-66283430D01*
X97527814Y-66068864D01*
X97531509Y-65879464D01*
X97535663Y-65713406D01*
X97540302Y-65568866D01*
X97545453Y-65444021D01*
X97551143Y-65337046D01*
X97557398Y-65246119D01*
X97564243Y-65169415D01*
X97571707Y-65105111D01*
X97579815Y-65051383D01*
X97588594Y-65006407D01*
X97598071Y-64968359D01*
X97608271Y-64935416D01*
X97619221Y-64905754D01*
X97630949Y-64877548D01*
X97643479Y-64848976D01*
X97656840Y-64818214D01*
X97671056Y-64783437D01*
X97708161Y-64693708D01*
X97849033Y-64421558D01*
X98028452Y-64167932D01*
X98256050Y-63918591D01*
X98284413Y-63890833D01*
X98500319Y-63700066D01*
X98719224Y-63547523D01*
X98959638Y-63421782D01*
X99240070Y-63311424D01*
X99518707Y-63214665D01*
X106250000Y-63214665D01*
X112981294Y-63214665D01*
X113230601Y-63298742D01*
X113546381Y-63422109D01*
X113822613Y-63569229D01*
X114070042Y-63747774D01*
X114302837Y-63966570D01*
X114455103Y-64138811D01*
X114663846Y-64434474D01*
X114820128Y-64748313D01*
X114927438Y-65087921D01*
X114989263Y-65460892D01*
X114991817Y-65512036D01*
X114994405Y-65620700D01*
X114996872Y-65782861D01*
X114999217Y-65995909D01*
X115001441Y-66257236D01*
X115003543Y-66564235D01*
X115005524Y-66914296D01*
X115007383Y-67304811D01*
X115009120Y-67733173D01*
X115010735Y-68196773D01*
X115012228Y-68693002D01*
X115013599Y-69219252D01*
X115014848Y-69772915D01*
X115015975Y-70351383D01*
X115016980Y-70952048D01*
X115017862Y-71572301D01*
X115018622Y-72209533D01*
X115019259Y-72861137D01*
X115019607Y-73308964D01*
X115019774Y-73524505D01*
G37*
D13*
%TO.C,J1*%
X116600000Y-70625000D02*
X116600000Y-70125000D01*
X116890000Y-69265000D02*
X122610000Y-69265000D01*
X116890000Y-70335000D02*
X116890000Y-69265000D01*
X116890000Y-72665000D02*
X116890001Y-73735000D01*
X116890001Y-73735000D02*
X122610000Y-73734999D01*
X116900000Y-70625000D02*
X116600000Y-70625000D01*
X117190000Y-70335000D02*
X116890000Y-70335000D01*
X117190000Y-71500000D02*
X117190000Y-70335000D01*
X117190000Y-71500000D02*
X117190000Y-72665000D01*
X117190000Y-72665000D02*
X116890000Y-72665000D01*
X122610000Y-69265000D02*
X122610000Y-71500000D01*
X122610000Y-73734999D02*
X122610000Y-71500000D01*
D12*
%TO.C,G\u002A\u002A\u002A*%
G36*
X71647752Y-100048866D02*
G01*
X71654297Y-100843777D01*
X72199220Y-100048866D01*
X72744142Y-99253955D01*
X72986768Y-99253955D01*
X73229394Y-99253955D01*
X73229394Y-100543799D01*
X73229394Y-101833643D01*
X72944484Y-101833643D01*
X72659574Y-101833643D01*
X72653029Y-101041556D01*
X72646484Y-100249469D01*
X72100781Y-101041007D01*
X71555078Y-101832545D01*
X71313232Y-101833094D01*
X71071387Y-101833643D01*
X71071387Y-100543799D01*
X71071387Y-99253955D01*
X71356297Y-99253955D01*
X71641207Y-99253955D01*
X71647752Y-100048866D01*
G37*
G36*
X74569235Y-101532306D02*
G01*
X74626496Y-101569218D01*
X74710703Y-101660778D01*
X74757298Y-101769245D01*
X74766301Y-101884745D01*
X74737732Y-101997406D01*
X74671611Y-102097351D01*
X74567958Y-102174707D01*
X74506451Y-102203758D01*
X74426049Y-102225906D01*
X74348890Y-102218424D01*
X74253100Y-102181806D01*
X74193254Y-102149544D01*
X74107736Y-102069730D01*
X74062328Y-101964072D01*
X74054341Y-101827781D01*
X74057564Y-101792526D01*
X74089939Y-101672942D01*
X74157124Y-101584707D01*
X74264194Y-101520387D01*
X74329286Y-101498217D01*
X74449490Y-101491267D01*
X74569235Y-101532306D01*
G37*
G36*
X75362598Y-99985694D02*
G01*
X75362598Y-100295752D01*
X75722266Y-100295752D01*
X76081934Y-100295752D01*
X76081934Y-99985694D01*
X76081934Y-99675635D01*
X76329980Y-99675635D01*
X76578027Y-99675635D01*
X76578027Y-100543799D01*
X76578027Y-101411963D01*
X76329980Y-101411963D01*
X76081934Y-101411963D01*
X76081934Y-101101905D01*
X76081934Y-100791846D01*
X75722266Y-100791846D01*
X75362598Y-100791846D01*
X75362598Y-101101905D01*
X75362598Y-101411963D01*
X75114551Y-101411963D01*
X74866504Y-101411963D01*
X74866504Y-100543799D01*
X74866504Y-99675635D01*
X75114551Y-99675635D01*
X75362598Y-99675635D01*
X75362598Y-99985694D01*
G37*
G36*
X65787988Y-100541973D02*
G01*
X65787988Y-101808838D01*
X65515137Y-101808838D01*
X65242285Y-101808838D01*
X65242285Y-100751895D01*
X65242285Y-99694952D01*
X64975635Y-99704128D01*
X64819509Y-99714117D01*
X64700151Y-99734661D01*
X64610312Y-99769530D01*
X64540101Y-99822585D01*
X64479625Y-99897685D01*
X64449398Y-99952582D01*
X64429366Y-100029156D01*
X64423730Y-100134522D01*
X64427378Y-100223158D01*
X64444394Y-100303561D01*
X64479625Y-100371358D01*
X64506578Y-100408247D01*
X64577391Y-100477277D01*
X64665925Y-100523423D01*
X64782480Y-100551028D01*
X64937356Y-100564439D01*
X65167871Y-100574521D01*
X65167871Y-100785397D01*
X65167871Y-100996272D01*
X64864014Y-100985175D01*
X64831589Y-100983882D01*
X64637561Y-100969728D01*
X64481518Y-100944142D01*
X64353918Y-100904269D01*
X64245219Y-100847253D01*
X64145879Y-100770238D01*
X64115538Y-100741640D01*
X63992223Y-100586260D01*
X63912146Y-100407390D01*
X63875852Y-100206659D01*
X63883884Y-99985694D01*
X63889991Y-99945299D01*
X63944602Y-99754320D01*
X64038456Y-99593362D01*
X64172625Y-99460969D01*
X64348185Y-99355682D01*
X64379938Y-99341045D01*
X64419955Y-99324742D01*
X64461968Y-99312279D01*
X64512781Y-99303033D01*
X64579192Y-99296376D01*
X64668006Y-99291683D01*
X64786021Y-99288330D01*
X64940041Y-99285689D01*
X65136865Y-99283135D01*
X65787988Y-99275108D01*
X65787988Y-100541973D01*
G37*
G36*
X66735868Y-99412641D02*
G01*
X67001620Y-99564014D01*
X67002519Y-99731446D01*
X67003418Y-99898877D01*
X67127441Y-99898877D01*
X67251465Y-99898877D01*
X67251465Y-100109717D01*
X67251465Y-100320557D01*
X67129440Y-100320557D01*
X67007415Y-100320557D01*
X66999215Y-100897266D01*
X66998973Y-100914232D01*
X66996185Y-101094678D01*
X66993165Y-101233189D01*
X66989195Y-101336856D01*
X66983556Y-101412767D01*
X66975531Y-101468010D01*
X66964401Y-101509675D01*
X66949446Y-101544848D01*
X66929949Y-101580620D01*
X66861139Y-101672644D01*
X66741849Y-101762769D01*
X66582965Y-101826135D01*
X66537135Y-101836363D01*
X66439488Y-101846596D01*
X66333822Y-101846854D01*
X66231632Y-101838331D01*
X66144409Y-101822217D01*
X66083648Y-101799704D01*
X66060840Y-101771985D01*
X66060875Y-101770506D01*
X66066848Y-101728814D01*
X66081082Y-101654979D01*
X66100708Y-101563966D01*
X66140577Y-101387423D01*
X66231570Y-101401974D01*
X66245180Y-101403949D01*
X66320955Y-101401542D01*
X66383938Y-101366873D01*
X66399634Y-101353711D01*
X66416561Y-101334727D01*
X66428909Y-101308321D01*
X66437564Y-101267461D01*
X66443411Y-101205118D01*
X66447336Y-101114262D01*
X66450223Y-100987862D01*
X66452959Y-100818889D01*
X66460606Y-100320557D01*
X66273125Y-100320557D01*
X66085644Y-100320557D01*
X66085644Y-100110804D01*
X66085644Y-99901051D01*
X66265478Y-99893763D01*
X66445312Y-99886475D01*
X66457715Y-99573871D01*
X66470117Y-99261268D01*
X66735868Y-99412641D01*
G37*
G36*
X62811618Y-99270665D02*
G01*
X63024793Y-99331327D01*
X63215433Y-99429252D01*
X63255465Y-99456992D01*
X63426001Y-99610333D01*
X63558646Y-99795691D01*
X63653396Y-100013059D01*
X63710248Y-100262431D01*
X63729199Y-100543799D01*
X63729104Y-100564896D01*
X63723441Y-100713379D01*
X63710251Y-100849238D01*
X63691237Y-100954066D01*
X63689950Y-100959044D01*
X63606243Y-101194684D01*
X63487712Y-101396904D01*
X63336700Y-101563607D01*
X63155550Y-101692699D01*
X62946604Y-101782083D01*
X62712207Y-101829665D01*
X62539032Y-101838011D01*
X62299934Y-101813765D01*
X62081088Y-101747335D01*
X61886212Y-101639984D01*
X61719027Y-101492971D01*
X61635689Y-101392063D01*
X61535598Y-101222696D01*
X61473901Y-101036184D01*
X61452441Y-100940674D01*
X61716455Y-100941038D01*
X61980469Y-100941402D01*
X62042480Y-101070171D01*
X62101179Y-101166754D01*
X62211917Y-101274352D01*
X62269501Y-101311215D01*
X62330504Y-101336991D01*
X62404915Y-101351043D01*
X62510823Y-101358461D01*
X62634238Y-101358841D01*
X62753554Y-101340919D01*
X62855212Y-101298381D01*
X62955272Y-101226456D01*
X62982865Y-101201038D01*
X63073993Y-101079399D01*
X63142729Y-100924396D01*
X63186439Y-100745860D01*
X63202486Y-100553622D01*
X63188234Y-100357513D01*
X63181641Y-100318662D01*
X63126056Y-100118418D01*
X63040537Y-99957019D01*
X62925540Y-99834972D01*
X62781518Y-99752783D01*
X62608923Y-99710960D01*
X62593422Y-99709399D01*
X62440220Y-99717030D01*
X62296662Y-99762862D01*
X62172139Y-99841157D01*
X62076043Y-99946177D01*
X62017763Y-100072184D01*
X61990959Y-100171729D01*
X61721301Y-100171729D01*
X61451643Y-100171729D01*
X61482753Y-100041504D01*
X61527778Y-99889818D01*
X61616530Y-99704435D01*
X61736970Y-99552368D01*
X61892732Y-99428179D01*
X61938035Y-99400810D01*
X62139115Y-99312338D01*
X62358555Y-99261162D01*
X62586130Y-99247274D01*
X62811618Y-99270665D01*
G37*
G36*
X69118913Y-99979492D02*
G01*
X69095379Y-100019915D01*
X69050031Y-100098342D01*
X68989396Y-100203511D01*
X68918436Y-100326815D01*
X68842113Y-100459647D01*
X68612726Y-100859185D01*
X68890471Y-101327811D01*
X68925616Y-101387117D01*
X69004043Y-101519514D01*
X69072362Y-101634927D01*
X69126775Y-101726934D01*
X69163483Y-101789112D01*
X69178688Y-101815039D01*
X69161821Y-101822005D01*
X69104496Y-101828048D01*
X69015759Y-101832138D01*
X68904942Y-101833643D01*
X68620727Y-101833643D01*
X68441508Y-101510132D01*
X68409504Y-101453036D01*
X68349342Y-101349572D01*
X68299161Y-101268352D01*
X68263468Y-101216525D01*
X68246770Y-101201239D01*
X68243462Y-101205434D01*
X68218930Y-101243695D01*
X68176308Y-101314094D01*
X68120506Y-101408441D01*
X68056438Y-101518549D01*
X67881625Y-101821241D01*
X67603752Y-101828254D01*
X67504381Y-101830023D01*
X67411822Y-101830001D01*
X67349017Y-101827993D01*
X67325879Y-101824147D01*
X67328119Y-101818959D01*
X67349902Y-101779151D01*
X67391913Y-101705694D01*
X67450507Y-101604878D01*
X67522039Y-101482989D01*
X67602865Y-101346316D01*
X67637065Y-101288483D01*
X67714596Y-101155742D01*
X67781196Y-101039435D01*
X67833207Y-100946084D01*
X67866972Y-100882208D01*
X67878834Y-100854329D01*
X67877561Y-100849925D01*
X67858229Y-100810040D01*
X67818515Y-100736197D01*
X67762137Y-100635088D01*
X67692810Y-100513407D01*
X67614250Y-100377845D01*
X67588510Y-100333710D01*
X67512704Y-100202863D01*
X67447338Y-100088760D01*
X67396094Y-99997904D01*
X67362649Y-99936797D01*
X67350684Y-99911945D01*
X67368992Y-99907171D01*
X67427760Y-99903755D01*
X67517390Y-99902695D01*
X67627959Y-99904266D01*
X67905234Y-99911280D01*
X68077564Y-100229923D01*
X68249894Y-100548567D01*
X68323234Y-100415958D01*
X68329088Y-100405327D01*
X68378971Y-100312578D01*
X68437788Y-100200539D01*
X68494023Y-100091114D01*
X68591472Y-99898877D01*
X68878899Y-99898877D01*
X69166326Y-99898877D01*
X69118913Y-99979492D01*
G37*
G36*
X70124685Y-99887869D02*
G01*
X70221633Y-99891942D01*
X70294827Y-99902370D01*
X70359139Y-99921545D01*
X70429442Y-99951859D01*
X70503145Y-99990209D01*
X70669330Y-100113297D01*
X70799388Y-100270264D01*
X70893074Y-100460764D01*
X70950142Y-100684451D01*
X70951866Y-100695452D01*
X70965793Y-100923506D01*
X70938448Y-101138029D01*
X70872725Y-101334033D01*
X70771518Y-101506527D01*
X70637722Y-101650522D01*
X70474231Y-101761028D01*
X70283939Y-101833054D01*
X70260604Y-101837591D01*
X70178000Y-101845824D01*
X70070375Y-101849958D01*
X69954924Y-101849150D01*
X69843047Y-101841581D01*
X69638480Y-101800811D01*
X69467223Y-101725438D01*
X69326953Y-101614593D01*
X69303044Y-101587691D01*
X69252218Y-101517850D01*
X69204656Y-101438835D01*
X69166826Y-101362977D01*
X69145196Y-101302607D01*
X69146236Y-101270057D01*
X69156609Y-101266341D01*
X69207755Y-101258596D01*
X69290475Y-101250774D01*
X69393081Y-101244105D01*
X69626166Y-101231913D01*
X69713089Y-101326762D01*
X69763945Y-101378176D01*
X69810607Y-101408440D01*
X69869988Y-101423715D01*
X69960531Y-101431832D01*
X70016702Y-101433948D01*
X70138052Y-101422334D01*
X70233808Y-101382216D01*
X70317609Y-101308900D01*
X70326392Y-101298791D01*
X70373541Y-101225084D01*
X70404439Y-101131350D01*
X70421333Y-101008035D01*
X70426465Y-100845585D01*
X70422978Y-100732866D01*
X70399848Y-100574540D01*
X70352829Y-100455895D01*
X70279335Y-100373269D01*
X70176784Y-100323000D01*
X70042593Y-100301426D01*
X69951527Y-100300220D01*
X69877176Y-100312574D01*
X69813753Y-100342918D01*
X69771640Y-100374532D01*
X69693907Y-100473130D01*
X69653910Y-100593409D01*
X69645117Y-100655420D01*
X70010986Y-100662284D01*
X70376855Y-100669149D01*
X70376855Y-100842118D01*
X70376855Y-101015088D01*
X69753487Y-101015088D01*
X69130118Y-101015088D01*
X69142300Y-100760840D01*
X69149379Y-100649144D01*
X69162987Y-100539769D01*
X69184670Y-100450926D01*
X69217518Y-100366412D01*
X69220657Y-100359525D01*
X69322975Y-100194783D01*
X69462263Y-100056170D01*
X69628961Y-99953283D01*
X69674496Y-99933239D01*
X69741701Y-99909968D01*
X69813233Y-99896243D01*
X69904169Y-99889591D01*
X70029590Y-99887537D01*
X70124685Y-99887869D01*
G37*
G36*
X61248730Y-100545549D02*
G01*
X61248730Y-101812339D01*
X60560400Y-101803033D01*
X60457885Y-101801573D01*
X60250637Y-101797615D01*
X60083886Y-101791871D01*
X59951249Y-101783071D01*
X59846342Y-101769947D01*
X59762782Y-101751228D01*
X59694184Y-101725646D01*
X59634166Y-101691931D01*
X59576344Y-101648813D01*
X59514334Y-101595024D01*
X59457631Y-101538984D01*
X59367767Y-101411078D01*
X59317720Y-101264502D01*
X59303419Y-101089502D01*
X59308077Y-101020427D01*
X59846155Y-101020427D01*
X59855334Y-101132544D01*
X59903431Y-101233859D01*
X59988400Y-101312109D01*
X60000512Y-101319215D01*
X60041507Y-101337955D01*
X60091797Y-101350400D01*
X60161454Y-101357779D01*
X60260554Y-101361323D01*
X60399170Y-101362261D01*
X60727832Y-101362354D01*
X60727832Y-100531397D01*
X60727832Y-99700440D01*
X60466586Y-99700440D01*
X60336064Y-99703110D01*
X60209505Y-99715402D01*
X60115416Y-99740097D01*
X60044599Y-99779822D01*
X59987856Y-99837205D01*
X59970517Y-99863176D01*
X59938287Y-99961880D01*
X59940027Y-100071873D01*
X59976400Y-100173702D01*
X59985132Y-100187611D01*
X60047216Y-100253100D01*
X60136367Y-100298750D01*
X60259611Y-100327188D01*
X60423975Y-100341040D01*
X60653418Y-100350150D01*
X60653418Y-100521389D01*
X60653418Y-100692627D01*
X60404383Y-100692627D01*
X60333423Y-100693638D01*
X60184834Y-100706095D01*
X60071306Y-100735203D01*
X59983549Y-100784039D01*
X59912274Y-100855682D01*
X59877939Y-100909773D01*
X59846155Y-101020427D01*
X59308077Y-101020427D01*
X59309068Y-101005723D01*
X59352485Y-100842739D01*
X59437146Y-100706501D01*
X59561311Y-100599355D01*
X59723242Y-100523644D01*
X59765284Y-100509417D01*
X59823076Y-100486086D01*
X59840402Y-100469886D01*
X59822461Y-100457340D01*
X59738378Y-100426507D01*
X59667675Y-100394755D01*
X59614680Y-100360271D01*
X59563051Y-100314026D01*
X59494466Y-100238958D01*
X59439594Y-100147574D01*
X59411731Y-100042101D01*
X59404363Y-99905784D01*
X59406075Y-99829306D01*
X59415566Y-99747896D01*
X59437934Y-99681018D01*
X59478281Y-99608128D01*
X59525037Y-99544980D01*
X59640500Y-99440372D01*
X59782898Y-99357250D01*
X59937899Y-99305063D01*
X59965474Y-99300819D01*
X60048967Y-99293737D01*
X60168413Y-99287668D01*
X60315029Y-99282934D01*
X60480032Y-99279857D01*
X60654639Y-99278760D01*
X61248730Y-99278760D01*
X61248730Y-100531397D01*
X61248730Y-100545549D01*
G37*
G36*
X76937695Y-98930434D02*
G01*
X77008427Y-98970058D01*
X77149794Y-99080903D01*
X77265435Y-99215703D01*
X77343419Y-99361772D01*
X77353756Y-99390336D01*
X77364961Y-99426574D01*
X77374021Y-99466927D01*
X77381165Y-99516449D01*
X77386618Y-99580195D01*
X77390609Y-99663221D01*
X77393366Y-99770581D01*
X77395114Y-99907330D01*
X77396081Y-100078524D01*
X77396495Y-100289217D01*
X77396582Y-100544464D01*
X77396569Y-100638709D01*
X77396328Y-100879174D01*
X77395623Y-101076739D01*
X77394250Y-101236387D01*
X77392006Y-101363102D01*
X77388685Y-101461866D01*
X77384085Y-101537661D01*
X77378000Y-101595471D01*
X77370227Y-101640279D01*
X77360561Y-101677067D01*
X77348799Y-101710819D01*
X77266492Y-101870742D01*
X77144657Y-102015363D01*
X76995231Y-102126593D01*
X76826187Y-102197017D01*
X76807645Y-102201018D01*
X76737675Y-102209345D01*
X76629274Y-102216107D01*
X76480207Y-102221371D01*
X76288244Y-102225203D01*
X76051152Y-102227672D01*
X75766697Y-102228844D01*
X74818942Y-102230518D01*
X74879930Y-102109093D01*
X74916956Y-102018066D01*
X74940918Y-101861046D01*
X74940918Y-101734424D01*
X75810314Y-101734424D01*
X75943349Y-101734386D01*
X76163336Y-101733853D01*
X76341374Y-101732173D01*
X76482496Y-101728703D01*
X76591737Y-101722796D01*
X76674131Y-101713811D01*
X76734713Y-101701101D01*
X76778516Y-101684023D01*
X76810575Y-101661933D01*
X76835924Y-101634187D01*
X76859598Y-101600139D01*
X76866037Y-101588833D01*
X76875221Y-101563881D01*
X76882639Y-101527182D01*
X76888474Y-101474001D01*
X76892908Y-101399607D01*
X76896126Y-101299267D01*
X76898309Y-101168249D01*
X76899642Y-101001820D01*
X76900307Y-100795248D01*
X76900488Y-100543799D01*
X76900427Y-100387198D01*
X76899978Y-100163258D01*
X76898934Y-99981352D01*
X76897112Y-99836749D01*
X76894330Y-99724716D01*
X76890404Y-99640520D01*
X76885151Y-99579429D01*
X76878388Y-99536710D01*
X76869931Y-99507631D01*
X76859598Y-99487459D01*
X76855267Y-99480875D01*
X76833038Y-99449486D01*
X76808641Y-99423714D01*
X76777332Y-99403005D01*
X76734366Y-99386805D01*
X76675000Y-99374561D01*
X76594490Y-99365720D01*
X76488090Y-99359727D01*
X76351058Y-99356030D01*
X76178649Y-99354074D01*
X75966118Y-99353307D01*
X75708723Y-99353174D01*
X75576839Y-99353190D01*
X75355175Y-99353406D01*
X75175659Y-99354069D01*
X75033361Y-99355425D01*
X74923351Y-99357715D01*
X74840702Y-99361184D01*
X74780482Y-99366076D01*
X74737764Y-99372634D01*
X74707617Y-99381101D01*
X74685112Y-99391722D01*
X74665320Y-99404739D01*
X74640911Y-99422418D01*
X74608248Y-99449416D01*
X74582025Y-99479887D01*
X74561536Y-99518958D01*
X74546072Y-99571756D01*
X74534927Y-99643406D01*
X74527393Y-99739034D01*
X74522765Y-99863768D01*
X74520334Y-100022732D01*
X74519394Y-100221053D01*
X74519238Y-100463857D01*
X74519238Y-101328957D01*
X74443867Y-101317895D01*
X74384510Y-101316356D01*
X74276759Y-101334010D01*
X74168612Y-101369865D01*
X74083987Y-101417315D01*
X74023145Y-101465173D01*
X74023144Y-100561387D01*
X74023664Y-100373715D01*
X74025446Y-100168472D01*
X74028346Y-99980134D01*
X74032206Y-99815243D01*
X74036869Y-99680337D01*
X74042180Y-99581959D01*
X74047979Y-99526648D01*
X74106806Y-99337621D01*
X74207647Y-99168000D01*
X74345181Y-99027869D01*
X74514881Y-98923083D01*
X74521047Y-98920248D01*
X74549892Y-98907892D01*
X74580435Y-98897723D01*
X74617467Y-98889527D01*
X74665779Y-98883092D01*
X74730162Y-98878205D01*
X74815408Y-98874654D01*
X74926308Y-98872225D01*
X75067652Y-98870706D01*
X75244233Y-98869885D01*
X75460840Y-98869548D01*
X75722266Y-98869483D01*
X76813672Y-98869483D01*
X76937695Y-98930434D01*
G37*
%TD*%
M02*
