M48
; DRILL file {KiCad 9.0.0} date 2026-04-10T00:59:59-0400
; FORMAT={-:-/ absolute / metric / decimal}
; #@! TF.CreationDate,2026-04-10T00:59:59-04:00
; #@! TF.GenerationSoftware,Kicad,Pcbnew,9.0.0
; #@! TF.FileFunction,MixedPlating,1,4
FMAT,2
METRIC
; #@! TA.AperFunction,Plated,PTH,ViaDrill
T1C0.300
; #@! TA.AperFunction,Plated,PTH,ComponentDrill
T2C0.500
; #@! TA.AperFunction,Plated,PTH,ComponentDrill
T3C0.600
; #@! TA.AperFunction,Plated,PTH,ComponentDrill
T4C1.000
; #@! TA.AperFunction,NonPlated,NPTH,ComponentDrill
T5C3.200
%
G90
G05
T1
X50.425Y-93.7
X52.05Y-58.05
X52.075Y-84.4
X53.425Y-100.1
X53.525Y-98.95
X53.775Y-96.1
X54.1Y-56.15
X54.1Y-58.05
X54.15Y-88.525
X56.15Y-54.7
X56.15Y-56.15
X56.15Y-58.05
X56.3Y-51.65
X56.875Y-97.95
X57.5Y-77.65
X57.55Y-70.45
X57.95Y-59.9
X57.95Y-61.8
X58.0Y-52.6
X58.0Y-54.7
X58.075Y-86.05
X58.15Y-56.15
X58.15Y-58.05
X58.175Y-87.95
X59.475Y-104.65
X59.5Y-107.55
X59.525Y-103.5
X59.675Y-95.5
X59.725Y-94.35
X59.875Y-99.7
X60.0Y-59.9
X60.0Y-61.8
X60.0Y-63.8
X60.0Y-80.85
X60.15Y-56.15
X60.15Y-58.05
X60.35Y-54.7
X60.85Y-89.75
X61.25Y-71.35
X62.0Y-58.85
X62.0Y-59.9
X62.0Y-61.8
X62.0Y-63.8
X62.0Y-65.7
X62.6Y-77.65
X63.125Y-93.4
X63.675Y-84.55
X63.8Y-54.65
X63.9Y-58.05
X63.9Y-59.95
X63.9Y-61.9
X63.9Y-63.8
X63.9Y-65.8
X63.9Y-67.7
X63.975Y-87.25
X65.85Y-54.65
X65.9Y-52.6
X65.9Y-58.05
X65.9Y-59.95
X65.9Y-61.9
X65.9Y-63.8
X65.9Y-65.8
X65.9Y-67.7
X65.9Y-69.7
X66.125Y-100.4
X66.175Y-99.275
X66.35Y-51.15
X67.3Y-53.85
X67.325Y-87.2
X67.35Y-79.6
X67.65Y-58.05
X67.65Y-59.95
X67.85Y-52.6
X68.225Y-86.0
X68.35Y-51.15
X69.85Y-52.6
X69.85Y-54.65
X70.0Y-58.25
X70.15Y-57.25
X70.35Y-51.15
X70.6Y-86.55
X70.7Y-72.4
X71.05Y-94.35
X72.1Y-54.45
X72.45Y-100.2
X72.5Y-52.6
X72.5Y-57.25
X73.0Y-51.15
X73.2Y-96.75
X73.25Y-59.75
X73.35Y-100.7
X73.35Y-102.35
X74.25Y-56.0
X74.3Y-75.8
X75.25Y-61.4
X77.2Y-59.35
X77.45Y-52.55
X77.45Y-54.6
X77.6Y-98.0
X77.65Y-89.2
X77.65Y-98.85
X77.65Y-99.75
X77.7Y-95.45
X77.7Y-102.45
X77.9Y-87.8
X77.95Y-61.35
X77.95Y-77.7
X78.85Y-56.0
X78.862Y-52.4
X79.0Y-87.3
X79.2Y-59.35
X79.9Y-87.05
X80.05Y-101.3
X80.1Y-61.05
X80.2Y-65.4
X80.2Y-86.25
X80.25Y-57.35
X80.65Y-75.75
X80.8Y-90.6
X80.8Y-92.95
X80.8Y-95.45
X80.8Y-98.85
X81.15Y-53.55
X81.2Y-63.5
X81.55Y-86.85
X81.623Y-83.377
X81.7Y-101.3
X81.8Y-79.55
X82.1Y-61.05
X82.1Y-84.55
X83.35Y-101.3
X83.85Y-96.3
X83.9Y-94.65
X84.0Y-65.9
X84.7Y-93.8
X84.7Y-95.45
X84.7Y-97.1
X85.1Y-101.3
X85.117Y-79.067
X85.55Y-90.6
X85.55Y-94.6
X85.55Y-96.3
X85.55Y-98.9
X85.683Y-79.633
X85.95Y-53.55
X86.35Y-87.15
X86.35Y-93.8
X86.35Y-95.45
X86.35Y-97.1
X86.8Y-101.3
X87.15Y-94.65
X87.15Y-96.3
X87.2Y-86.9
X87.55Y-83.45
X87.6Y-84.6
X88.1Y-86.75
X88.5Y-101.3
X89.35Y-57.35
X89.45Y-65.95
X89.5Y-72.1
X90.2Y-95.45
X90.2Y-101.3
X90.25Y-90.6
X90.25Y-92.95
X90.25Y-98.85
X91.3Y-53.55
X91.5Y-87.35
X91.6Y-79.4
X92.0Y-60.8
X92.3Y-83.9
X92.5Y-87.75
X93.2Y-86.15
X93.2Y-102.4
X93.5Y-95.45
X93.6Y-100.55
X93.6Y-101.4
X93.75Y-53.6
X93.9Y-96.3
X93.9Y-99.8
X93.95Y-60.6
X94.1Y-58.6
X94.2Y-97.15
X94.75Y-57.55
X95.0Y-102.05
X96.05Y-99.8
X97.1Y-102.0
X97.4Y-53.1
X98.15Y-99.8
X98.9Y-87.6
X99.1Y-102.05
X99.9Y-70.4
X100.0Y-51.9
X100.0Y-53.1
X100.0Y-82.9
X100.5Y-93.55
X100.6Y-62.75
X101.1Y-102.7
X101.6Y-58.5
X101.6Y-85.6
X101.9Y-51.9
X102.3Y-55.1
X102.4Y-56.95
X103.25Y-101.05
X103.4Y-58.75
X103.4Y-66.7
X103.8Y-51.15
X103.8Y-52.6
X104.65Y-96.2
X104.8Y-65.6
X104.888Y-60.0
X105.9Y-102.75
X106.25Y-61.3
X106.25Y-94.2
X106.323Y-58.927
X106.7Y-74.65
X107.055Y-60.25
X107.35Y-71.225
X107.65Y-79.45
X107.65Y-89.4
X108.75Y-61.7
X108.85Y-98.15
X109.05Y-58.25
X109.25Y-54.45
X109.45Y-62.6
X109.45Y-63.4
X109.6Y-57.35
X109.6Y-76.65
X109.65Y-66.5
X110.15Y-106.5
X110.2Y-101.5
X111.3Y-90.75
X111.6Y-66.75
X112.6Y-83.1
X112.65Y-77.15
X113.9Y-58.2
X113.95Y-54.45
X114.1Y-62.8
X114.65Y-91.35
X114.65Y-93.8
X114.7Y-106.5
X115.05Y-66.65
X115.15Y-59.4
X116.45Y-101.5
X116.8Y-59.8
X116.8Y-66.2
X117.7Y-83.1
X117.7Y-89.45
X117.7Y-95.8
X118.05Y-70.05
X119.2Y-70.95
X119.9Y-63.0
T2
X118.05Y-70.9
X118.05Y-72.15
T4
X51.33Y-62.19
X51.33Y-64.73
X51.33Y-67.27
X51.33Y-69.81
X53.87Y-62.19
X53.87Y-64.73
X53.87Y-67.27
X53.87Y-69.81
X64.84Y-91.5
X67.38Y-91.5
X69.92Y-91.5
X72.46Y-91.5
T5
X52.15Y-104.95
X52.2Y-53.8
X52.2Y-78.2
X118.6Y-53.8
X118.6Y-78.2
X118.6Y-105.0
T3
G00X116.037Y-58.68
M15
G01X116.837Y-58.68
M16
G05
G00X116.037Y-67.32
M15
G01X116.837Y-67.32
M16
G05
G00X119.837Y-58.68
M15
G01X121.037Y-58.68
M16
G05
G00X119.837Y-67.32
M15
G01X121.037Y-67.32
M16
G05
M30
