%TF.GenerationSoftware,KiCad,Pcbnew,9.0.0*%
%TF.CreationDate,2026-04-10T01:13:46-04:00*%
%TF.ProjectId,CUR_ground_station_25-26,4355525f-6772-46f7-956e-645f73746174,rev?*%
%TF.SameCoordinates,Original*%
%TF.FileFunction,Legend,Bot*%
%TF.FilePolarity,Positive*%
%FSLAX46Y46*%
G04 Gerber Fmt 4.6, Leading zero omitted, Abs format (unit mm)*
G04 Created by KiCad (PCBNEW 9.0.0) date 2026-04-10 01:13:46*
%MOMM*%
%LPD*%
G01*
G04 APERTURE LIST*
%ADD10C,0.150000*%
%ADD11C,0.200000*%
%ADD12C,0.120000*%
%ADD13C,0.000000*%
G04 APERTURE END LIST*
D10*
X117669048Y-74573866D02*
X118430953Y-74573866D01*
X118050000Y-74954819D02*
X118050000Y-74192914D01*
D11*
G36*
X107529902Y-54066860D02*
G01*
X107553105Y-54380101D01*
X107747086Y-54414972D01*
X107935711Y-54426385D01*
X108126104Y-54414493D01*
X108288854Y-54380923D01*
X108428164Y-54327976D01*
X108547541Y-54256708D01*
X108649633Y-54166877D01*
X108738198Y-54058204D01*
X108806217Y-53942167D01*
X108854926Y-53817619D01*
X108884663Y-53682989D01*
X108894853Y-53536364D01*
X108884226Y-53384927D01*
X108853018Y-53243875D01*
X108801557Y-53111419D01*
X108729249Y-52986082D01*
X108634612Y-52866773D01*
X108525109Y-52765989D01*
X108401368Y-52687447D01*
X108261377Y-52630127D01*
X108102312Y-52594371D01*
X107920690Y-52581863D01*
X107756880Y-52591548D01*
X107605129Y-52619843D01*
X107653000Y-52933573D01*
X107813531Y-52892057D01*
X107961723Y-52878863D01*
X108098368Y-52891260D01*
X108209526Y-52925874D01*
X108300352Y-52980717D01*
X108374371Y-53056427D01*
X108432599Y-53148230D01*
X108474638Y-53249606D01*
X108500574Y-53362245D01*
X108509560Y-53488249D01*
X108499220Y-53615676D01*
X108469023Y-53731927D01*
X108419284Y-53839087D01*
X108349092Y-53938755D01*
X108262404Y-54020910D01*
X108160687Y-54079818D01*
X108040944Y-54116459D01*
X107898831Y-54129386D01*
X107726790Y-54114582D01*
X107529902Y-54066860D01*
G37*
G36*
X106894260Y-54387307D02*
G01*
X107267219Y-54387307D01*
X107252031Y-53910129D01*
X107246702Y-53374554D01*
X107258259Y-52862823D01*
X107289078Y-52470855D01*
X106894260Y-52448995D01*
X106909219Y-52854396D01*
X106914776Y-53374554D01*
X106909434Y-53912107D01*
X106894260Y-54387307D01*
G37*
G36*
X106247621Y-53051503D02*
G01*
X106418865Y-53074022D01*
X106544870Y-53106619D01*
X106574912Y-53355625D01*
X106376036Y-53314625D01*
X106171912Y-53300914D01*
X106044233Y-53307803D01*
X105961539Y-53324935D01*
X105910938Y-53348175D01*
X105874419Y-53386024D01*
X105849610Y-53447642D01*
X105839863Y-53543447D01*
X105842672Y-53590098D01*
X106072821Y-53605135D01*
X106244416Y-53636638D01*
X106369443Y-53680042D01*
X106458164Y-53732247D01*
X106536484Y-53805719D01*
X106590370Y-53886241D01*
X106622607Y-53975406D01*
X106633653Y-54075897D01*
X106620645Y-54176447D01*
X106583306Y-54259956D01*
X106520935Y-54330520D01*
X106441075Y-54382936D01*
X106347779Y-54415108D01*
X106237491Y-54426385D01*
X106109973Y-54417192D01*
X106001894Y-54391257D01*
X105909991Y-54350188D01*
X105831681Y-54294372D01*
X105813974Y-54294372D01*
X105808923Y-54341776D01*
X105792114Y-54399274D01*
X105469713Y-54387307D01*
X105501257Y-54193713D01*
X105505318Y-54103496D01*
X105834490Y-54103496D01*
X105910159Y-54147318D01*
X105998830Y-54174518D01*
X106103646Y-54184096D01*
X106200927Y-54171792D01*
X106261166Y-54140337D01*
X106296003Y-54092148D01*
X106308565Y-54021675D01*
X106298291Y-53956737D01*
X106268354Y-53903286D01*
X106216325Y-53858254D01*
X106135323Y-53821453D01*
X106015059Y-53795542D01*
X105842672Y-53785492D01*
X105834490Y-54103496D01*
X105505318Y-54103496D01*
X105513433Y-53923245D01*
X105508670Y-53720646D01*
X105503785Y-53511207D01*
X105513955Y-53379990D01*
X105541431Y-53279715D01*
X105583164Y-53203718D01*
X105638363Y-53147041D01*
X105733645Y-53092104D01*
X105858232Y-53056219D01*
X106020237Y-53042994D01*
X106247621Y-53051503D01*
G37*
G36*
X104306385Y-53087446D02*
G01*
X104385642Y-53402519D01*
X104487968Y-53373108D01*
X104590561Y-53363440D01*
X104685452Y-53375539D01*
X104758211Y-53409165D01*
X104814268Y-53463860D01*
X104855687Y-53543814D01*
X104847505Y-54387307D01*
X105210938Y-54387307D01*
X105192814Y-53994438D01*
X105187613Y-53714051D01*
X105195430Y-53497737D01*
X105218414Y-53292352D01*
X105256001Y-53096972D01*
X104907588Y-53058625D01*
X104884385Y-53232282D01*
X104862526Y-53232282D01*
X104792101Y-53147180D01*
X104714123Y-53089256D01*
X104627022Y-53054801D01*
X104527791Y-53042994D01*
X104427307Y-53053301D01*
X104306385Y-53087446D01*
G37*
G36*
X102875366Y-54387307D02*
G01*
X103293387Y-54387307D01*
X103304354Y-54350974D01*
X103358964Y-54252956D01*
X103501116Y-54041337D01*
X103654625Y-53839121D01*
X103731697Y-53762155D01*
X103766242Y-53746413D01*
X103783949Y-53746413D01*
X103767463Y-54387307D01*
X104129553Y-54387307D01*
X104113189Y-53374554D01*
X104124616Y-52870874D01*
X104155565Y-52470855D01*
X103767463Y-52448995D01*
X103782121Y-52948637D01*
X103786636Y-53366616D01*
X103785293Y-53566651D01*
X103766120Y-53566651D01*
X103741893Y-53555560D01*
X103680396Y-53498794D01*
X103548988Y-53346221D01*
X103396575Y-53142061D01*
X103369958Y-53082073D01*
X102962805Y-53082073D01*
X102972879Y-53110012D01*
X103021912Y-53178022D01*
X103148674Y-53318256D01*
X103329468Y-53493329D01*
X103449214Y-53585824D01*
X103449214Y-53606462D01*
X103369949Y-53675150D01*
X103256695Y-53802915D01*
X103098848Y-54014103D01*
X102945959Y-54242246D01*
X102887181Y-54348028D01*
X102875366Y-54387307D01*
G37*
G36*
X101772243Y-54016668D02*
G01*
X101783881Y-54122310D01*
X101816709Y-54208496D01*
X101870028Y-54279627D01*
X101946379Y-54338098D01*
X102051185Y-54383939D01*
X102192165Y-54414826D01*
X102378820Y-54426385D01*
X102592412Y-54413494D01*
X102765457Y-54378025D01*
X102719050Y-54105939D01*
X102547090Y-54153104D01*
X102378820Y-54168465D01*
X102227491Y-54160194D01*
X102151308Y-54141720D01*
X102115150Y-54119073D01*
X102094806Y-54089919D01*
X102087805Y-54052205D01*
X102097685Y-54011271D01*
X102131122Y-53967433D01*
X102198975Y-53918132D01*
X102317393Y-53862429D01*
X102502080Y-53777818D01*
X102609752Y-53706724D01*
X102680590Y-53628903D01*
X102721570Y-53543071D01*
X102735415Y-53445872D01*
X102726623Y-53357867D01*
X102701271Y-53281269D01*
X102659618Y-53213704D01*
X102600226Y-53153636D01*
X102530574Y-53108124D01*
X102444217Y-53073574D01*
X102337648Y-53051127D01*
X102206629Y-53042994D01*
X101978022Y-53055352D01*
X101826831Y-53086347D01*
X101873237Y-53363440D01*
X101977837Y-53328987D01*
X102088608Y-53308041D01*
X102206629Y-53300914D01*
X102319011Y-53310710D01*
X102382516Y-53334145D01*
X102414765Y-53366058D01*
X102425226Y-53407648D01*
X102413657Y-53459332D01*
X102378820Y-53499850D01*
X102319180Y-53534022D01*
X102188921Y-53587900D01*
X102006961Y-53667027D01*
X101900715Y-53736766D01*
X101829063Y-53816812D01*
X101786784Y-53908762D01*
X101772243Y-54016668D01*
G37*
G36*
X101010855Y-53039773D02*
G01*
X101139265Y-53076217D01*
X101258780Y-53136786D01*
X101371196Y-53223245D01*
X101446314Y-53305468D01*
X101505025Y-53398902D01*
X101547997Y-53505149D01*
X101574876Y-53626427D01*
X101584298Y-53765464D01*
X101570833Y-53924513D01*
X101532861Y-54057732D01*
X101472344Y-54169958D01*
X101388904Y-54264697D01*
X101286147Y-54342397D01*
X101175101Y-54397293D01*
X101053967Y-54430598D01*
X100920324Y-54442017D01*
X100780424Y-54429664D01*
X100652199Y-54393434D01*
X100533189Y-54333306D01*
X100421580Y-54247600D01*
X100346970Y-54165904D01*
X100288635Y-54072991D01*
X100245920Y-53967260D01*
X100219193Y-53846486D01*
X100212548Y-53748245D01*
X100566416Y-53748245D01*
X100577255Y-53869812D01*
X100607965Y-53972357D01*
X100657274Y-54059533D01*
X100725266Y-54129812D01*
X100802633Y-54170329D01*
X100892969Y-54184096D01*
X100985407Y-54169480D01*
X101064765Y-54126276D01*
X101134769Y-54050740D01*
X101185221Y-53957757D01*
X101216636Y-53849094D01*
X101227704Y-53721134D01*
X101216865Y-53599567D01*
X101186155Y-53497022D01*
X101136845Y-53409847D01*
X101068854Y-53339567D01*
X100991487Y-53299050D01*
X100901151Y-53285283D01*
X100808713Y-53299899D01*
X100729355Y-53343104D01*
X100659351Y-53418639D01*
X100608899Y-53511622D01*
X100577484Y-53620286D01*
X100566416Y-53748245D01*
X100212548Y-53748245D01*
X100209822Y-53707945D01*
X100223251Y-53548213D01*
X100261123Y-53414330D01*
X100321464Y-53301477D01*
X100404605Y-53206148D01*
X100507107Y-53127712D01*
X100617724Y-53072381D01*
X100738249Y-53038851D01*
X100871109Y-53027362D01*
X101010855Y-53039773D01*
G37*
G36*
X98728733Y-54387307D02*
G01*
X99092166Y-54387307D01*
X99069579Y-54039244D01*
X99062002Y-53685353D01*
X99071219Y-53541424D01*
X99094123Y-53449216D01*
X99125505Y-53393360D01*
X99172973Y-53352043D01*
X99235771Y-53326033D01*
X99318824Y-53316546D01*
X99419251Y-53328050D01*
X99516934Y-53362951D01*
X99613991Y-53423524D01*
X99607152Y-54387307D01*
X99974738Y-54387307D01*
X99955426Y-53982158D01*
X99950069Y-53714051D01*
X99957744Y-53496790D01*
X99980260Y-53291422D01*
X100016992Y-53096972D01*
X99667236Y-53058625D01*
X99644033Y-53201752D01*
X99622173Y-53201752D01*
X99524119Y-53131733D01*
X99420719Y-53082588D01*
X99310566Y-53053033D01*
X99191817Y-53042994D01*
X99054826Y-53055154D01*
X98944403Y-53088939D01*
X98855129Y-53142156D01*
X98804120Y-53195997D01*
X98764859Y-53270714D01*
X98738580Y-53372135D01*
X98728733Y-53507910D01*
X98732152Y-53613912D01*
X98735572Y-53750077D01*
X98728733Y-54387307D01*
G37*
G36*
X96298272Y-52605311D02*
G01*
X96310607Y-53521343D01*
X96322436Y-53735295D01*
X96355076Y-53909951D01*
X96405123Y-54051740D01*
X96470469Y-54166156D01*
X96550453Y-54257540D01*
X96645915Y-54328826D01*
X96759129Y-54381313D01*
X96893604Y-54414555D01*
X97053838Y-54426385D01*
X97203594Y-54417103D01*
X97330593Y-54391000D01*
X97438351Y-54350000D01*
X97529804Y-54295035D01*
X97607170Y-54225984D01*
X97666460Y-54146133D01*
X97716728Y-54040655D01*
X97756491Y-53903686D01*
X97783099Y-53728229D01*
X97792916Y-53506323D01*
X97805251Y-52605311D01*
X97418614Y-52605311D01*
X97431981Y-53061625D01*
X97436322Y-53492889D01*
X97428208Y-53691034D01*
X97407044Y-53835130D01*
X97376896Y-53936831D01*
X97340701Y-54006166D01*
X97287524Y-54065948D01*
X97222466Y-54108710D01*
X97143106Y-54135470D01*
X97045655Y-54145018D01*
X96942859Y-54135287D01*
X96860990Y-54108310D01*
X96795599Y-54065744D01*
X96743771Y-54006898D01*
X96708758Y-53938038D01*
X96679437Y-53836170D01*
X96658776Y-53690910D01*
X96650837Y-53490203D01*
X96655126Y-53068310D01*
X96668545Y-52605311D01*
X96298272Y-52605311D01*
G37*
G36*
X94744644Y-54387307D02*
G01*
X95108077Y-54387307D01*
X95085490Y-54039244D01*
X95077913Y-53685353D01*
X95087130Y-53541424D01*
X95110034Y-53449216D01*
X95141416Y-53393360D01*
X95188884Y-53352043D01*
X95251681Y-53326033D01*
X95334734Y-53316546D01*
X95435162Y-53328050D01*
X95532844Y-53362951D01*
X95629902Y-53423524D01*
X95623063Y-54387307D01*
X95990648Y-54387307D01*
X95971336Y-53982158D01*
X95965980Y-53714051D01*
X95973655Y-53496790D01*
X95996171Y-53291422D01*
X96032903Y-53096972D01*
X95683147Y-53058625D01*
X95659944Y-53201752D01*
X95638084Y-53201752D01*
X95540030Y-53131733D01*
X95436630Y-53082588D01*
X95326477Y-53053033D01*
X95207728Y-53042994D01*
X95070736Y-53055154D01*
X94960314Y-53088939D01*
X94871039Y-53142156D01*
X94820031Y-53195997D01*
X94780770Y-53270714D01*
X94754490Y-53372135D01*
X94744644Y-53507910D01*
X94748063Y-53613912D01*
X94751482Y-53750077D01*
X94744644Y-54387307D01*
G37*
G36*
X94053925Y-54387307D02*
G01*
X94421388Y-54387307D01*
X94407410Y-54093257D01*
X94402337Y-53736644D01*
X94414783Y-53383531D01*
X94448743Y-53098315D01*
X94055268Y-53058625D01*
X94068152Y-53343010D01*
X94073098Y-53736644D01*
X94068101Y-54082172D01*
X94053925Y-54387307D01*
G37*
G36*
X93991032Y-52668325D02*
G01*
X93998130Y-52728266D01*
X94019058Y-52782319D01*
X94054535Y-52832090D01*
X94101091Y-52870318D01*
X94158948Y-52893900D01*
X94231489Y-52902310D01*
X94292534Y-52895094D01*
X94341467Y-52874795D01*
X94381088Y-52841738D01*
X94421396Y-52775441D01*
X94435066Y-52695803D01*
X94427938Y-52635906D01*
X94406990Y-52582363D01*
X94371563Y-52533503D01*
X94325081Y-52496132D01*
X94266819Y-52472935D01*
X94193265Y-52464627D01*
X94131228Y-52471854D01*
X94082388Y-52492019D01*
X94043667Y-52524588D01*
X94004364Y-52589972D01*
X93991032Y-52668325D01*
G37*
G36*
X92564532Y-53082073D02*
G01*
X92577248Y-53144071D01*
X92641490Y-53326679D01*
X92809141Y-53734690D01*
X92976707Y-54142696D01*
X93040918Y-54325306D01*
X93053628Y-54387307D01*
X93426587Y-54387307D01*
X93438371Y-54319638D01*
X93496157Y-54130079D01*
X93643841Y-53718936D01*
X93831976Y-53193563D01*
X93861095Y-53082073D01*
X93462124Y-53082073D01*
X93441949Y-53182981D01*
X93327547Y-53559567D01*
X93213999Y-53936818D01*
X93192969Y-54047931D01*
X93175261Y-54047931D01*
X93155457Y-53945245D01*
X93046912Y-53586312D01*
X92940958Y-53223301D01*
X92918440Y-53082073D01*
X92564532Y-53082073D01*
G37*
G36*
X91915628Y-53057301D02*
G01*
X92047085Y-53097953D01*
X92159378Y-53163516D01*
X92255687Y-53255241D01*
X92333673Y-53366125D01*
X92388940Y-53485343D01*
X92422494Y-53614672D01*
X92433984Y-53756427D01*
X92421955Y-53891314D01*
X92386826Y-54013576D01*
X92328746Y-54125774D01*
X92246161Y-54229770D01*
X92146500Y-54312802D01*
X92026260Y-54373821D01*
X91881218Y-54412544D01*
X91705774Y-54426385D01*
X91520316Y-54417809D01*
X91366110Y-54394032D01*
X91238538Y-54357509D01*
X91211182Y-54090307D01*
X91439870Y-54137807D01*
X91647034Y-54152833D01*
X91766227Y-54140813D01*
X91864003Y-54106977D01*
X91944888Y-54052572D01*
X92010186Y-53979721D01*
X92053951Y-53896717D01*
X92077390Y-53801124D01*
X91197505Y-53786225D01*
X91189323Y-53605485D01*
X91190133Y-53594983D01*
X91509036Y-53594983D01*
X92080076Y-53605729D01*
X92048865Y-53479961D01*
X92002632Y-53392215D01*
X91943419Y-53333275D01*
X91869735Y-53297816D01*
X91776849Y-53285283D01*
X91678576Y-53298216D01*
X91607198Y-53333501D01*
X91555683Y-53390422D01*
X91521870Y-53474231D01*
X91509036Y-53594983D01*
X91190133Y-53594983D01*
X91198873Y-53481640D01*
X91226110Y-53374438D01*
X91269835Y-53281053D01*
X91330129Y-53199309D01*
X91405185Y-53133988D01*
X91498939Y-53085471D01*
X91615509Y-53054279D01*
X91760362Y-53042994D01*
X91915628Y-53057301D01*
G37*
G36*
X90040648Y-53087446D02*
G01*
X90119905Y-53402519D01*
X90222232Y-53373108D01*
X90324825Y-53363440D01*
X90419716Y-53375539D01*
X90492474Y-53409165D01*
X90548531Y-53463860D01*
X90589951Y-53543814D01*
X90581769Y-54387307D01*
X90945202Y-54387307D01*
X90927078Y-53994438D01*
X90921877Y-53714051D01*
X90929694Y-53497737D01*
X90952677Y-53292352D01*
X90990265Y-53096972D01*
X90641852Y-53058625D01*
X90618649Y-53232282D01*
X90596789Y-53232282D01*
X90526364Y-53147180D01*
X90448387Y-53089256D01*
X90361285Y-53054801D01*
X90262055Y-53042994D01*
X90161571Y-53053301D01*
X90040648Y-53087446D01*
G37*
G36*
X88934839Y-54016668D02*
G01*
X88946477Y-54122310D01*
X88979305Y-54208496D01*
X89032623Y-54279627D01*
X89108975Y-54338098D01*
X89213781Y-54383939D01*
X89354761Y-54414826D01*
X89541416Y-54426385D01*
X89755008Y-54413494D01*
X89928053Y-54378025D01*
X89881646Y-54105939D01*
X89709686Y-54153104D01*
X89541416Y-54168465D01*
X89390087Y-54160194D01*
X89313904Y-54141720D01*
X89277746Y-54119073D01*
X89257402Y-54089919D01*
X89250401Y-54052205D01*
X89260281Y-54011271D01*
X89293718Y-53967433D01*
X89361571Y-53918132D01*
X89479989Y-53862429D01*
X89664676Y-53777818D01*
X89772348Y-53706724D01*
X89843186Y-53628903D01*
X89884166Y-53543071D01*
X89898011Y-53445872D01*
X89889219Y-53357867D01*
X89863867Y-53281269D01*
X89822214Y-53213704D01*
X89762822Y-53153636D01*
X89693170Y-53108124D01*
X89606813Y-53073574D01*
X89500244Y-53051127D01*
X89369225Y-53042994D01*
X89140618Y-53055352D01*
X88989427Y-53086347D01*
X89035833Y-53363440D01*
X89140433Y-53328987D01*
X89251204Y-53308041D01*
X89369225Y-53300914D01*
X89481607Y-53310710D01*
X89545112Y-53334145D01*
X89577361Y-53366058D01*
X89587822Y-53407648D01*
X89576253Y-53459332D01*
X89541416Y-53499850D01*
X89481776Y-53534022D01*
X89351517Y-53587900D01*
X89169557Y-53667027D01*
X89063311Y-53736766D01*
X88991659Y-53816812D01*
X88949379Y-53908762D01*
X88934839Y-54016668D01*
G37*
G36*
X88301517Y-54387307D02*
G01*
X88668981Y-54387307D01*
X88655002Y-54093257D01*
X88649930Y-53736644D01*
X88662376Y-53383531D01*
X88696336Y-53098315D01*
X88302861Y-53058625D01*
X88315744Y-53343010D01*
X88320690Y-53736644D01*
X88315694Y-54082172D01*
X88301517Y-54387307D01*
G37*
G36*
X88238625Y-52668325D02*
G01*
X88245722Y-52728266D01*
X88266650Y-52782319D01*
X88302128Y-52832090D01*
X88348683Y-52870318D01*
X88406540Y-52893900D01*
X88479082Y-52902310D01*
X88540127Y-52895094D01*
X88589059Y-52874795D01*
X88628681Y-52841738D01*
X88668988Y-52775441D01*
X88682658Y-52695803D01*
X88675531Y-52635906D01*
X88654582Y-52582363D01*
X88619155Y-52533503D01*
X88572673Y-52496132D01*
X88514411Y-52472935D01*
X88440858Y-52464627D01*
X88378820Y-52471854D01*
X88329981Y-52492019D01*
X88291259Y-52524588D01*
X88251956Y-52589972D01*
X88238625Y-52668325D01*
G37*
G36*
X87862857Y-52723158D02*
G01*
X87873726Y-53105520D01*
X88069120Y-53097338D01*
X88078646Y-53371623D01*
X87890090Y-53363440D01*
X87892777Y-53832631D01*
X87883388Y-54013377D01*
X87858900Y-54143915D01*
X87823782Y-54235611D01*
X87780792Y-54297914D01*
X87721249Y-54348538D01*
X87647953Y-54385991D01*
X87557966Y-54409945D01*
X87447400Y-54418570D01*
X87309666Y-54407533D01*
X87206943Y-54378025D01*
X87183740Y-54137202D01*
X87268854Y-54155042D01*
X87344940Y-54160649D01*
X87423175Y-54150308D01*
X87479050Y-54122263D01*
X87518475Y-54077240D01*
X87542176Y-54017770D01*
X87560267Y-53914477D01*
X87567690Y-53748245D01*
X87564881Y-53363440D01*
X87227459Y-53371623D01*
X87216468Y-53094651D01*
X87559508Y-53105520D01*
X87538991Y-52683468D01*
X87862857Y-52723158D01*
G37*
G36*
X85808897Y-53082073D02*
G01*
X85820280Y-53147535D01*
X85873321Y-53311590D01*
X86004291Y-53646152D01*
X86201038Y-54151218D01*
X86278942Y-54390848D01*
X86333548Y-54566065D01*
X86392413Y-54697971D01*
X86454124Y-54794723D01*
X86518056Y-54863214D01*
X86592986Y-54914824D01*
X86687347Y-54954121D01*
X86805422Y-54979777D01*
X86952442Y-54989121D01*
X86979797Y-54731200D01*
X86870649Y-54719630D01*
X86779006Y-54686666D01*
X86701116Y-54632893D01*
X86641022Y-54561112D01*
X86604605Y-54475037D01*
X86591817Y-54370332D01*
X86608664Y-54258567D01*
X86678677Y-54040119D01*
X86837770Y-53657753D01*
X87055866Y-53158625D01*
X87083600Y-53082073D01*
X86661427Y-53082073D01*
X86643892Y-53169995D01*
X86537107Y-53546256D01*
X86433535Y-53925542D01*
X86412787Y-54055503D01*
X86393736Y-54055503D01*
X86375345Y-53940781D01*
X86281018Y-53586678D01*
X86188531Y-53228817D01*
X86168300Y-53082073D01*
X85808897Y-53082073D01*
G37*
G36*
X108395498Y-55969463D02*
G01*
X108566957Y-55973493D01*
X108803262Y-55973493D01*
X108790364Y-56342207D01*
X108785554Y-56819550D01*
X108790231Y-57322556D01*
X108803262Y-57747307D01*
X108423464Y-57747307D01*
X108435799Y-57037415D01*
X108284124Y-57036071D01*
X108190561Y-57044221D01*
X108116310Y-57066701D01*
X108057370Y-57101811D01*
X108010938Y-57149644D01*
X107961018Y-57235447D01*
X107883443Y-57417278D01*
X107767672Y-57747307D01*
X107363206Y-57747307D01*
X107536450Y-57315337D01*
X107643353Y-57099574D01*
X107721666Y-56991158D01*
X107801811Y-56922222D01*
X107885153Y-56884519D01*
X107885153Y-56864124D01*
X107769371Y-56810360D01*
X107680319Y-56747343D01*
X107613611Y-56675415D01*
X107566344Y-56593725D01*
X107537331Y-56500302D01*
X107536704Y-56493608D01*
X107875628Y-56493608D01*
X107887009Y-56582908D01*
X107918980Y-56653290D01*
X107971503Y-56709380D01*
X108048706Y-56752940D01*
X108158184Y-56782532D01*
X108310136Y-56793782D01*
X108437142Y-56791096D01*
X108441342Y-56469065D01*
X108452163Y-56242282D01*
X108350044Y-56228313D01*
X108225383Y-56223231D01*
X108105757Y-56232874D01*
X108018480Y-56258449D01*
X107955843Y-56296650D01*
X107912336Y-56346799D01*
X107885348Y-56410973D01*
X107875628Y-56493608D01*
X107536704Y-56493608D01*
X107527215Y-56392247D01*
X107539299Y-56281945D01*
X107573361Y-56192035D01*
X107628625Y-56117915D01*
X107707660Y-56057062D01*
X107816020Y-56009403D01*
X107961642Y-55977314D01*
X108154309Y-55965311D01*
X108395498Y-55969463D01*
G37*
G36*
X106665565Y-56399773D02*
G01*
X106793976Y-56436217D01*
X106913490Y-56496786D01*
X107025907Y-56583245D01*
X107101024Y-56665468D01*
X107159735Y-56758902D01*
X107202708Y-56865149D01*
X107229587Y-56986427D01*
X107239009Y-57125464D01*
X107225543Y-57284513D01*
X107187571Y-57417732D01*
X107127054Y-57529958D01*
X107043614Y-57624697D01*
X106940857Y-57702397D01*
X106829811Y-57757293D01*
X106708677Y-57790598D01*
X106575034Y-57802017D01*
X106435135Y-57789664D01*
X106306910Y-57753434D01*
X106187900Y-57693306D01*
X106076290Y-57607600D01*
X106001681Y-57525904D01*
X105943345Y-57432991D01*
X105900631Y-57327260D01*
X105873904Y-57206486D01*
X105867258Y-57108245D01*
X106221127Y-57108245D01*
X106231965Y-57229812D01*
X106262675Y-57332357D01*
X106311985Y-57419533D01*
X106379976Y-57489812D01*
X106457343Y-57530329D01*
X106547679Y-57544096D01*
X106640117Y-57529480D01*
X106719475Y-57486276D01*
X106789480Y-57410740D01*
X106839931Y-57317757D01*
X106871346Y-57209094D01*
X106882414Y-57081134D01*
X106871576Y-56959567D01*
X106840865Y-56857022D01*
X106791556Y-56769847D01*
X106723564Y-56699567D01*
X106646197Y-56659050D01*
X106555861Y-56645283D01*
X106463423Y-56659899D01*
X106384065Y-56703104D01*
X106314061Y-56778639D01*
X106263610Y-56871622D01*
X106232194Y-56980286D01*
X106221127Y-57108245D01*
X105867258Y-57108245D01*
X105864532Y-57067945D01*
X105877961Y-56908213D01*
X105915833Y-56774330D01*
X105976175Y-56661477D01*
X106059316Y-56566148D01*
X106161817Y-56487712D01*
X106272434Y-56432381D01*
X106392960Y-56398851D01*
X106525819Y-56387362D01*
X106665565Y-56399773D01*
G37*
G36*
X104584211Y-57458123D02*
G01*
X104607414Y-57720440D01*
X104692986Y-57754974D01*
X104803525Y-57777913D01*
X104944958Y-57786385D01*
X105120371Y-57772565D01*
X105265673Y-57733870D01*
X105386390Y-57672848D01*
X105486688Y-57589770D01*
X105569958Y-57485684D01*
X105628438Y-57373591D01*
X105663767Y-57251644D01*
X105675854Y-57117282D01*
X105663332Y-56977654D01*
X105626532Y-56849208D01*
X105565301Y-56729492D01*
X105477773Y-56616706D01*
X105372137Y-56524957D01*
X105249033Y-56458785D01*
X105105014Y-56417534D01*
X104935310Y-56402994D01*
X104772541Y-56413191D01*
X104636113Y-56441706D01*
X104682519Y-56723440D01*
X104813581Y-56682840D01*
X104964009Y-56668730D01*
X105068742Y-56682283D01*
X105154197Y-56720920D01*
X105224982Y-56785112D01*
X105277408Y-56867223D01*
X105309438Y-56961679D01*
X105320603Y-57071731D01*
X105307543Y-57190840D01*
X105269797Y-57294027D01*
X105207274Y-57384850D01*
X105146479Y-57439558D01*
X105074353Y-57479177D01*
X104988617Y-57504022D01*
X104886095Y-57512833D01*
X104758598Y-57500701D01*
X104584211Y-57458123D01*
G37*
G36*
X103117655Y-57747307D02*
G01*
X103535676Y-57747307D01*
X103546643Y-57710974D01*
X103601253Y-57612956D01*
X103743405Y-57401337D01*
X103896914Y-57199121D01*
X103973986Y-57122155D01*
X104008531Y-57106413D01*
X104026238Y-57106413D01*
X104009752Y-57747307D01*
X104371842Y-57747307D01*
X104355478Y-56734554D01*
X104366905Y-56230874D01*
X104397854Y-55830855D01*
X104009752Y-55808995D01*
X104024409Y-56308637D01*
X104028925Y-56726616D01*
X104027581Y-56926651D01*
X104008408Y-56926651D01*
X103984182Y-56915560D01*
X103922685Y-56858794D01*
X103791277Y-56706221D01*
X103638864Y-56502061D01*
X103612247Y-56442073D01*
X103205094Y-56442073D01*
X103215168Y-56470012D01*
X103264201Y-56538022D01*
X103390963Y-56678256D01*
X103571757Y-56853329D01*
X103691503Y-56945824D01*
X103691503Y-56966462D01*
X103612238Y-57035150D01*
X103498984Y-57162915D01*
X103341137Y-57374103D01*
X103188248Y-57602246D01*
X103129470Y-57708028D01*
X103117655Y-57747307D01*
G37*
G36*
X102482551Y-56417301D02*
G01*
X102614008Y-56457953D01*
X102726301Y-56523516D01*
X102822609Y-56615241D01*
X102900596Y-56726125D01*
X102955862Y-56845343D01*
X102989417Y-56974672D01*
X103000907Y-57116427D01*
X102988877Y-57251314D01*
X102953748Y-57373576D01*
X102895669Y-57485774D01*
X102813084Y-57589770D01*
X102713423Y-57672802D01*
X102593182Y-57733821D01*
X102448141Y-57772544D01*
X102272697Y-57786385D01*
X102087239Y-57777809D01*
X101933033Y-57754032D01*
X101805460Y-57717509D01*
X101778105Y-57450307D01*
X102006793Y-57497807D01*
X102213956Y-57512833D01*
X102333149Y-57500813D01*
X102430925Y-57466977D01*
X102511810Y-57412572D01*
X102577108Y-57339721D01*
X102620874Y-57256717D01*
X102644312Y-57161124D01*
X101764427Y-57146225D01*
X101756245Y-56965485D01*
X101757055Y-56954983D01*
X102075959Y-56954983D01*
X102646999Y-56965729D01*
X102615788Y-56839961D01*
X102569555Y-56752215D01*
X102510342Y-56693275D01*
X102436658Y-56657816D01*
X102343771Y-56645283D01*
X102245499Y-56658216D01*
X102174121Y-56693501D01*
X102122605Y-56750422D01*
X102088793Y-56834231D01*
X102075959Y-56954983D01*
X101757055Y-56954983D01*
X101765795Y-56841640D01*
X101793032Y-56734438D01*
X101836758Y-56641053D01*
X101897051Y-56559309D01*
X101972108Y-56493988D01*
X102065862Y-56445471D01*
X102182432Y-56414279D01*
X102327285Y-56402994D01*
X102482551Y-56417301D01*
G37*
G36*
X101378279Y-56083158D02*
G01*
X101389148Y-56465520D01*
X101584542Y-56457338D01*
X101594068Y-56731623D01*
X101405512Y-56723440D01*
X101408199Y-57192631D01*
X101398810Y-57373377D01*
X101374322Y-57503915D01*
X101339205Y-57595611D01*
X101296214Y-57657914D01*
X101236672Y-57708538D01*
X101163376Y-57745991D01*
X101073389Y-57769945D01*
X100962822Y-57778570D01*
X100825088Y-57767533D01*
X100722365Y-57738025D01*
X100699162Y-57497202D01*
X100784276Y-57515042D01*
X100860362Y-57520649D01*
X100938597Y-57510308D01*
X100994472Y-57482263D01*
X101033897Y-57437240D01*
X101057598Y-57377770D01*
X101075689Y-57274477D01*
X101083112Y-57108245D01*
X101080303Y-56723440D01*
X100742882Y-56731623D01*
X100731891Y-56454651D01*
X101074930Y-56465520D01*
X101054413Y-56043468D01*
X101378279Y-56083158D01*
G37*
G36*
X99593475Y-56447446D02*
G01*
X99672732Y-56762519D01*
X99775058Y-56733108D01*
X99877651Y-56723440D01*
X99972542Y-56735539D01*
X100045301Y-56769165D01*
X100101358Y-56823860D01*
X100142777Y-56903814D01*
X100134595Y-57747307D01*
X100498028Y-57747307D01*
X100479904Y-57354438D01*
X100474703Y-57074051D01*
X100482520Y-56857737D01*
X100505504Y-56652352D01*
X100543091Y-56456972D01*
X100194678Y-56418625D01*
X100171475Y-56592282D01*
X100149616Y-56592282D01*
X100079191Y-56507180D01*
X100001214Y-56449256D01*
X99914112Y-56414801D01*
X99814881Y-56402994D01*
X99714397Y-56413301D01*
X99593475Y-56447446D01*
G37*
G36*
X98245743Y-56442073D02*
G01*
X98257125Y-56507535D01*
X98310167Y-56671590D01*
X98441137Y-57006152D01*
X98637883Y-57511218D01*
X98715788Y-57750848D01*
X98770393Y-57926065D01*
X98829258Y-58057971D01*
X98890969Y-58154723D01*
X98954902Y-58223214D01*
X99029832Y-58274824D01*
X99124192Y-58314121D01*
X99242268Y-58339777D01*
X99389288Y-58349121D01*
X99416643Y-58091200D01*
X99307495Y-58079630D01*
X99215852Y-58046666D01*
X99137962Y-57992893D01*
X99077868Y-57921112D01*
X99041451Y-57835037D01*
X99028663Y-57730332D01*
X99045510Y-57618567D01*
X99115523Y-57400119D01*
X99274616Y-57017753D01*
X99492712Y-56518625D01*
X99520446Y-56442073D01*
X99098272Y-56442073D01*
X99080738Y-56529995D01*
X98973953Y-56906256D01*
X98870381Y-57285542D01*
X98849633Y-57415503D01*
X98830582Y-57415503D01*
X98812190Y-57300781D01*
X98717864Y-56946678D01*
X98625377Y-56588817D01*
X98605146Y-56442073D01*
X98245743Y-56442073D01*
G37*
G36*
X96151482Y-55965311D02*
G01*
X96161008Y-56267195D01*
X96430714Y-56251640D01*
X96676238Y-56246678D01*
X96678925Y-56819916D01*
X96675029Y-57303627D01*
X96663782Y-57747307D01*
X97046388Y-57747307D01*
X97033256Y-57306664D01*
X97028681Y-56819916D01*
X97034176Y-56246678D01*
X97244852Y-56251426D01*
X97562840Y-56268538D01*
X97551849Y-55965311D01*
X96151482Y-55965311D01*
G37*
G36*
X95675014Y-56417301D02*
G01*
X95806471Y-56457953D01*
X95918764Y-56523516D01*
X96015073Y-56615241D01*
X96093059Y-56726125D01*
X96148325Y-56845343D01*
X96181880Y-56974672D01*
X96193370Y-57116427D01*
X96181341Y-57251314D01*
X96146212Y-57373576D01*
X96088132Y-57485774D01*
X96005547Y-57589770D01*
X95905886Y-57672802D01*
X95785646Y-57733821D01*
X95640604Y-57772544D01*
X95465160Y-57786385D01*
X95279702Y-57777809D01*
X95125496Y-57754032D01*
X94997923Y-57717509D01*
X94970568Y-57450307D01*
X95199256Y-57497807D01*
X95406420Y-57512833D01*
X95525613Y-57500813D01*
X95623389Y-57466977D01*
X95704274Y-57412572D01*
X95769572Y-57339721D01*
X95813337Y-57256717D01*
X95836775Y-57161124D01*
X94956891Y-57146225D01*
X94948709Y-56965485D01*
X94949519Y-56954983D01*
X95268422Y-56954983D01*
X95839462Y-56965729D01*
X95808251Y-56839961D01*
X95762018Y-56752215D01*
X95702805Y-56693275D01*
X95629121Y-56657816D01*
X95536235Y-56645283D01*
X95437962Y-56658216D01*
X95366584Y-56693501D01*
X95315069Y-56750422D01*
X95281256Y-56834231D01*
X95268422Y-56954983D01*
X94949519Y-56954983D01*
X94958259Y-56841640D01*
X94985496Y-56734438D01*
X95029221Y-56641053D01*
X95089515Y-56559309D01*
X95164571Y-56493988D01*
X95258325Y-56445471D01*
X95374895Y-56414279D01*
X95519748Y-56402994D01*
X95675014Y-56417301D01*
G37*
G36*
X94367649Y-56411503D02*
G01*
X94538893Y-56434022D01*
X94664898Y-56466619D01*
X94694940Y-56715625D01*
X94496063Y-56674625D01*
X94291939Y-56660914D01*
X94164260Y-56667803D01*
X94081567Y-56684935D01*
X94030966Y-56708175D01*
X93994447Y-56746024D01*
X93969638Y-56807642D01*
X93959891Y-56903447D01*
X93962700Y-56950098D01*
X94192849Y-56965135D01*
X94364444Y-56996638D01*
X94489471Y-57040042D01*
X94578192Y-57092247D01*
X94656512Y-57165719D01*
X94710398Y-57246241D01*
X94742635Y-57335406D01*
X94753681Y-57435897D01*
X94740673Y-57536447D01*
X94703334Y-57619956D01*
X94640963Y-57690520D01*
X94561103Y-57742936D01*
X94467807Y-57775108D01*
X94357519Y-57786385D01*
X94230001Y-57777192D01*
X94121922Y-57751257D01*
X94030018Y-57710188D01*
X93951709Y-57654372D01*
X93934002Y-57654372D01*
X93928951Y-57701776D01*
X93912142Y-57759274D01*
X93589741Y-57747307D01*
X93621285Y-57553713D01*
X93625346Y-57463496D01*
X93954518Y-57463496D01*
X94030187Y-57507318D01*
X94118858Y-57534518D01*
X94223674Y-57544096D01*
X94320955Y-57531792D01*
X94381194Y-57500337D01*
X94416031Y-57452148D01*
X94428593Y-57381675D01*
X94418319Y-57316737D01*
X94388382Y-57263286D01*
X94336353Y-57218254D01*
X94255351Y-57181453D01*
X94135087Y-57155542D01*
X93962700Y-57145492D01*
X93954518Y-57463496D01*
X93625346Y-57463496D01*
X93633461Y-57283245D01*
X93628698Y-57080646D01*
X93623813Y-56871207D01*
X93633983Y-56739990D01*
X93661458Y-56639715D01*
X93703192Y-56563718D01*
X93758391Y-56507041D01*
X93853672Y-56452104D01*
X93978259Y-56416219D01*
X94140265Y-56402994D01*
X94367649Y-56411503D01*
G37*
G36*
X91303384Y-57747307D02*
G01*
X91665474Y-57747307D01*
X91643841Y-57402668D01*
X91636775Y-57072708D01*
X91646308Y-56907440D01*
X91669348Y-56807623D01*
X91699668Y-56752017D01*
X91746779Y-56711898D01*
X91811700Y-56686114D01*
X91900436Y-56676546D01*
X91972091Y-56684705D01*
X92049324Y-56710530D01*
X92134054Y-56757146D01*
X92139549Y-57064403D01*
X92131367Y-57747307D01*
X92497487Y-57747307D01*
X92474842Y-57374020D01*
X92467445Y-57016532D01*
X92474641Y-56893746D01*
X92492986Y-56809854D01*
X92518736Y-56754704D01*
X92559855Y-56714510D01*
X92626859Y-56687251D01*
X92731106Y-56676546D01*
X92826258Y-56687988D01*
X92907605Y-56721051D01*
X92978401Y-56776197D01*
X92971563Y-57747307D01*
X93339148Y-57747307D01*
X93319848Y-57343168D01*
X93314480Y-57074051D01*
X93322044Y-56861378D01*
X93344454Y-56655910D01*
X93381402Y-56456972D01*
X93031646Y-56418625D01*
X93008443Y-56561752D01*
X92986584Y-56561752D01*
X92892987Y-56491046D01*
X92796009Y-56442007D01*
X92694349Y-56412828D01*
X92586270Y-56402994D01*
X92447009Y-56414719D01*
X92339490Y-56446638D01*
X92256863Y-56495738D01*
X92194260Y-56561752D01*
X92172400Y-56561752D01*
X92065773Y-56488912D01*
X91964468Y-56440056D01*
X91867095Y-56412079D01*
X91772086Y-56402994D01*
X91620167Y-56415918D01*
X91506257Y-56450662D01*
X91421598Y-56503500D01*
X91374156Y-56557345D01*
X91337367Y-56631892D01*
X91312651Y-56732938D01*
X91303384Y-56867910D01*
X91306193Y-56967073D01*
X91308879Y-57066235D01*
X91303384Y-57747307D01*
G37*
G36*
X107396057Y-61062366D02*
G01*
X107615577Y-61111832D01*
X107794792Y-61138395D01*
X107939741Y-61146385D01*
X108131008Y-61134502D01*
X108293940Y-61101013D01*
X108432871Y-61048294D01*
X108551418Y-60977468D01*
X108652320Y-60888343D01*
X108739892Y-60780290D01*
X108807168Y-60664940D01*
X108855354Y-60541154D01*
X108884772Y-60407383D01*
X108894853Y-60261738D01*
X108884065Y-60109328D01*
X108852384Y-59967419D01*
X108800129Y-59834182D01*
X108726670Y-59708115D01*
X108630460Y-59588116D01*
X108519507Y-59487309D01*
X108393304Y-59408452D01*
X108249669Y-59350691D01*
X108085587Y-59314540D01*
X107897365Y-59301863D01*
X107684193Y-59312107D01*
X107509385Y-59340332D01*
X107554448Y-59653573D01*
X107764628Y-59611621D01*
X107939741Y-59598863D01*
X108082263Y-59611361D01*
X108198261Y-59646221D01*
X108293011Y-59701282D01*
X108370219Y-59776916D01*
X108431510Y-59869314D01*
X108475641Y-59971385D01*
X108502829Y-60084885D01*
X108512247Y-60212034D01*
X108501999Y-60340959D01*
X108472047Y-60458973D01*
X108422704Y-60568088D01*
X108353122Y-60669868D01*
X108266734Y-60754639D01*
X108166752Y-60814854D01*
X108050476Y-60851993D01*
X107913852Y-60865018D01*
X107833198Y-60861201D01*
X107733478Y-60848531D01*
X107748921Y-60696894D01*
X107753995Y-60549578D01*
X107760730Y-60397364D01*
X107782693Y-60216309D01*
X107396057Y-60216309D01*
X107406926Y-60643489D01*
X107396057Y-61062366D01*
G37*
G36*
X106207571Y-59807446D02*
G01*
X106286828Y-60122519D01*
X106389155Y-60093108D01*
X106491748Y-60083440D01*
X106586639Y-60095539D01*
X106659397Y-60129165D01*
X106715454Y-60183860D01*
X106756873Y-60263814D01*
X106748691Y-61107307D01*
X107112124Y-61107307D01*
X107094000Y-60714438D01*
X107088799Y-60434051D01*
X107096617Y-60217737D01*
X107119600Y-60012352D01*
X107157187Y-59816972D01*
X106808775Y-59778625D01*
X106785572Y-59952282D01*
X106763712Y-59952282D01*
X106693287Y-59867180D01*
X106615310Y-59809256D01*
X106528208Y-59774801D01*
X106428977Y-59762994D01*
X106328493Y-59773301D01*
X106207571Y-59807446D01*
G37*
G36*
X105514693Y-59759773D02*
G01*
X105643103Y-59796217D01*
X105762618Y-59856786D01*
X105875034Y-59943245D01*
X105950152Y-60025468D01*
X106008863Y-60118902D01*
X106051836Y-60225149D01*
X106078714Y-60346427D01*
X106088136Y-60485464D01*
X106074671Y-60644513D01*
X106036699Y-60777732D01*
X105976182Y-60889958D01*
X105892742Y-60984697D01*
X105789985Y-61062397D01*
X105678939Y-61117293D01*
X105557805Y-61150598D01*
X105424162Y-61162017D01*
X105284262Y-61149664D01*
X105156037Y-61113434D01*
X105037028Y-61053306D01*
X104925418Y-60967600D01*
X104850809Y-60885904D01*
X104792473Y-60792991D01*
X104749758Y-60687260D01*
X104723031Y-60566486D01*
X104716386Y-60468245D01*
X105070254Y-60468245D01*
X105081093Y-60589812D01*
X105111803Y-60692357D01*
X105161113Y-60779533D01*
X105229104Y-60849812D01*
X105306471Y-60890329D01*
X105396807Y-60904096D01*
X105489245Y-60889480D01*
X105568603Y-60846276D01*
X105638607Y-60770740D01*
X105689059Y-60677757D01*
X105720474Y-60569094D01*
X105731542Y-60441134D01*
X105720703Y-60319567D01*
X105689993Y-60217022D01*
X105640683Y-60129847D01*
X105572692Y-60059567D01*
X105495325Y-60019050D01*
X105404989Y-60005283D01*
X105312551Y-60019899D01*
X105233193Y-60063104D01*
X105163189Y-60138639D01*
X105112737Y-60231622D01*
X105081322Y-60340286D01*
X105070254Y-60468245D01*
X104716386Y-60468245D01*
X104713660Y-60427945D01*
X104727089Y-60268213D01*
X104764961Y-60134330D01*
X104825302Y-60021477D01*
X104908443Y-59926148D01*
X105010945Y-59847712D01*
X105121562Y-59792381D01*
X105242088Y-59758851D01*
X105374947Y-59747362D01*
X105514693Y-59759773D01*
G37*
G36*
X103246249Y-61107307D02*
G01*
X103565840Y-61118175D01*
X103583012Y-61047955D01*
X103587700Y-61001183D01*
X103609560Y-61001183D01*
X103702858Y-61064729D01*
X103802626Y-61109752D01*
X103910266Y-61137054D01*
X104027581Y-61146385D01*
X104140479Y-61137868D01*
X104232233Y-61114251D01*
X104306796Y-61077445D01*
X104367201Y-61027928D01*
X104410717Y-60966497D01*
X104446481Y-60874322D01*
X104471586Y-60741091D01*
X104481263Y-60554341D01*
X104479187Y-60435272D01*
X104477110Y-60300939D01*
X104482437Y-60126197D01*
X104503122Y-59815750D01*
X104121981Y-59802073D01*
X104138539Y-60062858D01*
X104143841Y-60302404D01*
X104136295Y-60531245D01*
X104117894Y-60673976D01*
X104094016Y-60756085D01*
X104063277Y-60806866D01*
X104021969Y-60842462D01*
X103968153Y-60864750D01*
X103897889Y-60872833D01*
X103793624Y-60863871D01*
X103702428Y-60838115D01*
X103621894Y-60796263D01*
X103627057Y-60130311D01*
X103638258Y-59814407D01*
X103269452Y-59802073D01*
X103279313Y-60081031D01*
X103283129Y-60474595D01*
X103274075Y-60782932D01*
X103246249Y-61107307D01*
G37*
G36*
X101720219Y-61107307D02*
G01*
X102083653Y-61107307D01*
X102061066Y-60759244D01*
X102053489Y-60405353D01*
X102062705Y-60261424D01*
X102085610Y-60169216D01*
X102116992Y-60113360D01*
X102164460Y-60072043D01*
X102227257Y-60046033D01*
X102310310Y-60036546D01*
X102410738Y-60048050D01*
X102508420Y-60082951D01*
X102605478Y-60143524D01*
X102598639Y-61107307D01*
X102966224Y-61107307D01*
X102946912Y-60702158D01*
X102941556Y-60434051D01*
X102949231Y-60216790D01*
X102971746Y-60011422D01*
X103008478Y-59816972D01*
X102658722Y-59778625D01*
X102635519Y-59921752D01*
X102613660Y-59921752D01*
X102515605Y-59851733D01*
X102412205Y-59802588D01*
X102302052Y-59773033D01*
X102183304Y-59762994D01*
X102046312Y-59775154D01*
X101935889Y-59808939D01*
X101846615Y-59862156D01*
X101795607Y-59915997D01*
X101756346Y-59990714D01*
X101730066Y-60092135D01*
X101720219Y-60227910D01*
X101723639Y-60333912D01*
X101727058Y-60470077D01*
X101720219Y-61107307D01*
G37*
G36*
X100560921Y-59179986D02*
G01*
X100537258Y-59507535D01*
X100529413Y-59831748D01*
X100548586Y-59831748D01*
X100616947Y-59796136D01*
X100711357Y-59772078D01*
X100839602Y-59762994D01*
X100957591Y-59772458D01*
X101061112Y-59799637D01*
X101152681Y-59843639D01*
X101234202Y-59904847D01*
X101306838Y-59984888D01*
X101379913Y-60099815D01*
X101432104Y-60223724D01*
X101463951Y-60358349D01*
X101474877Y-60505858D01*
X101464854Y-60634191D01*
X101435661Y-60750791D01*
X101387769Y-60857726D01*
X101320516Y-60956609D01*
X101236691Y-61039555D01*
X101141085Y-61098062D01*
X101031337Y-61133893D01*
X100903838Y-61146385D01*
X100788237Y-61137403D01*
X100687271Y-61111679D01*
X100598458Y-61070202D01*
X100519888Y-61012785D01*
X100499371Y-61012785D01*
X100489846Y-61118175D01*
X100165980Y-61107307D01*
X100181824Y-60791378D01*
X100508897Y-60791378D01*
X100569940Y-60841964D01*
X100660141Y-60875616D01*
X100790387Y-60888465D01*
X100884038Y-60874350D01*
X100960979Y-60833488D01*
X101025471Y-60763535D01*
X101071786Y-60676761D01*
X101100219Y-60578677D01*
X101110101Y-60466658D01*
X101099679Y-60340003D01*
X101070088Y-60231946D01*
X101022662Y-60139128D01*
X100973592Y-60080987D01*
X100914176Y-60039849D01*
X100842384Y-60014336D01*
X100754849Y-60005283D01*
X100669478Y-60012948D01*
X100595026Y-60034981D01*
X100529413Y-60070862D01*
X100514568Y-60375109D01*
X100508897Y-60791378D01*
X100181824Y-60791378D01*
X100187868Y-60670864D01*
X100196144Y-60088081D01*
X100189817Y-59524034D01*
X100174284Y-59168995D01*
X100560921Y-59179986D01*
G37*
G36*
X98065736Y-60621263D02*
G01*
X98077267Y-60743883D01*
X98109834Y-60846099D01*
X98162169Y-60932074D01*
X98235427Y-61004569D01*
X98333052Y-61064640D01*
X98460432Y-61111516D01*
X98624519Y-61142702D01*
X98833513Y-61154201D01*
X99006602Y-61146799D01*
X99167902Y-61125194D01*
X99318579Y-61090087D01*
X99251657Y-60779044D01*
X99102421Y-60823526D01*
X98963513Y-60849007D01*
X98833513Y-60857202D01*
X98686123Y-60851418D01*
X98585235Y-60836732D01*
X98519295Y-60816535D01*
X98464951Y-60782077D01*
X98434263Y-60737587D01*
X98423674Y-60679882D01*
X98433483Y-60615098D01*
X98462703Y-60557704D01*
X98513799Y-60505370D01*
X98613582Y-60442695D01*
X98829483Y-60341849D01*
X98970402Y-60273062D01*
X99075182Y-60205751D01*
X99150540Y-60140105D01*
X99208448Y-60067378D01*
X99249451Y-59987633D01*
X99274432Y-59899416D01*
X99283042Y-59800729D01*
X99271551Y-59687022D01*
X99238689Y-59590131D01*
X99185069Y-59506565D01*
X99108897Y-59434121D01*
X99019806Y-59379855D01*
X98909658Y-59338507D01*
X98774129Y-59311607D01*
X98608077Y-59301863D01*
X98351197Y-59314355D01*
X98158548Y-59347415D01*
X98209106Y-59653573D01*
X98333788Y-59614883D01*
X98466367Y-59591280D01*
X98608077Y-59583231D01*
X98745536Y-59593309D01*
X98834624Y-59618636D01*
X98889478Y-59654106D01*
X98920051Y-59698402D01*
X98930478Y-59754445D01*
X98922094Y-59811666D01*
X98897558Y-59860411D01*
X98855373Y-59902945D01*
X98769159Y-59953118D01*
X98569853Y-60040698D01*
X98416954Y-60110829D01*
X98302756Y-60179982D01*
X98220097Y-60247816D01*
X98152294Y-60328292D01*
X98104599Y-60416173D01*
X98075679Y-60513069D01*
X98065736Y-60621263D01*
G37*
G36*
X97677512Y-59443158D02*
G01*
X97688381Y-59825520D01*
X97883775Y-59817338D01*
X97893300Y-60091623D01*
X97704745Y-60083440D01*
X97707431Y-60552631D01*
X97698043Y-60733377D01*
X97673554Y-60863915D01*
X97638437Y-60955611D01*
X97595446Y-61017914D01*
X97535904Y-61068538D01*
X97462608Y-61105991D01*
X97372621Y-61129945D01*
X97262055Y-61138570D01*
X97124321Y-61127533D01*
X97021598Y-61098025D01*
X96998394Y-60857202D01*
X97083508Y-60875042D01*
X97159595Y-60880649D01*
X97237830Y-60870308D01*
X97293705Y-60842263D01*
X97333129Y-60797240D01*
X97356830Y-60737770D01*
X97374922Y-60634477D01*
X97382344Y-60468245D01*
X97379535Y-60083440D01*
X97042114Y-60091623D01*
X97031123Y-59814651D01*
X97374162Y-59825520D01*
X97353646Y-59403468D01*
X97677512Y-59443158D01*
G37*
G36*
X96460322Y-59771503D02*
G01*
X96631566Y-59794022D01*
X96757571Y-59826619D01*
X96787613Y-60075625D01*
X96588736Y-60034625D01*
X96384612Y-60020914D01*
X96256933Y-60027803D01*
X96174239Y-60044935D01*
X96123639Y-60068175D01*
X96087119Y-60106024D01*
X96062311Y-60167642D01*
X96052564Y-60263447D01*
X96055373Y-60310098D01*
X96285522Y-60325135D01*
X96457117Y-60356638D01*
X96582144Y-60400042D01*
X96670865Y-60452247D01*
X96749184Y-60525719D01*
X96803071Y-60606241D01*
X96835308Y-60695406D01*
X96846353Y-60795897D01*
X96833345Y-60896447D01*
X96796006Y-60979956D01*
X96733635Y-61050520D01*
X96653775Y-61102936D01*
X96560480Y-61135108D01*
X96450191Y-61146385D01*
X96322674Y-61137192D01*
X96214595Y-61111257D01*
X96122691Y-61070188D01*
X96044382Y-61014372D01*
X96026674Y-61014372D01*
X96021624Y-61061776D01*
X96004815Y-61119274D01*
X95682414Y-61107307D01*
X95713957Y-60913713D01*
X95718018Y-60823496D01*
X96047191Y-60823496D01*
X96122859Y-60867318D01*
X96211531Y-60894518D01*
X96316346Y-60904096D01*
X96413627Y-60891792D01*
X96473866Y-60860337D01*
X96508704Y-60812148D01*
X96521266Y-60741675D01*
X96510992Y-60676737D01*
X96481055Y-60623286D01*
X96429026Y-60578254D01*
X96348023Y-60541453D01*
X96227760Y-60515542D01*
X96055373Y-60505492D01*
X96047191Y-60823496D01*
X95718018Y-60823496D01*
X95726133Y-60643245D01*
X95721371Y-60440646D01*
X95716486Y-60231207D01*
X95726656Y-60099990D01*
X95754131Y-59999715D01*
X95795864Y-59923718D01*
X95851064Y-59867041D01*
X95946345Y-59812104D01*
X96070932Y-59776219D01*
X96232937Y-59762994D01*
X96460322Y-59771503D01*
G37*
G36*
X95289794Y-59443158D02*
G01*
X95300662Y-59825520D01*
X95496057Y-59817338D01*
X95505582Y-60091623D01*
X95317027Y-60083440D01*
X95319713Y-60552631D01*
X95310325Y-60733377D01*
X95285836Y-60863915D01*
X95250719Y-60955611D01*
X95207728Y-61017914D01*
X95148186Y-61068538D01*
X95074890Y-61105991D01*
X94984903Y-61129945D01*
X94874337Y-61138570D01*
X94736603Y-61127533D01*
X94633879Y-61098025D01*
X94610676Y-60857202D01*
X94695790Y-60875042D01*
X94771877Y-60880649D01*
X94850112Y-60870308D01*
X94905987Y-60842263D01*
X94945411Y-60797240D01*
X94969112Y-60737770D01*
X94987204Y-60634477D01*
X94994626Y-60468245D01*
X94991817Y-60083440D01*
X94654396Y-60091623D01*
X94643405Y-59814651D01*
X94986444Y-59825520D01*
X94965928Y-59403468D01*
X95289794Y-59443158D01*
G37*
G36*
X94018754Y-61107307D02*
G01*
X94386217Y-61107307D01*
X94372239Y-60813257D01*
X94367166Y-60456644D01*
X94379613Y-60103531D01*
X94413572Y-59818315D01*
X94020097Y-59778625D01*
X94032981Y-60063010D01*
X94037927Y-60456644D01*
X94032930Y-60802172D01*
X94018754Y-61107307D01*
G37*
G36*
X93955861Y-59388325D02*
G01*
X93962959Y-59448266D01*
X93983887Y-59502319D01*
X94019364Y-59552090D01*
X94065920Y-59590318D01*
X94123777Y-59613900D01*
X94196318Y-59622310D01*
X94257363Y-59615094D01*
X94306296Y-59594795D01*
X94345917Y-59561738D01*
X94386225Y-59495441D01*
X94399895Y-59415803D01*
X94392767Y-59355906D01*
X94371819Y-59302363D01*
X94336392Y-59253503D01*
X94289910Y-59216132D01*
X94231648Y-59192935D01*
X94158094Y-59184627D01*
X94096057Y-59191854D01*
X94047218Y-59212019D01*
X94008496Y-59244588D01*
X93969193Y-59309972D01*
X93955861Y-59388325D01*
G37*
G36*
X93195084Y-59759773D02*
G01*
X93323494Y-59796217D01*
X93443009Y-59856786D01*
X93555425Y-59943245D01*
X93630543Y-60025468D01*
X93689254Y-60118902D01*
X93732226Y-60225149D01*
X93759105Y-60346427D01*
X93768527Y-60485464D01*
X93755062Y-60644513D01*
X93717090Y-60777732D01*
X93656573Y-60889958D01*
X93573133Y-60984697D01*
X93470376Y-61062397D01*
X93359330Y-61117293D01*
X93238195Y-61150598D01*
X93104553Y-61162017D01*
X92964653Y-61149664D01*
X92836428Y-61113434D01*
X92717418Y-61053306D01*
X92605809Y-60967600D01*
X92531199Y-60885904D01*
X92472864Y-60792991D01*
X92430149Y-60687260D01*
X92403422Y-60566486D01*
X92396776Y-60468245D01*
X92750645Y-60468245D01*
X92761483Y-60589812D01*
X92792194Y-60692357D01*
X92841503Y-60779533D01*
X92909495Y-60849812D01*
X92986862Y-60890329D01*
X93077198Y-60904096D01*
X93169636Y-60889480D01*
X93248994Y-60846276D01*
X93318998Y-60770740D01*
X93369449Y-60677757D01*
X93400865Y-60569094D01*
X93411933Y-60441134D01*
X93401094Y-60319567D01*
X93370384Y-60217022D01*
X93321074Y-60129847D01*
X93253083Y-60059567D01*
X93175716Y-60019050D01*
X93085380Y-60005283D01*
X92992942Y-60019899D01*
X92913584Y-60063104D01*
X92843579Y-60138639D01*
X92793128Y-60231622D01*
X92761713Y-60340286D01*
X92750645Y-60468245D01*
X92396776Y-60468245D01*
X92394050Y-60427945D01*
X92407480Y-60268213D01*
X92445352Y-60134330D01*
X92505693Y-60021477D01*
X92588834Y-59926148D01*
X92691336Y-59847712D01*
X92801952Y-59792381D01*
X92922478Y-59758851D01*
X93055338Y-59747362D01*
X93195084Y-59759773D01*
G37*
G36*
X90912962Y-61107307D02*
G01*
X91276395Y-61107307D01*
X91253808Y-60759244D01*
X91246231Y-60405353D01*
X91255448Y-60261424D01*
X91278352Y-60169216D01*
X91309734Y-60113360D01*
X91357202Y-60072043D01*
X91420000Y-60046033D01*
X91503053Y-60036546D01*
X91603480Y-60048050D01*
X91701162Y-60082951D01*
X91798220Y-60143524D01*
X91791381Y-61107307D01*
X92158967Y-61107307D01*
X92139655Y-60702158D01*
X92134298Y-60434051D01*
X92141973Y-60216790D01*
X92164489Y-60011422D01*
X92201221Y-59816972D01*
X91851465Y-59778625D01*
X91828262Y-59921752D01*
X91806402Y-59921752D01*
X91708348Y-59851733D01*
X91604948Y-59802588D01*
X91494795Y-59773033D01*
X91376046Y-59762994D01*
X91239055Y-59775154D01*
X91128632Y-59808939D01*
X91039357Y-59862156D01*
X90988349Y-59915997D01*
X90949088Y-59990714D01*
X90922809Y-60092135D01*
X90912962Y-60227910D01*
X90916381Y-60333912D01*
X90919801Y-60470077D01*
X90912962Y-61107307D01*
G37*
G36*
X88951203Y-60821054D02*
G01*
X88979902Y-61107307D01*
X90019521Y-61107307D01*
X89990823Y-60838761D01*
X89784766Y-60710498D01*
X89635056Y-60592112D01*
X89531025Y-60482622D01*
X89463724Y-60380567D01*
X89426272Y-60283911D01*
X89414288Y-60190052D01*
X89424317Y-60108536D01*
X89452344Y-60044709D01*
X89498001Y-59994283D01*
X89564500Y-59955452D01*
X89658076Y-59929239D01*
X89787247Y-59919309D01*
X89888353Y-59923091D01*
X89999005Y-59934941D01*
X89972993Y-59683371D01*
X89841710Y-59662179D01*
X89635572Y-59653573D01*
X89494228Y-59662357D01*
X89379211Y-59686606D01*
X89285964Y-59723938D01*
X89210711Y-59773130D01*
X89147014Y-59837930D01*
X89101926Y-59912333D01*
X89074219Y-59998253D01*
X89064532Y-60098584D01*
X89076549Y-60223637D01*
X89111822Y-60337725D01*
X89170637Y-60443349D01*
X89255163Y-60542251D01*
X89387702Y-60658233D01*
X89522081Y-60751431D01*
X89658897Y-60823741D01*
X89658897Y-60841570D01*
X89343891Y-60836808D01*
X88951203Y-60821054D01*
G37*
G36*
X88171237Y-59647420D02*
G01*
X88278437Y-59674445D01*
X88371792Y-59717807D01*
X88453475Y-59777546D01*
X88524877Y-59854951D01*
X88593867Y-59966239D01*
X88645680Y-60099924D01*
X88678929Y-60260292D01*
X88690840Y-60452491D01*
X88679129Y-60641449D01*
X88647358Y-60789368D01*
X88599378Y-60904116D01*
X88537212Y-60992146D01*
X88455168Y-61063702D01*
X88354702Y-61116389D01*
X88231916Y-61149960D01*
X88081577Y-61162017D01*
X87927800Y-61148639D01*
X87800461Y-61111063D01*
X87694454Y-61051324D01*
X87606158Y-60968943D01*
X87539210Y-60869363D01*
X87487984Y-60743139D01*
X87454410Y-60584318D01*
X87447471Y-60471909D01*
X87779570Y-60471909D01*
X87790093Y-60622471D01*
X87817627Y-60730065D01*
X87857782Y-60805067D01*
X87908829Y-60855382D01*
X87972034Y-60885610D01*
X88051413Y-60896281D01*
X88126650Y-60887595D01*
X88187769Y-60863066D01*
X88237982Y-60823077D01*
X88278925Y-60765489D01*
X88314627Y-60674795D01*
X88339635Y-60544324D01*
X88349267Y-60361999D01*
X88338432Y-60196905D01*
X88310238Y-60079943D01*
X88269516Y-59999406D01*
X88218449Y-59946195D01*
X88156139Y-59914694D01*
X88078768Y-59903678D01*
X88004199Y-59913766D01*
X87942914Y-59942706D01*
X87891650Y-59991284D01*
X87849302Y-60063779D01*
X87812441Y-60172724D01*
X87788328Y-60307099D01*
X87779570Y-60471909D01*
X87447471Y-60471909D01*
X87442149Y-60385691D01*
X87453360Y-60202281D01*
X87484362Y-60052331D01*
X87532159Y-59930155D01*
X87595167Y-59831016D01*
X87678409Y-59748393D01*
X87778897Y-59688743D01*
X87900170Y-59651286D01*
X88047383Y-59637942D01*
X88171237Y-59647420D01*
G37*
G36*
X86114078Y-60821054D02*
G01*
X86142777Y-61107307D01*
X87182397Y-61107307D01*
X87153698Y-60838761D01*
X86947641Y-60710498D01*
X86797931Y-60592112D01*
X86693900Y-60482622D01*
X86626599Y-60380567D01*
X86589147Y-60283911D01*
X86577163Y-60190052D01*
X86587193Y-60108536D01*
X86615219Y-60044709D01*
X86660876Y-59994283D01*
X86727375Y-59955452D01*
X86820951Y-59929239D01*
X86950122Y-59919309D01*
X87051228Y-59923091D01*
X87161880Y-59934941D01*
X87135868Y-59683371D01*
X87004586Y-59662179D01*
X86798447Y-59653573D01*
X86657103Y-59662357D01*
X86542087Y-59686606D01*
X86448839Y-59723938D01*
X86373586Y-59773130D01*
X86309889Y-59837930D01*
X86264801Y-59912333D01*
X86237094Y-59998253D01*
X86227407Y-60098584D01*
X86239424Y-60223637D01*
X86274697Y-60337725D01*
X86333512Y-60443349D01*
X86418039Y-60542251D01*
X86550577Y-60658233D01*
X86684957Y-60751431D01*
X86821772Y-60823741D01*
X86821772Y-60841570D01*
X86506766Y-60836808D01*
X86114078Y-60821054D01*
G37*
G36*
X85052020Y-59292424D02*
G01*
X85222168Y-59335244D01*
X85367144Y-59396918D01*
X85490583Y-59476501D01*
X85595214Y-59574300D01*
X85682708Y-59691851D01*
X85753569Y-59831825D01*
X85807102Y-59997872D01*
X85841456Y-60194458D01*
X85853715Y-60426724D01*
X85839845Y-60613522D01*
X85801249Y-60766702D01*
X85740924Y-60892385D01*
X85659665Y-60995321D01*
X85571386Y-61067816D01*
X85472863Y-61119406D01*
X85362056Y-61151042D01*
X85236147Y-61162017D01*
X85096289Y-61148818D01*
X84975215Y-61110927D01*
X84869207Y-61049136D01*
X84775750Y-60961860D01*
X84707809Y-60868472D01*
X84659553Y-60766993D01*
X84630152Y-60655765D01*
X84624074Y-60581696D01*
X84945132Y-60581696D01*
X84953462Y-60670604D01*
X84977338Y-60747354D01*
X85016207Y-60814337D01*
X85075364Y-60873399D01*
X85143947Y-60907891D01*
X85225279Y-60919728D01*
X85307080Y-60906747D01*
X85374453Y-60868903D01*
X85431259Y-60803077D01*
X85477714Y-60700511D01*
X85510437Y-60548140D01*
X85523133Y-60329637D01*
X85450352Y-60266453D01*
X85367257Y-60229131D01*
X85270341Y-60216309D01*
X85170307Y-60229682D01*
X85089420Y-60267768D01*
X85023046Y-60331225D01*
X84980526Y-60402387D01*
X84954316Y-60484936D01*
X84945132Y-60581696D01*
X84624074Y-60581696D01*
X84620045Y-60532603D01*
X84628672Y-60421606D01*
X84653518Y-60323356D01*
X84693814Y-60235695D01*
X84749860Y-60156958D01*
X84827181Y-60084500D01*
X84916537Y-60032815D01*
X85020313Y-60000862D01*
X85141992Y-59989651D01*
X85259889Y-59999739D01*
X85354864Y-60027725D01*
X85431508Y-60071636D01*
X85493091Y-60131556D01*
X85514951Y-60131556D01*
X85483286Y-59975438D01*
X85430510Y-59846289D01*
X85357876Y-59739465D01*
X85264634Y-59651751D01*
X85148105Y-59581628D01*
X85003917Y-59529418D01*
X84826308Y-59497258D01*
X84852320Y-59270600D01*
X85052020Y-59292424D01*
G37*
G36*
X74350231Y-97164016D02*
G01*
X74826687Y-97164016D01*
X74826687Y-98395000D01*
X75220162Y-98395000D01*
X75220162Y-97164016D01*
X75696619Y-97164016D01*
X75696619Y-96870924D01*
X74350231Y-96870924D01*
X74350231Y-97164016D01*
G37*
G36*
X72978379Y-98395000D02*
G01*
X73349232Y-98395000D01*
X73349232Y-97823746D01*
X73356467Y-97684711D01*
X73367213Y-97620406D01*
X73381014Y-97582678D01*
X73406268Y-97549891D01*
X73441006Y-97527357D01*
X73484633Y-97514831D01*
X73551098Y-97509863D01*
X73601273Y-97513886D01*
X73653131Y-97526258D01*
X73705144Y-97546644D01*
X73765330Y-97578557D01*
X73765330Y-98395000D01*
X74134167Y-98395000D01*
X74134167Y-96800582D01*
X73765330Y-96800582D01*
X73765330Y-97369912D01*
X73666082Y-97300210D01*
X73576286Y-97251943D01*
X73481929Y-97221437D01*
X73374969Y-97210910D01*
X73282534Y-97218427D01*
X73204803Y-97239631D01*
X73139100Y-97273373D01*
X73083434Y-97319720D01*
X73039905Y-97376696D01*
X73007200Y-97447720D01*
X72986045Y-97535852D01*
X72978379Y-97644960D01*
X72978379Y-98395000D01*
G37*
G36*
X72303005Y-97216142D02*
G01*
X72434970Y-97231885D01*
X72625021Y-97268155D01*
X72625021Y-97545034D01*
X72591224Y-97545034D01*
X72442663Y-97495300D01*
X72340110Y-97470703D01*
X72247941Y-97462969D01*
X72146445Y-97467928D01*
X72071874Y-97480938D01*
X72018414Y-97499697D01*
X71975440Y-97530485D01*
X71949798Y-97573395D01*
X71940561Y-97632595D01*
X71940561Y-97638824D01*
X72102011Y-97650784D01*
X72255176Y-97667675D01*
X72399663Y-97695309D01*
X72509250Y-97733620D01*
X72574570Y-97769328D01*
X72627342Y-97811536D01*
X72669168Y-97860382D01*
X72699445Y-97916534D01*
X72718631Y-97984621D01*
X72725497Y-98067470D01*
X72718288Y-98144763D01*
X72697456Y-98212847D01*
X72663284Y-98273551D01*
X72614855Y-98328138D01*
X72556677Y-98372484D01*
X72492390Y-98404100D01*
X72420790Y-98423470D01*
X72340265Y-98430170D01*
X72272166Y-98426673D01*
X72212220Y-98416707D01*
X72154826Y-98400201D01*
X72099472Y-98377597D01*
X72016490Y-98327405D01*
X71942668Y-98273092D01*
X71942668Y-98395000D01*
X71576853Y-98395000D01*
X71576853Y-98095955D01*
X71942668Y-98095955D01*
X71988715Y-98129089D01*
X72042594Y-98155580D01*
X72099696Y-98172615D01*
X72154701Y-98178112D01*
X72219784Y-98175220D01*
X72257191Y-98168403D01*
X72287985Y-98155753D01*
X72313520Y-98138087D01*
X72334150Y-98116167D01*
X72344295Y-98094947D01*
X72350431Y-98036420D01*
X72342736Y-97986127D01*
X72321214Y-97948676D01*
X72286910Y-97920127D01*
X72236675Y-97897843D01*
X72186187Y-97885339D01*
X72104601Y-97872656D01*
X71942668Y-97855711D01*
X71942668Y-98095955D01*
X71576853Y-98095955D01*
X71576853Y-97611713D01*
X71586576Y-97510174D01*
X71613705Y-97428167D01*
X71656806Y-97361601D01*
X71716713Y-97307814D01*
X71787005Y-97269739D01*
X71881837Y-97239287D01*
X72007456Y-97218631D01*
X72171096Y-97210910D01*
X72303005Y-97216142D01*
G37*
G36*
X70081171Y-98395000D02*
G01*
X70452023Y-98395000D01*
X70452023Y-97823746D01*
X70459259Y-97684711D01*
X70470005Y-97620406D01*
X70483805Y-97582678D01*
X70509059Y-97549891D01*
X70543797Y-97527357D01*
X70587425Y-97514831D01*
X70653890Y-97509863D01*
X70704065Y-97513886D01*
X70755922Y-97526258D01*
X70807935Y-97546644D01*
X70868121Y-97578557D01*
X70868121Y-98395000D01*
X71236959Y-98395000D01*
X71236959Y-97246081D01*
X70868121Y-97246081D01*
X70868121Y-97369912D01*
X70768874Y-97300210D01*
X70679077Y-97251943D01*
X70584721Y-97221437D01*
X70477760Y-97210910D01*
X70385325Y-97218427D01*
X70307594Y-97239631D01*
X70241891Y-97273373D01*
X70186226Y-97319720D01*
X70142697Y-97376696D01*
X70109991Y-97447720D01*
X70088836Y-97535852D01*
X70081171Y-97644960D01*
X70081171Y-98395000D01*
G37*
G36*
X68520825Y-98395000D02*
G01*
X68950113Y-98395000D01*
X69272880Y-97894729D01*
X69373355Y-98016454D01*
X69373355Y-98395000D01*
X69742192Y-98395000D01*
X69742192Y-96800582D01*
X69373355Y-96800582D01*
X69373355Y-97753496D01*
X68975758Y-97246081D01*
X68550501Y-97246081D01*
X68964493Y-97741222D01*
X68520825Y-98395000D01*
G37*
G36*
X67097775Y-97990350D02*
G01*
X66835458Y-97246081D01*
X66456363Y-97246081D01*
X67095760Y-98817051D01*
X67495372Y-98817051D01*
X67312922Y-98389138D01*
X67760711Y-97246081D01*
X67373373Y-97246081D01*
X67097775Y-97990350D01*
G37*
G36*
X65825739Y-97218253D02*
G01*
X65930189Y-97239104D01*
X66020982Y-97272184D01*
X66100069Y-97316903D01*
X66168950Y-97373393D01*
X66227335Y-97441118D01*
X66273207Y-97518184D01*
X66306914Y-97605936D01*
X66328047Y-97706179D01*
X66335463Y-97821090D01*
X66328117Y-97935043D01*
X66307159Y-98034701D01*
X66273694Y-98122177D01*
X66228109Y-98199220D01*
X66170049Y-98267138D01*
X66101568Y-98323731D01*
X66022631Y-98368581D01*
X65931685Y-98401803D01*
X65826712Y-98422775D01*
X65705316Y-98430170D01*
X65583916Y-98422774D01*
X65478954Y-98401800D01*
X65388028Y-98368577D01*
X65309120Y-98323728D01*
X65240675Y-98267138D01*
X65182579Y-98199215D01*
X65136968Y-98122169D01*
X65103487Y-98034694D01*
X65082519Y-97935038D01*
X65075299Y-97823105D01*
X65457379Y-97823105D01*
X65462511Y-97926052D01*
X65475331Y-97993647D01*
X65498165Y-98051569D01*
X65529095Y-98098977D01*
X65564546Y-98133089D01*
X65606489Y-98155489D01*
X65653059Y-98168027D01*
X65702293Y-98172250D01*
X65758649Y-98167470D01*
X65806341Y-98153932D01*
X65848443Y-98130430D01*
X65884651Y-98095863D01*
X65913499Y-98049394D01*
X65935942Y-97985496D01*
X65948670Y-97913465D01*
X65953345Y-97823105D01*
X65947844Y-97722833D01*
X65933378Y-97648990D01*
X65908792Y-97584866D01*
X65879522Y-97540088D01*
X65839438Y-97503505D01*
X65800204Y-97483119D01*
X65756848Y-97472579D01*
X65705316Y-97468831D01*
X65653415Y-97473241D01*
X65606031Y-97486141D01*
X65563576Y-97509294D01*
X65527080Y-97545218D01*
X65498894Y-97590653D01*
X65475880Y-97654119D01*
X65462451Y-97726466D01*
X65457379Y-97823105D01*
X65075299Y-97823105D01*
X65075169Y-97821090D01*
X65082477Y-97707061D01*
X65103329Y-97607299D01*
X65136619Y-97519706D01*
X65181954Y-97442539D01*
X65239667Y-97374492D01*
X65307715Y-97317795D01*
X65386467Y-97272816D01*
X65477528Y-97239452D01*
X65582984Y-97218359D01*
X65705316Y-97210910D01*
X65825739Y-97218253D01*
G37*
G36*
X63664301Y-98395000D02*
G01*
X64033229Y-98395000D01*
X64033229Y-98271168D01*
X64135233Y-98342200D01*
X64220808Y-98389687D01*
X64278821Y-98411525D01*
X64345883Y-98425307D01*
X64423591Y-98430170D01*
X64518205Y-98422509D01*
X64596839Y-98401009D01*
X64662449Y-98366981D01*
X64717232Y-98320444D01*
X64759917Y-98263073D01*
X64791980Y-98191980D01*
X64812689Y-98104225D01*
X64820180Y-97996120D01*
X64820180Y-97246081D01*
X64449236Y-97246081D01*
X64449236Y-97817335D01*
X64443649Y-97962506D01*
X64433743Y-98017335D01*
X64417454Y-98058402D01*
X64393072Y-98091168D01*
X64358561Y-98113815D01*
X64314860Y-98126277D01*
X64248377Y-98131217D01*
X64200365Y-98127135D01*
X64143963Y-98113815D01*
X64087900Y-98092400D01*
X64033229Y-98062524D01*
X64033229Y-97246081D01*
X63664301Y-97246081D01*
X63664301Y-98395000D01*
G37*
G36*
X61863803Y-98385474D02*
G01*
X61989833Y-98409654D01*
X62152773Y-98418447D01*
X62262634Y-98411899D01*
X62350009Y-98394026D01*
X62418988Y-98366883D01*
X62472976Y-98331618D01*
X62515964Y-98284827D01*
X62548587Y-98222533D01*
X62570083Y-98140790D01*
X62578031Y-98034405D01*
X62578031Y-97498140D01*
X62729705Y-97498140D01*
X62729705Y-97246081D01*
X62578031Y-97246081D01*
X62578031Y-96917819D01*
X62209193Y-96917819D01*
X62209193Y-97246081D01*
X61863803Y-97246081D01*
X61863803Y-97498140D01*
X62209193Y-97498140D01*
X62209193Y-97903613D01*
X62208186Y-98008485D01*
X62203439Y-98051712D01*
X62191791Y-98088994D01*
X62172195Y-98120623D01*
X62141050Y-98145505D01*
X62099898Y-98160438D01*
X62034987Y-98166388D01*
X61959608Y-98154023D01*
X61894578Y-98131217D01*
X61863803Y-98131217D01*
X61863803Y-98385474D01*
G37*
G36*
X61218342Y-97218253D02*
G01*
X61322792Y-97239104D01*
X61413585Y-97272184D01*
X61492672Y-97316903D01*
X61561553Y-97373393D01*
X61619938Y-97441118D01*
X61665810Y-97518184D01*
X61699517Y-97605936D01*
X61720650Y-97706179D01*
X61728065Y-97821090D01*
X61720720Y-97935043D01*
X61699762Y-98034701D01*
X61666297Y-98122177D01*
X61620712Y-98199220D01*
X61562652Y-98267138D01*
X61494171Y-98323731D01*
X61415233Y-98368581D01*
X61324287Y-98401803D01*
X61219315Y-98422775D01*
X61097919Y-98430170D01*
X60976519Y-98422774D01*
X60871557Y-98401800D01*
X60780631Y-98368577D01*
X60701723Y-98323728D01*
X60633277Y-98267138D01*
X60575182Y-98199215D01*
X60529571Y-98122169D01*
X60496090Y-98034694D01*
X60475121Y-97935038D01*
X60467902Y-97823105D01*
X60849982Y-97823105D01*
X60855114Y-97926052D01*
X60867934Y-97993647D01*
X60890768Y-98051569D01*
X60921698Y-98098977D01*
X60957149Y-98133089D01*
X60999092Y-98155489D01*
X61045662Y-98168027D01*
X61094896Y-98172250D01*
X61151252Y-98167470D01*
X61198944Y-98153932D01*
X61241046Y-98130430D01*
X61277254Y-98095863D01*
X61306102Y-98049394D01*
X61328545Y-97985496D01*
X61341273Y-97913465D01*
X61345948Y-97823105D01*
X61340447Y-97722833D01*
X61325981Y-97648990D01*
X61301395Y-97584866D01*
X61272125Y-97540088D01*
X61232041Y-97503505D01*
X61192807Y-97483119D01*
X61149450Y-97472579D01*
X61097919Y-97468831D01*
X61046018Y-97473241D01*
X60998634Y-97486141D01*
X60956179Y-97509294D01*
X60919683Y-97545218D01*
X60891497Y-97590653D01*
X60868483Y-97654119D01*
X60855054Y-97726466D01*
X60849982Y-97823105D01*
X60467902Y-97823105D01*
X60467772Y-97821090D01*
X60475080Y-97707061D01*
X60495932Y-97607299D01*
X60529222Y-97519706D01*
X60574557Y-97442539D01*
X60632270Y-97374492D01*
X60700318Y-97317795D01*
X60779070Y-97272816D01*
X60870131Y-97239452D01*
X60975587Y-97218359D01*
X61097919Y-97210910D01*
X61218342Y-97218253D01*
G37*
D10*
X119454819Y-71196665D02*
X120169104Y-71196665D01*
X120169104Y-71196665D02*
X120311961Y-71149046D01*
X120311961Y-71149046D02*
X120407200Y-71053808D01*
X120407200Y-71053808D02*
X120454819Y-70910951D01*
X120454819Y-70910951D02*
X120454819Y-70815713D01*
X120454819Y-72196665D02*
X120454819Y-71625237D01*
X120454819Y-71910951D02*
X119454819Y-71910951D01*
X119454819Y-71910951D02*
X119597676Y-71815713D01*
X119597676Y-71815713D02*
X119692914Y-71720475D01*
X119692914Y-71720475D02*
X119740533Y-71625237D01*
D12*
%TO.C,J1*%
X119500000Y-72399999D02*
X119500000Y-72899999D01*
X119210000Y-73759999D02*
X113490000Y-73759999D01*
X119210000Y-72689999D02*
X119210000Y-73759999D01*
X119210000Y-70359999D02*
X119209999Y-69289999D01*
X119209999Y-69289999D02*
X113490000Y-69290000D01*
X119200000Y-72399999D02*
X119500000Y-72399999D01*
X118910000Y-72689999D02*
X119210000Y-72689999D01*
X118910000Y-71524999D02*
X118910000Y-72689999D01*
X118910000Y-71524999D02*
X118910000Y-70359999D01*
X118910000Y-70359999D02*
X119210000Y-70359999D01*
X113490000Y-73759999D02*
X113490000Y-71524999D01*
X113490000Y-69290000D02*
X113490000Y-71524999D01*
D13*
%TO.C,G\u002A\u002A\u002A*%
G36*
X104168174Y-95551099D02*
G01*
X104330173Y-95552661D01*
X104818383Y-95558001D01*
X105223798Y-95564585D01*
X105557910Y-95573927D01*
X105832214Y-95587538D01*
X106058204Y-95606932D01*
X106247373Y-95633621D01*
X106411214Y-95669117D01*
X106561221Y-95714932D01*
X106708889Y-95772580D01*
X106865710Y-95843573D01*
X107043178Y-95929422D01*
X107081540Y-95948638D01*
X107484146Y-96208434D01*
X107839382Y-96546781D01*
X108139715Y-96953636D01*
X108377612Y-97418954D01*
X108545542Y-97932692D01*
X108599781Y-98185036D01*
X108680855Y-98786193D01*
X108707504Y-99415820D01*
X108679066Y-100037842D01*
X108594877Y-100616183D01*
X108490596Y-101027392D01*
X108284829Y-101558201D01*
X108013796Y-102016384D01*
X107677924Y-102401559D01*
X107277642Y-102713344D01*
X106813377Y-102951357D01*
X106285559Y-103115215D01*
X105694616Y-103204536D01*
X105673025Y-103206228D01*
X105488547Y-103216402D01*
X105226636Y-103225975D01*
X104904710Y-103234539D01*
X104540181Y-103241685D01*
X104150467Y-103247004D01*
X103752981Y-103250087D01*
X102275385Y-103256922D01*
X102275385Y-102573076D01*
X102275385Y-101889230D01*
X103902760Y-101889230D01*
X104032007Y-101889091D01*
X104459813Y-101886582D01*
X104851500Y-101881181D01*
X105194754Y-101873222D01*
X105477264Y-101863040D01*
X105686715Y-101850970D01*
X105810795Y-101837347D01*
X106140481Y-101753047D01*
X106490131Y-101593444D01*
X106777425Y-101369663D01*
X107004172Y-101078568D01*
X107172177Y-100717020D01*
X107283248Y-100281879D01*
X107339192Y-99770008D01*
X107341817Y-99178269D01*
X107319909Y-98829665D01*
X107248675Y-98342371D01*
X107129454Y-97934873D01*
X106958398Y-97601924D01*
X106731660Y-97338277D01*
X106445391Y-97138684D01*
X106095744Y-96997900D01*
X105678870Y-96910676D01*
X105647297Y-96906872D01*
X105476440Y-96893823D01*
X105228421Y-96882145D01*
X104919307Y-96872285D01*
X104565168Y-96864689D01*
X104182070Y-96859804D01*
X103786082Y-96858076D01*
X102275385Y-96858076D01*
X102275385Y-96195548D01*
X102275385Y-95533020D01*
X104168174Y-95551099D01*
G37*
G36*
X95437997Y-98311249D02*
G01*
X95438021Y-98371996D01*
X95438449Y-98956415D01*
X95439357Y-99451925D01*
X95440990Y-99866541D01*
X95443593Y-100208281D01*
X95447411Y-100485162D01*
X95452689Y-100705200D01*
X95459672Y-100876412D01*
X95468606Y-101006815D01*
X95479734Y-101104426D01*
X95493302Y-101177262D01*
X95509555Y-101233339D01*
X95528738Y-101280674D01*
X95666350Y-101497015D01*
X95895770Y-101689306D01*
X96199697Y-101819707D01*
X96355249Y-101849721D01*
X96585329Y-101872215D01*
X96866687Y-101886158D01*
X97180724Y-101891893D01*
X97508841Y-101889766D01*
X97832437Y-101880120D01*
X98132912Y-101863299D01*
X98391667Y-101839649D01*
X98590102Y-101809513D01*
X98709616Y-101773236D01*
X98830984Y-101702235D01*
X99049245Y-101518721D01*
X99215043Y-101278653D01*
X99234193Y-101241792D01*
X99253712Y-101196495D01*
X99270127Y-101141781D01*
X99283760Y-101069627D01*
X99294934Y-100972006D01*
X99303974Y-100840893D01*
X99311203Y-100668264D01*
X99316944Y-100446094D01*
X99321522Y-100166358D01*
X99325258Y-99821030D01*
X99328477Y-99402086D01*
X99331502Y-98901501D01*
X99334658Y-98311249D01*
X99349122Y-95539230D01*
X100030715Y-95539230D01*
X100712308Y-95539230D01*
X100710604Y-98286826D01*
X100710004Y-98809783D01*
X100708222Y-99383941D01*
X100704774Y-99875254D01*
X100699097Y-100291978D01*
X100690633Y-100642371D01*
X100678820Y-100934691D01*
X100663099Y-101177194D01*
X100642908Y-101378138D01*
X100617687Y-101545781D01*
X100586876Y-101688379D01*
X100549915Y-101814191D01*
X100506243Y-101931472D01*
X100455299Y-102048482D01*
X100438319Y-102084648D01*
X100213444Y-102444726D01*
X99918081Y-102737294D01*
X99552515Y-102962173D01*
X99117034Y-103119182D01*
X98611924Y-103208141D01*
X98478874Y-103218994D01*
X98203620Y-103231602D01*
X97877948Y-103237715D01*
X97520367Y-103237791D01*
X97149386Y-103232287D01*
X96783513Y-103221662D01*
X96441257Y-103206374D01*
X96141127Y-103186880D01*
X95901630Y-103163638D01*
X95741277Y-103137107D01*
X95337494Y-103004383D01*
X94958801Y-102796369D01*
X94652490Y-102525635D01*
X94421463Y-102194253D01*
X94416843Y-102185586D01*
X94353829Y-102066414D01*
X94299829Y-101957582D01*
X94254091Y-101850782D01*
X94215863Y-101737703D01*
X94184393Y-101610035D01*
X94158931Y-101459468D01*
X94138724Y-101277692D01*
X94123021Y-101056397D01*
X94111070Y-100787273D01*
X94102119Y-100462010D01*
X94095417Y-100072297D01*
X94090213Y-99609826D01*
X94085753Y-99066285D01*
X94081288Y-98433365D01*
X94061214Y-95539230D01*
X94749069Y-95539230D01*
X95436924Y-95539230D01*
X95437997Y-98311249D01*
G37*
G36*
X94994329Y-72164258D02*
G01*
X95904776Y-72301987D01*
X96792797Y-72528759D01*
X97652033Y-72841399D01*
X98476128Y-73236732D01*
X99258723Y-73711585D01*
X99993461Y-74262782D01*
X100673985Y-74887148D01*
X101293935Y-75581510D01*
X101846956Y-76342692D01*
X102251013Y-77023908D01*
X102651227Y-77868614D01*
X102962276Y-78742693D01*
X103183221Y-79639165D01*
X103313126Y-80551048D01*
X103351053Y-81471360D01*
X103296064Y-82393120D01*
X103147223Y-83309346D01*
X102903593Y-84213058D01*
X102742208Y-84708906D01*
X102227931Y-84677460D01*
X101713040Y-84636923D01*
X101082562Y-84568901D01*
X100413689Y-84480422D01*
X99735291Y-84375656D01*
X99076233Y-84258772D01*
X98465385Y-84133942D01*
X98339985Y-84105921D01*
X96922256Y-83740138D01*
X95557446Y-83295113D01*
X94241176Y-82768576D01*
X92969067Y-82158261D01*
X91736741Y-81461899D01*
X90539820Y-80677221D01*
X89373924Y-79801959D01*
X88234677Y-78833845D01*
X88122828Y-78733183D01*
X87862897Y-78500581D01*
X87660652Y-78323455D01*
X87505451Y-78194264D01*
X87386654Y-78105470D01*
X87293619Y-78049531D01*
X87215704Y-78018910D01*
X87142269Y-78006067D01*
X87062672Y-78003461D01*
X86928531Y-78017442D01*
X86748895Y-78101404D01*
X86635359Y-78254423D01*
X86595770Y-78468679D01*
X86598931Y-78540129D01*
X86614841Y-78625329D01*
X86650315Y-78720464D01*
X86712073Y-78836745D01*
X86806832Y-78985379D01*
X86941313Y-79177577D01*
X87122234Y-79424547D01*
X87356313Y-79737499D01*
X87359629Y-79741909D01*
X87739261Y-80235493D01*
X88106394Y-80687544D01*
X88483199Y-81123731D01*
X88891848Y-81569727D01*
X89354511Y-82051204D01*
X90086425Y-82765684D01*
X91093960Y-83645038D01*
X92134707Y-84435700D01*
X93212625Y-85139627D01*
X94331673Y-85758776D01*
X95495808Y-86295103D01*
X96708989Y-86750567D01*
X97975176Y-87127122D01*
X99298325Y-87426728D01*
X100682397Y-87651340D01*
X100921139Y-87683002D01*
X100633551Y-87975940D01*
X100162410Y-88419054D01*
X99461237Y-88968878D01*
X98699682Y-89454138D01*
X97889782Y-89868854D01*
X97043575Y-90207047D01*
X96173096Y-90462738D01*
X95290385Y-90629949D01*
X94876231Y-90675542D01*
X94015744Y-90705929D01*
X93138831Y-90656239D01*
X92266743Y-90529098D01*
X91420735Y-90327134D01*
X90622057Y-90052973D01*
X90469264Y-89990987D01*
X90185365Y-89871617D01*
X89948870Y-89763383D01*
X89729215Y-89651049D01*
X89495834Y-89519379D01*
X89218163Y-89353138D01*
X88473035Y-88848494D01*
X87752519Y-88247695D01*
X87098727Y-87578909D01*
X86515751Y-86847294D01*
X86007682Y-86058011D01*
X85578613Y-85216221D01*
X85232633Y-84327082D01*
X85075389Y-83803308D01*
X84880644Y-82897896D01*
X84778690Y-81989737D01*
X84766981Y-81084990D01*
X84842969Y-80189817D01*
X85004107Y-79310378D01*
X85247849Y-78452836D01*
X85571646Y-77623350D01*
X85972953Y-76828082D01*
X86449221Y-76073192D01*
X86997905Y-75364842D01*
X87616457Y-74709192D01*
X88302329Y-74112404D01*
X89052975Y-73580638D01*
X89865848Y-73120055D01*
X90318191Y-72905208D01*
X91067587Y-72607171D01*
X91819246Y-72385404D01*
X92599393Y-72232717D01*
X93434255Y-72141921D01*
X94067813Y-72118746D01*
X94994329Y-72164258D01*
G37*
G36*
X92310770Y-96196402D02*
G01*
X92310770Y-96853574D01*
X90027212Y-96868036D01*
X89524555Y-96871405D01*
X89073273Y-96875074D01*
X88702534Y-96879186D01*
X88403476Y-96884123D01*
X88167236Y-96890267D01*
X87984952Y-96897999D01*
X87847762Y-96907703D01*
X87746804Y-96919759D01*
X87673214Y-96934552D01*
X87618132Y-96952461D01*
X87572693Y-96973870D01*
X87351289Y-97119017D01*
X87170265Y-97321639D01*
X87067725Y-97571783D01*
X87035385Y-97883468D01*
X87064443Y-98191551D01*
X87166945Y-98477803D01*
X87344210Y-98702154D01*
X87597116Y-98866139D01*
X87616705Y-98874869D01*
X87677639Y-98897187D01*
X87752121Y-98915064D01*
X87850669Y-98928993D01*
X87983801Y-98939469D01*
X88162035Y-98946988D01*
X88395889Y-98952045D01*
X88695880Y-98955134D01*
X89072527Y-98956750D01*
X89536346Y-98957388D01*
X89687201Y-98957534D01*
X90179654Y-98959215D01*
X90586918Y-98963503D01*
X90918804Y-98971461D01*
X91185123Y-98984148D01*
X91395686Y-99002626D01*
X91560304Y-99027956D01*
X91688788Y-99061198D01*
X91790950Y-99103415D01*
X91876601Y-99155666D01*
X91955551Y-99219013D01*
X92016273Y-99273127D01*
X92088151Y-99344428D01*
X92146031Y-99419804D01*
X92191552Y-99509656D01*
X92226351Y-99624386D01*
X92252066Y-99774395D01*
X92270334Y-99970086D01*
X92282792Y-100221859D01*
X92291078Y-100540117D01*
X92296830Y-100935261D01*
X92301686Y-101417693D01*
X92304274Y-101750921D01*
X92305850Y-102127765D01*
X92305799Y-102465386D01*
X92304191Y-102752091D01*
X92301099Y-102976188D01*
X92296595Y-103125985D01*
X92290751Y-103189791D01*
X92264148Y-103217792D01*
X92197556Y-103237035D01*
X92076961Y-103247365D01*
X91887847Y-103249995D01*
X91615699Y-103246135D01*
X90967501Y-103232499D01*
X90943078Y-101767115D01*
X90918655Y-100301730D01*
X89820563Y-100301730D01*
X88722471Y-100301730D01*
X87849754Y-101779326D01*
X86977037Y-103256922D01*
X86243870Y-103256922D01*
X86071078Y-103256539D01*
X85834998Y-103253463D01*
X85676460Y-103246234D01*
X85582613Y-103233579D01*
X85540603Y-103214222D01*
X85537577Y-103186889D01*
X85559647Y-103144294D01*
X85626542Y-103024216D01*
X85732039Y-102838445D01*
X85870313Y-102597140D01*
X86035541Y-102310461D01*
X86221898Y-101988567D01*
X86423557Y-101641618D01*
X86597734Y-101341827D01*
X86782740Y-101021732D01*
X86945796Y-100737819D01*
X87081422Y-100499716D01*
X87184139Y-100317047D01*
X87248467Y-100199439D01*
X87268928Y-100156517D01*
X87253557Y-100149103D01*
X87169801Y-100114255D01*
X87040820Y-100063126D01*
X86977235Y-100037122D01*
X86597750Y-99823447D01*
X86276148Y-99536525D01*
X86017384Y-99184460D01*
X85826416Y-98775355D01*
X85708200Y-98317312D01*
X85667693Y-97818434D01*
X85678020Y-97577823D01*
X85759806Y-97120031D01*
X85918927Y-96706249D01*
X86150370Y-96345256D01*
X86449123Y-96045834D01*
X86810175Y-95816764D01*
X86921856Y-95763839D01*
X87045519Y-95711710D01*
X87172640Y-95668369D01*
X87312645Y-95633007D01*
X87474955Y-95604813D01*
X87668993Y-95582976D01*
X87904183Y-95566686D01*
X88189947Y-95555133D01*
X88535709Y-95547506D01*
X88950892Y-95542995D01*
X89444919Y-95540789D01*
X90027212Y-95540078D01*
X92310770Y-95539230D01*
X92310770Y-96196402D01*
G37*
G36*
X99950417Y-66662740D02*
G01*
X100105171Y-66740030D01*
X100318753Y-66861670D01*
X100582436Y-67022566D01*
X100887492Y-67217620D01*
X101225193Y-67441739D01*
X101909039Y-67903237D01*
X103414252Y-69774248D01*
X104919465Y-71645259D01*
X106161529Y-72369841D01*
X106257573Y-72425944D01*
X106564254Y-72606134D01*
X106838612Y-72768895D01*
X107070201Y-72907924D01*
X107248578Y-73016919D01*
X107363296Y-73089576D01*
X107403913Y-73119592D01*
X107383201Y-73137042D01*
X107292860Y-73180067D01*
X107155088Y-73233249D01*
X107118953Y-73247808D01*
X106976006Y-73326416D01*
X106813841Y-73438339D01*
X106652867Y-73566554D01*
X106513494Y-73694039D01*
X106416132Y-73803770D01*
X106381189Y-73878725D01*
X106381214Y-73879049D01*
X106419202Y-73931013D01*
X106514600Y-74021959D01*
X106646993Y-74132403D01*
X106681347Y-74159196D01*
X106840531Y-74269186D01*
X106970004Y-74324682D01*
X107101081Y-74339999D01*
X107214786Y-74349803D01*
X107444056Y-74438833D01*
X107644520Y-74618631D01*
X107813883Y-74886763D01*
X107949852Y-75240794D01*
X108005405Y-75412494D01*
X108089487Y-75652248D01*
X108188054Y-75919694D01*
X108289471Y-76182564D01*
X108349702Y-76336630D01*
X108614261Y-77078610D01*
X108816532Y-77777243D01*
X108961435Y-78454742D01*
X109053894Y-79133321D01*
X109098829Y-79835192D01*
X109104665Y-80057792D01*
X109105959Y-80512688D01*
X109088319Y-80909976D01*
X109049247Y-81276750D01*
X108986247Y-81640102D01*
X108896823Y-82027124D01*
X108821888Y-82299031D01*
X108553082Y-83038273D01*
X108204931Y-83724079D01*
X107781142Y-84353369D01*
X107285420Y-84923067D01*
X106721474Y-85430094D01*
X106093007Y-85871373D01*
X105403728Y-86243824D01*
X104657343Y-86544372D01*
X103857557Y-86769936D01*
X103008078Y-86917440D01*
X102803234Y-86940421D01*
X102372855Y-86972755D01*
X101935726Y-86981884D01*
X101474431Y-86967017D01*
X100971549Y-86927363D01*
X100409664Y-86862132D01*
X99771355Y-86770534D01*
X99300751Y-86692118D01*
X97979129Y-86406051D01*
X96690496Y-86028136D01*
X95435707Y-85558755D01*
X94215619Y-84998287D01*
X93031087Y-84347111D01*
X91882968Y-83605609D01*
X90772116Y-82774159D01*
X90686788Y-82704267D01*
X90407951Y-82461872D01*
X90089706Y-82168794D01*
X89748303Y-81841326D01*
X89399996Y-81495762D01*
X89061035Y-81148395D01*
X88747671Y-80815516D01*
X88476157Y-80513420D01*
X88262744Y-80258399D01*
X88049157Y-79981944D01*
X87826287Y-79678883D01*
X87623868Y-79388827D01*
X87448602Y-79122371D01*
X87307193Y-78890110D01*
X87206342Y-78702638D01*
X87152752Y-78570549D01*
X87153126Y-78504438D01*
X87169265Y-78509320D01*
X87246172Y-78564688D01*
X87373841Y-78670649D01*
X87539494Y-78816430D01*
X87730352Y-78991251D01*
X87875931Y-79126851D01*
X88203611Y-79430511D01*
X88480858Y-79684539D01*
X88722096Y-79901847D01*
X88941747Y-80095344D01*
X89154234Y-80277940D01*
X89373980Y-80462548D01*
X89537698Y-80597620D01*
X90708260Y-81497217D01*
X91918468Y-82314947D01*
X93163621Y-83048582D01*
X94439014Y-83695895D01*
X95739947Y-84254659D01*
X97061716Y-84722645D01*
X98399620Y-85097626D01*
X99748956Y-85377375D01*
X100008148Y-85419617D01*
X100666791Y-85508925D01*
X101313166Y-85571834D01*
X101933739Y-85608011D01*
X102514974Y-85617125D01*
X103043337Y-85598845D01*
X103505294Y-85552839D01*
X103887308Y-85478775D01*
X103984996Y-85451216D01*
X104297125Y-85343654D01*
X104637152Y-85203638D01*
X104974421Y-85045252D01*
X105278274Y-84882577D01*
X105518055Y-84729695D01*
X105696142Y-84589905D01*
X105957627Y-84357891D01*
X106223978Y-84097020D01*
X106466784Y-83835427D01*
X106657635Y-83601244D01*
X106960327Y-83139139D01*
X107276488Y-82509540D01*
X107521619Y-81834854D01*
X107692100Y-81130769D01*
X107784311Y-80412971D01*
X107794633Y-79697150D01*
X107719447Y-78998994D01*
X107681889Y-78797845D01*
X107523854Y-78164134D01*
X107315303Y-77603519D01*
X107050556Y-77104755D01*
X106723933Y-76656595D01*
X106329753Y-76247796D01*
X106100206Y-76029908D01*
X105914236Y-75828213D01*
X105798044Y-75660798D01*
X105745878Y-75516655D01*
X105751986Y-75384774D01*
X105810617Y-75254146D01*
X105841272Y-75189569D01*
X105843550Y-75115252D01*
X105810444Y-75007907D01*
X105737186Y-74840672D01*
X105735566Y-74837164D01*
X105656205Y-74685009D01*
X105582608Y-74576665D01*
X105530517Y-74535384D01*
X105526154Y-74535521D01*
X105425496Y-74574789D01*
X105287195Y-74671042D01*
X105132765Y-74805630D01*
X104983720Y-74959906D01*
X104861573Y-75115222D01*
X104780994Y-75229336D01*
X104704860Y-75326623D01*
X104664475Y-75364509D01*
X104660563Y-75360141D01*
X104628512Y-75289654D01*
X104569942Y-75141810D01*
X104489100Y-74927964D01*
X104390235Y-74659470D01*
X104277595Y-74347682D01*
X104155427Y-74003955D01*
X103675175Y-72642142D01*
X102174187Y-70773811D01*
X100673200Y-68905479D01*
X100355227Y-68142451D01*
X100289582Y-67983177D01*
X100152114Y-67636906D01*
X100035327Y-67324744D01*
X99942943Y-67057758D01*
X99878684Y-66847013D01*
X99846273Y-66703578D01*
X99849430Y-66638519D01*
X99863220Y-66634896D01*
X99950417Y-66662740D01*
G37*
G36*
X111605047Y-80543886D02*
G01*
X111605700Y-81663895D01*
X111606149Y-82794806D01*
X111606393Y-83932277D01*
X111606433Y-85071962D01*
X111606267Y-86209519D01*
X111605897Y-87340604D01*
X111605322Y-88460872D01*
X111604542Y-89565981D01*
X111603556Y-90651585D01*
X111602365Y-91713343D01*
X111600968Y-92746908D01*
X111599366Y-93747939D01*
X111597558Y-94712091D01*
X111595544Y-95635020D01*
X111593324Y-96512382D01*
X111590898Y-97339835D01*
X111588265Y-98113033D01*
X111588236Y-98120263D01*
X111585426Y-98827633D01*
X111582380Y-99479291D01*
X111579128Y-100063664D01*
X111575669Y-100576408D01*
X111572003Y-101013178D01*
X111568129Y-101369632D01*
X111564049Y-101641425D01*
X111559761Y-101824213D01*
X111555266Y-101913653D01*
X111492482Y-102320735D01*
X111324272Y-102928758D01*
X111070926Y-103489805D01*
X110730906Y-104007034D01*
X110302673Y-104483601D01*
X110029011Y-104728991D01*
X109525585Y-105087575D01*
X108984012Y-105359475D01*
X108395061Y-105549851D01*
X108388127Y-105551545D01*
X108343294Y-105561810D01*
X108294148Y-105571283D01*
X108236797Y-105579997D01*
X108167351Y-105587984D01*
X108081919Y-105595278D01*
X107976610Y-105601911D01*
X107847534Y-105607918D01*
X107690799Y-105613331D01*
X107502515Y-105618182D01*
X107278791Y-105622506D01*
X107015737Y-105626335D01*
X106709461Y-105629702D01*
X106356074Y-105632641D01*
X105951683Y-105635184D01*
X105492398Y-105637364D01*
X104974329Y-105639215D01*
X104393584Y-105640770D01*
X103746274Y-105642061D01*
X103028506Y-105643122D01*
X102236391Y-105643986D01*
X101366038Y-105644685D01*
X100413555Y-105645254D01*
X99375052Y-105645725D01*
X98246639Y-105646131D01*
X97024424Y-105646505D01*
X96329278Y-105646704D01*
X95160823Y-105647008D01*
X94083976Y-105647220D01*
X93094836Y-105647307D01*
X92189503Y-105647236D01*
X91364075Y-105646976D01*
X90614650Y-105646494D01*
X89937328Y-105645757D01*
X89328208Y-105644735D01*
X88783388Y-105643394D01*
X88298967Y-105641702D01*
X87871043Y-105639627D01*
X87495717Y-105637137D01*
X87169086Y-105634199D01*
X86887250Y-105630781D01*
X86646306Y-105626851D01*
X86442355Y-105622377D01*
X86271495Y-105617327D01*
X86129824Y-105611667D01*
X86013442Y-105605367D01*
X85918447Y-105598393D01*
X85840939Y-105590714D01*
X85777015Y-105582297D01*
X85722775Y-105573110D01*
X85674318Y-105563120D01*
X85627742Y-105552296D01*
X85227811Y-105434548D01*
X84663654Y-105188214D01*
X84145533Y-104864482D01*
X83681327Y-104471428D01*
X83278914Y-104017129D01*
X82946174Y-103509663D01*
X82690984Y-102957108D01*
X82521225Y-102367539D01*
X82518865Y-102355366D01*
X82512087Y-102311230D01*
X82505724Y-102253204D01*
X82499766Y-102178296D01*
X82494197Y-102083512D01*
X82489005Y-101965860D01*
X82484177Y-101822347D01*
X82479701Y-101649979D01*
X82475563Y-101445764D01*
X82471750Y-101206709D01*
X82468250Y-100929820D01*
X82465049Y-100612105D01*
X82462134Y-100250571D01*
X82459493Y-99842226D01*
X82457112Y-99384075D01*
X82454979Y-98873126D01*
X82453080Y-98306386D01*
X82451404Y-97680862D01*
X82449935Y-96993562D01*
X82448662Y-96241491D01*
X82447573Y-95421658D01*
X82446652Y-94531069D01*
X82446522Y-94366922D01*
X83567308Y-94366922D01*
X83568157Y-98091442D01*
X83568164Y-98121294D01*
X83568626Y-98835277D01*
X83569703Y-99458448D01*
X83571513Y-99997423D01*
X83574172Y-100458824D01*
X83577798Y-100849268D01*
X83582509Y-101175374D01*
X83588421Y-101443761D01*
X83595652Y-101661048D01*
X83604319Y-101833855D01*
X83614539Y-101968799D01*
X83626431Y-102072501D01*
X83640110Y-102151578D01*
X83741763Y-102507838D01*
X83955445Y-102968871D01*
X84245380Y-103390084D01*
X84600455Y-103760374D01*
X85009559Y-104068640D01*
X85461579Y-104303782D01*
X85945405Y-104454696D01*
X85991940Y-104460222D01*
X86141089Y-104468395D01*
X86378888Y-104476060D01*
X86699856Y-104483218D01*
X87098512Y-104489871D01*
X87569376Y-104496020D01*
X88106967Y-104501664D01*
X88705804Y-104506807D01*
X89360408Y-104511447D01*
X90065297Y-104515587D01*
X90814990Y-104519227D01*
X91604008Y-104522369D01*
X92426869Y-104525012D01*
X93278093Y-104527159D01*
X94152200Y-104528811D01*
X95043708Y-104529967D01*
X95947137Y-104530630D01*
X96857006Y-104530800D01*
X97767836Y-104530479D01*
X98674144Y-104529666D01*
X99570451Y-104528364D01*
X100451277Y-104526572D01*
X101311139Y-104524293D01*
X102144559Y-104521527D01*
X102946054Y-104518276D01*
X103710145Y-104514539D01*
X104431351Y-104510318D01*
X105104192Y-104505615D01*
X105723186Y-104500429D01*
X106282853Y-104494763D01*
X106777713Y-104488616D01*
X107202284Y-104481991D01*
X107551087Y-104474887D01*
X107818641Y-104467307D01*
X107999465Y-104459250D01*
X108088078Y-104450719D01*
X108270842Y-104405001D01*
X108717282Y-104232071D01*
X109133296Y-103975287D01*
X109530823Y-103627840D01*
X109810670Y-103319566D01*
X110040526Y-102992714D01*
X110210242Y-102645823D01*
X110336200Y-102250886D01*
X110343987Y-102219919D01*
X110360884Y-102146209D01*
X110375492Y-102067223D01*
X110387978Y-101975853D01*
X110398506Y-101864991D01*
X110407244Y-101727526D01*
X110414356Y-101556350D01*
X110420010Y-101344354D01*
X110424371Y-101084429D01*
X110427606Y-100769466D01*
X110429880Y-100392356D01*
X110431360Y-99945989D01*
X110432211Y-99423258D01*
X110432600Y-98817052D01*
X110432693Y-98120263D01*
X110432693Y-94366922D01*
X97000001Y-94366922D01*
X83567308Y-94366922D01*
X82446522Y-94366922D01*
X82445889Y-93566732D01*
X82445696Y-93243461D01*
X83567308Y-93243461D01*
X97000001Y-93243461D01*
X110432693Y-93243461D01*
X110432693Y-80184928D01*
X110432686Y-79049853D01*
X110432646Y-77794055D01*
X110432546Y-76629399D01*
X110432361Y-75552333D01*
X110432066Y-74559308D01*
X110431635Y-73646773D01*
X110431043Y-72811178D01*
X110430265Y-72048972D01*
X110429274Y-71356606D01*
X110428045Y-70730528D01*
X110426553Y-70167189D01*
X110424772Y-69663038D01*
X110422677Y-69214525D01*
X110420242Y-68818099D01*
X110417442Y-68470210D01*
X110414251Y-68167307D01*
X110410644Y-67905841D01*
X110406595Y-67682261D01*
X110402079Y-67493017D01*
X110397070Y-67334558D01*
X110391543Y-67203333D01*
X110385472Y-67095794D01*
X110378832Y-67008388D01*
X110371597Y-66937567D01*
X110363742Y-66879779D01*
X110355241Y-66831474D01*
X110346069Y-66789102D01*
X110336200Y-66749112D01*
X110220719Y-66380785D01*
X110055011Y-66031795D01*
X109830546Y-65705624D01*
X109530823Y-65374101D01*
X109433518Y-65278507D01*
X109208642Y-65078254D01*
X108998036Y-64927264D01*
X108771924Y-64803136D01*
X108766024Y-64800268D01*
X108693539Y-64763874D01*
X108628635Y-64730242D01*
X108567414Y-64699268D01*
X108505977Y-64670848D01*
X108440424Y-64644877D01*
X108366856Y-64621252D01*
X108281375Y-64599868D01*
X108180081Y-64580621D01*
X108059076Y-64563407D01*
X107914459Y-64548121D01*
X107742333Y-64534660D01*
X107538799Y-64522919D01*
X107299956Y-64512795D01*
X107021907Y-64504182D01*
X106700751Y-64496977D01*
X106332591Y-64491075D01*
X105913527Y-64486373D01*
X105439660Y-64482765D01*
X104907091Y-64480149D01*
X104311921Y-64478420D01*
X103650250Y-64477473D01*
X102918181Y-64477204D01*
X102111814Y-64477510D01*
X101227249Y-64478286D01*
X100260589Y-64479427D01*
X99207933Y-64480830D01*
X98065383Y-64482391D01*
X96829039Y-64484005D01*
X86034039Y-64497499D01*
X85643270Y-64630732D01*
X85629493Y-64635467D01*
X85151529Y-64849778D01*
X84718727Y-65140727D01*
X84341135Y-65497191D01*
X84028803Y-65908045D01*
X83791778Y-66362163D01*
X83640110Y-66848421D01*
X83632901Y-66891924D01*
X83626008Y-66956064D01*
X83619614Y-67043290D01*
X83613700Y-67156994D01*
X83608248Y-67300566D01*
X83603239Y-67477398D01*
X83598657Y-67690881D01*
X83594481Y-67944406D01*
X83590694Y-68241365D01*
X83587278Y-68585148D01*
X83584215Y-68979147D01*
X83581485Y-69426752D01*
X83579072Y-69931356D01*
X83576956Y-70496349D01*
X83575120Y-71125123D01*
X83573545Y-71821068D01*
X83572213Y-72587576D01*
X83571106Y-73428038D01*
X83570205Y-74345845D01*
X83569492Y-75344388D01*
X83568949Y-76427059D01*
X83568557Y-77597249D01*
X83568299Y-78858349D01*
X83568157Y-80213749D01*
X83567308Y-93243461D01*
X82445696Y-93243461D01*
X82445269Y-92525653D01*
X82444781Y-91404839D01*
X82444410Y-90201298D01*
X82444144Y-88912037D01*
X82443970Y-87534061D01*
X82443876Y-86064380D01*
X82443847Y-84499999D01*
X82443841Y-83914895D01*
X82443782Y-82380372D01*
X82443692Y-80939395D01*
X82443617Y-79588924D01*
X82443600Y-78325923D01*
X82443686Y-77147355D01*
X82443919Y-76050182D01*
X82444342Y-75031367D01*
X82445000Y-74087873D01*
X82445937Y-73216662D01*
X82447197Y-72414698D01*
X82448825Y-71678942D01*
X82450864Y-71006359D01*
X82453358Y-70393910D01*
X82456352Y-69838558D01*
X82459889Y-69337266D01*
X82464015Y-68886997D01*
X82468772Y-68484713D01*
X82474206Y-68127378D01*
X82480359Y-67811953D01*
X82487277Y-67535402D01*
X82495003Y-67294688D01*
X82503582Y-67086773D01*
X82513057Y-66908619D01*
X82523474Y-66757191D01*
X82534875Y-66629449D01*
X82547305Y-66522358D01*
X82560808Y-66432880D01*
X82575428Y-66357978D01*
X82591210Y-66294613D01*
X82608197Y-66239750D01*
X82626434Y-66190351D01*
X82645964Y-66143378D01*
X82666833Y-66095795D01*
X82689083Y-66044564D01*
X82712759Y-65986647D01*
X82774553Y-65837213D01*
X83009159Y-65383979D01*
X83307961Y-64961594D01*
X83686999Y-64546345D01*
X83734233Y-64500118D01*
X84093800Y-64182418D01*
X84458362Y-63928374D01*
X84858744Y-63718968D01*
X85325770Y-63535180D01*
X85789808Y-63374038D01*
X97000001Y-63374038D01*
X108210193Y-63374038D01*
X108625385Y-63514059D01*
X109151281Y-63719512D01*
X109611313Y-63964523D01*
X110023377Y-64261870D01*
X110411070Y-64626249D01*
X110664653Y-64913096D01*
X111012289Y-65405489D01*
X111272559Y-65928152D01*
X111451271Y-66493731D01*
X111554234Y-67114871D01*
X111558488Y-67200044D01*
X111562798Y-67381013D01*
X111566906Y-67651072D01*
X111570812Y-68005879D01*
X111574515Y-68441090D01*
X111578016Y-68952360D01*
X111581315Y-69535347D01*
X111584410Y-70185705D01*
X111587303Y-70899092D01*
X111589993Y-71671164D01*
X111592480Y-72497576D01*
X111594763Y-73373985D01*
X111596844Y-74296047D01*
X111598720Y-75259419D01*
X111600394Y-76259757D01*
X111601863Y-77292716D01*
X111603128Y-78353953D01*
X111604190Y-79439125D01*
X111604769Y-80184928D01*
X111605047Y-80543886D01*
G37*
G36*
X76937695Y-98930434D02*
G01*
X77008427Y-98970058D01*
X77149794Y-99080903D01*
X77265435Y-99215703D01*
X77343419Y-99361772D01*
X77353756Y-99390336D01*
X77364961Y-99426574D01*
X77374021Y-99466927D01*
X77381165Y-99516449D01*
X77386618Y-99580195D01*
X77390609Y-99663221D01*
X77393366Y-99770581D01*
X77395114Y-99907330D01*
X77396081Y-100078524D01*
X77396495Y-100289217D01*
X77396582Y-100544464D01*
X77396569Y-100638709D01*
X77396328Y-100879174D01*
X77395623Y-101076739D01*
X77394250Y-101236387D01*
X77392006Y-101363102D01*
X77388685Y-101461866D01*
X77384085Y-101537661D01*
X77378000Y-101595471D01*
X77370227Y-101640279D01*
X77360561Y-101677067D01*
X77348799Y-101710819D01*
X77266492Y-101870742D01*
X77144657Y-102015363D01*
X76995231Y-102126593D01*
X76826187Y-102197017D01*
X76807645Y-102201018D01*
X76737675Y-102209345D01*
X76629274Y-102216107D01*
X76480207Y-102221371D01*
X76288244Y-102225203D01*
X76051152Y-102227672D01*
X75766697Y-102228844D01*
X74818942Y-102230518D01*
X74879930Y-102109093D01*
X74916956Y-102018066D01*
X74940918Y-101861046D01*
X74940918Y-101734424D01*
X75810314Y-101734424D01*
X75943349Y-101734386D01*
X76163336Y-101733853D01*
X76341374Y-101732173D01*
X76482496Y-101728703D01*
X76591737Y-101722796D01*
X76674131Y-101713811D01*
X76734713Y-101701101D01*
X76778516Y-101684023D01*
X76810575Y-101661933D01*
X76835924Y-101634187D01*
X76859598Y-101600139D01*
X76866037Y-101588833D01*
X76875221Y-101563881D01*
X76882639Y-101527182D01*
X76888474Y-101474001D01*
X76892908Y-101399607D01*
X76896126Y-101299267D01*
X76898309Y-101168249D01*
X76899642Y-101001820D01*
X76900307Y-100795248D01*
X76900488Y-100543799D01*
X76900427Y-100387198D01*
X76899978Y-100163258D01*
X76898934Y-99981352D01*
X76897112Y-99836749D01*
X76894330Y-99724716D01*
X76890404Y-99640520D01*
X76885151Y-99579429D01*
X76878388Y-99536710D01*
X76869931Y-99507631D01*
X76859598Y-99487459D01*
X76855267Y-99480875D01*
X76833038Y-99449486D01*
X76808641Y-99423714D01*
X76777332Y-99403005D01*
X76734366Y-99386805D01*
X76675000Y-99374561D01*
X76594490Y-99365720D01*
X76488090Y-99359727D01*
X76351058Y-99356030D01*
X76178649Y-99354074D01*
X75966118Y-99353307D01*
X75708723Y-99353174D01*
X75576839Y-99353190D01*
X75355175Y-99353406D01*
X75175659Y-99354069D01*
X75033361Y-99355425D01*
X74923351Y-99357715D01*
X74840702Y-99361184D01*
X74780482Y-99366076D01*
X74737764Y-99372634D01*
X74707617Y-99381101D01*
X74685112Y-99391722D01*
X74665320Y-99404739D01*
X74640911Y-99422418D01*
X74608248Y-99449416D01*
X74582025Y-99479887D01*
X74561536Y-99518958D01*
X74546072Y-99571756D01*
X74534927Y-99643406D01*
X74527393Y-99739034D01*
X74522765Y-99863768D01*
X74520334Y-100022732D01*
X74519394Y-100221053D01*
X74519238Y-100463857D01*
X74519238Y-101328957D01*
X74443867Y-101317895D01*
X74384510Y-101316356D01*
X74276759Y-101334010D01*
X74168612Y-101369865D01*
X74083987Y-101417315D01*
X74023145Y-101465173D01*
X74023144Y-100561387D01*
X74023664Y-100373715D01*
X74025446Y-100168472D01*
X74028346Y-99980134D01*
X74032206Y-99815243D01*
X74036869Y-99680337D01*
X74042180Y-99581959D01*
X74047979Y-99526648D01*
X74106806Y-99337621D01*
X74207647Y-99168000D01*
X74345181Y-99027869D01*
X74514881Y-98923083D01*
X74521047Y-98920248D01*
X74549892Y-98907892D01*
X74580435Y-98897723D01*
X74617467Y-98889527D01*
X74665779Y-98883092D01*
X74730162Y-98878205D01*
X74815408Y-98874654D01*
X74926308Y-98872225D01*
X75067652Y-98870706D01*
X75244233Y-98869885D01*
X75460840Y-98869548D01*
X75722266Y-98869483D01*
X76813672Y-98869483D01*
X76937695Y-98930434D01*
G37*
G36*
X61248730Y-100545549D02*
G01*
X61248730Y-101812339D01*
X60560400Y-101803033D01*
X60457885Y-101801573D01*
X60250637Y-101797615D01*
X60083886Y-101791871D01*
X59951249Y-101783071D01*
X59846342Y-101769947D01*
X59762782Y-101751228D01*
X59694184Y-101725646D01*
X59634166Y-101691931D01*
X59576344Y-101648813D01*
X59514334Y-101595024D01*
X59457631Y-101538984D01*
X59367767Y-101411078D01*
X59317720Y-101264502D01*
X59303419Y-101089502D01*
X59308077Y-101020427D01*
X59846155Y-101020427D01*
X59855334Y-101132544D01*
X59903431Y-101233859D01*
X59988400Y-101312109D01*
X60000512Y-101319215D01*
X60041507Y-101337955D01*
X60091797Y-101350400D01*
X60161454Y-101357779D01*
X60260554Y-101361323D01*
X60399170Y-101362261D01*
X60727832Y-101362354D01*
X60727832Y-100531397D01*
X60727832Y-99700440D01*
X60466586Y-99700440D01*
X60336064Y-99703110D01*
X60209505Y-99715402D01*
X60115416Y-99740097D01*
X60044599Y-99779822D01*
X59987856Y-99837205D01*
X59970517Y-99863176D01*
X59938287Y-99961880D01*
X59940027Y-100071873D01*
X59976400Y-100173702D01*
X59985132Y-100187611D01*
X60047216Y-100253100D01*
X60136367Y-100298750D01*
X60259611Y-100327188D01*
X60423975Y-100341040D01*
X60653418Y-100350150D01*
X60653418Y-100521389D01*
X60653418Y-100692627D01*
X60404383Y-100692627D01*
X60333423Y-100693638D01*
X60184834Y-100706095D01*
X60071306Y-100735203D01*
X59983549Y-100784039D01*
X59912274Y-100855682D01*
X59877939Y-100909773D01*
X59846155Y-101020427D01*
X59308077Y-101020427D01*
X59309068Y-101005723D01*
X59352485Y-100842739D01*
X59437146Y-100706501D01*
X59561311Y-100599355D01*
X59723242Y-100523644D01*
X59765284Y-100509417D01*
X59823076Y-100486086D01*
X59840402Y-100469886D01*
X59822461Y-100457340D01*
X59738378Y-100426507D01*
X59667675Y-100394755D01*
X59614680Y-100360271D01*
X59563051Y-100314026D01*
X59494466Y-100238958D01*
X59439594Y-100147574D01*
X59411731Y-100042101D01*
X59404363Y-99905784D01*
X59406075Y-99829306D01*
X59415566Y-99747896D01*
X59437934Y-99681018D01*
X59478281Y-99608128D01*
X59525037Y-99544980D01*
X59640500Y-99440372D01*
X59782898Y-99357250D01*
X59937899Y-99305063D01*
X59965474Y-99300819D01*
X60048967Y-99293737D01*
X60168413Y-99287668D01*
X60315029Y-99282934D01*
X60480032Y-99279857D01*
X60654639Y-99278760D01*
X61248730Y-99278760D01*
X61248730Y-100531397D01*
X61248730Y-100545549D01*
G37*
G36*
X70124685Y-99887869D02*
G01*
X70221633Y-99891942D01*
X70294827Y-99902370D01*
X70359139Y-99921545D01*
X70429442Y-99951859D01*
X70503145Y-99990209D01*
X70669330Y-100113297D01*
X70799388Y-100270264D01*
X70893074Y-100460764D01*
X70950142Y-100684451D01*
X70951866Y-100695452D01*
X70965793Y-100923506D01*
X70938448Y-101138029D01*
X70872725Y-101334033D01*
X70771518Y-101506527D01*
X70637722Y-101650522D01*
X70474231Y-101761028D01*
X70283939Y-101833054D01*
X70260604Y-101837591D01*
X70178000Y-101845824D01*
X70070375Y-101849958D01*
X69954924Y-101849150D01*
X69843047Y-101841581D01*
X69638480Y-101800811D01*
X69467223Y-101725438D01*
X69326953Y-101614593D01*
X69303044Y-101587691D01*
X69252218Y-101517850D01*
X69204656Y-101438835D01*
X69166826Y-101362977D01*
X69145196Y-101302607D01*
X69146236Y-101270057D01*
X69156609Y-101266341D01*
X69207755Y-101258596D01*
X69290475Y-101250774D01*
X69393081Y-101244105D01*
X69626166Y-101231913D01*
X69713089Y-101326762D01*
X69763945Y-101378176D01*
X69810607Y-101408440D01*
X69869988Y-101423715D01*
X69960531Y-101431832D01*
X70016702Y-101433948D01*
X70138052Y-101422334D01*
X70233808Y-101382216D01*
X70317609Y-101308900D01*
X70326392Y-101298791D01*
X70373541Y-101225084D01*
X70404439Y-101131350D01*
X70421333Y-101008035D01*
X70426465Y-100845585D01*
X70422978Y-100732866D01*
X70399848Y-100574540D01*
X70352829Y-100455895D01*
X70279335Y-100373269D01*
X70176784Y-100323000D01*
X70042593Y-100301426D01*
X69951527Y-100300220D01*
X69877176Y-100312574D01*
X69813753Y-100342918D01*
X69771640Y-100374532D01*
X69693907Y-100473130D01*
X69653910Y-100593409D01*
X69645117Y-100655420D01*
X70010986Y-100662284D01*
X70376855Y-100669149D01*
X70376855Y-100842118D01*
X70376855Y-101015088D01*
X69753487Y-101015088D01*
X69130118Y-101015088D01*
X69142300Y-100760840D01*
X69149379Y-100649144D01*
X69162987Y-100539769D01*
X69184670Y-100450926D01*
X69217518Y-100366412D01*
X69220657Y-100359525D01*
X69322975Y-100194783D01*
X69462263Y-100056170D01*
X69628961Y-99953283D01*
X69674496Y-99933239D01*
X69741701Y-99909968D01*
X69813233Y-99896243D01*
X69904169Y-99889591D01*
X70029590Y-99887537D01*
X70124685Y-99887869D01*
G37*
G36*
X69118913Y-99979492D02*
G01*
X69095379Y-100019915D01*
X69050031Y-100098342D01*
X68989396Y-100203511D01*
X68918436Y-100326815D01*
X68842113Y-100459647D01*
X68612726Y-100859185D01*
X68890471Y-101327811D01*
X68925616Y-101387117D01*
X69004043Y-101519514D01*
X69072362Y-101634927D01*
X69126775Y-101726934D01*
X69163483Y-101789112D01*
X69178688Y-101815039D01*
X69161821Y-101822005D01*
X69104496Y-101828048D01*
X69015759Y-101832138D01*
X68904942Y-101833643D01*
X68620727Y-101833643D01*
X68441508Y-101510132D01*
X68409504Y-101453036D01*
X68349342Y-101349572D01*
X68299161Y-101268352D01*
X68263468Y-101216525D01*
X68246770Y-101201239D01*
X68243462Y-101205434D01*
X68218930Y-101243695D01*
X68176308Y-101314094D01*
X68120506Y-101408441D01*
X68056438Y-101518549D01*
X67881625Y-101821241D01*
X67603752Y-101828254D01*
X67504381Y-101830023D01*
X67411822Y-101830001D01*
X67349017Y-101827993D01*
X67325879Y-101824147D01*
X67328119Y-101818959D01*
X67349902Y-101779151D01*
X67391913Y-101705694D01*
X67450507Y-101604878D01*
X67522039Y-101482989D01*
X67602865Y-101346316D01*
X67637065Y-101288483D01*
X67714596Y-101155742D01*
X67781196Y-101039435D01*
X67833207Y-100946084D01*
X67866972Y-100882208D01*
X67878834Y-100854329D01*
X67877561Y-100849925D01*
X67858229Y-100810040D01*
X67818515Y-100736197D01*
X67762137Y-100635088D01*
X67692810Y-100513407D01*
X67614250Y-100377845D01*
X67588510Y-100333710D01*
X67512704Y-100202863D01*
X67447338Y-100088760D01*
X67396094Y-99997904D01*
X67362649Y-99936797D01*
X67350684Y-99911945D01*
X67368992Y-99907171D01*
X67427760Y-99903755D01*
X67517390Y-99902695D01*
X67627959Y-99904266D01*
X67905234Y-99911280D01*
X68077564Y-100229923D01*
X68249894Y-100548567D01*
X68323234Y-100415958D01*
X68329088Y-100405327D01*
X68378971Y-100312578D01*
X68437788Y-100200539D01*
X68494023Y-100091114D01*
X68591472Y-99898877D01*
X68878899Y-99898877D01*
X69166326Y-99898877D01*
X69118913Y-99979492D01*
G37*
G36*
X62811618Y-99270665D02*
G01*
X63024793Y-99331327D01*
X63215433Y-99429252D01*
X63255465Y-99456992D01*
X63426001Y-99610333D01*
X63558646Y-99795691D01*
X63653396Y-100013059D01*
X63710248Y-100262431D01*
X63729199Y-100543799D01*
X63729104Y-100564896D01*
X63723441Y-100713379D01*
X63710251Y-100849238D01*
X63691237Y-100954066D01*
X63689950Y-100959044D01*
X63606243Y-101194684D01*
X63487712Y-101396904D01*
X63336700Y-101563607D01*
X63155550Y-101692699D01*
X62946604Y-101782083D01*
X62712207Y-101829665D01*
X62539032Y-101838011D01*
X62299934Y-101813765D01*
X62081088Y-101747335D01*
X61886212Y-101639984D01*
X61719027Y-101492971D01*
X61635689Y-101392063D01*
X61535598Y-101222696D01*
X61473901Y-101036184D01*
X61452441Y-100940674D01*
X61716455Y-100941038D01*
X61980469Y-100941402D01*
X62042480Y-101070171D01*
X62101179Y-101166754D01*
X62211917Y-101274352D01*
X62269501Y-101311215D01*
X62330504Y-101336991D01*
X62404915Y-101351043D01*
X62510823Y-101358461D01*
X62634238Y-101358841D01*
X62753554Y-101340919D01*
X62855212Y-101298381D01*
X62955272Y-101226456D01*
X62982865Y-101201038D01*
X63073993Y-101079399D01*
X63142729Y-100924396D01*
X63186439Y-100745860D01*
X63202486Y-100553622D01*
X63188234Y-100357513D01*
X63181641Y-100318662D01*
X63126056Y-100118418D01*
X63040537Y-99957019D01*
X62925540Y-99834972D01*
X62781518Y-99752783D01*
X62608923Y-99710960D01*
X62593422Y-99709399D01*
X62440220Y-99717030D01*
X62296662Y-99762862D01*
X62172139Y-99841157D01*
X62076043Y-99946177D01*
X62017763Y-100072184D01*
X61990959Y-100171729D01*
X61721301Y-100171729D01*
X61451643Y-100171729D01*
X61482753Y-100041504D01*
X61527778Y-99889818D01*
X61616530Y-99704435D01*
X61736970Y-99552368D01*
X61892732Y-99428179D01*
X61938035Y-99400810D01*
X62139115Y-99312338D01*
X62358555Y-99261162D01*
X62586130Y-99247274D01*
X62811618Y-99270665D01*
G37*
G36*
X66735868Y-99412641D02*
G01*
X67001620Y-99564014D01*
X67002519Y-99731446D01*
X67003418Y-99898877D01*
X67127441Y-99898877D01*
X67251465Y-99898877D01*
X67251465Y-100109717D01*
X67251465Y-100320557D01*
X67129440Y-100320557D01*
X67007415Y-100320557D01*
X66999215Y-100897266D01*
X66998973Y-100914232D01*
X66996185Y-101094678D01*
X66993165Y-101233189D01*
X66989195Y-101336856D01*
X66983556Y-101412767D01*
X66975531Y-101468010D01*
X66964401Y-101509675D01*
X66949446Y-101544848D01*
X66929949Y-101580620D01*
X66861139Y-101672644D01*
X66741849Y-101762769D01*
X66582965Y-101826135D01*
X66537135Y-101836363D01*
X66439488Y-101846596D01*
X66333822Y-101846854D01*
X66231632Y-101838331D01*
X66144409Y-101822217D01*
X66083648Y-101799704D01*
X66060840Y-101771985D01*
X66060875Y-101770506D01*
X66066848Y-101728814D01*
X66081082Y-101654979D01*
X66100708Y-101563966D01*
X66140577Y-101387423D01*
X66231570Y-101401974D01*
X66245180Y-101403949D01*
X66320955Y-101401542D01*
X66383938Y-101366873D01*
X66399634Y-101353711D01*
X66416561Y-101334727D01*
X66428909Y-101308321D01*
X66437564Y-101267461D01*
X66443411Y-101205118D01*
X66447336Y-101114262D01*
X66450223Y-100987862D01*
X66452959Y-100818889D01*
X66460606Y-100320557D01*
X66273125Y-100320557D01*
X66085644Y-100320557D01*
X66085644Y-100110804D01*
X66085644Y-99901051D01*
X66265478Y-99893763D01*
X66445312Y-99886475D01*
X66457715Y-99573871D01*
X66470117Y-99261268D01*
X66735868Y-99412641D01*
G37*
G36*
X65787988Y-100541973D02*
G01*
X65787988Y-101808838D01*
X65515137Y-101808838D01*
X65242285Y-101808838D01*
X65242285Y-100751895D01*
X65242285Y-99694952D01*
X64975635Y-99704128D01*
X64819509Y-99714117D01*
X64700151Y-99734661D01*
X64610312Y-99769530D01*
X64540101Y-99822585D01*
X64479625Y-99897685D01*
X64449398Y-99952582D01*
X64429366Y-100029156D01*
X64423730Y-100134522D01*
X64427378Y-100223158D01*
X64444394Y-100303561D01*
X64479625Y-100371358D01*
X64506578Y-100408247D01*
X64577391Y-100477277D01*
X64665925Y-100523423D01*
X64782480Y-100551028D01*
X64937356Y-100564439D01*
X65167871Y-100574521D01*
X65167871Y-100785397D01*
X65167871Y-100996272D01*
X64864014Y-100985175D01*
X64831589Y-100983882D01*
X64637561Y-100969728D01*
X64481518Y-100944142D01*
X64353918Y-100904269D01*
X64245219Y-100847253D01*
X64145879Y-100770238D01*
X64115538Y-100741640D01*
X63992223Y-100586260D01*
X63912146Y-100407390D01*
X63875852Y-100206659D01*
X63883884Y-99985694D01*
X63889991Y-99945299D01*
X63944602Y-99754320D01*
X64038456Y-99593362D01*
X64172625Y-99460969D01*
X64348185Y-99355682D01*
X64379938Y-99341045D01*
X64419955Y-99324742D01*
X64461968Y-99312279D01*
X64512781Y-99303033D01*
X64579192Y-99296376D01*
X64668006Y-99291683D01*
X64786021Y-99288330D01*
X64940041Y-99285689D01*
X65136865Y-99283135D01*
X65787988Y-99275108D01*
X65787988Y-100541973D01*
G37*
G36*
X75362598Y-99985694D02*
G01*
X75362598Y-100295752D01*
X75722266Y-100295752D01*
X76081934Y-100295752D01*
X76081934Y-99985694D01*
X76081934Y-99675635D01*
X76329980Y-99675635D01*
X76578027Y-99675635D01*
X76578027Y-100543799D01*
X76578027Y-101411963D01*
X76329980Y-101411963D01*
X76081934Y-101411963D01*
X76081934Y-101101905D01*
X76081934Y-100791846D01*
X75722266Y-100791846D01*
X75362598Y-100791846D01*
X75362598Y-101101905D01*
X75362598Y-101411963D01*
X75114551Y-101411963D01*
X74866504Y-101411963D01*
X74866504Y-100543799D01*
X74866504Y-99675635D01*
X75114551Y-99675635D01*
X75362598Y-99675635D01*
X75362598Y-99985694D01*
G37*
G36*
X74569235Y-101532306D02*
G01*
X74626496Y-101569218D01*
X74710703Y-101660778D01*
X74757298Y-101769245D01*
X74766301Y-101884745D01*
X74737732Y-101997406D01*
X74671611Y-102097351D01*
X74567958Y-102174707D01*
X74506451Y-102203758D01*
X74426049Y-102225906D01*
X74348890Y-102218424D01*
X74253100Y-102181806D01*
X74193254Y-102149544D01*
X74107736Y-102069730D01*
X74062328Y-101964072D01*
X74054341Y-101827781D01*
X74057564Y-101792526D01*
X74089939Y-101672942D01*
X74157124Y-101584707D01*
X74264194Y-101520387D01*
X74329286Y-101498217D01*
X74449490Y-101491267D01*
X74569235Y-101532306D01*
G37*
G36*
X71647752Y-100048866D02*
G01*
X71654297Y-100843777D01*
X72199220Y-100048866D01*
X72744142Y-99253955D01*
X72986768Y-99253955D01*
X73229394Y-99253955D01*
X73229394Y-100543799D01*
X73229394Y-101833643D01*
X72944484Y-101833643D01*
X72659574Y-101833643D01*
X72653029Y-101041556D01*
X72646484Y-100249469D01*
X72100781Y-101041007D01*
X71555078Y-101832545D01*
X71313232Y-101833094D01*
X71071387Y-101833643D01*
X71071387Y-100543799D01*
X71071387Y-99253955D01*
X71356297Y-99253955D01*
X71641207Y-99253955D01*
X71647752Y-100048866D01*
G37*
%TD*%
M02*
