%TF.GenerationSoftware,KiCad,Pcbnew,9.0.7*%
%TF.CreationDate,2026-04-09T22:02:16-04:00*%
%TF.ProjectId,CUR_ground_station_25-26,4355525f-6772-46f7-956e-645f73746174,rev?*%
%TF.SameCoordinates,Original*%
%TF.FileFunction,Legend,Bot*%
%TF.FilePolarity,Positive*%
%FSLAX46Y46*%
G04 Gerber Fmt 4.6, Leading zero omitted, Abs format (unit mm)*
G04 Created by KiCad (PCBNEW 9.0.7) date 2026-04-09 22:02:16*
%MOMM*%
%LPD*%
G01*
G04 APERTURE LIST*
%ADD10C,0.150000*%
%ADD11C,0.200000*%
%ADD12C,0.120000*%
%ADD13C,0.000000*%
G04 APERTURE END LIST*
D10*
X117669048Y-68123866D02*
X118430953Y-68123866D01*
X118050000Y-68504819D02*
X118050000Y-67742914D01*
D11*
G36*
X113158051Y-53243507D02*
G01*
X113181254Y-53556748D01*
X113375235Y-53591619D01*
X113563860Y-53603032D01*
X113754253Y-53591140D01*
X113917003Y-53557570D01*
X114056313Y-53504623D01*
X114175690Y-53433355D01*
X114277782Y-53343524D01*
X114366347Y-53234851D01*
X114434366Y-53118814D01*
X114483075Y-52994266D01*
X114512812Y-52859636D01*
X114523002Y-52713011D01*
X114512375Y-52561574D01*
X114481167Y-52420522D01*
X114429706Y-52288066D01*
X114357398Y-52162729D01*
X114262761Y-52043420D01*
X114153258Y-51942636D01*
X114029517Y-51864094D01*
X113889526Y-51806774D01*
X113730461Y-51771018D01*
X113548839Y-51758510D01*
X113385029Y-51768195D01*
X113233278Y-51796490D01*
X113281149Y-52110220D01*
X113441680Y-52068704D01*
X113589872Y-52055510D01*
X113726517Y-52067907D01*
X113837675Y-52102521D01*
X113928501Y-52157364D01*
X114002520Y-52233074D01*
X114060748Y-52324877D01*
X114102787Y-52426253D01*
X114128723Y-52538892D01*
X114137709Y-52664896D01*
X114127369Y-52792323D01*
X114097172Y-52908574D01*
X114047433Y-53015734D01*
X113977241Y-53115402D01*
X113890553Y-53197557D01*
X113788836Y-53256465D01*
X113669093Y-53293106D01*
X113526980Y-53306033D01*
X113354939Y-53291229D01*
X113158051Y-53243507D01*
G37*
G36*
X112522409Y-53563954D02*
G01*
X112895368Y-53563954D01*
X112880180Y-53086776D01*
X112874851Y-52551201D01*
X112886408Y-52039470D01*
X112917227Y-51647502D01*
X112522409Y-51625642D01*
X112537368Y-52031043D01*
X112542925Y-52551201D01*
X112537583Y-53088754D01*
X112522409Y-53563954D01*
G37*
G36*
X111875770Y-52228150D02*
G01*
X112047014Y-52250669D01*
X112173019Y-52283266D01*
X112203061Y-52532272D01*
X112004185Y-52491272D01*
X111800061Y-52477561D01*
X111672382Y-52484450D01*
X111589688Y-52501582D01*
X111539087Y-52524822D01*
X111502568Y-52562671D01*
X111477759Y-52624289D01*
X111468012Y-52720094D01*
X111470821Y-52766745D01*
X111700970Y-52781782D01*
X111872565Y-52813285D01*
X111997592Y-52856689D01*
X112086313Y-52908894D01*
X112164633Y-52982366D01*
X112218519Y-53062888D01*
X112250756Y-53152053D01*
X112261802Y-53252544D01*
X112248794Y-53353094D01*
X112211455Y-53436603D01*
X112149084Y-53507167D01*
X112069224Y-53559583D01*
X111975928Y-53591755D01*
X111865640Y-53603032D01*
X111738122Y-53593839D01*
X111630043Y-53567904D01*
X111538140Y-53526835D01*
X111459830Y-53471019D01*
X111442123Y-53471019D01*
X111437072Y-53518423D01*
X111420263Y-53575921D01*
X111097862Y-53563954D01*
X111129406Y-53370360D01*
X111133467Y-53280143D01*
X111462639Y-53280143D01*
X111538308Y-53323965D01*
X111626979Y-53351165D01*
X111731795Y-53360743D01*
X111829076Y-53348439D01*
X111889315Y-53316984D01*
X111924152Y-53268795D01*
X111936714Y-53198322D01*
X111926440Y-53133384D01*
X111896503Y-53079933D01*
X111844474Y-53034901D01*
X111763472Y-52998100D01*
X111643208Y-52972189D01*
X111470821Y-52962139D01*
X111462639Y-53280143D01*
X111133467Y-53280143D01*
X111141582Y-53099892D01*
X111136819Y-52897293D01*
X111131934Y-52687854D01*
X111142104Y-52556637D01*
X111169580Y-52456362D01*
X111211313Y-52380365D01*
X111266512Y-52323688D01*
X111361794Y-52268751D01*
X111486381Y-52232866D01*
X111648386Y-52219641D01*
X111875770Y-52228150D01*
G37*
G36*
X109934534Y-52264093D02*
G01*
X110013791Y-52579166D01*
X110116117Y-52549755D01*
X110218710Y-52540087D01*
X110313601Y-52552186D01*
X110386360Y-52585812D01*
X110442417Y-52640507D01*
X110483836Y-52720461D01*
X110475654Y-53563954D01*
X110839087Y-53563954D01*
X110820963Y-53171085D01*
X110815762Y-52890698D01*
X110823579Y-52674384D01*
X110846563Y-52468999D01*
X110884150Y-52273619D01*
X110535737Y-52235272D01*
X110512534Y-52408929D01*
X110490675Y-52408929D01*
X110420250Y-52323827D01*
X110342272Y-52265903D01*
X110255171Y-52231448D01*
X110155940Y-52219641D01*
X110055456Y-52229948D01*
X109934534Y-52264093D01*
G37*
G36*
X108503515Y-53563954D02*
G01*
X108921536Y-53563954D01*
X108932503Y-53527621D01*
X108987113Y-53429603D01*
X109129265Y-53217984D01*
X109282774Y-53015768D01*
X109359846Y-52938802D01*
X109394391Y-52923060D01*
X109412098Y-52923060D01*
X109395612Y-53563954D01*
X109757702Y-53563954D01*
X109741338Y-52551201D01*
X109752765Y-52047521D01*
X109783714Y-51647502D01*
X109395612Y-51625642D01*
X109410270Y-52125284D01*
X109414785Y-52543263D01*
X109413442Y-52743298D01*
X109394269Y-52743298D01*
X109370042Y-52732207D01*
X109308545Y-52675441D01*
X109177137Y-52522868D01*
X109024724Y-52318708D01*
X108998107Y-52258720D01*
X108590954Y-52258720D01*
X108601028Y-52286659D01*
X108650061Y-52354669D01*
X108776823Y-52494903D01*
X108957617Y-52669976D01*
X109077363Y-52762471D01*
X109077363Y-52783109D01*
X108998098Y-52851797D01*
X108884844Y-52979562D01*
X108726997Y-53190750D01*
X108574108Y-53418893D01*
X108515330Y-53524675D01*
X108503515Y-53563954D01*
G37*
G36*
X107400392Y-53193315D02*
G01*
X107412030Y-53298957D01*
X107444858Y-53385143D01*
X107498177Y-53456274D01*
X107574528Y-53514745D01*
X107679334Y-53560586D01*
X107820314Y-53591473D01*
X108006969Y-53603032D01*
X108220561Y-53590141D01*
X108393606Y-53554672D01*
X108347199Y-53282586D01*
X108175239Y-53329751D01*
X108006969Y-53345112D01*
X107855640Y-53336841D01*
X107779457Y-53318367D01*
X107743299Y-53295720D01*
X107722955Y-53266566D01*
X107715954Y-53228852D01*
X107725834Y-53187918D01*
X107759271Y-53144080D01*
X107827124Y-53094779D01*
X107945542Y-53039076D01*
X108130229Y-52954465D01*
X108237901Y-52883371D01*
X108308739Y-52805550D01*
X108349719Y-52719718D01*
X108363564Y-52622519D01*
X108354772Y-52534514D01*
X108329420Y-52457916D01*
X108287767Y-52390351D01*
X108228375Y-52330283D01*
X108158723Y-52284771D01*
X108072366Y-52250221D01*
X107965797Y-52227774D01*
X107834778Y-52219641D01*
X107606171Y-52231999D01*
X107454980Y-52262994D01*
X107501386Y-52540087D01*
X107605986Y-52505634D01*
X107716757Y-52484688D01*
X107834778Y-52477561D01*
X107947160Y-52487357D01*
X108010665Y-52510792D01*
X108042914Y-52542705D01*
X108053375Y-52584295D01*
X108041806Y-52635979D01*
X108006969Y-52676497D01*
X107947329Y-52710669D01*
X107817070Y-52764547D01*
X107635110Y-52843674D01*
X107528864Y-52913413D01*
X107457212Y-52993459D01*
X107414933Y-53085409D01*
X107400392Y-53193315D01*
G37*
G36*
X106639004Y-52216420D02*
G01*
X106767414Y-52252864D01*
X106886929Y-52313433D01*
X106999345Y-52399892D01*
X107074463Y-52482115D01*
X107133174Y-52575549D01*
X107176146Y-52681796D01*
X107203025Y-52803074D01*
X107212447Y-52942111D01*
X107198982Y-53101160D01*
X107161010Y-53234379D01*
X107100493Y-53346605D01*
X107017053Y-53441344D01*
X106914296Y-53519044D01*
X106803250Y-53573940D01*
X106682116Y-53607245D01*
X106548473Y-53618664D01*
X106408573Y-53606311D01*
X106280348Y-53570081D01*
X106161338Y-53509953D01*
X106049729Y-53424247D01*
X105975119Y-53342551D01*
X105916784Y-53249638D01*
X105874069Y-53143907D01*
X105847342Y-53023133D01*
X105840697Y-52924892D01*
X106194565Y-52924892D01*
X106205404Y-53046459D01*
X106236114Y-53149004D01*
X106285423Y-53236180D01*
X106353415Y-53306459D01*
X106430782Y-53346976D01*
X106521118Y-53360743D01*
X106613556Y-53346127D01*
X106692914Y-53302923D01*
X106762918Y-53227387D01*
X106813370Y-53134404D01*
X106844785Y-53025741D01*
X106855853Y-52897781D01*
X106845014Y-52776214D01*
X106814304Y-52673669D01*
X106764994Y-52586494D01*
X106697003Y-52516214D01*
X106619636Y-52475697D01*
X106529300Y-52461930D01*
X106436862Y-52476546D01*
X106357504Y-52519751D01*
X106287500Y-52595286D01*
X106237048Y-52688269D01*
X106205633Y-52796933D01*
X106194565Y-52924892D01*
X105840697Y-52924892D01*
X105837971Y-52884592D01*
X105851400Y-52724860D01*
X105889272Y-52590977D01*
X105949613Y-52478124D01*
X106032754Y-52382795D01*
X106135256Y-52304359D01*
X106245873Y-52249028D01*
X106366398Y-52215498D01*
X106499258Y-52204009D01*
X106639004Y-52216420D01*
G37*
G36*
X104356882Y-53563954D02*
G01*
X104720315Y-53563954D01*
X104697728Y-53215891D01*
X104690151Y-52862000D01*
X104699368Y-52718071D01*
X104722272Y-52625863D01*
X104753654Y-52570007D01*
X104801122Y-52528690D01*
X104863920Y-52502680D01*
X104946973Y-52493193D01*
X105047400Y-52504697D01*
X105145083Y-52539598D01*
X105242140Y-52600171D01*
X105235301Y-53563954D01*
X105602887Y-53563954D01*
X105583575Y-53158805D01*
X105578218Y-52890698D01*
X105585893Y-52673437D01*
X105608409Y-52468069D01*
X105645141Y-52273619D01*
X105295385Y-52235272D01*
X105272182Y-52378399D01*
X105250322Y-52378399D01*
X105152268Y-52308380D01*
X105048868Y-52259235D01*
X104938715Y-52229680D01*
X104819966Y-52219641D01*
X104682975Y-52231801D01*
X104572552Y-52265586D01*
X104483278Y-52318803D01*
X104432269Y-52372644D01*
X104393008Y-52447361D01*
X104366729Y-52548782D01*
X104356882Y-52684557D01*
X104360301Y-52790559D01*
X104363721Y-52926724D01*
X104356882Y-53563954D01*
G37*
G36*
X101926421Y-51781958D02*
G01*
X101938756Y-52697990D01*
X101950585Y-52911942D01*
X101983225Y-53086598D01*
X102033272Y-53228387D01*
X102098618Y-53342803D01*
X102178602Y-53434187D01*
X102274064Y-53505473D01*
X102387278Y-53557960D01*
X102521753Y-53591202D01*
X102681987Y-53603032D01*
X102831743Y-53593750D01*
X102958742Y-53567647D01*
X103066500Y-53526647D01*
X103157953Y-53471682D01*
X103235319Y-53402631D01*
X103294609Y-53322780D01*
X103344877Y-53217302D01*
X103384640Y-53080333D01*
X103411248Y-52904876D01*
X103421065Y-52682970D01*
X103433400Y-51781958D01*
X103046763Y-51781958D01*
X103060130Y-52238272D01*
X103064471Y-52669536D01*
X103056357Y-52867681D01*
X103035193Y-53011777D01*
X103005045Y-53113478D01*
X102968850Y-53182813D01*
X102915673Y-53242595D01*
X102850615Y-53285357D01*
X102771255Y-53312117D01*
X102673804Y-53321665D01*
X102571008Y-53311934D01*
X102489139Y-53284957D01*
X102423748Y-53242391D01*
X102371920Y-53183545D01*
X102336907Y-53114685D01*
X102307586Y-53012817D01*
X102286925Y-52867557D01*
X102278986Y-52666850D01*
X102283275Y-52244957D01*
X102296694Y-51781958D01*
X101926421Y-51781958D01*
G37*
G36*
X100372793Y-53563954D02*
G01*
X100736226Y-53563954D01*
X100713639Y-53215891D01*
X100706062Y-52862000D01*
X100715279Y-52718071D01*
X100738183Y-52625863D01*
X100769565Y-52570007D01*
X100817033Y-52528690D01*
X100879830Y-52502680D01*
X100962883Y-52493193D01*
X101063311Y-52504697D01*
X101160993Y-52539598D01*
X101258051Y-52600171D01*
X101251212Y-53563954D01*
X101618797Y-53563954D01*
X101599485Y-53158805D01*
X101594129Y-52890698D01*
X101601804Y-52673437D01*
X101624320Y-52468069D01*
X101661052Y-52273619D01*
X101311296Y-52235272D01*
X101288093Y-52378399D01*
X101266233Y-52378399D01*
X101168179Y-52308380D01*
X101064779Y-52259235D01*
X100954626Y-52229680D01*
X100835877Y-52219641D01*
X100698885Y-52231801D01*
X100588463Y-52265586D01*
X100499188Y-52318803D01*
X100448180Y-52372644D01*
X100408919Y-52447361D01*
X100382639Y-52548782D01*
X100372793Y-52684557D01*
X100376212Y-52790559D01*
X100379631Y-52926724D01*
X100372793Y-53563954D01*
G37*
G36*
X99682074Y-53563954D02*
G01*
X100049537Y-53563954D01*
X100035559Y-53269904D01*
X100030486Y-52913291D01*
X100042932Y-52560178D01*
X100076892Y-52274962D01*
X99683417Y-52235272D01*
X99696301Y-52519657D01*
X99701247Y-52913291D01*
X99696250Y-53258819D01*
X99682074Y-53563954D01*
G37*
G36*
X99619181Y-51844972D02*
G01*
X99626279Y-51904913D01*
X99647207Y-51958966D01*
X99682684Y-52008737D01*
X99729240Y-52046965D01*
X99787097Y-52070547D01*
X99859638Y-52078957D01*
X99920683Y-52071741D01*
X99969616Y-52051442D01*
X100009237Y-52018385D01*
X100049545Y-51952088D01*
X100063215Y-51872450D01*
X100056087Y-51812553D01*
X100035139Y-51759010D01*
X99999712Y-51710150D01*
X99953230Y-51672779D01*
X99894968Y-51649582D01*
X99821414Y-51641274D01*
X99759377Y-51648501D01*
X99710537Y-51668666D01*
X99671816Y-51701235D01*
X99632513Y-51766619D01*
X99619181Y-51844972D01*
G37*
G36*
X98192681Y-52258720D02*
G01*
X98205397Y-52320718D01*
X98269639Y-52503326D01*
X98437290Y-52911337D01*
X98604856Y-53319343D01*
X98669067Y-53501953D01*
X98681777Y-53563954D01*
X99054736Y-53563954D01*
X99066520Y-53496285D01*
X99124306Y-53306726D01*
X99271990Y-52895583D01*
X99460125Y-52370210D01*
X99489244Y-52258720D01*
X99090273Y-52258720D01*
X99070098Y-52359628D01*
X98955696Y-52736214D01*
X98842148Y-53113465D01*
X98821118Y-53224578D01*
X98803410Y-53224578D01*
X98783606Y-53121892D01*
X98675061Y-52762959D01*
X98569107Y-52399948D01*
X98546589Y-52258720D01*
X98192681Y-52258720D01*
G37*
G36*
X97543777Y-52233948D02*
G01*
X97675234Y-52274600D01*
X97787527Y-52340163D01*
X97883836Y-52431888D01*
X97961822Y-52542772D01*
X98017089Y-52661990D01*
X98050643Y-52791319D01*
X98062133Y-52933074D01*
X98050104Y-53067961D01*
X98014975Y-53190223D01*
X97956895Y-53302421D01*
X97874310Y-53406417D01*
X97774649Y-53489449D01*
X97654409Y-53550468D01*
X97509367Y-53589191D01*
X97333923Y-53603032D01*
X97148465Y-53594456D01*
X96994259Y-53570679D01*
X96866687Y-53534156D01*
X96839331Y-53266954D01*
X97068019Y-53314454D01*
X97275183Y-53329480D01*
X97394376Y-53317460D01*
X97492152Y-53283624D01*
X97573037Y-53229219D01*
X97638335Y-53156368D01*
X97682100Y-53073364D01*
X97705539Y-52977771D01*
X96825654Y-52962872D01*
X96817472Y-52782132D01*
X96818282Y-52771630D01*
X97137185Y-52771630D01*
X97708225Y-52782376D01*
X97677014Y-52656608D01*
X97630781Y-52568862D01*
X97571568Y-52509922D01*
X97497884Y-52474463D01*
X97404998Y-52461930D01*
X97306725Y-52474863D01*
X97235347Y-52510148D01*
X97183832Y-52567069D01*
X97150019Y-52650878D01*
X97137185Y-52771630D01*
X96818282Y-52771630D01*
X96827022Y-52658287D01*
X96854259Y-52551085D01*
X96897984Y-52457700D01*
X96958278Y-52375956D01*
X97033334Y-52310635D01*
X97127088Y-52262118D01*
X97243658Y-52230926D01*
X97388511Y-52219641D01*
X97543777Y-52233948D01*
G37*
G36*
X95668797Y-52264093D02*
G01*
X95748054Y-52579166D01*
X95850381Y-52549755D01*
X95952974Y-52540087D01*
X96047865Y-52552186D01*
X96120623Y-52585812D01*
X96176680Y-52640507D01*
X96218100Y-52720461D01*
X96209918Y-53563954D01*
X96573351Y-53563954D01*
X96555227Y-53171085D01*
X96550026Y-52890698D01*
X96557843Y-52674384D01*
X96580826Y-52468999D01*
X96618414Y-52273619D01*
X96270001Y-52235272D01*
X96246798Y-52408929D01*
X96224938Y-52408929D01*
X96154513Y-52323827D01*
X96076536Y-52265903D01*
X95989434Y-52231448D01*
X95890204Y-52219641D01*
X95789720Y-52229948D01*
X95668797Y-52264093D01*
G37*
G36*
X94562988Y-53193315D02*
G01*
X94574626Y-53298957D01*
X94607454Y-53385143D01*
X94660772Y-53456274D01*
X94737124Y-53514745D01*
X94841930Y-53560586D01*
X94982910Y-53591473D01*
X95169565Y-53603032D01*
X95383157Y-53590141D01*
X95556202Y-53554672D01*
X95509795Y-53282586D01*
X95337835Y-53329751D01*
X95169565Y-53345112D01*
X95018236Y-53336841D01*
X94942053Y-53318367D01*
X94905895Y-53295720D01*
X94885551Y-53266566D01*
X94878550Y-53228852D01*
X94888430Y-53187918D01*
X94921867Y-53144080D01*
X94989720Y-53094779D01*
X95108138Y-53039076D01*
X95292825Y-52954465D01*
X95400497Y-52883371D01*
X95471335Y-52805550D01*
X95512315Y-52719718D01*
X95526160Y-52622519D01*
X95517368Y-52534514D01*
X95492016Y-52457916D01*
X95450363Y-52390351D01*
X95390971Y-52330283D01*
X95321319Y-52284771D01*
X95234962Y-52250221D01*
X95128393Y-52227774D01*
X94997374Y-52219641D01*
X94768767Y-52231999D01*
X94617576Y-52262994D01*
X94663982Y-52540087D01*
X94768582Y-52505634D01*
X94879353Y-52484688D01*
X94997374Y-52477561D01*
X95109756Y-52487357D01*
X95173261Y-52510792D01*
X95205510Y-52542705D01*
X95215971Y-52584295D01*
X95204402Y-52635979D01*
X95169565Y-52676497D01*
X95109925Y-52710669D01*
X94979666Y-52764547D01*
X94797706Y-52843674D01*
X94691460Y-52913413D01*
X94619808Y-52993459D01*
X94577528Y-53085409D01*
X94562988Y-53193315D01*
G37*
G36*
X93929666Y-53563954D02*
G01*
X94297130Y-53563954D01*
X94283151Y-53269904D01*
X94278079Y-52913291D01*
X94290525Y-52560178D01*
X94324485Y-52274962D01*
X93931010Y-52235272D01*
X93943893Y-52519657D01*
X93948839Y-52913291D01*
X93943843Y-53258819D01*
X93929666Y-53563954D01*
G37*
G36*
X93866774Y-51844972D02*
G01*
X93873871Y-51904913D01*
X93894799Y-51958966D01*
X93930277Y-52008737D01*
X93976832Y-52046965D01*
X94034689Y-52070547D01*
X94107231Y-52078957D01*
X94168276Y-52071741D01*
X94217208Y-52051442D01*
X94256830Y-52018385D01*
X94297137Y-51952088D01*
X94310807Y-51872450D01*
X94303680Y-51812553D01*
X94282731Y-51759010D01*
X94247304Y-51710150D01*
X94200822Y-51672779D01*
X94142560Y-51649582D01*
X94069007Y-51641274D01*
X94006969Y-51648501D01*
X93958130Y-51668666D01*
X93919408Y-51701235D01*
X93880105Y-51766619D01*
X93866774Y-51844972D01*
G37*
G36*
X93491006Y-51899805D02*
G01*
X93501875Y-52282167D01*
X93697269Y-52273985D01*
X93706795Y-52548270D01*
X93518239Y-52540087D01*
X93520926Y-53009278D01*
X93511537Y-53190024D01*
X93487049Y-53320562D01*
X93451931Y-53412258D01*
X93408941Y-53474561D01*
X93349398Y-53525185D01*
X93276102Y-53562638D01*
X93186115Y-53586592D01*
X93075549Y-53595217D01*
X92937815Y-53584180D01*
X92835092Y-53554672D01*
X92811889Y-53313849D01*
X92897003Y-53331689D01*
X92973089Y-53337296D01*
X93051324Y-53326955D01*
X93107199Y-53298910D01*
X93146624Y-53253887D01*
X93170325Y-53194417D01*
X93188416Y-53091124D01*
X93195839Y-52924892D01*
X93193030Y-52540087D01*
X92855608Y-52548270D01*
X92844617Y-52271298D01*
X93187657Y-52282167D01*
X93167140Y-51860115D01*
X93491006Y-51899805D01*
G37*
G36*
X91437046Y-52258720D02*
G01*
X91448429Y-52324182D01*
X91501470Y-52488237D01*
X91632440Y-52822799D01*
X91829187Y-53327865D01*
X91907091Y-53567495D01*
X91961697Y-53742712D01*
X92020562Y-53874618D01*
X92082273Y-53971370D01*
X92146205Y-54039861D01*
X92221135Y-54091471D01*
X92315496Y-54130768D01*
X92433571Y-54156424D01*
X92580591Y-54165768D01*
X92607946Y-53907847D01*
X92498798Y-53896277D01*
X92407155Y-53863313D01*
X92329265Y-53809540D01*
X92269171Y-53737759D01*
X92232754Y-53651684D01*
X92219966Y-53546979D01*
X92236813Y-53435214D01*
X92306826Y-53216766D01*
X92465919Y-52834400D01*
X92684015Y-52335272D01*
X92711749Y-52258720D01*
X92289576Y-52258720D01*
X92272041Y-52346642D01*
X92165256Y-52722903D01*
X92061684Y-53102189D01*
X92040936Y-53232150D01*
X92021885Y-53232150D01*
X92003494Y-53117428D01*
X91909167Y-52763325D01*
X91816680Y-52405464D01*
X91796449Y-52258720D01*
X91437046Y-52258720D01*
G37*
G36*
X114023647Y-55146110D02*
G01*
X114195106Y-55150140D01*
X114431411Y-55150140D01*
X114418513Y-55518854D01*
X114413703Y-55996197D01*
X114418380Y-56499203D01*
X114431411Y-56923954D01*
X114051613Y-56923954D01*
X114063948Y-56214062D01*
X113912273Y-56212718D01*
X113818710Y-56220868D01*
X113744459Y-56243348D01*
X113685519Y-56278458D01*
X113639087Y-56326291D01*
X113589167Y-56412094D01*
X113511592Y-56593925D01*
X113395821Y-56923954D01*
X112991355Y-56923954D01*
X113164599Y-56491984D01*
X113271502Y-56276221D01*
X113349815Y-56167805D01*
X113429960Y-56098869D01*
X113513302Y-56061166D01*
X113513302Y-56040771D01*
X113397520Y-55987007D01*
X113308468Y-55923990D01*
X113241760Y-55852062D01*
X113194493Y-55770372D01*
X113165480Y-55676949D01*
X113164853Y-55670255D01*
X113503777Y-55670255D01*
X113515158Y-55759555D01*
X113547129Y-55829937D01*
X113599652Y-55886027D01*
X113676855Y-55929587D01*
X113786333Y-55959179D01*
X113938285Y-55970429D01*
X114065291Y-55967743D01*
X114069491Y-55645712D01*
X114080312Y-55418929D01*
X113978193Y-55404960D01*
X113853532Y-55399878D01*
X113733906Y-55409521D01*
X113646629Y-55435096D01*
X113583992Y-55473297D01*
X113540485Y-55523446D01*
X113513497Y-55587620D01*
X113503777Y-55670255D01*
X113164853Y-55670255D01*
X113155364Y-55568894D01*
X113167448Y-55458592D01*
X113201510Y-55368682D01*
X113256774Y-55294562D01*
X113335809Y-55233709D01*
X113444169Y-55186050D01*
X113589791Y-55153961D01*
X113782458Y-55141958D01*
X114023647Y-55146110D01*
G37*
G36*
X112293714Y-55576420D02*
G01*
X112422125Y-55612864D01*
X112541639Y-55673433D01*
X112654056Y-55759892D01*
X112729173Y-55842115D01*
X112787884Y-55935549D01*
X112830857Y-56041796D01*
X112857736Y-56163074D01*
X112867158Y-56302111D01*
X112853692Y-56461160D01*
X112815720Y-56594379D01*
X112755203Y-56706605D01*
X112671763Y-56801344D01*
X112569006Y-56879044D01*
X112457960Y-56933940D01*
X112336826Y-56967245D01*
X112203183Y-56978664D01*
X112063284Y-56966311D01*
X111935059Y-56930081D01*
X111816049Y-56869953D01*
X111704439Y-56784247D01*
X111629830Y-56702551D01*
X111571494Y-56609638D01*
X111528780Y-56503907D01*
X111502053Y-56383133D01*
X111495407Y-56284892D01*
X111849276Y-56284892D01*
X111860114Y-56406459D01*
X111890824Y-56509004D01*
X111940134Y-56596180D01*
X112008125Y-56666459D01*
X112085492Y-56706976D01*
X112175828Y-56720743D01*
X112268266Y-56706127D01*
X112347624Y-56662923D01*
X112417629Y-56587387D01*
X112468080Y-56494404D01*
X112499495Y-56385741D01*
X112510563Y-56257781D01*
X112499725Y-56136214D01*
X112469014Y-56033669D01*
X112419705Y-55946494D01*
X112351713Y-55876214D01*
X112274346Y-55835697D01*
X112184010Y-55821930D01*
X112091572Y-55836546D01*
X112012214Y-55879751D01*
X111942210Y-55955286D01*
X111891759Y-56048269D01*
X111860343Y-56156933D01*
X111849276Y-56284892D01*
X111495407Y-56284892D01*
X111492681Y-56244592D01*
X111506110Y-56084860D01*
X111543982Y-55950977D01*
X111604324Y-55838124D01*
X111687465Y-55742795D01*
X111789966Y-55664359D01*
X111900583Y-55609028D01*
X112021109Y-55575498D01*
X112153968Y-55564009D01*
X112293714Y-55576420D01*
G37*
G36*
X110212360Y-56634770D02*
G01*
X110235563Y-56897087D01*
X110321135Y-56931621D01*
X110431674Y-56954560D01*
X110573107Y-56963032D01*
X110748520Y-56949212D01*
X110893822Y-56910517D01*
X111014539Y-56849495D01*
X111114837Y-56766417D01*
X111198107Y-56662331D01*
X111256587Y-56550238D01*
X111291916Y-56428291D01*
X111304003Y-56293929D01*
X111291481Y-56154301D01*
X111254681Y-56025855D01*
X111193450Y-55906139D01*
X111105922Y-55793353D01*
X111000286Y-55701604D01*
X110877182Y-55635432D01*
X110733163Y-55594181D01*
X110563459Y-55579641D01*
X110400690Y-55589838D01*
X110264262Y-55618353D01*
X110310668Y-55900087D01*
X110441730Y-55859487D01*
X110592158Y-55845377D01*
X110696891Y-55858930D01*
X110782346Y-55897567D01*
X110853131Y-55961759D01*
X110905557Y-56043870D01*
X110937587Y-56138326D01*
X110948752Y-56248378D01*
X110935692Y-56367487D01*
X110897946Y-56470674D01*
X110835423Y-56561497D01*
X110774628Y-56616205D01*
X110702502Y-56655824D01*
X110616766Y-56680669D01*
X110514244Y-56689480D01*
X110386747Y-56677348D01*
X110212360Y-56634770D01*
G37*
G36*
X108745804Y-56923954D02*
G01*
X109163825Y-56923954D01*
X109174792Y-56887621D01*
X109229402Y-56789603D01*
X109371554Y-56577984D01*
X109525063Y-56375768D01*
X109602135Y-56298802D01*
X109636680Y-56283060D01*
X109654387Y-56283060D01*
X109637901Y-56923954D01*
X109999991Y-56923954D01*
X109983627Y-55911201D01*
X109995054Y-55407521D01*
X110026003Y-55007502D01*
X109637901Y-54985642D01*
X109652558Y-55485284D01*
X109657074Y-55903263D01*
X109655730Y-56103298D01*
X109636557Y-56103298D01*
X109612331Y-56092207D01*
X109550834Y-56035441D01*
X109419426Y-55882868D01*
X109267013Y-55678708D01*
X109240396Y-55618720D01*
X108833243Y-55618720D01*
X108843317Y-55646659D01*
X108892350Y-55714669D01*
X109019112Y-55854903D01*
X109199906Y-56029976D01*
X109319652Y-56122471D01*
X109319652Y-56143109D01*
X109240387Y-56211797D01*
X109127133Y-56339562D01*
X108969286Y-56550750D01*
X108816397Y-56778893D01*
X108757619Y-56884675D01*
X108745804Y-56923954D01*
G37*
G36*
X108110700Y-55593948D02*
G01*
X108242157Y-55634600D01*
X108354450Y-55700163D01*
X108450758Y-55791888D01*
X108528745Y-55902772D01*
X108584011Y-56021990D01*
X108617566Y-56151319D01*
X108629056Y-56293074D01*
X108617026Y-56427961D01*
X108581897Y-56550223D01*
X108523818Y-56662421D01*
X108441233Y-56766417D01*
X108341572Y-56849449D01*
X108221331Y-56910468D01*
X108076290Y-56949191D01*
X107900846Y-56963032D01*
X107715388Y-56954456D01*
X107561182Y-56930679D01*
X107433609Y-56894156D01*
X107406254Y-56626954D01*
X107634942Y-56674454D01*
X107842105Y-56689480D01*
X107961298Y-56677460D01*
X108059074Y-56643624D01*
X108139959Y-56589219D01*
X108205257Y-56516368D01*
X108249023Y-56433364D01*
X108272461Y-56337771D01*
X107392576Y-56322872D01*
X107384394Y-56142132D01*
X107385204Y-56131630D01*
X107704108Y-56131630D01*
X108275148Y-56142376D01*
X108243937Y-56016608D01*
X108197704Y-55928862D01*
X108138491Y-55869922D01*
X108064807Y-55834463D01*
X107971920Y-55821930D01*
X107873648Y-55834863D01*
X107802270Y-55870148D01*
X107750754Y-55927069D01*
X107716942Y-56010878D01*
X107704108Y-56131630D01*
X107385204Y-56131630D01*
X107393944Y-56018287D01*
X107421181Y-55911085D01*
X107464907Y-55817700D01*
X107525200Y-55735956D01*
X107600257Y-55670635D01*
X107694011Y-55622118D01*
X107810581Y-55590926D01*
X107955434Y-55579641D01*
X108110700Y-55593948D01*
G37*
G36*
X107006428Y-55259805D02*
G01*
X107017297Y-55642167D01*
X107212691Y-55633985D01*
X107222217Y-55908270D01*
X107033661Y-55900087D01*
X107036348Y-56369278D01*
X107026959Y-56550024D01*
X107002471Y-56680562D01*
X106967354Y-56772258D01*
X106924363Y-56834561D01*
X106864821Y-56885185D01*
X106791525Y-56922638D01*
X106701538Y-56946592D01*
X106590971Y-56955217D01*
X106453237Y-56944180D01*
X106350514Y-56914672D01*
X106327311Y-56673849D01*
X106412425Y-56691689D01*
X106488511Y-56697296D01*
X106566746Y-56686955D01*
X106622621Y-56658910D01*
X106662046Y-56613887D01*
X106685747Y-56554417D01*
X106703838Y-56451124D01*
X106711261Y-56284892D01*
X106708452Y-55900087D01*
X106371031Y-55908270D01*
X106360040Y-55631298D01*
X106703079Y-55642167D01*
X106682562Y-55220115D01*
X107006428Y-55259805D01*
G37*
G36*
X105221624Y-55624093D02*
G01*
X105300881Y-55939166D01*
X105403207Y-55909755D01*
X105505800Y-55900087D01*
X105600691Y-55912186D01*
X105673450Y-55945812D01*
X105729507Y-56000507D01*
X105770926Y-56080461D01*
X105762744Y-56923954D01*
X106126177Y-56923954D01*
X106108053Y-56531085D01*
X106102852Y-56250698D01*
X106110669Y-56034384D01*
X106133653Y-55828999D01*
X106171240Y-55633619D01*
X105822827Y-55595272D01*
X105799624Y-55768929D01*
X105777765Y-55768929D01*
X105707340Y-55683827D01*
X105629363Y-55625903D01*
X105542261Y-55591448D01*
X105443030Y-55579641D01*
X105342546Y-55589948D01*
X105221624Y-55624093D01*
G37*
G36*
X103873892Y-55618720D02*
G01*
X103885274Y-55684182D01*
X103938316Y-55848237D01*
X104069286Y-56182799D01*
X104266032Y-56687865D01*
X104343937Y-56927495D01*
X104398542Y-57102712D01*
X104457407Y-57234618D01*
X104519118Y-57331370D01*
X104583051Y-57399861D01*
X104657981Y-57451471D01*
X104752341Y-57490768D01*
X104870417Y-57516424D01*
X105017437Y-57525768D01*
X105044792Y-57267847D01*
X104935644Y-57256277D01*
X104844001Y-57223313D01*
X104766111Y-57169540D01*
X104706017Y-57097759D01*
X104669600Y-57011684D01*
X104656812Y-56906979D01*
X104673659Y-56795214D01*
X104743672Y-56576766D01*
X104902765Y-56194400D01*
X105120861Y-55695272D01*
X105148595Y-55618720D01*
X104726421Y-55618720D01*
X104708887Y-55706642D01*
X104602102Y-56082903D01*
X104498530Y-56462189D01*
X104477782Y-56592150D01*
X104458731Y-56592150D01*
X104440339Y-56477428D01*
X104346013Y-56123325D01*
X104253526Y-55765464D01*
X104233295Y-55618720D01*
X103873892Y-55618720D01*
G37*
G36*
X101779631Y-55141958D02*
G01*
X101789157Y-55443842D01*
X102058863Y-55428287D01*
X102304387Y-55423325D01*
X102307074Y-55996563D01*
X102303178Y-56480274D01*
X102291931Y-56923954D01*
X102674537Y-56923954D01*
X102661405Y-56483311D01*
X102656830Y-55996563D01*
X102662325Y-55423325D01*
X102873001Y-55428073D01*
X103190989Y-55445185D01*
X103179998Y-55141958D01*
X101779631Y-55141958D01*
G37*
G36*
X101303163Y-55593948D02*
G01*
X101434620Y-55634600D01*
X101546913Y-55700163D01*
X101643222Y-55791888D01*
X101721208Y-55902772D01*
X101776474Y-56021990D01*
X101810029Y-56151319D01*
X101821519Y-56293074D01*
X101809490Y-56427961D01*
X101774361Y-56550223D01*
X101716281Y-56662421D01*
X101633696Y-56766417D01*
X101534035Y-56849449D01*
X101413795Y-56910468D01*
X101268753Y-56949191D01*
X101093309Y-56963032D01*
X100907851Y-56954456D01*
X100753645Y-56930679D01*
X100626072Y-56894156D01*
X100598717Y-56626954D01*
X100827405Y-56674454D01*
X101034569Y-56689480D01*
X101153762Y-56677460D01*
X101251538Y-56643624D01*
X101332423Y-56589219D01*
X101397721Y-56516368D01*
X101441486Y-56433364D01*
X101464924Y-56337771D01*
X100585040Y-56322872D01*
X100576858Y-56142132D01*
X100577668Y-56131630D01*
X100896571Y-56131630D01*
X101467611Y-56142376D01*
X101436400Y-56016608D01*
X101390167Y-55928862D01*
X101330954Y-55869922D01*
X101257270Y-55834463D01*
X101164384Y-55821930D01*
X101066111Y-55834863D01*
X100994733Y-55870148D01*
X100943218Y-55927069D01*
X100909405Y-56010878D01*
X100896571Y-56131630D01*
X100577668Y-56131630D01*
X100586408Y-56018287D01*
X100613645Y-55911085D01*
X100657370Y-55817700D01*
X100717664Y-55735956D01*
X100792720Y-55670635D01*
X100886474Y-55622118D01*
X101003044Y-55590926D01*
X101147897Y-55579641D01*
X101303163Y-55593948D01*
G37*
G36*
X99995798Y-55588150D02*
G01*
X100167042Y-55610669D01*
X100293047Y-55643266D01*
X100323089Y-55892272D01*
X100124212Y-55851272D01*
X99920088Y-55837561D01*
X99792409Y-55844450D01*
X99709716Y-55861582D01*
X99659115Y-55884822D01*
X99622596Y-55922671D01*
X99597787Y-55984289D01*
X99588040Y-56080094D01*
X99590849Y-56126745D01*
X99820998Y-56141782D01*
X99992593Y-56173285D01*
X100117620Y-56216689D01*
X100206341Y-56268894D01*
X100284661Y-56342366D01*
X100338547Y-56422888D01*
X100370784Y-56512053D01*
X100381830Y-56612544D01*
X100368822Y-56713094D01*
X100331483Y-56796603D01*
X100269112Y-56867167D01*
X100189252Y-56919583D01*
X100095956Y-56951755D01*
X99985668Y-56963032D01*
X99858150Y-56953839D01*
X99750071Y-56927904D01*
X99658167Y-56886835D01*
X99579858Y-56831019D01*
X99562151Y-56831019D01*
X99557100Y-56878423D01*
X99540291Y-56935921D01*
X99217890Y-56923954D01*
X99249434Y-56730360D01*
X99253495Y-56640143D01*
X99582667Y-56640143D01*
X99658336Y-56683965D01*
X99747007Y-56711165D01*
X99851823Y-56720743D01*
X99949104Y-56708439D01*
X100009343Y-56676984D01*
X100044180Y-56628795D01*
X100056742Y-56558322D01*
X100046468Y-56493384D01*
X100016531Y-56439933D01*
X99964502Y-56394901D01*
X99883500Y-56358100D01*
X99763236Y-56332189D01*
X99590849Y-56322139D01*
X99582667Y-56640143D01*
X99253495Y-56640143D01*
X99261610Y-56459892D01*
X99256847Y-56257293D01*
X99251962Y-56047854D01*
X99262132Y-55916637D01*
X99289607Y-55816362D01*
X99331341Y-55740365D01*
X99386540Y-55683688D01*
X99481821Y-55628751D01*
X99606408Y-55592866D01*
X99768414Y-55579641D01*
X99995798Y-55588150D01*
G37*
G36*
X96931533Y-56923954D02*
G01*
X97293623Y-56923954D01*
X97271990Y-56579315D01*
X97264924Y-56249355D01*
X97274457Y-56084087D01*
X97297497Y-55984270D01*
X97327817Y-55928664D01*
X97374928Y-55888545D01*
X97439849Y-55862761D01*
X97528585Y-55853193D01*
X97600240Y-55861352D01*
X97677473Y-55887177D01*
X97762203Y-55933793D01*
X97767698Y-56241050D01*
X97759516Y-56923954D01*
X98125636Y-56923954D01*
X98102991Y-56550667D01*
X98095594Y-56193179D01*
X98102790Y-56070393D01*
X98121135Y-55986501D01*
X98146885Y-55931351D01*
X98188004Y-55891157D01*
X98255008Y-55863898D01*
X98359255Y-55853193D01*
X98454407Y-55864635D01*
X98535754Y-55897698D01*
X98606550Y-55952844D01*
X98599712Y-56923954D01*
X98967297Y-56923954D01*
X98947997Y-56519815D01*
X98942629Y-56250698D01*
X98950193Y-56038025D01*
X98972603Y-55832557D01*
X99009551Y-55633619D01*
X98659795Y-55595272D01*
X98636592Y-55738399D01*
X98614733Y-55738399D01*
X98521136Y-55667693D01*
X98424158Y-55618654D01*
X98322498Y-55589475D01*
X98214419Y-55579641D01*
X98075158Y-55591366D01*
X97967639Y-55623285D01*
X97885012Y-55672385D01*
X97822409Y-55738399D01*
X97800549Y-55738399D01*
X97693922Y-55665559D01*
X97592617Y-55616703D01*
X97495244Y-55588726D01*
X97400235Y-55579641D01*
X97248316Y-55592565D01*
X97134406Y-55627309D01*
X97049747Y-55680147D01*
X97002305Y-55733992D01*
X96965516Y-55808539D01*
X96940800Y-55909585D01*
X96931533Y-56044557D01*
X96934342Y-56143720D01*
X96937028Y-56242882D01*
X96931533Y-56923954D01*
G37*
G36*
X113024206Y-60239013D02*
G01*
X113243726Y-60288479D01*
X113422941Y-60315042D01*
X113567890Y-60323032D01*
X113759157Y-60311149D01*
X113922089Y-60277660D01*
X114061020Y-60224941D01*
X114179567Y-60154115D01*
X114280469Y-60064990D01*
X114368041Y-59956937D01*
X114435317Y-59841587D01*
X114483503Y-59717801D01*
X114512921Y-59584030D01*
X114523002Y-59438385D01*
X114512214Y-59285975D01*
X114480533Y-59144066D01*
X114428278Y-59010829D01*
X114354819Y-58884762D01*
X114258609Y-58764763D01*
X114147656Y-58663956D01*
X114021453Y-58585099D01*
X113877818Y-58527338D01*
X113713736Y-58491187D01*
X113525514Y-58478510D01*
X113312342Y-58488754D01*
X113137534Y-58516979D01*
X113182597Y-58830220D01*
X113392777Y-58788268D01*
X113567890Y-58775510D01*
X113710412Y-58788008D01*
X113826410Y-58822868D01*
X113921160Y-58877929D01*
X113998368Y-58953563D01*
X114059659Y-59045961D01*
X114103790Y-59148032D01*
X114130978Y-59261532D01*
X114140396Y-59388681D01*
X114130148Y-59517606D01*
X114100196Y-59635620D01*
X114050853Y-59744735D01*
X113981271Y-59846515D01*
X113894883Y-59931286D01*
X113794901Y-59991501D01*
X113678625Y-60028640D01*
X113542001Y-60041665D01*
X113461347Y-60037848D01*
X113361627Y-60025178D01*
X113377070Y-59873541D01*
X113382144Y-59726225D01*
X113388879Y-59574011D01*
X113410842Y-59392956D01*
X113024206Y-59392956D01*
X113035075Y-59820136D01*
X113024206Y-60239013D01*
G37*
G36*
X111835720Y-58984093D02*
G01*
X111914977Y-59299166D01*
X112017304Y-59269755D01*
X112119897Y-59260087D01*
X112214788Y-59272186D01*
X112287546Y-59305812D01*
X112343603Y-59360507D01*
X112385022Y-59440461D01*
X112376840Y-60283954D01*
X112740273Y-60283954D01*
X112722149Y-59891085D01*
X112716948Y-59610698D01*
X112724766Y-59394384D01*
X112747749Y-59188999D01*
X112785336Y-58993619D01*
X112436924Y-58955272D01*
X112413721Y-59128929D01*
X112391861Y-59128929D01*
X112321436Y-59043827D01*
X112243459Y-58985903D01*
X112156357Y-58951448D01*
X112057126Y-58939641D01*
X111956642Y-58949948D01*
X111835720Y-58984093D01*
G37*
G36*
X111142842Y-58936420D02*
G01*
X111271252Y-58972864D01*
X111390767Y-59033433D01*
X111503183Y-59119892D01*
X111578301Y-59202115D01*
X111637012Y-59295549D01*
X111679985Y-59401796D01*
X111706863Y-59523074D01*
X111716285Y-59662111D01*
X111702820Y-59821160D01*
X111664848Y-59954379D01*
X111604331Y-60066605D01*
X111520891Y-60161344D01*
X111418134Y-60239044D01*
X111307088Y-60293940D01*
X111185954Y-60327245D01*
X111052311Y-60338664D01*
X110912411Y-60326311D01*
X110784186Y-60290081D01*
X110665177Y-60229953D01*
X110553567Y-60144247D01*
X110478958Y-60062551D01*
X110420622Y-59969638D01*
X110377907Y-59863907D01*
X110351180Y-59743133D01*
X110344535Y-59644892D01*
X110698403Y-59644892D01*
X110709242Y-59766459D01*
X110739952Y-59869004D01*
X110789262Y-59956180D01*
X110857253Y-60026459D01*
X110934620Y-60066976D01*
X111024956Y-60080743D01*
X111117394Y-60066127D01*
X111196752Y-60022923D01*
X111266756Y-59947387D01*
X111317208Y-59854404D01*
X111348623Y-59745741D01*
X111359691Y-59617781D01*
X111348852Y-59496214D01*
X111318142Y-59393669D01*
X111268832Y-59306494D01*
X111200841Y-59236214D01*
X111123474Y-59195697D01*
X111033138Y-59181930D01*
X110940700Y-59196546D01*
X110861342Y-59239751D01*
X110791338Y-59315286D01*
X110740886Y-59408269D01*
X110709471Y-59516933D01*
X110698403Y-59644892D01*
X110344535Y-59644892D01*
X110341809Y-59604592D01*
X110355238Y-59444860D01*
X110393110Y-59310977D01*
X110453451Y-59198124D01*
X110536592Y-59102795D01*
X110639094Y-59024359D01*
X110749711Y-58969028D01*
X110870237Y-58935498D01*
X111003096Y-58924009D01*
X111142842Y-58936420D01*
G37*
G36*
X108874398Y-60283954D02*
G01*
X109193989Y-60294822D01*
X109211161Y-60224602D01*
X109215849Y-60177830D01*
X109237709Y-60177830D01*
X109331007Y-60241376D01*
X109430775Y-60286399D01*
X109538415Y-60313701D01*
X109655730Y-60323032D01*
X109768628Y-60314515D01*
X109860382Y-60290898D01*
X109934945Y-60254092D01*
X109995350Y-60204575D01*
X110038866Y-60143144D01*
X110074630Y-60050969D01*
X110099735Y-59917738D01*
X110109412Y-59730988D01*
X110107336Y-59611919D01*
X110105259Y-59477586D01*
X110110586Y-59302844D01*
X110131271Y-58992397D01*
X109750130Y-58978720D01*
X109766688Y-59239505D01*
X109771990Y-59479051D01*
X109764444Y-59707892D01*
X109746043Y-59850623D01*
X109722165Y-59932732D01*
X109691426Y-59983513D01*
X109650118Y-60019109D01*
X109596302Y-60041397D01*
X109526038Y-60049480D01*
X109421773Y-60040518D01*
X109330577Y-60014762D01*
X109250043Y-59972910D01*
X109255206Y-59306958D01*
X109266407Y-58991054D01*
X108897601Y-58978720D01*
X108907462Y-59257678D01*
X108911278Y-59651242D01*
X108902224Y-59959579D01*
X108874398Y-60283954D01*
G37*
G36*
X107348368Y-60283954D02*
G01*
X107711802Y-60283954D01*
X107689215Y-59935891D01*
X107681638Y-59582000D01*
X107690854Y-59438071D01*
X107713759Y-59345863D01*
X107745141Y-59290007D01*
X107792609Y-59248690D01*
X107855406Y-59222680D01*
X107938459Y-59213193D01*
X108038887Y-59224697D01*
X108136569Y-59259598D01*
X108233627Y-59320171D01*
X108226788Y-60283954D01*
X108594373Y-60283954D01*
X108575061Y-59878805D01*
X108569705Y-59610698D01*
X108577380Y-59393437D01*
X108599895Y-59188069D01*
X108636627Y-58993619D01*
X108286871Y-58955272D01*
X108263668Y-59098399D01*
X108241809Y-59098399D01*
X108143754Y-59028380D01*
X108040354Y-58979235D01*
X107930201Y-58949680D01*
X107811453Y-58939641D01*
X107674461Y-58951801D01*
X107564038Y-58985586D01*
X107474764Y-59038803D01*
X107423756Y-59092644D01*
X107384495Y-59167361D01*
X107358215Y-59268782D01*
X107348368Y-59404557D01*
X107351788Y-59510559D01*
X107355207Y-59646724D01*
X107348368Y-60283954D01*
G37*
G36*
X106189070Y-58356633D02*
G01*
X106165407Y-58684182D01*
X106157562Y-59008395D01*
X106176735Y-59008395D01*
X106245096Y-58972783D01*
X106339506Y-58948725D01*
X106467751Y-58939641D01*
X106585740Y-58949105D01*
X106689261Y-58976284D01*
X106780830Y-59020286D01*
X106862351Y-59081494D01*
X106934987Y-59161535D01*
X107008062Y-59276462D01*
X107060253Y-59400371D01*
X107092100Y-59534996D01*
X107103026Y-59682505D01*
X107093003Y-59810838D01*
X107063810Y-59927438D01*
X107015918Y-60034373D01*
X106948665Y-60133256D01*
X106864840Y-60216202D01*
X106769234Y-60274709D01*
X106659486Y-60310540D01*
X106531987Y-60323032D01*
X106416386Y-60314050D01*
X106315420Y-60288326D01*
X106226607Y-60246849D01*
X106148037Y-60189432D01*
X106127520Y-60189432D01*
X106117995Y-60294822D01*
X105794129Y-60283954D01*
X105809973Y-59968025D01*
X106137046Y-59968025D01*
X106198089Y-60018611D01*
X106288290Y-60052263D01*
X106418536Y-60065112D01*
X106512187Y-60050997D01*
X106589128Y-60010135D01*
X106653620Y-59940182D01*
X106699935Y-59853408D01*
X106728368Y-59755324D01*
X106738250Y-59643305D01*
X106727828Y-59516650D01*
X106698237Y-59408593D01*
X106650811Y-59315775D01*
X106601741Y-59257634D01*
X106542325Y-59216496D01*
X106470533Y-59190983D01*
X106382998Y-59181930D01*
X106297627Y-59189595D01*
X106223175Y-59211628D01*
X106157562Y-59247509D01*
X106142717Y-59551756D01*
X106137046Y-59968025D01*
X105809973Y-59968025D01*
X105816017Y-59847511D01*
X105824293Y-59264728D01*
X105817966Y-58700681D01*
X105802433Y-58345642D01*
X106189070Y-58356633D01*
G37*
G36*
X103693885Y-59797910D02*
G01*
X103705416Y-59920530D01*
X103737983Y-60022746D01*
X103790318Y-60108721D01*
X103863576Y-60181216D01*
X103961201Y-60241287D01*
X104088581Y-60288163D01*
X104252668Y-60319349D01*
X104461662Y-60330848D01*
X104634751Y-60323446D01*
X104796051Y-60301841D01*
X104946728Y-60266734D01*
X104879806Y-59955691D01*
X104730570Y-60000173D01*
X104591662Y-60025654D01*
X104461662Y-60033849D01*
X104314272Y-60028065D01*
X104213384Y-60013379D01*
X104147444Y-59993182D01*
X104093100Y-59958724D01*
X104062412Y-59914234D01*
X104051823Y-59856529D01*
X104061632Y-59791745D01*
X104090852Y-59734351D01*
X104141948Y-59682017D01*
X104241731Y-59619342D01*
X104457632Y-59518496D01*
X104598551Y-59449709D01*
X104703331Y-59382398D01*
X104778689Y-59316752D01*
X104836597Y-59244025D01*
X104877600Y-59164280D01*
X104902581Y-59076063D01*
X104911191Y-58977376D01*
X104899700Y-58863669D01*
X104866838Y-58766778D01*
X104813218Y-58683212D01*
X104737046Y-58610768D01*
X104647955Y-58556502D01*
X104537807Y-58515154D01*
X104402278Y-58488254D01*
X104236226Y-58478510D01*
X103979346Y-58491002D01*
X103786697Y-58524062D01*
X103837255Y-58830220D01*
X103961937Y-58791530D01*
X104094516Y-58767927D01*
X104236226Y-58759878D01*
X104373685Y-58769956D01*
X104462773Y-58795283D01*
X104517627Y-58830753D01*
X104548200Y-58875049D01*
X104558627Y-58931092D01*
X104550243Y-58988313D01*
X104525707Y-59037058D01*
X104483522Y-59079592D01*
X104397308Y-59129765D01*
X104198002Y-59217345D01*
X104045103Y-59287476D01*
X103930905Y-59356629D01*
X103848246Y-59424463D01*
X103780443Y-59504939D01*
X103732748Y-59592820D01*
X103703828Y-59689716D01*
X103693885Y-59797910D01*
G37*
G36*
X103305661Y-58619805D02*
G01*
X103316530Y-59002167D01*
X103511924Y-58993985D01*
X103521449Y-59268270D01*
X103332894Y-59260087D01*
X103335580Y-59729278D01*
X103326192Y-59910024D01*
X103301703Y-60040562D01*
X103266586Y-60132258D01*
X103223595Y-60194561D01*
X103164053Y-60245185D01*
X103090757Y-60282638D01*
X103000770Y-60306592D01*
X102890204Y-60315217D01*
X102752470Y-60304180D01*
X102649747Y-60274672D01*
X102626543Y-60033849D01*
X102711657Y-60051689D01*
X102787744Y-60057296D01*
X102865979Y-60046955D01*
X102921854Y-60018910D01*
X102961278Y-59973887D01*
X102984979Y-59914417D01*
X103003071Y-59811124D01*
X103010493Y-59644892D01*
X103007684Y-59260087D01*
X102670263Y-59268270D01*
X102659272Y-58991298D01*
X103002311Y-59002167D01*
X102981795Y-58580115D01*
X103305661Y-58619805D01*
G37*
G36*
X102088471Y-58948150D02*
G01*
X102259715Y-58970669D01*
X102385720Y-59003266D01*
X102415762Y-59252272D01*
X102216885Y-59211272D01*
X102012761Y-59197561D01*
X101885082Y-59204450D01*
X101802388Y-59221582D01*
X101751788Y-59244822D01*
X101715268Y-59282671D01*
X101690460Y-59344289D01*
X101680713Y-59440094D01*
X101683522Y-59486745D01*
X101913671Y-59501782D01*
X102085266Y-59533285D01*
X102210293Y-59576689D01*
X102299014Y-59628894D01*
X102377333Y-59702366D01*
X102431220Y-59782888D01*
X102463457Y-59872053D01*
X102474502Y-59972544D01*
X102461494Y-60073094D01*
X102424155Y-60156603D01*
X102361784Y-60227167D01*
X102281924Y-60279583D01*
X102188629Y-60311755D01*
X102078340Y-60323032D01*
X101950823Y-60313839D01*
X101842744Y-60287904D01*
X101750840Y-60246835D01*
X101672531Y-60191019D01*
X101654823Y-60191019D01*
X101649773Y-60238423D01*
X101632964Y-60295921D01*
X101310563Y-60283954D01*
X101342106Y-60090360D01*
X101346167Y-60000143D01*
X101675340Y-60000143D01*
X101751008Y-60043965D01*
X101839680Y-60071165D01*
X101944495Y-60080743D01*
X102041776Y-60068439D01*
X102102015Y-60036984D01*
X102136853Y-59988795D01*
X102149415Y-59918322D01*
X102139141Y-59853384D01*
X102109204Y-59799933D01*
X102057175Y-59754901D01*
X101976172Y-59718100D01*
X101855909Y-59692189D01*
X101683522Y-59682139D01*
X101675340Y-60000143D01*
X101346167Y-60000143D01*
X101354282Y-59819892D01*
X101349520Y-59617293D01*
X101344635Y-59407854D01*
X101354805Y-59276637D01*
X101382280Y-59176362D01*
X101424013Y-59100365D01*
X101479213Y-59043688D01*
X101574494Y-58988751D01*
X101699081Y-58952866D01*
X101861086Y-58939641D01*
X102088471Y-58948150D01*
G37*
G36*
X100917943Y-58619805D02*
G01*
X100928811Y-59002167D01*
X101124206Y-58993985D01*
X101133731Y-59268270D01*
X100945176Y-59260087D01*
X100947862Y-59729278D01*
X100938474Y-59910024D01*
X100913985Y-60040562D01*
X100878868Y-60132258D01*
X100835877Y-60194561D01*
X100776335Y-60245185D01*
X100703039Y-60282638D01*
X100613052Y-60306592D01*
X100502486Y-60315217D01*
X100364752Y-60304180D01*
X100262028Y-60274672D01*
X100238825Y-60033849D01*
X100323939Y-60051689D01*
X100400026Y-60057296D01*
X100478261Y-60046955D01*
X100534136Y-60018910D01*
X100573560Y-59973887D01*
X100597261Y-59914417D01*
X100615353Y-59811124D01*
X100622775Y-59644892D01*
X100619966Y-59260087D01*
X100282545Y-59268270D01*
X100271554Y-58991298D01*
X100614593Y-59002167D01*
X100594077Y-58580115D01*
X100917943Y-58619805D01*
G37*
G36*
X99646903Y-60283954D02*
G01*
X100014366Y-60283954D01*
X100000388Y-59989904D01*
X99995315Y-59633291D01*
X100007762Y-59280178D01*
X100041721Y-58994962D01*
X99648246Y-58955272D01*
X99661130Y-59239657D01*
X99666076Y-59633291D01*
X99661079Y-59978819D01*
X99646903Y-60283954D01*
G37*
G36*
X99584010Y-58564972D02*
G01*
X99591108Y-58624913D01*
X99612036Y-58678966D01*
X99647513Y-58728737D01*
X99694069Y-58766965D01*
X99751926Y-58790547D01*
X99824467Y-58798957D01*
X99885512Y-58791741D01*
X99934445Y-58771442D01*
X99974066Y-58738385D01*
X100014374Y-58672088D01*
X100028044Y-58592450D01*
X100020916Y-58532553D01*
X99999968Y-58479010D01*
X99964541Y-58430150D01*
X99918059Y-58392779D01*
X99859797Y-58369582D01*
X99786243Y-58361274D01*
X99724206Y-58368501D01*
X99675367Y-58388666D01*
X99636645Y-58421235D01*
X99597342Y-58486619D01*
X99584010Y-58564972D01*
G37*
G36*
X98823233Y-58936420D02*
G01*
X98951643Y-58972864D01*
X99071158Y-59033433D01*
X99183574Y-59119892D01*
X99258692Y-59202115D01*
X99317403Y-59295549D01*
X99360375Y-59401796D01*
X99387254Y-59523074D01*
X99396676Y-59662111D01*
X99383211Y-59821160D01*
X99345239Y-59954379D01*
X99284722Y-60066605D01*
X99201282Y-60161344D01*
X99098525Y-60239044D01*
X98987479Y-60293940D01*
X98866344Y-60327245D01*
X98732702Y-60338664D01*
X98592802Y-60326311D01*
X98464577Y-60290081D01*
X98345567Y-60229953D01*
X98233958Y-60144247D01*
X98159348Y-60062551D01*
X98101013Y-59969638D01*
X98058298Y-59863907D01*
X98031571Y-59743133D01*
X98024925Y-59644892D01*
X98378794Y-59644892D01*
X98389632Y-59766459D01*
X98420343Y-59869004D01*
X98469652Y-59956180D01*
X98537644Y-60026459D01*
X98615011Y-60066976D01*
X98705347Y-60080743D01*
X98797785Y-60066127D01*
X98877143Y-60022923D01*
X98947147Y-59947387D01*
X98997598Y-59854404D01*
X99029014Y-59745741D01*
X99040082Y-59617781D01*
X99029243Y-59496214D01*
X98998533Y-59393669D01*
X98949223Y-59306494D01*
X98881232Y-59236214D01*
X98803865Y-59195697D01*
X98713529Y-59181930D01*
X98621091Y-59196546D01*
X98541733Y-59239751D01*
X98471728Y-59315286D01*
X98421277Y-59408269D01*
X98389862Y-59516933D01*
X98378794Y-59644892D01*
X98024925Y-59644892D01*
X98022199Y-59604592D01*
X98035629Y-59444860D01*
X98073501Y-59310977D01*
X98133842Y-59198124D01*
X98216983Y-59102795D01*
X98319485Y-59024359D01*
X98430101Y-58969028D01*
X98550627Y-58935498D01*
X98683487Y-58924009D01*
X98823233Y-58936420D01*
G37*
G36*
X96541111Y-60283954D02*
G01*
X96904544Y-60283954D01*
X96881957Y-59935891D01*
X96874380Y-59582000D01*
X96883597Y-59438071D01*
X96906501Y-59345863D01*
X96937883Y-59290007D01*
X96985351Y-59248690D01*
X97048149Y-59222680D01*
X97131202Y-59213193D01*
X97231629Y-59224697D01*
X97329311Y-59259598D01*
X97426369Y-59320171D01*
X97419530Y-60283954D01*
X97787116Y-60283954D01*
X97767804Y-59878805D01*
X97762447Y-59610698D01*
X97770122Y-59393437D01*
X97792638Y-59188069D01*
X97829370Y-58993619D01*
X97479614Y-58955272D01*
X97456411Y-59098399D01*
X97434551Y-59098399D01*
X97336497Y-59028380D01*
X97233097Y-58979235D01*
X97122944Y-58949680D01*
X97004195Y-58939641D01*
X96867204Y-58951801D01*
X96756781Y-58985586D01*
X96667506Y-59038803D01*
X96616498Y-59092644D01*
X96577237Y-59167361D01*
X96550958Y-59268782D01*
X96541111Y-59404557D01*
X96544530Y-59510559D01*
X96547950Y-59646724D01*
X96541111Y-60283954D01*
G37*
G36*
X94579352Y-59997701D02*
G01*
X94608051Y-60283954D01*
X95647670Y-60283954D01*
X95618972Y-60015408D01*
X95412915Y-59887145D01*
X95263205Y-59768759D01*
X95159174Y-59659269D01*
X95091873Y-59557214D01*
X95054421Y-59460558D01*
X95042437Y-59366699D01*
X95052466Y-59285183D01*
X95080493Y-59221356D01*
X95126150Y-59170930D01*
X95192649Y-59132099D01*
X95286225Y-59105886D01*
X95415396Y-59095956D01*
X95516502Y-59099738D01*
X95627154Y-59111588D01*
X95601142Y-58860018D01*
X95469859Y-58838826D01*
X95263721Y-58830220D01*
X95122377Y-58839004D01*
X95007360Y-58863253D01*
X94914113Y-58900585D01*
X94838860Y-58949777D01*
X94775163Y-59014577D01*
X94730075Y-59088980D01*
X94702368Y-59174900D01*
X94692681Y-59275231D01*
X94704698Y-59400284D01*
X94739971Y-59514372D01*
X94798786Y-59619996D01*
X94883312Y-59718898D01*
X95015851Y-59834880D01*
X95150230Y-59928078D01*
X95287046Y-60000388D01*
X95287046Y-60018217D01*
X94972040Y-60013455D01*
X94579352Y-59997701D01*
G37*
G36*
X93799386Y-58824067D02*
G01*
X93906586Y-58851092D01*
X93999941Y-58894454D01*
X94081624Y-58954193D01*
X94153026Y-59031598D01*
X94222016Y-59142886D01*
X94273829Y-59276571D01*
X94307078Y-59436939D01*
X94318989Y-59629138D01*
X94307278Y-59818096D01*
X94275507Y-59966015D01*
X94227527Y-60080763D01*
X94165361Y-60168793D01*
X94083317Y-60240349D01*
X93982851Y-60293036D01*
X93860065Y-60326607D01*
X93709726Y-60338664D01*
X93555949Y-60325286D01*
X93428610Y-60287710D01*
X93322603Y-60227971D01*
X93234307Y-60145590D01*
X93167359Y-60046010D01*
X93116133Y-59919786D01*
X93082559Y-59760965D01*
X93075620Y-59648556D01*
X93407719Y-59648556D01*
X93418242Y-59799118D01*
X93445776Y-59906712D01*
X93485931Y-59981714D01*
X93536978Y-60032029D01*
X93600183Y-60062257D01*
X93679562Y-60072928D01*
X93754799Y-60064242D01*
X93815918Y-60039713D01*
X93866131Y-59999724D01*
X93907074Y-59942136D01*
X93942776Y-59851442D01*
X93967784Y-59720971D01*
X93977416Y-59538646D01*
X93966581Y-59373552D01*
X93938387Y-59256590D01*
X93897665Y-59176053D01*
X93846598Y-59122842D01*
X93784288Y-59091341D01*
X93706917Y-59080325D01*
X93632348Y-59090413D01*
X93571063Y-59119353D01*
X93519799Y-59167931D01*
X93477451Y-59240426D01*
X93440590Y-59349371D01*
X93416477Y-59483746D01*
X93407719Y-59648556D01*
X93075620Y-59648556D01*
X93070298Y-59562338D01*
X93081509Y-59378928D01*
X93112511Y-59228978D01*
X93160308Y-59106802D01*
X93223316Y-59007663D01*
X93306558Y-58925040D01*
X93407046Y-58865390D01*
X93528319Y-58827933D01*
X93675532Y-58814589D01*
X93799386Y-58824067D01*
G37*
G36*
X91742227Y-59997701D02*
G01*
X91770926Y-60283954D01*
X92810546Y-60283954D01*
X92781847Y-60015408D01*
X92575790Y-59887145D01*
X92426080Y-59768759D01*
X92322049Y-59659269D01*
X92254748Y-59557214D01*
X92217296Y-59460558D01*
X92205312Y-59366699D01*
X92215342Y-59285183D01*
X92243368Y-59221356D01*
X92289025Y-59170930D01*
X92355524Y-59132099D01*
X92449100Y-59105886D01*
X92578271Y-59095956D01*
X92679377Y-59099738D01*
X92790029Y-59111588D01*
X92764017Y-58860018D01*
X92632735Y-58838826D01*
X92426596Y-58830220D01*
X92285252Y-58839004D01*
X92170236Y-58863253D01*
X92076988Y-58900585D01*
X92001735Y-58949777D01*
X91938038Y-59014577D01*
X91892950Y-59088980D01*
X91865243Y-59174900D01*
X91855556Y-59275231D01*
X91867573Y-59400284D01*
X91902846Y-59514372D01*
X91961661Y-59619996D01*
X92046188Y-59718898D01*
X92178726Y-59834880D01*
X92313106Y-59928078D01*
X92449921Y-60000388D01*
X92449921Y-60018217D01*
X92134915Y-60013455D01*
X91742227Y-59997701D01*
G37*
G36*
X90680169Y-58469071D02*
G01*
X90850317Y-58511891D01*
X90995293Y-58573565D01*
X91118732Y-58653148D01*
X91223363Y-58750947D01*
X91310857Y-58868498D01*
X91381718Y-59008472D01*
X91435251Y-59174519D01*
X91469605Y-59371105D01*
X91481864Y-59603371D01*
X91467994Y-59790169D01*
X91429398Y-59943349D01*
X91369073Y-60069032D01*
X91287814Y-60171968D01*
X91199535Y-60244463D01*
X91101012Y-60296053D01*
X90990205Y-60327689D01*
X90864296Y-60338664D01*
X90724438Y-60325465D01*
X90603364Y-60287574D01*
X90497356Y-60225783D01*
X90403899Y-60138507D01*
X90335958Y-60045119D01*
X90287702Y-59943640D01*
X90258301Y-59832412D01*
X90252223Y-59758343D01*
X90573281Y-59758343D01*
X90581611Y-59847251D01*
X90605487Y-59924001D01*
X90644356Y-59990984D01*
X90703513Y-60050046D01*
X90772096Y-60084538D01*
X90853428Y-60096375D01*
X90935229Y-60083394D01*
X91002602Y-60045550D01*
X91059408Y-59979724D01*
X91105863Y-59877158D01*
X91138586Y-59724787D01*
X91151282Y-59506284D01*
X91078501Y-59443100D01*
X90995406Y-59405778D01*
X90898490Y-59392956D01*
X90798456Y-59406329D01*
X90717569Y-59444415D01*
X90651195Y-59507872D01*
X90608675Y-59579034D01*
X90582465Y-59661583D01*
X90573281Y-59758343D01*
X90252223Y-59758343D01*
X90248194Y-59709250D01*
X90256821Y-59598253D01*
X90281667Y-59500003D01*
X90321963Y-59412342D01*
X90378009Y-59333605D01*
X90455330Y-59261147D01*
X90544686Y-59209462D01*
X90648462Y-59177509D01*
X90770141Y-59166298D01*
X90888038Y-59176386D01*
X90983013Y-59204372D01*
X91059657Y-59248283D01*
X91121240Y-59308203D01*
X91143100Y-59308203D01*
X91111435Y-59152085D01*
X91058659Y-59022936D01*
X90986025Y-58916112D01*
X90892783Y-58828398D01*
X90776254Y-58758275D01*
X90632066Y-58706065D01*
X90454457Y-58673905D01*
X90480469Y-58447247D01*
X90680169Y-58469071D01*
G37*
G36*
X74350231Y-97164016D02*
G01*
X74826687Y-97164016D01*
X74826687Y-98395000D01*
X75220162Y-98395000D01*
X75220162Y-97164016D01*
X75696619Y-97164016D01*
X75696619Y-96870924D01*
X74350231Y-96870924D01*
X74350231Y-97164016D01*
G37*
G36*
X72978379Y-98395000D02*
G01*
X73349232Y-98395000D01*
X73349232Y-97823746D01*
X73356467Y-97684711D01*
X73367213Y-97620406D01*
X73381014Y-97582678D01*
X73406268Y-97549891D01*
X73441006Y-97527357D01*
X73484633Y-97514831D01*
X73551098Y-97509863D01*
X73601273Y-97513886D01*
X73653131Y-97526258D01*
X73705144Y-97546644D01*
X73765330Y-97578557D01*
X73765330Y-98395000D01*
X74134167Y-98395000D01*
X74134167Y-96800582D01*
X73765330Y-96800582D01*
X73765330Y-97369912D01*
X73666082Y-97300210D01*
X73576286Y-97251943D01*
X73481929Y-97221437D01*
X73374969Y-97210910D01*
X73282534Y-97218427D01*
X73204803Y-97239631D01*
X73139100Y-97273373D01*
X73083434Y-97319720D01*
X73039905Y-97376696D01*
X73007200Y-97447720D01*
X72986045Y-97535852D01*
X72978379Y-97644960D01*
X72978379Y-98395000D01*
G37*
G36*
X72303005Y-97216142D02*
G01*
X72434970Y-97231885D01*
X72625021Y-97268155D01*
X72625021Y-97545034D01*
X72591224Y-97545034D01*
X72442663Y-97495300D01*
X72340110Y-97470703D01*
X72247941Y-97462969D01*
X72146445Y-97467928D01*
X72071874Y-97480938D01*
X72018414Y-97499697D01*
X71975440Y-97530485D01*
X71949798Y-97573395D01*
X71940561Y-97632595D01*
X71940561Y-97638824D01*
X72102011Y-97650784D01*
X72255176Y-97667675D01*
X72399663Y-97695309D01*
X72509250Y-97733620D01*
X72574570Y-97769328D01*
X72627342Y-97811536D01*
X72669168Y-97860382D01*
X72699445Y-97916534D01*
X72718631Y-97984621D01*
X72725497Y-98067470D01*
X72718288Y-98144763D01*
X72697456Y-98212847D01*
X72663284Y-98273551D01*
X72614855Y-98328138D01*
X72556677Y-98372484D01*
X72492390Y-98404100D01*
X72420790Y-98423470D01*
X72340265Y-98430170D01*
X72272166Y-98426673D01*
X72212220Y-98416707D01*
X72154826Y-98400201D01*
X72099472Y-98377597D01*
X72016490Y-98327405D01*
X71942668Y-98273092D01*
X71942668Y-98395000D01*
X71576853Y-98395000D01*
X71576853Y-98095955D01*
X71942668Y-98095955D01*
X71988715Y-98129089D01*
X72042594Y-98155580D01*
X72099696Y-98172615D01*
X72154701Y-98178112D01*
X72219784Y-98175220D01*
X72257191Y-98168403D01*
X72287985Y-98155753D01*
X72313520Y-98138087D01*
X72334150Y-98116167D01*
X72344295Y-98094947D01*
X72350431Y-98036420D01*
X72342736Y-97986127D01*
X72321214Y-97948676D01*
X72286910Y-97920127D01*
X72236675Y-97897843D01*
X72186187Y-97885339D01*
X72104601Y-97872656D01*
X71942668Y-97855711D01*
X71942668Y-98095955D01*
X71576853Y-98095955D01*
X71576853Y-97611713D01*
X71586576Y-97510174D01*
X71613705Y-97428167D01*
X71656806Y-97361601D01*
X71716713Y-97307814D01*
X71787005Y-97269739D01*
X71881837Y-97239287D01*
X72007456Y-97218631D01*
X72171096Y-97210910D01*
X72303005Y-97216142D01*
G37*
G36*
X70081171Y-98395000D02*
G01*
X70452023Y-98395000D01*
X70452023Y-97823746D01*
X70459259Y-97684711D01*
X70470005Y-97620406D01*
X70483805Y-97582678D01*
X70509059Y-97549891D01*
X70543797Y-97527357D01*
X70587425Y-97514831D01*
X70653890Y-97509863D01*
X70704065Y-97513886D01*
X70755922Y-97526258D01*
X70807935Y-97546644D01*
X70868121Y-97578557D01*
X70868121Y-98395000D01*
X71236959Y-98395000D01*
X71236959Y-97246081D01*
X70868121Y-97246081D01*
X70868121Y-97369912D01*
X70768874Y-97300210D01*
X70679077Y-97251943D01*
X70584721Y-97221437D01*
X70477760Y-97210910D01*
X70385325Y-97218427D01*
X70307594Y-97239631D01*
X70241891Y-97273373D01*
X70186226Y-97319720D01*
X70142697Y-97376696D01*
X70109991Y-97447720D01*
X70088836Y-97535852D01*
X70081171Y-97644960D01*
X70081171Y-98395000D01*
G37*
G36*
X68520825Y-98395000D02*
G01*
X68950113Y-98395000D01*
X69272880Y-97894729D01*
X69373355Y-98016454D01*
X69373355Y-98395000D01*
X69742192Y-98395000D01*
X69742192Y-96800582D01*
X69373355Y-96800582D01*
X69373355Y-97753496D01*
X68975758Y-97246081D01*
X68550501Y-97246081D01*
X68964493Y-97741222D01*
X68520825Y-98395000D01*
G37*
G36*
X67097775Y-97990350D02*
G01*
X66835458Y-97246081D01*
X66456363Y-97246081D01*
X67095760Y-98817051D01*
X67495372Y-98817051D01*
X67312922Y-98389138D01*
X67760711Y-97246081D01*
X67373373Y-97246081D01*
X67097775Y-97990350D01*
G37*
G36*
X65825739Y-97218253D02*
G01*
X65930189Y-97239104D01*
X66020982Y-97272184D01*
X66100069Y-97316903D01*
X66168950Y-97373393D01*
X66227335Y-97441118D01*
X66273207Y-97518184D01*
X66306914Y-97605936D01*
X66328047Y-97706179D01*
X66335463Y-97821090D01*
X66328117Y-97935043D01*
X66307159Y-98034701D01*
X66273694Y-98122177D01*
X66228109Y-98199220D01*
X66170049Y-98267138D01*
X66101568Y-98323731D01*
X66022631Y-98368581D01*
X65931685Y-98401803D01*
X65826712Y-98422775D01*
X65705316Y-98430170D01*
X65583916Y-98422774D01*
X65478954Y-98401800D01*
X65388028Y-98368577D01*
X65309120Y-98323728D01*
X65240675Y-98267138D01*
X65182579Y-98199215D01*
X65136968Y-98122169D01*
X65103487Y-98034694D01*
X65082519Y-97935038D01*
X65075299Y-97823105D01*
X65457379Y-97823105D01*
X65462511Y-97926052D01*
X65475331Y-97993647D01*
X65498165Y-98051569D01*
X65529095Y-98098977D01*
X65564546Y-98133089D01*
X65606489Y-98155489D01*
X65653059Y-98168027D01*
X65702293Y-98172250D01*
X65758649Y-98167470D01*
X65806341Y-98153932D01*
X65848443Y-98130430D01*
X65884651Y-98095863D01*
X65913499Y-98049394D01*
X65935942Y-97985496D01*
X65948670Y-97913465D01*
X65953345Y-97823105D01*
X65947844Y-97722833D01*
X65933378Y-97648990D01*
X65908792Y-97584866D01*
X65879522Y-97540088D01*
X65839438Y-97503505D01*
X65800204Y-97483119D01*
X65756848Y-97472579D01*
X65705316Y-97468831D01*
X65653415Y-97473241D01*
X65606031Y-97486141D01*
X65563576Y-97509294D01*
X65527080Y-97545218D01*
X65498894Y-97590653D01*
X65475880Y-97654119D01*
X65462451Y-97726466D01*
X65457379Y-97823105D01*
X65075299Y-97823105D01*
X65075169Y-97821090D01*
X65082477Y-97707061D01*
X65103329Y-97607299D01*
X65136619Y-97519706D01*
X65181954Y-97442539D01*
X65239667Y-97374492D01*
X65307715Y-97317795D01*
X65386467Y-97272816D01*
X65477528Y-97239452D01*
X65582984Y-97218359D01*
X65705316Y-97210910D01*
X65825739Y-97218253D01*
G37*
G36*
X63664301Y-98395000D02*
G01*
X64033229Y-98395000D01*
X64033229Y-98271168D01*
X64135233Y-98342200D01*
X64220808Y-98389687D01*
X64278821Y-98411525D01*
X64345883Y-98425307D01*
X64423591Y-98430170D01*
X64518205Y-98422509D01*
X64596839Y-98401009D01*
X64662449Y-98366981D01*
X64717232Y-98320444D01*
X64759917Y-98263073D01*
X64791980Y-98191980D01*
X64812689Y-98104225D01*
X64820180Y-97996120D01*
X64820180Y-97246081D01*
X64449236Y-97246081D01*
X64449236Y-97817335D01*
X64443649Y-97962506D01*
X64433743Y-98017335D01*
X64417454Y-98058402D01*
X64393072Y-98091168D01*
X64358561Y-98113815D01*
X64314860Y-98126277D01*
X64248377Y-98131217D01*
X64200365Y-98127135D01*
X64143963Y-98113815D01*
X64087900Y-98092400D01*
X64033229Y-98062524D01*
X64033229Y-97246081D01*
X63664301Y-97246081D01*
X63664301Y-98395000D01*
G37*
G36*
X61863803Y-98385474D02*
G01*
X61989833Y-98409654D01*
X62152773Y-98418447D01*
X62262634Y-98411899D01*
X62350009Y-98394026D01*
X62418988Y-98366883D01*
X62472976Y-98331618D01*
X62515964Y-98284827D01*
X62548587Y-98222533D01*
X62570083Y-98140790D01*
X62578031Y-98034405D01*
X62578031Y-97498140D01*
X62729705Y-97498140D01*
X62729705Y-97246081D01*
X62578031Y-97246081D01*
X62578031Y-96917819D01*
X62209193Y-96917819D01*
X62209193Y-97246081D01*
X61863803Y-97246081D01*
X61863803Y-97498140D01*
X62209193Y-97498140D01*
X62209193Y-97903613D01*
X62208186Y-98008485D01*
X62203439Y-98051712D01*
X62191791Y-98088994D01*
X62172195Y-98120623D01*
X62141050Y-98145505D01*
X62099898Y-98160438D01*
X62034987Y-98166388D01*
X61959608Y-98154023D01*
X61894578Y-98131217D01*
X61863803Y-98131217D01*
X61863803Y-98385474D01*
G37*
G36*
X61218342Y-97218253D02*
G01*
X61322792Y-97239104D01*
X61413585Y-97272184D01*
X61492672Y-97316903D01*
X61561553Y-97373393D01*
X61619938Y-97441118D01*
X61665810Y-97518184D01*
X61699517Y-97605936D01*
X61720650Y-97706179D01*
X61728065Y-97821090D01*
X61720720Y-97935043D01*
X61699762Y-98034701D01*
X61666297Y-98122177D01*
X61620712Y-98199220D01*
X61562652Y-98267138D01*
X61494171Y-98323731D01*
X61415233Y-98368581D01*
X61324287Y-98401803D01*
X61219315Y-98422775D01*
X61097919Y-98430170D01*
X60976519Y-98422774D01*
X60871557Y-98401800D01*
X60780631Y-98368577D01*
X60701723Y-98323728D01*
X60633277Y-98267138D01*
X60575182Y-98199215D01*
X60529571Y-98122169D01*
X60496090Y-98034694D01*
X60475121Y-97935038D01*
X60467902Y-97823105D01*
X60849982Y-97823105D01*
X60855114Y-97926052D01*
X60867934Y-97993647D01*
X60890768Y-98051569D01*
X60921698Y-98098977D01*
X60957149Y-98133089D01*
X60999092Y-98155489D01*
X61045662Y-98168027D01*
X61094896Y-98172250D01*
X61151252Y-98167470D01*
X61198944Y-98153932D01*
X61241046Y-98130430D01*
X61277254Y-98095863D01*
X61306102Y-98049394D01*
X61328545Y-97985496D01*
X61341273Y-97913465D01*
X61345948Y-97823105D01*
X61340447Y-97722833D01*
X61325981Y-97648990D01*
X61301395Y-97584866D01*
X61272125Y-97540088D01*
X61232041Y-97503505D01*
X61192807Y-97483119D01*
X61149450Y-97472579D01*
X61097919Y-97468831D01*
X61046018Y-97473241D01*
X60998634Y-97486141D01*
X60956179Y-97509294D01*
X60919683Y-97545218D01*
X60891497Y-97590653D01*
X60868483Y-97654119D01*
X60855054Y-97726466D01*
X60849982Y-97823105D01*
X60467902Y-97823105D01*
X60467772Y-97821090D01*
X60475080Y-97707061D01*
X60495932Y-97607299D01*
X60529222Y-97519706D01*
X60574557Y-97442539D01*
X60632270Y-97374492D01*
X60700318Y-97317795D01*
X60779070Y-97272816D01*
X60870131Y-97239452D01*
X60975587Y-97218359D01*
X61097919Y-97210910D01*
X61218342Y-97218253D01*
G37*
D10*
X115554819Y-71161666D02*
X116269104Y-71161666D01*
X116269104Y-71161666D02*
X116411961Y-71114047D01*
X116411961Y-71114047D02*
X116507200Y-71018809D01*
X116507200Y-71018809D02*
X116554819Y-70875952D01*
X116554819Y-70875952D02*
X116554819Y-70780714D01*
X116554819Y-72161666D02*
X116554819Y-71590238D01*
X116554819Y-71875952D02*
X115554819Y-71875952D01*
X115554819Y-71875952D02*
X115697676Y-71780714D01*
X115697676Y-71780714D02*
X115792914Y-71685476D01*
X115792914Y-71685476D02*
X115840533Y-71590238D01*
D12*
%TO.C,J1*%
X116600000Y-70625000D02*
X116600000Y-70125000D01*
X116890000Y-69265000D02*
X122610000Y-69265000D01*
X116890000Y-70335000D02*
X116890000Y-69265000D01*
X116890000Y-72665000D02*
X116890001Y-73735000D01*
X116890001Y-73735000D02*
X122610000Y-73734999D01*
X116900000Y-70625000D02*
X116600000Y-70625000D01*
X117190000Y-70335000D02*
X116890000Y-70335000D01*
X117190000Y-71500000D02*
X117190000Y-70335000D01*
X117190000Y-71500000D02*
X117190000Y-72665000D01*
X117190000Y-72665000D02*
X116890000Y-72665000D01*
X122610000Y-69265000D02*
X122610000Y-71500000D01*
X122610000Y-73734999D02*
X122610000Y-71500000D01*
D13*
%TO.C,G\u002A\u002A\u002A*%
G36*
X107608174Y-94351099D02*
G01*
X107770173Y-94352661D01*
X108258383Y-94358001D01*
X108663798Y-94364585D01*
X108997910Y-94373927D01*
X109272214Y-94387538D01*
X109498204Y-94406932D01*
X109687373Y-94433621D01*
X109851214Y-94469117D01*
X110001221Y-94514932D01*
X110148889Y-94572580D01*
X110305710Y-94643573D01*
X110483178Y-94729422D01*
X110521540Y-94748638D01*
X110924146Y-95008434D01*
X111279382Y-95346781D01*
X111579715Y-95753636D01*
X111817612Y-96218954D01*
X111985542Y-96732692D01*
X112039781Y-96985036D01*
X112120855Y-97586193D01*
X112147504Y-98215820D01*
X112119066Y-98837842D01*
X112034877Y-99416183D01*
X111930596Y-99827392D01*
X111724829Y-100358201D01*
X111453796Y-100816384D01*
X111117924Y-101201559D01*
X110717642Y-101513344D01*
X110253377Y-101751357D01*
X109725559Y-101915215D01*
X109134616Y-102004536D01*
X109113025Y-102006228D01*
X108928547Y-102016402D01*
X108666636Y-102025975D01*
X108344710Y-102034539D01*
X107980181Y-102041685D01*
X107590467Y-102047004D01*
X107192981Y-102050087D01*
X105715385Y-102056922D01*
X105715385Y-101373076D01*
X105715385Y-100689230D01*
X107342760Y-100689230D01*
X107472007Y-100689091D01*
X107899813Y-100686582D01*
X108291500Y-100681181D01*
X108634754Y-100673222D01*
X108917264Y-100663040D01*
X109126715Y-100650970D01*
X109250795Y-100637347D01*
X109580481Y-100553047D01*
X109930131Y-100393444D01*
X110217425Y-100169663D01*
X110444172Y-99878568D01*
X110612177Y-99517020D01*
X110723248Y-99081879D01*
X110779192Y-98570008D01*
X110781817Y-97978269D01*
X110759909Y-97629665D01*
X110688675Y-97142371D01*
X110569454Y-96734873D01*
X110398398Y-96401924D01*
X110171660Y-96138277D01*
X109885391Y-95938684D01*
X109535744Y-95797900D01*
X109118870Y-95710676D01*
X109087297Y-95706872D01*
X108916440Y-95693823D01*
X108668421Y-95682145D01*
X108359307Y-95672285D01*
X108005168Y-95664689D01*
X107622070Y-95659804D01*
X107226082Y-95658076D01*
X105715385Y-95658076D01*
X105715385Y-94995548D01*
X105715385Y-94333020D01*
X107608174Y-94351099D01*
G37*
G36*
X98877997Y-97111249D02*
G01*
X98878021Y-97171996D01*
X98878449Y-97756415D01*
X98879357Y-98251925D01*
X98880990Y-98666541D01*
X98883593Y-99008281D01*
X98887411Y-99285162D01*
X98892689Y-99505200D01*
X98899672Y-99676412D01*
X98908606Y-99806815D01*
X98919734Y-99904426D01*
X98933302Y-99977262D01*
X98949555Y-100033339D01*
X98968738Y-100080674D01*
X99106350Y-100297015D01*
X99335770Y-100489306D01*
X99639697Y-100619707D01*
X99795249Y-100649721D01*
X100025329Y-100672215D01*
X100306687Y-100686158D01*
X100620724Y-100691893D01*
X100948841Y-100689766D01*
X101272437Y-100680120D01*
X101572912Y-100663299D01*
X101831667Y-100639649D01*
X102030102Y-100609513D01*
X102149616Y-100573236D01*
X102270984Y-100502235D01*
X102489245Y-100318721D01*
X102655043Y-100078653D01*
X102674193Y-100041792D01*
X102693712Y-99996495D01*
X102710127Y-99941781D01*
X102723760Y-99869627D01*
X102734934Y-99772006D01*
X102743974Y-99640893D01*
X102751203Y-99468264D01*
X102756944Y-99246094D01*
X102761522Y-98966358D01*
X102765258Y-98621030D01*
X102768477Y-98202086D01*
X102771502Y-97701501D01*
X102774658Y-97111249D01*
X102789122Y-94339230D01*
X103470715Y-94339230D01*
X104152308Y-94339230D01*
X104150604Y-97086826D01*
X104150004Y-97609783D01*
X104148222Y-98183941D01*
X104144774Y-98675254D01*
X104139097Y-99091978D01*
X104130633Y-99442371D01*
X104118820Y-99734691D01*
X104103099Y-99977194D01*
X104082908Y-100178138D01*
X104057687Y-100345781D01*
X104026876Y-100488379D01*
X103989915Y-100614191D01*
X103946243Y-100731472D01*
X103895299Y-100848482D01*
X103878319Y-100884648D01*
X103653444Y-101244726D01*
X103358081Y-101537294D01*
X102992515Y-101762173D01*
X102557034Y-101919182D01*
X102051924Y-102008141D01*
X101918874Y-102018994D01*
X101643620Y-102031602D01*
X101317948Y-102037715D01*
X100960367Y-102037791D01*
X100589386Y-102032287D01*
X100223513Y-102021662D01*
X99881257Y-102006374D01*
X99581127Y-101986880D01*
X99341630Y-101963638D01*
X99181277Y-101937107D01*
X98777494Y-101804383D01*
X98398801Y-101596369D01*
X98092490Y-101325635D01*
X97861463Y-100994253D01*
X97856843Y-100985586D01*
X97793829Y-100866414D01*
X97739829Y-100757582D01*
X97694091Y-100650782D01*
X97655863Y-100537703D01*
X97624393Y-100410035D01*
X97598931Y-100259468D01*
X97578724Y-100077692D01*
X97563021Y-99856397D01*
X97551070Y-99587273D01*
X97542119Y-99262010D01*
X97535417Y-98872297D01*
X97530213Y-98409826D01*
X97525753Y-97866285D01*
X97521288Y-97233365D01*
X97501214Y-94339230D01*
X98189069Y-94339230D01*
X98876924Y-94339230D01*
X98877997Y-97111249D01*
G37*
G36*
X98434329Y-70964258D02*
G01*
X99344776Y-71101987D01*
X100232797Y-71328759D01*
X101092033Y-71641399D01*
X101916128Y-72036732D01*
X102698723Y-72511585D01*
X103433461Y-73062782D01*
X104113985Y-73687148D01*
X104733935Y-74381510D01*
X105286956Y-75142692D01*
X105691013Y-75823908D01*
X106091227Y-76668614D01*
X106402276Y-77542693D01*
X106623221Y-78439165D01*
X106753126Y-79351048D01*
X106791053Y-80271360D01*
X106736064Y-81193120D01*
X106587223Y-82109346D01*
X106343593Y-83013058D01*
X106182208Y-83508906D01*
X105667931Y-83477460D01*
X105153040Y-83436923D01*
X104522562Y-83368901D01*
X103853689Y-83280422D01*
X103175291Y-83175656D01*
X102516233Y-83058772D01*
X101905385Y-82933942D01*
X101779985Y-82905921D01*
X100362256Y-82540138D01*
X98997446Y-82095113D01*
X97681176Y-81568576D01*
X96409067Y-80958261D01*
X95176741Y-80261899D01*
X93979820Y-79477221D01*
X92813924Y-78601959D01*
X91674677Y-77633845D01*
X91562828Y-77533183D01*
X91302897Y-77300581D01*
X91100652Y-77123455D01*
X90945451Y-76994264D01*
X90826654Y-76905470D01*
X90733619Y-76849531D01*
X90655704Y-76818910D01*
X90582269Y-76806067D01*
X90502672Y-76803461D01*
X90368531Y-76817442D01*
X90188895Y-76901404D01*
X90075359Y-77054423D01*
X90035770Y-77268679D01*
X90038931Y-77340129D01*
X90054841Y-77425329D01*
X90090315Y-77520464D01*
X90152073Y-77636745D01*
X90246832Y-77785379D01*
X90381313Y-77977577D01*
X90562234Y-78224547D01*
X90796313Y-78537499D01*
X90799629Y-78541909D01*
X91179261Y-79035493D01*
X91546394Y-79487544D01*
X91923199Y-79923731D01*
X92331848Y-80369727D01*
X92794511Y-80851204D01*
X93526425Y-81565684D01*
X94533960Y-82445038D01*
X95574707Y-83235700D01*
X96652625Y-83939627D01*
X97771673Y-84558776D01*
X98935808Y-85095103D01*
X100148989Y-85550567D01*
X101415176Y-85927122D01*
X102738325Y-86226728D01*
X104122397Y-86451340D01*
X104361139Y-86483002D01*
X104073551Y-86775940D01*
X103602410Y-87219054D01*
X102901237Y-87768878D01*
X102139682Y-88254138D01*
X101329782Y-88668854D01*
X100483575Y-89007047D01*
X99613096Y-89262738D01*
X98730385Y-89429949D01*
X98316231Y-89475542D01*
X97455744Y-89505929D01*
X96578831Y-89456239D01*
X95706743Y-89329098D01*
X94860735Y-89127134D01*
X94062057Y-88852973D01*
X93909264Y-88790987D01*
X93625365Y-88671617D01*
X93388870Y-88563383D01*
X93169215Y-88451049D01*
X92935834Y-88319379D01*
X92658163Y-88153138D01*
X91913035Y-87648494D01*
X91192519Y-87047695D01*
X90538727Y-86378909D01*
X89955751Y-85647294D01*
X89447682Y-84858011D01*
X89018613Y-84016221D01*
X88672633Y-83127082D01*
X88515389Y-82603308D01*
X88320644Y-81697896D01*
X88218690Y-80789737D01*
X88206981Y-79884990D01*
X88282969Y-78989817D01*
X88444107Y-78110378D01*
X88687849Y-77252836D01*
X89011646Y-76423350D01*
X89412953Y-75628082D01*
X89889221Y-74873192D01*
X90437905Y-74164842D01*
X91056457Y-73509192D01*
X91742329Y-72912404D01*
X92492975Y-72380638D01*
X93305848Y-71920055D01*
X93758191Y-71705208D01*
X94507587Y-71407171D01*
X95259246Y-71185404D01*
X96039393Y-71032717D01*
X96874255Y-70941921D01*
X97507813Y-70918746D01*
X98434329Y-70964258D01*
G37*
G36*
X95750770Y-94996402D02*
G01*
X95750770Y-95653574D01*
X93467212Y-95668036D01*
X92964555Y-95671405D01*
X92513273Y-95675074D01*
X92142534Y-95679186D01*
X91843476Y-95684123D01*
X91607236Y-95690267D01*
X91424952Y-95697999D01*
X91287762Y-95707703D01*
X91186804Y-95719759D01*
X91113214Y-95734552D01*
X91058132Y-95752461D01*
X91012693Y-95773870D01*
X90791289Y-95919017D01*
X90610265Y-96121639D01*
X90507725Y-96371783D01*
X90475385Y-96683468D01*
X90504443Y-96991551D01*
X90606945Y-97277803D01*
X90784210Y-97502154D01*
X91037116Y-97666139D01*
X91056705Y-97674869D01*
X91117639Y-97697187D01*
X91192121Y-97715064D01*
X91290669Y-97728993D01*
X91423801Y-97739469D01*
X91602035Y-97746988D01*
X91835889Y-97752045D01*
X92135880Y-97755134D01*
X92512527Y-97756750D01*
X92976346Y-97757388D01*
X93127201Y-97757534D01*
X93619654Y-97759215D01*
X94026918Y-97763503D01*
X94358804Y-97771461D01*
X94625123Y-97784148D01*
X94835686Y-97802626D01*
X95000304Y-97827956D01*
X95128788Y-97861198D01*
X95230950Y-97903415D01*
X95316601Y-97955666D01*
X95395551Y-98019013D01*
X95456273Y-98073127D01*
X95528151Y-98144428D01*
X95586031Y-98219804D01*
X95631552Y-98309656D01*
X95666351Y-98424386D01*
X95692066Y-98574395D01*
X95710334Y-98770086D01*
X95722792Y-99021859D01*
X95731078Y-99340117D01*
X95736830Y-99735261D01*
X95741686Y-100217693D01*
X95744274Y-100550921D01*
X95745850Y-100927765D01*
X95745799Y-101265386D01*
X95744191Y-101552091D01*
X95741099Y-101776188D01*
X95736595Y-101925985D01*
X95730751Y-101989791D01*
X95704148Y-102017792D01*
X95637556Y-102037035D01*
X95516961Y-102047365D01*
X95327847Y-102049995D01*
X95055699Y-102046135D01*
X94407501Y-102032499D01*
X94383078Y-100567115D01*
X94358655Y-99101730D01*
X93260563Y-99101730D01*
X92162471Y-99101730D01*
X91289754Y-100579326D01*
X90417037Y-102056922D01*
X89683870Y-102056922D01*
X89511078Y-102056539D01*
X89274998Y-102053463D01*
X89116460Y-102046234D01*
X89022613Y-102033579D01*
X88980603Y-102014222D01*
X88977577Y-101986889D01*
X88999647Y-101944294D01*
X89066542Y-101824216D01*
X89172039Y-101638445D01*
X89310313Y-101397140D01*
X89475541Y-101110461D01*
X89661898Y-100788567D01*
X89863557Y-100441618D01*
X90037734Y-100141827D01*
X90222740Y-99821732D01*
X90385796Y-99537819D01*
X90521422Y-99299716D01*
X90624139Y-99117047D01*
X90688467Y-98999439D01*
X90708928Y-98956517D01*
X90693557Y-98949103D01*
X90609801Y-98914255D01*
X90480820Y-98863126D01*
X90417235Y-98837122D01*
X90037750Y-98623447D01*
X89716148Y-98336525D01*
X89457384Y-97984460D01*
X89266416Y-97575355D01*
X89148200Y-97117312D01*
X89107693Y-96618434D01*
X89118020Y-96377823D01*
X89199806Y-95920031D01*
X89358927Y-95506249D01*
X89590370Y-95145256D01*
X89889123Y-94845834D01*
X90250175Y-94616764D01*
X90361856Y-94563839D01*
X90485519Y-94511710D01*
X90612640Y-94468369D01*
X90752645Y-94433007D01*
X90914955Y-94404813D01*
X91108993Y-94382976D01*
X91344183Y-94366686D01*
X91629947Y-94355133D01*
X91975709Y-94347506D01*
X92390892Y-94342995D01*
X92884919Y-94340789D01*
X93467212Y-94340078D01*
X95750770Y-94339230D01*
X95750770Y-94996402D01*
G37*
G36*
X103390417Y-65462740D02*
G01*
X103545171Y-65540030D01*
X103758753Y-65661670D01*
X104022436Y-65822566D01*
X104327492Y-66017620D01*
X104665193Y-66241739D01*
X105349039Y-66703237D01*
X106854252Y-68574248D01*
X108359465Y-70445259D01*
X109601529Y-71169841D01*
X109697573Y-71225944D01*
X110004254Y-71406134D01*
X110278612Y-71568895D01*
X110510201Y-71707924D01*
X110688578Y-71816919D01*
X110803296Y-71889576D01*
X110843913Y-71919592D01*
X110823201Y-71937042D01*
X110732860Y-71980067D01*
X110595088Y-72033249D01*
X110558953Y-72047808D01*
X110416006Y-72126416D01*
X110253841Y-72238339D01*
X110092867Y-72366554D01*
X109953494Y-72494039D01*
X109856132Y-72603770D01*
X109821189Y-72678725D01*
X109821214Y-72679049D01*
X109859202Y-72731013D01*
X109954600Y-72821959D01*
X110086993Y-72932403D01*
X110121347Y-72959196D01*
X110280531Y-73069186D01*
X110410004Y-73124682D01*
X110541081Y-73139999D01*
X110654786Y-73149803D01*
X110884056Y-73238833D01*
X111084520Y-73418631D01*
X111253883Y-73686763D01*
X111389852Y-74040794D01*
X111445405Y-74212494D01*
X111529487Y-74452248D01*
X111628054Y-74719694D01*
X111729471Y-74982564D01*
X111789702Y-75136630D01*
X112054261Y-75878610D01*
X112256532Y-76577243D01*
X112401435Y-77254742D01*
X112493894Y-77933321D01*
X112538829Y-78635192D01*
X112544665Y-78857792D01*
X112545959Y-79312688D01*
X112528319Y-79709976D01*
X112489247Y-80076750D01*
X112426247Y-80440102D01*
X112336823Y-80827124D01*
X112261888Y-81099031D01*
X111993082Y-81838273D01*
X111644931Y-82524079D01*
X111221142Y-83153369D01*
X110725420Y-83723067D01*
X110161474Y-84230094D01*
X109533007Y-84671373D01*
X108843728Y-85043824D01*
X108097343Y-85344372D01*
X107297557Y-85569936D01*
X106448078Y-85717440D01*
X106243234Y-85740421D01*
X105812855Y-85772755D01*
X105375726Y-85781884D01*
X104914431Y-85767017D01*
X104411549Y-85727363D01*
X103849664Y-85662132D01*
X103211355Y-85570534D01*
X102740751Y-85492118D01*
X101419129Y-85206051D01*
X100130496Y-84828136D01*
X98875707Y-84358755D01*
X97655619Y-83798287D01*
X96471087Y-83147111D01*
X95322968Y-82405609D01*
X94212116Y-81574159D01*
X94126788Y-81504267D01*
X93847951Y-81261872D01*
X93529706Y-80968794D01*
X93188303Y-80641326D01*
X92839996Y-80295762D01*
X92501035Y-79948395D01*
X92187671Y-79615516D01*
X91916157Y-79313420D01*
X91702744Y-79058399D01*
X91489157Y-78781944D01*
X91266287Y-78478883D01*
X91063868Y-78188827D01*
X90888602Y-77922371D01*
X90747193Y-77690110D01*
X90646342Y-77502638D01*
X90592752Y-77370549D01*
X90593126Y-77304438D01*
X90609265Y-77309320D01*
X90686172Y-77364688D01*
X90813841Y-77470649D01*
X90979494Y-77616430D01*
X91170352Y-77791251D01*
X91315931Y-77926851D01*
X91643611Y-78230511D01*
X91920858Y-78484539D01*
X92162096Y-78701847D01*
X92381747Y-78895344D01*
X92594234Y-79077940D01*
X92813980Y-79262548D01*
X92977698Y-79397620D01*
X94148260Y-80297217D01*
X95358468Y-81114947D01*
X96603621Y-81848582D01*
X97879014Y-82495895D01*
X99179947Y-83054659D01*
X100501716Y-83522645D01*
X101839620Y-83897626D01*
X103188956Y-84177375D01*
X103448148Y-84219617D01*
X104106791Y-84308925D01*
X104753166Y-84371834D01*
X105373739Y-84408011D01*
X105954974Y-84417125D01*
X106483337Y-84398845D01*
X106945294Y-84352839D01*
X107327308Y-84278775D01*
X107424996Y-84251216D01*
X107737125Y-84143654D01*
X108077152Y-84003638D01*
X108414421Y-83845252D01*
X108718274Y-83682577D01*
X108958055Y-83529695D01*
X109136142Y-83389905D01*
X109397627Y-83157891D01*
X109663978Y-82897020D01*
X109906784Y-82635427D01*
X110097635Y-82401244D01*
X110400327Y-81939139D01*
X110716488Y-81309540D01*
X110961619Y-80634854D01*
X111132100Y-79930769D01*
X111224311Y-79212971D01*
X111234633Y-78497150D01*
X111159447Y-77798994D01*
X111121889Y-77597845D01*
X110963854Y-76964134D01*
X110755303Y-76403519D01*
X110490556Y-75904755D01*
X110163933Y-75456595D01*
X109769753Y-75047796D01*
X109540206Y-74829908D01*
X109354236Y-74628213D01*
X109238044Y-74460798D01*
X109185878Y-74316655D01*
X109191986Y-74184774D01*
X109250617Y-74054146D01*
X109281272Y-73989569D01*
X109283550Y-73915252D01*
X109250444Y-73807907D01*
X109177186Y-73640672D01*
X109175566Y-73637164D01*
X109096205Y-73485009D01*
X109022608Y-73376665D01*
X108970517Y-73335384D01*
X108966154Y-73335521D01*
X108865496Y-73374789D01*
X108727195Y-73471042D01*
X108572765Y-73605630D01*
X108423720Y-73759906D01*
X108301573Y-73915222D01*
X108220994Y-74029336D01*
X108144860Y-74126623D01*
X108104475Y-74164509D01*
X108100563Y-74160141D01*
X108068512Y-74089654D01*
X108009942Y-73941810D01*
X107929100Y-73727964D01*
X107830235Y-73459470D01*
X107717595Y-73147682D01*
X107595427Y-72803955D01*
X107115175Y-71442142D01*
X105614187Y-69573811D01*
X104113200Y-67705479D01*
X103795227Y-66942451D01*
X103729582Y-66783177D01*
X103592114Y-66436906D01*
X103475327Y-66124744D01*
X103382943Y-65857758D01*
X103318684Y-65647013D01*
X103286273Y-65503578D01*
X103289430Y-65438519D01*
X103303220Y-65434896D01*
X103390417Y-65462740D01*
G37*
G36*
X115045047Y-79343886D02*
G01*
X115045700Y-80463895D01*
X115046149Y-81594806D01*
X115046393Y-82732277D01*
X115046433Y-83871962D01*
X115046267Y-85009519D01*
X115045897Y-86140604D01*
X115045322Y-87260872D01*
X115044542Y-88365981D01*
X115043556Y-89451585D01*
X115042365Y-90513343D01*
X115040968Y-91546908D01*
X115039366Y-92547939D01*
X115037558Y-93512091D01*
X115035544Y-94435020D01*
X115033324Y-95312382D01*
X115030898Y-96139835D01*
X115028265Y-96913033D01*
X115028236Y-96920263D01*
X115025426Y-97627633D01*
X115022380Y-98279291D01*
X115019128Y-98863664D01*
X115015669Y-99376408D01*
X115012003Y-99813178D01*
X115008129Y-100169632D01*
X115004049Y-100441425D01*
X114999761Y-100624213D01*
X114995266Y-100713653D01*
X114932482Y-101120735D01*
X114764272Y-101728758D01*
X114510926Y-102289805D01*
X114170906Y-102807034D01*
X113742673Y-103283601D01*
X113469011Y-103528991D01*
X112965585Y-103887575D01*
X112424012Y-104159475D01*
X111835061Y-104349851D01*
X111828127Y-104351545D01*
X111783294Y-104361810D01*
X111734148Y-104371283D01*
X111676797Y-104379997D01*
X111607351Y-104387984D01*
X111521919Y-104395278D01*
X111416610Y-104401911D01*
X111287534Y-104407918D01*
X111130799Y-104413331D01*
X110942515Y-104418182D01*
X110718791Y-104422506D01*
X110455737Y-104426335D01*
X110149461Y-104429702D01*
X109796074Y-104432641D01*
X109391683Y-104435184D01*
X108932398Y-104437364D01*
X108414329Y-104439215D01*
X107833584Y-104440770D01*
X107186274Y-104442061D01*
X106468506Y-104443122D01*
X105676391Y-104443986D01*
X104806038Y-104444685D01*
X103853555Y-104445254D01*
X102815052Y-104445725D01*
X101686639Y-104446131D01*
X100464424Y-104446505D01*
X99769278Y-104446704D01*
X98600823Y-104447008D01*
X97523976Y-104447220D01*
X96534836Y-104447307D01*
X95629503Y-104447236D01*
X94804075Y-104446976D01*
X94054650Y-104446494D01*
X93377328Y-104445757D01*
X92768208Y-104444735D01*
X92223388Y-104443394D01*
X91738967Y-104441702D01*
X91311043Y-104439627D01*
X90935717Y-104437137D01*
X90609086Y-104434199D01*
X90327250Y-104430781D01*
X90086306Y-104426851D01*
X89882355Y-104422377D01*
X89711495Y-104417327D01*
X89569824Y-104411667D01*
X89453442Y-104405367D01*
X89358447Y-104398393D01*
X89280939Y-104390714D01*
X89217015Y-104382297D01*
X89162775Y-104373110D01*
X89114318Y-104363120D01*
X89067742Y-104352296D01*
X88667811Y-104234548D01*
X88103654Y-103988214D01*
X87585533Y-103664482D01*
X87121327Y-103271428D01*
X86718914Y-102817129D01*
X86386174Y-102309663D01*
X86130984Y-101757108D01*
X85961225Y-101167539D01*
X85958865Y-101155366D01*
X85952087Y-101111230D01*
X85945724Y-101053204D01*
X85939766Y-100978296D01*
X85934197Y-100883512D01*
X85929005Y-100765860D01*
X85924177Y-100622347D01*
X85919701Y-100449979D01*
X85915563Y-100245764D01*
X85911750Y-100006709D01*
X85908250Y-99729820D01*
X85905049Y-99412105D01*
X85902134Y-99050571D01*
X85899493Y-98642226D01*
X85897112Y-98184075D01*
X85894979Y-97673126D01*
X85893080Y-97106386D01*
X85891404Y-96480862D01*
X85889935Y-95793562D01*
X85888662Y-95041491D01*
X85887573Y-94221658D01*
X85886652Y-93331069D01*
X85886522Y-93166922D01*
X87007308Y-93166922D01*
X87008157Y-96891442D01*
X87008164Y-96921294D01*
X87008626Y-97635277D01*
X87009703Y-98258448D01*
X87011513Y-98797423D01*
X87014172Y-99258824D01*
X87017798Y-99649268D01*
X87022509Y-99975374D01*
X87028421Y-100243761D01*
X87035652Y-100461048D01*
X87044319Y-100633855D01*
X87054539Y-100768799D01*
X87066431Y-100872501D01*
X87080110Y-100951578D01*
X87181763Y-101307838D01*
X87395445Y-101768871D01*
X87685380Y-102190084D01*
X88040455Y-102560374D01*
X88449559Y-102868640D01*
X88901579Y-103103782D01*
X89385405Y-103254696D01*
X89431940Y-103260222D01*
X89581089Y-103268395D01*
X89818888Y-103276060D01*
X90139856Y-103283218D01*
X90538512Y-103289871D01*
X91009376Y-103296020D01*
X91546967Y-103301664D01*
X92145804Y-103306807D01*
X92800408Y-103311447D01*
X93505297Y-103315587D01*
X94254990Y-103319227D01*
X95044008Y-103322369D01*
X95866869Y-103325012D01*
X96718093Y-103327159D01*
X97592200Y-103328811D01*
X98483708Y-103329967D01*
X99387137Y-103330630D01*
X100297006Y-103330800D01*
X101207836Y-103330479D01*
X102114144Y-103329666D01*
X103010451Y-103328364D01*
X103891277Y-103326572D01*
X104751139Y-103324293D01*
X105584559Y-103321527D01*
X106386054Y-103318276D01*
X107150145Y-103314539D01*
X107871351Y-103310318D01*
X108544192Y-103305615D01*
X109163186Y-103300429D01*
X109722853Y-103294763D01*
X110217713Y-103288616D01*
X110642284Y-103281991D01*
X110991087Y-103274887D01*
X111258641Y-103267307D01*
X111439465Y-103259250D01*
X111528078Y-103250719D01*
X111710842Y-103205001D01*
X112157282Y-103032071D01*
X112573296Y-102775287D01*
X112970823Y-102427840D01*
X113250670Y-102119566D01*
X113480526Y-101792714D01*
X113650242Y-101445823D01*
X113776200Y-101050886D01*
X113783987Y-101019919D01*
X113800884Y-100946209D01*
X113815492Y-100867223D01*
X113827978Y-100775853D01*
X113838506Y-100664991D01*
X113847244Y-100527526D01*
X113854356Y-100356350D01*
X113860010Y-100144354D01*
X113864371Y-99884429D01*
X113867606Y-99569466D01*
X113869880Y-99192356D01*
X113871360Y-98745989D01*
X113872211Y-98223258D01*
X113872600Y-97617052D01*
X113872693Y-96920263D01*
X113872693Y-93166922D01*
X100440001Y-93166922D01*
X87007308Y-93166922D01*
X85886522Y-93166922D01*
X85885889Y-92366732D01*
X85885696Y-92043461D01*
X87007308Y-92043461D01*
X100440001Y-92043461D01*
X113872693Y-92043461D01*
X113872693Y-78984928D01*
X113872686Y-77849853D01*
X113872646Y-76594055D01*
X113872546Y-75429399D01*
X113872361Y-74352333D01*
X113872066Y-73359308D01*
X113871635Y-72446773D01*
X113871043Y-71611178D01*
X113870265Y-70848972D01*
X113869274Y-70156606D01*
X113868045Y-69530528D01*
X113866553Y-68967189D01*
X113864772Y-68463038D01*
X113862677Y-68014525D01*
X113860242Y-67618099D01*
X113857442Y-67270210D01*
X113854251Y-66967307D01*
X113850644Y-66705841D01*
X113846595Y-66482261D01*
X113842079Y-66293017D01*
X113837070Y-66134558D01*
X113831543Y-66003333D01*
X113825472Y-65895794D01*
X113818832Y-65808388D01*
X113811597Y-65737567D01*
X113803742Y-65679779D01*
X113795241Y-65631474D01*
X113786069Y-65589102D01*
X113776200Y-65549112D01*
X113660719Y-65180785D01*
X113495011Y-64831795D01*
X113270546Y-64505624D01*
X112970823Y-64174101D01*
X112873518Y-64078507D01*
X112648642Y-63878254D01*
X112438036Y-63727264D01*
X112211924Y-63603136D01*
X112206024Y-63600268D01*
X112133539Y-63563874D01*
X112068635Y-63530242D01*
X112007414Y-63499268D01*
X111945977Y-63470848D01*
X111880424Y-63444877D01*
X111806856Y-63421252D01*
X111721375Y-63399868D01*
X111620081Y-63380621D01*
X111499076Y-63363407D01*
X111354459Y-63348121D01*
X111182333Y-63334660D01*
X110978799Y-63322919D01*
X110739956Y-63312795D01*
X110461907Y-63304182D01*
X110140751Y-63296977D01*
X109772591Y-63291075D01*
X109353527Y-63286373D01*
X108879660Y-63282765D01*
X108347091Y-63280149D01*
X107751921Y-63278420D01*
X107090250Y-63277473D01*
X106358181Y-63277204D01*
X105551814Y-63277510D01*
X104667249Y-63278286D01*
X103700589Y-63279427D01*
X102647933Y-63280830D01*
X101505383Y-63282391D01*
X100269039Y-63284005D01*
X89474039Y-63297499D01*
X89083270Y-63430732D01*
X89069493Y-63435467D01*
X88591529Y-63649778D01*
X88158727Y-63940727D01*
X87781135Y-64297191D01*
X87468803Y-64708045D01*
X87231778Y-65162163D01*
X87080110Y-65648421D01*
X87072901Y-65691924D01*
X87066008Y-65756064D01*
X87059614Y-65843290D01*
X87053700Y-65956994D01*
X87048248Y-66100566D01*
X87043239Y-66277398D01*
X87038657Y-66490881D01*
X87034481Y-66744406D01*
X87030694Y-67041365D01*
X87027278Y-67385148D01*
X87024215Y-67779147D01*
X87021485Y-68226752D01*
X87019072Y-68731356D01*
X87016956Y-69296349D01*
X87015120Y-69925123D01*
X87013545Y-70621068D01*
X87012213Y-71387576D01*
X87011106Y-72228038D01*
X87010205Y-73145845D01*
X87009492Y-74144388D01*
X87008949Y-75227059D01*
X87008557Y-76397249D01*
X87008299Y-77658349D01*
X87008157Y-79013749D01*
X87007308Y-92043461D01*
X85885696Y-92043461D01*
X85885269Y-91325653D01*
X85884781Y-90204839D01*
X85884410Y-89001298D01*
X85884144Y-87712037D01*
X85883970Y-86334061D01*
X85883876Y-84864380D01*
X85883847Y-83299999D01*
X85883841Y-82714895D01*
X85883782Y-81180372D01*
X85883692Y-79739395D01*
X85883617Y-78388924D01*
X85883600Y-77125923D01*
X85883686Y-75947355D01*
X85883919Y-74850182D01*
X85884342Y-73831367D01*
X85885000Y-72887873D01*
X85885937Y-72016662D01*
X85887197Y-71214698D01*
X85888825Y-70478942D01*
X85890864Y-69806359D01*
X85893358Y-69193910D01*
X85896352Y-68638558D01*
X85899889Y-68137266D01*
X85904015Y-67686997D01*
X85908772Y-67284713D01*
X85914206Y-66927378D01*
X85920359Y-66611953D01*
X85927277Y-66335402D01*
X85935003Y-66094688D01*
X85943582Y-65886773D01*
X85953057Y-65708619D01*
X85963474Y-65557191D01*
X85974875Y-65429449D01*
X85987305Y-65322358D01*
X86000808Y-65232880D01*
X86015428Y-65157978D01*
X86031210Y-65094613D01*
X86048197Y-65039750D01*
X86066434Y-64990351D01*
X86085964Y-64943378D01*
X86106833Y-64895795D01*
X86129083Y-64844564D01*
X86152759Y-64786647D01*
X86214553Y-64637213D01*
X86449159Y-64183979D01*
X86747961Y-63761594D01*
X87126999Y-63346345D01*
X87174233Y-63300118D01*
X87533800Y-62982418D01*
X87898362Y-62728374D01*
X88298744Y-62518968D01*
X88765770Y-62335180D01*
X89229808Y-62174038D01*
X100440001Y-62174038D01*
X111650193Y-62174038D01*
X112065385Y-62314059D01*
X112591281Y-62519512D01*
X113051313Y-62764523D01*
X113463377Y-63061870D01*
X113851070Y-63426249D01*
X114104653Y-63713096D01*
X114452289Y-64205489D01*
X114712559Y-64728152D01*
X114891271Y-65293731D01*
X114994234Y-65914871D01*
X114998488Y-66000044D01*
X115002798Y-66181013D01*
X115006906Y-66451072D01*
X115010812Y-66805879D01*
X115014515Y-67241090D01*
X115018016Y-67752360D01*
X115021315Y-68335347D01*
X115024410Y-68985705D01*
X115027303Y-69699092D01*
X115029993Y-70471164D01*
X115032480Y-71297576D01*
X115034763Y-72173985D01*
X115036844Y-73096047D01*
X115038720Y-74059419D01*
X115040394Y-75059757D01*
X115041863Y-76092716D01*
X115043128Y-77153953D01*
X115044190Y-78239125D01*
X115044769Y-78984928D01*
X115045047Y-79343886D01*
G37*
G36*
X71647752Y-100048866D02*
G01*
X71654297Y-100843777D01*
X72199220Y-100048866D01*
X72744142Y-99253955D01*
X72986768Y-99253955D01*
X73229394Y-99253955D01*
X73229394Y-100543799D01*
X73229394Y-101833643D01*
X72944484Y-101833643D01*
X72659574Y-101833643D01*
X72653029Y-101041556D01*
X72646484Y-100249469D01*
X72100781Y-101041007D01*
X71555078Y-101832545D01*
X71313232Y-101833094D01*
X71071387Y-101833643D01*
X71071387Y-100543799D01*
X71071387Y-99253955D01*
X71356297Y-99253955D01*
X71641207Y-99253955D01*
X71647752Y-100048866D01*
G37*
G36*
X74569235Y-101532306D02*
G01*
X74626496Y-101569218D01*
X74710703Y-101660778D01*
X74757298Y-101769245D01*
X74766301Y-101884745D01*
X74737732Y-101997406D01*
X74671611Y-102097351D01*
X74567958Y-102174707D01*
X74506451Y-102203758D01*
X74426049Y-102225906D01*
X74348890Y-102218424D01*
X74253100Y-102181806D01*
X74193254Y-102149544D01*
X74107736Y-102069730D01*
X74062328Y-101964072D01*
X74054341Y-101827781D01*
X74057564Y-101792526D01*
X74089939Y-101672942D01*
X74157124Y-101584707D01*
X74264194Y-101520387D01*
X74329286Y-101498217D01*
X74449490Y-101491267D01*
X74569235Y-101532306D01*
G37*
G36*
X75362598Y-99985694D02*
G01*
X75362598Y-100295752D01*
X75722266Y-100295752D01*
X76081934Y-100295752D01*
X76081934Y-99985694D01*
X76081934Y-99675635D01*
X76329980Y-99675635D01*
X76578027Y-99675635D01*
X76578027Y-100543799D01*
X76578027Y-101411963D01*
X76329980Y-101411963D01*
X76081934Y-101411963D01*
X76081934Y-101101905D01*
X76081934Y-100791846D01*
X75722266Y-100791846D01*
X75362598Y-100791846D01*
X75362598Y-101101905D01*
X75362598Y-101411963D01*
X75114551Y-101411963D01*
X74866504Y-101411963D01*
X74866504Y-100543799D01*
X74866504Y-99675635D01*
X75114551Y-99675635D01*
X75362598Y-99675635D01*
X75362598Y-99985694D01*
G37*
G36*
X65787988Y-100541973D02*
G01*
X65787988Y-101808838D01*
X65515137Y-101808838D01*
X65242285Y-101808838D01*
X65242285Y-100751895D01*
X65242285Y-99694952D01*
X64975635Y-99704128D01*
X64819509Y-99714117D01*
X64700151Y-99734661D01*
X64610312Y-99769530D01*
X64540101Y-99822585D01*
X64479625Y-99897685D01*
X64449398Y-99952582D01*
X64429366Y-100029156D01*
X64423730Y-100134522D01*
X64427378Y-100223158D01*
X64444394Y-100303561D01*
X64479625Y-100371358D01*
X64506578Y-100408247D01*
X64577391Y-100477277D01*
X64665925Y-100523423D01*
X64782480Y-100551028D01*
X64937356Y-100564439D01*
X65167871Y-100574521D01*
X65167871Y-100785397D01*
X65167871Y-100996272D01*
X64864014Y-100985175D01*
X64831589Y-100983882D01*
X64637561Y-100969728D01*
X64481518Y-100944142D01*
X64353918Y-100904269D01*
X64245219Y-100847253D01*
X64145879Y-100770238D01*
X64115538Y-100741640D01*
X63992223Y-100586260D01*
X63912146Y-100407390D01*
X63875852Y-100206659D01*
X63883884Y-99985694D01*
X63889991Y-99945299D01*
X63944602Y-99754320D01*
X64038456Y-99593362D01*
X64172625Y-99460969D01*
X64348185Y-99355682D01*
X64379938Y-99341045D01*
X64419955Y-99324742D01*
X64461968Y-99312279D01*
X64512781Y-99303033D01*
X64579192Y-99296376D01*
X64668006Y-99291683D01*
X64786021Y-99288330D01*
X64940041Y-99285689D01*
X65136865Y-99283135D01*
X65787988Y-99275108D01*
X65787988Y-100541973D01*
G37*
G36*
X66735868Y-99412641D02*
G01*
X67001620Y-99564014D01*
X67002519Y-99731446D01*
X67003418Y-99898877D01*
X67127441Y-99898877D01*
X67251465Y-99898877D01*
X67251465Y-100109717D01*
X67251465Y-100320557D01*
X67129440Y-100320557D01*
X67007415Y-100320557D01*
X66999215Y-100897266D01*
X66998973Y-100914232D01*
X66996185Y-101094678D01*
X66993165Y-101233189D01*
X66989195Y-101336856D01*
X66983556Y-101412767D01*
X66975531Y-101468010D01*
X66964401Y-101509675D01*
X66949446Y-101544848D01*
X66929949Y-101580620D01*
X66861139Y-101672644D01*
X66741849Y-101762769D01*
X66582965Y-101826135D01*
X66537135Y-101836363D01*
X66439488Y-101846596D01*
X66333822Y-101846854D01*
X66231632Y-101838331D01*
X66144409Y-101822217D01*
X66083648Y-101799704D01*
X66060840Y-101771985D01*
X66060875Y-101770506D01*
X66066848Y-101728814D01*
X66081082Y-101654979D01*
X66100708Y-101563966D01*
X66140577Y-101387423D01*
X66231570Y-101401974D01*
X66245180Y-101403949D01*
X66320955Y-101401542D01*
X66383938Y-101366873D01*
X66399634Y-101353711D01*
X66416561Y-101334727D01*
X66428909Y-101308321D01*
X66437564Y-101267461D01*
X66443411Y-101205118D01*
X66447336Y-101114262D01*
X66450223Y-100987862D01*
X66452959Y-100818889D01*
X66460606Y-100320557D01*
X66273125Y-100320557D01*
X66085644Y-100320557D01*
X66085644Y-100110804D01*
X66085644Y-99901051D01*
X66265478Y-99893763D01*
X66445312Y-99886475D01*
X66457715Y-99573871D01*
X66470117Y-99261268D01*
X66735868Y-99412641D01*
G37*
G36*
X62811618Y-99270665D02*
G01*
X63024793Y-99331327D01*
X63215433Y-99429252D01*
X63255465Y-99456992D01*
X63426001Y-99610333D01*
X63558646Y-99795691D01*
X63653396Y-100013059D01*
X63710248Y-100262431D01*
X63729199Y-100543799D01*
X63729104Y-100564896D01*
X63723441Y-100713379D01*
X63710251Y-100849238D01*
X63691237Y-100954066D01*
X63689950Y-100959044D01*
X63606243Y-101194684D01*
X63487712Y-101396904D01*
X63336700Y-101563607D01*
X63155550Y-101692699D01*
X62946604Y-101782083D01*
X62712207Y-101829665D01*
X62539032Y-101838011D01*
X62299934Y-101813765D01*
X62081088Y-101747335D01*
X61886212Y-101639984D01*
X61719027Y-101492971D01*
X61635689Y-101392063D01*
X61535598Y-101222696D01*
X61473901Y-101036184D01*
X61452441Y-100940674D01*
X61716455Y-100941038D01*
X61980469Y-100941402D01*
X62042480Y-101070171D01*
X62101179Y-101166754D01*
X62211917Y-101274352D01*
X62269501Y-101311215D01*
X62330504Y-101336991D01*
X62404915Y-101351043D01*
X62510823Y-101358461D01*
X62634238Y-101358841D01*
X62753554Y-101340919D01*
X62855212Y-101298381D01*
X62955272Y-101226456D01*
X62982865Y-101201038D01*
X63073993Y-101079399D01*
X63142729Y-100924396D01*
X63186439Y-100745860D01*
X63202486Y-100553622D01*
X63188234Y-100357513D01*
X63181641Y-100318662D01*
X63126056Y-100118418D01*
X63040537Y-99957019D01*
X62925540Y-99834972D01*
X62781518Y-99752783D01*
X62608923Y-99710960D01*
X62593422Y-99709399D01*
X62440220Y-99717030D01*
X62296662Y-99762862D01*
X62172139Y-99841157D01*
X62076043Y-99946177D01*
X62017763Y-100072184D01*
X61990959Y-100171729D01*
X61721301Y-100171729D01*
X61451643Y-100171729D01*
X61482753Y-100041504D01*
X61527778Y-99889818D01*
X61616530Y-99704435D01*
X61736970Y-99552368D01*
X61892732Y-99428179D01*
X61938035Y-99400810D01*
X62139115Y-99312338D01*
X62358555Y-99261162D01*
X62586130Y-99247274D01*
X62811618Y-99270665D01*
G37*
G36*
X69118913Y-99979492D02*
G01*
X69095379Y-100019915D01*
X69050031Y-100098342D01*
X68989396Y-100203511D01*
X68918436Y-100326815D01*
X68842113Y-100459647D01*
X68612726Y-100859185D01*
X68890471Y-101327811D01*
X68925616Y-101387117D01*
X69004043Y-101519514D01*
X69072362Y-101634927D01*
X69126775Y-101726934D01*
X69163483Y-101789112D01*
X69178688Y-101815039D01*
X69161821Y-101822005D01*
X69104496Y-101828048D01*
X69015759Y-101832138D01*
X68904942Y-101833643D01*
X68620727Y-101833643D01*
X68441508Y-101510132D01*
X68409504Y-101453036D01*
X68349342Y-101349572D01*
X68299161Y-101268352D01*
X68263468Y-101216525D01*
X68246770Y-101201239D01*
X68243462Y-101205434D01*
X68218930Y-101243695D01*
X68176308Y-101314094D01*
X68120506Y-101408441D01*
X68056438Y-101518549D01*
X67881625Y-101821241D01*
X67603752Y-101828254D01*
X67504381Y-101830023D01*
X67411822Y-101830001D01*
X67349017Y-101827993D01*
X67325879Y-101824147D01*
X67328119Y-101818959D01*
X67349902Y-101779151D01*
X67391913Y-101705694D01*
X67450507Y-101604878D01*
X67522039Y-101482989D01*
X67602865Y-101346316D01*
X67637065Y-101288483D01*
X67714596Y-101155742D01*
X67781196Y-101039435D01*
X67833207Y-100946084D01*
X67866972Y-100882208D01*
X67878834Y-100854329D01*
X67877561Y-100849925D01*
X67858229Y-100810040D01*
X67818515Y-100736197D01*
X67762137Y-100635088D01*
X67692810Y-100513407D01*
X67614250Y-100377845D01*
X67588510Y-100333710D01*
X67512704Y-100202863D01*
X67447338Y-100088760D01*
X67396094Y-99997904D01*
X67362649Y-99936797D01*
X67350684Y-99911945D01*
X67368992Y-99907171D01*
X67427760Y-99903755D01*
X67517390Y-99902695D01*
X67627959Y-99904266D01*
X67905234Y-99911280D01*
X68077564Y-100229923D01*
X68249894Y-100548567D01*
X68323234Y-100415958D01*
X68329088Y-100405327D01*
X68378971Y-100312578D01*
X68437788Y-100200539D01*
X68494023Y-100091114D01*
X68591472Y-99898877D01*
X68878899Y-99898877D01*
X69166326Y-99898877D01*
X69118913Y-99979492D01*
G37*
G36*
X70124685Y-99887869D02*
G01*
X70221633Y-99891942D01*
X70294827Y-99902370D01*
X70359139Y-99921545D01*
X70429442Y-99951859D01*
X70503145Y-99990209D01*
X70669330Y-100113297D01*
X70799388Y-100270264D01*
X70893074Y-100460764D01*
X70950142Y-100684451D01*
X70951866Y-100695452D01*
X70965793Y-100923506D01*
X70938448Y-101138029D01*
X70872725Y-101334033D01*
X70771518Y-101506527D01*
X70637722Y-101650522D01*
X70474231Y-101761028D01*
X70283939Y-101833054D01*
X70260604Y-101837591D01*
X70178000Y-101845824D01*
X70070375Y-101849958D01*
X69954924Y-101849150D01*
X69843047Y-101841581D01*
X69638480Y-101800811D01*
X69467223Y-101725438D01*
X69326953Y-101614593D01*
X69303044Y-101587691D01*
X69252218Y-101517850D01*
X69204656Y-101438835D01*
X69166826Y-101362977D01*
X69145196Y-101302607D01*
X69146236Y-101270057D01*
X69156609Y-101266341D01*
X69207755Y-101258596D01*
X69290475Y-101250774D01*
X69393081Y-101244105D01*
X69626166Y-101231913D01*
X69713089Y-101326762D01*
X69763945Y-101378176D01*
X69810607Y-101408440D01*
X69869988Y-101423715D01*
X69960531Y-101431832D01*
X70016702Y-101433948D01*
X70138052Y-101422334D01*
X70233808Y-101382216D01*
X70317609Y-101308900D01*
X70326392Y-101298791D01*
X70373541Y-101225084D01*
X70404439Y-101131350D01*
X70421333Y-101008035D01*
X70426465Y-100845585D01*
X70422978Y-100732866D01*
X70399848Y-100574540D01*
X70352829Y-100455895D01*
X70279335Y-100373269D01*
X70176784Y-100323000D01*
X70042593Y-100301426D01*
X69951527Y-100300220D01*
X69877176Y-100312574D01*
X69813753Y-100342918D01*
X69771640Y-100374532D01*
X69693907Y-100473130D01*
X69653910Y-100593409D01*
X69645117Y-100655420D01*
X70010986Y-100662284D01*
X70376855Y-100669149D01*
X70376855Y-100842118D01*
X70376855Y-101015088D01*
X69753487Y-101015088D01*
X69130118Y-101015088D01*
X69142300Y-100760840D01*
X69149379Y-100649144D01*
X69162987Y-100539769D01*
X69184670Y-100450926D01*
X69217518Y-100366412D01*
X69220657Y-100359525D01*
X69322975Y-100194783D01*
X69462263Y-100056170D01*
X69628961Y-99953283D01*
X69674496Y-99933239D01*
X69741701Y-99909968D01*
X69813233Y-99896243D01*
X69904169Y-99889591D01*
X70029590Y-99887537D01*
X70124685Y-99887869D01*
G37*
G36*
X61248730Y-100545549D02*
G01*
X61248730Y-101812339D01*
X60560400Y-101803033D01*
X60457885Y-101801573D01*
X60250637Y-101797615D01*
X60083886Y-101791871D01*
X59951249Y-101783071D01*
X59846342Y-101769947D01*
X59762782Y-101751228D01*
X59694184Y-101725646D01*
X59634166Y-101691931D01*
X59576344Y-101648813D01*
X59514334Y-101595024D01*
X59457631Y-101538984D01*
X59367767Y-101411078D01*
X59317720Y-101264502D01*
X59303419Y-101089502D01*
X59308077Y-101020427D01*
X59846155Y-101020427D01*
X59855334Y-101132544D01*
X59903431Y-101233859D01*
X59988400Y-101312109D01*
X60000512Y-101319215D01*
X60041507Y-101337955D01*
X60091797Y-101350400D01*
X60161454Y-101357779D01*
X60260554Y-101361323D01*
X60399170Y-101362261D01*
X60727832Y-101362354D01*
X60727832Y-100531397D01*
X60727832Y-99700440D01*
X60466586Y-99700440D01*
X60336064Y-99703110D01*
X60209505Y-99715402D01*
X60115416Y-99740097D01*
X60044599Y-99779822D01*
X59987856Y-99837205D01*
X59970517Y-99863176D01*
X59938287Y-99961880D01*
X59940027Y-100071873D01*
X59976400Y-100173702D01*
X59985132Y-100187611D01*
X60047216Y-100253100D01*
X60136367Y-100298750D01*
X60259611Y-100327188D01*
X60423975Y-100341040D01*
X60653418Y-100350150D01*
X60653418Y-100521389D01*
X60653418Y-100692627D01*
X60404383Y-100692627D01*
X60333423Y-100693638D01*
X60184834Y-100706095D01*
X60071306Y-100735203D01*
X59983549Y-100784039D01*
X59912274Y-100855682D01*
X59877939Y-100909773D01*
X59846155Y-101020427D01*
X59308077Y-101020427D01*
X59309068Y-101005723D01*
X59352485Y-100842739D01*
X59437146Y-100706501D01*
X59561311Y-100599355D01*
X59723242Y-100523644D01*
X59765284Y-100509417D01*
X59823076Y-100486086D01*
X59840402Y-100469886D01*
X59822461Y-100457340D01*
X59738378Y-100426507D01*
X59667675Y-100394755D01*
X59614680Y-100360271D01*
X59563051Y-100314026D01*
X59494466Y-100238958D01*
X59439594Y-100147574D01*
X59411731Y-100042101D01*
X59404363Y-99905784D01*
X59406075Y-99829306D01*
X59415566Y-99747896D01*
X59437934Y-99681018D01*
X59478281Y-99608128D01*
X59525037Y-99544980D01*
X59640500Y-99440372D01*
X59782898Y-99357250D01*
X59937899Y-99305063D01*
X59965474Y-99300819D01*
X60048967Y-99293737D01*
X60168413Y-99287668D01*
X60315029Y-99282934D01*
X60480032Y-99279857D01*
X60654639Y-99278760D01*
X61248730Y-99278760D01*
X61248730Y-100531397D01*
X61248730Y-100545549D01*
G37*
G36*
X76937695Y-98930434D02*
G01*
X77008427Y-98970058D01*
X77149794Y-99080903D01*
X77265435Y-99215703D01*
X77343419Y-99361772D01*
X77353756Y-99390336D01*
X77364961Y-99426574D01*
X77374021Y-99466927D01*
X77381165Y-99516449D01*
X77386618Y-99580195D01*
X77390609Y-99663221D01*
X77393366Y-99770581D01*
X77395114Y-99907330D01*
X77396081Y-100078524D01*
X77396495Y-100289217D01*
X77396582Y-100544464D01*
X77396569Y-100638709D01*
X77396328Y-100879174D01*
X77395623Y-101076739D01*
X77394250Y-101236387D01*
X77392006Y-101363102D01*
X77388685Y-101461866D01*
X77384085Y-101537661D01*
X77378000Y-101595471D01*
X77370227Y-101640279D01*
X77360561Y-101677067D01*
X77348799Y-101710819D01*
X77266492Y-101870742D01*
X77144657Y-102015363D01*
X76995231Y-102126593D01*
X76826187Y-102197017D01*
X76807645Y-102201018D01*
X76737675Y-102209345D01*
X76629274Y-102216107D01*
X76480207Y-102221371D01*
X76288244Y-102225203D01*
X76051152Y-102227672D01*
X75766697Y-102228844D01*
X74818942Y-102230518D01*
X74879930Y-102109093D01*
X74916956Y-102018066D01*
X74940918Y-101861046D01*
X74940918Y-101734424D01*
X75810314Y-101734424D01*
X75943349Y-101734386D01*
X76163336Y-101733853D01*
X76341374Y-101732173D01*
X76482496Y-101728703D01*
X76591737Y-101722796D01*
X76674131Y-101713811D01*
X76734713Y-101701101D01*
X76778516Y-101684023D01*
X76810575Y-101661933D01*
X76835924Y-101634187D01*
X76859598Y-101600139D01*
X76866037Y-101588833D01*
X76875221Y-101563881D01*
X76882639Y-101527182D01*
X76888474Y-101474001D01*
X76892908Y-101399607D01*
X76896126Y-101299267D01*
X76898309Y-101168249D01*
X76899642Y-101001820D01*
X76900307Y-100795248D01*
X76900488Y-100543799D01*
X76900427Y-100387198D01*
X76899978Y-100163258D01*
X76898934Y-99981352D01*
X76897112Y-99836749D01*
X76894330Y-99724716D01*
X76890404Y-99640520D01*
X76885151Y-99579429D01*
X76878388Y-99536710D01*
X76869931Y-99507631D01*
X76859598Y-99487459D01*
X76855267Y-99480875D01*
X76833038Y-99449486D01*
X76808641Y-99423714D01*
X76777332Y-99403005D01*
X76734366Y-99386805D01*
X76675000Y-99374561D01*
X76594490Y-99365720D01*
X76488090Y-99359727D01*
X76351058Y-99356030D01*
X76178649Y-99354074D01*
X75966118Y-99353307D01*
X75708723Y-99353174D01*
X75576839Y-99353190D01*
X75355175Y-99353406D01*
X75175659Y-99354069D01*
X75033361Y-99355425D01*
X74923351Y-99357715D01*
X74840702Y-99361184D01*
X74780482Y-99366076D01*
X74737764Y-99372634D01*
X74707617Y-99381101D01*
X74685112Y-99391722D01*
X74665320Y-99404739D01*
X74640911Y-99422418D01*
X74608248Y-99449416D01*
X74582025Y-99479887D01*
X74561536Y-99518958D01*
X74546072Y-99571756D01*
X74534927Y-99643406D01*
X74527393Y-99739034D01*
X74522765Y-99863768D01*
X74520334Y-100022732D01*
X74519394Y-100221053D01*
X74519238Y-100463857D01*
X74519238Y-101328957D01*
X74443867Y-101317895D01*
X74384510Y-101316356D01*
X74276759Y-101334010D01*
X74168612Y-101369865D01*
X74083987Y-101417315D01*
X74023145Y-101465173D01*
X74023144Y-100561387D01*
X74023664Y-100373715D01*
X74025446Y-100168472D01*
X74028346Y-99980134D01*
X74032206Y-99815243D01*
X74036869Y-99680337D01*
X74042180Y-99581959D01*
X74047979Y-99526648D01*
X74106806Y-99337621D01*
X74207647Y-99168000D01*
X74345181Y-99027869D01*
X74514881Y-98923083D01*
X74521047Y-98920248D01*
X74549892Y-98907892D01*
X74580435Y-98897723D01*
X74617467Y-98889527D01*
X74665779Y-98883092D01*
X74730162Y-98878205D01*
X74815408Y-98874654D01*
X74926308Y-98872225D01*
X75067652Y-98870706D01*
X75244233Y-98869885D01*
X75460840Y-98869548D01*
X75722266Y-98869483D01*
X76813672Y-98869483D01*
X76937695Y-98930434D01*
G37*
%TD*%
M02*
